<svg width="45" height="12" viewBox="0 0 45 12" fill="none" xmlns="http://www.w3.org/2000/svg">
<path d="M0.64 11.6162C0.554667 11.6162 0.48 11.5842 0.416 11.5202C0.352 11.4562 0.32 11.3815 0.32 11.2962L0.352 11.1202L4.32 0.76821C4.40533 0.533544 4.576 0.41621 4.832 0.41621H5.856C6.112 0.41621 6.28267 0.533544 6.368 0.76821L10.336 11.1202L10.368 11.2962C10.368 11.3815 10.3307 11.4562 10.256 11.5202C10.192 11.5842 10.1173 11.6162 10.032 11.6162H9.28C9.17333 11.6162 9.08267 11.5895 9.008 11.5362C8.944 11.4722 8.90133 11.4082 8.88 11.3442L7.984 9.04021H2.688L1.808 11.3442C1.72267 11.5255 1.58933 11.6162 1.408 11.6162H0.64ZM3.152 7.71221H7.536L5.344 1.96821L3.152 7.71221ZM15.9515 11.7762C14.7995 11.7762 13.9195 11.3709 13.3115 10.5602V11.2482C13.3115 11.3549 13.2742 11.4455 13.1995 11.5202C13.1355 11.5842 13.0502 11.6162 12.9435 11.6162H12.2715C12.1648 11.6162 12.0742 11.5842 11.9995 11.5202C11.9355 11.4455 11.9035 11.3549 11.9035 11.2482V0.62421C11.9035 0.506877 11.9355 0.41621 11.9995 0.35221C12.0742 0.28821 12.1648 0.25621 12.2715 0.25621H12.9915C13.0982 0.25621 13.1835 0.293544 13.2475 0.368211C13.3222 0.432211 13.3595 0.517544 13.3595 0.62421V4.32021C13.9568 3.53088 14.8208 3.13621 15.9515 3.13621C17.0715 3.13621 17.9088 3.50421 18.4635 4.24021C19.0288 4.96554 19.3275 5.87754 19.3595 6.97621C19.3702 7.09354 19.3755 7.25354 19.3755 7.45621C19.3755 7.65888 19.3702 7.81888 19.3595 7.93621C19.3275 9.03488 19.0288 9.95221 18.4635 10.6882C17.9088 11.4135 17.0715 11.7762 15.9515 11.7762ZM15.6475 10.5282C16.4155 10.5282 16.9755 10.2882 17.3275 9.80821C17.6795 9.32821 17.8715 8.69888 17.9035 7.92021C17.9142 7.81354 17.9195 7.65888 17.9195 7.45621C17.9195 5.40821 17.1622 4.38421 15.6475 4.38421C14.9222 4.38421 14.3622 4.62421 13.9675 5.10421C13.5835 5.57354 13.3808 6.13354 13.3595 6.78421C13.3488 6.90154 13.3435 7.10954 13.3435 7.40821C13.3435 7.69621 13.3488 7.89888 13.3595 8.01621C13.3808 8.69888 13.5782 9.29088 13.9515 9.79221C14.3355 10.2829 14.9008 10.5282 15.6475 10.5282ZM24.7635 11.7762C23.5902 11.7762 22.6835 11.4455 22.0435 10.7842C21.4142 10.1229 21.0782 9.24288 21.0355 8.14421L21.0195 7.45621L21.0355 6.76821C21.0782 5.66954 21.4195 4.78954 22.0595 4.12821C22.7102 3.46688 23.6115 3.13621 24.7635 3.13621C25.9155 3.13621 26.8115 3.46688 27.4515 4.12821C28.1022 4.78954 28.4488 5.66954 28.4915 6.76821C28.5128 7.00288 28.5235 7.23221 28.5235 7.45621C28.5235 7.68021 28.5128 7.90954 28.4915 8.14421C28.4488 9.24288 28.1075 10.1229 27.4675 10.7842C26.8382 11.4455 25.9368 11.7762 24.7635 11.7762ZM24.7635 10.5762C25.4462 10.5762 25.9848 10.3629 26.3795 9.93621C26.7848 9.49888 27.0035 8.87488 27.0355 8.06421C27.0462 7.95754 27.0515 7.75488 27.0515 7.45621C27.0515 7.15754 27.0462 6.95488 27.0355 6.84821C27.0035 6.03754 26.7848 5.41888 26.3795 4.99221C25.9848 4.55488 25.4462 4.33621 24.7635 4.33621C24.0808 4.33621 23.5368 4.55488 23.1315 4.99221C22.7368 5.41888 22.5235 6.03754 22.4915 6.84821L22.4755 7.45621L22.4915 8.06421C22.5235 8.87488 22.7368 9.49888 23.1315 9.93621C23.5368 10.3629 24.0808 10.5762 24.7635 10.5762ZM33.6478 11.7762C32.6344 11.7762 31.8504 11.4509 31.2958 10.8002C30.7411 10.1389 30.4638 9.26421 30.4638 8.17621V3.66421C30.4638 3.55754 30.4958 3.47221 30.5598 3.40821C30.6344 3.33354 30.7251 3.29621 30.8318 3.29621H31.5678C31.6744 3.29621 31.7598 3.33354 31.8238 3.40821C31.8984 3.47221 31.9358 3.55754 31.9358 3.66421V8.09621C31.9358 9.71754 32.6398 10.5282 34.0477 10.5282C34.7304 10.5282 35.2691 10.3149 35.6638 9.88821C36.0691 9.45088 36.2718 8.85354 36.2718 8.09621V3.66421C36.2718 3.55754 36.3038 3.47221 36.3678 3.40821C36.4424 3.33354 36.5331 3.29621 36.6398 3.29621H37.3758C37.4824 3.29621 37.5678 3.33354 37.6318 3.40821C37.7064 3.47221 37.7438 3.55754 37.7438 3.66421V11.2482C37.7438 11.3549 37.7064 11.4455 37.6318 11.5202C37.5678 11.5842 37.4824 11.6162 37.3758 11.6162H36.6878C36.5811 11.6162 36.4904 11.5842 36.4158 11.5202C36.3518 11.4455 36.3198 11.3549 36.3198 11.2482V10.5282C36.0104 10.9442 35.6478 11.2589 35.2318 11.4722C34.8158 11.6749 34.2878 11.7762 33.6478 11.7762ZM43.3375 11.6162C41.6842 11.6162 40.8575 10.6829 40.8575 8.81621V4.52821H39.5935C39.4868 4.52821 39.4015 4.49621 39.3375 4.43221C39.2735 4.36821 39.2415 4.28288 39.2415 4.17621V3.66421C39.2415 3.55754 39.2735 3.47221 39.3375 3.40821C39.4015 3.33354 39.4868 3.29621 39.5935 3.29621H40.8575V0.62421C40.8575 0.517544 40.8895 0.432211 40.9535 0.368211C41.0175 0.293544 41.1028 0.25621 41.2095 0.25621H41.9135C42.0202 0.25621 42.1055 0.293544 42.1695 0.368211C42.2442 0.432211 42.2815 0.517544 42.2815 0.62421V3.29621H44.2655C44.3722 3.29621 44.4575 3.33354 44.5215 3.40821C44.5962 3.47221 44.6335 3.55754 44.6335 3.66421V4.17621C44.6335 4.28288 44.5962 4.36821 44.5215 4.43221C44.4575 4.49621 44.3722 4.52821 44.2655 4.52821H42.2815V8.70421C42.2815 9.24821 42.3668 9.65888 42.5375 9.93621C42.7188 10.2135 43.0228 10.3522 43.4495 10.3522H44.4255C44.5322 10.3522 44.6175 10.3895 44.6815 10.4642C44.7455 10.5282 44.7775 10.6135 44.7775 10.7202V11.2482C44.7775 11.3549 44.7455 11.4455 44.6815 11.5202C44.6175 11.5842 44.5322 11.6162 44.4255 11.6162H43.3375Z" fill="#4F5665"/>
</svg>
