<svg width="290" height="26" viewBox="0 0 290 26" fill="none" xmlns="http://www.w3.org/2000/svg">
<path d="M11.0277 25.8993C7.80766 25.8993 5.31099 25.0826 3.53766 23.4493C1.78766 21.7926 0.854323 19.4476 0.737656 16.4143C0.714323 15.7843 0.702656 14.7576 0.702656 13.3343C0.702656 11.8876 0.714323 10.8376 0.737656 10.1843C0.854323 7.19765 1.79932 4.87598 3.57266 3.21932C5.34599 1.53932 7.83099 0.699315 11.0277 0.699315C13.1043 0.699315 14.9127 1.06098 16.4527 1.78432C17.9927 2.48432 19.1827 3.45265 20.0227 4.68932C20.886 5.92598 21.341 7.31432 21.3877 8.85432V8.92432C21.3877 9.11098 21.306 9.27432 21.1427 9.41432C21.0027 9.53098 20.8393 9.58932 20.6527 9.58932H17.2577C16.9777 9.58932 16.7677 9.53098 16.6277 9.41432C16.4877 9.27432 16.371 9.04098 16.2777 8.71432C15.9277 7.26765 15.321 6.25265 14.4577 5.66932C13.5943 5.06265 12.451 4.75931 11.0277 4.75931C7.69099 4.75931 5.95266 6.62598 5.81266 10.3593C5.78932 10.9893 5.77766 11.9576 5.77766 13.2643C5.77766 14.571 5.78932 15.5626 5.81266 16.2393C5.95266 19.9726 7.69099 21.8393 11.0277 21.8393C12.4277 21.8393 13.5593 21.5476 14.4227 20.9643C15.3093 20.3576 15.9277 19.331 16.2777 17.8843C16.371 17.5576 16.4877 17.336 16.6277 17.2193C16.7677 17.0793 16.9777 17.0093 17.2577 17.0093H20.6527C20.8627 17.0093 21.0377 17.0793 21.1777 17.2193C21.341 17.3593 21.411 17.5343 21.3877 17.7443C21.341 19.2843 20.886 20.6726 20.0227 21.9093C19.1827 23.146 17.9927 24.126 16.4527 24.8493C14.9127 25.5493 13.1043 25.8993 11.0277 25.8993ZM25.9926 25.5493C25.7593 25.5493 25.561 25.4676 25.3976 25.3043C25.2343 25.141 25.1526 24.9426 25.1526 24.7093V1.53931C25.1526 1.28265 25.2343 1.08432 25.3976 0.944316C25.561 0.780982 25.7593 0.699315 25.9926 0.699315H29.1776C29.4343 0.699315 29.6326 0.780982 29.7726 0.944316C29.936 1.08432 30.0176 1.28265 30.0176 1.53931V9.51932C31.4176 7.83932 33.296 6.99932 35.6526 6.99932C37.7993 6.99932 39.5143 7.71098 40.7976 9.13432C42.081 10.5343 42.7226 12.4476 42.7226 14.8743V24.7093C42.7226 24.9426 42.641 25.141 42.4776 25.3043C42.3376 25.4676 42.1393 25.5493 41.8826 25.5493H38.6976C38.441 25.5493 38.231 25.4676 38.0676 25.3043C37.9043 25.141 37.8226 24.9426 37.8226 24.7093V15.0843C37.8226 13.731 37.4843 12.681 36.8076 11.9343C36.1543 11.1643 35.2093 10.7793 33.9726 10.7793C32.7826 10.7793 31.826 11.1643 31.1026 11.9343C30.3793 12.7043 30.0176 13.7543 30.0176 15.0843V24.7093C30.0176 24.9426 29.936 25.141 29.7726 25.3043C29.6326 25.4676 29.4343 25.5493 29.1776 25.5493H25.9926ZM55.2485 25.8993C52.4952 25.8993 50.3718 25.1993 48.8785 23.7993C47.3852 22.3993 46.5802 20.4626 46.4635 17.9893L46.4285 16.4493L46.4635 14.9093C46.5802 12.4593 47.3968 10.5343 48.9135 9.13432C50.4302 7.71098 52.5418 6.99932 55.2485 6.99932C57.9318 6.99932 60.0318 7.71098 61.5485 9.13432C63.0652 10.5343 63.8819 12.4593 63.9985 14.9093C64.0219 15.1893 64.0335 15.7026 64.0335 16.4493C64.0335 17.196 64.0219 17.7093 63.9985 17.9893C63.8819 20.4626 63.0769 22.3993 61.5835 23.7993C60.0902 25.1993 57.9785 25.8993 55.2485 25.8993ZM55.2485 22.3643C56.4852 22.3643 57.4302 21.9793 58.0835 21.2093C58.7602 20.4393 59.1218 19.3076 59.1685 17.8143C59.1918 17.581 59.2035 17.126 59.2035 16.4493C59.2035 15.7726 59.1918 15.3176 59.1685 15.0843C59.1218 13.591 58.7602 12.4593 58.0835 11.6893C57.4068 10.896 56.4618 10.4993 55.2485 10.4993C54.0118 10.4993 53.0552 10.896 52.3785 11.6893C51.7018 12.4593 51.3402 13.591 51.2935 15.0843L51.2585 16.4493L51.2935 17.8143C51.3402 19.3076 51.7018 20.4393 52.3785 21.2093C53.0552 21.9793 54.0118 22.3643 55.2485 22.3643ZM75.9956 25.8993C73.2423 25.8993 71.1189 25.1993 69.6256 23.7993C68.1323 22.3993 67.3273 20.4626 67.2106 17.9893L67.1756 16.4493L67.2106 14.9093C67.3273 12.4593 68.1439 10.5343 69.6606 9.13432C71.1773 7.71098 73.2889 6.99932 75.9956 6.99932C78.6789 6.99932 80.7789 7.71098 82.2956 9.13432C83.8123 10.5343 84.6289 12.4593 84.7456 14.9093C84.7689 15.1893 84.7806 15.7026 84.7806 16.4493C84.7806 17.196 84.7689 17.7093 84.7456 17.9893C84.6289 20.4626 83.8239 22.3993 82.3306 23.7993C80.8373 25.1993 78.7256 25.8993 75.9956 25.8993ZM75.9956 22.3643C77.2323 22.3643 78.1773 21.9793 78.8306 21.2093C79.5073 20.4393 79.8689 19.3076 79.9156 17.8143C79.9389 17.581 79.9506 17.126 79.9506 16.4493C79.9506 15.7726 79.9389 15.3176 79.9156 15.0843C79.8689 13.591 79.5073 12.4593 78.8306 11.6893C78.1539 10.896 77.2089 10.4993 75.9956 10.4993C74.7589 10.4993 73.8023 10.896 73.1256 11.6893C72.4489 12.4593 72.0873 13.591 72.0406 15.0843L72.0056 16.4493L72.0406 17.8143C72.0873 19.3076 72.4489 20.4393 73.1256 21.2093C73.8023 21.9793 74.7589 22.3643 75.9956 22.3643ZM95.5877 25.8993C93.8143 25.8993 92.3327 25.631 91.1427 25.0943C89.9527 24.5576 89.066 23.9393 88.4827 23.2393C87.9227 22.516 87.6427 21.8976 87.6427 21.3843C87.6427 21.151 87.7127 20.9643 87.8527 20.8243C88.016 20.6843 88.2027 20.6143 88.4127 20.6143H91.2827C91.4693 20.6143 91.6327 20.7076 91.7727 20.8943C91.8893 20.9876 92.146 21.2093 92.5427 21.5593C92.9627 21.9093 93.4293 22.1893 93.9427 22.3993C94.4793 22.586 95.0627 22.6793 95.6927 22.6793C96.626 22.6793 97.3843 22.5043 97.9677 22.1543C98.551 21.781 98.8427 21.256 98.8427 20.5793C98.8427 20.1126 98.7027 19.7393 98.4227 19.4593C98.166 19.156 97.6877 18.8876 96.9877 18.6543C96.311 18.3976 95.2843 18.1176 93.9077 17.8143C91.9243 17.3943 90.4543 16.7526 89.4977 15.8893C88.5643 15.026 88.0977 13.8826 88.0977 12.4593C88.0977 11.526 88.3777 10.651 88.9377 9.83432C89.4977 8.99432 90.326 8.31765 91.4227 7.80432C92.5427 7.26765 93.8727 6.99932 95.4127 6.99932C96.9993 6.99932 98.3643 7.25598 99.5077 7.76932C100.651 8.25932 101.514 8.85432 102.098 9.55432C102.704 10.2543 103.008 10.8726 103.008 11.4093C103.008 11.6193 102.926 11.806 102.763 11.9693C102.623 12.1093 102.448 12.1793 102.238 12.1793H99.6127C99.356 12.1793 99.1577 12.086 99.0177 11.8993C98.8543 11.7826 98.586 11.5726 98.2127 11.2693C97.8627 10.9426 97.466 10.686 97.0227 10.4993C96.5793 10.3126 96.0427 10.2193 95.4127 10.2193C94.5493 10.2193 93.8843 10.406 93.4177 10.7793C92.951 11.1526 92.7177 11.6426 92.7177 12.2493C92.7177 12.6693 92.8227 13.0193 93.0327 13.2993C93.266 13.5793 93.721 13.8476 94.3977 14.1043C95.0743 14.3376 96.0893 14.5826 97.4427 14.8393C101.643 15.656 103.743 17.4876 103.743 20.3343C103.743 21.991 103.019 23.3326 101.573 24.3593C100.149 25.386 98.1543 25.8993 95.5877 25.8993ZM115.195 25.8993C112.581 25.8993 110.505 25.1526 108.965 23.6593C107.448 22.166 106.643 20.0426 106.55 17.2893L106.515 16.4143C106.515 13.4976 107.273 11.1993 108.79 9.51932C110.33 7.83932 112.453 6.99932 115.16 6.99932C117.936 6.99932 120.071 7.83932 121.565 9.51932C123.081 11.1993 123.84 13.4393 123.84 16.2393V16.9743C123.84 17.2076 123.758 17.406 123.595 17.5693C123.431 17.7326 123.221 17.8143 122.965 17.8143H111.345V18.0943C111.391 19.401 111.741 20.486 112.395 21.3493C113.071 22.1893 113.993 22.6093 115.16 22.6093C116.49 22.6093 117.575 22.0726 118.415 20.9993C118.625 20.7426 118.788 20.591 118.905 20.5443C119.021 20.4743 119.22 20.4393 119.5 20.4393H122.58C122.79 20.4393 122.965 20.4976 123.105 20.6143C123.268 20.731 123.35 20.8943 123.35 21.1043C123.35 21.6643 123.011 22.3293 122.335 23.0993C121.681 23.846 120.736 24.4993 119.5 25.0593C118.263 25.6193 116.828 25.8993 115.195 25.8993ZM119.01 14.8393V14.7693C119.01 13.3926 118.66 12.296 117.96 11.4793C117.283 10.6393 116.35 10.2193 115.16 10.2193C113.97 10.2193 113.036 10.6393 112.36 11.4793C111.683 12.296 111.345 13.3926 111.345 14.7693V14.8393H119.01ZM142.193 25.5493C141.959 25.5493 141.761 25.4676 141.598 25.3043C141.434 25.141 141.353 24.9426 141.353 24.7093V16.8343L133.058 2.16931C132.988 1.95931 132.953 1.83098 132.953 1.78432C132.953 1.57432 133.023 1.39932 133.163 1.25932C133.326 1.11932 133.501 1.04931 133.688 1.04931H136.838C137.281 1.04931 137.643 1.27098 137.923 1.71431L143.803 11.8643L149.718 1.71431C149.811 1.55098 149.939 1.39932 150.103 1.25932C150.289 1.11932 150.511 1.04931 150.768 1.04931H153.918C154.128 1.04931 154.303 1.11932 154.443 1.25932C154.583 1.39932 154.653 1.57432 154.653 1.78432C154.653 1.92432 154.618 2.05265 154.548 2.16931L146.288 16.8343V24.7093C146.288 24.966 146.206 25.176 146.043 25.3393C145.879 25.4793 145.669 25.5493 145.413 25.5493H142.193ZM162.846 25.8993C160.093 25.8993 157.97 25.1993 156.476 23.7993C154.983 22.3993 154.178 20.4626 154.061 17.9893L154.026 16.4493L154.061 14.9093C154.178 12.4593 154.995 10.5343 156.511 9.13432C158.028 7.71098 160.14 6.99932 162.846 6.99932C165.53 6.99932 167.63 7.71098 169.146 9.13432C170.663 10.5343 171.48 12.4593 171.596 14.9093C171.62 15.1893 171.631 15.7026 171.631 16.4493C171.631 17.196 171.62 17.7093 171.596 17.9893C171.48 20.4626 170.675 22.3993 169.181 23.7993C167.688 25.1993 165.576 25.8993 162.846 25.8993ZM162.846 22.3643C164.083 22.3643 165.028 21.9793 165.681 21.2093C166.358 20.4393 166.72 19.3076 166.766 17.8143C166.79 17.581 166.801 17.126 166.801 16.4493C166.801 15.7726 166.79 15.3176 166.766 15.0843C166.72 13.591 166.358 12.4593 165.681 11.6893C165.005 10.896 164.06 10.4993 162.846 10.4993C161.61 10.4993 160.653 10.896 159.976 11.6893C159.3 12.4593 158.938 13.591 158.891 15.0843L158.856 16.4493L158.891 17.8143C158.938 19.3076 159.3 20.4393 159.976 21.2093C160.653 21.9793 161.61 22.3643 162.846 22.3643ZM182.263 25.8993C180.117 25.8993 178.425 25.1993 177.188 23.7993C175.952 22.3993 175.333 20.4743 175.333 18.0243V8.18932C175.333 7.93265 175.415 7.73432 175.578 7.59432C175.742 7.43098 175.94 7.34931 176.173 7.34931H179.323C179.557 7.34931 179.755 7.43098 179.918 7.59432C180.082 7.75765 180.163 7.95598 180.163 8.18932V17.8143C180.163 20.6843 181.412 22.1193 183.908 22.1193C185.122 22.1193 186.078 21.7343 186.778 20.9643C187.502 20.1943 187.863 19.1443 187.863 17.8143V8.18932C187.863 7.93265 187.945 7.73432 188.108 7.59432C188.272 7.43098 188.47 7.34931 188.703 7.34931H191.818C192.075 7.34931 192.273 7.43098 192.413 7.59432C192.577 7.73432 192.658 7.93265 192.658 8.18932V24.7093C192.658 24.9426 192.577 25.141 192.413 25.3043C192.273 25.4676 192.075 25.5493 191.818 25.5493H188.913C188.68 25.5493 188.482 25.4676 188.318 25.3043C188.155 25.141 188.073 24.9426 188.073 24.7093V23.2743C186.79 25.0243 184.853 25.8993 182.263 25.8993ZM198.121 25.5493C197.887 25.5493 197.689 25.4676 197.526 25.3043C197.362 25.141 197.281 24.9426 197.281 24.7093V8.22432C197.281 7.96765 197.362 7.75765 197.526 7.59432C197.689 7.43098 197.887 7.34931 198.121 7.34931H200.991C201.247 7.34931 201.457 7.43098 201.621 7.59432C201.784 7.75765 201.866 7.96765 201.866 8.22432V9.65932C203.032 8.11932 204.712 7.34931 206.906 7.34931H208.376C208.632 7.34931 208.831 7.43098 208.971 7.59432C209.134 7.73432 209.216 7.93265 209.216 8.18932V10.7443C209.216 10.9776 209.134 11.176 208.971 11.3393C208.831 11.5026 208.632 11.5843 208.376 11.5843H205.611C204.514 11.5843 203.651 11.8993 203.021 12.5293C202.391 13.1593 202.076 14.0226 202.076 15.1193V24.7093C202.076 24.9426 201.994 25.141 201.831 25.3043C201.667 25.4676 201.469 25.5493 201.236 25.5493H198.121ZM220.416 25.5493C220.182 25.5493 219.984 25.4676 219.821 25.3043C219.657 25.141 219.576 24.9426 219.576 24.7093V1.92432C219.576 1.66765 219.646 1.45765 219.786 1.29432C219.949 1.13098 220.159 1.04931 220.416 1.04931H229.796C232.619 1.04931 234.836 1.71432 236.446 3.04432C238.056 4.37432 238.861 6.31098 238.861 8.85432C238.861 11.3743 238.056 13.2876 236.446 14.5943C234.836 15.8776 232.619 16.5193 229.796 16.5193H224.651V24.7093C224.651 24.966 224.569 25.176 224.406 25.3393C224.242 25.4793 224.032 25.5493 223.776 25.5493H220.416ZM229.621 12.5993C230.974 12.5993 232.001 12.2843 232.701 11.6543C233.424 11.001 233.786 10.056 233.786 8.81932C233.786 7.60598 233.436 6.66098 232.736 5.98432C232.059 5.30765 231.021 4.96932 229.621 4.96932H224.581V12.5993H229.621ZM243.136 25.5493C242.903 25.5493 242.705 25.4676 242.541 25.3043C242.378 25.141 242.296 24.9426 242.296 24.7093V1.53931C242.296 1.28265 242.378 1.08432 242.541 0.944316C242.705 0.780982 242.903 0.699315 243.136 0.699315H246.076C246.333 0.699315 246.531 0.780982 246.671 0.944316C246.835 1.08432 246.916 1.28265 246.916 1.53931V24.7093C246.916 24.9426 246.835 25.141 246.671 25.3043C246.531 25.4676 246.333 25.5493 246.076 25.5493H243.136ZM256.843 25.8993C255.653 25.8993 254.556 25.666 253.553 25.1993C252.573 24.7093 251.791 24.056 251.208 23.2393C250.648 22.4226 250.368 21.5243 250.368 20.5443C250.368 18.9576 251.01 17.6743 252.293 16.6943C253.576 15.7143 255.338 15.0493 257.578 14.6993L262.373 13.9993V13.2643C262.373 12.261 262.116 11.5026 261.603 10.9893C261.09 10.476 260.273 10.2193 259.153 10.2193C258.383 10.2193 257.765 10.3593 257.298 10.6393C256.831 10.9193 256.446 11.211 256.143 11.5143C255.863 11.7943 255.676 11.981 255.583 12.0743C255.49 12.3543 255.315 12.4943 255.058 12.4943H252.328C252.118 12.4943 251.931 12.4243 251.768 12.2843C251.628 12.1443 251.558 11.9576 251.558 11.7243C251.581 11.141 251.861 10.4876 252.398 9.76432C252.958 9.01765 253.81 8.37598 254.953 7.83931C256.096 7.27932 257.508 6.99932 259.188 6.99932C261.941 6.99932 263.948 7.61765 265.208 8.85432C266.468 10.091 267.098 11.7126 267.098 13.7193V24.7093C267.098 24.9426 267.016 25.141 266.853 25.3043C266.713 25.4676 266.515 25.5493 266.258 25.5493H263.353C263.12 25.5493 262.921 25.4676 262.758 25.3043C262.595 25.141 262.513 24.9426 262.513 24.7093V23.3443C262 24.091 261.276 24.7093 260.343 25.1993C259.41 25.666 258.243 25.8993 256.843 25.8993ZM258.033 22.5393C259.316 22.5393 260.366 22.1193 261.183 21.2793C262 20.4393 262.408 19.226 262.408 17.6393V16.9393L258.908 17.4993C256.225 17.9193 254.883 18.8176 254.883 20.1943C254.883 20.941 255.186 21.5243 255.793 21.9443C256.423 22.341 257.17 22.5393 258.033 22.5393ZM272.427 25.5493C272.194 25.5493 271.996 25.4676 271.832 25.3043C271.669 25.141 271.587 24.9426 271.587 24.7093V8.18932C271.587 7.93265 271.669 7.73432 271.832 7.59432C271.996 7.43098 272.194 7.34931 272.427 7.34931H275.332C275.589 7.34931 275.787 7.43098 275.927 7.59432C276.091 7.73432 276.172 7.93265 276.172 8.18932V9.62432C277.596 7.87432 279.544 6.99932 282.017 6.99932C284.164 6.99932 285.867 7.69932 287.127 9.09932C288.387 10.4993 289.017 12.4243 289.017 14.8743V24.7093C289.017 24.9426 288.936 25.141 288.772 25.3043C288.632 25.4676 288.434 25.5493 288.177 25.5493H285.027C284.794 25.5493 284.596 25.4676 284.432 25.3043C284.269 25.141 284.187 24.9426 284.187 24.7093V15.0843C284.187 13.731 283.849 12.681 283.172 11.9343C282.519 11.1643 281.574 10.7793 280.337 10.7793C279.147 10.7793 278.191 11.1643 277.467 11.9343C276.744 12.7043 276.382 13.7543 276.382 15.0843V24.7093C276.382 24.9426 276.301 25.141 276.137 25.3043C275.997 25.4676 275.799 25.5493 275.542 25.5493H272.427Z" fill="#0B132A"/>
</svg>
