<svg width="64" height="12" viewBox="0 0 64 12" fill="none" xmlns="http://www.w3.org/2000/svg">
<path d="M0.76 11.6162C0.653333 11.6162 0.568 11.5842 0.504 11.5202C0.44 11.4455 0.408 11.3549 0.408 11.2482V0.80021C0.408 0.682877 0.44 0.59221 0.504 0.528211C0.568 0.453544 0.653333 0.41621 0.76 0.41621H7.256C7.37333 0.41621 7.464 0.453544 7.528 0.528211C7.60267 0.59221 7.64 0.682877 7.64 0.80021V1.39221C7.64 1.49888 7.60267 1.58954 7.528 1.66421C7.464 1.72821 7.37333 1.76021 7.256 1.76021H1.896V5.55221H6.936C7.05333 5.55221 7.144 5.58954 7.208 5.66421C7.28267 5.72821 7.32 5.81354 7.32 5.92021V6.52821C7.32 6.63488 7.28267 6.72554 7.208 6.80021C7.13333 6.86421 7.04267 6.89621 6.936 6.89621H1.896V11.2482C1.896 11.3549 1.85867 11.4455 1.784 11.5202C1.70933 11.5842 1.61867 11.6162 1.512 11.6162H0.76ZM12.6523 11.7762C11.5643 11.7762 10.6949 11.4402 10.0443 10.7682C9.39358 10.0855 9.03625 9.15754 8.97225 7.98421L8.95625 7.44021L8.97225 6.91221C9.03625 5.76021 9.39358 4.84288 10.0443 4.16021C10.6949 3.47754 11.5643 3.13621 12.6523 3.13621C13.8256 3.13621 14.7323 3.50954 15.3723 4.25621C16.0229 5.00288 16.3483 6.01621 16.3483 7.29621V7.58421C16.3483 7.69088 16.3109 7.78154 16.2362 7.85621C16.1723 7.92021 16.0869 7.95221 15.9803 7.95221H10.4283V8.09621C10.4603 8.78954 10.6736 9.38154 11.0683 9.87221C11.4629 10.3629 11.9856 10.6082 12.6363 10.6082C13.1376 10.6082 13.5429 10.5122 13.8523 10.3202C14.1723 10.1175 14.4123 9.90954 14.5723 9.69621C14.6683 9.56821 14.7429 9.49354 14.7963 9.47221C14.8496 9.44021 14.9403 9.42421 15.0683 9.42421H15.7723C15.8683 9.42421 15.9483 9.45088 16.0123 9.50421C16.0869 9.55754 16.1243 9.62688 16.1243 9.71221C16.1243 9.94688 15.9803 10.2295 15.6923 10.5602C15.4043 10.8909 14.9936 11.1789 14.4603 11.4242C13.9376 11.6589 13.3349 11.7762 12.6523 11.7762ZM14.8923 6.86421V6.81621C14.8923 6.06954 14.6896 5.46154 14.2843 4.99221C13.8789 4.52288 13.3349 4.28821 12.6523 4.28821C11.9589 4.28821 11.4149 4.52288 11.0203 4.99221C10.6256 5.46154 10.4283 6.06954 10.4283 6.81621V6.86421H14.8923ZM20.5978 11.7762C20.0751 11.7762 19.5898 11.6695 19.1418 11.4562C18.7044 11.2429 18.3524 10.9549 18.0858 10.5922C17.8298 10.2189 17.7018 9.80821 17.7018 9.36021C17.7018 8.65621 17.9898 8.08021 18.5658 7.63221C19.1418 7.18421 19.9258 6.88554 20.9178 6.73621L23.3178 6.40021V5.93621C23.3178 4.83754 22.6831 4.28821 21.4138 4.28821C20.9231 4.28821 20.5284 4.38954 20.2298 4.59221C19.9311 4.78421 19.7124 5.01354 19.5738 5.28021C19.5311 5.38688 19.4831 5.46154 19.4298 5.50421C19.3871 5.53621 19.3231 5.55221 19.2378 5.55221H18.6138C18.5178 5.55221 18.4324 5.52021 18.3578 5.45621C18.2938 5.38154 18.2618 5.29621 18.2618 5.20021C18.2618 4.95488 18.3738 4.67221 18.5978 4.35221C18.8324 4.02154 19.1898 3.73888 19.6698 3.50421C20.1498 3.25888 20.7364 3.13621 21.4298 3.13621C22.6244 3.13621 23.4778 3.41354 23.9898 3.96821C24.5124 4.52288 24.7738 5.21621 24.7738 6.04821V11.2482C24.7738 11.3549 24.7364 11.4455 24.6618 11.5202C24.5978 11.5842 24.5124 11.6162 24.4058 11.6162H23.7018C23.5951 11.6162 23.5098 11.5842 23.4458 11.5202C23.3818 11.4455 23.3498 11.3549 23.3498 11.2482V10.5442C23.1151 10.8962 22.7738 11.1895 22.3258 11.4242C21.8778 11.6589 21.3018 11.7762 20.5978 11.7762ZM20.9178 10.6082C21.6218 10.6082 22.1978 10.3789 22.6458 9.92021C23.0938 9.46154 23.3178 8.79488 23.3178 7.92021V7.47221L21.4458 7.74421C20.6778 7.85088 20.0964 8.03221 19.7018 8.28821C19.3071 8.54421 19.1098 8.86421 19.1098 9.24821C19.1098 9.68554 19.2858 10.0215 19.6378 10.2562C20.0004 10.4909 20.4271 10.6082 20.9178 10.6082ZM30.2125 11.6162C28.5592 11.6162 27.7325 10.6829 27.7325 8.81621V4.52821H26.4685C26.3618 4.52821 26.2765 4.49621 26.2125 4.43221C26.1485 4.36821 26.1165 4.28288 26.1165 4.17621V3.66421C26.1165 3.55754 26.1485 3.47221 26.2125 3.40821C26.2765 3.33354 26.3618 3.29621 26.4685 3.29621H27.7325V0.62421C27.7325 0.517544 27.7645 0.432211 27.8285 0.368211C27.8925 0.293544 27.9778 0.25621 28.0845 0.25621H28.7885C28.8952 0.25621 28.9805 0.293544 29.0445 0.368211C29.1192 0.432211 29.1565 0.517544 29.1565 0.62421V3.29621H31.1405C31.2472 3.29621 31.3325 3.33354 31.3965 3.40821C31.4712 3.47221 31.5085 3.55754 31.5085 3.66421V4.17621C31.5085 4.28288 31.4712 4.36821 31.3965 4.43221C31.3325 4.49621 31.2472 4.52821 31.1405 4.52821H29.1565V8.70421C29.1565 9.24821 29.2418 9.65888 29.4125 9.93621C29.5938 10.2135 29.8978 10.3522 30.3245 10.3522H31.3005C31.4072 10.3522 31.4925 10.3895 31.5565 10.4642C31.6205 10.5282 31.6525 10.6135 31.6525 10.7202V11.2482C31.6525 11.3549 31.6205 11.4455 31.5565 11.5202C31.4925 11.5842 31.4072 11.6162 31.3005 11.6162H30.2125ZM36.3196 11.7762C35.3063 11.7762 34.5223 11.4509 33.9676 10.8002C33.413 10.1389 33.1356 9.26421 33.1356 8.17621V3.66421C33.1356 3.55754 33.1676 3.47221 33.2316 3.40821C33.3063 3.33354 33.397 3.29621 33.5036 3.29621H34.2396C34.3463 3.29621 34.4316 3.33354 34.4956 3.40821C34.5703 3.47221 34.6076 3.55754 34.6076 3.66421V8.09621C34.6076 9.71754 35.3116 10.5282 36.7196 10.5282C37.4023 10.5282 37.941 10.3149 38.3356 9.88821C38.741 9.45088 38.9436 8.85354 38.9436 8.09621V3.66421C38.9436 3.55754 38.9756 3.47221 39.0396 3.40821C39.1143 3.33354 39.205 3.29621 39.3116 3.29621H40.0476C40.1543 3.29621 40.2396 3.33354 40.3036 3.40821C40.3783 3.47221 40.4156 3.55754 40.4156 3.66421V11.2482C40.4156 11.3549 40.3783 11.4455 40.3036 11.5202C40.2396 11.5842 40.1543 11.6162 40.0476 11.6162H39.3596C39.253 11.6162 39.1623 11.5842 39.0876 11.5202C39.0236 11.4455 38.9916 11.3549 38.9916 11.2482V10.5282C38.6823 10.9442 38.3196 11.2589 37.9036 11.4722C37.4876 11.6749 36.9596 11.7762 36.3196 11.7762ZM43.1774 11.6162C43.0707 11.6162 42.98 11.5842 42.9054 11.5202C42.8414 11.4455 42.8094 11.3549 42.8094 11.2482V3.68021C42.8094 3.57354 42.8414 3.48288 42.9054 3.40821C42.98 3.33354 43.0707 3.29621 43.1774 3.29621H43.8494C43.9667 3.29621 44.0574 3.33354 44.1214 3.40821C44.196 3.47221 44.2334 3.56288 44.2334 3.68021V4.38421C44.6707 3.65888 45.412 3.29621 46.4574 3.29621H47.0814C47.1987 3.29621 47.2894 3.32821 47.3534 3.39221C47.4174 3.45621 47.4494 3.54688 47.4494 3.66421V4.25621C47.4494 4.36288 47.4174 4.45354 47.3534 4.52821C47.2894 4.59221 47.1987 4.62421 47.0814 4.62421H46.1694C45.5827 4.62421 45.1187 4.79488 44.7774 5.13621C44.4467 5.47754 44.2814 5.94154 44.2814 6.52821V11.2482C44.2814 11.3549 44.244 11.4455 44.1694 11.5202C44.0947 11.5842 44.004 11.6162 43.8974 11.6162H43.1774ZM51.9648 11.7762C50.8768 11.7762 50.0074 11.4402 49.3568 10.7682C48.7061 10.0855 48.3488 9.15754 48.2848 7.98421L48.2688 7.44021L48.2848 6.91221C48.3488 5.76021 48.7061 4.84288 49.3568 4.16021C50.0074 3.47754 50.8768 3.13621 51.9648 3.13621C53.1381 3.13621 54.0448 3.50954 54.6848 4.25621C55.3354 5.00288 55.6608 6.01621 55.6608 7.29621V7.58421C55.6608 7.69088 55.6234 7.78154 55.5487 7.85621C55.4848 7.92021 55.3994 7.95221 55.2928 7.95221H49.7408V8.09621C49.7728 8.78954 49.9861 9.38154 50.3808 9.87221C50.7754 10.3629 51.2981 10.6082 51.9488 10.6082C52.4501 10.6082 52.8554 10.5122 53.1648 10.3202C53.4848 10.1175 53.7248 9.90954 53.8848 9.69621C53.9808 9.56821 54.0554 9.49354 54.1088 9.47221C54.1621 9.44021 54.2528 9.42421 54.3808 9.42421H55.0848C55.1808 9.42421 55.2608 9.45088 55.3248 9.50421C55.3994 9.55754 55.4368 9.62688 55.4368 9.71221C55.4368 9.94688 55.2928 10.2295 55.0048 10.5602C54.7168 10.8909 54.3061 11.1789 53.7728 11.4242C53.2501 11.6589 52.6474 11.7762 51.9648 11.7762ZM54.2048 6.86421V6.81621C54.2048 6.06954 54.0021 5.46154 53.5968 4.99221C53.1914 4.52288 52.6474 4.28821 51.9648 4.28821C51.2714 4.28821 50.7274 4.52288 50.3328 4.99221C49.9381 5.46154 49.7408 6.06954 49.7408 6.81621V6.86421H54.2048ZM60.4543 11.7762C59.7183 11.7762 59.0943 11.6589 58.5823 11.4242C58.0809 11.1789 57.7076 10.9015 57.4622 10.5922C57.2169 10.2829 57.0943 10.0269 57.0943 9.82421C57.0943 9.71754 57.1316 9.63754 57.2063 9.58421C57.2809 9.52021 57.3609 9.48821 57.4463 9.48821H58.1183C58.1823 9.48821 58.2303 9.49888 58.2623 9.52021C58.3049 9.54154 58.3583 9.58954 58.4223 9.66421C58.6676 9.96288 58.9396 10.1975 59.2383 10.3682C59.5476 10.5389 59.9583 10.6242 60.4703 10.6242C61.0463 10.6242 61.5049 10.5175 61.8463 10.3042C62.1983 10.0909 62.3743 9.78154 62.3743 9.37621C62.3743 9.10954 62.2996 8.89621 62.1503 8.73621C62.0009 8.57621 61.7503 8.43221 61.3983 8.30421C61.0569 8.17621 60.5449 8.03754 59.8623 7.88821C58.9343 7.68554 58.2783 7.39221 57.8943 7.00821C57.5103 6.62421 57.3183 6.12821 57.3183 5.52021C57.3183 5.12554 57.4356 4.74688 57.6703 4.38421C57.9049 4.01088 58.2516 3.71221 58.7103 3.48821C59.1796 3.25354 59.7343 3.13621 60.3743 3.13621C61.0463 3.13621 61.6169 3.24821 62.0863 3.47221C62.5663 3.69621 62.9236 3.95754 63.1583 4.25621C63.4036 4.55488 63.5263 4.80554 63.5263 5.00821C63.5263 5.10421 63.4889 5.18421 63.4143 5.24821C63.3503 5.31221 63.2703 5.34421 63.1743 5.34421H62.5663C62.4169 5.34421 62.3103 5.28554 62.2463 5.16821C62.0649 4.96554 61.9103 4.81088 61.7823 4.70421C61.6649 4.58688 61.4889 4.49088 61.2543 4.41621C61.0196 4.33088 60.7263 4.28821 60.3743 4.28821C59.8516 4.28821 59.4516 4.40021 59.1743 4.62421C58.8969 4.83754 58.7582 5.12554 58.7582 5.48821C58.7582 5.71221 58.8169 5.90421 58.9343 6.06421C59.0516 6.21354 59.2756 6.35754 59.6063 6.49621C59.9369 6.62421 60.4276 6.75754 61.0783 6.89621C62.0916 7.10954 62.8063 7.41354 63.2223 7.80821C63.6489 8.20288 63.8623 8.70954 63.8623 9.32821C63.8623 9.78688 63.7289 10.2029 63.4623 10.5762C63.2063 10.9495 62.8169 11.2429 62.2943 11.4562C61.7823 11.6695 61.1689 11.7762 60.4543 11.7762Z" fill="#4F5665"/>
</svg>
