<svg width="80" height="14" viewBox="0 0 80 14" fill="none" xmlns="http://www.w3.org/2000/svg">
<path d="M1.24811 13.5496C1.12811 13.5496 1.02611 13.5076 0.942109 13.4236C0.858109 13.3396 0.816109 13.2376 0.816109 13.1176V1.39956C0.816109 1.26756 0.852109 1.15956 0.924109 1.07556C1.00811 0.99156 1.11611 0.94956 1.24811 0.94956H9.07811C9.21011 0.94956 9.31811 0.99156 9.40211 1.07556C9.48611 1.15956 9.52811 1.26756 9.52811 1.39956V2.69556C9.52811 2.81556 9.48611 2.91756 9.40211 3.00156C9.31811 3.08556 9.21011 3.12756 9.07811 3.12756H3.31811V6.51156H8.71811C8.85011 6.51156 8.95811 6.55356 9.04211 6.63756C9.12611 6.72156 9.16811 6.82356 9.16811 6.94356V8.23956C9.16811 8.35956 9.12611 8.46156 9.04211 8.54556C8.95811 8.62956 8.85011 8.67156 8.71811 8.67156H3.31811V13.1176C3.31811 13.2376 3.27611 13.3396 3.19211 13.4236C3.10811 13.5076 3.00011 13.5496 2.86811 13.5496H1.24811ZM11.6669 13.5496C11.5469 13.5496 11.4449 13.5076 11.3609 13.4236C11.2769 13.3396 11.2349 13.2376 11.2349 13.1176V4.63956C11.2349 4.50756 11.2769 4.39956 11.3609 4.31556C11.4449 4.23156 11.5469 4.18956 11.6669 4.18956H13.1429C13.2749 4.18956 13.3829 4.23156 13.4669 4.31556C13.5509 4.39956 13.5929 4.50756 13.5929 4.63956V5.37756C14.1929 4.58556 15.0569 4.18956 16.1849 4.18956H16.9409C17.0729 4.18956 17.1749 4.23156 17.2469 4.31556C17.3309 4.38756 17.3729 4.48956 17.3729 4.62156V5.93556C17.3729 6.05556 17.3309 6.15756 17.2469 6.24156C17.1749 6.32556 17.0729 6.36756 16.9409 6.36756H15.5189C14.9549 6.36756 14.5109 6.52956 14.1869 6.85356C13.8629 7.17756 13.7009 7.62156 13.7009 8.18556V13.1176C13.7009 13.2376 13.6589 13.3396 13.5749 13.4236C13.4909 13.5076 13.3889 13.5496 13.2689 13.5496H11.6669ZM22.7028 13.7296C21.3588 13.7296 20.2908 13.3456 19.4988 12.5776C18.7188 11.8096 18.3048 10.7176 18.2568 9.30156L18.2388 8.85156C18.2388 7.35156 18.6288 6.16956 19.4088 5.30556C20.2008 4.44156 21.2928 4.00956 22.6848 4.00956C24.1128 4.00956 25.2108 4.44156 25.9788 5.30556C26.7588 6.16956 27.1488 7.32156 27.1488 8.76156V9.13956C27.1488 9.25956 27.1068 9.36156 27.0228 9.44556C26.9388 9.52956 26.8308 9.57156 26.6988 9.57156H20.7228V9.71556C20.7468 10.3876 20.9268 10.9456 21.2628 11.3896C21.6108 11.8216 22.0848 12.0376 22.6848 12.0376C23.3688 12.0376 23.9268 11.7616 24.3588 11.2096C24.4668 11.0776 24.5508 10.9996 24.6108 10.9756C24.6708 10.9396 24.7728 10.9216 24.9168 10.9216H26.5008C26.6088 10.9216 26.6988 10.9516 26.7708 11.0116C26.8548 11.0716 26.8968 11.1556 26.8968 11.2636C26.8968 11.5516 26.7228 11.8936 26.3748 12.2896C26.0388 12.6736 25.5528 13.0096 24.9168 13.2976C24.2808 13.5856 23.5428 13.7296 22.7028 13.7296ZM24.6648 8.04156V8.00556C24.6648 7.29756 24.4848 6.73356 24.1248 6.31356C23.7768 5.88156 23.2968 5.66556 22.6848 5.66556C22.0728 5.66556 21.5928 5.88156 21.2448 6.31356C20.8968 6.73356 20.7228 7.29756 20.7228 8.00556V8.04156H24.6648ZM33.1091 13.7296C31.7651 13.7296 30.6971 13.3456 29.9051 12.5776C29.1251 11.8096 28.7111 10.7176 28.6631 9.30156L28.6451 8.85156C28.6451 7.35156 29.0351 6.16956 29.8151 5.30556C30.6071 4.44156 31.6991 4.00956 33.0911 4.00956C34.5191 4.00956 35.6171 4.44156 36.3851 5.30556C37.1651 6.16956 37.5551 7.32156 37.5551 8.76156V9.13956C37.5551 9.25956 37.5131 9.36156 37.4291 9.44556C37.3451 9.52956 37.2371 9.57156 37.1051 9.57156H31.1291V9.71556C31.1531 10.3876 31.3331 10.9456 31.6691 11.3896C32.0171 11.8216 32.4911 12.0376 33.0911 12.0376C33.7751 12.0376 34.3331 11.7616 34.7651 11.2096C34.8731 11.0776 34.9571 10.9996 35.0171 10.9756C35.0771 10.9396 35.1791 10.9216 35.3231 10.9216H36.9071C37.0151 10.9216 37.1051 10.9516 37.1771 11.0116C37.2611 11.0716 37.3031 11.1556 37.3031 11.2636C37.3031 11.5516 37.1291 11.8936 36.7811 12.2896C36.4451 12.6736 35.9591 13.0096 35.3231 13.2976C34.6871 13.5856 33.9491 13.7296 33.1091 13.7296ZM35.0711 8.04156V8.00556C35.0711 7.29756 34.8911 6.73356 34.5311 6.31356C34.1831 5.88156 33.7031 5.66556 33.0911 5.66556C32.4791 5.66556 31.9991 5.88156 31.6511 6.31356C31.3031 6.73356 31.1291 7.29756 31.1291 8.00556V8.04156H35.0711ZM44.209 13.5496C44.089 13.5496 43.987 13.5076 43.903 13.4236C43.819 13.3396 43.777 13.2376 43.777 13.1176V1.39956C43.777 1.26756 43.813 1.15956 43.885 1.07556C43.969 0.99156 44.077 0.94956 44.209 0.94956H49.033C50.485 0.94956 51.625 1.29156 52.453 1.97556C53.281 2.65956 53.695 3.65556 53.695 4.96356C53.695 6.25956 53.281 7.24356 52.453 7.91556C51.625 8.57556 50.485 8.90556 49.033 8.90556H46.387V13.1176C46.387 13.2496 46.345 13.3576 46.261 13.4416C46.177 13.5136 46.069 13.5496 45.937 13.5496H44.209ZM48.943 6.88956C49.639 6.88956 50.167 6.72756 50.527 6.40356C50.899 6.06756 51.085 5.58156 51.085 4.94556C51.085 4.32156 50.905 3.83556 50.545 3.48756C50.197 3.13956 49.663 2.96556 48.943 2.96556H46.351V6.88956H48.943ZM55.8939 13.5496C55.7739 13.5496 55.6719 13.5076 55.5879 13.4236C55.5039 13.3396 55.4619 13.2376 55.4619 13.1176V1.20156C55.4619 1.06956 55.5039 0.96756 55.5879 0.89556C55.6719 0.81156 55.7739 0.76956 55.8939 0.76956H57.4059C57.5379 0.76956 57.6399 0.81156 57.7119 0.89556C57.7959 0.96756 57.8379 1.06956 57.8379 1.20156V13.1176C57.8379 13.2376 57.7959 13.3396 57.7119 13.4236C57.6399 13.5076 57.5379 13.5496 57.4059 13.5496H55.8939ZM62.9431 13.7296C62.3311 13.7296 61.7671 13.6096 61.2511 13.3696C60.7471 13.1176 60.3451 12.7816 60.0451 12.3616C59.7571 11.9416 59.6131 11.4796 59.6131 10.9756C59.6131 10.1596 59.9431 9.49956 60.6031 8.99556C61.2631 8.49156 62.1691 8.14956 63.3211 7.96956L65.7871 7.60956V7.23156C65.7871 6.71556 65.6551 6.32556 65.3911 6.06156C65.1271 5.79756 64.7071 5.66556 64.1311 5.66556C63.7351 5.66556 63.4171 5.73756 63.1771 5.88156C62.9371 6.02556 62.7391 6.17556 62.5831 6.33156C62.4391 6.47556 62.3431 6.57156 62.2951 6.61956C62.2471 6.76356 62.1571 6.83556 62.0251 6.83556H60.6211C60.5131 6.83556 60.4171 6.79956 60.3331 6.72756C60.2611 6.65556 60.2251 6.55956 60.2251 6.43956C60.2371 6.13956 60.3811 5.80356 60.6571 5.43156C60.9451 5.04756 61.3831 4.71756 61.9711 4.44156C62.5591 4.15356 63.2851 4.00956 64.1491 4.00956C65.5651 4.00956 66.5971 4.32756 67.2451 4.96356C67.8931 5.59956 68.2171 6.43356 68.2171 7.46556V13.1176C68.2171 13.2376 68.1751 13.3396 68.0911 13.4236C68.0191 13.5076 67.9171 13.5496 67.7851 13.5496H66.2911C66.1711 13.5496 66.0691 13.5076 65.9851 13.4236C65.9011 13.3396 65.8591 13.2376 65.8591 13.1176V12.4156C65.5951 12.7996 65.2231 13.1176 64.7431 13.3696C64.2631 13.6096 63.6631 13.7296 62.9431 13.7296ZM63.5551 12.0016C64.2151 12.0016 64.7551 11.7856 65.1751 11.3536C65.5951 10.9216 65.8051 10.2976 65.8051 9.48156V9.12156L64.0051 9.40956C62.6251 9.62556 61.9351 10.0876 61.9351 10.7956C61.9351 11.1796 62.0911 11.4796 62.4031 11.6956C62.7271 11.8996 63.1111 12.0016 63.5551 12.0016ZM70.9579 13.5496C70.8379 13.5496 70.7359 13.5076 70.6519 13.4236C70.5679 13.3396 70.5259 13.2376 70.5259 13.1176V4.62156C70.5259 4.48956 70.5679 4.38756 70.6519 4.31556C70.7359 4.23156 70.8379 4.18956 70.9579 4.18956H72.4519C72.5839 4.18956 72.6859 4.23156 72.7579 4.31556C72.8419 4.38756 72.8839 4.48956 72.8839 4.62156V5.35956C73.6159 4.45956 74.6179 4.00956 75.8899 4.00956C76.9939 4.00956 77.8699 4.36956 78.5179 5.08956C79.1659 5.80956 79.4899 6.79956 79.4899 8.05956V13.1176C79.4899 13.2376 79.4479 13.3396 79.3639 13.4236C79.2919 13.5076 79.1899 13.5496 79.0579 13.5496H77.4379C77.3179 13.5496 77.2159 13.5076 77.1319 13.4236C77.0479 13.3396 77.0059 13.2376 77.0059 13.1176V8.16756C77.0059 7.47156 76.8319 6.93156 76.4839 6.54756C76.1479 6.15156 75.6619 5.95356 75.0259 5.95356C74.4139 5.95356 73.9219 6.15156 73.5499 6.54756C73.1779 6.94356 72.9919 7.48356 72.9919 8.16756V13.1176C72.9919 13.2376 72.9499 13.3396 72.8659 13.4236C72.7939 13.5076 72.6919 13.5496 72.5599 13.5496H70.9579Z" fill="#0B132A"/>
</svg>
