<svg width="55" height="66" viewBox="0 0 55 66" fill="none" xmlns="http://www.w3.org/2000/svg">
<path d="M7.52 57.2493C5.8 57.2493 4.46667 56.7893 3.52 55.8693C2.58667 54.936 2.12 53.5293 2.12 51.6493V43.5293C2.12 43.3826 2.16 43.2693 2.24 43.1893C2.33333 43.096 2.44667 43.0493 2.58 43.0493H3.6C3.74667 43.0493 3.86 43.096 3.94 43.1893C4.03333 43.2693 4.08 43.3826 4.08 43.5293V51.6893C4.08 52.9693 4.38 53.9293 4.98 54.5693C5.58 55.2093 6.42667 55.5293 7.52 55.5293C8.61333 55.5293 9.46 55.2093 10.06 54.5693C10.66 53.9293 10.96 52.9693 10.96 51.6893V43.5293C10.96 43.3826 11 43.2693 11.08 43.1893C11.1733 43.096 11.2867 43.0493 11.42 43.0493H12.46C12.5933 43.0493 12.7 43.096 12.78 43.1893C12.8733 43.2826 12.92 43.396 12.92 43.5293V51.6493C12.92 53.5293 12.4467 54.936 11.5 55.8693C10.5667 56.7893 9.24 57.2493 7.52 57.2493ZM19.5253 57.2493C18.592 57.2493 17.8053 57.1026 17.1653 56.8093C16.5386 56.5026 16.0653 56.156 15.7453 55.7693C15.4386 55.3826 15.2853 55.0626 15.2853 54.8093C15.2853 54.676 15.332 54.576 15.4253 54.5093C15.532 54.4293 15.6386 54.3893 15.7453 54.3893H16.6453C16.7786 54.3893 16.8986 54.456 17.0053 54.5893C17.3253 54.9626 17.672 55.256 18.0453 55.4693C18.4186 55.6826 18.9186 55.7893 19.5453 55.7893C20.2386 55.7893 20.7986 55.656 21.2253 55.3893C21.6653 55.1093 21.8853 54.7293 21.8853 54.2493C21.8853 53.9293 21.792 53.6693 21.6053 53.4693C21.432 53.256 21.1253 53.076 20.6853 52.9293C20.2586 52.7693 19.6186 52.596 18.7653 52.4093C17.6053 52.156 16.7786 51.7893 16.2853 51.3093C15.8053 50.8293 15.5653 50.2093 15.5653 49.4493C15.5653 48.9426 15.712 48.4626 16.0053 48.0093C16.312 47.5426 16.752 47.1693 17.3253 46.8893C17.912 46.596 18.612 46.4493 19.4253 46.4493C20.2786 46.4493 21.0053 46.5893 21.6053 46.8693C22.2053 47.1493 22.652 47.4826 22.9453 47.8693C23.252 48.2426 23.4053 48.556 23.4053 48.8093C23.4053 48.9293 23.3586 49.0293 23.2653 49.1093C23.1853 49.1893 23.0853 49.2293 22.9653 49.2293H22.1253C21.9653 49.2293 21.832 49.1626 21.7253 49.0293C21.512 48.776 21.3253 48.5826 21.1653 48.4493C21.0186 48.3026 20.7986 48.176 20.5053 48.0693C20.2253 47.9626 19.8653 47.9093 19.4253 47.9093C18.7853 47.9093 18.292 48.0493 17.9453 48.3293C17.5986 48.596 17.4253 48.9493 17.4253 49.3893C17.4253 49.6693 17.4986 49.9093 17.6453 50.1093C17.792 50.296 18.072 50.4693 18.4853 50.6293C18.912 50.7893 19.5253 50.956 20.3253 51.1293C21.592 51.396 22.4853 51.7826 23.0053 52.2893C23.5386 52.7826 23.8053 53.416 23.8053 54.1893C23.8053 54.7626 23.6386 55.2826 23.3053 55.7493C22.972 56.216 22.4786 56.5826 21.8253 56.8493C21.1853 57.116 20.4186 57.2493 19.5253 57.2493ZM30.2806 57.2493C28.9073 57.2493 27.8073 56.8293 26.9806 55.9893C26.1673 55.136 25.7206 53.976 25.6406 52.5093L25.6206 51.8293L25.6406 51.1693C25.734 49.7293 26.1873 48.5826 27.0006 47.7293C27.8273 46.876 28.914 46.4493 30.2606 46.4493C31.7406 46.4493 32.8873 46.9226 33.7006 47.8693C34.514 48.8026 34.9206 50.0693 34.9206 51.6693V52.0093C34.9206 52.1426 34.874 52.256 34.7806 52.3493C34.7006 52.4293 34.594 52.4693 34.4606 52.4693H27.5406V52.6493C27.5806 53.516 27.8406 54.256 28.3206 54.8693C28.814 55.4693 29.4606 55.7693 30.2606 55.7693C30.874 55.7693 31.374 55.6493 31.7606 55.4093C32.1606 55.156 32.454 54.896 32.6406 54.6293C32.7606 54.4693 32.8473 54.376 32.9006 54.3493C32.9673 54.3093 33.0806 54.2893 33.2406 54.2893H34.2206C34.3406 54.2893 34.4406 54.3226 34.5206 54.3893C34.6006 54.456 34.6406 54.5493 34.6406 54.6693C34.6406 54.9626 34.454 55.316 34.0806 55.7293C33.7206 56.1426 33.2073 56.5026 32.5406 56.8093C31.8873 57.1026 31.134 57.2493 30.2806 57.2493ZM33.0206 51.0893V51.0293C33.0206 50.1093 32.7673 49.3626 32.2606 48.7893C31.7673 48.2026 31.1006 47.9093 30.2606 47.9093C29.4206 47.9093 28.754 48.2026 28.2606 48.7893C27.7806 49.3626 27.5406 50.1093 27.5406 51.0293V51.0893H33.0206ZM37.772 57.0493C37.6387 57.0493 37.5254 57.0093 37.432 56.9293C37.352 56.836 37.312 56.7226 37.312 56.5893V47.1293C37.312 46.996 37.352 46.8826 37.432 46.7893C37.5254 46.696 37.6387 46.6493 37.772 46.6493H38.692C38.8254 46.6493 38.9387 46.696 39.032 46.7893C39.1254 46.8826 39.172 46.996 39.172 47.1293V48.0093C39.7187 47.1026 40.652 46.6493 41.972 46.6493H42.752C42.8854 46.6493 42.992 46.696 43.072 46.7893C43.1654 46.8693 43.212 46.976 43.212 47.1093V47.9293C43.212 48.0626 43.1654 48.1693 43.072 48.2493C42.992 48.3293 42.8854 48.3693 42.752 48.3693H41.552C40.832 48.3693 40.2654 48.5826 39.852 49.0093C39.4387 49.4226 39.232 49.9893 39.232 50.7093V56.5893C39.232 56.7226 39.1854 56.836 39.092 56.9293C38.9987 57.0093 38.8854 57.0493 38.752 57.0493H37.772ZM48.5097 57.2493C47.5764 57.2493 46.7897 57.1026 46.1497 56.8093C45.523 56.5026 45.0497 56.156 44.7297 55.7693C44.423 55.3826 44.2697 55.0626 44.2697 54.8093C44.2697 54.676 44.3164 54.576 44.4097 54.5093C44.5164 54.4293 44.623 54.3893 44.7297 54.3893H45.6297C45.763 54.3893 45.883 54.456 45.9897 54.5893C46.3097 54.9626 46.6564 55.256 47.0297 55.4693C47.403 55.6826 47.903 55.7893 48.5297 55.7893C49.223 55.7893 49.783 55.656 50.2097 55.3893C50.6497 55.1093 50.8697 54.7293 50.8697 54.2493C50.8697 53.9293 50.7764 53.6693 50.5897 53.4693C50.4164 53.256 50.1097 53.076 49.6697 52.9293C49.243 52.7693 48.603 52.596 47.7497 52.4093C46.5897 52.156 45.763 51.7893 45.2697 51.3093C44.7897 50.8293 44.5497 50.2093 44.5497 49.4493C44.5497 48.9426 44.6964 48.4626 44.9897 48.0093C45.2964 47.5426 45.7364 47.1693 46.3097 46.8893C46.8964 46.596 47.5964 46.4493 48.4097 46.4493C49.263 46.4493 49.9897 46.5893 50.5897 46.8693C51.1897 47.1493 51.6364 47.4826 51.9297 47.8693C52.2364 48.2426 52.3897 48.556 52.3897 48.8093C52.3897 48.9293 52.343 49.0293 52.2497 49.1093C52.1697 49.1893 52.0697 49.2293 51.9497 49.2293H51.1097C50.9497 49.2293 50.8164 49.1626 50.7097 49.0293C50.4964 48.776 50.3097 48.5826 50.1497 48.4493C50.003 48.3026 49.783 48.176 49.4897 48.0693C49.2097 47.9626 48.8497 47.9093 48.4097 47.9093C47.7697 47.9093 47.2764 48.0493 46.9297 48.3293C46.583 48.596 46.4097 48.9493 46.4097 49.3893C46.4097 49.6693 46.483 49.9093 46.6297 50.1093C46.7764 50.296 47.0564 50.4693 47.4697 50.6293C47.8964 50.7893 48.5097 50.956 49.3097 51.1293C50.5764 51.396 51.4697 51.7826 51.9897 52.2893C52.523 52.7826 52.7897 53.416 52.7897 54.1893C52.7897 54.7626 52.623 55.2826 52.2897 55.7493C51.9564 56.216 51.463 56.5826 50.8097 56.8493C50.1697 57.116 49.403 57.2493 48.5097 57.2493Z" fill="#4F5665"/>
<path d="M4.85 24.0493C4.7 24.0493 4.575 23.9993 4.475 23.8993C4.375 23.7826 4.325 23.6493 4.325 23.4993C4.325 23.3826 4.35833 23.2743 4.425 23.1743L7.95 18.3493C7.73333 18.3993 7.49167 18.4243 7.225 18.4243C6.19167 18.3576 5.21667 18.0743 4.3 17.5743C3.38333 17.0743 2.64167 16.391 2.075 15.5243C1.50833 14.6576 1.225 13.666 1.225 12.5493C1.225 11.4493 1.5 10.4243 2.05 9.47432C2.6 8.52432 3.40833 7.75765 4.475 7.17432C5.55833 6.59098 6.85833 6.29932 8.375 6.29932C9.90833 6.29932 11.225 6.56598 12.325 7.09932C13.4417 7.63265 14.2833 8.36598 14.85 9.29932C15.4167 10.216 15.7 11.241 15.7 12.3743C15.7 13.291 15.5083 14.1243 15.125 14.8743C14.7583 15.6243 14.2083 16.5076 13.475 17.5243C13.4417 17.5576 13.3083 17.741 13.075 18.0743L9.075 23.5493C8.84167 23.8826 8.54167 24.0493 8.175 24.0493H4.85ZM8.425 15.1243C9.19167 15.1243 9.825 14.891 10.325 14.4243C10.825 13.9576 11.075 13.3243 11.075 12.5243C11.075 11.7243 10.825 11.091 10.325 10.6243C9.825 10.141 9.19167 9.89932 8.425 9.89932C7.65833 9.89932 7.025 10.141 6.525 10.6243C6.04167 11.091 5.8 11.7243 5.8 12.5243C5.8 13.3243 6.05 13.9576 6.55 14.4243C7.05 14.891 7.675 15.1243 8.425 15.1243ZM24.9906 24.2993C22.6906 24.2826 20.949 23.6743 19.7656 22.4743C18.5823 21.2576 17.9406 19.666 17.8406 17.6993C17.8073 16.7993 17.7906 15.9993 17.7906 15.2993C17.7906 14.5826 17.8073 13.7576 17.8406 12.8243C17.9073 11.5743 18.2073 10.466 18.7406 9.49932C19.2906 8.51598 20.0906 7.74098 21.1406 7.17432C22.1906 6.59098 23.474 6.29932 24.9906 6.29932C27.2406 6.31598 28.974 6.92432 30.1906 8.12432C31.4073 9.32432 32.0656 10.891 32.1656 12.8243C32.199 13.7576 32.2156 14.5826 32.2156 15.2993C32.2156 15.9993 32.199 16.7993 32.1656 17.6993C32.049 19.666 31.399 21.2576 30.2156 22.4743C29.0323 23.6743 27.2906 24.2826 24.9906 24.2993ZM24.9906 20.6743C25.8073 20.6743 26.4156 20.4076 26.8156 19.8743C27.2323 19.3243 27.4573 18.5576 27.4906 17.5743C27.524 17.091 27.5406 16.316 27.5406 15.2493C27.5406 14.1826 27.524 13.4243 27.4906 12.9743C27.4573 12.0243 27.2406 11.2743 26.8406 10.7243C26.4406 10.1743 25.824 9.89098 24.9906 9.87432C24.174 9.89098 23.5573 10.1743 23.1406 10.7243C22.7406 11.2743 22.524 12.0243 22.4906 12.9743C22.474 13.4243 22.4656 14.1826 22.4656 15.2493C22.4656 16.316 22.474 17.091 22.4906 17.5743C22.574 19.641 23.4073 20.6743 24.9906 20.6743ZM40.0828 23.2243C39.9161 23.2243 39.7661 23.166 39.6328 23.0493C39.5161 22.916 39.4578 22.766 39.4578 22.5993V18.0243H35.0078C34.8245 18.0243 34.6661 17.966 34.5328 17.8493C34.4161 17.7326 34.3578 17.5826 34.3578 17.3993V15.5743C34.3578 15.391 34.4161 15.241 34.5328 15.1243C34.6661 14.991 34.8245 14.9243 35.0078 14.9243H39.4578V10.4993C39.4578 10.316 39.5161 10.166 39.6328 10.0493C39.7661 9.93265 39.9161 9.87432 40.0828 9.87432H42.1328C42.3161 9.87432 42.4661 9.93265 42.5828 10.0493C42.6995 10.166 42.7578 10.316 42.7578 10.4993V14.9243H47.1828C47.3661 14.9243 47.5161 14.991 47.6328 15.1243C47.7495 15.241 47.8078 15.391 47.8078 15.5743V17.3993C47.8078 17.5826 47.7495 17.7326 47.6328 17.8493C47.5161 17.966 47.3661 18.0243 47.1828 18.0243H42.7578V22.5993C42.7578 22.766 42.6995 22.916 42.5828 23.0493C42.4661 23.166 42.3161 23.2243 42.1328 23.2243H40.0828Z" fill="#0B132A"/>
</svg>
