<svg width="1140" height="234" viewBox="0 0 1140 234" fill="none" xmlns="http://www.w3.org/2000/svg">
<rect y="0.275391" width="1140" height="233" rx="10" fill="white"/>
<path d="M81.27 88.1254C79.17 88.1254 77.3733 87.8104 75.88 87.1804C74.3867 86.5504 73.255 85.7221 72.485 84.6954C71.715 83.6687 71.3067 82.5487 71.26 81.3354C71.26 81.1487 71.33 80.9854 71.47 80.8454C71.61 80.6821 71.785 80.6004 71.995 80.6004H75.18C75.4367 80.6004 75.6467 80.6587 75.81 80.7754C75.9733 80.8921 76.125 81.0554 76.265 81.2654C76.4983 82.0587 77.0233 82.7237 77.84 83.2604C78.68 83.7971 79.8233 84.0654 81.27 84.0654C82.9033 84.0654 84.1283 83.7971 84.945 83.2604C85.785 82.7004 86.205 81.9421 86.205 80.9854C86.205 80.3554 85.995 79.8304 85.575 79.4104C85.155 78.9904 84.5133 78.6287 83.65 78.3254C82.81 77.9987 81.55 77.6137 79.87 77.1704C77.1167 76.5171 75.0983 75.6537 73.815 74.5804C72.5317 73.5071 71.89 71.9671 71.89 69.9604C71.89 68.6071 72.2633 67.4054 73.01 66.3554C73.7567 65.2821 74.8183 64.4421 76.195 63.8354C77.595 63.2287 79.2167 62.9254 81.06 62.9254C82.9967 62.9254 84.665 63.2637 86.065 63.9404C87.4883 64.6171 88.5617 65.4687 89.285 66.4954C90.0317 67.4987 90.4283 68.5021 90.475 69.5054C90.475 69.6921 90.405 69.8671 90.265 70.0304C90.125 70.1704 89.95 70.2404 89.74 70.2404H86.415C85.9017 70.2404 85.5517 70.0304 85.365 69.6104C85.2483 68.8637 84.7933 68.2454 84 67.7554C83.2067 67.2421 82.2267 66.9854 81.06 66.9854C79.7767 66.9854 78.7617 67.2304 78.015 67.7204C77.2917 68.2104 76.93 68.9221 76.93 69.8554C76.93 70.4854 77.1167 71.0104 77.49 71.4304C77.8633 71.8504 78.4467 72.2237 79.24 72.5504C80.0333 72.8537 81.1883 73.2037 82.705 73.6004C84.7817 74.0671 86.4267 74.5921 87.64 75.1754C88.8767 75.7587 89.7867 76.4937 90.37 77.3804C90.9533 78.2671 91.245 79.3987 91.245 80.7754C91.245 82.2921 90.825 83.6104 89.985 84.7304C89.1683 85.8271 88.0017 86.6671 86.485 87.2504C84.9917 87.8337 83.2533 88.1254 81.27 88.1254ZM101.555 88.1254C99.4086 88.1254 97.7169 87.4254 96.4802 86.0254C95.2436 84.6254 94.6252 82.7004 94.6252 80.2504V70.4154C94.6252 70.1587 94.7069 69.9604 94.8702 69.8204C95.0336 69.6571 95.2319 69.5754 95.4652 69.5754H98.6152C98.8486 69.5754 99.0469 69.6571 99.2102 69.8204C99.3736 69.9837 99.4552 70.1821 99.4552 70.4154V80.0404C99.4552 82.9104 100.704 84.3454 103.2 84.3454C104.414 84.3454 105.37 83.9604 106.07 83.1904C106.794 82.4204 107.155 81.3704 107.155 80.0404V70.4154C107.155 70.1587 107.237 69.9604 107.4 69.8204C107.564 69.6571 107.762 69.5754 107.995 69.5754H111.11C111.367 69.5754 111.565 69.6571 111.705 69.8204C111.869 69.9604 111.95 70.1587 111.95 70.4154V86.9354C111.95 87.1687 111.869 87.3671 111.705 87.5304C111.565 87.6937 111.367 87.7754 111.11 87.7754H108.205C107.972 87.7754 107.774 87.6937 107.61 87.5304C107.447 87.3671 107.365 87.1687 107.365 86.9354V85.5004C106.082 87.2504 104.145 88.1254 101.555 88.1254ZM126.688 88.1254C124.261 88.1254 122.406 87.2971 121.123 85.6404V86.9354C121.123 87.1687 121.041 87.3671 120.878 87.5304C120.714 87.6937 120.504 87.7754 120.248 87.7754H117.448C117.214 87.7754 117.016 87.6937 116.853 87.5304C116.689 87.3671 116.608 87.1687 116.608 86.9354V63.7654C116.608 63.5087 116.689 63.3104 116.853 63.1704C117.016 63.0071 117.214 62.9254 117.448 62.9254H120.493C120.749 62.9254 120.948 63.0071 121.088 63.1704C121.251 63.3104 121.333 63.5087 121.333 63.7654V71.5354C122.639 69.9954 124.424 69.2254 126.688 69.2254C129.044 69.2254 130.853 69.9954 132.113 71.5354C133.396 73.0521 134.073 75.0471 134.143 77.5204C134.166 77.8004 134.178 78.1854 134.178 78.6754C134.178 79.1421 134.166 79.5271 134.143 79.8304C134.049 82.3504 133.373 84.3687 132.113 85.8854C130.853 87.3787 129.044 88.1254 126.688 88.1254ZM125.358 84.3454C127.854 84.3454 129.184 82.8054 129.348 79.7254C129.371 79.4921 129.383 79.1421 129.383 78.6754C129.383 78.2087 129.371 77.8587 129.348 77.6254C129.184 74.5454 127.854 73.0054 125.358 73.0054C124.074 73.0054 123.094 73.4137 122.418 74.2304C121.741 75.0471 121.379 76.0387 121.333 77.2054C121.309 77.4854 121.298 77.9404 121.298 78.5704C121.298 79.1771 121.309 79.6204 121.333 79.9004C121.379 81.1371 121.729 82.1871 122.383 83.0504C123.036 83.9137 124.028 84.3454 125.358 84.3454ZM145.002 88.1254C143.228 88.1254 141.747 87.8571 140.557 87.3204C139.367 86.7837 138.48 86.1654 137.897 85.4654C137.337 84.7421 137.057 84.1237 137.057 83.6104C137.057 83.3771 137.127 83.1904 137.267 83.0504C137.43 82.9104 137.617 82.8404 137.827 82.8404H140.697C140.883 82.8404 141.047 82.9337 141.187 83.1204C141.303 83.2137 141.56 83.4354 141.957 83.7854C142.377 84.1354 142.843 84.4154 143.357 84.6254C143.893 84.8121 144.477 84.9054 145.107 84.9054C146.04 84.9054 146.798 84.7304 147.382 84.3804C147.965 84.0071 148.257 83.4821 148.257 82.8054C148.257 82.3387 148.117 81.9654 147.837 81.6854C147.58 81.3821 147.102 81.1137 146.402 80.8804C145.725 80.6237 144.698 80.3437 143.322 80.0404C141.338 79.6204 139.868 78.9787 138.912 78.1154C137.978 77.2521 137.512 76.1087 137.512 74.6854C137.512 73.7521 137.792 72.8771 138.352 72.0604C138.912 71.2204 139.74 70.5437 140.837 70.0304C141.957 69.4937 143.287 69.2254 144.827 69.2254C146.413 69.2254 147.778 69.4821 148.922 69.9954C150.065 70.4854 150.928 71.0804 151.512 71.7804C152.118 72.4804 152.422 73.0987 152.422 73.6354C152.422 73.8454 152.34 74.0321 152.177 74.1954C152.037 74.3354 151.862 74.4054 151.652 74.4054H149.027C148.77 74.4054 148.572 74.3121 148.432 74.1254C148.268 74.0087 148 73.7987 147.627 73.4954C147.277 73.1687 146.88 72.9121 146.437 72.7254C145.993 72.5387 145.457 72.4454 144.827 72.4454C143.963 72.4454 143.298 72.6321 142.832 73.0054C142.365 73.3787 142.132 73.8687 142.132 74.4754C142.132 74.8954 142.237 75.2454 142.447 75.5254C142.68 75.8054 143.135 76.0737 143.812 76.3304C144.488 76.5637 145.503 76.8087 146.857 77.0654C151.057 77.8821 153.157 79.7137 153.157 82.5604C153.157 84.2171 152.433 85.5587 150.987 86.5854C149.563 87.6121 147.568 88.1254 145.002 88.1254ZM164.609 88.1254C162.042 88.1254 159.989 87.4137 158.449 85.9904C156.932 84.5671 156.127 82.5954 156.034 80.0754L155.999 78.6754L156.034 77.2754C156.127 74.7554 156.932 72.7837 158.449 71.3604C159.989 69.9371 162.042 69.2254 164.609 69.2254C166.452 69.2254 168.004 69.5521 169.264 70.2054C170.547 70.8587 171.492 71.6637 172.099 72.6204C172.729 73.5537 173.067 74.4521 173.114 75.3154C173.137 75.5487 173.055 75.7471 172.869 75.9104C172.705 76.0737 172.507 76.1554 172.274 76.1554H169.159C168.902 76.1554 168.715 76.1087 168.599 76.0154C168.482 75.8987 168.365 75.7004 168.249 75.4204C167.899 74.5337 167.432 73.8921 166.849 73.4954C166.289 73.0987 165.565 72.9004 164.679 72.9004C163.489 72.9004 162.555 73.2737 161.879 74.0204C161.225 74.7671 160.875 75.9104 160.829 77.4504L160.794 78.7454L160.829 79.9004C160.969 82.9337 162.252 84.4504 164.679 84.4504C165.589 84.4504 166.324 84.2637 166.884 83.8904C167.444 83.4937 167.899 82.8404 168.249 81.9304C168.342 81.6737 168.447 81.4871 168.564 81.3704C168.704 81.2537 168.902 81.1954 169.159 81.1954H172.274C172.507 81.1954 172.705 81.2771 172.869 81.4404C173.055 81.6037 173.137 81.8021 173.114 82.0354C173.067 82.8521 172.74 83.7387 172.134 84.6954C171.527 85.6287 170.594 86.4337 169.334 87.1104C168.074 87.7871 166.499 88.1254 164.609 88.1254ZM177.603 87.7754C177.37 87.7754 177.171 87.6937 177.008 87.5304C176.845 87.3671 176.763 87.1687 176.763 86.9354V70.4504C176.763 70.1937 176.845 69.9837 177.008 69.8204C177.171 69.6571 177.37 69.5754 177.603 69.5754H180.473C180.73 69.5754 180.94 69.6571 181.103 69.8204C181.266 69.9837 181.348 70.1937 181.348 70.4504V71.8854C182.515 70.3454 184.195 69.5754 186.388 69.5754H187.858C188.115 69.5754 188.313 69.6571 188.453 69.8204C188.616 69.9604 188.698 70.1587 188.698 70.4154V72.9704C188.698 73.2037 188.616 73.4021 188.453 73.5654C188.313 73.7287 188.115 73.8104 187.858 73.8104H185.093C183.996 73.8104 183.133 74.1254 182.503 74.7554C181.873 75.3854 181.558 76.2487 181.558 77.3454V86.9354C181.558 87.1687 181.476 87.3671 181.313 87.5304C181.15 87.6937 180.951 87.7754 180.718 87.7754H177.603ZM192.126 66.6004C191.893 66.6004 191.695 66.5187 191.531 66.3554C191.368 66.1921 191.286 65.9937 191.286 65.7604V63.2054C191.286 62.9487 191.368 62.7387 191.531 62.5754C191.695 62.4121 191.893 62.3304 192.126 62.3304H195.346C195.603 62.3304 195.813 62.4121 195.976 62.5754C196.14 62.7387 196.221 62.9487 196.221 63.2054V65.7604C196.221 65.9937 196.128 66.1921 195.941 66.3554C195.778 66.5187 195.58 66.6004 195.346 66.6004H192.126ZM192.266 87.7754C192.033 87.7754 191.835 87.6937 191.671 87.5304C191.508 87.3671 191.426 87.1687 191.426 86.9354V70.4154C191.426 70.1587 191.508 69.9604 191.671 69.8204C191.835 69.6571 192.033 69.5754 192.266 69.5754H195.241C195.475 69.5754 195.673 69.6571 195.836 69.8204C196 69.9837 196.081 70.1821 196.081 70.4154V86.9354C196.081 87.1687 196 87.3671 195.836 87.5304C195.673 87.6937 195.475 87.7754 195.241 87.7754H192.266ZM210.804 88.1254C208.377 88.1254 206.522 87.2971 205.239 85.6404V86.9354C205.239 87.1687 205.157 87.3671 204.994 87.5304C204.831 87.6937 204.621 87.7754 204.364 87.7754H201.564C201.331 87.7754 201.132 87.6937 200.969 87.5304C200.806 87.3671 200.724 87.1687 200.724 86.9354V63.7654C200.724 63.5087 200.806 63.3104 200.969 63.1704C201.132 63.0071 201.331 62.9254 201.564 62.9254H204.609C204.866 62.9254 205.064 63.0071 205.204 63.1704C205.367 63.3104 205.449 63.5087 205.449 63.7654V71.5354C206.756 69.9954 208.541 69.2254 210.804 69.2254C213.161 69.2254 214.969 69.9954 216.229 71.5354C217.512 73.0521 218.189 75.0471 218.259 77.5204C218.282 77.8004 218.294 78.1854 218.294 78.6754C218.294 79.1421 218.282 79.5271 218.259 79.8304C218.166 82.3504 217.489 84.3687 216.229 85.8854C214.969 87.3787 213.161 88.1254 210.804 88.1254ZM209.474 84.3454C211.971 84.3454 213.301 82.8054 213.464 79.7254C213.487 79.4921 213.499 79.1421 213.499 78.6754C213.499 78.2087 213.487 77.8587 213.464 77.6254C213.301 74.5454 211.971 73.0054 209.474 73.0054C208.191 73.0054 207.211 73.4137 206.534 74.2304C205.857 75.0471 205.496 76.0387 205.449 77.2054C205.426 77.4854 205.414 77.9404 205.414 78.5704C205.414 79.1771 205.426 79.6204 205.449 79.9004C205.496 81.1371 205.846 82.1871 206.499 83.0504C207.152 83.9137 208.144 84.3454 209.474 84.3454ZM230.063 88.1254C227.45 88.1254 225.373 87.3787 223.833 85.8854C222.316 84.3921 221.511 82.2687 221.418 79.5154L221.383 78.6404C221.383 75.7237 222.141 73.4254 223.658 71.7454C225.198 70.0654 227.321 69.2254 230.028 69.2254C232.805 69.2254 234.94 70.0654 236.433 71.7454C237.95 73.4254 238.708 75.6654 238.708 78.4654V79.2004C238.708 79.4337 238.626 79.6321 238.463 79.7954C238.3 79.9587 238.09 80.0404 237.833 80.0404H226.213V80.3204C226.26 81.6271 226.61 82.7121 227.263 83.5754C227.94 84.4154 228.861 84.8354 230.028 84.8354C231.358 84.8354 232.443 84.2987 233.283 83.2254C233.493 82.9687 233.656 82.8171 233.773 82.7704C233.89 82.7004 234.088 82.6654 234.368 82.6654H237.448C237.658 82.6654 237.833 82.7237 237.973 82.8404C238.136 82.9571 238.218 83.1204 238.218 83.3304C238.218 83.8904 237.88 84.5554 237.203 85.3254C236.55 86.0721 235.605 86.7254 234.368 87.2854C233.131 87.8454 231.696 88.1254 230.063 88.1254ZM233.878 77.0654V76.9954C233.878 75.6187 233.528 74.5221 232.828 73.7054C232.151 72.8654 231.218 72.4454 230.028 72.4454C228.838 72.4454 227.905 72.8654 227.228 73.7054C226.551 74.5221 226.213 75.6187 226.213 76.9954V77.0654H233.878ZM251.646 87.7754C251.413 87.7754 251.215 87.6937 251.051 87.5304C250.888 87.3671 250.806 87.1687 250.806 86.9354V64.1504C250.806 63.8937 250.876 63.6837 251.016 63.5204C251.18 63.3571 251.39 63.2754 251.646 63.2754H254.376C254.82 63.2754 255.158 63.4737 255.391 63.8704L265.401 79.4104V64.1504C265.401 63.8937 265.471 63.6837 265.611 63.5204C265.775 63.3571 265.985 63.2754 266.241 63.2754H269.251C269.508 63.2754 269.718 63.3571 269.881 63.5204C270.045 63.6837 270.126 63.8937 270.126 64.1504V86.9004C270.126 87.1571 270.045 87.3671 269.881 87.5304C269.718 87.6937 269.52 87.7754 269.286 87.7754H266.521C266.055 87.7754 265.705 87.5771 265.471 87.1804L255.496 71.9904V86.9354C255.496 87.1687 255.415 87.3671 255.251 87.5304C255.111 87.6937 254.913 87.7754 254.656 87.7754H251.646ZM283.217 88.1254C280.464 88.1254 278.341 87.4254 276.847 86.0254C275.354 84.6254 274.549 82.6887 274.432 80.2154L274.397 78.6754L274.432 77.1354C274.549 74.6854 275.366 72.7604 276.882 71.3604C278.399 69.9371 280.511 69.2254 283.217 69.2254C285.901 69.2254 288.001 69.9371 289.517 71.3604C291.034 72.7604 291.851 74.6854 291.967 77.1354C291.991 77.4154 292.002 77.9287 292.002 78.6754C292.002 79.4221 291.991 79.9354 291.967 80.2154C291.851 82.6887 291.046 84.6254 289.552 86.0254C288.059 87.4254 285.947 88.1254 283.217 88.1254ZM283.217 84.5904C284.454 84.5904 285.399 84.2054 286.052 83.4354C286.729 82.6654 287.091 81.5337 287.137 80.0404C287.161 79.8071 287.172 79.3521 287.172 78.6754C287.172 77.9987 287.161 77.5437 287.137 77.3104C287.091 75.8171 286.729 74.6854 286.052 73.9154C285.376 73.1221 284.431 72.7254 283.217 72.7254C281.981 72.7254 281.024 73.1221 280.347 73.9154C279.671 74.6854 279.309 75.8171 279.262 77.3104L279.227 78.6754L279.262 80.0404C279.309 81.5337 279.671 82.6654 280.347 83.4354C281.024 84.2054 281.981 84.5904 283.217 84.5904ZM300.337 87.7754C299.753 87.7754 299.368 87.4837 299.182 86.9004L294.177 70.6604C294.153 70.5904 294.142 70.4854 294.142 70.3454C294.142 70.1354 294.212 69.9604 294.352 69.8204C294.492 69.6571 294.667 69.5754 294.877 69.5754H297.537C297.77 69.5754 297.968 69.6454 298.132 69.7854C298.318 69.9254 298.435 70.0771 298.482 70.2404L301.877 81.7554L305.482 70.3454C305.552 70.1354 305.668 69.9604 305.832 69.8204C306.018 69.6571 306.252 69.5754 306.532 69.5754H308.317C308.597 69.5754 308.818 69.6571 308.982 69.8204C309.168 69.9604 309.285 70.1354 309.332 70.3454L312.972 81.7554L316.367 70.2404C316.413 70.0771 316.518 69.9254 316.682 69.7854C316.845 69.6454 317.055 69.5754 317.312 69.5754H319.937C320.147 69.5754 320.322 69.6571 320.462 69.8204C320.625 69.9604 320.707 70.1354 320.707 70.3454L320.637 70.6604L315.632 86.9004C315.538 87.1804 315.398 87.4021 315.212 87.5654C315.048 87.7054 314.815 87.7754 314.512 87.7754H312.202C311.595 87.7754 311.21 87.4837 311.047 86.9004L307.442 75.9104L303.802 86.9004C303.615 87.4837 303.218 87.7754 302.612 87.7754H300.337ZM333.474 87.7754C333.241 87.7754 333.043 87.6937 332.879 87.5304C332.716 87.3671 332.634 87.1687 332.634 86.9354V73.3204H329.799C329.566 73.3204 329.368 73.2387 329.204 73.0754C329.041 72.9121 328.959 72.7137 328.959 72.4804V70.4154C328.959 70.1821 329.041 69.9837 329.204 69.8204C329.368 69.6571 329.566 69.5754 329.799 69.5754H332.634V68.1754C332.634 66.0521 333.206 64.4771 334.349 63.4504C335.493 62.4004 337.219 61.8754 339.529 61.8754H341.944C342.178 61.8754 342.376 61.9571 342.539 62.1204C342.703 62.2837 342.784 62.4821 342.784 62.7154V64.7804C342.784 65.0137 342.703 65.2121 342.539 65.3754C342.376 65.5387 342.178 65.6204 341.944 65.6204H339.704C338.794 65.6204 338.153 65.8421 337.779 66.2854C337.406 66.7287 337.219 67.4171 337.219 68.3504V69.5754H341.594C341.828 69.5754 342.026 69.6571 342.189 69.8204C342.353 69.9837 342.434 70.1821 342.434 70.4154V72.4804C342.434 72.7137 342.353 72.9121 342.189 73.0754C342.026 73.2387 341.828 73.3204 341.594 73.3204H337.219V86.9354C337.219 87.1687 337.138 87.3671 336.974 87.5304C336.834 87.6937 336.636 87.7754 336.379 87.7754H333.474ZM353.012 88.1254C350.259 88.1254 348.136 87.4254 346.642 86.0254C345.149 84.6254 344.344 82.6887 344.227 80.2154L344.192 78.6754L344.227 77.1354C344.344 74.6854 345.161 72.7604 346.677 71.3604C348.194 69.9371 350.306 69.2254 353.012 69.2254C355.696 69.2254 357.796 69.9371 359.312 71.3604C360.829 72.7604 361.646 74.6854 361.762 77.1354C361.786 77.4154 361.797 77.9287 361.797 78.6754C361.797 79.4221 361.786 79.9354 361.762 80.2154C361.646 82.6887 360.841 84.6254 359.347 86.0254C357.854 87.4254 355.742 88.1254 353.012 88.1254ZM353.012 84.5904C354.249 84.5904 355.194 84.2054 355.847 83.4354C356.524 82.6654 356.886 81.5337 356.932 80.0404C356.956 79.8071 356.967 79.3521 356.967 78.6754C356.967 77.9987 356.956 77.5437 356.932 77.3104C356.886 75.8171 356.524 74.6854 355.847 73.9154C355.171 73.1221 354.226 72.7254 353.012 72.7254C351.776 72.7254 350.819 73.1221 350.142 73.9154C349.466 74.6854 349.104 75.8171 349.057 77.3104L349.022 78.6754L349.057 80.0404C349.104 81.5337 349.466 82.6654 350.142 83.4354C350.819 84.2054 351.776 84.5904 353.012 84.5904ZM366.514 87.7754C366.281 87.7754 366.083 87.6937 365.919 87.5304C365.756 87.3671 365.674 87.1687 365.674 86.9354V70.4504C365.674 70.1937 365.756 69.9837 365.919 69.8204C366.083 69.6571 366.281 69.5754 366.514 69.5754H369.384C369.641 69.5754 369.851 69.6571 370.014 69.8204C370.178 69.9837 370.259 70.1937 370.259 70.4504V71.8854C371.426 70.3454 373.106 69.5754 375.299 69.5754H376.769C377.026 69.5754 377.224 69.6571 377.364 69.8204C377.528 69.9604 377.609 70.1587 377.609 70.4154V72.9704C377.609 73.2037 377.528 73.4021 377.364 73.5654C377.224 73.7287 377.026 73.8104 376.769 73.8104H374.004C372.908 73.8104 372.044 74.1254 371.414 74.7554C370.784 75.3854 370.469 76.2487 370.469 77.3454V86.9354C370.469 87.1687 370.388 87.3671 370.224 87.5304C370.061 87.6937 369.863 87.7754 369.629 87.7754H366.514ZM82.285 133.125C79.065 133.125 76.5567 132.297 74.76 130.64C72.9867 128.984 72.0417 126.674 71.925 123.71C71.9017 123.034 71.89 121.949 71.89 120.455C71.89 118.962 71.9017 117.877 71.925 117.2C72.0183 114.307 72.975 112.044 74.795 110.41C76.615 108.754 79.1117 107.925 82.285 107.925C84.4317 107.925 86.275 108.299 87.815 109.045C89.3783 109.769 90.5567 110.679 91.35 111.775C92.1433 112.849 92.5633 113.91 92.61 114.96C92.61 115.17 92.54 115.345 92.4 115.485C92.26 115.625 92.0733 115.695 91.84 115.695H88.165C87.9317 115.695 87.7567 115.649 87.64 115.555C87.5233 115.462 87.4183 115.31 87.325 115.1C86.9983 114.237 86.4267 113.502 85.61 112.895C84.7933 112.289 83.685 111.985 82.285 111.985C80.6517 111.985 79.3683 112.429 78.435 113.315C77.525 114.179 77.0467 115.532 77 117.375C76.9767 118.052 76.965 119.079 76.965 120.455C76.965 121.809 76.9767 122.835 77 123.535C77.0467 125.425 77.5367 126.825 78.47 127.735C79.4033 128.622 80.6867 129.065 82.32 129.065C83.9767 129.065 85.3067 128.622 86.31 127.735C87.3133 126.849 87.815 125.519 87.815 123.745V122.66H83.545C83.3117 122.66 83.1133 122.579 82.95 122.415C82.7867 122.252 82.705 122.054 82.705 121.82V119.895C82.705 119.662 82.7867 119.464 82.95 119.3C83.1133 119.137 83.3117 119.055 83.545 119.055H91.945C92.2017 119.055 92.4117 119.137 92.575 119.3C92.7383 119.464 92.82 119.662 92.82 119.895V123.605C92.82 125.542 92.3883 127.234 91.525 128.68C90.6617 130.104 89.4367 131.2 87.85 131.97C86.2633 132.74 84.4083 133.125 82.285 133.125ZM104.726 133.125C102.113 133.125 100.036 132.379 98.496 130.885C96.9793 129.392 96.1743 127.269 96.081 124.515L96.046 123.64C96.046 120.724 96.8043 118.425 98.321 116.745C99.861 115.065 101.984 114.225 104.691 114.225C107.468 114.225 109.603 115.065 111.096 116.745C112.613 118.425 113.371 120.665 113.371 123.465V124.2C113.371 124.434 113.289 124.632 113.126 124.795C112.963 124.959 112.753 125.04 112.496 125.04H100.876V125.32C100.923 126.627 101.273 127.712 101.926 128.575C102.603 129.415 103.524 129.835 104.691 129.835C106.021 129.835 107.106 129.299 107.946 128.225C108.156 127.969 108.319 127.817 108.436 127.77C108.553 127.7 108.751 127.665 109.031 127.665H112.111C112.321 127.665 112.496 127.724 112.636 127.84C112.799 127.957 112.881 128.12 112.881 128.33C112.881 128.89 112.543 129.555 111.866 130.325C111.213 131.072 110.268 131.725 109.031 132.285C107.794 132.845 106.359 133.125 104.726 133.125ZM108.541 122.065V121.995C108.541 120.619 108.191 119.522 107.491 118.705C106.814 117.865 105.881 117.445 104.691 117.445C103.501 117.445 102.568 117.865 101.891 118.705C101.214 119.522 100.876 120.619 100.876 121.995V122.065H108.541ZM125.277 132.775C123.154 132.775 121.555 132.227 120.482 131.13C119.409 130.01 118.872 128.377 118.872 126.23V118.32H116.107C115.874 118.32 115.675 118.239 115.512 118.075C115.349 117.912 115.267 117.714 115.267 117.48V115.415C115.267 115.182 115.349 114.984 115.512 114.82C115.675 114.657 115.874 114.575 116.107 114.575H118.872V108.765C118.872 108.509 118.954 108.31 119.117 108.17C119.28 108.007 119.479 107.925 119.712 107.925H122.617C122.874 107.925 123.072 108.007 123.212 108.17C123.375 108.31 123.457 108.509 123.457 108.765V114.575H127.832C128.065 114.575 128.264 114.657 128.427 114.82C128.59 114.984 128.672 115.182 128.672 115.415V117.48C128.672 117.714 128.59 117.912 128.427 118.075C128.264 118.239 128.065 118.32 127.832 118.32H123.457V125.845C123.457 126.849 123.632 127.607 123.982 128.12C124.332 128.634 124.904 128.89 125.697 128.89H128.147C128.404 128.89 128.602 128.972 128.742 129.135C128.905 129.275 128.987 129.474 128.987 129.73V131.935C128.987 132.169 128.905 132.367 128.742 132.53C128.602 132.694 128.404 132.775 128.147 132.775H125.277ZM149.014 133.125C146.914 133.125 145.117 132.81 143.624 132.18C142.131 131.55 140.999 130.722 140.229 129.695C139.459 128.669 139.051 127.549 139.004 126.335C139.004 126.149 139.074 125.985 139.214 125.845C139.354 125.682 139.529 125.6 139.739 125.6H142.924C143.181 125.6 143.391 125.659 143.554 125.775C143.717 125.892 143.869 126.055 144.009 126.265C144.242 127.059 144.767 127.724 145.584 128.26C146.424 128.797 147.567 129.065 149.014 129.065C150.647 129.065 151.872 128.797 152.689 128.26C153.529 127.7 153.949 126.942 153.949 125.985C153.949 125.355 153.739 124.83 153.319 124.41C152.899 123.99 152.257 123.629 151.394 123.325C150.554 122.999 149.294 122.614 147.614 122.17C144.861 121.517 142.842 120.654 141.559 119.58C140.276 118.507 139.634 116.967 139.634 114.96C139.634 113.607 140.007 112.405 140.754 111.355C141.501 110.282 142.562 109.442 143.939 108.835C145.339 108.229 146.961 107.925 148.804 107.925C150.741 107.925 152.409 108.264 153.809 108.94C155.232 109.617 156.306 110.469 157.029 111.495C157.776 112.499 158.172 113.502 158.219 114.505C158.219 114.692 158.149 114.867 158.009 115.03C157.869 115.17 157.694 115.24 157.484 115.24H154.159C153.646 115.24 153.296 115.03 153.109 114.61C152.992 113.864 152.537 113.245 151.744 112.755C150.951 112.242 149.971 111.985 148.804 111.985C147.521 111.985 146.506 112.23 145.759 112.72C145.036 113.21 144.674 113.922 144.674 114.855C144.674 115.485 144.861 116.01 145.234 116.43C145.607 116.85 146.191 117.224 146.984 117.55C147.777 117.854 148.932 118.204 150.449 118.6C152.526 119.067 154.171 119.592 155.384 120.175C156.621 120.759 157.531 121.494 158.114 122.38C158.697 123.267 158.989 124.399 158.989 125.775C158.989 127.292 158.569 128.61 157.729 129.73C156.912 130.827 155.746 131.667 154.229 132.25C152.736 132.834 150.997 133.125 149.014 133.125ZM163.419 139.425C163.186 139.425 162.988 139.344 162.824 139.18C162.661 139.04 162.579 138.842 162.579 138.585V115.415C162.579 115.159 162.661 114.96 162.824 114.82C162.988 114.657 163.186 114.575 163.419 114.575H166.219C166.476 114.575 166.686 114.657 166.849 114.82C167.013 114.984 167.094 115.182 167.094 115.415V116.815C168.331 115.089 170.186 114.225 172.659 114.225C175.016 114.225 176.824 114.972 178.084 116.465C179.344 117.935 180.021 119.919 180.114 122.415C180.138 122.695 180.149 123.115 180.149 123.675C180.149 124.235 180.138 124.655 180.114 124.935C180.044 127.385 179.368 129.369 178.084 130.885C176.824 132.379 175.016 133.125 172.659 133.125C170.326 133.125 168.541 132.297 167.304 130.64V138.585C167.304 138.842 167.223 139.04 167.059 139.18C166.919 139.344 166.721 139.425 166.464 139.425H163.419ZM171.329 129.345C173.826 129.345 175.156 127.805 175.319 124.725C175.343 124.492 175.354 124.142 175.354 123.675C175.354 123.209 175.343 122.859 175.319 122.625C175.156 119.545 173.826 118.005 171.329 118.005C169.999 118.005 169.008 118.437 168.354 119.3C167.701 120.164 167.351 121.214 167.304 122.45C167.281 122.73 167.269 123.174 167.269 123.78C167.269 124.387 167.281 124.842 167.304 125.145C167.351 126.312 167.713 127.304 168.389 128.12C169.066 128.937 170.046 129.345 171.329 129.345ZM191.918 133.125C189.305 133.125 187.228 132.379 185.688 130.885C184.172 129.392 183.367 127.269 183.273 124.515L183.238 123.64C183.238 120.724 183.997 118.425 185.513 116.745C187.053 115.065 189.177 114.225 191.883 114.225C194.66 114.225 196.795 115.065 198.288 116.745C199.805 118.425 200.563 120.665 200.563 123.465V124.2C200.563 124.434 200.482 124.632 200.318 124.795C200.155 124.959 199.945 125.04 199.688 125.04H188.068V125.32C188.115 126.627 188.465 127.712 189.118 128.575C189.795 129.415 190.717 129.835 191.883 129.835C193.213 129.835 194.298 129.299 195.138 128.225C195.348 127.969 195.512 127.817 195.628 127.77C195.745 127.7 195.943 127.665 196.223 127.665H199.303C199.513 127.665 199.688 127.724 199.828 127.84C199.992 127.957 200.073 128.12 200.073 128.33C200.073 128.89 199.735 129.555 199.058 130.325C198.405 131.072 197.46 131.725 196.223 132.285C194.987 132.845 193.552 133.125 191.918 133.125ZM195.733 122.065V121.995C195.733 120.619 195.383 119.522 194.683 118.705C194.007 117.865 193.073 117.445 191.883 117.445C190.693 117.445 189.76 117.865 189.083 118.705C188.407 119.522 188.068 120.619 188.068 121.995V122.065H195.733ZM212.153 133.125C209.586 133.125 207.533 132.414 205.993 130.99C204.476 129.567 203.671 127.595 203.578 125.075L203.543 123.675L203.578 122.275C203.671 119.755 204.476 117.784 205.993 116.36C207.533 114.937 209.586 114.225 212.153 114.225C213.996 114.225 215.548 114.552 216.808 115.205C218.091 115.859 219.036 116.664 219.643 117.62C220.273 118.554 220.611 119.452 220.658 120.315C220.681 120.549 220.599 120.747 220.413 120.91C220.249 121.074 220.051 121.155 219.818 121.155H216.703C216.446 121.155 216.259 121.109 216.143 121.015C216.026 120.899 215.909 120.7 215.793 120.42C215.443 119.534 214.976 118.892 214.393 118.495C213.833 118.099 213.109 117.9 212.223 117.9C211.033 117.9 210.099 118.274 209.423 119.02C208.769 119.767 208.419 120.91 208.373 122.45L208.338 123.745L208.373 124.9C208.513 127.934 209.796 129.45 212.223 129.45C213.133 129.45 213.868 129.264 214.428 128.89C214.988 128.494 215.443 127.84 215.793 126.93C215.886 126.674 215.991 126.487 216.108 126.37C216.248 126.254 216.446 126.195 216.703 126.195H219.818C220.051 126.195 220.249 126.277 220.413 126.44C220.599 126.604 220.681 126.802 220.658 127.035C220.611 127.852 220.284 128.739 219.678 129.695C219.071 130.629 218.138 131.434 216.878 132.11C215.618 132.787 214.043 133.125 212.153 133.125ZM225.007 111.6C224.774 111.6 224.575 111.519 224.412 111.355C224.249 111.192 224.167 110.994 224.167 110.76V108.205C224.167 107.949 224.249 107.739 224.412 107.575C224.575 107.412 224.774 107.33 225.007 107.33H228.227C228.484 107.33 228.694 107.412 228.857 107.575C229.02 107.739 229.102 107.949 229.102 108.205V110.76C229.102 110.994 229.009 111.192 228.822 111.355C228.659 111.519 228.46 111.6 228.227 111.6H225.007ZM225.147 132.775C224.914 132.775 224.715 132.694 224.552 132.53C224.389 132.367 224.307 132.169 224.307 131.935V115.415C224.307 115.159 224.389 114.96 224.552 114.82C224.715 114.657 224.914 114.575 225.147 114.575H228.122C228.355 114.575 228.554 114.657 228.717 114.82C228.88 114.984 228.962 115.182 228.962 115.415V131.935C228.962 132.169 228.88 132.367 228.717 132.53C228.554 132.694 228.355 132.775 228.122 132.775H225.147ZM238.855 133.125C237.665 133.125 236.568 132.892 235.565 132.425C234.585 131.935 233.803 131.282 233.22 130.465C232.66 129.649 232.38 128.75 232.38 127.77C232.38 126.184 233.021 124.9 234.305 123.92C235.588 122.94 237.35 122.275 239.59 121.925L244.385 121.225V120.49C244.385 119.487 244.128 118.729 243.615 118.215C243.101 117.702 242.285 117.445 241.165 117.445C240.395 117.445 239.776 117.585 239.31 117.865C238.843 118.145 238.458 118.437 238.155 118.74C237.875 119.02 237.688 119.207 237.595 119.3C237.501 119.58 237.326 119.72 237.07 119.72H234.34C234.13 119.72 233.943 119.65 233.78 119.51C233.64 119.37 233.57 119.184 233.57 118.95C233.593 118.367 233.873 117.714 234.41 116.99C234.97 116.244 235.821 115.602 236.965 115.065C238.108 114.505 239.52 114.225 241.2 114.225C243.953 114.225 245.96 114.844 247.22 116.08C248.48 117.317 249.11 118.939 249.11 120.945V131.935C249.11 132.169 249.028 132.367 248.865 132.53C248.725 132.694 248.526 132.775 248.27 132.775H245.365C245.131 132.775 244.933 132.694 244.77 132.53C244.606 132.367 244.525 132.169 244.525 131.935V130.57C244.011 131.317 243.288 131.935 242.355 132.425C241.421 132.892 240.255 133.125 238.855 133.125ZM240.045 129.765C241.328 129.765 242.378 129.345 243.195 128.505C244.011 127.665 244.42 126.452 244.42 124.865V124.165L240.92 124.725C238.236 125.145 236.895 126.044 236.895 127.42C236.895 128.167 237.198 128.75 237.805 129.17C238.435 129.567 239.181 129.765 240.045 129.765ZM254.474 132.775C254.241 132.775 254.042 132.694 253.879 132.53C253.716 132.367 253.634 132.169 253.634 131.935V108.765C253.634 108.509 253.716 108.31 253.879 108.17C254.042 108.007 254.241 107.925 254.474 107.925H257.414C257.671 107.925 257.869 108.007 258.009 108.17C258.172 108.31 258.254 108.509 258.254 108.765V131.935C258.254 132.169 258.172 132.367 258.009 132.53C257.869 132.694 257.671 132.775 257.414 132.775H254.474ZM272.12 132.775C271.886 132.775 271.688 132.694 271.525 132.53C271.361 132.367 271.28 132.169 271.28 131.935V109.15C271.28 108.894 271.35 108.684 271.49 108.52C271.653 108.357 271.863 108.275 272.12 108.275H287.345C287.601 108.275 287.811 108.357 287.975 108.52C288.138 108.684 288.22 108.894 288.22 109.15V111.67C288.22 111.904 288.138 112.102 287.975 112.265C287.811 112.429 287.601 112.51 287.345 112.51H276.145V119.09H286.645C286.901 119.09 287.111 119.172 287.275 119.335C287.438 119.499 287.52 119.697 287.52 119.93V122.45C287.52 122.684 287.438 122.882 287.275 123.045C287.111 123.209 286.901 123.29 286.645 123.29H276.145V131.935C276.145 132.169 276.063 132.367 275.9 132.53C275.736 132.694 275.526 132.775 275.27 132.775H272.12ZM299.448 133.125C296.834 133.125 294.758 132.379 293.218 130.885C291.701 129.392 290.896 127.269 290.803 124.515L290.768 123.64C290.768 120.724 291.526 118.425 293.043 116.745C294.583 115.065 296.706 114.225 299.413 114.225C302.189 114.225 304.324 115.065 305.818 116.745C307.334 118.425 308.093 120.665 308.093 123.465V124.2C308.093 124.434 308.011 124.632 307.848 124.795C307.684 124.959 307.474 125.04 307.218 125.04H295.598V125.32C295.644 126.627 295.994 127.712 296.648 128.575C297.324 129.415 298.246 129.835 299.413 129.835C300.743 129.835 301.828 129.299 302.668 128.225C302.878 127.969 303.041 127.817 303.158 127.77C303.274 127.7 303.473 127.665 303.753 127.665H306.833C307.043 127.665 307.218 127.724 307.358 127.84C307.521 127.957 307.603 128.12 307.603 128.33C307.603 128.89 307.264 129.555 306.588 130.325C305.934 131.072 304.989 131.725 303.753 132.285C302.516 132.845 301.081 133.125 299.448 133.125ZM303.263 122.065V121.995C303.263 120.619 302.913 119.522 302.213 118.705C301.536 117.865 300.603 117.445 299.413 117.445C298.223 117.445 297.289 117.865 296.613 118.705C295.936 119.522 295.598 120.619 295.598 121.995V122.065H303.263ZM317.092 133.125C315.902 133.125 314.805 132.892 313.802 132.425C312.822 131.935 312.04 131.282 311.457 130.465C310.897 129.649 310.617 128.75 310.617 127.77C310.617 126.184 311.259 124.9 312.542 123.92C313.825 122.94 315.587 122.275 317.827 121.925L322.622 121.225V120.49C322.622 119.487 322.365 118.729 321.852 118.215C321.339 117.702 320.522 117.445 319.402 117.445C318.632 117.445 318.014 117.585 317.547 117.865C317.08 118.145 316.695 118.437 316.392 118.74C316.112 119.02 315.925 119.207 315.832 119.3C315.739 119.58 315.564 119.72 315.307 119.72H312.577C312.367 119.72 312.18 119.65 312.017 119.51C311.877 119.37 311.807 119.184 311.807 118.95C311.83 118.367 312.11 117.714 312.647 116.99C313.207 116.244 314.059 115.602 315.202 115.065C316.345 114.505 317.757 114.225 319.437 114.225C322.19 114.225 324.197 114.844 325.457 116.08C326.717 117.317 327.347 118.939 327.347 120.945V131.935C327.347 132.169 327.265 132.367 327.102 132.53C326.962 132.694 326.764 132.775 326.507 132.775H323.602C323.369 132.775 323.17 132.694 323.007 132.53C322.844 132.367 322.762 132.169 322.762 131.935V130.57C322.249 131.317 321.525 131.935 320.592 132.425C319.659 132.892 318.492 133.125 317.092 133.125ZM318.282 129.765C319.565 129.765 320.615 129.345 321.432 128.505C322.249 127.665 322.657 126.452 322.657 124.865V124.165L319.157 124.725C316.474 125.145 315.132 126.044 315.132 127.42C315.132 128.167 315.435 128.75 316.042 129.17C316.672 129.567 317.419 129.765 318.282 129.765ZM339.925 132.775C337.802 132.775 336.204 132.227 335.13 131.13C334.057 130.01 333.52 128.377 333.52 126.23V118.32H330.755C330.522 118.32 330.324 118.239 330.16 118.075C329.997 117.912 329.915 117.714 329.915 117.48V115.415C329.915 115.182 329.997 114.984 330.16 114.82C330.324 114.657 330.522 114.575 330.755 114.575H333.52V108.765C333.52 108.509 333.602 108.31 333.765 108.17C333.929 108.007 334.127 107.925 334.36 107.925H337.265C337.522 107.925 337.72 108.007 337.86 108.17C338.024 108.31 338.105 108.509 338.105 108.765V114.575H342.48C342.714 114.575 342.912 114.657 343.075 114.82C343.239 114.984 343.32 115.182 343.32 115.415V117.48C343.32 117.714 343.239 117.912 343.075 118.075C342.912 118.239 342.714 118.32 342.48 118.32H338.105V125.845C338.105 126.849 338.28 127.607 338.63 128.12C338.98 128.634 339.552 128.89 340.345 128.89H342.795C343.052 128.89 343.25 128.972 343.39 129.135C343.554 129.275 343.635 129.474 343.635 129.73V131.935C343.635 132.169 343.554 132.367 343.39 132.53C343.25 132.694 343.052 132.775 342.795 132.775H339.925ZM353.494 133.125C351.347 133.125 349.655 132.425 348.419 131.025C347.182 129.625 346.564 127.7 346.564 125.25V115.415C346.564 115.159 346.645 114.96 346.809 114.82C346.972 114.657 347.17 114.575 347.404 114.575H350.554C350.787 114.575 350.985 114.657 351.149 114.82C351.312 114.984 351.394 115.182 351.394 115.415V125.04C351.394 127.91 352.642 129.345 355.139 129.345C356.352 129.345 357.309 128.96 358.009 128.19C358.732 127.42 359.094 126.37 359.094 125.04V115.415C359.094 115.159 359.175 114.96 359.339 114.82C359.502 114.657 359.7 114.575 359.934 114.575H363.049C363.305 114.575 363.504 114.657 363.644 114.82C363.807 114.96 363.889 115.159 363.889 115.415V131.935C363.889 132.169 363.807 132.367 363.644 132.53C363.504 132.694 363.305 132.775 363.049 132.775H360.144C359.91 132.775 359.712 132.694 359.549 132.53C359.385 132.367 359.304 132.169 359.304 131.935V130.5C358.02 132.25 356.084 133.125 353.494 133.125ZM369.351 132.775C369.118 132.775 368.92 132.694 368.756 132.53C368.593 132.367 368.511 132.169 368.511 131.935V115.45C368.511 115.194 368.593 114.984 368.756 114.82C368.92 114.657 369.118 114.575 369.351 114.575H372.221C372.478 114.575 372.688 114.657 372.851 114.82C373.015 114.984 373.096 115.194 373.096 115.45V116.885C374.263 115.345 375.943 114.575 378.136 114.575H379.606C379.863 114.575 380.061 114.657 380.201 114.82C380.365 114.96 380.446 115.159 380.446 115.415V117.97C380.446 118.204 380.365 118.402 380.201 118.565C380.061 118.729 379.863 118.81 379.606 118.81H376.841C375.745 118.81 374.881 119.125 374.251 119.755C373.621 120.385 373.306 121.249 373.306 122.345V131.935C373.306 132.169 373.225 132.367 373.061 132.53C372.898 132.694 372.7 132.775 372.466 132.775H369.351ZM390.81 133.125C388.197 133.125 386.12 132.379 384.58 130.885C383.063 129.392 382.258 127.269 382.165 124.515L382.13 123.64C382.13 120.724 382.888 118.425 384.405 116.745C385.945 115.065 388.068 114.225 390.775 114.225C393.552 114.225 395.687 115.065 397.18 116.745C398.697 118.425 399.455 120.665 399.455 123.465V124.2C399.455 124.434 399.373 124.632 399.21 124.795C399.047 124.959 398.837 125.04 398.58 125.04H386.96V125.32C387.007 126.627 387.357 127.712 388.01 128.575C388.687 129.415 389.608 129.835 390.775 129.835C392.105 129.835 393.19 129.299 394.03 128.225C394.24 127.969 394.403 127.817 394.52 127.77C394.637 127.7 394.835 127.665 395.115 127.665H398.195C398.405 127.665 398.58 127.724 398.72 127.84C398.883 127.957 398.965 128.12 398.965 128.33C398.965 128.89 398.627 129.555 397.95 130.325C397.297 131.072 396.352 131.725 395.115 132.285C393.878 132.845 392.443 133.125 390.81 133.125ZM394.625 122.065V121.995C394.625 120.619 394.275 119.522 393.575 118.705C392.898 117.865 391.965 117.445 390.775 117.445C389.585 117.445 388.652 117.865 387.975 118.705C387.298 119.522 386.96 120.619 386.96 121.995V122.065H394.625ZM410.099 133.125C408.326 133.125 406.844 132.857 405.654 132.32C404.464 131.784 403.578 131.165 402.994 130.465C402.434 129.742 402.154 129.124 402.154 128.61C402.154 128.377 402.224 128.19 402.364 128.05C402.528 127.91 402.714 127.84 402.924 127.84H405.794C405.981 127.84 406.144 127.934 406.284 128.12C406.401 128.214 406.658 128.435 407.054 128.785C407.474 129.135 407.941 129.415 408.454 129.625C408.991 129.812 409.574 129.905 410.204 129.905C411.138 129.905 411.896 129.73 412.479 129.38C413.063 129.007 413.354 128.482 413.354 127.805C413.354 127.339 413.214 126.965 412.934 126.685C412.678 126.382 412.199 126.114 411.499 125.88C410.823 125.624 409.796 125.344 408.419 125.04C406.436 124.62 404.966 123.979 404.009 123.115C403.076 122.252 402.609 121.109 402.609 119.685C402.609 118.752 402.889 117.877 403.449 117.06C404.009 116.22 404.838 115.544 405.934 115.03C407.054 114.494 408.384 114.225 409.924 114.225C411.511 114.225 412.876 114.482 414.019 114.995C415.163 115.485 416.026 116.08 416.609 116.78C417.216 117.48 417.519 118.099 417.519 118.635C417.519 118.845 417.438 119.032 417.274 119.195C417.134 119.335 416.959 119.405 416.749 119.405H414.124C413.868 119.405 413.669 119.312 413.529 119.125C413.366 119.009 413.098 118.799 412.724 118.495C412.374 118.169 411.978 117.912 411.534 117.725C411.091 117.539 410.554 117.445 409.924 117.445C409.061 117.445 408.396 117.632 407.929 118.005C407.463 118.379 407.229 118.869 407.229 119.475C407.229 119.895 407.334 120.245 407.544 120.525C407.778 120.805 408.233 121.074 408.909 121.33C409.586 121.564 410.601 121.809 411.954 122.065C416.154 122.882 418.254 124.714 418.254 127.56C418.254 129.217 417.531 130.559 416.084 131.585C414.661 132.612 412.666 133.125 410.099 133.125ZM422.776 125.95C422.543 125.95 422.345 125.869 422.181 125.705C422.018 125.542 421.936 125.344 421.936 125.11V109.115C421.936 108.859 422.018 108.66 422.181 108.52C422.345 108.357 422.543 108.275 422.776 108.275H425.681C425.915 108.275 426.113 108.357 426.276 108.52C426.44 108.684 426.521 108.882 426.521 109.115V125.11C426.521 125.344 426.44 125.542 426.276 125.705C426.113 125.869 425.915 125.95 425.681 125.95H422.776ZM422.566 132.775C422.333 132.775 422.135 132.694 421.971 132.53C421.808 132.367 421.726 132.169 421.726 131.935V128.61C421.726 128.354 421.808 128.155 421.971 128.015C422.135 127.852 422.333 127.77 422.566 127.77H425.856C426.113 127.77 426.323 127.852 426.486 128.015C426.65 128.179 426.731 128.377 426.731 128.61V131.935C426.731 132.169 426.65 132.367 426.486 132.53C426.323 132.694 426.113 132.775 425.856 132.775H422.566Z" fill="#0B132A"/>
<path d="M71.76 171.775C71.6533 171.775 71.568 171.743 71.504 171.679C71.44 171.605 71.408 171.514 71.408 171.407V160.943C71.408 160.837 71.44 160.751 71.504 160.687C71.568 160.613 71.6533 160.575 71.76 160.575H72.56C72.6667 160.575 72.752 160.613 72.816 160.687C72.88 160.751 72.912 160.837 72.912 160.943V170.431H78.256C78.3733 170.431 78.464 170.469 78.528 170.543C78.6027 170.607 78.64 170.693 78.64 170.799V171.407C78.64 171.514 78.6027 171.605 78.528 171.679C78.4533 171.743 78.3627 171.775 78.256 171.775H71.76ZM83.2929 171.935C82.2049 171.935 81.3355 171.599 80.6849 170.927C80.0342 170.245 79.6769 169.317 79.6129 168.143L79.5969 167.599L79.6129 167.071C79.6769 165.919 80.0342 165.002 80.6849 164.319C81.3355 163.637 82.2049 163.295 83.2929 163.295C84.4662 163.295 85.3729 163.669 86.0129 164.415C86.6635 165.162 86.9889 166.175 86.9889 167.455V167.743C86.9889 167.85 86.9515 167.941 86.8769 168.015C86.8129 168.079 86.7275 168.111 86.6209 168.111H81.0689V168.255C81.1009 168.949 81.3142 169.541 81.7089 170.031C82.1035 170.522 82.6262 170.767 83.2769 170.767C83.7782 170.767 84.1835 170.671 84.4929 170.479C84.8129 170.277 85.0529 170.069 85.2129 169.855C85.3089 169.727 85.3835 169.653 85.4369 169.631C85.4902 169.599 85.5809 169.583 85.7089 169.583H86.4129C86.5089 169.583 86.5889 169.61 86.6529 169.663C86.7275 169.717 86.7649 169.786 86.7649 169.871C86.7649 170.106 86.6209 170.389 86.3329 170.719C86.0449 171.05 85.6342 171.338 85.1009 171.583C84.5782 171.818 83.9755 171.935 83.2929 171.935ZM85.5329 167.023V166.975C85.5329 166.229 85.3302 165.621 84.9249 165.151C84.5195 164.682 83.9755 164.447 83.2929 164.447C82.5995 164.447 82.0555 164.682 81.6609 165.151C81.2662 165.621 81.0689 166.229 81.0689 166.975V167.023H85.5329ZM92.0875 171.775C90.4342 171.775 89.6075 170.842 89.6075 168.975V164.687H88.3435C88.2368 164.687 88.1515 164.655 88.0875 164.591C88.0235 164.527 87.9915 164.442 87.9915 164.335V163.823C87.9915 163.717 88.0235 163.631 88.0875 163.567C88.1515 163.493 88.2368 163.455 88.3435 163.455H89.6075V160.783C89.6075 160.677 89.6395 160.591 89.7035 160.527C89.7675 160.453 89.8528 160.415 89.9595 160.415H90.6635C90.7702 160.415 90.8555 160.453 90.9195 160.527C90.9942 160.591 91.0315 160.677 91.0315 160.783V163.455H93.0155C93.1222 163.455 93.2075 163.493 93.2715 163.567C93.3462 163.631 93.3835 163.717 93.3835 163.823V164.335C93.3835 164.442 93.3462 164.527 93.2715 164.591C93.2075 164.655 93.1222 164.687 93.0155 164.687H91.0315V168.863C91.0315 169.407 91.1168 169.818 91.2875 170.095C91.4688 170.373 91.7728 170.511 92.1995 170.511H93.1755C93.2822 170.511 93.3675 170.549 93.4315 170.623C93.4955 170.687 93.5275 170.773 93.5275 170.879V171.407C93.5275 171.514 93.4955 171.605 93.4315 171.679C93.3675 171.743 93.2822 171.775 93.1755 171.775H92.0875ZM95.3946 163.919C95.2026 163.919 95.096 163.802 95.0746 163.567L94.8026 160.783V160.719C94.8026 160.623 94.8293 160.549 94.8826 160.495C94.9466 160.442 95.0266 160.415 95.1226 160.415H96.1306C96.2373 160.415 96.3173 160.453 96.3706 160.527C96.4346 160.591 96.4613 160.677 96.4506 160.783L96.1786 163.567C96.1573 163.802 96.0506 163.919 95.8586 163.919H95.3946ZM101.048 171.935C100.312 171.935 99.688 171.818 99.176 171.583C98.6747 171.338 98.3013 171.061 98.056 170.751C97.8107 170.442 97.688 170.186 97.688 169.983C97.688 169.877 97.7253 169.797 97.8 169.743C97.8747 169.679 97.9547 169.647 98.04 169.647H98.712C98.776 169.647 98.824 169.658 98.856 169.679C98.8987 169.701 98.952 169.749 99.016 169.823C99.2613 170.122 99.5333 170.357 99.832 170.527C100.141 170.698 100.552 170.783 101.064 170.783C101.64 170.783 102.099 170.677 102.44 170.463C102.792 170.25 102.968 169.941 102.968 169.535C102.968 169.269 102.893 169.055 102.744 168.895C102.595 168.735 102.344 168.591 101.992 168.463C101.651 168.335 101.139 168.197 100.456 168.047C99.528 167.845 98.872 167.551 98.488 167.167C98.104 166.783 97.912 166.287 97.912 165.679C97.912 165.285 98.0293 164.906 98.264 164.543C98.4987 164.17 98.8453 163.871 99.304 163.647C99.7733 163.413 100.328 163.295 100.968 163.295C101.64 163.295 102.211 163.407 102.68 163.631C103.16 163.855 103.517 164.117 103.752 164.415C103.997 164.714 104.12 164.965 104.12 165.167C104.12 165.263 104.083 165.343 104.008 165.407C103.944 165.471 103.864 165.503 103.768 165.503H103.16C103.011 165.503 102.904 165.445 102.84 165.327C102.659 165.125 102.504 164.97 102.376 164.863C102.259 164.746 102.083 164.65 101.848 164.575C101.613 164.49 101.32 164.447 100.968 164.447C100.445 164.447 100.045 164.559 99.768 164.783C99.4907 164.997 99.352 165.285 99.352 165.647C99.352 165.871 99.4107 166.063 99.528 166.223C99.6453 166.373 99.8693 166.517 100.2 166.655C100.531 166.783 101.021 166.917 101.672 167.055C102.685 167.269 103.4 167.573 103.816 167.967C104.243 168.362 104.456 168.869 104.456 169.487C104.456 169.946 104.323 170.362 104.056 170.735C103.8 171.109 103.411 171.402 102.888 171.615C102.376 171.829 101.763 171.935 101.048 171.935ZM113.111 171.935C112.375 171.935 111.751 171.818 111.239 171.583C110.737 171.338 110.364 171.061 110.118 170.751C109.873 170.442 109.751 170.186 109.751 169.983C109.751 169.877 109.788 169.797 109.863 169.743C109.937 169.679 110.017 169.647 110.103 169.647H110.775C110.839 169.647 110.887 169.658 110.919 169.679C110.961 169.701 111.015 169.749 111.079 169.823C111.324 170.122 111.596 170.357 111.895 170.527C112.204 170.698 112.615 170.783 113.127 170.783C113.703 170.783 114.161 170.677 114.503 170.463C114.855 170.25 115.031 169.941 115.031 169.535C115.031 169.269 114.956 169.055 114.807 168.895C114.657 168.735 114.407 168.591 114.055 168.463C113.713 168.335 113.201 168.197 112.519 168.047C111.591 167.845 110.935 167.551 110.551 167.167C110.167 166.783 109.975 166.287 109.975 165.679C109.975 165.285 110.092 164.906 110.327 164.543C110.561 164.17 110.908 163.871 111.367 163.647C111.836 163.413 112.391 163.295 113.031 163.295C113.703 163.295 114.273 163.407 114.743 163.631C115.223 163.855 115.58 164.117 115.815 164.415C116.06 164.714 116.183 164.965 116.183 165.167C116.183 165.263 116.145 165.343 116.071 165.407C116.007 165.471 115.927 165.503 115.831 165.503H115.223C115.073 165.503 114.967 165.445 114.903 165.327C114.721 165.125 114.567 164.97 114.439 164.863C114.321 164.746 114.145 164.65 113.911 164.575C113.676 164.49 113.383 164.447 113.031 164.447C112.508 164.447 112.108 164.559 111.831 164.783C111.553 164.997 111.414 165.285 111.414 165.647C111.414 165.871 111.473 166.063 111.591 166.223C111.708 166.373 111.932 166.517 112.263 166.655C112.593 166.783 113.084 166.917 113.735 167.055C114.748 167.269 115.463 167.573 115.879 167.967C116.305 168.362 116.519 168.869 116.519 169.487C116.519 169.946 116.385 170.362 116.119 170.735C115.863 171.109 115.473 171.402 114.951 171.615C114.439 171.829 113.825 171.935 113.111 171.935ZM121.492 171.935C120.478 171.935 119.694 171.61 119.14 170.959C118.585 170.298 118.308 169.423 118.308 168.335V163.823C118.308 163.717 118.34 163.631 118.404 163.567C118.478 163.493 118.569 163.455 118.676 163.455H119.412C119.518 163.455 119.604 163.493 119.668 163.567C119.742 163.631 119.78 163.717 119.78 163.823V168.255C119.78 169.877 120.484 170.687 121.891 170.687C122.574 170.687 123.113 170.474 123.508 170.047C123.913 169.61 124.116 169.013 124.116 168.255V163.823C124.116 163.717 124.148 163.631 124.212 163.567C124.286 163.493 124.377 163.455 124.484 163.455H125.22C125.326 163.455 125.412 163.493 125.476 163.567C125.55 163.631 125.588 163.717 125.588 163.823V171.407C125.588 171.514 125.55 171.605 125.476 171.679C125.412 171.743 125.326 171.775 125.22 171.775H124.532C124.425 171.775 124.334 171.743 124.26 171.679C124.196 171.605 124.164 171.514 124.164 171.407V170.687C123.854 171.103 123.492 171.418 123.076 171.631C122.66 171.834 122.132 171.935 121.492 171.935ZM132.045 171.935C130.893 171.935 130.013 171.53 129.405 170.719V171.407C129.405 171.514 129.368 171.605 129.293 171.679C129.229 171.743 129.144 171.775 129.037 171.775H128.365C128.259 171.775 128.168 171.743 128.093 171.679C128.029 171.605 127.997 171.514 127.997 171.407V160.783C127.997 160.666 128.029 160.575 128.093 160.511C128.168 160.447 128.259 160.415 128.365 160.415H129.085C129.192 160.415 129.277 160.453 129.341 160.527C129.416 160.591 129.453 160.677 129.453 160.783V164.479C130.051 163.69 130.915 163.295 132.045 163.295C133.165 163.295 134.003 163.663 134.557 164.399C135.123 165.125 135.421 166.037 135.453 167.135C135.464 167.253 135.469 167.413 135.469 167.615C135.469 167.818 135.464 167.978 135.453 168.095C135.421 169.194 135.123 170.111 134.557 170.847C134.003 171.573 133.165 171.935 132.045 171.935ZM131.741 170.687C132.509 170.687 133.069 170.447 133.421 169.967C133.773 169.487 133.965 168.858 133.997 168.079C134.008 167.973 134.013 167.818 134.013 167.615C134.013 165.567 133.256 164.543 131.741 164.543C131.016 164.543 130.456 164.783 130.061 165.263C129.677 165.733 129.475 166.293 129.453 166.943C129.443 167.061 129.437 167.269 129.437 167.567C129.437 167.855 129.443 168.058 129.453 168.175C129.475 168.858 129.672 169.45 130.045 169.951C130.429 170.442 130.995 170.687 131.741 170.687ZM140.329 171.935C139.593 171.935 138.969 171.818 138.457 171.583C137.956 171.338 137.583 171.061 137.337 170.751C137.092 170.442 136.969 170.186 136.969 169.983C136.969 169.877 137.007 169.797 137.081 169.743C137.156 169.679 137.236 169.647 137.321 169.647H137.993C138.057 169.647 138.105 169.658 138.137 169.679C138.18 169.701 138.233 169.749 138.297 169.823C138.543 170.122 138.815 170.357 139.113 170.527C139.423 170.698 139.833 170.783 140.345 170.783C140.921 170.783 141.38 170.677 141.721 170.463C142.073 170.25 142.249 169.941 142.249 169.535C142.249 169.269 142.175 169.055 142.025 168.895C141.876 168.735 141.625 168.591 141.273 168.463C140.932 168.335 140.42 168.197 139.737 168.047C138.809 167.845 138.153 167.551 137.769 167.167C137.385 166.783 137.193 166.287 137.193 165.679C137.193 165.285 137.311 164.906 137.545 164.543C137.78 164.17 138.127 163.871 138.585 163.647C139.055 163.413 139.609 163.295 140.249 163.295C140.921 163.295 141.492 163.407 141.961 163.631C142.441 163.855 142.799 164.117 143.033 164.415C143.279 164.714 143.401 164.965 143.401 165.167C143.401 165.263 143.364 165.343 143.289 165.407C143.225 165.471 143.145 165.503 143.049 165.503H142.441C142.292 165.503 142.185 165.445 142.121 165.327C141.94 165.125 141.785 164.97 141.657 164.863C141.54 164.746 141.364 164.65 141.129 164.575C140.895 164.49 140.601 164.447 140.249 164.447C139.727 164.447 139.327 164.559 139.049 164.783C138.772 164.997 138.633 165.285 138.633 165.647C138.633 165.871 138.692 166.063 138.809 166.223C138.927 166.373 139.151 166.517 139.481 166.655C139.812 166.783 140.303 166.917 140.953 167.055C141.967 167.269 142.681 167.573 143.097 167.967C143.524 168.362 143.737 168.869 143.737 169.487C143.737 169.946 143.604 170.362 143.337 170.735C143.081 171.109 142.692 171.402 142.169 171.615C141.657 171.829 141.044 171.935 140.329 171.935ZM148.934 171.935C147.793 171.935 146.902 171.615 146.262 170.975C145.622 170.325 145.286 169.418 145.254 168.255L145.238 167.615L145.254 166.975C145.286 165.813 145.622 164.911 146.262 164.271C146.902 163.621 147.793 163.295 148.934 163.295C149.702 163.295 150.348 163.434 150.87 163.711C151.404 163.978 151.798 164.314 152.054 164.719C152.321 165.125 152.465 165.53 152.486 165.935C152.497 166.031 152.46 166.117 152.374 166.191C152.3 166.266 152.214 166.303 152.118 166.303H151.414C151.308 166.303 151.228 166.282 151.174 166.239C151.121 166.186 151.068 166.095 151.014 165.967C150.822 165.445 150.556 165.077 150.214 164.863C149.884 164.639 149.462 164.527 148.95 164.527C148.278 164.527 147.745 164.735 147.35 165.151C146.956 165.567 146.742 166.202 146.71 167.055L146.694 167.615L146.71 168.175C146.742 169.029 146.956 169.663 147.35 170.079C147.745 170.495 148.278 170.703 148.95 170.703C149.473 170.703 149.9 170.597 150.23 170.383C150.561 170.159 150.822 169.786 151.014 169.263C151.068 169.135 151.121 169.05 151.174 169.007C151.228 168.954 151.308 168.927 151.414 168.927H152.118C152.214 168.927 152.3 168.965 152.374 169.039C152.46 169.114 152.497 169.199 152.486 169.295C152.465 169.69 152.321 170.09 152.054 170.495C151.798 170.901 151.404 171.242 150.87 171.519C150.348 171.797 149.702 171.935 148.934 171.935ZM154.771 171.775C154.664 171.775 154.574 171.743 154.499 171.679C154.435 171.605 154.403 171.514 154.403 171.407V163.839C154.403 163.733 154.435 163.642 154.499 163.567C154.574 163.493 154.664 163.455 154.771 163.455H155.443C155.56 163.455 155.651 163.493 155.715 163.567C155.79 163.631 155.827 163.722 155.827 163.839V164.543C156.264 163.818 157.006 163.455 158.051 163.455H158.675C158.792 163.455 158.883 163.487 158.947 163.551C159.011 163.615 159.043 163.706 159.043 163.823V164.415C159.043 164.522 159.011 164.613 158.947 164.687C158.883 164.751 158.792 164.783 158.675 164.783H157.763C157.176 164.783 156.712 164.954 156.371 165.295C156.04 165.637 155.875 166.101 155.875 166.687V171.407C155.875 171.514 155.838 171.605 155.763 171.679C155.688 171.743 155.598 171.775 155.491 171.775H154.771ZM160.659 161.887C160.552 161.887 160.461 161.855 160.387 161.791C160.323 161.717 160.291 161.626 160.291 161.519V160.687C160.291 160.581 160.323 160.49 160.387 160.415C160.461 160.341 160.552 160.303 160.659 160.303H161.603C161.709 160.303 161.8 160.341 161.875 160.415C161.949 160.49 161.987 160.581 161.987 160.687V161.519C161.987 161.626 161.949 161.717 161.875 161.791C161.8 161.855 161.709 161.887 161.603 161.887H160.659ZM160.787 171.775C160.68 171.775 160.589 171.743 160.515 171.679C160.451 171.605 160.419 171.514 160.419 171.407V163.823C160.419 163.717 160.451 163.631 160.515 163.567C160.589 163.493 160.68 163.455 160.787 163.455H161.491C161.597 163.455 161.683 163.493 161.747 163.567C161.821 163.631 161.859 163.717 161.859 163.823V171.407C161.859 171.514 161.821 171.605 161.747 171.679C161.683 171.743 161.597 171.775 161.491 171.775H160.787ZM168.327 171.935C167.175 171.935 166.295 171.53 165.687 170.719V171.407C165.687 171.514 165.649 171.605 165.575 171.679C165.511 171.743 165.425 171.775 165.319 171.775H164.647C164.54 171.775 164.449 171.743 164.375 171.679C164.311 171.605 164.279 171.514 164.279 171.407V160.783C164.279 160.666 164.311 160.575 164.375 160.511C164.449 160.447 164.54 160.415 164.647 160.415H165.367C165.473 160.415 165.559 160.453 165.623 160.527C165.697 160.591 165.735 160.677 165.735 160.783V164.479C166.332 163.69 167.196 163.295 168.327 163.295C169.447 163.295 170.284 163.663 170.839 164.399C171.404 165.125 171.703 166.037 171.735 167.135C171.745 167.253 171.751 167.413 171.751 167.615C171.751 167.818 171.745 167.978 171.735 168.095C171.703 169.194 171.404 170.111 170.839 170.847C170.284 171.573 169.447 171.935 168.327 171.935ZM168.023 170.687C168.791 170.687 169.351 170.447 169.703 169.967C170.055 169.487 170.247 168.858 170.279 168.079C170.289 167.973 170.295 167.818 170.295 167.615C170.295 165.567 169.537 164.543 168.023 164.543C167.297 164.543 166.737 164.783 166.343 165.263C165.959 165.733 165.756 166.293 165.735 166.943C165.724 167.061 165.719 167.269 165.719 167.567C165.719 167.855 165.724 168.058 165.735 168.175C165.756 168.858 165.953 169.45 166.327 169.951C166.711 170.442 167.276 170.687 168.023 170.687ZM177.059 171.935C175.971 171.935 175.101 171.599 174.451 170.927C173.8 170.245 173.443 169.317 173.379 168.143L173.363 167.599L173.379 167.071C173.443 165.919 173.8 165.002 174.451 164.319C175.101 163.637 175.971 163.295 177.059 163.295C178.232 163.295 179.139 163.669 179.779 164.415C180.429 165.162 180.755 166.175 180.755 167.455V167.743C180.755 167.85 180.717 167.941 180.642 168.015C180.579 168.079 180.493 168.111 180.387 168.111H174.835V168.255C174.867 168.949 175.08 169.541 175.475 170.031C175.869 170.522 176.392 170.767 177.043 170.767C177.544 170.767 177.949 170.671 178.259 170.479C178.579 170.277 178.819 170.069 178.979 169.855C179.075 169.727 179.149 169.653 179.203 169.631C179.256 169.599 179.347 169.583 179.475 169.583H180.179C180.275 169.583 180.355 169.61 180.419 169.663C180.493 169.717 180.531 169.786 180.531 169.871C180.531 170.106 180.387 170.389 180.099 170.719C179.811 171.05 179.4 171.338 178.867 171.583C178.344 171.818 177.741 171.935 177.059 171.935ZM179.299 167.023V166.975C179.299 166.229 179.096 165.621 178.691 165.151C178.285 164.682 177.741 164.447 177.059 164.447C176.365 164.447 175.821 164.682 175.427 165.151C175.032 165.621 174.835 166.229 174.835 166.975V167.023H179.299ZM188.471 171.775C188.321 171.775 188.209 171.743 188.135 171.679C188.06 171.615 188.001 171.514 187.959 171.375L185.687 163.951L185.655 163.791C185.655 163.695 185.687 163.615 185.751 163.551C185.815 163.487 185.895 163.455 185.991 163.455H186.647C186.753 163.455 186.839 163.487 186.903 163.551C186.977 163.605 187.02 163.658 187.031 163.711L188.839 169.823L190.759 163.791C190.78 163.706 190.828 163.631 190.903 163.567C190.977 163.493 191.079 163.455 191.207 163.455H191.719C191.847 163.455 191.948 163.493 192.023 163.567C192.097 163.631 192.145 163.706 192.167 163.791L194.087 169.823L195.895 163.711C195.905 163.658 195.943 163.605 196.007 163.551C196.081 163.487 196.172 163.455 196.279 163.455H196.935C197.031 163.455 197.111 163.487 197.175 163.551C197.239 163.615 197.271 163.695 197.271 163.791L197.239 163.951L194.967 171.375C194.924 171.514 194.865 171.615 194.791 171.679C194.716 171.743 194.604 171.775 194.455 171.775H193.878C193.601 171.775 193.42 171.642 193.335 171.375L191.463 165.583L189.591 171.375C189.505 171.642 189.324 171.775 189.047 171.775H188.471ZM199.299 161.887C199.193 161.887 199.102 161.855 199.027 161.791C198.963 161.717 198.931 161.626 198.931 161.519V160.687C198.931 160.581 198.963 160.49 199.027 160.415C199.102 160.341 199.193 160.303 199.299 160.303H200.243C200.35 160.303 200.441 160.341 200.515 160.415C200.59 160.49 200.627 160.581 200.627 160.687V161.519C200.627 161.626 200.59 161.717 200.515 161.791C200.441 161.855 200.35 161.887 200.243 161.887H199.299ZM199.427 171.775C199.321 171.775 199.23 171.743 199.155 171.679C199.091 171.605 199.059 171.514 199.059 171.407V163.823C199.059 163.717 199.091 163.631 199.155 163.567C199.23 163.493 199.321 163.455 199.427 163.455H200.131C200.238 163.455 200.323 163.493 200.387 163.567C200.462 163.631 200.499 163.717 200.499 163.823V171.407C200.499 171.514 200.462 171.605 200.387 171.679C200.323 171.743 200.238 171.775 200.131 171.775H199.427ZM206.103 171.775C204.45 171.775 203.623 170.842 203.623 168.975V164.687H202.359C202.252 164.687 202.167 164.655 202.103 164.591C202.039 164.527 202.007 164.442 202.007 164.335V163.823C202.007 163.717 202.039 163.631 202.103 163.567C202.167 163.493 202.252 163.455 202.359 163.455H203.623V160.783C203.623 160.677 203.655 160.591 203.719 160.527C203.783 160.453 203.868 160.415 203.975 160.415H204.679C204.786 160.415 204.871 160.453 204.935 160.527C205.01 160.591 205.047 160.677 205.047 160.783V163.455H207.031C207.138 163.455 207.223 163.493 207.287 163.567C207.362 163.631 207.399 163.717 207.399 163.823V164.335C207.399 164.442 207.362 164.527 207.287 164.591C207.223 164.655 207.138 164.687 207.031 164.687H205.047V168.863C205.047 169.407 205.132 169.818 205.303 170.095C205.484 170.373 205.788 170.511 206.215 170.511H207.191C207.298 170.511 207.383 170.549 207.447 170.623C207.511 170.687 207.543 170.773 207.543 170.879V171.407C207.543 171.514 207.511 171.605 207.447 171.679C207.383 171.743 207.298 171.775 207.191 171.775H206.103ZM209.49 171.775C209.384 171.775 209.293 171.743 209.218 171.679C209.154 171.605 209.122 171.514 209.122 171.407V160.783C209.122 160.666 209.154 160.575 209.218 160.511C209.293 160.447 209.384 160.415 209.49 160.415H210.226C210.344 160.415 210.434 160.447 210.498 160.511C210.562 160.575 210.594 160.666 210.594 160.783V164.511C210.904 164.117 211.266 163.818 211.682 163.615C212.109 163.402 212.632 163.295 213.25 163.295C214.274 163.295 215.069 163.626 215.634 164.287C216.21 164.938 216.498 165.802 216.498 166.879V171.407C216.498 171.514 216.461 171.605 216.386 171.679C216.322 171.743 216.237 171.775 216.13 171.775H215.378C215.272 171.775 215.181 171.743 215.106 171.679C215.042 171.605 215.01 171.514 215.01 171.407V166.975C215.01 166.207 214.824 165.61 214.45 165.183C214.077 164.757 213.538 164.543 212.834 164.543C212.152 164.543 211.608 164.762 211.202 165.199C210.797 165.626 210.594 166.218 210.594 166.975V171.407C210.594 171.514 210.557 171.605 210.482 171.679C210.418 171.743 210.333 171.775 210.226 171.775H209.49ZM225.867 171.935C224.853 171.935 224.069 171.61 223.515 170.959C222.96 170.298 222.683 169.423 222.683 168.335V163.823C222.683 163.717 222.715 163.631 222.779 163.567C222.853 163.493 222.944 163.455 223.051 163.455H223.787C223.893 163.455 223.979 163.493 224.043 163.567C224.117 163.631 224.155 163.717 224.155 163.823V168.255C224.155 169.877 224.859 170.687 226.266 170.687C226.949 170.687 227.488 170.474 227.883 170.047C228.288 169.61 228.491 169.013 228.491 168.255V163.823C228.491 163.717 228.523 163.631 228.587 163.567C228.661 163.493 228.752 163.455 228.859 163.455H229.595C229.701 163.455 229.787 163.493 229.851 163.567C229.925 163.631 229.963 163.717 229.963 163.823V171.407C229.963 171.514 229.925 171.605 229.851 171.679C229.787 171.743 229.701 171.775 229.595 171.775H228.907C228.8 171.775 228.709 171.743 228.635 171.679C228.571 171.605 228.539 171.514 228.539 171.407V170.687C228.229 171.103 227.867 171.418 227.451 171.631C227.035 171.834 226.507 171.935 225.867 171.935ZM235.204 171.935C234.468 171.935 233.844 171.818 233.332 171.583C232.831 171.338 232.458 171.061 232.212 170.751C231.967 170.442 231.844 170.186 231.844 169.983C231.844 169.877 231.882 169.797 231.956 169.743C232.031 169.679 232.111 169.647 232.196 169.647H232.868C232.932 169.647 232.98 169.658 233.012 169.679C233.055 169.701 233.108 169.749 233.172 169.823C233.418 170.122 233.69 170.357 233.988 170.527C234.298 170.698 234.708 170.783 235.22 170.783C235.796 170.783 236.255 170.677 236.596 170.463C236.948 170.25 237.124 169.941 237.124 169.535C237.124 169.269 237.05 169.055 236.9 168.895C236.751 168.735 236.5 168.591 236.148 168.463C235.807 168.335 235.295 168.197 234.612 168.047C233.684 167.845 233.028 167.551 232.644 167.167C232.26 166.783 232.068 166.287 232.068 165.679C232.068 165.285 232.186 164.906 232.42 164.543C232.655 164.17 233.002 163.871 233.46 163.647C233.93 163.413 234.484 163.295 235.124 163.295C235.796 163.295 236.367 163.407 236.836 163.631C237.316 163.855 237.674 164.117 237.908 164.415C238.154 164.714 238.276 164.965 238.276 165.167C238.276 165.263 238.239 165.343 238.164 165.407C238.1 165.471 238.02 165.503 237.924 165.503H237.316C237.167 165.503 237.06 165.445 236.996 165.327C236.815 165.125 236.66 164.97 236.532 164.863C236.415 164.746 236.239 164.65 236.004 164.575C235.77 164.49 235.476 164.447 235.124 164.447C234.602 164.447 234.202 164.559 233.924 164.783C233.647 164.997 233.508 165.285 233.508 165.647C233.508 165.871 233.567 166.063 233.684 166.223C233.802 166.373 234.026 166.517 234.356 166.655C234.687 166.783 235.178 166.917 235.828 167.055C236.842 167.269 237.556 167.573 237.972 167.967C238.399 168.362 238.612 168.869 238.612 169.487C238.612 169.946 238.479 170.362 238.212 170.735C237.956 171.109 237.567 171.402 237.044 171.615C236.532 171.829 235.919 171.935 235.204 171.935ZM246.723 171.935C246.2 171.935 245.715 171.829 245.267 171.615C244.829 171.402 244.477 171.114 244.211 170.751C243.955 170.378 243.827 169.967 243.827 169.519C243.827 168.815 244.115 168.239 244.691 167.791C245.267 167.343 246.051 167.045 247.043 166.895L249.443 166.559V166.095C249.443 164.997 248.808 164.447 247.539 164.447C247.048 164.447 246.653 164.549 246.355 164.751C246.056 164.943 245.837 165.173 245.699 165.439C245.656 165.546 245.608 165.621 245.555 165.663C245.512 165.695 245.448 165.711 245.363 165.711H244.739C244.643 165.711 244.557 165.679 244.483 165.615C244.419 165.541 244.387 165.455 244.387 165.359C244.387 165.114 244.499 164.831 244.723 164.511C244.957 164.181 245.315 163.898 245.795 163.663C246.275 163.418 246.861 163.295 247.555 163.295C248.749 163.295 249.603 163.573 250.115 164.127C250.637 164.682 250.899 165.375 250.899 166.207V171.407C250.899 171.514 250.861 171.605 250.787 171.679C250.723 171.743 250.637 171.775 250.531 171.775H249.827C249.72 171.775 249.635 171.743 249.571 171.679C249.507 171.605 249.475 171.514 249.475 171.407V170.703C249.24 171.055 248.899 171.349 248.451 171.583C248.003 171.818 247.427 171.935 246.723 171.935ZM247.043 170.767C247.747 170.767 248.323 170.538 248.771 170.079C249.219 169.621 249.443 168.954 249.443 168.079V167.631L247.571 167.903C246.803 168.01 246.221 168.191 245.827 168.447C245.432 168.703 245.235 169.023 245.235 169.407C245.235 169.845 245.411 170.181 245.763 170.415C246.125 170.65 246.552 170.767 247.043 170.767ZM253.584 171.775C253.477 171.775 253.386 171.743 253.312 171.679C253.248 171.605 253.216 171.514 253.216 171.407V163.823C253.216 163.717 253.248 163.631 253.312 163.567C253.386 163.493 253.477 163.455 253.584 163.455H254.272C254.389 163.455 254.48 163.487 254.544 163.551C254.608 163.615 254.64 163.706 254.64 163.823V164.527C254.96 164.133 255.328 163.829 255.744 163.615C256.17 163.402 256.698 163.295 257.328 163.295C258.352 163.295 259.146 163.626 259.712 164.287C260.277 164.938 260.56 165.802 260.56 166.879V171.407C260.56 171.514 260.522 171.605 260.448 171.679C260.384 171.743 260.298 171.775 260.192 171.775H259.456C259.349 171.775 259.258 171.743 259.184 171.679C259.12 171.605 259.088 171.514 259.088 171.407V166.975C259.088 166.207 258.901 165.61 258.528 165.183C258.154 164.757 257.621 164.543 256.928 164.543C256.245 164.543 255.701 164.762 255.296 165.199C254.89 165.626 254.688 166.218 254.688 166.975V171.407C254.688 171.514 254.65 171.605 254.576 171.679C254.512 171.743 254.426 171.775 254.32 171.775H253.584ZM265.912 171.935C264.792 171.935 263.949 171.573 263.384 170.847C262.829 170.122 262.531 169.205 262.488 168.095L262.472 167.615L262.488 167.135C262.531 166.037 262.835 165.125 263.4 164.399C263.965 163.663 264.803 163.295 265.912 163.295C267.021 163.295 267.885 163.69 268.504 164.479V160.783C268.504 160.677 268.536 160.591 268.6 160.527C268.675 160.453 268.765 160.415 268.872 160.415H269.592C269.699 160.415 269.784 160.453 269.848 160.527C269.923 160.591 269.96 160.677 269.96 160.783V171.407C269.96 171.514 269.923 171.605 269.848 171.679C269.784 171.743 269.699 171.775 269.592 171.775H268.904C268.797 171.775 268.712 171.743 268.648 171.679C268.584 171.605 268.552 171.514 268.552 171.407V170.719C267.944 171.53 267.064 171.935 265.912 171.935ZM266.216 170.687C266.963 170.687 267.523 170.442 267.896 169.951C268.269 169.45 268.472 168.858 268.504 168.175C268.515 168.058 268.52 167.855 268.52 167.567C268.52 167.269 268.515 167.061 268.504 166.943C268.483 166.293 268.275 165.733 267.88 165.263C267.496 164.783 266.941 164.543 266.216 164.543C265.448 164.543 264.888 164.783 264.536 165.263C264.184 165.743 263.992 166.373 263.96 167.151L263.944 167.615C263.944 169.663 264.701 170.687 266.216 170.687ZM277.213 171.775C277.106 171.775 277.015 171.743 276.941 171.679C276.877 171.605 276.845 171.514 276.845 171.407V164.687H275.469C275.362 164.687 275.271 164.655 275.197 164.591C275.133 164.527 275.101 164.442 275.101 164.335V163.823C275.101 163.717 275.133 163.631 275.197 163.567C275.271 163.493 275.362 163.455 275.469 163.455H276.845V162.655C276.845 161.791 277.053 161.125 277.469 160.655C277.895 160.175 278.589 159.935 279.549 159.935H281.949C282.055 159.935 282.141 159.973 282.205 160.047C282.269 160.111 282.301 160.197 282.301 160.303V160.815C282.301 160.922 282.269 161.007 282.205 161.071C282.141 161.135 282.055 161.167 281.949 161.167H279.581C279.09 161.167 278.749 161.295 278.557 161.551C278.365 161.807 278.269 162.202 278.269 162.735V163.455H281.949C282.055 163.455 282.141 163.493 282.205 163.567C282.269 163.631 282.301 163.717 282.301 163.823V171.407C282.301 171.514 282.269 171.605 282.205 171.679C282.141 171.743 282.055 171.775 281.949 171.775H281.245C281.138 171.775 281.047 171.743 280.973 171.679C280.909 171.605 280.877 171.514 280.877 171.407V164.687H278.269V171.407C278.269 171.514 278.231 171.605 278.157 171.679C278.093 171.743 278.007 171.775 277.901 171.775H277.213ZM285.068 171.775C284.961 171.775 284.871 171.743 284.796 171.679C284.732 171.605 284.7 171.514 284.7 171.407V163.823C284.7 163.717 284.732 163.631 284.796 163.567C284.871 163.493 284.961 163.455 285.068 163.455H285.756C285.873 163.455 285.964 163.487 286.028 163.551C286.092 163.615 286.124 163.706 286.124 163.823V164.527C286.444 164.133 286.812 163.829 287.228 163.615C287.655 163.402 288.183 163.295 288.812 163.295C289.836 163.295 290.631 163.626 291.196 164.287C291.761 164.938 292.044 165.802 292.044 166.879V171.407C292.044 171.514 292.007 171.605 291.932 171.679C291.868 171.743 291.783 171.775 291.676 171.775H290.94C290.833 171.775 290.743 171.743 290.668 171.679C290.604 171.605 290.572 171.514 290.572 171.407V166.975C290.572 166.207 290.385 165.61 290.012 165.183C289.639 164.757 289.105 164.543 288.412 164.543C287.729 164.543 287.185 164.762 286.78 165.199C286.375 165.626 286.172 166.218 286.172 166.975V171.407C286.172 171.514 286.135 171.605 286.06 171.679C285.996 171.743 285.911 171.775 285.804 171.775H285.068ZM297.396 171.935C296.276 171.935 295.434 171.573 294.868 170.847C294.314 170.122 294.015 169.205 293.972 168.095L293.956 167.615L293.972 167.135C294.015 166.037 294.319 165.125 294.884 164.399C295.45 163.663 296.287 163.295 297.396 163.295C298.506 163.295 299.37 163.69 299.988 164.479V160.783C299.988 160.677 300.02 160.591 300.084 160.527C300.159 160.453 300.25 160.415 300.356 160.415H301.076C301.183 160.415 301.268 160.453 301.332 160.527C301.407 160.591 301.444 160.677 301.444 160.783V171.407C301.444 171.514 301.407 171.605 301.332 171.679C301.268 171.743 301.183 171.775 301.076 171.775H300.388C300.282 171.775 300.196 171.743 300.132 171.679C300.068 171.605 300.036 171.514 300.036 171.407V170.719C299.428 171.53 298.548 171.935 297.396 171.935ZM297.7 170.687C298.447 170.687 299.007 170.442 299.38 169.951C299.754 169.45 299.956 168.858 299.988 168.175C299.999 168.058 300.004 167.855 300.004 167.567C300.004 167.269 299.999 167.061 299.988 166.943C299.967 166.293 299.759 165.733 299.364 165.263C298.98 164.783 298.426 164.543 297.7 164.543C296.932 164.543 296.372 164.783 296.02 165.263C295.668 165.743 295.476 166.373 295.444 167.151L295.428 167.615C295.428 169.663 296.186 170.687 297.7 170.687ZM310.65 171.775C308.997 171.775 308.17 170.842 308.17 168.975V164.687H306.906C306.799 164.687 306.714 164.655 306.65 164.591C306.586 164.527 306.554 164.442 306.554 164.335V163.823C306.554 163.717 306.586 163.631 306.65 163.567C306.714 163.493 306.799 163.455 306.906 163.455H308.17V160.783C308.17 160.677 308.202 160.591 308.266 160.527C308.33 160.453 308.415 160.415 308.522 160.415H309.226C309.333 160.415 309.418 160.453 309.482 160.527C309.557 160.591 309.594 160.677 309.594 160.783V163.455H311.578C311.685 163.455 311.77 163.493 311.834 163.567C311.909 163.631 311.946 163.717 311.946 163.823V164.335C311.946 164.442 311.909 164.527 311.834 164.591C311.77 164.655 311.685 164.687 311.578 164.687H309.594V168.863C309.594 169.407 309.679 169.818 309.85 170.095C310.031 170.373 310.335 170.511 310.762 170.511H311.738C311.845 170.511 311.93 170.549 311.994 170.623C312.058 170.687 312.09 170.773 312.09 170.879V171.407C312.09 171.514 312.058 171.605 311.994 171.679C311.93 171.743 311.845 171.775 311.738 171.775H310.65ZM314.037 171.775C313.93 171.775 313.84 171.743 313.765 171.679C313.701 171.605 313.669 171.514 313.669 171.407V160.783C313.669 160.666 313.701 160.575 313.765 160.511C313.84 160.447 313.93 160.415 314.037 160.415H314.773C314.89 160.415 314.981 160.447 315.045 160.511C315.109 160.575 315.141 160.666 315.141 160.783V164.511C315.45 164.117 315.813 163.818 316.229 163.615C316.656 163.402 317.178 163.295 317.797 163.295C318.821 163.295 319.616 163.626 320.181 164.287C320.757 164.938 321.045 165.802 321.045 166.879V171.407C321.045 171.514 321.008 171.605 320.933 171.679C320.869 171.743 320.784 171.775 320.677 171.775H319.925C319.818 171.775 319.728 171.743 319.653 171.679C319.589 171.605 319.557 171.514 319.557 171.407V166.975C319.557 166.207 319.37 165.61 318.997 165.183C318.624 164.757 318.085 164.543 317.381 164.543C316.698 164.543 316.154 164.762 315.749 165.199C315.344 165.626 315.141 166.218 315.141 166.975V171.407C315.141 171.514 315.104 171.605 315.029 171.679C314.965 171.743 314.88 171.775 314.773 171.775H314.037ZM326.668 171.935C325.58 171.935 324.711 171.599 324.06 170.927C323.409 170.245 323.052 169.317 322.988 168.143L322.972 167.599L322.988 167.071C323.052 165.919 323.409 165.002 324.06 164.319C324.711 163.637 325.58 163.295 326.668 163.295C327.841 163.295 328.748 163.669 329.388 164.415C330.039 165.162 330.364 166.175 330.364 167.455V167.743C330.364 167.85 330.327 167.941 330.252 168.015C330.188 168.079 330.103 168.111 329.996 168.111H324.444V168.255C324.476 168.949 324.689 169.541 325.084 170.031C325.479 170.522 326.001 170.767 326.652 170.767C327.153 170.767 327.559 170.671 327.868 170.479C328.188 170.277 328.428 170.069 328.588 169.855C328.684 169.727 328.759 169.653 328.812 169.631C328.865 169.599 328.956 169.583 329.084 169.583H329.788C329.884 169.583 329.964 169.61 330.028 169.663C330.103 169.717 330.14 169.786 330.14 169.871C330.14 170.106 329.996 170.389 329.708 170.719C329.42 171.05 329.009 171.338 328.476 171.583C327.953 171.818 327.351 171.935 326.668 171.935ZM328.908 167.023V166.975C328.908 166.229 328.705 165.621 328.3 165.151C327.895 164.682 327.351 164.447 326.668 164.447C325.975 164.447 325.431 164.682 325.036 165.151C324.641 165.621 324.444 166.229 324.444 166.975V167.023H328.908ZM337.15 171.775C337.043 171.775 336.953 171.743 336.878 171.679C336.814 171.605 336.782 171.514 336.782 171.407V164.687H335.406C335.299 164.687 335.209 164.655 335.134 164.591C335.07 164.527 335.038 164.442 335.038 164.335V163.823C335.038 163.717 335.07 163.631 335.134 163.567C335.209 163.493 335.299 163.455 335.406 163.455H336.782V162.655C336.782 161.791 336.99 161.125 337.406 160.655C337.833 160.175 338.526 159.935 339.486 159.935H340.43C340.537 159.935 340.622 159.973 340.686 160.047C340.761 160.111 340.798 160.197 340.798 160.303V160.815C340.798 160.922 340.761 161.007 340.686 161.071C340.622 161.135 340.537 161.167 340.43 161.167H339.518C339.027 161.167 338.686 161.295 338.494 161.551C338.302 161.807 338.206 162.202 338.206 162.735V163.455H340.27C340.377 163.455 340.462 163.493 340.526 163.567C340.601 163.631 340.638 163.717 340.638 163.823V164.335C340.638 164.442 340.601 164.527 340.526 164.591C340.462 164.655 340.377 164.687 340.27 164.687H338.206V171.407C338.206 171.514 338.169 171.605 338.094 171.679C338.03 171.743 337.945 171.775 337.838 171.775H337.15ZM345.163 171.935C344.15 171.935 343.366 171.61 342.811 170.959C342.257 170.298 341.979 169.423 341.979 168.335V163.823C341.979 163.717 342.011 163.631 342.075 163.567C342.15 163.493 342.241 163.455 342.347 163.455H343.083C343.19 163.455 343.275 163.493 343.339 163.567C343.414 163.631 343.451 163.717 343.451 163.823V168.255C343.451 169.877 344.155 170.687 345.563 170.687C346.246 170.687 346.785 170.474 347.179 170.047C347.585 169.61 347.787 169.013 347.787 168.255V163.823C347.787 163.717 347.819 163.631 347.883 163.567C347.958 163.493 348.049 163.455 348.155 163.455H348.891C348.998 163.455 349.083 163.493 349.147 163.567C349.222 163.631 349.259 163.717 349.259 163.823V171.407C349.259 171.514 349.222 171.605 349.147 171.679C349.083 171.743 348.998 171.775 348.891 171.775H348.203C348.097 171.775 348.006 171.743 347.931 171.679C347.867 171.605 347.835 171.514 347.835 171.407V170.687C347.526 171.103 347.163 171.418 346.747 171.631C346.331 171.834 345.803 171.935 345.163 171.935ZM352.021 171.775C351.914 171.775 351.824 171.743 351.749 171.679C351.685 171.605 351.653 171.514 351.653 171.407V163.823C351.653 163.717 351.685 163.631 351.749 163.567C351.824 163.493 351.914 163.455 352.021 163.455H352.709C352.826 163.455 352.917 163.487 352.981 163.551C353.045 163.615 353.077 163.706 353.077 163.823V164.527C353.397 164.133 353.765 163.829 354.181 163.615C354.608 163.402 355.136 163.295 355.765 163.295C356.789 163.295 357.584 163.626 358.149 164.287C358.714 164.938 358.997 165.802 358.997 166.879V171.407C358.997 171.514 358.96 171.605 358.885 171.679C358.821 171.743 358.736 171.775 358.629 171.775H357.893C357.786 171.775 357.696 171.743 357.621 171.679C357.557 171.605 357.525 171.514 357.525 171.407V166.975C357.525 166.207 357.338 165.61 356.965 165.183C356.592 164.757 356.058 164.543 355.365 164.543C354.682 164.543 354.138 164.762 353.733 165.199C353.328 165.626 353.125 166.218 353.125 166.975V171.407C353.125 171.514 353.088 171.605 353.013 171.679C352.949 171.743 352.864 171.775 352.757 171.775H352.021ZM361.565 171.775C361.459 171.775 361.368 171.743 361.293 171.679C361.229 171.605 361.197 171.514 361.197 171.407V170.303C361.197 170.197 361.229 170.106 361.293 170.031C361.368 169.957 361.459 169.919 361.565 169.919H362.669C362.776 169.919 362.861 169.957 362.925 170.031C363 170.106 363.037 170.197 363.037 170.303V171.407C363.037 171.514 363 171.605 362.925 171.679C362.861 171.743 362.776 171.775 362.669 171.775H361.565Z" fill="#4F5665"/>
<g filter="url(#filter0_f_1_272)">
<rect x="839.086" y="112.066" width="211.829" height="60" rx="10" fill="#F53838" fill-opacity="0.35"/>
</g>
<rect x="820" y="86.7754" width="250" height="60" rx="10" fill="#F53838"/>
<path d="M890.328 122.435C889.293 122.435 888.413 122.286 887.688 121.987C886.963 121.689 886.413 121.294 886.04 120.803C885.667 120.313 885.469 119.779 885.448 119.203C885.448 119.107 885.48 119.027 885.544 118.963C885.619 118.899 885.704 118.867 885.8 118.867H887.928C888.056 118.867 888.157 118.889 888.232 118.931C888.317 118.974 888.408 119.049 888.504 119.155C888.643 119.411 888.856 119.625 889.144 119.795C889.443 119.955 889.837 120.035 890.328 120.035C890.904 120.035 891.347 119.95 891.656 119.779C891.965 119.598 892.12 119.353 892.12 119.043C892.12 118.819 892.04 118.638 891.88 118.499C891.72 118.35 891.464 118.222 891.112 118.115C890.76 117.998 890.253 117.87 889.592 117.731C888.301 117.475 887.336 117.086 886.696 116.563C886.056 116.041 885.736 115.294 885.736 114.323C885.736 113.662 885.917 113.075 886.28 112.563C886.653 112.041 887.176 111.635 887.848 111.347C888.531 111.059 889.32 110.915 890.216 110.915C891.155 110.915 891.965 111.081 892.648 111.411C893.341 111.731 893.869 112.137 894.232 112.627C894.605 113.107 894.803 113.582 894.824 114.051C894.824 114.147 894.792 114.233 894.728 114.307C894.664 114.371 894.584 114.403 894.488 114.403H892.248C892.013 114.403 891.832 114.307 891.704 114.115C891.64 113.891 891.475 113.705 891.208 113.555C890.941 113.395 890.611 113.315 890.216 113.315C889.768 113.315 889.421 113.395 889.176 113.555C888.931 113.715 888.808 113.95 888.808 114.259C888.808 114.569 888.968 114.814 889.288 114.995C889.608 115.166 890.205 115.342 891.08 115.523C892.083 115.705 892.877 115.934 893.464 116.211C894.061 116.478 894.499 116.83 894.776 117.267C895.064 117.694 895.208 118.238 895.208 118.899C895.208 119.625 895 120.254 894.584 120.787C894.168 121.321 893.592 121.731 892.856 122.019C892.12 122.297 891.277 122.435 890.328 122.435ZM899.624 122.435C898.686 122.435 897.928 122.121 897.352 121.491C896.776 120.862 896.488 119.971 896.488 118.819V114.355C896.488 114.238 896.526 114.142 896.6 114.067C896.686 113.993 896.782 113.955 896.888 113.955H899.016C899.134 113.955 899.23 113.993 899.304 114.067C899.39 114.142 899.432 114.238 899.432 114.355V118.723C899.432 119.715 899.875 120.211 900.76 120.211C901.187 120.211 901.518 120.083 901.752 119.827C901.998 119.561 902.12 119.193 902.12 118.723V114.355C902.12 114.238 902.158 114.142 902.232 114.067C902.318 113.993 902.419 113.955 902.536 113.955H904.648C904.766 113.955 904.862 113.993 904.936 114.067C905.011 114.142 905.048 114.238 905.048 114.355V121.875C905.048 121.982 905.011 122.078 904.936 122.163C904.862 122.238 904.766 122.275 904.648 122.275H902.696C902.579 122.275 902.478 122.238 902.392 122.163C902.318 122.089 902.28 121.993 902.28 121.875V121.267C901.726 122.046 900.84 122.435 899.624 122.435ZM912.065 122.435C910.988 122.435 910.161 122.083 909.585 121.379V121.875C909.585 121.982 909.548 122.078 909.473 122.163C909.398 122.238 909.302 122.275 909.185 122.275H907.281C907.164 122.275 907.062 122.238 906.977 122.163C906.902 122.089 906.865 121.993 906.865 121.875V111.315C906.865 111.198 906.902 111.102 906.977 111.027C907.062 110.953 907.164 110.915 907.281 110.915H909.345C909.462 110.915 909.558 110.953 909.633 111.027C909.708 111.102 909.745 111.198 909.745 111.315V114.723C910.332 114.105 911.105 113.795 912.065 113.795C913.089 113.795 913.9 114.131 914.497 114.803C915.094 115.465 915.414 116.377 915.457 117.539C915.468 117.678 915.473 117.87 915.473 118.115C915.473 118.35 915.468 118.537 915.457 118.675C915.414 119.881 915.094 120.809 914.497 121.459C913.91 122.11 913.1 122.435 912.065 122.435ZM911.137 120.211C911.617 120.211 911.958 120.073 912.161 119.795C912.374 119.507 912.497 119.113 912.529 118.611C912.54 118.505 912.545 118.339 912.545 118.115C912.545 117.891 912.54 117.726 912.529 117.619C912.497 117.118 912.374 116.729 912.161 116.451C911.958 116.163 911.617 116.019 911.137 116.019C910.689 116.019 910.348 116.158 910.113 116.435C909.889 116.702 909.766 117.043 909.745 117.459C909.734 117.598 909.729 117.795 909.729 118.051C909.729 118.307 909.734 118.51 909.745 118.659C909.766 119.107 909.889 119.481 910.113 119.779C910.337 120.067 910.678 120.211 911.137 120.211ZM920.494 122.435C919.619 122.435 918.888 122.313 918.302 122.067C917.715 121.822 917.278 121.529 916.99 121.187C916.712 120.846 916.574 120.537 916.574 120.259C916.574 120.153 916.611 120.067 916.686 120.003C916.771 119.929 916.862 119.891 916.958 119.891H918.894C918.958 119.891 919.011 119.913 919.054 119.955C919.235 120.073 919.336 120.142 919.358 120.163C919.56 120.313 919.747 120.43 919.918 120.515C920.099 120.59 920.312 120.627 920.558 120.627C920.846 120.627 921.08 120.574 921.262 120.467C921.454 120.35 921.55 120.19 921.55 119.987C921.55 119.817 921.496 119.678 921.39 119.571C921.294 119.465 921.102 119.363 920.814 119.267C920.536 119.161 920.11 119.054 919.534 118.947C917.688 118.574 916.766 117.721 916.766 116.387C916.766 115.95 916.904 115.534 917.182 115.139C917.47 114.734 917.886 114.409 918.43 114.163C918.984 113.918 919.646 113.795 920.414 113.795C921.192 113.795 921.864 113.918 922.43 114.163C923.006 114.398 923.443 114.686 923.742 115.027C924.04 115.358 924.19 115.662 924.19 115.939C924.19 116.035 924.152 116.121 924.078 116.195C924.014 116.27 923.934 116.307 923.838 116.307H922.078C921.982 116.307 921.907 116.286 921.854 116.243C921.726 116.179 921.598 116.099 921.47 116.003C921.278 115.875 921.107 115.779 920.958 115.715C920.819 115.641 920.638 115.603 920.414 115.603C920.147 115.603 919.939 115.662 919.79 115.779C919.64 115.897 919.566 116.046 919.566 116.227C919.566 116.387 919.608 116.521 919.694 116.627C919.79 116.723 919.976 116.819 920.254 116.915C920.542 117.011 920.974 117.113 921.55 117.219C922.595 117.401 923.352 117.726 923.822 118.195C924.302 118.654 924.542 119.193 924.542 119.811C924.542 120.611 924.184 121.251 923.47 121.731C922.766 122.201 921.774 122.435 920.494 122.435ZM929.784 122.435C928.568 122.435 927.581 122.115 926.824 121.475C926.077 120.825 925.677 119.923 925.624 118.771L925.608 118.131L925.624 117.475C925.667 116.323 926.067 115.422 926.824 114.771C927.581 114.121 928.568 113.795 929.784 113.795C930.712 113.795 931.491 113.961 932.12 114.291C932.749 114.622 933.219 115.017 933.528 115.475C933.837 115.923 934.003 116.334 934.024 116.707C934.035 116.825 933.997 116.926 933.912 117.011C933.827 117.086 933.725 117.123 933.608 117.123H931.464C931.347 117.123 931.256 117.097 931.192 117.043C931.128 116.99 931.069 116.905 931.016 116.787C930.899 116.489 930.744 116.27 930.552 116.131C930.371 115.993 930.136 115.923 929.848 115.923C929.027 115.923 928.6 116.467 928.568 117.555L928.552 118.163L928.568 118.691C928.579 119.246 928.691 119.657 928.904 119.923C929.117 120.179 929.432 120.307 929.848 120.307C930.157 120.307 930.397 120.243 930.568 120.115C930.749 119.977 930.899 119.753 931.016 119.443C931.069 119.326 931.128 119.241 931.192 119.187C931.256 119.134 931.347 119.107 931.464 119.107H933.608C933.715 119.107 933.811 119.145 933.896 119.219C933.981 119.294 934.024 119.385 934.024 119.491C934.024 119.822 933.875 120.222 933.576 120.691C933.288 121.15 932.824 121.555 932.184 121.907C931.544 122.259 930.744 122.435 929.784 122.435ZM935.796 122.275C935.69 122.275 935.594 122.238 935.508 122.163C935.434 122.078 935.396 121.982 935.396 121.875V114.371C935.396 114.254 935.434 114.158 935.508 114.083C935.583 113.998 935.679 113.955 935.796 113.955H937.748C937.866 113.955 937.962 113.998 938.036 114.083C938.122 114.158 938.164 114.254 938.164 114.371V114.979C938.463 114.649 938.81 114.398 939.204 114.227C939.61 114.046 940.058 113.955 940.548 113.955H941.268C941.386 113.955 941.482 113.993 941.556 114.067C941.631 114.142 941.668 114.238 941.668 114.355V116.099C941.668 116.206 941.631 116.302 941.556 116.387C941.482 116.462 941.386 116.499 941.268 116.499H939.652C939.226 116.499 938.895 116.617 938.66 116.851C938.436 117.086 938.324 117.417 938.324 117.843V121.875C938.324 121.993 938.282 122.089 938.196 122.163C938.122 122.238 938.026 122.275 937.908 122.275H935.796ZM943.171 112.803C943.054 112.803 942.958 112.766 942.883 112.691C942.809 112.606 942.771 112.505 942.771 112.387V110.899C942.771 110.782 942.809 110.686 942.883 110.611C942.969 110.526 943.065 110.483 943.171 110.483H945.171C945.289 110.483 945.385 110.526 945.459 110.611C945.545 110.686 945.587 110.782 945.587 110.899V112.387C945.587 112.505 945.545 112.606 945.459 112.691C945.385 112.766 945.289 112.803 945.171 112.803H943.171ZM943.171 122.275C943.065 122.275 942.969 122.238 942.883 122.163C942.809 122.078 942.771 121.982 942.771 121.875V114.355C942.771 114.238 942.809 114.142 942.883 114.067C942.969 113.993 943.065 113.955 943.171 113.955H945.171C945.289 113.955 945.385 113.993 945.459 114.067C945.545 114.142 945.587 114.238 945.587 114.355V121.875C945.587 121.993 945.545 122.089 945.459 122.163C945.385 122.238 945.289 122.275 945.171 122.275H943.171ZM952.612 122.435C951.535 122.435 950.708 122.083 950.132 121.379V121.875C950.132 121.982 950.095 122.078 950.02 122.163C949.945 122.238 949.849 122.275 949.732 122.275H947.828C947.711 122.275 947.609 122.238 947.524 122.163C947.449 122.089 947.412 121.993 947.412 121.875V111.315C947.412 111.198 947.449 111.102 947.524 111.027C947.609 110.953 947.711 110.915 947.828 110.915H949.892C950.009 110.915 950.105 110.953 950.18 111.027C950.255 111.102 950.292 111.198 950.292 111.315V114.723C950.879 114.105 951.652 113.795 952.612 113.795C953.636 113.795 954.447 114.131 955.044 114.803C955.641 115.465 955.961 116.377 956.004 117.539C956.015 117.678 956.02 117.87 956.02 118.115C956.02 118.35 956.015 118.537 956.004 118.675C955.961 119.881 955.641 120.809 955.044 121.459C954.457 122.11 953.647 122.435 952.612 122.435ZM951.684 120.211C952.164 120.211 952.505 120.073 952.708 119.795C952.921 119.507 953.044 119.113 953.076 118.611C953.087 118.505 953.092 118.339 953.092 118.115C953.092 117.891 953.087 117.726 953.076 117.619C953.044 117.118 952.921 116.729 952.708 116.451C952.505 116.163 952.164 116.019 951.684 116.019C951.236 116.019 950.895 116.158 950.66 116.435C950.436 116.702 950.313 117.043 950.292 117.459C950.281 117.598 950.276 117.795 950.276 118.051C950.276 118.307 950.281 118.51 950.292 118.659C950.313 119.107 950.436 119.481 950.66 119.779C950.884 120.067 951.225 120.211 951.684 120.211ZM961.457 122.435C960.155 122.435 959.131 122.089 958.385 121.395C957.638 120.691 957.254 119.673 957.233 118.339V117.843C957.275 116.574 957.67 115.582 958.417 114.867C959.163 114.153 960.171 113.795 961.441 113.795C962.358 113.795 963.131 113.982 963.761 114.355C964.401 114.718 964.875 115.225 965.185 115.875C965.505 116.515 965.665 117.246 965.665 118.067V118.467C965.665 118.585 965.622 118.686 965.537 118.771C965.462 118.846 965.366 118.883 965.249 118.883H960.177V118.979C960.187 119.459 960.299 119.849 960.513 120.147C960.726 120.435 961.03 120.579 961.425 120.579C961.681 120.579 961.883 120.531 962.033 120.435C962.193 120.329 962.342 120.195 962.481 120.035C962.577 119.929 962.651 119.865 962.705 119.843C962.769 119.811 962.865 119.795 962.993 119.795H965.089C965.185 119.795 965.265 119.827 965.329 119.891C965.403 119.945 965.441 120.014 965.441 120.099C965.441 120.377 965.281 120.702 964.961 121.075C964.651 121.449 964.193 121.769 963.585 122.035C962.987 122.302 962.278 122.435 961.457 122.435ZM962.721 117.251V117.219C962.721 116.707 962.609 116.313 962.385 116.035C962.161 115.747 961.846 115.603 961.441 115.603C961.035 115.603 960.721 115.747 960.497 116.035C960.283 116.313 960.177 116.707 960.177 117.219V117.251H962.721ZM971.035 122.275C970.928 122.275 970.832 122.238 970.747 122.163C970.672 122.078 970.635 121.982 970.635 121.875V111.491C970.635 111.374 970.672 111.278 970.747 111.203C970.822 111.118 970.918 111.075 971.035 111.075H972.843C973.088 111.075 973.27 111.177 973.387 111.379L977.163 117.347V111.491C977.163 111.374 977.2 111.278 977.275 111.203C977.35 111.118 977.446 111.075 977.563 111.075H979.595C979.712 111.075 979.808 111.118 979.883 111.203C979.958 111.278 979.995 111.374 979.995 111.491V121.859C979.995 121.977 979.958 122.078 979.883 122.163C979.808 122.238 979.712 122.275 979.595 122.275H977.787C977.542 122.275 977.36 122.174 977.243 121.971L973.483 116.243V121.875C973.483 121.993 973.44 122.089 973.355 122.163C973.28 122.238 973.184 122.275 973.067 122.275H971.035ZM985.99 122.435C984.646 122.435 983.611 122.126 982.886 121.507C982.171 120.878 981.782 119.987 981.718 118.835C981.707 118.697 981.702 118.457 981.702 118.115C981.702 117.774 981.707 117.534 981.718 117.395C981.782 116.265 982.182 115.385 982.918 114.755C983.665 114.115 984.689 113.795 985.99 113.795C987.291 113.795 988.31 114.115 989.046 114.755C989.793 115.385 990.198 116.265 990.262 117.395C990.283 117.673 990.294 117.913 990.294 118.115C990.294 118.318 990.283 118.558 990.262 118.835C990.198 119.987 989.803 120.878 989.078 121.507C988.363 122.126 987.334 122.435 985.99 122.435ZM985.99 120.419C986.427 120.419 986.753 120.286 986.966 120.019C987.179 119.742 987.302 119.321 987.334 118.755C987.345 118.649 987.35 118.435 987.35 118.115C987.35 117.795 987.345 117.582 987.334 117.475C987.302 116.921 987.179 116.505 986.966 116.227C986.753 115.95 986.427 115.811 985.99 115.811C985.553 115.811 985.227 115.95 985.014 116.227C984.801 116.505 984.678 116.921 984.646 117.475L984.63 118.115L984.646 118.755C984.678 119.321 984.801 119.742 985.014 120.019C985.227 120.286 985.553 120.419 985.99 120.419ZM993.904 122.275C993.755 122.275 993.638 122.243 993.552 122.179C993.478 122.105 993.419 122.003 993.376 121.875L991.072 114.467L991.04 114.323C991.04 114.217 991.078 114.131 991.152 114.067C991.227 113.993 991.312 113.955 991.408 113.955H993.152C993.28 113.955 993.387 113.993 993.472 114.067C993.558 114.131 993.611 114.206 993.632 114.291L994.944 118.723L996.336 114.323C996.358 114.227 996.411 114.142 996.496 114.067C996.582 113.993 996.694 113.955 996.832 113.955H997.936C998.075 113.955 998.187 113.993 998.272 114.067C998.358 114.142 998.416 114.227 998.448 114.323L999.84 118.723L1001.14 114.291C1001.17 114.206 1001.22 114.131 1001.3 114.067C1001.38 113.993 1001.49 113.955 1001.62 113.955H1003.36C1003.47 113.955 1003.55 113.993 1003.62 114.067C1003.69 114.131 1003.73 114.217 1003.73 114.323C1003.73 114.377 1003.72 114.425 1003.71 114.467L1001.39 121.875C1001.32 122.142 1001.15 122.275 1000.88 122.275H999.36C999.094 122.275 998.912 122.142 998.816 121.875L997.392 117.619L995.952 121.875C995.878 122.142 995.702 122.275 995.424 122.275H993.904Z" fill="white"/>
<defs>
<filter id="filter0_f_1_272" x="785.086" y="58.0664" width="319.829" height="168" filterUnits="userSpaceOnUse" color-interpolation-filters="sRGB">
<feFlood flood-opacity="0" result="BackgroundImageFix"/>
<feBlend mode="normal" in="SourceGraphic" in2="BackgroundImageFix" result="shape"/>
<feGaussianBlur stdDeviation="27" result="effect1_foregroundBlur_1_272"/>
</filter>
</defs>
</svg>
