<svg width="32" height="15" viewBox="0 0 32 15" fill="none" xmlns="http://www.w3.org/2000/svg">
<path d="M0.76 11.6162C0.653333 11.6162 0.568 11.5842 0.504 11.5202C0.44 11.4455 0.408 11.3549 0.408 11.2482V0.80021C0.408 0.682877 0.44 0.59221 0.504 0.528211C0.568 0.453544 0.653333 0.41621 0.76 0.41621H1.528C1.64533 0.41621 1.736 0.453544 1.8 0.528211C1.87467 0.59221 1.912 0.682877 1.912 0.80021V5.24821H7.48V0.80021C7.48 0.682877 7.512 0.59221 7.576 0.528211C7.65067 0.453544 7.74133 0.41621 7.848 0.41621H8.616C8.73333 0.41621 8.824 0.453544 8.888 0.528211C8.96267 0.59221 9 0.682877 9 0.80021V11.2482C9 11.3549 8.96267 11.4455 8.888 11.5202C8.81333 11.5842 8.72267 11.6162 8.616 11.6162H7.848C7.74133 11.6162 7.65067 11.5842 7.576 11.5202C7.512 11.4455 7.48 11.3549 7.48 11.2482V6.64021H1.912V11.2482C1.912 11.3549 1.87467 11.4455 1.8 11.5202C1.72533 11.5842 1.63467 11.6162 1.528 11.6162H0.76ZM14.8866 11.7762C13.7986 11.7762 12.9293 11.4402 12.2786 10.7682C11.628 10.0855 11.2706 9.15754 11.2066 7.98421L11.1906 7.44021L11.2066 6.91221C11.2706 5.76021 11.628 4.84288 12.2786 4.16021C12.9293 3.47754 13.7986 3.13621 14.8866 3.13621C16.06 3.13621 16.9666 3.50954 17.6066 4.25621C18.2573 5.00288 18.5826 6.01621 18.5826 7.29621V7.58421C18.5826 7.69088 18.5453 7.78154 18.4706 7.85621C18.4066 7.92021 18.3213 7.95221 18.2146 7.95221H12.6626V8.09621C12.6946 8.78954 12.908 9.38154 13.3026 9.87221C13.6973 10.3629 14.22 10.6082 14.8706 10.6082C15.372 10.6082 15.7773 10.5122 16.0866 10.3202C16.4066 10.1175 16.6466 9.90954 16.8066 9.69621C16.9026 9.56821 16.9773 9.49354 17.0306 9.47221C17.084 9.44021 17.1746 9.42421 17.3026 9.42421H18.0066C18.1026 9.42421 18.1826 9.45088 18.2466 9.50421C18.3213 9.55754 18.3586 9.62688 18.3586 9.71221C18.3586 9.94688 18.2146 10.2295 17.9266 10.5602C17.6386 10.8909 17.228 11.1789 16.6946 11.4242C16.172 11.6589 15.5693 11.7762 14.8866 11.7762ZM17.1266 6.86421V6.81621C17.1266 6.06954 16.924 5.46154 16.5186 4.99221C16.1133 4.52288 15.5693 4.28821 14.8866 4.28821C14.1933 4.28821 13.6493 4.52288 13.2546 4.99221C12.86 5.46154 12.6626 6.06954 12.6626 6.81621V6.86421H17.1266ZM20.9121 11.6162C20.8055 11.6162 20.7148 11.5842 20.6401 11.5202C20.5761 11.4455 20.5441 11.3549 20.5441 11.2482V0.62421C20.5441 0.506877 20.5761 0.41621 20.6401 0.35221C20.7148 0.28821 20.8055 0.25621 20.9121 0.25621H21.6161C21.7228 0.25621 21.8081 0.293544 21.8721 0.368211C21.9468 0.432211 21.9841 0.517544 21.9841 0.62421V11.2482C21.9841 11.3549 21.9468 11.4455 21.8721 11.5202C21.8081 11.5842 21.7228 11.6162 21.6161 11.6162H20.9121ZM24.7715 14.6562C24.6648 14.6562 24.5742 14.6242 24.4995 14.5602C24.4355 14.4962 24.4035 14.4055 24.4035 14.2882V3.66421C24.4035 3.54688 24.4355 3.45621 24.4995 3.39221C24.5742 3.32821 24.6648 3.29621 24.7715 3.29621H25.4435C25.5608 3.29621 25.6515 3.32821 25.7155 3.39221C25.7795 3.45621 25.8115 3.54688 25.8115 3.66421V4.36821C26.4302 3.54688 27.3102 3.13621 28.4515 3.13621C29.5715 3.13621 30.4088 3.49354 30.9635 4.20821C31.5288 4.91221 31.8275 5.81354 31.8595 6.91221C31.8702 7.02954 31.8755 7.21088 31.8755 7.45621C31.8755 7.70154 31.8702 7.88288 31.8595 8.00021C31.8275 9.08821 31.5288 9.98954 30.9635 10.7042C30.4088 11.4189 29.5715 11.7762 28.4515 11.7762C27.3102 11.7762 26.4462 11.3709 25.8595 10.5602V14.2882C25.8595 14.3949 25.8222 14.4802 25.7475 14.5442C25.6835 14.6189 25.5982 14.6562 25.4915 14.6562H24.7715ZM28.1475 10.5282C28.9155 10.5282 29.4755 10.2882 29.8275 9.80821C30.1795 9.32821 30.3715 8.69888 30.4035 7.92021C30.4142 7.81354 30.4195 7.65888 30.4195 7.45621C30.4195 5.40821 29.6622 4.38421 28.1475 4.38421C27.4008 4.38421 26.8355 4.63488 26.4515 5.13621C26.0782 5.62688 25.8808 6.20821 25.8595 6.88021C25.8488 6.99754 25.8435 7.20554 25.8435 7.50421C25.8435 7.80288 25.8488 8.01088 25.8595 8.12821C25.8808 8.77888 26.0835 9.34421 26.4675 9.82421C26.8622 10.2935 27.4222 10.5282 28.1475 10.5282Z" fill="#4F5665"/>
</svg>
