<svg width="351" height="76" viewBox="0 0 351 76" fill="none" xmlns="http://www.w3.org/2000/svg">
<path d="M0.980645 25.5493C0.747311 25.5493 0.548978 25.4676 0.385645 25.3043C0.222311 25.141 0.140645 24.9426 0.140645 24.7093V1.92432C0.140645 1.66765 0.210645 1.45765 0.350645 1.29432C0.513978 1.13098 0.723978 1.04931 0.980645 1.04931H4.20064C4.45731 1.04931 4.66731 1.13098 4.83064 1.29432C4.99398 1.45765 5.07564 1.66765 5.07564 1.92432V10.9193H15.2956V1.92432C15.2956 1.66765 15.3773 1.45765 15.5406 1.29432C15.704 1.13098 15.9023 1.04931 16.1356 1.04931H19.3906C19.6473 1.04931 19.8456 1.13098 19.9856 1.29432C20.149 1.45765 20.2306 1.66765 20.2306 1.92432V24.7093C20.2306 24.9426 20.149 25.141 19.9856 25.3043C19.8456 25.4676 19.6473 25.5493 19.3906 25.5493H16.1356C15.9023 25.5493 15.704 25.4676 15.5406 25.3043C15.3773 25.141 15.2956 24.9426 15.2956 24.7093V15.3643H5.07564V24.7093C5.07564 24.9426 4.99398 25.141 4.83064 25.3043C4.66731 25.4676 4.45731 25.5493 4.20064 25.5493H0.980645ZM32.0421 25.8993C29.8954 25.8993 28.2037 25.1993 26.9671 23.7993C25.7304 22.3993 25.1121 20.4743 25.1121 18.0243V8.18932C25.1121 7.93265 25.1937 7.73432 25.3571 7.59432C25.5204 7.43098 25.7187 7.34931 25.9521 7.34931H29.1021C29.3354 7.34931 29.5337 7.43098 29.6971 7.59432C29.8604 7.75765 29.9421 7.95598 29.9421 8.18932V17.8143C29.9421 20.6843 31.1904 22.1193 33.6871 22.1193C34.9004 22.1193 35.8571 21.7343 36.5571 20.9643C37.2804 20.1943 37.6421 19.1443 37.6421 17.8143V8.18932C37.6421 7.93265 37.7237 7.73432 37.8871 7.59432C38.0504 7.43098 38.2487 7.34931 38.4821 7.34931H41.5971C41.8537 7.34931 42.0521 7.43098 42.1921 7.59432C42.3554 7.73432 42.4371 7.93265 42.4371 8.18932V24.7093C42.4371 24.9426 42.3554 25.141 42.1921 25.3043C42.0521 25.4676 41.8537 25.5493 41.5971 25.5493H38.6921C38.4587 25.5493 38.2604 25.4676 38.0971 25.3043C37.9337 25.141 37.8521 24.9426 37.8521 24.7093V23.2743C36.5687 25.0243 34.6321 25.8993 32.0421 25.8993ZM55.2845 33.2493C53.2078 33.2493 51.5278 32.8993 50.2445 32.1993C48.9612 31.5227 48.0512 30.741 47.5145 29.8543C46.9778 28.9676 46.7095 28.2093 46.7095 27.5793C46.7095 27.346 46.7912 27.1476 46.9545 26.9843C47.1178 26.8443 47.3162 26.7743 47.5495 26.7743H50.6645C50.8745 26.7743 51.0495 26.821 51.1895 26.9143C51.3528 27.031 51.4812 27.2293 51.5745 27.5093C51.8312 28.116 52.2162 28.6293 52.7295 29.0493C53.2428 29.4926 54.0362 29.7143 55.1095 29.7143C56.5095 29.7143 57.5362 29.3993 58.1895 28.7693C58.8428 28.1626 59.1695 27.0893 59.1695 25.5493V23.1693C57.9095 24.6626 56.1245 25.4093 53.8145 25.4093C51.3878 25.4093 49.5562 24.6743 48.3195 23.2043C47.1062 21.7343 46.4528 19.7276 46.3595 17.1843L46.3245 16.2393L46.3595 15.2943C46.4528 12.7976 47.1178 10.791 48.3545 9.27432C49.5912 7.75765 51.4112 6.99932 53.8145 6.99932C55.0512 6.99932 56.1362 7.23265 57.0695 7.69931C58.0028 8.16598 58.7728 8.79598 59.3795 9.58932V8.22432C59.3795 7.96765 59.4612 7.75765 59.6245 7.59432C59.8112 7.43098 60.0212 7.34931 60.2545 7.34931H63.1245C63.3578 7.34931 63.5562 7.43098 63.7195 7.59432C63.8828 7.75765 63.9645 7.96765 63.9645 8.22432L63.9995 25.0943C63.9995 27.6843 63.2762 29.691 61.8295 31.1143C60.3828 32.5377 58.2012 33.2493 55.2845 33.2493ZM55.1445 21.6993C56.4512 21.6993 57.4312 21.2793 58.0845 20.4393C58.7378 19.5993 59.0995 18.5726 59.1695 17.3593C59.1928 17.1726 59.2045 16.7993 59.2045 16.2393C59.2045 15.6793 59.1928 15.306 59.1695 15.1193C59.0995 13.906 58.7378 12.8793 58.0845 12.0393C57.4312 11.1993 56.4512 10.7793 55.1445 10.7793C52.6245 10.7793 51.2945 12.3193 51.1545 15.3993L51.1195 16.2393C51.1195 19.8793 52.4612 21.6993 55.1445 21.6993ZM76.5019 25.8993C73.8886 25.8993 71.8119 25.1526 70.2719 23.6593C68.7552 22.166 67.9502 20.0426 67.8569 17.2893L67.8219 16.4143C67.8219 13.4976 68.5802 11.1993 70.0969 9.51932C71.6369 7.83932 73.7602 6.99932 76.4669 6.99932C79.2436 6.99932 81.3786 7.83932 82.8719 9.51932C84.3886 11.1993 85.1469 13.4393 85.1469 16.2393V16.9743C85.1469 17.2076 85.0652 17.406 84.9019 17.5693C84.7386 17.7326 84.5286 17.8143 84.2719 17.8143H72.6519V18.0943C72.6986 19.401 73.0486 20.486 73.7019 21.3493C74.3786 22.1893 75.3002 22.6093 76.4669 22.6093C77.7969 22.6093 78.8819 22.0726 79.7219 20.9993C79.9319 20.7426 80.0952 20.591 80.2119 20.5443C80.3286 20.4743 80.5269 20.4393 80.8069 20.4393H83.8869C84.0969 20.4393 84.2719 20.4976 84.4119 20.6143C84.5752 20.731 84.6569 20.8943 84.6569 21.1043C84.6569 21.6643 84.3186 22.3293 83.6419 23.0993C82.9886 23.846 82.0436 24.4993 80.8069 25.0593C79.5702 25.6193 78.1352 25.8993 76.5019 25.8993ZM80.3169 14.8393V14.7693C80.3169 13.3926 79.9669 12.296 79.2669 11.4793C78.5902 10.6393 77.6569 10.2193 76.4669 10.2193C75.2769 10.2193 74.3436 10.6393 73.6669 11.4793C72.9902 12.296 72.6519 13.3926 72.6519 14.7693V14.8393H80.3169ZM106.8 25.8993C103.58 25.8993 101.072 25.071 99.2751 23.4143C97.5018 21.7576 96.5568 19.4476 96.4401 16.4843C96.4168 15.8076 96.4051 14.7226 96.4051 13.2293C96.4051 11.736 96.4168 10.651 96.4401 9.97432C96.5335 7.08098 97.4901 4.81765 99.3101 3.18431C101.13 1.52765 103.627 0.699315 106.8 0.699315C108.947 0.699315 110.79 1.07265 112.33 1.81932C113.893 2.54265 115.072 3.45265 115.865 4.54932C116.658 5.62265 117.078 6.68432 117.125 7.73432C117.125 7.94432 117.055 8.11932 116.915 8.25932C116.775 8.39932 116.588 8.46932 116.355 8.46932H112.68C112.447 8.46932 112.272 8.42265 112.155 8.32932C112.038 8.23598 111.933 8.08432 111.84 7.87432C111.513 7.01098 110.942 6.27598 110.125 5.66932C109.308 5.06265 108.2 4.75931 106.8 4.75931C105.167 4.75931 103.883 5.20265 102.95 6.08931C102.04 6.95265 101.562 8.30598 101.515 10.1493C101.492 10.826 101.48 11.8526 101.48 13.2293C101.48 14.5826 101.492 15.6093 101.515 16.3093C101.562 18.1993 102.052 19.5993 102.985 20.5093C103.918 21.396 105.202 21.8393 106.835 21.8393C108.492 21.8393 109.822 21.396 110.825 20.5093C111.828 19.6226 112.33 18.2926 112.33 16.5193V15.4343H108.06C107.827 15.4343 107.628 15.3526 107.465 15.1893C107.302 15.026 107.22 14.8276 107.22 14.5943V12.6693C107.22 12.436 107.302 12.2376 107.465 12.0743C107.628 11.911 107.827 11.8293 108.06 11.8293H116.46C116.717 11.8293 116.927 11.911 117.09 12.0743C117.253 12.2376 117.335 12.436 117.335 12.6693V16.3793C117.335 18.316 116.903 20.0076 116.04 21.4543C115.177 22.8776 113.952 23.9743 112.365 24.7443C110.778 25.5143 108.923 25.8993 106.8 25.8993ZM122.241 25.5493C122.008 25.5493 121.809 25.4676 121.646 25.3043C121.483 25.141 121.401 24.9426 121.401 24.7093V1.53931C121.401 1.28265 121.483 1.08432 121.646 0.944316C121.809 0.780982 122.008 0.699315 122.241 0.699315H125.181C125.438 0.699315 125.636 0.780982 125.776 0.944316C125.939 1.08432 126.021 1.28265 126.021 1.53931V24.7093C126.021 24.9426 125.939 25.141 125.776 25.3043C125.636 25.4676 125.438 25.5493 125.181 25.5493H122.241ZM138.748 25.8993C135.995 25.8993 133.871 25.1993 132.378 23.7993C130.885 22.3993 130.08 20.4626 129.963 17.9893L129.928 16.4493L129.963 14.9093C130.08 12.4593 130.896 10.5343 132.413 9.13432C133.93 7.71098 136.041 6.99932 138.748 6.99932C141.431 6.99932 143.531 7.71098 145.048 9.13432C146.565 10.5343 147.381 12.4593 147.498 14.9093C147.521 15.1893 147.533 15.7026 147.533 16.4493C147.533 17.196 147.521 17.7093 147.498 17.9893C147.381 20.4626 146.576 22.3993 145.083 23.7993C143.59 25.1993 141.478 25.8993 138.748 25.8993ZM138.748 22.3643C139.985 22.3643 140.93 21.9793 141.583 21.2093C142.26 20.4393 142.621 19.3076 142.668 17.8143C142.691 17.581 142.703 17.126 142.703 16.4493C142.703 15.7726 142.691 15.3176 142.668 15.0843C142.621 13.591 142.26 12.4593 141.583 11.6893C140.906 10.896 139.961 10.4993 138.748 10.4993C137.511 10.4993 136.555 10.896 135.878 11.6893C135.201 12.4593 134.84 13.591 134.793 15.0843L134.758 16.4493L134.793 17.8143C134.84 19.3076 135.201 20.4393 135.878 21.2093C136.555 21.9793 137.511 22.3643 138.748 22.3643ZM161.525 25.8993C159.098 25.8993 157.243 25.071 155.96 23.4143V24.7093C155.96 24.9426 155.878 25.141 155.715 25.3043C155.552 25.4676 155.342 25.5493 155.085 25.5493H152.285C152.052 25.5493 151.853 25.4676 151.69 25.3043C151.527 25.141 151.445 24.9426 151.445 24.7093V1.53931C151.445 1.28265 151.527 1.08432 151.69 0.944316C151.853 0.780982 152.052 0.699315 152.285 0.699315H155.33C155.587 0.699315 155.785 0.780982 155.925 0.944316C156.088 1.08432 156.17 1.28265 156.17 1.53931V9.30932C157.477 7.76932 159.262 6.99932 161.525 6.99932C163.882 6.99932 165.69 7.76932 166.95 9.30932C168.233 10.826 168.91 12.821 168.98 15.2943C169.003 15.5743 169.015 15.9593 169.015 16.4493C169.015 16.916 169.003 17.301 168.98 17.6043C168.887 20.1243 168.21 22.1426 166.95 23.6593C165.69 25.1526 163.882 25.8993 161.525 25.8993ZM160.195 22.1193C162.692 22.1193 164.022 20.5793 164.185 17.4993C164.208 17.266 164.22 16.916 164.22 16.4493C164.22 15.9826 164.208 15.6326 164.185 15.3993C164.022 12.3193 162.692 10.7793 160.195 10.7793C158.912 10.7793 157.932 11.1876 157.255 12.0043C156.578 12.821 156.217 13.8126 156.17 14.9793C156.147 15.2593 156.135 15.7143 156.135 16.3443C156.135 16.951 156.147 17.3943 156.17 17.6743C156.217 18.911 156.567 19.961 157.22 20.8243C157.873 21.6876 158.865 22.1193 160.195 22.1193ZM178.194 25.8993C177.004 25.8993 175.907 25.666 174.904 25.1993C173.924 24.7093 173.142 24.056 172.559 23.2393C171.999 22.4226 171.719 21.5243 171.719 20.5443C171.719 18.9576 172.361 17.6743 173.644 16.6943C174.927 15.7143 176.689 15.0493 178.929 14.6993L183.724 13.9993V13.2643C183.724 12.261 183.467 11.5026 182.954 10.9893C182.441 10.476 181.624 10.2193 180.504 10.2193C179.734 10.2193 179.116 10.3593 178.649 10.6393C178.182 10.9193 177.797 11.211 177.494 11.5143C177.214 11.7943 177.027 11.981 176.934 12.0743C176.841 12.3543 176.666 12.4943 176.409 12.4943H173.679C173.469 12.4943 173.282 12.4243 173.119 12.2843C172.979 12.1443 172.909 11.9576 172.909 11.7243C172.932 11.141 173.212 10.4876 173.749 9.76432C174.309 9.01765 175.161 8.37598 176.304 7.83931C177.447 7.27932 178.859 6.99932 180.539 6.99932C183.292 6.99932 185.299 7.61765 186.559 8.85432C187.819 10.091 188.449 11.7126 188.449 13.7193V24.7093C188.449 24.9426 188.367 25.141 188.204 25.3043C188.064 25.4676 187.866 25.5493 187.609 25.5493H184.704C184.471 25.5493 184.272 25.4676 184.109 25.3043C183.946 25.141 183.864 24.9426 183.864 24.7093V23.3443C183.351 24.091 182.627 24.7093 181.694 25.1993C180.761 25.666 179.594 25.8993 178.194 25.8993ZM179.384 22.5393C180.667 22.5393 181.717 22.1193 182.534 21.2793C183.351 20.4393 183.759 19.226 183.759 17.6393V16.9393L180.259 17.4993C177.576 17.9193 176.234 18.8176 176.234 20.1943C176.234 20.941 176.537 21.5243 177.144 21.9443C177.774 22.341 178.521 22.5393 179.384 22.5393ZM193.813 25.5493C193.58 25.5493 193.382 25.4676 193.218 25.3043C193.055 25.141 192.973 24.9426 192.973 24.7093V1.53931C192.973 1.28265 193.055 1.08432 193.218 0.944316C193.382 0.780982 193.58 0.699315 193.813 0.699315H196.753C197.01 0.699315 197.208 0.780982 197.348 0.944316C197.512 1.08432 197.593 1.28265 197.593 1.53931V24.7093C197.593 24.9426 197.512 25.141 197.348 25.3043C197.208 25.4676 197.01 25.5493 196.753 25.5493H193.813ZM211.459 25.5493C211.226 25.5493 211.027 25.4676 210.864 25.3043C210.701 25.141 210.619 24.9426 210.619 24.7093V1.92432C210.619 1.66765 210.689 1.45765 210.829 1.29432C210.992 1.13098 211.202 1.04931 211.459 1.04931H214.189C214.632 1.04931 214.971 1.24765 215.204 1.64432L225.214 17.1843V1.92432C225.214 1.66765 225.284 1.45765 225.424 1.29432C225.587 1.13098 225.797 1.04931 226.054 1.04931H229.064C229.321 1.04931 229.531 1.13098 229.694 1.29432C229.857 1.45765 229.939 1.66765 229.939 1.92432V24.6743C229.939 24.931 229.857 25.141 229.694 25.3043C229.531 25.4676 229.332 25.5493 229.099 25.5493H226.334C225.867 25.5493 225.517 25.351 225.284 24.9543L215.309 9.76432V24.7093C215.309 24.9426 215.227 25.141 215.064 25.3043C214.924 25.4676 214.726 25.5493 214.469 25.5493H211.459ZM242.82 25.8993C240.207 25.8993 238.13 25.1526 236.59 23.6593C235.074 22.166 234.269 20.0426 234.175 17.2893L234.14 16.4143C234.14 13.4976 234.899 11.1993 236.415 9.51932C237.955 7.83932 240.079 6.99932 242.785 6.99932C245.562 6.99932 247.697 7.83932 249.19 9.51932C250.707 11.1993 251.465 13.4393 251.465 16.2393V16.9743C251.465 17.2076 251.384 17.406 251.22 17.5693C251.057 17.7326 250.847 17.8143 250.59 17.8143H238.97V18.0943C239.017 19.401 239.367 20.486 240.02 21.3493C240.697 22.1893 241.619 22.6093 242.785 22.6093C244.115 22.6093 245.2 22.0726 246.04 20.9993C246.25 20.7426 246.414 20.591 246.53 20.5443C246.647 20.4743 246.845 20.4393 247.125 20.4393H250.205C250.415 20.4393 250.59 20.4976 250.73 20.6143C250.894 20.731 250.975 20.8943 250.975 21.1043C250.975 21.6643 250.637 22.3293 249.96 23.0993C249.307 23.846 248.362 24.4993 247.125 25.0593C245.889 25.6193 244.454 25.8993 242.82 25.8993ZM246.635 14.8393V14.7693C246.635 13.3926 246.285 12.296 245.585 11.4793C244.909 10.6393 243.975 10.2193 242.785 10.2193C241.595 10.2193 240.662 10.6393 239.985 11.4793C239.309 12.296 238.97 13.3926 238.97 14.7693V14.8393H246.635ZM263.371 25.5493C261.248 25.5493 259.65 25.001 258.576 23.9043C257.503 22.7843 256.966 21.151 256.966 19.0043V11.0943H254.201C253.968 11.0943 253.77 11.0126 253.606 10.8493C253.443 10.686 253.361 10.4876 253.361 10.2543V8.18932C253.361 7.95598 253.443 7.75765 253.606 7.59432C253.77 7.43098 253.968 7.34931 254.201 7.34931H256.966V1.53931C256.966 1.28265 257.048 1.08432 257.211 0.944316C257.375 0.780982 257.573 0.699315 257.806 0.699315H260.711C260.968 0.699315 261.166 0.780982 261.306 0.944316C261.47 1.08432 261.551 1.28265 261.551 1.53931V7.34931H265.926C266.16 7.34931 266.358 7.43098 266.521 7.59432C266.685 7.75765 266.766 7.95598 266.766 8.18932V10.2543C266.766 10.4876 266.685 10.686 266.521 10.8493C266.358 11.0126 266.16 11.0943 265.926 11.0943H261.551V18.6193C261.551 19.6226 261.726 20.381 262.076 20.8943C262.426 21.4076 262.998 21.6643 263.791 21.6643H266.241C266.498 21.6643 266.696 21.746 266.836 21.9093C267 22.0493 267.081 22.2476 267.081 22.5043V24.7093C267.081 24.9426 267 25.141 266.836 25.3043C266.696 25.4676 266.498 25.5493 266.241 25.5493H263.371ZM275.155 25.5493C274.571 25.5493 274.186 25.2576 274 24.6743L268.995 8.43432C268.971 8.36432 268.96 8.25932 268.96 8.11932C268.96 7.90932 269.03 7.73432 269.17 7.59432C269.31 7.43098 269.485 7.34931 269.695 7.34931H272.355C272.588 7.34931 272.786 7.41932 272.95 7.55932C273.136 7.69932 273.253 7.85098 273.3 8.01431L276.695 19.5293L280.3 8.11932C280.37 7.90932 280.486 7.73432 280.65 7.59432C280.836 7.43098 281.07 7.34931 281.35 7.34931H283.135C283.415 7.34931 283.636 7.43098 283.8 7.59432C283.986 7.73432 284.103 7.90932 284.15 8.11932L287.79 19.5293L291.185 8.01431C291.231 7.85098 291.336 7.69932 291.5 7.55932C291.663 7.41932 291.873 7.34931 292.13 7.34931H294.755C294.965 7.34931 295.14 7.43098 295.28 7.59432C295.443 7.73432 295.525 7.90932 295.525 8.11932L295.455 8.43432L290.45 24.6743C290.356 24.9543 290.216 25.176 290.03 25.3393C289.866 25.4793 289.633 25.5493 289.33 25.5493H287.02C286.413 25.5493 286.028 25.2576 285.865 24.6743L282.26 13.6843L278.62 24.6743C278.433 25.2576 278.036 25.5493 277.43 25.5493H275.155ZM306.502 25.8993C303.749 25.8993 301.625 25.1993 300.132 23.7993C298.639 22.3993 297.834 20.4626 297.717 17.9893L297.682 16.4493L297.717 14.9093C297.834 12.4593 298.65 10.5343 300.167 9.13432C301.684 7.71098 303.795 6.99932 306.502 6.99932C309.185 6.99932 311.285 7.71098 312.802 9.13432C314.319 10.5343 315.135 12.4593 315.252 14.9093C315.275 15.1893 315.287 15.7026 315.287 16.4493C315.287 17.196 315.275 17.7093 315.252 17.9893C315.135 20.4626 314.33 22.3993 312.837 23.7993C311.344 25.1993 309.232 25.8993 306.502 25.8993ZM306.502 22.3643C307.739 22.3643 308.684 21.9793 309.337 21.2093C310.014 20.4393 310.375 19.3076 310.422 17.8143C310.445 17.581 310.457 17.126 310.457 16.4493C310.457 15.7726 310.445 15.3176 310.422 15.0843C310.375 13.591 310.014 12.4593 309.337 11.6893C308.66 10.896 307.715 10.4993 306.502 10.4993C305.265 10.4993 304.309 10.896 303.632 11.6893C302.955 12.4593 302.594 13.591 302.547 15.0843L302.512 16.4493L302.547 17.8143C302.594 19.3076 302.955 20.4393 303.632 21.2093C304.309 21.9793 305.265 22.3643 306.502 22.3643ZM320.004 25.5493C319.771 25.5493 319.572 25.4676 319.409 25.3043C319.246 25.141 319.164 24.9426 319.164 24.7093V8.22432C319.164 7.96765 319.246 7.75765 319.409 7.59432C319.572 7.43098 319.771 7.34931 320.004 7.34931H322.874C323.131 7.34931 323.341 7.43098 323.504 7.59432C323.667 7.75765 323.749 7.96765 323.749 8.22432V9.65932C324.916 8.11932 326.596 7.34931 328.789 7.34931H330.259C330.516 7.34931 330.714 7.43098 330.854 7.59432C331.017 7.73432 331.099 7.93265 331.099 8.18932V10.7443C331.099 10.9776 331.017 11.176 330.854 11.3393C330.714 11.5026 330.516 11.5843 330.259 11.5843H327.494C326.397 11.5843 325.534 11.8993 324.904 12.5293C324.274 13.1593 323.959 14.0226 323.959 15.1193V24.7093C323.959 24.9426 323.877 25.141 323.714 25.3043C323.551 25.4676 323.352 25.5493 323.119 25.5493H320.004ZM334.702 25.5493C334.469 25.5493 334.27 25.4676 334.107 25.3043C333.944 25.141 333.862 24.9426 333.862 24.7093V1.53931C333.862 1.28265 333.944 1.08432 334.107 0.944316C334.27 0.780982 334.469 0.699315 334.702 0.699315H337.607C337.84 0.699315 338.039 0.780982 338.202 0.944316C338.365 1.10765 338.447 1.30598 338.447 1.53931V13.5093L344.257 7.94432C344.327 7.89765 344.432 7.81598 344.572 7.69931C344.735 7.55932 344.887 7.46598 345.027 7.41932C345.167 7.37265 345.342 7.34931 345.552 7.34931H348.877C349.11 7.34931 349.297 7.41932 349.437 7.55932C349.577 7.69932 349.647 7.88598 349.647 8.11932C349.647 8.32932 349.53 8.53932 349.297 8.74932L342.157 15.5043L350.172 24.1843C350.382 24.3943 350.487 24.5926 350.487 24.7793C350.487 25.0126 350.417 25.1993 350.277 25.3393C350.137 25.4793 349.962 25.5493 349.752 25.5493H346.357C346.03 25.5493 345.785 25.5143 345.622 25.4443C345.482 25.351 345.295 25.1876 345.062 24.9543L338.447 17.9193V24.7093C338.447 24.9426 338.365 25.141 338.202 25.3043C338.039 25.4676 337.84 25.5493 337.607 25.5493H334.702ZM87.0683 75.8993C84.315 75.8993 82.1917 75.1993 80.6983 73.7993C79.205 72.3993 78.4 70.4626 78.2833 67.9893L78.2483 66.4493L78.2833 64.9093C78.4 62.4593 79.2167 60.5343 80.7333 59.1343C82.25 57.711 84.3617 56.9993 87.0683 56.9993C89.7517 56.9993 91.8517 57.711 93.3683 59.1343C94.885 60.5343 95.7017 62.4593 95.8183 64.9093C95.8417 65.1893 95.8533 65.7026 95.8533 66.4493C95.8533 67.196 95.8417 67.7093 95.8183 67.9893C95.7017 70.4626 94.8967 72.3993 93.4033 73.7993C91.91 75.1993 89.7983 75.8993 87.0683 75.8993ZM87.0683 72.3643C88.305 72.3643 89.25 71.9793 89.9033 71.2093C90.58 70.4393 90.9417 69.3076 90.9883 67.8143C91.0117 67.581 91.0233 67.126 91.0233 66.4493C91.0233 65.7726 91.0117 65.3176 90.9883 65.0843C90.9417 63.591 90.58 62.4593 89.9033 61.6893C89.2267 60.896 88.2817 60.4993 87.0683 60.4993C85.8317 60.4993 84.875 60.896 84.1983 61.6893C83.5217 62.4593 83.16 63.591 83.1133 65.0843L83.0783 66.4493L83.1133 67.8143C83.16 69.3076 83.5217 70.4393 84.1983 71.2093C84.875 71.9793 85.8317 72.3643 87.0683 72.3643ZM102.325 75.5493C102.092 75.5493 101.894 75.4676 101.73 75.3043C101.567 75.141 101.485 74.9426 101.485 74.7093V61.0943H98.6503C98.417 61.0943 98.2187 61.0126 98.0553 60.8493C97.892 60.686 97.8103 60.4876 97.8103 60.2543V58.1893C97.8103 57.956 97.892 57.7576 98.0553 57.5943C98.2187 57.431 98.417 57.3493 98.6503 57.3493H101.485V55.9493C101.485 53.826 102.057 52.251 103.2 51.2243C104.344 50.1743 106.07 49.6493 108.38 49.6493H110.795C111.029 49.6493 111.227 49.731 111.39 49.8943C111.554 50.0576 111.635 50.256 111.635 50.4893V52.5543C111.635 52.7876 111.554 52.986 111.39 53.1493C111.227 53.3126 111.029 53.3943 110.795 53.3943H108.555C107.645 53.3943 107.004 53.616 106.63 54.0593C106.257 54.5026 106.07 55.191 106.07 56.1243V57.3493H110.445C110.679 57.3493 110.877 57.431 111.04 57.5943C111.204 57.7576 111.285 57.956 111.285 58.1893V60.2543C111.285 60.4876 111.204 60.686 111.04 60.8493C110.877 61.0126 110.679 61.0943 110.445 61.0943H106.07V74.7093C106.07 74.9426 105.989 75.141 105.825 75.3043C105.685 75.4676 105.487 75.5493 105.23 75.5493H102.325ZM122.524 75.5493C122.29 75.5493 122.092 75.4676 121.929 75.3043C121.765 75.141 121.684 74.9426 121.684 74.7093V51.9243C121.684 51.6676 121.754 51.4576 121.894 51.2943C122.057 51.131 122.267 51.0493 122.524 51.0493H137.749C138.005 51.0493 138.215 51.131 138.379 51.2943C138.542 51.4576 138.624 51.6676 138.624 51.9243V54.4443C138.624 54.6776 138.542 54.876 138.379 55.0393C138.215 55.2026 138.005 55.2843 137.749 55.2843H126.549V61.8643H137.049C137.305 61.8643 137.515 61.946 137.679 62.1093C137.842 62.2726 137.924 62.471 137.924 62.7043V65.2243C137.924 65.4576 137.842 65.656 137.679 65.8193C137.515 65.9826 137.305 66.0643 137.049 66.0643H126.549V74.7093C126.549 74.9426 126.467 75.141 126.304 75.3043C126.14 75.4676 125.93 75.5493 125.674 75.5493H122.524ZM146.715 75.8993C145.525 75.8993 144.428 75.666 143.425 75.1993C142.445 74.7093 141.663 74.056 141.08 73.2393C140.52 72.4226 140.24 71.5243 140.24 70.5443C140.24 68.9576 140.881 67.6743 142.165 66.6943C143.448 65.7143 145.21 65.0493 147.45 64.6993L152.245 63.9993V63.2643C152.245 62.261 151.988 61.5026 151.475 60.9893C150.961 60.476 150.145 60.2193 149.025 60.2193C148.255 60.2193 147.636 60.3593 147.17 60.6393C146.703 60.9193 146.318 61.211 146.015 61.5143C145.735 61.7943 145.548 61.981 145.455 62.0743C145.361 62.3543 145.186 62.4943 144.93 62.4943H142.2C141.99 62.4943 141.803 62.4243 141.64 62.2843C141.5 62.1443 141.43 61.9576 141.43 61.7243C141.453 61.141 141.733 60.4876 142.27 59.7643C142.83 59.0176 143.681 58.376 144.825 57.8393C145.968 57.2793 147.38 56.9993 149.06 56.9993C151.813 56.9993 153.82 57.6176 155.08 58.8543C156.34 60.091 156.97 61.7126 156.97 63.7193V74.7093C156.97 74.9426 156.888 75.141 156.725 75.3043C156.585 75.4676 156.386 75.5493 156.13 75.5493H153.225C152.991 75.5493 152.793 75.4676 152.63 75.3043C152.466 75.141 152.385 74.9426 152.385 74.7093V73.3443C151.871 74.091 151.148 74.7093 150.215 75.1993C149.281 75.666 148.115 75.8993 146.715 75.8993ZM147.905 72.5393C149.188 72.5393 150.238 72.1193 151.055 71.2793C151.871 70.4393 152.28 69.226 152.28 67.6393V66.9393L148.78 67.4993C146.096 67.9193 144.755 68.8176 144.755 70.1943C144.755 70.941 145.058 71.5243 145.665 71.9443C146.295 72.341 147.041 72.5393 147.905 72.5393ZM168.389 75.8993C166.616 75.8993 165.134 75.631 163.944 75.0943C162.754 74.5576 161.867 73.9393 161.284 73.2393C160.724 72.516 160.444 71.8976 160.444 71.3843C160.444 71.151 160.514 70.9643 160.654 70.8243C160.817 70.6843 161.004 70.6143 161.214 70.6143H164.084C164.271 70.6143 164.434 70.7076 164.574 70.8943C164.691 70.9876 164.947 71.2093 165.344 71.5593C165.764 71.9093 166.231 72.1893 166.744 72.3993C167.281 72.586 167.864 72.6793 168.494 72.6793C169.427 72.6793 170.186 72.5043 170.769 72.1543C171.352 71.781 171.644 71.256 171.644 70.5793C171.644 70.1126 171.504 69.7393 171.224 69.4593C170.967 69.156 170.489 68.8876 169.789 68.6543C169.112 68.3976 168.086 68.1176 166.709 67.8143C164.726 67.3943 163.256 66.7526 162.299 65.8893C161.366 65.026 160.899 63.8826 160.899 62.4593C160.899 61.526 161.179 60.651 161.739 59.8343C162.299 58.9943 163.127 58.3176 164.224 57.8043C165.344 57.2676 166.674 56.9993 168.214 56.9993C169.801 56.9993 171.166 57.256 172.309 57.7693C173.452 58.2593 174.316 58.8543 174.899 59.5543C175.506 60.2543 175.809 60.8726 175.809 61.4093C175.809 61.6193 175.727 61.806 175.564 61.9693C175.424 62.1093 175.249 62.1793 175.039 62.1793H172.414C172.157 62.1793 171.959 62.086 171.819 61.8993C171.656 61.7826 171.387 61.5726 171.014 61.2693C170.664 60.9426 170.267 60.686 169.824 60.4993C169.381 60.3126 168.844 60.2193 168.214 60.2193C167.351 60.2193 166.686 60.406 166.219 60.7793C165.752 61.1526 165.519 61.6426 165.519 62.2493C165.519 62.6693 165.624 63.0193 165.834 63.2993C166.067 63.5793 166.522 63.8476 167.199 64.1043C167.876 64.3376 168.891 64.5826 170.244 64.8393C174.444 65.656 176.544 67.4876 176.544 70.3343C176.544 71.991 175.821 73.3326 174.374 74.3593C172.951 75.386 170.956 75.8993 168.389 75.8993ZM188.313 75.5493C186.189 75.5493 184.591 75.001 183.518 73.9043C182.444 72.7843 181.908 71.151 181.908 69.0043V61.0943H179.143C178.909 61.0943 178.711 61.0126 178.548 60.8493C178.384 60.686 178.303 60.4876 178.303 60.2543V58.1893C178.303 57.956 178.384 57.7576 178.548 57.5943C178.711 57.431 178.909 57.3493 179.143 57.3493H181.908V51.5393C181.908 51.2826 181.989 51.0843 182.153 50.9443C182.316 50.781 182.514 50.6993 182.748 50.6993H185.653C185.909 50.6993 186.108 50.781 186.248 50.9443C186.411 51.0843 186.493 51.2826 186.493 51.5393V57.3493H190.868C191.101 57.3493 191.299 57.431 191.463 57.5943C191.626 57.7576 191.708 57.956 191.708 58.1893V60.2543C191.708 60.4876 191.626 60.686 191.463 60.8493C191.299 61.0126 191.101 61.0943 190.868 61.0943H186.493V68.6193C186.493 69.6226 186.668 70.381 187.018 70.8943C187.368 71.4076 187.939 71.6643 188.733 71.6643H191.183C191.439 71.6643 191.638 71.746 191.778 71.9093C191.941 72.0493 192.023 72.2476 192.023 72.5043V74.7093C192.023 74.9426 191.941 75.141 191.778 75.3043C191.638 75.4676 191.439 75.5493 191.183 75.5493H188.313ZM209.727 75.5493C209.027 75.5493 208.572 75.2226 208.362 74.5693L200.872 52.0993C200.849 52.0293 200.837 51.9243 200.837 51.7843C200.837 51.5743 200.907 51.3993 201.047 51.2593C201.187 51.1193 201.362 51.0493 201.572 51.0493H204.687C204.99 51.0493 205.235 51.131 205.422 51.2943C205.609 51.4576 205.737 51.6326 205.807 51.8193L211.652 69.7393L217.532 51.8193C217.579 51.6326 217.695 51.4576 217.882 51.2943C218.069 51.131 218.314 51.0493 218.617 51.0493H221.767C221.954 51.0493 222.117 51.1193 222.257 51.2593C222.42 51.3993 222.502 51.5743 222.502 51.7843L222.432 52.0993L214.977 74.5693C214.744 75.2226 214.289 75.5493 213.612 75.5493H209.727ZM227.045 75.5493C226.812 75.5493 226.613 75.4676 226.45 75.3043C226.287 75.141 226.205 74.9426 226.205 74.7093V51.9243C226.205 51.6676 226.275 51.4576 226.415 51.2943C226.578 51.131 226.788 51.0493 227.045 51.0493H236.425C239.248 51.0493 241.465 51.7143 243.075 53.0443C244.685 54.3743 245.49 56.311 245.49 58.8543C245.49 61.3743 244.685 63.2876 243.075 64.5943C241.465 65.8776 239.248 66.5193 236.425 66.5193H231.28V74.7093C231.28 74.966 231.198 75.176 231.035 75.3393C230.872 75.4793 230.662 75.5493 230.405 75.5493H227.045ZM236.25 62.5993C237.603 62.5993 238.63 62.2843 239.33 61.6543C240.053 61.001 240.415 60.056 240.415 58.8193C240.415 57.606 240.065 56.661 239.365 55.9843C238.688 55.3076 237.65 54.9693 236.25 54.9693H231.21V62.5993H236.25ZM250.151 75.5493C249.917 75.5493 249.719 75.4676 249.556 75.3043C249.392 75.141 249.311 74.9426 249.311 74.7093V51.9243C249.311 51.6676 249.381 51.4576 249.521 51.2943C249.684 51.131 249.894 51.0493 250.151 51.0493H252.881C253.324 51.0493 253.662 51.2476 253.896 51.6443L263.906 67.1843V51.9243C263.906 51.6676 263.976 51.4576 264.116 51.2943C264.279 51.131 264.489 51.0493 264.746 51.0493H267.756C268.012 51.0493 268.222 51.131 268.386 51.2943C268.549 51.4576 268.631 51.6676 268.631 51.9243V74.6743C268.631 74.931 268.549 75.141 268.386 75.3043C268.222 75.4676 268.024 75.5493 267.791 75.5493H265.026C264.559 75.5493 264.209 75.351 263.976 74.9543L254.001 59.7643V74.7093C254.001 74.9426 253.919 75.141 253.756 75.3043C253.616 75.4676 253.417 75.5493 253.161 75.5493H250.151Z" fill="#0B132A"/>
</svg>
