<svg width="161" height="11" viewBox="0 0 161 11" fill="none" xmlns="http://www.w3.org/2000/svg">
<path d="M0.74105 10.5493C0.647717 10.5493 0.57305 10.5213 0.51705 10.4653C0.46105 10.4 0.43305 10.3206 0.43305 10.2273V1.07132C0.43305 0.977983 0.46105 0.903316 0.51705 0.847316C0.57305 0.781983 0.647717 0.749316 0.74105 0.749316H1.44105C1.54372 0.749316 1.62305 0.777316 1.67905 0.833316C1.73505 0.889316 1.76305 0.968649 1.76305 1.07132V10.2273C1.76305 10.3206 1.73038 10.4 1.66505 10.4653C1.60905 10.5213 1.53438 10.5493 1.44105 10.5493H0.74105ZM4.37383 10.5493C4.2805 10.5493 4.20116 10.5213 4.13583 10.4653C4.07983 10.4 4.05183 10.3206 4.05183 10.2273V3.59132C4.05183 3.49798 4.07983 3.42332 4.13583 3.36732C4.20116 3.30198 4.2805 3.26932 4.37383 3.26932H4.97583C5.0785 3.26932 5.15783 3.29732 5.21383 3.35332C5.26983 3.40932 5.29783 3.48865 5.29783 3.59132V4.20732C5.57783 3.86198 5.89983 3.59598 6.26383 3.40932C6.63716 3.22265 7.09916 3.12932 7.64983 3.12932C8.54583 3.12932 9.24116 3.41865 9.73583 3.99732C10.2305 4.56665 10.4778 5.32265 10.4778 6.26532V10.2273C10.4778 10.3206 10.4452 10.4 10.3798 10.4653C10.3238 10.5213 10.2492 10.5493 10.1558 10.5493H9.51183C9.4185 10.5493 9.33916 10.5213 9.27383 10.4653C9.21783 10.4 9.18983 10.3206 9.18983 10.2273V6.34932C9.18983 5.67732 9.0265 5.15465 8.69983 4.78132C8.37316 4.40798 7.9065 4.22132 7.29983 4.22132C6.7025 4.22132 6.2265 4.41265 5.87183 4.79532C5.51716 5.16865 5.33983 5.68665 5.33983 6.34932V10.2273C5.33983 10.3206 5.30716 10.4 5.24183 10.4653C5.18583 10.5213 5.11116 10.5493 5.01783 10.5493H4.37383ZM15.2053 10.5493C13.7587 10.5493 13.0353 9.73265 13.0353 8.09932V4.34732H11.9293C11.836 4.34732 11.7613 4.31932 11.7053 4.26332C11.6493 4.20732 11.6213 4.13265 11.6213 4.03932V3.59132C11.6213 3.49798 11.6493 3.42332 11.7053 3.36732C11.7613 3.30198 11.836 3.26932 11.9293 3.26932H13.0353V0.931316C13.0353 0.837983 13.0633 0.763316 13.1193 0.707316C13.1753 0.641983 13.25 0.609316 13.3433 0.609316H13.9593C14.0527 0.609316 14.1273 0.641983 14.1833 0.707316C14.2487 0.763316 14.2813 0.837983 14.2813 0.931316V3.26932H16.0173C16.1107 3.26932 16.1853 3.30198 16.2413 3.36732C16.3067 3.42332 16.3393 3.49798 16.3393 3.59132V4.03932C16.3393 4.13265 16.3067 4.20732 16.2413 4.26332C16.1853 4.31932 16.1107 4.34732 16.0173 4.34732H14.2813V8.00132C14.2813 8.47732 14.356 8.83665 14.5053 9.07932C14.664 9.32198 14.93 9.44332 15.3033 9.44332H16.1573C16.2507 9.44332 16.3253 9.47598 16.3813 9.54132C16.4373 9.59732 16.4653 9.67198 16.4653 9.76532V10.2273C16.4653 10.3206 16.4373 10.4 16.3813 10.4653C16.3253 10.5213 16.2507 10.5493 16.1573 10.5493H15.2053ZM20.7171 10.6893C19.7651 10.6893 19.0044 10.3953 18.4351 9.80732C17.8657 9.20998 17.5531 8.39798 17.4971 7.37132L17.4831 6.89532L17.4971 6.43332C17.5531 5.42532 17.8657 4.62265 18.4351 4.02532C19.0044 3.42798 19.7651 3.12932 20.7171 3.12932C21.7437 3.12932 22.5371 3.45598 23.0971 4.10932C23.6664 4.76265 23.9511 5.64932 23.9511 6.76932V7.02132C23.9511 7.11465 23.9184 7.19398 23.8531 7.25932C23.7971 7.31532 23.7224 7.34332 23.6291 7.34332H18.7711V7.46932C18.7991 8.07598 18.9857 8.59398 19.3311 9.02332C19.6764 9.45265 20.1337 9.66732 20.7031 9.66732C21.1417 9.66732 21.4964 9.58332 21.7671 9.41532C22.0471 9.23798 22.2571 9.05598 22.3971 8.86932C22.4811 8.75732 22.5464 8.69198 22.5931 8.67332C22.6397 8.64532 22.7191 8.63132 22.8311 8.63132H23.4471C23.5311 8.63132 23.6011 8.65465 23.6571 8.70132C23.7224 8.74798 23.7551 8.80865 23.7551 8.88332C23.7551 9.08865 23.6291 9.33598 23.3771 9.62532C23.1251 9.91465 22.7657 10.1666 22.2991 10.3813C21.8417 10.5866 21.3144 10.6893 20.7171 10.6893ZM22.6771 6.39132V6.34932C22.6771 5.69598 22.4997 5.16398 22.1451 4.75332C21.7904 4.34265 21.3144 4.13732 20.7171 4.13732C20.1104 4.13732 19.6344 4.34265 19.2891 4.75332C18.9437 5.16398 18.7711 5.69598 18.7711 6.34932V6.39132H22.6771ZM25.9754 10.5493C25.8821 10.5493 25.8027 10.5213 25.7374 10.4653C25.6814 10.4 25.6534 10.3206 25.6534 10.2273V3.60532C25.6534 3.51198 25.6814 3.43265 25.7374 3.36732C25.8027 3.30198 25.8821 3.26932 25.9754 3.26932H26.5634C26.6661 3.26932 26.7454 3.30198 26.8014 3.36732C26.8667 3.42332 26.8994 3.50265 26.8994 3.60532V4.22132C27.2821 3.58665 27.9307 3.26932 28.8454 3.26932H29.3914C29.4941 3.26932 29.5734 3.29732 29.6294 3.35332C29.6854 3.40932 29.7134 3.48865 29.7134 3.59132V4.10932C29.7134 4.20265 29.6854 4.28198 29.6294 4.34732C29.5734 4.40332 29.4941 4.43132 29.3914 4.43132H28.5934C28.0801 4.43132 27.6741 4.58065 27.3754 4.87932C27.0861 5.17798 26.9414 5.58398 26.9414 6.09732V10.2273C26.9414 10.3206 26.9087 10.4 26.8434 10.4653C26.7781 10.5213 26.6987 10.5493 26.6054 10.5493H25.9754ZM31.2391 10.5493C31.1457 10.5493 31.0664 10.5213 31.0011 10.4653C30.9451 10.4 30.9171 10.3206 30.9171 10.2273V3.59132C30.9171 3.49798 30.9451 3.42332 31.0011 3.36732C31.0664 3.30198 31.1457 3.26932 31.2391 3.26932H31.8411C31.9437 3.26932 32.0231 3.29732 32.0791 3.35332C32.1351 3.40932 32.1631 3.48865 32.1631 3.59132V4.20732C32.4431 3.86198 32.7651 3.59598 33.1291 3.40932C33.5024 3.22265 33.9644 3.12932 34.5151 3.12932C35.4111 3.12932 36.1064 3.41865 36.6011 3.99732C37.0957 4.56665 37.3431 5.32265 37.3431 6.26532V10.2273C37.3431 10.3206 37.3104 10.4 37.2451 10.4653C37.1891 10.5213 37.1144 10.5493 37.0211 10.5493H36.3771C36.2837 10.5493 36.2044 10.5213 36.1391 10.4653C36.0831 10.4 36.0551 10.3206 36.0551 10.2273V6.34932C36.0551 5.67732 35.8917 5.15465 35.5651 4.78132C35.2384 4.40798 34.7717 4.22132 34.1651 4.22132C33.5677 4.22132 33.0917 4.41265 32.7371 4.79532C32.3824 5.16865 32.2051 5.68665 32.2051 6.34932V10.2273C32.2051 10.3206 32.1724 10.4 32.1071 10.4653C32.0511 10.5213 31.9764 10.5493 31.8831 10.5493H31.2391ZM42.2503 10.6893C41.2983 10.6893 40.5376 10.3953 39.9683 9.80732C39.399 9.20998 39.0863 8.39798 39.0303 7.37132L39.0163 6.89532L39.0303 6.43332C39.0863 5.42532 39.399 4.62265 39.9683 4.02532C40.5376 3.42798 41.2983 3.12932 42.2503 3.12932C43.277 3.12932 44.0703 3.45598 44.6303 4.10932C45.1996 4.76265 45.4843 5.64932 45.4843 6.76932V7.02132C45.4843 7.11465 45.4516 7.19398 45.3863 7.25932C45.3303 7.31532 45.2556 7.34332 45.1623 7.34332H40.3043V7.46932C40.3323 8.07598 40.519 8.59398 40.8643 9.02332C41.2096 9.45265 41.667 9.66732 42.2363 9.66732C42.675 9.66732 43.0296 9.58332 43.3003 9.41532C43.5803 9.23798 43.7903 9.05598 43.9303 8.86932C44.0143 8.75732 44.0796 8.69198 44.1263 8.67332C44.173 8.64532 44.2523 8.63132 44.3643 8.63132H44.9803C45.0643 8.63132 45.1343 8.65465 45.1903 8.70132C45.2556 8.74798 45.2883 8.80865 45.2883 8.88332C45.2883 9.08865 45.1623 9.33598 44.9103 9.62532C44.6583 9.91465 44.299 10.1666 43.8323 10.3813C43.375 10.5866 42.8476 10.6893 42.2503 10.6893ZM44.2103 6.39132V6.34932C44.2103 5.69598 44.033 5.16398 43.6783 4.75332C43.3236 4.34265 42.8476 4.13732 42.2503 4.13732C41.6436 4.13732 41.1676 4.34265 40.8223 4.75332C40.477 5.16398 40.3043 5.69598 40.3043 6.34932V6.39132H44.2103ZM49.9456 10.5493C48.4989 10.5493 47.7756 9.73265 47.7756 8.09932V4.34732H46.6696C46.5762 4.34732 46.5016 4.31932 46.4456 4.26332C46.3896 4.20732 46.3616 4.13265 46.3616 4.03932V3.59132C46.3616 3.49798 46.3896 3.42332 46.4456 3.36732C46.5016 3.30198 46.5762 3.26932 46.6696 3.26932H47.7756V0.931316C47.7756 0.837983 47.8036 0.763316 47.8596 0.707316C47.9156 0.641983 47.9902 0.609316 48.0836 0.609316H48.6996C48.7929 0.609316 48.8676 0.641983 48.9236 0.707316C48.9889 0.763316 49.0216 0.837983 49.0216 0.931316V3.26932H50.7576C50.8509 3.26932 50.9256 3.30198 50.9816 3.36732C51.0469 3.42332 51.0796 3.49798 51.0796 3.59132V4.03932C51.0796 4.13265 51.0469 4.20732 50.9816 4.26332C50.9256 4.31932 50.8509 4.34732 50.7576 4.34732H49.0216V8.00132C49.0216 8.47732 49.0962 8.83665 49.2456 9.07932C49.4042 9.32198 49.6702 9.44332 50.0436 9.44332H50.8976C50.9909 9.44332 51.0656 9.47598 51.1216 9.54132C51.1776 9.59732 51.2056 9.67198 51.2056 9.76532V10.2273C51.2056 10.3206 51.1776 10.4 51.1216 10.4653C51.0656 10.5213 50.9909 10.5493 50.8976 10.5493H49.9456ZM57.6225 10.5493C57.4918 10.5493 57.3938 10.5213 57.3285 10.4653C57.2632 10.4093 57.2118 10.3206 57.1745 10.1993L55.1865 3.70332L55.1585 3.56332C55.1585 3.47932 55.1865 3.40932 55.2425 3.35332C55.2985 3.29732 55.3685 3.26932 55.4525 3.26932H56.0265C56.1198 3.26932 56.1945 3.29732 56.2505 3.35332C56.3158 3.39998 56.3532 3.44665 56.3625 3.49332L57.9445 8.84132L59.6245 3.56332C59.6432 3.48865 59.6852 3.42332 59.7505 3.36732C59.8158 3.30198 59.9045 3.26932 60.0165 3.26932H60.4645C60.5765 3.26932 60.6652 3.30198 60.7305 3.36732C60.7958 3.42332 60.8378 3.48865 60.8565 3.56332L62.5365 8.84132L64.1185 3.49332C64.1278 3.44665 64.1605 3.39998 64.2165 3.35332C64.2818 3.29732 64.3612 3.26932 64.4545 3.26932H65.0285C65.1125 3.26932 65.1825 3.29732 65.2385 3.35332C65.2945 3.40932 65.3225 3.47932 65.3225 3.56332L65.2945 3.70332L63.3065 10.1993C63.2692 10.3206 63.2178 10.4093 63.1525 10.4653C63.0872 10.5213 62.9892 10.5493 62.8585 10.5493H62.3545C62.1118 10.5493 61.9532 10.4326 61.8785 10.1993L60.2405 5.13132L58.6025 10.1993C58.5278 10.4326 58.3692 10.5493 58.1265 10.5493H57.6225ZM67.0978 1.89732C67.0044 1.89732 66.9251 1.86932 66.8598 1.81332C66.8038 1.74798 66.7758 1.66865 66.7758 1.57532V0.847316C66.7758 0.753983 66.8038 0.674649 66.8598 0.609316C66.9251 0.543983 67.0044 0.511316 67.0978 0.511316H67.9238C68.0171 0.511316 68.0964 0.543983 68.1618 0.609316C68.2271 0.674649 68.2598 0.753983 68.2598 0.847316V1.57532C68.2598 1.66865 68.2271 1.74798 68.1618 1.81332C68.0964 1.86932 68.0171 1.89732 67.9238 1.89732H67.0978ZM67.2098 10.5493C67.1164 10.5493 67.0371 10.5213 66.9718 10.4653C66.9158 10.4 66.8878 10.3206 66.8878 10.2273V3.59132C66.8878 3.49798 66.9158 3.42332 66.9718 3.36732C67.0371 3.30198 67.1164 3.26932 67.2098 3.26932H67.8258C67.9191 3.26932 67.9938 3.30198 68.0498 3.36732C68.1151 3.42332 68.1478 3.49798 68.1478 3.59132V10.2273C68.1478 10.3206 68.1151 10.4 68.0498 10.4653C67.9938 10.5213 67.9191 10.5493 67.8258 10.5493H67.2098ZM73.051 10.5493C71.6044 10.5493 70.881 9.73265 70.881 8.09932V4.34732H69.775C69.6817 4.34732 69.607 4.31932 69.551 4.26332C69.495 4.20732 69.467 4.13265 69.467 4.03932V3.59132C69.467 3.49798 69.495 3.42332 69.551 3.36732C69.607 3.30198 69.6817 3.26932 69.775 3.26932H70.881V0.931316C70.881 0.837983 70.909 0.763316 70.965 0.707316C71.021 0.641983 71.0957 0.609316 71.189 0.609316H71.805C71.8984 0.609316 71.973 0.641983 72.029 0.707316C72.0944 0.763316 72.127 0.837983 72.127 0.931316V3.26932H73.863C73.9564 3.26932 74.0311 3.30198 74.087 3.36732C74.1524 3.42332 74.185 3.49798 74.185 3.59132V4.03932C74.185 4.13265 74.1524 4.20732 74.087 4.26332C74.0311 4.31932 73.9564 4.34732 73.863 4.34732H72.127V8.00132C72.127 8.47732 72.2017 8.83665 72.351 9.07932C72.5097 9.32198 72.7757 9.44332 73.149 9.44332H74.0031C74.0964 9.44332 74.1711 9.47598 74.2271 9.54132C74.2831 9.59732 74.311 9.67198 74.311 9.76532V10.2273C74.311 10.3206 74.2831 10.4 74.2271 10.4653C74.1711 10.5213 74.0964 10.5493 74.0031 10.5493H73.051ZM76.0148 10.5493C75.9215 10.5493 75.8421 10.5213 75.7768 10.4653C75.7208 10.4 75.6928 10.3206 75.6928 10.2273V0.931316C75.6928 0.828649 75.7208 0.749316 75.7768 0.693316C75.8421 0.637316 75.9215 0.609316 76.0148 0.609316H76.6588C76.7615 0.609316 76.8408 0.637316 76.8968 0.693316C76.9528 0.749316 76.9808 0.828649 76.9808 0.931316V4.19332C77.2515 3.84798 77.5688 3.58665 77.9328 3.40932C78.3061 3.22265 78.7635 3.12932 79.3048 3.12932C80.2008 3.12932 80.8961 3.41865 81.3908 3.99732C81.8948 4.56665 82.1468 5.32265 82.1468 6.26532V10.2273C82.1468 10.3206 82.1141 10.4 82.0488 10.4653C81.9928 10.5213 81.9181 10.5493 81.8248 10.5493H81.1668C81.0735 10.5493 80.9941 10.5213 80.9288 10.4653C80.8728 10.4 80.8448 10.3206 80.8448 10.2273V6.34932C80.8448 5.67732 80.6815 5.15465 80.3548 4.78132C80.0281 4.40798 79.5568 4.22132 78.9408 4.22132C78.3435 4.22132 77.8675 4.41265 77.5128 4.79532C77.1581 5.16865 76.9808 5.68665 76.9808 6.34932V10.2273C76.9808 10.3206 76.9481 10.4 76.8828 10.4653C76.8268 10.5213 76.7521 10.5493 76.6588 10.5493H76.0148ZM87.1367 10.6893C86.11 10.6893 85.3167 10.4 84.7567 9.82132C84.206 9.24265 83.912 8.47265 83.8747 7.51132L83.8607 6.90932L83.8747 6.30732C83.912 5.34598 84.2107 4.57598 84.7707 3.99732C85.34 3.41865 86.1287 3.12932 87.1367 3.12932C88.1447 3.12932 88.9287 3.41865 89.4887 3.99732C90.058 4.57598 90.3614 5.34598 90.3987 6.30732C90.4174 6.51265 90.4267 6.71332 90.4267 6.90932C90.4267 7.10532 90.4174 7.30598 90.3987 7.51132C90.3614 8.47265 90.0627 9.24265 89.5027 9.82132C88.952 10.4 88.1634 10.6893 87.1367 10.6893ZM87.1367 9.63932C87.734 9.63932 88.2054 9.45265 88.5507 9.07932C88.9054 8.69665 89.0967 8.15065 89.1247 7.44132C89.134 7.34798 89.1387 7.17065 89.1387 6.90932C89.1387 6.64798 89.134 6.47065 89.1247 6.37732C89.0967 5.66798 88.9054 5.12665 88.5507 4.75332C88.2054 4.37065 87.734 4.17932 87.1367 4.17932C86.5394 4.17932 86.0634 4.37065 85.7087 4.75332C85.3634 5.12665 85.1767 5.66798 85.1487 6.37732L85.1347 6.90932L85.1487 7.44132C85.1767 8.15065 85.3634 8.69665 85.7087 9.07932C86.0634 9.45265 86.5394 9.63932 87.1367 9.63932ZM94.9104 10.6893C94.0237 10.6893 93.3377 10.4046 92.8524 9.83532C92.3671 9.25665 92.1244 8.49132 92.1244 7.53932V3.59132C92.1244 3.49798 92.1524 3.42332 92.2084 3.36732C92.2737 3.30198 92.3531 3.26932 92.4464 3.26932H93.0904C93.1837 3.26932 93.2584 3.30198 93.3144 3.36732C93.3797 3.42332 93.4124 3.49798 93.4124 3.59132V7.46932C93.4124 8.88798 94.0284 9.59732 95.2604 9.59732C95.8577 9.59732 96.3291 9.41065 96.6744 9.03732C97.0291 8.65465 97.2064 8.13198 97.2064 7.46932V3.59132C97.2064 3.49798 97.2344 3.42332 97.2904 3.36732C97.3557 3.30198 97.4351 3.26932 97.5284 3.26932H98.1724C98.2657 3.26932 98.3404 3.30198 98.3964 3.36732C98.4617 3.42332 98.4944 3.49798 98.4944 3.59132V10.2273C98.4944 10.3206 98.4617 10.4 98.3964 10.4653C98.3404 10.5213 98.2657 10.5493 98.1724 10.5493H97.5704C97.4771 10.5493 97.3977 10.5213 97.3324 10.4653C97.2764 10.4 97.2484 10.3206 97.2484 10.2273V9.59732C96.9777 9.96132 96.6604 10.2366 96.2964 10.4233C95.9324 10.6006 95.4704 10.6893 94.9104 10.6893ZM103.389 10.5493C101.942 10.5493 101.219 9.73265 101.219 8.09932V4.34732H100.113C100.02 4.34732 99.9449 4.31932 99.8889 4.26332C99.8329 4.20732 99.8049 4.13265 99.8049 4.03932V3.59132C99.8049 3.49798 99.8329 3.42332 99.8889 3.36732C99.9449 3.30198 100.02 3.26932 100.113 3.26932H101.219V0.931316C101.219 0.837983 101.247 0.763316 101.303 0.707316C101.359 0.641983 101.434 0.609316 101.527 0.609316H102.143C102.236 0.609316 102.311 0.641983 102.367 0.707316C102.432 0.763316 102.465 0.837983 102.465 0.931316V3.26932H104.201C104.294 3.26932 104.369 3.30198 104.425 3.36732C104.49 3.42332 104.523 3.49798 104.523 3.59132V4.03932C104.523 4.13265 104.49 4.20732 104.425 4.26332C104.369 4.31932 104.294 4.34732 104.201 4.34732H102.465V8.00132C102.465 8.47732 102.54 8.83665 102.689 9.07932C102.848 9.32198 103.114 9.44332 103.487 9.44332H104.341C104.434 9.44332 104.509 9.47598 104.565 9.54132C104.621 9.59732 104.649 9.67198 104.649 9.76532V10.2273C104.649 10.3206 104.621 10.4 104.565 10.4653C104.509 10.5213 104.434 10.5493 104.341 10.5493H103.389ZM113.018 10.6893C112.01 10.6893 111.24 10.3346 110.708 9.62532V10.2273C110.708 10.3206 110.675 10.4 110.61 10.4653C110.554 10.5213 110.479 10.5493 110.386 10.5493H109.798C109.705 10.5493 109.625 10.5213 109.56 10.4653C109.504 10.4 109.476 10.3206 109.476 10.2273V0.931316C109.476 0.828649 109.504 0.749316 109.56 0.693316C109.625 0.637316 109.705 0.609316 109.798 0.609316H110.428C110.521 0.609316 110.596 0.641983 110.652 0.707316C110.717 0.763316 110.75 0.837983 110.75 0.931316V4.16532C111.273 3.47465 112.029 3.12932 113.018 3.12932C113.998 3.12932 114.731 3.45132 115.216 4.09532C115.711 4.72998 115.972 5.52798 116 6.48932C116.009 6.59198 116.014 6.73198 116.014 6.90932C116.014 7.08665 116.009 7.22665 116 7.32932C115.972 8.29065 115.711 9.09332 115.216 9.73732C114.731 10.372 113.998 10.6893 113.018 10.6893ZM112.752 9.59732C113.424 9.59732 113.914 9.38732 114.222 8.96732C114.53 8.54732 114.698 7.99665 114.726 7.31532C114.735 7.22198 114.74 7.08665 114.74 6.90932C114.74 5.11732 114.077 4.22132 112.752 4.22132C112.117 4.22132 111.627 4.43132 111.282 4.85132C110.946 5.26198 110.769 5.75198 110.75 6.32132C110.741 6.42398 110.736 6.60598 110.736 6.86732C110.736 7.11932 110.741 7.29665 110.75 7.39932C110.769 7.99665 110.941 8.51465 111.268 8.95332C111.604 9.38265 112.099 9.59732 112.752 9.59732ZM120.728 10.6893C119.702 10.6893 118.908 10.4 118.348 9.82132C117.798 9.24265 117.504 8.47265 117.466 7.51132L117.452 6.90932L117.466 6.30732C117.504 5.34598 117.802 4.57598 118.362 3.99732C118.932 3.41865 119.72 3.12932 120.728 3.12932C121.736 3.12932 122.52 3.41865 123.08 3.99732C123.65 4.57598 123.953 5.34598 123.99 6.30732C124.009 6.51265 124.018 6.71332 124.018 6.90932C124.018 7.10532 124.009 7.30598 123.99 7.51132C123.953 8.47265 123.654 9.24265 123.094 9.82132C122.544 10.4 121.755 10.6893 120.728 10.6893ZM120.728 9.63932C121.326 9.63932 121.797 9.45265 122.142 9.07932C122.497 8.69665 122.688 8.15065 122.716 7.44132C122.726 7.34798 122.73 7.17065 122.73 6.90932C122.73 6.64798 122.726 6.47065 122.716 6.37732C122.688 5.66798 122.497 5.12665 122.142 4.75332C121.797 4.37065 121.326 4.17932 120.728 4.17932C120.131 4.17932 119.655 4.37065 119.3 4.75332C118.955 5.12665 118.768 5.66798 118.74 6.37732L118.726 6.90932L118.74 7.44132C118.768 8.15065 118.955 8.69665 119.3 9.07932C119.655 9.45265 120.131 9.63932 120.728 9.63932ZM126.108 10.5493C126.015 10.5493 125.936 10.5213 125.87 10.4653C125.814 10.4 125.786 10.3206 125.786 10.2273V3.60532C125.786 3.51198 125.814 3.43265 125.87 3.36732C125.936 3.30198 126.015 3.26932 126.108 3.26932H126.696C126.799 3.26932 126.878 3.30198 126.934 3.36732C127 3.42332 127.032 3.50265 127.032 3.60532V4.22132C127.415 3.58665 128.064 3.26932 128.978 3.26932H129.524C129.627 3.26932 129.706 3.29732 129.762 3.35332C129.818 3.40932 129.846 3.48865 129.846 3.59132V4.10932C129.846 4.20265 129.818 4.28198 129.762 4.34732C129.706 4.40332 129.627 4.43132 129.524 4.43132H128.726C128.213 4.43132 127.807 4.58065 127.508 4.87932C127.219 5.17798 127.074 5.58398 127.074 6.09732V10.2273C127.074 10.3206 127.042 10.4 126.976 10.4653C126.911 10.5213 126.832 10.5493 126.738 10.5493H126.108ZM133.559 10.6893C132.579 10.6893 131.842 10.372 131.347 9.73732C130.862 9.10265 130.601 8.29998 130.563 7.32932L130.549 6.90932L130.563 6.48932C130.601 5.52798 130.867 4.72998 131.361 4.09532C131.856 3.45132 132.589 3.12932 133.559 3.12932C134.53 3.12932 135.286 3.47465 135.827 4.16532V0.931316C135.827 0.837983 135.855 0.763316 135.911 0.707316C135.977 0.641983 136.056 0.609316 136.149 0.609316H136.779C136.873 0.609316 136.947 0.641983 137.003 0.707316C137.069 0.763316 137.101 0.837983 137.101 0.931316V10.2273C137.101 10.3206 137.069 10.4 137.003 10.4653C136.947 10.5213 136.873 10.5493 136.779 10.5493H136.177C136.084 10.5493 136.009 10.5213 135.953 10.4653C135.897 10.4 135.869 10.3206 135.869 10.2273V9.62532C135.337 10.3346 134.567 10.6893 133.559 10.6893ZM133.825 9.59732C134.479 9.59732 134.969 9.38265 135.295 8.95332C135.622 8.51465 135.799 7.99665 135.827 7.39932C135.837 7.29665 135.841 7.11932 135.841 6.86732C135.841 6.60598 135.837 6.42398 135.827 6.32132C135.809 5.75198 135.627 5.26198 135.281 4.85132C134.945 4.43132 134.46 4.22132 133.825 4.22132C133.153 4.22132 132.663 4.43132 132.355 4.85132C132.047 5.27132 131.879 5.82198 131.851 6.50332L131.837 6.90932C131.837 8.70132 132.5 9.59732 133.825 9.59732ZM142.096 10.6893C141.144 10.6893 140.383 10.3953 139.814 9.80732C139.245 9.20998 138.932 8.39798 138.876 7.37132L138.862 6.89532L138.876 6.43332C138.932 5.42532 139.245 4.62265 139.814 4.02532C140.383 3.42798 141.144 3.12932 142.096 3.12932C143.123 3.12932 143.916 3.45598 144.476 4.10932C145.045 4.76265 145.33 5.64932 145.33 6.76932V7.02132C145.33 7.11465 145.297 7.19398 145.232 7.25932C145.176 7.31532 145.101 7.34332 145.008 7.34332H140.15V7.46932C140.178 8.07598 140.365 8.59398 140.71 9.02332C141.055 9.45265 141.513 9.66732 142.082 9.66732C142.521 9.66732 142.875 9.58332 143.146 9.41532C143.426 9.23798 143.636 9.05598 143.776 8.86932C143.86 8.75732 143.925 8.69198 143.972 8.67332C144.019 8.64532 144.098 8.63132 144.21 8.63132H144.826C144.91 8.63132 144.98 8.65465 145.036 8.70132C145.101 8.74798 145.134 8.80865 145.134 8.88332C145.134 9.08865 145.008 9.33598 144.756 9.62532C144.504 9.91465 144.145 10.1666 143.678 10.3813C143.221 10.5866 142.693 10.6893 142.096 10.6893ZM144.056 6.39132V6.34932C144.056 5.69598 143.879 5.16398 143.524 4.75332C143.169 4.34265 142.693 4.13732 142.096 4.13732C141.489 4.13732 141.013 4.34265 140.668 4.75332C140.323 5.16398 140.15 5.69598 140.15 6.34932V6.39132H144.056ZM147.354 10.5493C147.261 10.5493 147.182 10.5213 147.116 10.4653C147.06 10.4 147.032 10.3206 147.032 10.2273V3.60532C147.032 3.51198 147.06 3.43265 147.116 3.36732C147.182 3.30198 147.261 3.26932 147.354 3.26932H147.942C148.045 3.26932 148.124 3.30198 148.18 3.36732C148.246 3.42332 148.278 3.50265 148.278 3.60532V4.22132C148.661 3.58665 149.31 3.26932 150.224 3.26932H150.77C150.873 3.26932 150.952 3.29732 151.008 3.35332C151.064 3.40932 151.092 3.48865 151.092 3.59132V4.10932C151.092 4.20265 151.064 4.28198 151.008 4.34732C150.952 4.40332 150.873 4.43132 150.77 4.43132H149.972C149.459 4.43132 149.053 4.58065 148.754 4.87932C148.465 5.17798 148.32 5.58398 148.32 6.09732V10.2273C148.32 10.3206 148.288 10.4 148.222 10.4653C148.157 10.5213 148.078 10.5493 147.984 10.5493H147.354ZM154.788 10.6893C154.144 10.6893 153.598 10.5866 153.15 10.3813C152.711 10.1666 152.385 9.92398 152.17 9.65332C151.955 9.38265 151.848 9.15865 151.848 8.98132C151.848 8.88798 151.881 8.81798 151.946 8.77132C152.011 8.71532 152.081 8.68732 152.156 8.68732H152.744C152.8 8.68732 152.842 8.69665 152.87 8.71532C152.907 8.73398 152.954 8.77598 153.01 8.84132C153.225 9.10265 153.463 9.30798 153.724 9.45732C153.995 9.60665 154.354 9.68132 154.802 9.68132C155.306 9.68132 155.707 9.58798 156.006 9.40132C156.314 9.21465 156.468 8.94398 156.468 8.58932C156.468 8.35598 156.403 8.16932 156.272 8.02932C156.141 7.88932 155.922 7.76332 155.614 7.65132C155.315 7.53932 154.867 7.41798 154.27 7.28732C153.458 7.10998 152.884 6.85332 152.548 6.51732C152.212 6.18132 152.044 5.74732 152.044 5.21532C152.044 4.86998 152.147 4.53865 152.352 4.22132C152.557 3.89465 152.861 3.63332 153.262 3.43732C153.673 3.23198 154.158 3.12932 154.718 3.12932C155.306 3.12932 155.805 3.22732 156.216 3.42332C156.636 3.61932 156.949 3.84798 157.154 4.10932C157.369 4.37065 157.476 4.58998 157.476 4.76732C157.476 4.85132 157.443 4.92132 157.378 4.97732C157.322 5.03332 157.252 5.06132 157.168 5.06132H156.636C156.505 5.06132 156.412 5.00998 156.356 4.90732C156.197 4.72998 156.062 4.59465 155.95 4.50132C155.847 4.39865 155.693 4.31465 155.488 4.24932C155.283 4.17465 155.026 4.13732 154.718 4.13732C154.261 4.13732 153.911 4.23532 153.668 4.43132C153.425 4.61798 153.304 4.86998 153.304 5.18732C153.304 5.38332 153.355 5.55132 153.458 5.69132C153.561 5.82198 153.757 5.94798 154.046 6.06932C154.335 6.18132 154.765 6.29798 155.334 6.41932C156.221 6.60598 156.846 6.87198 157.21 7.21732C157.583 7.56265 157.77 8.00598 157.77 8.54732C157.77 8.94865 157.653 9.31265 157.42 9.63932C157.196 9.96598 156.855 10.2226 156.398 10.4093C155.95 10.596 155.413 10.6893 154.788 10.6893ZM159.629 10.5493C159.536 10.5493 159.457 10.5213 159.391 10.4653C159.335 10.4 159.307 10.3206 159.307 10.2273V9.26132C159.307 9.16798 159.335 9.08865 159.391 9.02332C159.457 8.95798 159.536 8.92532 159.629 8.92532H160.595C160.689 8.92532 160.763 8.95798 160.819 9.02332C160.885 9.08865 160.917 9.16798 160.917 9.26132V10.2273C160.917 10.3206 160.885 10.4 160.819 10.4653C160.763 10.5213 160.689 10.5493 160.595 10.5493H159.629Z" fill="#4F5665"/>
</svg>
