<svg width="314" height="46" viewBox="0 0 314 46" fill="none" xmlns="http://www.w3.org/2000/svg">
<path d="M0.632 12.0078C0.525333 12.0078 0.434667 11.9705 0.36 11.8958C0.285333 11.8211 0.248 11.7305 0.248 11.6238V1.19181C0.248 1.07448 0.285333 0.983812 0.36 0.919812C0.434667 0.845145 0.525333 0.807812 0.632 0.807812H2.136C2.25333 0.807812 2.344 0.845145 2.408 0.919812C2.48267 0.983812 2.52 1.07448 2.52 1.19181V10.0878H7.592C7.70933 10.0878 7.80533 10.1251 7.88 10.1998C7.95467 10.2745 7.992 10.3651 7.992 10.4718V11.6238C7.992 11.7305 7.95467 11.8211 7.88 11.8958C7.80533 11.9705 7.70933 12.0078 7.592 12.0078H0.632ZM11.7689 12.1678C11.2249 12.1678 10.7235 12.0611 10.2649 11.8478C9.81688 11.6238 9.45954 11.3251 9.19288 10.9518C8.93688 10.5785 8.80888 10.1678 8.80888 9.71981C8.80888 8.99448 9.10221 8.40781 9.68888 7.95981C10.2755 7.51181 11.0809 7.20781 12.1049 7.04781L14.2969 6.72781V6.39181C14.2969 5.93315 14.1795 5.58648 13.9449 5.35181C13.7102 5.11715 13.3369 4.99981 12.8249 4.99981C12.4729 4.99981 12.1902 5.06381 11.9769 5.19181C11.7635 5.31981 11.5875 5.45315 11.4489 5.59181C11.3209 5.71981 11.2355 5.80515 11.1929 5.84781C11.1502 5.97581 11.0702 6.03981 10.9529 6.03981H9.70488C9.60888 6.03981 9.52354 6.00781 9.44888 5.94381C9.38488 5.87981 9.35287 5.79448 9.35287 5.68781C9.36354 5.42115 9.49154 5.12248 9.73688 4.79181C9.99288 4.45048 10.3822 4.15715 10.9049 3.91181C11.4275 3.65581 12.0729 3.52781 12.8409 3.52781C14.0995 3.52781 15.0169 3.81048 15.5929 4.37581C16.1689 4.94115 16.4569 5.68248 16.4569 6.59981V11.6238C16.4569 11.7305 16.4195 11.8211 16.3449 11.8958C16.2809 11.9705 16.1902 12.0078 16.0729 12.0078H14.7449C14.6382 12.0078 14.5475 11.9705 14.4729 11.8958C14.3982 11.8211 14.3609 11.7305 14.3609 11.6238V10.9998C14.1262 11.3411 13.7955 11.6238 13.3689 11.8478C12.9422 12.0611 12.4089 12.1678 11.7689 12.1678ZM12.3129 10.6318C12.8995 10.6318 13.3795 10.4398 13.7529 10.0558C14.1262 9.67181 14.3129 9.11715 14.3129 8.39181V8.07181L12.7129 8.32781C11.4862 8.51981 10.8729 8.93048 10.8729 9.55981C10.8729 9.90115 11.0115 10.1678 11.2889 10.3598C11.5769 10.5411 11.9182 10.6318 12.3129 10.6318ZM21.6771 12.1678C20.8665 12.1678 20.1891 12.0451 19.6451 11.7998C19.1011 11.5545 18.6958 11.2718 18.4291 10.9518C18.1731 10.6211 18.0451 10.3385 18.0451 10.1038C18.0451 9.99715 18.0771 9.91181 18.1411 9.84781C18.2158 9.78381 18.3011 9.75181 18.3971 9.75181H19.7091C19.7945 9.75181 19.8691 9.79448 19.9331 9.87981C19.9865 9.92248 20.1038 10.0238 20.2851 10.1838C20.4771 10.3438 20.6905 10.4718 20.9251 10.5678C21.1705 10.6531 21.4371 10.6958 21.7251 10.6958C22.1518 10.6958 22.4985 10.6158 22.7651 10.4558C23.0318 10.2851 23.1651 10.0451 23.1651 9.73581C23.1651 9.52248 23.1011 9.35181 22.9731 9.22381C22.8558 9.08515 22.6371 8.96248 22.3171 8.85581C22.0078 8.73848 21.5385 8.61048 20.9091 8.47181C20.0025 8.27981 19.3305 7.98648 18.8931 7.59181C18.4665 7.19715 18.2531 6.67448 18.2531 6.02381C18.2531 5.59715 18.3811 5.19715 18.6371 4.82381C18.8931 4.43981 19.2718 4.13048 19.7731 3.89581C20.2851 3.65048 20.8931 3.52781 21.5971 3.52781C22.3225 3.52781 22.9465 3.64515 23.4691 3.87981C23.9918 4.10381 24.3865 4.37581 24.6531 4.69581C24.9305 5.01581 25.0691 5.29848 25.0691 5.54381C25.0691 5.63981 25.0318 5.72515 24.9571 5.79981C24.8931 5.86381 24.8131 5.89581 24.7171 5.89581H23.5171C23.3998 5.89581 23.3091 5.85315 23.2451 5.76781C23.1705 5.71448 23.0478 5.61848 22.8771 5.47981C22.7171 5.33048 22.5358 5.21315 22.3331 5.12781C22.1305 5.04248 21.8851 4.99981 21.5971 4.99981C21.2025 4.99981 20.8985 5.08515 20.6851 5.25581C20.4718 5.42648 20.3651 5.65048 20.3651 5.92781C20.3651 6.11981 20.4131 6.27981 20.5091 6.40781C20.6158 6.53581 20.8238 6.65848 21.1331 6.77581C21.4425 6.88248 21.9065 6.99448 22.5251 7.11181C24.4451 7.48515 25.4051 8.32248 25.4051 9.62381C25.4051 10.3811 25.0745 10.9945 24.4131 11.4638C23.7625 11.9331 22.8505 12.1678 21.6771 12.1678ZM27.4404 12.0078C27.3337 12.0078 27.243 11.9705 27.1684 11.8958C27.0937 11.8211 27.0564 11.7305 27.0564 11.6238V1.03181C27.0564 0.914479 27.0937 0.823812 27.1684 0.759812C27.243 0.685145 27.3337 0.647812 27.4404 0.647812H28.7844C28.9017 0.647812 28.9924 0.685145 29.0564 0.759812C29.131 0.823812 29.1684 0.914479 29.1684 1.03181V11.6238C29.1684 11.7305 29.131 11.8211 29.0564 11.8958C28.9924 11.9705 28.9017 12.0078 28.7844 12.0078H27.4404ZM34.8904 12.1678C33.6957 12.1678 32.7464 11.8265 32.0424 11.1438C31.349 10.4611 30.981 9.49048 30.9384 8.23181L30.9224 7.83181C30.9224 6.49848 31.269 5.44781 31.9624 4.67981C32.6664 3.91181 33.637 3.52781 34.8744 3.52781C36.1437 3.52781 37.1197 3.91181 37.8024 4.67981C38.4957 5.44781 38.8424 6.47181 38.8424 7.75181V8.08781C38.8424 8.19448 38.805 8.28515 38.7304 8.35981C38.6557 8.43448 38.5597 8.47181 38.4424 8.47181H33.1304V8.59981C33.1517 9.19715 33.3117 9.69315 33.6104 10.0878C33.9197 10.4718 34.341 10.6638 34.8744 10.6638C35.4824 10.6638 35.9784 10.4185 36.3624 9.92781C36.4584 9.81048 36.533 9.74115 36.5864 9.71981C36.6397 9.68781 36.7304 9.67181 36.8584 9.67181H38.2664C38.3624 9.67181 38.4424 9.69848 38.5064 9.75181C38.581 9.80515 38.6184 9.87981 38.6184 9.97581C38.6184 10.2318 38.4637 10.5358 38.1544 10.8878C37.8557 11.2291 37.4237 11.5278 36.8584 11.7838C36.293 12.0398 35.637 12.1678 34.8904 12.1678ZM36.6344 7.11181V7.07981C36.6344 6.45048 36.4744 5.94915 36.1544 5.57581C35.845 5.19181 35.4184 4.99981 34.8744 4.99981C34.3304 4.99981 33.9037 5.19181 33.5944 5.57581C33.285 5.94915 33.1304 6.45048 33.1304 7.07981V7.11181H36.6344ZM43.7084 12.1678C42.8977 12.1678 42.2204 12.0451 41.6764 11.7998C41.1324 11.5545 40.727 11.2718 40.4604 10.9518C40.2044 10.6211 40.0764 10.3385 40.0764 10.1038C40.0764 9.99715 40.1084 9.91181 40.1724 9.84781C40.247 9.78381 40.3324 9.75181 40.4284 9.75181H41.7404C41.8257 9.75181 41.9004 9.79448 41.9644 9.87981C42.0177 9.92248 42.135 10.0238 42.3164 10.1838C42.5084 10.3438 42.7217 10.4718 42.9564 10.5678C43.2017 10.6531 43.4684 10.6958 43.7564 10.6958C44.183 10.6958 44.5297 10.6158 44.7964 10.4558C45.063 10.2851 45.1964 10.0451 45.1964 9.73581C45.1964 9.52248 45.1324 9.35181 45.0044 9.22381C44.887 9.08515 44.6684 8.96248 44.3484 8.85581C44.039 8.73848 43.5697 8.61048 42.9404 8.47181C42.0337 8.27981 41.3617 7.98648 40.9244 7.59181C40.4977 7.19715 40.2844 6.67448 40.2844 6.02381C40.2844 5.59715 40.4124 5.19715 40.6684 4.82381C40.9244 4.43981 41.303 4.13048 41.8044 3.89581C42.3164 3.65048 42.9244 3.52781 43.6284 3.52781C44.3537 3.52781 44.9777 3.64515 45.5004 3.87981C46.023 4.10381 46.4177 4.37581 46.6844 4.69581C46.9617 5.01581 47.1004 5.29848 47.1004 5.54381C47.1004 5.63981 47.063 5.72515 46.9884 5.79981C46.9244 5.86381 46.8444 5.89581 46.7484 5.89581H45.5484C45.431 5.89581 45.3404 5.85315 45.2764 5.76781C45.2017 5.71448 45.079 5.61848 44.9084 5.47981C44.7484 5.33048 44.567 5.21315 44.3644 5.12781C44.1617 5.04248 43.9164 4.99981 43.6284 4.99981C43.2337 4.99981 42.9297 5.08515 42.7164 5.25581C42.503 5.42648 42.3964 5.65048 42.3964 5.92781C42.3964 6.11981 42.4444 6.27981 42.5404 6.40781C42.647 6.53581 42.855 6.65848 43.1644 6.77581C43.4737 6.88248 43.9377 6.99448 44.5564 7.11181C46.4764 7.48515 47.4364 8.32248 47.4364 9.62381C47.4364 10.3811 47.1057 10.9945 46.4444 11.4638C45.7937 11.9331 44.8817 12.1678 43.7084 12.1678ZM51.6839 12.0078C51.3639 12.0078 51.1559 11.8585 51.0599 11.5598L47.6359 1.28781C47.6252 1.25581 47.6199 1.20781 47.6199 1.14381C47.6199 1.04781 47.6519 0.967812 47.7159 0.903812C47.7799 0.839812 47.8599 0.807812 47.9559 0.807812H49.3799C49.5185 0.807812 49.6305 0.845145 49.7159 0.919812C49.8012 0.994479 49.8599 1.07448 49.8919 1.15981L52.5639 9.35181L55.2519 1.15981C55.2732 1.07448 55.3265 0.994479 55.4119 0.919812C55.4972 0.845145 55.6092 0.807812 55.7479 0.807812H57.1879C57.2732 0.807812 57.3479 0.839812 57.4119 0.903812C57.4865 0.967812 57.5239 1.04781 57.5239 1.14381L57.4919 1.28781L54.0839 11.5598C53.9772 11.8585 53.7692 12.0078 53.4599 12.0078H51.6839ZM59.6008 12.0078C59.4941 12.0078 59.4034 11.9705 59.3288 11.8958C59.2541 11.8211 59.2168 11.7305 59.2168 11.6238V1.20781C59.2168 1.09048 59.2488 0.994479 59.3128 0.919812C59.3874 0.845145 59.4834 0.807812 59.6008 0.807812H63.8888C65.1794 0.807812 66.1928 1.11181 66.9288 1.71981C67.6648 2.32781 68.0328 3.21315 68.0328 4.37581C68.0328 5.52781 67.6648 6.40248 66.9288 6.99981C66.1928 7.58648 65.1794 7.87981 63.8888 7.87981H61.5368V11.6238C61.5368 11.7411 61.4994 11.8371 61.4248 11.9118C61.3501 11.9758 61.2541 12.0078 61.1368 12.0078H59.6008ZM63.8088 6.08781C64.4274 6.08781 64.8968 5.94381 65.2168 5.65581C65.5474 5.35715 65.7128 4.92515 65.7128 4.35981C65.7128 3.80515 65.5528 3.37315 65.2328 3.06381C64.9234 2.75448 64.4488 2.59981 63.8088 2.59981H61.5048V6.08781H63.8088ZM70.1633 12.0078C70.0566 12.0078 69.9659 11.9705 69.8913 11.8958C69.8166 11.8211 69.7793 11.7305 69.7793 11.6238V1.20781C69.7793 1.09048 69.8113 0.994479 69.8753 0.919812C69.9499 0.845145 70.0459 0.807812 70.1633 0.807812H71.4113C71.6139 0.807812 71.7686 0.898479 71.8753 1.07981L76.4513 8.18381V1.20781C76.4513 1.09048 76.4833 0.994479 76.5473 0.919812C76.6219 0.845145 76.7179 0.807812 76.8353 0.807812H78.2113C78.3286 0.807812 78.4246 0.845145 78.4993 0.919812C78.5739 0.994479 78.6113 1.09048 78.6113 1.20781V11.6078C78.6113 11.7251 78.5739 11.8211 78.4993 11.8958C78.4246 11.9705 78.3339 12.0078 78.2273 12.0078H76.9633C76.7499 12.0078 76.5899 11.9171 76.4833 11.7358L71.9233 4.79181V11.6238C71.9233 11.7305 71.8859 11.8211 71.8113 11.8958C71.7473 11.9705 71.6566 12.0078 71.5393 12.0078H70.1633ZM85.2213 2.11981C85.1146 2.11981 85.0239 2.08781 84.9493 2.02381C84.8853 1.94915 84.8533 1.85848 84.8533 1.75181V0.919812C84.8533 0.813146 84.8853 0.722479 84.9493 0.647812C85.0239 0.573146 85.1146 0.535812 85.2213 0.535812H86.1653C86.2719 0.535812 86.3626 0.573146 86.4373 0.647812C86.5119 0.722479 86.5493 0.813146 86.5493 0.919812V1.75181C86.5493 1.85848 86.5119 1.94915 86.4373 2.02381C86.3626 2.08781 86.2719 2.11981 86.1653 2.11981H85.2213ZM85.3493 12.0078C85.2426 12.0078 85.1519 11.9758 85.0773 11.9118C85.0133 11.8371 84.9813 11.7465 84.9813 11.6398V4.05581C84.9813 3.94915 85.0133 3.86381 85.0773 3.79981C85.1519 3.72515 85.2426 3.68781 85.3493 3.68781H86.0533C86.1599 3.68781 86.2453 3.72515 86.3093 3.79981C86.3839 3.86381 86.4213 3.94915 86.4213 4.05581V11.6398C86.4213 11.7465 86.3839 11.8371 86.3093 11.9118C86.2453 11.9758 86.1599 12.0078 86.0533 12.0078H85.3493ZM91.673 12.1678C90.937 12.1678 90.313 12.0505 89.801 11.8158C89.2997 11.5705 88.9263 11.2931 88.681 10.9838C88.4357 10.6745 88.313 10.4185 88.313 10.2158C88.313 10.1091 88.3503 10.0291 88.425 9.97581C88.4997 9.91181 88.5797 9.87981 88.665 9.87981H89.337C89.401 9.87981 89.449 9.89048 89.481 9.91181C89.5237 9.93315 89.577 9.98115 89.641 10.0558C89.8863 10.3545 90.1583 10.5891 90.457 10.7598C90.7663 10.9305 91.177 11.0158 91.689 11.0158C92.265 11.0158 92.7237 10.9091 93.065 10.6958C93.417 10.4825 93.593 10.1731 93.593 9.76781C93.593 9.50115 93.5183 9.28781 93.369 9.12781C93.2197 8.96781 92.969 8.82381 92.617 8.69581C92.2757 8.56781 91.7637 8.42915 91.081 8.27981C90.153 8.07715 89.497 7.78381 89.113 7.39981C88.729 7.01581 88.537 6.51981 88.537 5.91181C88.537 5.51715 88.6543 5.13848 88.889 4.77581C89.1237 4.40248 89.4703 4.10381 89.929 3.87981C90.3983 3.64515 90.953 3.52781 91.593 3.52781C92.265 3.52781 92.8357 3.63981 93.305 3.86381C93.785 4.08781 94.1423 4.34915 94.377 4.64781C94.6223 4.94648 94.745 5.19715 94.745 5.39981C94.745 5.49581 94.7077 5.57581 94.633 5.63981C94.569 5.70381 94.489 5.73581 94.393 5.73581H93.785C93.6357 5.73581 93.529 5.67715 93.465 5.55981C93.2837 5.35715 93.129 5.20248 93.001 5.09581C92.8837 4.97848 92.7077 4.88248 92.473 4.80781C92.2383 4.72248 91.945 4.67981 91.593 4.67981C91.0703 4.67981 90.6703 4.79181 90.393 5.01581C90.1157 5.22915 89.977 5.51715 89.977 5.87981C89.977 6.10381 90.0357 6.29581 90.153 6.45581C90.2703 6.60515 90.4943 6.74915 90.825 6.88781C91.1557 7.01581 91.6463 7.14915 92.297 7.28781C93.3103 7.50115 94.025 7.80515 94.441 8.19981C94.8677 8.59448 95.081 9.10115 95.081 9.71981C95.081 10.1785 94.9477 10.5945 94.681 10.9678C94.425 11.3411 94.0357 11.6345 93.513 11.8478C93.001 12.0611 92.3877 12.1678 91.673 12.1678ZM103.192 12.1678C102.669 12.1678 102.184 12.0611 101.736 11.8478C101.298 11.6345 100.946 11.3465 100.68 10.9838C100.424 10.6105 100.296 10.1998 100.296 9.75181C100.296 9.04781 100.584 8.47181 101.16 8.02381C101.736 7.57581 102.52 7.27715 103.512 7.12781L105.912 6.79181V6.32781C105.912 5.22915 105.277 4.67981 104.008 4.67981C103.517 4.67981 103.122 4.78115 102.824 4.98381C102.525 5.17581 102.306 5.40515 102.168 5.67181C102.125 5.77848 102.077 5.85315 102.024 5.89581C101.981 5.92781 101.917 5.94381 101.832 5.94381H101.208C101.112 5.94381 101.026 5.91181 100.952 5.84781C100.888 5.77315 100.856 5.68781 100.856 5.59181C100.856 5.34648 100.968 5.06381 101.192 4.74381C101.426 4.41315 101.784 4.13048 102.264 3.89581C102.744 3.65048 103.33 3.52781 104.024 3.52781C105.218 3.52781 106.072 3.80515 106.584 4.35981C107.106 4.91448 107.368 5.60781 107.368 6.43981V11.6398C107.368 11.7465 107.33 11.8371 107.256 11.9118C107.192 11.9758 107.106 12.0078 107 12.0078H106.296C106.189 12.0078 106.104 11.9758 106.04 11.9118C105.976 11.8371 105.944 11.7465 105.944 11.6398V10.9358C105.709 11.2878 105.368 11.5811 104.92 11.8158C104.472 12.0505 103.896 12.1678 103.192 12.1678ZM103.512 10.9998C104.216 10.9998 104.792 10.7705 105.24 10.3118C105.688 9.85315 105.912 9.18648 105.912 8.31181V7.86381L104.04 8.13581C103.272 8.24248 102.69 8.42381 102.296 8.67981C101.901 8.93581 101.704 9.25581 101.704 9.63981C101.704 10.0771 101.88 10.4131 102.232 10.6478C102.594 10.8825 103.021 10.9998 103.512 10.9998ZM114.006 15.0478C113.899 15.0478 113.809 15.0158 113.734 14.9518C113.67 14.8878 113.638 14.7971 113.638 14.6798V4.05581C113.638 3.93848 113.67 3.84781 113.734 3.78381C113.809 3.71981 113.899 3.68781 114.006 3.68781H114.678C114.795 3.68781 114.886 3.71981 114.95 3.78381C115.014 3.84781 115.046 3.93848 115.046 4.05581V4.75981C115.665 3.93848 116.545 3.52781 117.686 3.52781C118.806 3.52781 119.643 3.88515 120.198 4.59981C120.763 5.30381 121.062 6.20515 121.094 7.30381C121.105 7.42115 121.11 7.60248 121.11 7.84781C121.11 8.09315 121.105 8.27448 121.094 8.39181C121.062 9.47981 120.763 10.3811 120.198 11.0958C119.643 11.8105 118.806 12.1678 117.686 12.1678C116.545 12.1678 115.681 11.7625 115.094 10.9518V14.6798C115.094 14.7865 115.057 14.8718 114.982 14.9358C114.918 15.0105 114.833 15.0478 114.726 15.0478H114.006ZM117.382 10.9198C118.15 10.9198 118.71 10.6798 119.062 10.1998C119.414 9.71981 119.606 9.09048 119.638 8.31181C119.649 8.20515 119.654 8.05048 119.654 7.84781C119.654 5.79981 118.897 4.77581 117.382 4.77581C116.635 4.77581 116.07 5.02648 115.686 5.52781C115.313 6.01848 115.115 6.59981 115.094 7.27181C115.083 7.38915 115.078 7.59715 115.078 7.89581C115.078 8.19448 115.083 8.40248 115.094 8.51981C115.115 9.17048 115.318 9.73581 115.702 10.2158C116.097 10.6851 116.657 10.9198 117.382 10.9198ZM123.49 12.0078C123.383 12.0078 123.293 11.9758 123.218 11.9118C123.154 11.8371 123.122 11.7465 123.122 11.6398V4.07181C123.122 3.96515 123.154 3.87448 123.218 3.79981C123.293 3.72515 123.383 3.68781 123.49 3.68781H124.162C124.279 3.68781 124.37 3.72515 124.434 3.79981C124.509 3.86381 124.546 3.95448 124.546 4.07181V4.77581C124.983 4.05048 125.725 3.68781 126.77 3.68781H127.394C127.511 3.68781 127.602 3.71981 127.666 3.78381C127.73 3.84781 127.762 3.93848 127.762 4.05581V4.64781C127.762 4.75448 127.73 4.84515 127.666 4.91981C127.602 4.98381 127.511 5.01581 127.394 5.01581H126.482C125.895 5.01581 125.431 5.18648 125.09 5.52781C124.759 5.86915 124.594 6.33315 124.594 6.91981V11.6398C124.594 11.7465 124.557 11.8371 124.482 11.9118C124.407 11.9758 124.317 12.0078 124.21 12.0078H123.49ZM129.378 2.11981C129.271 2.11981 129.18 2.08781 129.106 2.02381C129.042 1.94915 129.01 1.85848 129.01 1.75181V0.919812C129.01 0.813146 129.042 0.722479 129.106 0.647812C129.18 0.573146 129.271 0.535812 129.378 0.535812H130.322C130.428 0.535812 130.519 0.573146 130.594 0.647812C130.668 0.722479 130.706 0.813146 130.706 0.919812V1.75181C130.706 1.85848 130.668 1.94915 130.594 2.02381C130.519 2.08781 130.428 2.11981 130.322 2.11981H129.378ZM129.506 12.0078C129.399 12.0078 129.308 11.9758 129.234 11.9118C129.17 11.8371 129.138 11.7465 129.138 11.6398V4.05581C129.138 3.94915 129.17 3.86381 129.234 3.79981C129.308 3.72515 129.399 3.68781 129.506 3.68781H130.21C130.316 3.68781 130.402 3.72515 130.466 3.79981C130.54 3.86381 130.578 3.94915 130.578 4.05581V11.6398C130.578 11.7465 130.54 11.8371 130.466 11.9118C130.402 11.9758 130.316 12.0078 130.21 12.0078H129.506ZM135.877 12.0078C135.6 12.0078 135.403 11.8745 135.285 11.6078L132.309 4.18381C132.299 4.15181 132.293 4.09848 132.293 4.02381C132.293 3.92781 132.325 3.84781 132.389 3.78381C132.453 3.71981 132.528 3.68781 132.613 3.68781H133.349C133.52 3.68781 133.648 3.77315 133.733 3.94381L136.197 10.3278L138.661 3.94381C138.683 3.87981 138.725 3.82115 138.789 3.76781C138.864 3.71448 138.949 3.68781 139.045 3.68781H139.781C139.867 3.68781 139.941 3.71981 140.005 3.78381C140.069 3.84781 140.101 3.92781 140.101 4.02381L140.069 4.18381L137.109 11.6078C136.992 11.8745 136.795 12.0078 136.517 12.0078H135.877ZM143.801 12.1678C143.278 12.1678 142.793 12.0611 142.345 11.8478C141.908 11.6345 141.556 11.3465 141.289 10.9838C141.033 10.6105 140.905 10.1998 140.905 9.75181C140.905 9.04781 141.193 8.47181 141.769 8.02381C142.345 7.57581 143.129 7.27715 144.121 7.12781L146.521 6.79181V6.32781C146.521 5.22915 145.886 4.67981 144.617 4.67981C144.126 4.67981 143.732 4.78115 143.433 4.98381C143.134 5.17581 142.916 5.40515 142.777 5.67181C142.734 5.77848 142.686 5.85315 142.633 5.89581C142.59 5.92781 142.526 5.94381 142.441 5.94381H141.817C141.721 5.94381 141.636 5.91181 141.561 5.84781C141.497 5.77315 141.465 5.68781 141.465 5.59181C141.465 5.34648 141.577 5.06381 141.801 4.74381C142.036 4.41315 142.393 4.13048 142.873 3.89581C143.353 3.65048 143.94 3.52781 144.633 3.52781C145.828 3.52781 146.681 3.80515 147.193 4.35981C147.716 4.91448 147.977 5.60781 147.977 6.43981V11.6398C147.977 11.7465 147.94 11.8371 147.865 11.9118C147.801 11.9758 147.716 12.0078 147.609 12.0078H146.905C146.798 12.0078 146.713 11.9758 146.649 11.9118C146.585 11.8371 146.553 11.7465 146.553 11.6398V10.9358C146.318 11.2878 145.977 11.5811 145.529 11.8158C145.081 12.0505 144.505 12.1678 143.801 12.1678ZM144.121 10.9998C144.825 10.9998 145.401 10.7705 145.849 10.3118C146.297 9.85315 146.521 9.18648 146.521 8.31181V7.86381L144.649 8.13581C143.881 8.24248 143.3 8.42381 142.905 8.67981C142.51 8.93581 142.313 9.25581 142.313 9.63981C142.313 10.0771 142.489 10.4131 142.841 10.6478C143.204 10.8825 143.63 10.9998 144.121 10.9998ZM153.416 12.0078C151.762 12.0078 150.936 11.0745 150.936 9.20781V4.91981H149.672C149.565 4.91981 149.48 4.88781 149.416 4.82381C149.352 4.75981 149.32 4.67448 149.32 4.56781V4.05581C149.32 3.94915 149.352 3.86381 149.416 3.79981C149.48 3.72515 149.565 3.68781 149.672 3.68781H150.936V1.01581C150.936 0.909145 150.968 0.823812 151.032 0.759812C151.096 0.685145 151.181 0.647812 151.288 0.647812H151.992C152.098 0.647812 152.184 0.685145 152.248 0.759812C152.322 0.823812 152.36 0.909145 152.36 1.01581V3.68781H154.344C154.45 3.68781 154.536 3.72515 154.6 3.79981C154.674 3.86381 154.712 3.94915 154.712 4.05581V4.56781C154.712 4.67448 154.674 4.75981 154.6 4.82381C154.536 4.88781 154.45 4.91981 154.344 4.91981H152.36V9.09581C152.36 9.63981 152.445 10.0505 152.616 10.3278C152.797 10.6051 153.101 10.7438 153.528 10.7438H154.504C154.61 10.7438 154.696 10.7811 154.76 10.8558C154.824 10.9198 154.856 11.0051 154.856 11.1118V11.6398C154.856 11.7465 154.824 11.8371 154.76 11.9118C154.696 11.9758 154.61 12.0078 154.504 12.0078H153.416ZM159.715 12.1678C158.627 12.1678 157.757 11.8318 157.107 11.1598C156.456 10.4771 156.099 9.54915 156.035 8.37581L156.019 7.83181L156.035 7.30381C156.099 6.15181 156.456 5.23448 157.107 4.55181C157.757 3.86915 158.627 3.52781 159.715 3.52781C160.888 3.52781 161.795 3.90115 162.435 4.64781C163.085 5.39448 163.411 6.40781 163.411 7.68781V7.97581C163.411 8.08248 163.373 8.17315 163.299 8.24781C163.235 8.31181 163.149 8.34381 163.043 8.34381H157.491V8.48781C157.523 9.18115 157.736 9.77315 158.131 10.2638C158.525 10.7545 159.048 10.9998 159.699 10.9998C160.2 10.9998 160.605 10.9038 160.915 10.7118C161.235 10.5091 161.475 10.3011 161.635 10.0878C161.731 9.95981 161.805 9.88515 161.859 9.86381C161.912 9.83181 162.003 9.81581 162.131 9.81581H162.835C162.931 9.81581 163.011 9.84248 163.075 9.89581C163.149 9.94915 163.187 10.0185 163.187 10.1038C163.187 10.3385 163.043 10.6211 162.755 10.9518C162.467 11.2825 162.056 11.5705 161.523 11.8158C161 12.0505 160.397 12.1678 159.715 12.1678ZM161.955 7.25581V7.20781C161.955 6.46115 161.752 5.85315 161.347 5.38381C160.941 4.91448 160.397 4.67981 159.715 4.67981C159.021 4.67981 158.477 4.91448 158.083 5.38381C157.688 5.85315 157.491 6.46115 157.491 7.20781V7.25581H161.955ZM171.752 12.0078C171.475 12.0078 171.278 11.8745 171.16 11.6078L168.184 4.18381C168.174 4.15181 168.168 4.09848 168.168 4.02381C168.168 3.92781 168.2 3.84781 168.264 3.78381C168.328 3.71981 168.403 3.68781 168.488 3.68781H169.224C169.395 3.68781 169.523 3.77315 169.608 3.94381L172.072 10.3278L174.536 3.94381C174.558 3.87981 174.6 3.82115 174.664 3.76781C174.739 3.71448 174.824 3.68781 174.92 3.68781H175.656C175.742 3.68781 175.816 3.71981 175.88 3.78381C175.944 3.84781 175.976 3.92781 175.976 4.02381L175.944 4.18381L172.984 11.6078C172.867 11.8745 172.67 12.0078 172.392 12.0078H171.752ZM177.924 2.11981C177.818 2.11981 177.727 2.08781 177.652 2.02381C177.588 1.94915 177.556 1.85848 177.556 1.75181V0.919812C177.556 0.813146 177.588 0.722479 177.652 0.647812C177.727 0.573146 177.818 0.535812 177.924 0.535812H178.868C178.975 0.535812 179.066 0.573146 179.14 0.647812C179.215 0.722479 179.252 0.813146 179.252 0.919812V1.75181C179.252 1.85848 179.215 1.94915 179.14 2.02381C179.066 2.08781 178.975 2.11981 178.868 2.11981H177.924ZM178.052 12.0078C177.946 12.0078 177.855 11.9758 177.78 11.9118C177.716 11.8371 177.684 11.7465 177.684 11.6398V4.05581C177.684 3.94915 177.716 3.86381 177.78 3.79981C177.855 3.72515 177.946 3.68781 178.052 3.68781H178.756C178.863 3.68781 178.948 3.72515 179.012 3.79981C179.087 3.86381 179.124 3.94915 179.124 4.05581V11.6398C179.124 11.7465 179.087 11.8371 179.012 11.9118C178.948 11.9758 178.863 12.0078 178.756 12.0078H178.052ZM181.896 12.0078C181.789 12.0078 181.699 11.9758 181.624 11.9118C181.56 11.8371 181.528 11.7465 181.528 11.6398V4.07181C181.528 3.96515 181.56 3.87448 181.624 3.79981C181.699 3.72515 181.789 3.68781 181.896 3.68781H182.568C182.685 3.68781 182.776 3.72515 182.84 3.79981C182.915 3.86381 182.952 3.95448 182.952 4.07181V4.77581C183.389 4.05048 184.131 3.68781 185.176 3.68781H185.8C185.917 3.68781 186.008 3.71981 186.072 3.78381C186.136 3.84781 186.168 3.93848 186.168 4.05581V4.64781C186.168 4.75448 186.136 4.84515 186.072 4.91981C186.008 4.98381 185.917 5.01581 185.8 5.01581H184.888C184.301 5.01581 183.837 5.18648 183.496 5.52781C183.165 5.86915 183 6.33315 183 6.91981V11.6398C183 11.7465 182.963 11.8371 182.888 11.9118C182.813 11.9758 182.723 12.0078 182.616 12.0078H181.896ZM190.744 12.0078C189.09 12.0078 188.264 11.0745 188.264 9.20781V4.91981H187C186.893 4.91981 186.808 4.88781 186.744 4.82381C186.68 4.75981 186.648 4.67448 186.648 4.56781V4.05581C186.648 3.94915 186.68 3.86381 186.744 3.79981C186.808 3.72515 186.893 3.68781 187 3.68781H188.264V1.01581C188.264 0.909145 188.296 0.823812 188.36 0.759812C188.424 0.685145 188.509 0.647812 188.616 0.647812H189.32C189.426 0.647812 189.512 0.685145 189.576 0.759812C189.65 0.823812 189.688 0.909145 189.688 1.01581V3.68781H191.672C191.778 3.68781 191.864 3.72515 191.928 3.79981C192.002 3.86381 192.04 3.94915 192.04 4.05581V4.56781C192.04 4.67448 192.002 4.75981 191.928 4.82381C191.864 4.88781 191.778 4.91981 191.672 4.91981H189.688V9.09581C189.688 9.63981 189.773 10.0505 189.944 10.3278C190.125 10.6051 190.429 10.7438 190.856 10.7438H191.832C191.938 10.7438 192.024 10.7811 192.088 10.8558C192.152 10.9198 192.184 11.0051 192.184 11.1118V11.6398C192.184 11.7465 192.152 11.8371 192.088 11.9118C192.024 11.9758 191.938 12.0078 191.832 12.0078H190.744ZM196.851 12.1678C195.838 12.1678 195.054 11.8425 194.499 11.1918C193.944 10.5305 193.667 9.65581 193.667 8.56781V4.05581C193.667 3.94915 193.699 3.86381 193.763 3.79981C193.838 3.72515 193.928 3.68781 194.035 3.68781H194.771C194.878 3.68781 194.963 3.72515 195.027 3.79981C195.102 3.86381 195.139 3.94915 195.139 4.05581V8.48781C195.139 10.1091 195.843 10.9198 197.251 10.9198C197.934 10.9198 198.472 10.7065 198.867 10.2798C199.272 9.84248 199.475 9.24515 199.475 8.48781V4.05581C199.475 3.94915 199.507 3.86381 199.571 3.79981C199.646 3.72515 199.736 3.68781 199.843 3.68781H200.579C200.686 3.68781 200.771 3.72515 200.835 3.79981C200.91 3.86381 200.947 3.94915 200.947 4.05581V11.6398C200.947 11.7465 200.91 11.8371 200.835 11.9118C200.771 11.9758 200.686 12.0078 200.579 12.0078H199.891C199.784 12.0078 199.694 11.9758 199.619 11.9118C199.555 11.8371 199.523 11.7465 199.523 11.6398V10.9198C199.214 11.3358 198.851 11.6505 198.435 11.8638C198.019 12.0665 197.491 12.1678 196.851 12.1678ZM205.645 12.1678C205.122 12.1678 204.637 12.0611 204.189 11.8478C203.751 11.6345 203.399 11.3465 203.133 10.9838C202.877 10.6105 202.749 10.1998 202.749 9.75181C202.749 9.04781 203.037 8.47181 203.613 8.02381C204.189 7.57581 204.973 7.27715 205.965 7.12781L208.365 6.79181V6.32781C208.365 5.22915 207.73 4.67981 206.461 4.67981C205.97 4.67981 205.575 4.78115 205.277 4.98381C204.978 5.17581 204.759 5.40515 204.621 5.67181C204.578 5.77848 204.53 5.85315 204.477 5.89581C204.434 5.92781 204.37 5.94381 204.285 5.94381H203.661C203.565 5.94381 203.479 5.91181 203.405 5.84781C203.341 5.77315 203.309 5.68781 203.309 5.59181C203.309 5.34648 203.421 5.06381 203.645 4.74381C203.879 4.41315 204.237 4.13048 204.717 3.89581C205.197 3.65048 205.783 3.52781 206.477 3.52781C207.671 3.52781 208.525 3.80515 209.037 4.35981C209.559 4.91448 209.821 5.60781 209.821 6.43981V11.6398C209.821 11.7465 209.783 11.8371 209.709 11.9118C209.645 11.9758 209.559 12.0078 209.453 12.0078H208.749C208.642 12.0078 208.557 11.9758 208.493 11.9118C208.429 11.8371 208.397 11.7465 208.397 11.6398V10.9358C208.162 11.2878 207.821 11.5811 207.373 11.8158C206.925 12.0505 206.349 12.1678 205.645 12.1678ZM205.965 10.9998C206.669 10.9998 207.245 10.7705 207.693 10.3118C208.141 9.85315 208.365 9.18648 208.365 8.31181V7.86381L206.493 8.13581C205.725 8.24248 205.143 8.42381 204.749 8.67981C204.354 8.93581 204.157 9.25581 204.157 9.63981C204.157 10.0771 204.333 10.4131 204.685 10.6478C205.047 10.8825 205.474 10.9998 205.965 10.9998ZM212.522 12.0078C212.415 12.0078 212.324 11.9758 212.25 11.9118C212.186 11.8371 212.154 11.7465 212.154 11.6398V1.01581C212.154 0.898479 212.186 0.807812 212.25 0.743812C212.324 0.679812 212.415 0.647812 212.522 0.647812H213.226C213.332 0.647812 213.418 0.685145 213.482 0.759812C213.556 0.823812 213.594 0.909145 213.594 1.01581V11.6398C213.594 11.7465 213.556 11.8371 213.482 11.9118C213.418 11.9758 213.332 12.0078 213.226 12.0078H212.522ZM220.302 12.0078C220.196 12.0078 220.105 11.9758 220.03 11.9118C219.966 11.8371 219.934 11.7465 219.934 11.6398V4.05581C219.934 3.94915 219.966 3.86381 220.03 3.79981C220.105 3.72515 220.196 3.68781 220.302 3.68781H220.99C221.108 3.68781 221.198 3.71981 221.262 3.78381C221.326 3.84781 221.358 3.93848 221.358 4.05581V4.75981C221.678 4.36515 222.046 4.06115 222.462 3.84781C222.889 3.63448 223.417 3.52781 224.046 3.52781C225.07 3.52781 225.865 3.85848 226.43 4.51981C226.996 5.17048 227.278 6.03448 227.278 7.11181V11.6398C227.278 11.7465 227.241 11.8371 227.166 11.9118C227.102 11.9758 227.017 12.0078 226.91 12.0078H226.174C226.068 12.0078 225.977 11.9758 225.902 11.9118C225.838 11.8371 225.806 11.7465 225.806 11.6398V7.20781C225.806 6.43981 225.62 5.84248 225.246 5.41581C224.873 4.98915 224.34 4.77581 223.646 4.77581C222.964 4.77581 222.42 4.99448 222.014 5.43181C221.609 5.85848 221.406 6.45048 221.406 7.20781V11.6398C221.406 11.7465 221.369 11.8371 221.294 11.9118C221.23 11.9758 221.145 12.0078 221.038 12.0078H220.302ZM232.887 12.1678C231.799 12.1678 230.929 11.8318 230.279 11.1598C229.628 10.4771 229.271 9.54915 229.207 8.37581L229.191 7.83181L229.207 7.30381C229.271 6.15181 229.628 5.23448 230.279 4.55181C230.929 3.86915 231.799 3.52781 232.887 3.52781C234.06 3.52781 234.967 3.90115 235.607 4.64781C236.257 5.39448 236.583 6.40781 236.583 7.68781V7.97581C236.583 8.08248 236.545 8.17315 236.471 8.24781C236.407 8.31181 236.321 8.34381 236.215 8.34381H230.663V8.48781C230.695 9.18115 230.908 9.77315 231.303 10.2638C231.697 10.7545 232.22 10.9998 232.871 10.9998C233.372 10.9998 233.777 10.9038 234.087 10.7118C234.407 10.5091 234.647 10.3011 234.807 10.0878C234.903 9.95981 234.977 9.88515 235.031 9.86381C235.084 9.83181 235.175 9.81581 235.303 9.81581H236.007C236.103 9.81581 236.183 9.84248 236.247 9.89581C236.321 9.94915 236.359 10.0185 236.359 10.1038C236.359 10.3385 236.215 10.6211 235.927 10.9518C235.639 11.2825 235.228 11.5705 234.695 11.8158C234.172 12.0505 233.569 12.1678 232.887 12.1678ZM235.127 7.25581V7.20781C235.127 6.46115 234.924 5.85315 234.519 5.38381C234.113 4.91448 233.569 4.67981 232.887 4.67981C232.193 4.67981 231.649 4.91448 231.255 5.38381C230.86 5.85315 230.663 6.46115 230.663 7.20781V7.25581H235.127ZM241.681 12.0078C240.028 12.0078 239.201 11.0745 239.201 9.20781V4.91981H237.937C237.831 4.91981 237.745 4.88781 237.681 4.82381C237.617 4.75981 237.585 4.67448 237.585 4.56781V4.05581C237.585 3.94915 237.617 3.86381 237.681 3.79981C237.745 3.72515 237.831 3.68781 237.937 3.68781H239.201V1.01581C239.201 0.909145 239.233 0.823812 239.297 0.759812C239.361 0.685145 239.447 0.647812 239.553 0.647812H240.257C240.364 0.647812 240.449 0.685145 240.513 0.759812C240.588 0.823812 240.625 0.909145 240.625 1.01581V3.68781H242.609C242.716 3.68781 242.801 3.72515 242.865 3.79981C242.94 3.86381 242.977 3.94915 242.977 4.05581V4.56781C242.977 4.67448 242.94 4.75981 242.865 4.82381C242.801 4.88781 242.716 4.91981 242.609 4.91981H240.625V9.09581C240.625 9.63981 240.711 10.0505 240.881 10.3278C241.063 10.6051 241.367 10.7438 241.793 10.7438H242.769C242.876 10.7438 242.961 10.7811 243.025 10.8558C243.089 10.9198 243.121 11.0051 243.121 11.1118V11.6398C243.121 11.7465 243.089 11.8371 243.025 11.9118C242.961 11.9758 242.876 12.0078 242.769 12.0078H241.681ZM246.892 12.0078C246.743 12.0078 246.631 11.9758 246.556 11.9118C246.482 11.8478 246.423 11.7465 246.38 11.6078L244.108 4.18381L244.076 4.02381C244.076 3.92781 244.108 3.84781 244.172 3.78381C244.236 3.71981 244.316 3.68781 244.412 3.68781H245.068C245.175 3.68781 245.26 3.71981 245.324 3.78381C245.399 3.83715 245.442 3.89048 245.452 3.94381L247.26 10.0558L249.18 4.02381C249.202 3.93848 249.25 3.86381 249.324 3.79981C249.399 3.72515 249.5 3.68781 249.628 3.68781H250.14C250.268 3.68781 250.37 3.72515 250.444 3.79981C250.519 3.86381 250.567 3.93848 250.588 4.02381L252.508 10.0558L254.316 3.94381C254.327 3.89048 254.364 3.83715 254.428 3.78381C254.503 3.71981 254.594 3.68781 254.7 3.68781H255.356C255.452 3.68781 255.532 3.71981 255.596 3.78381C255.66 3.84781 255.692 3.92781 255.692 4.02381L255.66 4.18381L253.388 11.6078C253.346 11.7465 253.287 11.8478 253.212 11.9118C253.138 11.9758 253.026 12.0078 252.876 12.0078H252.3C252.023 12.0078 251.842 11.8745 251.756 11.6078L249.884 5.81581L248.012 11.6078C247.927 11.8745 247.746 12.0078 247.468 12.0078H246.892ZM260.639 12.1678C259.465 12.1678 258.559 11.8371 257.919 11.1758C257.289 10.5145 256.953 9.63448 256.911 8.53581L256.895 7.84781L256.911 7.15981C256.953 6.06115 257.295 5.18115 257.935 4.51981C258.585 3.85848 259.487 3.52781 260.639 3.52781C261.791 3.52781 262.687 3.85848 263.327 4.51981C263.977 5.18115 264.324 6.06115 264.367 7.15981C264.388 7.39448 264.399 7.62381 264.399 7.84781C264.399 8.07181 264.388 8.30115 264.367 8.53581C264.324 9.63448 263.983 10.5145 263.343 11.1758C262.713 11.8371 261.812 12.1678 260.639 12.1678ZM260.639 10.9678C261.321 10.9678 261.86 10.7545 262.255 10.3278C262.66 9.89048 262.879 9.26648 262.911 8.45581C262.921 8.34915 262.927 8.14648 262.927 7.84781C262.927 7.54915 262.921 7.34648 262.911 7.23981C262.879 6.42915 262.66 5.81048 262.255 5.38381C261.86 4.94648 261.321 4.72781 260.639 4.72781C259.956 4.72781 259.412 4.94648 259.007 5.38381C258.612 5.81048 258.399 6.42915 258.367 7.23981L258.351 7.84781L258.367 8.45581C258.399 9.26648 258.612 9.89048 259.007 10.3278C259.412 10.7545 259.956 10.9678 260.639 10.9678ZM266.787 12.0078C266.68 12.0078 266.589 11.9758 266.515 11.9118C266.451 11.8371 266.419 11.7465 266.419 11.6398V4.07181C266.419 3.96515 266.451 3.87448 266.515 3.79981C266.589 3.72515 266.68 3.68781 266.787 3.68781H267.459C267.576 3.68781 267.667 3.72515 267.731 3.79981C267.805 3.86381 267.843 3.95448 267.843 4.07181V4.77581C268.28 4.05048 269.021 3.68781 270.067 3.68781H270.691C270.808 3.68781 270.899 3.71981 270.963 3.78381C271.027 3.84781 271.059 3.93848 271.059 4.05581V4.64781C271.059 4.75448 271.027 4.84515 270.963 4.91981C270.899 4.98381 270.808 5.01581 270.691 5.01581H269.779C269.192 5.01581 268.728 5.18648 268.387 5.52781C268.056 5.86915 267.891 6.33315 267.891 6.91981V11.6398C267.891 11.7465 267.853 11.8371 267.779 11.9118C267.704 11.9758 267.613 12.0078 267.507 12.0078H266.787ZM272.818 12.0078C272.712 12.0078 272.621 11.9758 272.546 11.9118C272.482 11.8371 272.45 11.7465 272.45 11.6398V1.01581C272.45 0.898479 272.482 0.807812 272.546 0.743812C272.621 0.679812 272.712 0.647812 272.818 0.647812H273.506C273.613 0.647812 273.698 0.685145 273.762 0.759812C273.837 0.823812 273.874 0.909145 273.874 1.01581V6.59981L277.074 3.95981C277.234 3.84248 277.346 3.76781 277.41 3.73581C277.474 3.70381 277.576 3.68781 277.714 3.68781H278.514C278.61 3.68781 278.685 3.71981 278.738 3.78381C278.802 3.83715 278.834 3.91715 278.834 4.02381C278.834 4.11981 278.776 4.22115 278.658 4.32781L274.914 7.39981L279.058 11.3678C279.176 11.4851 279.234 11.5865 279.234 11.6718C279.234 11.7678 279.202 11.8478 279.138 11.9118C279.085 11.9758 279.01 12.0078 278.914 12.0078H278.13C277.97 12.0078 277.853 11.9918 277.778 11.9598C277.714 11.9278 277.618 11.8531 277.49 11.7358L273.874 8.31181V11.6398C273.874 11.7465 273.837 11.8371 273.762 11.9118C273.698 11.9758 273.613 12.0078 273.506 12.0078H272.818ZM287.275 12.0078C285.622 12.0078 284.795 11.0745 284.795 9.20781V4.91981H283.531C283.424 4.91981 283.339 4.88781 283.275 4.82381C283.211 4.75981 283.179 4.67448 283.179 4.56781V4.05581C283.179 3.94915 283.211 3.86381 283.275 3.79981C283.339 3.72515 283.424 3.68781 283.531 3.68781H284.795V1.01581C284.795 0.909145 284.827 0.823812 284.891 0.759812C284.955 0.685145 285.04 0.647812 285.147 0.647812H285.851C285.958 0.647812 286.043 0.685145 286.107 0.759812C286.182 0.823812 286.219 0.909145 286.219 1.01581V3.68781H288.203C288.31 3.68781 288.395 3.72515 288.459 3.79981C288.534 3.86381 288.571 3.94915 288.571 4.05581V4.56781C288.571 4.67448 288.534 4.75981 288.459 4.82381C288.395 4.88781 288.31 4.91981 288.203 4.91981H286.219V9.09581C286.219 9.63981 286.304 10.0505 286.475 10.3278C286.656 10.6051 286.96 10.7438 287.387 10.7438H288.363C288.47 10.7438 288.555 10.7811 288.619 10.8558C288.683 10.9198 288.715 11.0051 288.715 11.1118V11.6398C288.715 11.7465 288.683 11.8371 288.619 11.9118C288.555 11.9758 288.47 12.0078 288.363 12.0078H287.275ZM290.662 12.0078C290.555 12.0078 290.465 11.9758 290.39 11.9118C290.326 11.8371 290.294 11.7465 290.294 11.6398V1.01581C290.294 0.898479 290.326 0.807812 290.39 0.743812C290.465 0.679812 290.555 0.647812 290.662 0.647812H291.398C291.515 0.647812 291.606 0.679812 291.67 0.743812C291.734 0.807812 291.766 0.898479 291.766 1.01581V4.74381C292.075 4.34915 292.438 4.05048 292.854 3.84781C293.281 3.63448 293.803 3.52781 294.422 3.52781C295.446 3.52781 296.241 3.85848 296.806 4.51981C297.382 5.17048 297.67 6.03448 297.67 7.11181V11.6398C297.67 11.7465 297.633 11.8371 297.558 11.9118C297.494 11.9758 297.409 12.0078 297.302 12.0078H296.55C296.443 12.0078 296.353 11.9758 296.278 11.9118C296.214 11.8371 296.182 11.7465 296.182 11.6398V7.20781C296.182 6.43981 295.995 5.84248 295.622 5.41581C295.249 4.98915 294.71 4.77581 294.006 4.77581C293.323 4.77581 292.779 4.99448 292.374 5.43181C291.969 5.85848 291.766 6.45048 291.766 7.20781V11.6398C291.766 11.7465 291.729 11.8371 291.654 11.9118C291.59 11.9758 291.505 12.0078 291.398 12.0078H290.662ZM302.301 12.1678C301.778 12.1678 301.293 12.0611 300.845 11.8478C300.408 11.6345 300.056 11.3465 299.789 10.9838C299.533 10.6105 299.405 10.1998 299.405 9.75181C299.405 9.04781 299.693 8.47181 300.269 8.02381C300.845 7.57581 301.629 7.27715 302.621 7.12781L305.021 6.79181V6.32781C305.021 5.22915 304.386 4.67981 303.117 4.67981C302.626 4.67981 302.232 4.78115 301.933 4.98381C301.634 5.17581 301.416 5.40515 301.277 5.67181C301.234 5.77848 301.186 5.85315 301.133 5.89581C301.09 5.92781 301.026 5.94381 300.941 5.94381H300.317C300.221 5.94381 300.136 5.91181 300.061 5.84781C299.997 5.77315 299.965 5.68781 299.965 5.59181C299.965 5.34648 300.077 5.06381 300.301 4.74381C300.536 4.41315 300.893 4.13048 301.373 3.89581C301.853 3.65048 302.44 3.52781 303.133 3.52781C304.328 3.52781 305.181 3.80515 305.693 4.35981C306.216 4.91448 306.477 5.60781 306.477 6.43981V11.6398C306.477 11.7465 306.44 11.8371 306.365 11.9118C306.301 11.9758 306.216 12.0078 306.109 12.0078H305.405C305.298 12.0078 305.213 11.9758 305.149 11.9118C305.085 11.8371 305.053 11.7465 305.053 11.6398V10.9358C304.818 11.2878 304.477 11.5811 304.029 11.8158C303.581 12.0505 303.005 12.1678 302.301 12.1678ZM302.621 10.9998C303.325 10.9998 303.901 10.7705 304.349 10.3118C304.797 9.85315 305.021 9.18648 305.021 8.31181V7.86381L303.149 8.13581C302.381 8.24248 301.8 8.42381 301.405 8.67981C301.01 8.93581 300.813 9.25581 300.813 9.63981C300.813 10.0771 300.989 10.4131 301.341 10.6478C301.704 10.8825 302.13 10.9998 302.621 10.9998ZM311.916 12.0078C310.262 12.0078 309.436 11.0745 309.436 9.20781V4.91981H308.172C308.065 4.91981 307.98 4.88781 307.916 4.82381C307.852 4.75981 307.82 4.67448 307.82 4.56781V4.05581C307.82 3.94915 307.852 3.86381 307.916 3.79981C307.98 3.72515 308.065 3.68781 308.172 3.68781H309.436V1.01581C309.436 0.909145 309.468 0.823812 309.532 0.759812C309.596 0.685145 309.681 0.647812 309.788 0.647812H310.492C310.598 0.647812 310.684 0.685145 310.748 0.759812C310.822 0.823812 310.86 0.909145 310.86 1.01581V3.68781H312.844C312.95 3.68781 313.036 3.72515 313.1 3.79981C313.174 3.86381 313.212 3.94915 313.212 4.05581V4.56781C313.212 4.67448 313.174 4.75981 313.1 4.82381C313.036 4.88781 312.95 4.91981 312.844 4.91981H310.86V9.09581C310.86 9.63981 310.945 10.0505 311.116 10.3278C311.297 10.6051 311.601 10.7438 312.028 10.7438H313.004C313.11 10.7438 313.196 10.7811 313.26 10.8558C313.324 10.9198 313.356 11.0051 313.356 11.1118V11.6398C313.356 11.7465 313.324 11.8371 313.26 11.9118C313.196 11.9758 313.11 12.0078 313.004 12.0078H311.916ZM0.584 42.0078C0.477333 42.0078 0.386667 41.9758 0.312 41.9118C0.248 41.8371 0.216 41.7465 0.216 41.6398V31.0158C0.216 30.8985 0.248 30.8078 0.312 30.7438C0.386667 30.6798 0.477333 30.6478 0.584 30.6478H1.32C1.43733 30.6478 1.528 30.6798 1.592 30.7438C1.656 30.8078 1.688 30.8985 1.688 31.0158V34.7438C1.99733 34.3491 2.36 34.0505 2.776 33.8478C3.20267 33.6345 3.72533 33.5278 4.344 33.5278C5.368 33.5278 6.16267 33.8585 6.728 34.5198C7.304 35.1705 7.592 36.0345 7.592 37.1118V41.6398C7.592 41.7465 7.55467 41.8371 7.48 41.9118C7.416 41.9758 7.33067 42.0078 7.224 42.0078H6.472C6.36533 42.0078 6.27467 41.9758 6.2 41.9118C6.136 41.8371 6.104 41.7465 6.104 41.6398V37.2078C6.104 36.4398 5.91733 35.8425 5.544 35.4158C5.17067 34.9891 4.632 34.7758 3.928 34.7758C3.24533 34.7758 2.70133 34.9945 2.296 35.4318C1.89067 35.8585 1.688 36.4505 1.688 37.2078V41.6398C1.688 41.7465 1.65067 41.8371 1.576 41.9118C1.512 41.9758 1.42667 42.0078 1.32 42.0078H0.584ZM12.2228 42.1678C11.7001 42.1678 11.2148 42.0611 10.7668 41.8478C10.3294 41.6345 9.97742 41.3465 9.71075 40.9838C9.45475 40.6105 9.32675 40.1998 9.32675 39.7518C9.32675 39.0478 9.61475 38.4718 10.1908 38.0238C10.7668 37.5758 11.5508 37.2771 12.5428 37.1278L14.9428 36.7918V36.3278C14.9428 35.2291 14.3081 34.6798 13.0388 34.6798C12.5481 34.6798 12.1534 34.7811 11.8548 34.9838C11.5561 35.1758 11.3374 35.4051 11.1988 35.6718C11.1561 35.7785 11.1081 35.8531 11.0548 35.8958C11.0121 35.9278 10.9481 35.9438 10.8628 35.9438H10.2388C10.1428 35.9438 10.0574 35.9118 9.98275 35.8478C9.91875 35.7731 9.88675 35.6878 9.88675 35.5918C9.88675 35.3465 9.99875 35.0638 10.2228 34.7438C10.4574 34.4131 10.8148 34.1305 11.2948 33.8958C11.7748 33.6505 12.3614 33.5278 13.0548 33.5278C14.2494 33.5278 15.1028 33.8051 15.6148 34.3598C16.1374 34.9145 16.3988 35.6078 16.3988 36.4398V41.6398C16.3988 41.7465 16.3614 41.8371 16.2868 41.9118C16.2228 41.9758 16.1374 42.0078 16.0308 42.0078H15.3268C15.2201 42.0078 15.1348 41.9758 15.0708 41.9118C15.0068 41.8371 14.9748 41.7465 14.9748 41.6398V40.9358C14.7401 41.2878 14.3988 41.5811 13.9508 41.8158C13.5028 42.0505 12.9268 42.1678 12.2228 42.1678ZM12.5428 40.9998C13.2468 40.9998 13.8228 40.7705 14.2708 40.3118C14.7188 39.8531 14.9428 39.1865 14.9428 38.3118V37.8638L13.0708 38.1358C12.3028 38.2425 11.7214 38.4238 11.3268 38.6798C10.9321 38.9358 10.7348 39.2558 10.7348 39.6398C10.7348 40.0771 10.9108 40.4131 11.2628 40.6478C11.6254 40.8825 12.0521 40.9998 12.5428 40.9998ZM21.5636 42.1678C20.8276 42.1678 20.2036 42.0505 19.6916 41.8158C19.1903 41.5705 18.817 41.2931 18.5716 40.9838C18.3263 40.6745 18.2036 40.4185 18.2036 40.2158C18.2036 40.1091 18.241 40.0291 18.3156 39.9758C18.3903 39.9118 18.4703 39.8798 18.5556 39.8798H19.2276C19.2916 39.8798 19.3396 39.8905 19.3716 39.9118C19.4143 39.9331 19.4676 39.9811 19.5316 40.0558C19.777 40.3545 20.049 40.5891 20.3476 40.7598C20.657 40.9305 21.0676 41.0158 21.5796 41.0158C22.1556 41.0158 22.6143 40.9091 22.9556 40.6958C23.3076 40.4825 23.4836 40.1731 23.4836 39.7678C23.4836 39.5011 23.409 39.2878 23.2596 39.1278C23.1103 38.9678 22.8596 38.8238 22.5076 38.6958C22.1663 38.5678 21.6543 38.4291 20.9716 38.2798C20.0436 38.0771 19.3876 37.7838 19.0036 37.3998C18.6196 37.0158 18.4276 36.5198 18.4276 35.9118C18.4276 35.5171 18.545 35.1385 18.7796 34.7758C19.0143 34.4025 19.361 34.1038 19.8196 33.8798C20.289 33.6451 20.8436 33.5278 21.4836 33.5278C22.1556 33.5278 22.7263 33.6398 23.1956 33.8638C23.6756 34.0878 24.033 34.3491 24.2676 34.6478C24.513 34.9465 24.6356 35.1971 24.6356 35.3998C24.6356 35.4958 24.5983 35.5758 24.5236 35.6398C24.4596 35.7038 24.3796 35.7358 24.2836 35.7358H23.6756C23.5263 35.7358 23.4196 35.6771 23.3556 35.5598C23.1743 35.3571 23.0196 35.2025 22.8916 35.0958C22.7743 34.9785 22.5983 34.8825 22.3636 34.8078C22.129 34.7225 21.8356 34.6798 21.4836 34.6798C20.961 34.6798 20.561 34.7918 20.2836 35.0158C20.0063 35.2291 19.8676 35.5171 19.8676 35.8798C19.8676 36.1038 19.9263 36.2958 20.0436 36.4558C20.161 36.6051 20.385 36.7491 20.7156 36.8878C21.0463 37.0158 21.537 37.1491 22.1876 37.2878C23.201 37.5011 23.9156 37.8051 24.3316 38.1998C24.7583 38.5945 24.9716 39.1011 24.9716 39.7198C24.9716 40.1785 24.8383 40.5945 24.5716 40.9678C24.3156 41.3411 23.9263 41.6345 23.4036 41.8478C22.8916 42.0611 22.2783 42.1678 21.5636 42.1678ZM33.8821 42.1678C32.8688 42.1678 32.0848 41.8425 31.5301 41.1918C30.9755 40.5305 30.6981 39.6558 30.6981 38.5678V34.0558C30.6981 33.9491 30.7301 33.8638 30.7941 33.7998C30.8688 33.7251 30.9595 33.6878 31.0661 33.6878H31.8021C31.9088 33.6878 31.9941 33.7251 32.0581 33.7998C32.1328 33.8638 32.1701 33.9491 32.1701 34.0558V38.4878C32.1701 40.1091 32.8741 40.9198 34.2821 40.9198C34.9648 40.9198 35.5035 40.7065 35.8981 40.2798C36.3035 39.8425 36.5061 39.2451 36.5061 38.4878V34.0558C36.5061 33.9491 36.5381 33.8638 36.6021 33.7998C36.6768 33.7251 36.7675 33.6878 36.8741 33.6878H37.6101C37.7168 33.6878 37.8021 33.7251 37.8661 33.7998C37.9408 33.8638 37.9781 33.9491 37.9781 34.0558V41.6398C37.9781 41.7465 37.9408 41.8371 37.8661 41.9118C37.8021 41.9758 37.7168 42.0078 37.6101 42.0078H36.9221C36.8155 42.0078 36.7248 41.9758 36.6501 41.9118C36.5861 41.8371 36.5541 41.7465 36.5541 41.6398V40.9198C36.2448 41.3358 35.8821 41.6505 35.4661 41.8638C35.0501 42.0665 34.5221 42.1678 33.8821 42.1678ZM40.7399 42.0078C40.6332 42.0078 40.5425 41.9758 40.4679 41.9118C40.4039 41.8371 40.3719 41.7465 40.3719 41.6398V34.0558C40.3719 33.9491 40.4039 33.8638 40.4679 33.7998C40.5425 33.7251 40.6332 33.6878 40.7399 33.6878H41.4279C41.5452 33.6878 41.6359 33.7198 41.6999 33.7838C41.7639 33.8478 41.7959 33.9385 41.7959 34.0558V34.7598C42.1159 34.3651 42.4839 34.0611 42.8999 33.8478C43.3265 33.6345 43.8545 33.5278 44.4839 33.5278C45.5079 33.5278 46.3025 33.8585 46.8679 34.5198C47.4332 35.1705 47.7159 36.0345 47.7159 37.1118V41.6398C47.7159 41.7465 47.6785 41.8371 47.6039 41.9118C47.5399 41.9758 47.4545 42.0078 47.3479 42.0078H46.6119C46.5052 42.0078 46.4145 41.9758 46.3399 41.9118C46.2759 41.8371 46.2439 41.7465 46.2439 41.6398V37.2078C46.2439 36.4398 46.0572 35.8425 45.6839 35.4158C45.3105 34.9891 44.7772 34.7758 44.0839 34.7758C43.4012 34.7758 42.8572 34.9945 42.4519 35.4318C42.0465 35.8585 41.8439 36.4505 41.8439 37.2078V41.6398C41.8439 41.7465 41.8065 41.8371 41.7319 41.9118C41.6679 41.9758 41.5825 42.0078 41.4759 42.0078H40.7399ZM50.2681 32.1198C50.1615 32.1198 50.0708 32.0878 49.9961 32.0238C49.9321 31.9491 49.9001 31.8585 49.9001 31.7518V30.9198C49.9001 30.8131 49.9321 30.7225 49.9961 30.6478C50.0708 30.5731 50.1615 30.5358 50.2681 30.5358H51.2121C51.3188 30.5358 51.4095 30.5731 51.4841 30.6478C51.5588 30.7225 51.5961 30.8131 51.5961 30.9198V31.7518C51.5961 31.8585 51.5588 31.9491 51.4841 32.0238C51.4095 32.0878 51.3188 32.1198 51.2121 32.1198H50.2681ZM50.3961 42.0078C50.2895 42.0078 50.1988 41.9758 50.1241 41.9118C50.0601 41.8371 50.0281 41.7465 50.0281 41.6398V34.0558C50.0281 33.9491 50.0601 33.8638 50.1241 33.7998C50.1988 33.7251 50.2895 33.6878 50.3961 33.6878H51.1001C51.2068 33.6878 51.2921 33.7251 51.3561 33.7998C51.4308 33.8638 51.4681 33.9491 51.4681 34.0558V41.6398C51.4681 41.7465 51.4308 41.8371 51.3561 41.9118C51.2921 41.9758 51.2068 42.0078 51.1001 42.0078H50.3961ZM59.8879 45.0478C59.7812 45.0478 59.6905 45.0158 59.6159 44.9518C59.5519 44.8878 59.5199 44.7971 59.5199 44.6798V40.9518C58.9119 41.7625 58.0479 42.1678 56.9279 42.1678C55.8079 42.1678 54.9652 41.8105 54.3999 41.0958C53.8345 40.3811 53.5359 39.4798 53.5039 38.3918L53.4879 37.8478L53.5039 37.3038C53.5465 36.2051 53.8452 35.3038 54.3999 34.5998C54.9652 33.8851 55.8079 33.5278 56.9279 33.5278C58.0799 33.5278 58.9545 33.9385 59.5519 34.7598V34.0558C59.5519 33.9491 59.5839 33.8638 59.6479 33.7998C59.7225 33.7251 59.8132 33.6878 59.9199 33.6878H60.6079C60.7145 33.6878 60.7999 33.7251 60.8639 33.7998C60.9385 33.8638 60.9759 33.9491 60.9759 34.0558V44.6798C60.9759 44.7865 60.9385 44.8718 60.8639 44.9358C60.7999 45.0105 60.7145 45.0478 60.6079 45.0478H59.8879ZM57.2319 40.9198C57.9572 40.9198 58.5119 40.6851 58.8959 40.2158C59.2905 39.7358 59.4985 39.1705 59.5199 38.5198C59.5305 38.4025 59.5359 38.1945 59.5359 37.8958C59.5359 37.5971 59.5305 37.3891 59.5199 37.2718C59.4879 36.5891 59.2852 36.0025 58.9119 35.5118C58.5385 35.0211 57.9785 34.7758 57.2319 34.7758C56.4639 34.7758 55.9039 35.0158 55.5519 35.4958C55.1999 35.9758 55.0079 36.6051 54.9759 37.3838L54.9599 37.8478C54.9599 39.8958 55.7172 40.9198 57.2319 40.9198ZM66.4759 42.1678C65.4625 42.1678 64.6785 41.8425 64.1239 41.1918C63.5692 40.5305 63.2919 39.6558 63.2919 38.5678V34.0558C63.2919 33.9491 63.3239 33.8638 63.3879 33.7998C63.4625 33.7251 63.5532 33.6878 63.6599 33.6878H64.3959C64.5025 33.6878 64.5879 33.7251 64.6519 33.7998C64.7265 33.8638 64.7639 33.9491 64.7639 34.0558V38.4878C64.7639 40.1091 65.4679 40.9198 66.8759 40.9198C67.5585 40.9198 68.0972 40.7065 68.4919 40.2798C68.8972 39.8425 69.0999 39.2451 69.0999 38.4878V34.0558C69.0999 33.9491 69.1319 33.8638 69.1959 33.7998C69.2705 33.7251 69.3612 33.6878 69.4679 33.6878H70.2039C70.3105 33.6878 70.3959 33.7251 70.4599 33.7998C70.5345 33.8638 70.5719 33.9491 70.5719 34.0558V41.6398C70.5719 41.7465 70.5345 41.8371 70.4599 41.9118C70.3959 41.9758 70.3105 42.0078 70.2039 42.0078H69.5159C69.4092 42.0078 69.3185 41.9758 69.2439 41.9118C69.1799 41.8371 69.1479 41.7465 69.1479 41.6398V40.9198C68.8385 41.3358 68.4759 41.6505 68.0599 41.8638C67.6439 42.0665 67.1159 42.1678 66.4759 42.1678ZM76.2616 42.1678C75.1736 42.1678 74.3043 41.8318 73.6536 41.1598C73.003 40.4771 72.6456 39.5491 72.5816 38.3758L72.5656 37.8318L72.5816 37.3038C72.6456 36.1518 73.003 35.2345 73.6536 34.5518C74.3043 33.8691 75.1736 33.5278 76.2616 33.5278C77.435 33.5278 78.3416 33.9011 78.9816 34.6478C79.6323 35.3945 79.9576 36.4078 79.9576 37.6878V37.9758C79.9576 38.0825 79.9203 38.1731 79.8456 38.2478C79.7816 38.3118 79.6963 38.3438 79.5896 38.3438H74.0376V38.4878C74.0696 39.1811 74.283 39.7731 74.6776 40.2638C75.0723 40.7545 75.595 40.9998 76.2456 40.9998C76.747 40.9998 77.1523 40.9038 77.4616 40.7118C77.7816 40.5091 78.0216 40.3011 78.1816 40.0878C78.2776 39.9598 78.3523 39.8851 78.4056 39.8638C78.459 39.8318 78.5496 39.8158 78.6776 39.8158H79.3816C79.4776 39.8158 79.5576 39.8425 79.6216 39.8958C79.6963 39.9491 79.7336 40.0185 79.7336 40.1038C79.7336 40.3385 79.5896 40.6211 79.3016 40.9518C79.0136 41.2825 78.603 41.5705 78.0696 41.8158C77.547 42.0505 76.9443 42.1678 76.2616 42.1678ZM78.5016 37.2558V37.2078C78.5016 36.4611 78.299 35.8531 77.8936 35.3838C77.4883 34.9145 76.9443 34.6798 76.2616 34.6798C75.5683 34.6798 75.0243 34.9145 74.6296 35.3838C74.235 35.8531 74.0376 36.4611 74.0376 37.2078V37.2558H78.5016ZM86.7438 42.0078C86.6371 42.0078 86.5464 41.9758 86.4718 41.9118C86.4078 41.8371 86.3758 41.7465 86.3758 41.6398V34.9198H84.9998C84.8931 34.9198 84.8024 34.8878 84.7278 34.8238C84.6638 34.7598 84.6318 34.6745 84.6318 34.5678V34.0558C84.6318 33.9491 84.6638 33.8638 84.7278 33.7998C84.8024 33.7251 84.8931 33.6878 84.9998 33.6878H86.3758V32.8878C86.3758 32.0238 86.5838 31.3571 86.9998 30.8878C87.4264 30.4078 88.1198 30.1678 89.0798 30.1678H90.0238C90.1304 30.1678 90.2158 30.2051 90.2798 30.2798C90.3544 30.3438 90.3918 30.4291 90.3918 30.5358V31.0478C90.3918 31.1545 90.3544 31.2398 90.2798 31.3038C90.2158 31.3678 90.1304 31.3998 90.0238 31.3998H89.1118C88.6211 31.3998 88.2798 31.5278 88.0878 31.7838C87.8958 32.0398 87.7998 32.4345 87.7998 32.9678V33.6878H89.8638C89.9704 33.6878 90.0558 33.7251 90.1198 33.7998C90.1944 33.8638 90.2318 33.9491 90.2318 34.0558V34.5678C90.2318 34.6745 90.1944 34.7598 90.1198 34.8238C90.0558 34.8878 89.9704 34.9198 89.8638 34.9198H87.7998V41.6398C87.7998 41.7465 87.7624 41.8371 87.6878 41.9118C87.6238 41.9758 87.5384 42.0078 87.4318 42.0078H86.7438ZM94.7929 42.1678C93.7049 42.1678 92.8355 41.8318 92.1849 41.1598C91.5342 40.4771 91.1769 39.5491 91.1129 38.3758L91.0969 37.8318L91.1129 37.3038C91.1769 36.1518 91.5342 35.2345 92.1849 34.5518C92.8355 33.8691 93.7049 33.5278 94.7929 33.5278C95.9662 33.5278 96.8729 33.9011 97.5129 34.6478C98.1635 35.3945 98.4889 36.4078 98.4889 37.6878V37.9758C98.4889 38.0825 98.4515 38.1731 98.3769 38.2478C98.3129 38.3118 98.2275 38.3438 98.1209 38.3438H92.5689V38.4878C92.6009 39.1811 92.8142 39.7731 93.2089 40.2638C93.6035 40.7545 94.1262 40.9998 94.7769 40.9998C95.2782 40.9998 95.6835 40.9038 95.9929 40.7118C96.3129 40.5091 96.5529 40.3011 96.7129 40.0878C96.8089 39.9598 96.8835 39.8851 96.9369 39.8638C96.9902 39.8318 97.0809 39.8158 97.2089 39.8158H97.9129C98.0089 39.8158 98.0889 39.8425 98.1529 39.8958C98.2275 39.9491 98.2649 40.0185 98.2649 40.1038C98.2649 40.3385 98.1209 40.6211 97.8329 40.9518C97.5449 41.2825 97.1342 41.5705 96.6009 41.8158C96.0782 42.0505 95.4755 42.1678 94.7929 42.1678ZM97.0329 37.2558V37.2078C97.0329 36.4611 96.8302 35.8531 96.4249 35.3838C96.0195 34.9145 95.4755 34.6798 94.7929 34.6798C94.0995 34.6798 93.5555 34.9145 93.1609 35.3838C92.7662 35.8531 92.5689 36.4611 92.5689 37.2078V37.2558H97.0329ZM102.738 42.1678C102.216 42.1678 101.73 42.0611 101.282 41.8478C100.845 41.6345 100.493 41.3465 100.226 40.9838C99.9704 40.6105 99.8424 40.1998 99.8424 39.7518C99.8424 39.0478 100.13 38.4718 100.706 38.0238C101.282 37.5758 102.066 37.2771 103.058 37.1278L105.458 36.7918V36.3278C105.458 35.2291 104.824 34.6798 103.554 34.6798C103.064 34.6798 102.669 34.7811 102.37 34.9838C102.072 35.1758 101.853 35.4051 101.714 35.6718C101.672 35.7785 101.624 35.8531 101.57 35.8958C101.528 35.9278 101.464 35.9438 101.378 35.9438H100.754C100.658 35.9438 100.573 35.9118 100.498 35.8478C100.434 35.7731 100.402 35.6878 100.402 35.5918C100.402 35.3465 100.514 35.0638 100.738 34.7438C100.973 34.4131 101.33 34.1305 101.81 33.8958C102.29 33.6505 102.877 33.5278 103.57 33.5278C104.765 33.5278 105.618 33.8051 106.13 34.3598C106.653 34.9145 106.914 35.6078 106.914 36.4398V41.6398C106.914 41.7465 106.877 41.8371 106.802 41.9118C106.738 41.9758 106.653 42.0078 106.546 42.0078H105.842C105.736 42.0078 105.65 41.9758 105.586 41.9118C105.522 41.8371 105.49 41.7465 105.49 41.6398V40.9358C105.256 41.2878 104.914 41.5811 104.466 41.8158C104.018 42.0505 103.442 42.1678 102.738 42.1678ZM103.058 40.9998C103.762 40.9998 104.338 40.7705 104.786 40.3118C105.234 39.8531 105.458 39.1865 105.458 38.3118V37.8638L103.586 38.1358C102.818 38.2425 102.237 38.4238 101.842 38.6798C101.448 38.9358 101.25 39.2558 101.25 39.6398C101.25 40.0771 101.426 40.4131 101.778 40.6478C102.141 40.8825 102.568 40.9998 103.058 40.9998ZM112.353 42.0078C110.7 42.0078 109.873 41.0745 109.873 39.2078V34.9198H108.609C108.502 34.9198 108.417 34.8878 108.353 34.8238C108.289 34.7598 108.257 34.6745 108.257 34.5678V34.0558C108.257 33.9491 108.289 33.8638 108.353 33.7998C108.417 33.7251 108.502 33.6878 108.609 33.6878H109.873V31.0158C109.873 30.9091 109.905 30.8238 109.969 30.7598C110.033 30.6851 110.118 30.6478 110.225 30.6478H110.929C111.036 30.6478 111.121 30.6851 111.185 30.7598C111.26 30.8238 111.297 30.9091 111.297 31.0158V33.6878H113.281C113.388 33.6878 113.473 33.7251 113.537 33.7998C113.612 33.8638 113.649 33.9491 113.649 34.0558V34.5678C113.649 34.6745 113.612 34.7598 113.537 34.8238C113.473 34.8878 113.388 34.9198 113.281 34.9198H111.297V39.0958C111.297 39.6398 111.382 40.0505 111.553 40.3278C111.734 40.6051 112.038 40.7438 112.465 40.7438H113.441C113.548 40.7438 113.633 40.7811 113.697 40.8558C113.761 40.9198 113.793 41.0051 113.793 41.1118V41.6398C113.793 41.7465 113.761 41.8371 113.697 41.9118C113.633 41.9758 113.548 42.0078 113.441 42.0078H112.353ZM118.46 42.1678C117.447 42.1678 116.663 41.8425 116.108 41.1918C115.554 40.5305 115.276 39.6558 115.276 38.5678V34.0558C115.276 33.9491 115.308 33.8638 115.372 33.7998C115.447 33.7251 115.538 33.6878 115.644 33.6878H116.38C116.487 33.6878 116.572 33.7251 116.636 33.7998C116.711 33.8638 116.748 33.9491 116.748 34.0558V38.4878C116.748 40.1091 117.452 40.9198 118.86 40.9198C119.543 40.9198 120.082 40.7065 120.476 40.2798C120.882 39.8425 121.084 39.2451 121.084 38.4878V34.0558C121.084 33.9491 121.116 33.8638 121.18 33.7998C121.255 33.7251 121.346 33.6878 121.452 33.6878H122.188C122.295 33.6878 122.38 33.7251 122.444 33.7998C122.519 33.8638 122.556 33.9491 122.556 34.0558V41.6398C122.556 41.7465 122.519 41.8371 122.444 41.9118C122.38 41.9758 122.295 42.0078 122.188 42.0078H121.5C121.394 42.0078 121.303 41.9758 121.228 41.9118C121.164 41.8371 121.132 41.7465 121.132 41.6398V40.9198C120.823 41.3358 120.46 41.6505 120.044 41.8638C119.628 42.0665 119.1 42.1678 118.46 42.1678ZM125.318 42.0078C125.211 42.0078 125.121 41.9758 125.046 41.9118C124.982 41.8371 124.95 41.7465 124.95 41.6398V34.0718C124.95 33.9651 124.982 33.8745 125.046 33.7998C125.121 33.7251 125.211 33.6878 125.318 33.6878H125.99C126.107 33.6878 126.198 33.7251 126.262 33.7998C126.337 33.8638 126.374 33.9545 126.374 34.0718V34.7758C126.811 34.0505 127.553 33.6878 128.598 33.6878H129.222C129.339 33.6878 129.43 33.7198 129.494 33.7838C129.558 33.8478 129.59 33.9385 129.59 34.0558V34.6478C129.59 34.7545 129.558 34.8451 129.494 34.9198C129.43 34.9838 129.339 35.0158 129.222 35.0158H128.31C127.723 35.0158 127.259 35.1865 126.918 35.5278C126.587 35.8691 126.422 36.3331 126.422 36.9198V41.6398C126.422 41.7465 126.385 41.8371 126.31 41.9118C126.235 41.9758 126.145 42.0078 126.038 42.0078H125.318ZM134.105 42.1678C133.017 42.1678 132.148 41.8318 131.497 41.1598C130.847 40.4771 130.489 39.5491 130.425 38.3758L130.409 37.8318L130.425 37.3038C130.489 36.1518 130.847 35.2345 131.497 34.5518C132.148 33.8691 133.017 33.5278 134.105 33.5278C135.279 33.5278 136.185 33.9011 136.825 34.6478C137.476 35.3945 137.801 36.4078 137.801 37.6878V37.9758C137.801 38.0825 137.764 38.1731 137.689 38.2478C137.625 38.3118 137.54 38.3438 137.433 38.3438H131.881V38.4878C131.913 39.1811 132.127 39.7731 132.521 40.2638C132.916 40.7545 133.439 40.9998 134.089 40.9998C134.591 40.9998 134.996 40.9038 135.305 40.7118C135.625 40.5091 135.865 40.3011 136.025 40.0878C136.121 39.9598 136.196 39.8851 136.249 39.8638C136.303 39.8318 136.393 39.8158 136.521 39.8158H137.225C137.321 39.8158 137.401 39.8425 137.465 39.8958C137.54 39.9491 137.577 40.0185 137.577 40.1038C137.577 40.3385 137.433 40.6211 137.145 40.9518C136.857 41.2825 136.447 41.5705 135.913 41.8158C135.391 42.0505 134.788 42.1678 134.105 42.1678ZM136.345 37.2558V37.2078C136.345 36.4611 136.143 35.8531 135.737 35.3838C135.332 34.9145 134.788 34.6798 134.105 34.6798C133.412 34.6798 132.868 34.9145 132.473 35.3838C132.079 35.8531 131.881 36.4611 131.881 37.2078V37.2558H136.345ZM142.595 42.1678C141.859 42.1678 141.235 42.0505 140.723 41.8158C140.222 41.5705 139.848 41.2931 139.603 40.9838C139.358 40.6745 139.235 40.4185 139.235 40.2158C139.235 40.1091 139.272 40.0291 139.347 39.9758C139.422 39.9118 139.502 39.8798 139.587 39.8798H140.259C140.323 39.8798 140.371 39.8905 140.403 39.9118C140.446 39.9331 140.499 39.9811 140.563 40.0558C140.808 40.3545 141.08 40.5891 141.379 40.7598C141.688 40.9305 142.099 41.0158 142.611 41.0158C143.187 41.0158 143.646 40.9091 143.987 40.6958C144.339 40.4825 144.515 40.1731 144.515 39.7678C144.515 39.5011 144.44 39.2878 144.291 39.1278C144.142 38.9678 143.891 38.8238 143.539 38.6958C143.198 38.5678 142.686 38.4291 142.003 38.2798C141.075 38.0771 140.419 37.7838 140.035 37.3998C139.651 37.0158 139.459 36.5198 139.459 35.9118C139.459 35.5171 139.576 35.1385 139.811 34.7758C140.046 34.4025 140.392 34.1038 140.851 33.8798C141.32 33.6451 141.875 33.5278 142.515 33.5278C143.187 33.5278 143.758 33.6398 144.227 33.8638C144.707 34.0878 145.064 34.3491 145.299 34.6478C145.544 34.9465 145.667 35.1971 145.667 35.3998C145.667 35.4958 145.63 35.5758 145.555 35.6398C145.491 35.7038 145.411 35.7358 145.315 35.7358H144.707C144.558 35.7358 144.451 35.6771 144.387 35.5598C144.206 35.3571 144.051 35.2025 143.923 35.0958C143.806 34.9785 143.63 34.8825 143.395 34.8078C143.16 34.7225 142.867 34.6798 142.515 34.6798C141.992 34.6798 141.592 34.7918 141.315 35.0158C141.038 35.2291 140.899 35.5171 140.899 35.8798C140.899 36.1038 140.958 36.2958 141.075 36.4558C141.192 36.6051 141.416 36.7491 141.747 36.8878C142.078 37.0158 142.568 37.1491 143.219 37.2878C144.232 37.5011 144.947 37.8051 145.363 38.1998C145.79 38.5945 146.003 39.1011 146.003 39.7198C146.003 40.1785 145.87 40.5945 145.603 40.9678C145.347 41.3411 144.958 41.6345 144.435 41.8478C143.923 42.0611 143.31 42.1678 142.595 42.1678ZM154.113 42.1678C153.591 42.1678 153.105 42.0611 152.657 41.8478C152.22 41.6345 151.868 41.3465 151.601 40.9838C151.345 40.6105 151.217 40.1998 151.217 39.7518C151.217 39.0478 151.505 38.4718 152.081 38.0238C152.657 37.5758 153.441 37.2771 154.433 37.1278L156.833 36.7918V36.3278C156.833 35.2291 156.199 34.6798 154.929 34.6798C154.439 34.6798 154.044 34.7811 153.745 34.9838C153.447 35.1758 153.228 35.4051 153.089 35.6718C153.047 35.7785 152.999 35.8531 152.945 35.8958C152.903 35.9278 152.839 35.9438 152.753 35.9438H152.129C152.033 35.9438 151.948 35.9118 151.873 35.8478C151.809 35.7731 151.777 35.6878 151.777 35.5918C151.777 35.3465 151.889 35.0638 152.113 34.7438C152.348 34.4131 152.705 34.1305 153.185 33.8958C153.665 33.6505 154.252 33.5278 154.945 33.5278C156.14 33.5278 156.993 33.8051 157.505 34.3598C158.028 34.9145 158.289 35.6078 158.289 36.4398V41.6398C158.289 41.7465 158.252 41.8371 158.177 41.9118C158.113 41.9758 158.028 42.0078 157.921 42.0078H157.217C157.111 42.0078 157.025 41.9758 156.961 41.9118C156.897 41.8371 156.865 41.7465 156.865 41.6398V40.9358C156.631 41.2878 156.289 41.5811 155.841 41.8158C155.393 42.0505 154.817 42.1678 154.113 42.1678ZM154.433 40.9998C155.137 40.9998 155.713 40.7705 156.161 40.3118C156.609 39.8531 156.833 39.1865 156.833 38.3118V37.8638L154.961 38.1358C154.193 38.2425 153.612 38.4238 153.217 38.6798C152.823 38.9358 152.625 39.2558 152.625 39.6398C152.625 40.0771 152.801 40.4131 153.153 40.6478C153.516 40.8825 153.943 40.9998 154.433 40.9998ZM160.974 42.0078C160.868 42.0078 160.777 41.9758 160.702 41.9118C160.638 41.8371 160.606 41.7465 160.606 41.6398V34.0558C160.606 33.9491 160.638 33.8638 160.702 33.7998C160.777 33.7251 160.868 33.6878 160.974 33.6878H161.662C161.78 33.6878 161.87 33.7198 161.934 33.7838C161.998 33.8478 162.03 33.9385 162.03 34.0558V34.7598C162.35 34.3651 162.718 34.0611 163.134 33.8478C163.561 33.6345 164.089 33.5278 164.718 33.5278C165.742 33.5278 166.537 33.8585 167.102 34.5198C167.668 35.1705 167.95 36.0345 167.95 37.1118V41.6398C167.95 41.7465 167.913 41.8371 167.838 41.9118C167.774 41.9758 167.689 42.0078 167.582 42.0078H166.846C166.74 42.0078 166.649 41.9758 166.574 41.9118C166.51 41.8371 166.478 41.7465 166.478 41.6398V37.2078C166.478 36.4398 166.292 35.8425 165.918 35.4158C165.545 34.9891 165.012 34.7758 164.318 34.7758C163.636 34.7758 163.092 34.9945 162.686 35.4318C162.281 35.8585 162.078 36.4505 162.078 37.2078V41.6398C162.078 41.7465 162.041 41.8371 161.966 41.9118C161.902 41.9758 161.817 42.0078 161.71 42.0078H160.974ZM173.303 42.1678C172.183 42.1678 171.34 41.8051 170.775 41.0798C170.22 40.3545 169.921 39.4371 169.879 38.3278L169.863 37.8478L169.879 37.3678C169.921 36.2691 170.225 35.3571 170.791 34.6318C171.356 33.8958 172.193 33.5278 173.303 33.5278C174.412 33.5278 175.276 33.9225 175.895 34.7118V31.0158C175.895 30.9091 175.927 30.8238 175.991 30.7598C176.065 30.6851 176.156 30.6478 176.263 30.6478H176.983C177.089 30.6478 177.175 30.6851 177.239 30.7598C177.313 30.8238 177.351 30.9091 177.351 31.0158V41.6398C177.351 41.7465 177.313 41.8371 177.239 41.9118C177.175 41.9758 177.089 42.0078 176.983 42.0078H176.295C176.188 42.0078 176.103 41.9758 176.039 41.9118C175.975 41.8371 175.943 41.7465 175.943 41.6398V40.9518C175.335 41.7625 174.455 42.1678 173.303 42.1678ZM173.607 40.9198C174.353 40.9198 174.913 40.6745 175.287 40.1838C175.66 39.6825 175.863 39.0905 175.895 38.4078C175.905 38.2905 175.911 38.0878 175.911 37.7998C175.911 37.5011 175.905 37.2931 175.895 37.1758C175.873 36.5251 175.665 35.9651 175.271 35.4958C174.887 35.0158 174.332 34.7758 173.607 34.7758C172.839 34.7758 172.279 35.0158 171.927 35.4958C171.575 35.9758 171.383 36.6051 171.351 37.3838L171.335 37.8478C171.335 39.8958 172.092 40.9198 173.607 40.9198ZM184.084 42.0078C183.977 42.0078 183.887 41.9758 183.812 41.9118C183.748 41.8371 183.716 41.7465 183.716 41.6398V31.0158C183.716 30.8985 183.748 30.8078 183.812 30.7438C183.887 30.6798 183.977 30.6478 184.084 30.6478H184.82C184.937 30.6478 185.028 30.6798 185.092 30.7438C185.156 30.8078 185.188 30.8985 185.188 31.0158V34.7438C185.497 34.3491 185.86 34.0505 186.276 33.8478C186.703 33.6345 187.225 33.5278 187.844 33.5278C188.868 33.5278 189.663 33.8585 190.228 34.5198C190.804 35.1705 191.092 36.0345 191.092 37.1118V41.6398C191.092 41.7465 191.055 41.8371 190.98 41.9118C190.916 41.9758 190.831 42.0078 190.724 42.0078H189.972C189.865 42.0078 189.775 41.9758 189.7 41.9118C189.636 41.8371 189.604 41.7465 189.604 41.6398V37.2078C189.604 36.4398 189.417 35.8425 189.044 35.4158C188.671 34.9891 188.132 34.7758 187.428 34.7758C186.745 34.7758 186.201 34.9945 185.796 35.4318C185.391 35.8585 185.188 36.4505 185.188 37.2078V41.6398C185.188 41.7465 185.151 41.8371 185.076 41.9118C185.012 41.9758 184.927 42.0078 184.82 42.0078H184.084ZM195.723 42.1678C195.2 42.1678 194.715 42.0611 194.267 41.8478C193.829 41.6345 193.477 41.3465 193.211 40.9838C192.955 40.6105 192.827 40.1998 192.827 39.7518C192.827 39.0478 193.115 38.4718 193.691 38.0238C194.267 37.5758 195.051 37.2771 196.043 37.1278L198.443 36.7918V36.3278C198.443 35.2291 197.808 34.6798 196.539 34.6798C196.048 34.6798 195.653 34.7811 195.355 34.9838C195.056 35.1758 194.837 35.4051 194.699 35.6718C194.656 35.7785 194.608 35.8531 194.555 35.8958C194.512 35.9278 194.448 35.9438 194.363 35.9438H193.739C193.643 35.9438 193.557 35.9118 193.483 35.8478C193.419 35.7731 193.387 35.6878 193.387 35.5918C193.387 35.3465 193.499 35.0638 193.723 34.7438C193.957 34.4131 194.315 34.1305 194.795 33.8958C195.275 33.6505 195.861 33.5278 196.555 33.5278C197.749 33.5278 198.603 33.8051 199.115 34.3598C199.637 34.9145 199.899 35.6078 199.899 36.4398V41.6398C199.899 41.7465 199.861 41.8371 199.787 41.9118C199.723 41.9758 199.637 42.0078 199.531 42.0078H198.827C198.72 42.0078 198.635 41.9758 198.571 41.9118C198.507 41.8371 198.475 41.7465 198.475 41.6398V40.9358C198.24 41.2878 197.899 41.5811 197.451 41.8158C197.003 42.0505 196.427 42.1678 195.723 42.1678ZM196.043 40.9998C196.747 40.9998 197.323 40.7705 197.771 40.3118C198.219 39.8531 198.443 39.1865 198.443 38.3118V37.8638L196.571 38.1358C195.803 38.2425 195.221 38.4238 194.827 38.6798C194.432 38.9358 194.235 39.2558 194.235 39.6398C194.235 40.0771 194.411 40.4131 194.763 40.6478C195.125 40.8825 195.552 40.9998 196.043 40.9998ZM205.064 42.1678C204.328 42.1678 203.704 42.0505 203.192 41.8158C202.69 41.5705 202.317 41.2931 202.072 40.9838C201.826 40.6745 201.704 40.4185 201.704 40.2158C201.704 40.1091 201.741 40.0291 201.816 39.9758C201.89 39.9118 201.97 39.8798 202.056 39.8798H202.728C202.792 39.8798 202.84 39.8905 202.872 39.9118C202.914 39.9331 202.968 39.9811 203.032 40.0558C203.277 40.3545 203.549 40.5891 203.848 40.7598C204.157 40.9305 204.568 41.0158 205.08 41.0158C205.656 41.0158 206.114 40.9091 206.456 40.6958C206.808 40.4825 206.984 40.1731 206.984 39.7678C206.984 39.5011 206.909 39.2878 206.76 39.1278C206.61 38.9678 206.36 38.8238 206.008 38.6958C205.666 38.5678 205.154 38.4291 204.472 38.2798C203.544 38.0771 202.888 37.7838 202.504 37.3998C202.12 37.0158 201.928 36.5198 201.928 35.9118C201.928 35.5171 202.045 35.1385 202.28 34.7758C202.514 34.4025 202.861 34.1038 203.32 33.8798C203.789 33.6451 204.344 33.5278 204.984 33.5278C205.656 33.5278 206.226 33.6398 206.696 33.8638C207.176 34.0878 207.533 34.3491 207.768 34.6478C208.013 34.9465 208.136 35.1971 208.136 35.3998C208.136 35.4958 208.098 35.5758 208.024 35.6398C207.96 35.7038 207.88 35.7358 207.784 35.7358H207.176C207.026 35.7358 206.92 35.6771 206.856 35.5598C206.674 35.3571 206.52 35.2025 206.392 35.0958C206.274 34.9785 206.098 34.8825 205.864 34.8078C205.629 34.7225 205.336 34.6798 204.984 34.6798C204.461 34.6798 204.061 34.7918 203.784 35.0158C203.506 35.2291 203.368 35.5171 203.368 35.8798C203.368 36.1038 203.426 36.2958 203.544 36.4558C203.661 36.6051 203.885 36.7491 204.216 36.8878C204.546 37.0158 205.037 37.1491 205.688 37.2878C206.701 37.5011 207.416 37.8051 207.832 38.1998C208.258 38.5945 208.472 39.1011 208.472 39.7198C208.472 40.1785 208.338 40.5945 208.072 40.9678C207.816 41.3411 207.426 41.6345 206.904 41.8478C206.392 42.0611 205.778 42.1678 205.064 42.1678ZM214.662 42.0078C214.555 42.0078 214.465 41.9758 214.39 41.9118C214.326 41.8371 214.294 41.7465 214.294 41.6398V31.0158C214.294 30.8985 214.326 30.8078 214.39 30.7438C214.465 30.6798 214.555 30.6478 214.662 30.6478H215.398C215.515 30.6478 215.606 30.6798 215.67 30.7438C215.734 30.8078 215.766 30.8985 215.766 31.0158V34.7438C216.075 34.3491 216.438 34.0505 216.854 33.8478C217.281 33.6345 217.803 33.5278 218.422 33.5278C219.446 33.5278 220.241 33.8585 220.806 34.5198C221.382 35.1705 221.67 36.0345 221.67 37.1118V41.6398C221.67 41.7465 221.633 41.8371 221.558 41.9118C221.494 41.9758 221.409 42.0078 221.302 42.0078H220.55C220.443 42.0078 220.353 41.9758 220.278 41.9118C220.214 41.8371 220.182 41.7465 220.182 41.6398V37.2078C220.182 36.4398 219.995 35.8425 219.622 35.4158C219.249 34.9891 218.71 34.7758 218.006 34.7758C217.323 34.7758 216.779 34.9945 216.374 35.4318C215.969 35.8585 215.766 36.4505 215.766 37.2078V41.6398C215.766 41.7465 215.729 41.8371 215.654 41.9118C215.59 41.9758 215.505 42.0078 215.398 42.0078H214.662ZM224.237 32.1198C224.13 32.1198 224.04 32.0878 223.965 32.0238C223.901 31.9491 223.869 31.8585 223.869 31.7518V30.9198C223.869 30.8131 223.901 30.7225 223.965 30.6478C224.04 30.5731 224.13 30.5358 224.237 30.5358H225.181C225.288 30.5358 225.378 30.5731 225.453 30.6478C225.528 30.7225 225.565 30.8131 225.565 30.9198V31.7518C225.565 31.8585 225.528 31.9491 225.453 32.0238C225.378 32.0878 225.288 32.1198 225.181 32.1198H224.237ZM224.365 42.0078C224.258 42.0078 224.168 41.9758 224.093 41.9118C224.029 41.8371 223.997 41.7465 223.997 41.6398V34.0558C223.997 33.9491 224.029 33.8638 224.093 33.7998C224.168 33.7251 224.258 33.6878 224.365 33.6878H225.069C225.176 33.6878 225.261 33.7251 225.325 33.7998C225.4 33.8638 225.437 33.9491 225.437 34.0558V41.6398C225.437 41.7465 225.4 41.8371 225.325 41.9118C225.261 41.9758 225.176 42.0078 225.069 42.0078H224.365ZM231.217 45.5278C230.331 45.5278 229.622 45.3785 229.089 45.0798C228.555 44.7811 228.177 44.4398 227.953 44.0558C227.739 43.6718 227.633 43.3411 227.633 43.0638C227.633 42.9678 227.67 42.8825 227.745 42.8078C227.819 42.7438 227.905 42.7118 228.001 42.7118H228.705C228.801 42.7118 228.881 42.7331 228.945 42.7758C229.009 42.8291 229.062 42.9198 229.105 43.0478C229.403 43.9011 230.081 44.3278 231.137 44.3278C231.937 44.3278 232.529 44.1571 232.913 43.8158C233.297 43.4745 233.489 42.8718 233.489 42.0078V40.9038C232.87 41.6931 232.006 42.0878 230.897 42.0878C229.766 42.0878 228.918 41.7251 228.353 40.9998C227.798 40.2745 227.505 39.3571 227.473 38.2478L227.457 37.7998L227.473 37.3678C227.505 36.2691 227.798 35.3571 228.353 34.6318C228.918 33.8958 229.766 33.5278 230.897 33.5278C232.017 33.5278 232.891 33.9385 233.521 34.7598V34.0718C233.521 33.9651 233.553 33.8745 233.617 33.7998C233.691 33.7251 233.782 33.6878 233.889 33.6878H234.577C234.683 33.6878 234.769 33.7251 234.833 33.7998C234.907 33.8745 234.945 33.9651 234.945 34.0718V41.8318C234.945 44.2958 233.702 45.5278 231.217 45.5278ZM231.185 40.8398C231.931 40.8398 232.491 40.5998 232.865 40.1198C233.249 39.6291 233.457 39.0425 233.489 38.3598C233.499 38.2638 233.505 38.0771 233.505 37.7998C233.505 37.5331 233.499 37.3518 233.489 37.2558C233.457 36.5731 233.249 35.9918 232.865 35.5118C232.491 35.0211 231.931 34.7758 231.185 34.7758C230.417 34.7758 229.857 35.0211 229.505 35.5118C229.163 35.9918 228.977 36.6158 228.945 37.3838L228.929 37.7998L228.945 38.2318C228.977 38.9998 229.163 39.6291 229.505 40.1198C229.857 40.5998 230.417 40.8398 231.185 40.8398ZM237.74 42.0078C237.634 42.0078 237.543 41.9758 237.468 41.9118C237.404 41.8371 237.372 41.7465 237.372 41.6398V31.0158C237.372 30.8985 237.404 30.8078 237.468 30.7438C237.543 30.6798 237.634 30.6478 237.74 30.6478H238.476C238.594 30.6478 238.684 30.6798 238.748 30.7438C238.812 30.8078 238.844 30.8985 238.844 31.0158V34.7438C239.154 34.3491 239.516 34.0505 239.932 33.8478C240.359 33.6345 240.882 33.5278 241.5 33.5278C242.524 33.5278 243.319 33.8585 243.884 34.5198C244.46 35.1705 244.748 36.0345 244.748 37.1118V41.6398C244.748 41.7465 244.711 41.8371 244.636 41.9118C244.572 41.9758 244.487 42.0078 244.38 42.0078H243.628C243.522 42.0078 243.431 41.9758 243.356 41.9118C243.292 41.8371 243.26 41.7465 243.26 41.6398V37.2078C243.26 36.4398 243.074 35.8425 242.7 35.4158C242.327 34.9891 241.788 34.7758 241.084 34.7758C240.402 34.7758 239.858 34.9945 239.452 35.4318C239.047 35.8585 238.844 36.4505 238.844 37.2078V41.6398C238.844 41.7465 238.807 41.8371 238.732 41.9118C238.668 41.9758 238.583 42.0078 238.476 42.0078H237.74ZM253.861 42.1678C253.125 42.1678 252.501 42.0505 251.989 41.8158C251.487 41.5705 251.114 41.2931 250.868 40.9838C250.623 40.6745 250.501 40.4185 250.501 40.2158C250.501 40.1091 250.538 40.0291 250.613 39.9758C250.687 39.9118 250.767 39.8798 250.853 39.8798H251.525C251.589 39.8798 251.637 39.8905 251.669 39.9118C251.711 39.9331 251.765 39.9811 251.829 40.0558C252.074 40.3545 252.346 40.5891 252.645 40.7598C252.954 40.9305 253.365 41.0158 253.877 41.0158C254.453 41.0158 254.911 40.9091 255.253 40.6958C255.605 40.4825 255.781 40.1731 255.781 39.7678C255.781 39.5011 255.706 39.2878 255.557 39.1278C255.407 38.9678 255.157 38.8238 254.805 38.6958C254.463 38.5678 253.951 38.4291 253.269 38.2798C252.341 38.0771 251.685 37.7838 251.301 37.3998C250.917 37.0158 250.725 36.5198 250.725 35.9118C250.725 35.5171 250.842 35.1385 251.077 34.7758C251.311 34.4025 251.658 34.1038 252.117 33.8798C252.586 33.6451 253.141 33.5278 253.781 33.5278C254.453 33.5278 255.023 33.6398 255.493 33.8638C255.973 34.0878 256.33 34.3491 256.565 34.6478C256.81 34.9465 256.933 35.1971 256.933 35.3998C256.933 35.4958 256.895 35.5758 256.821 35.6398C256.757 35.7038 256.677 35.7358 256.581 35.7358H255.973C255.823 35.7358 255.717 35.6771 255.653 35.5598C255.471 35.3571 255.317 35.2025 255.189 35.0958C255.071 34.9785 254.895 34.8825 254.661 34.8078C254.426 34.7225 254.133 34.6798 253.781 34.6798C253.258 34.6798 252.858 34.7918 252.581 35.0158C252.303 35.2291 252.164 35.5171 252.164 35.8798C252.164 36.1038 252.223 36.2958 252.341 36.4558C252.458 36.6051 252.682 36.7491 253.013 36.8878C253.343 37.0158 253.834 37.1491 254.485 37.2878C255.498 37.5011 256.213 37.8051 256.629 38.1998C257.055 38.5945 257.269 39.1011 257.269 39.7198C257.269 40.1785 257.135 40.5945 256.869 40.9678C256.613 41.3411 256.223 41.6345 255.701 41.8478C255.189 42.0611 254.575 42.1678 253.861 42.1678ZM262.434 42.1678C261.346 42.1678 260.476 41.8318 259.826 41.1598C259.175 40.4771 258.818 39.5491 258.754 38.3758L258.738 37.8318L258.754 37.3038C258.818 36.1518 259.175 35.2345 259.826 34.5518C260.476 33.8691 261.346 33.5278 262.434 33.5278C263.607 33.5278 264.514 33.9011 265.154 34.6478C265.804 35.3945 266.13 36.4078 266.13 37.6878V37.9758C266.13 38.0825 266.092 38.1731 266.017 38.2478C265.954 38.3118 265.868 38.3438 265.762 38.3438H260.21V38.4878C260.242 39.1811 260.455 39.7731 260.85 40.2638C261.244 40.7545 261.767 40.9998 262.418 40.9998C262.919 40.9998 263.324 40.9038 263.634 40.7118C263.954 40.5091 264.194 40.3011 264.354 40.0878C264.45 39.9598 264.524 39.8851 264.578 39.8638C264.631 39.8318 264.722 39.8158 264.85 39.8158H265.554C265.65 39.8158 265.73 39.8425 265.794 39.8958C265.868 39.9491 265.906 40.0185 265.906 40.1038C265.906 40.3385 265.762 40.6211 265.474 40.9518C265.186 41.2825 264.775 41.5705 264.242 41.8158C263.719 42.0505 263.116 42.1678 262.434 42.1678ZM264.674 37.2558V37.2078C264.674 36.4611 264.471 35.8531 264.066 35.3838C263.66 34.9145 263.116 34.6798 262.434 34.6798C261.74 34.6798 261.196 34.9145 260.802 35.3838C260.407 35.8531 260.21 36.4611 260.21 37.2078V37.2558H264.674ZM271.403 42.1678C270.262 42.1678 269.371 41.8478 268.731 41.2078C268.091 40.5571 267.755 39.6505 267.723 38.4878L267.707 37.8478L267.723 37.2078C267.755 36.0451 268.091 35.1438 268.731 34.5038C269.371 33.8531 270.262 33.5278 271.403 33.5278C272.171 33.5278 272.816 33.6665 273.339 33.9438C273.872 34.2105 274.267 34.5465 274.523 34.9518C274.79 35.3571 274.934 35.7625 274.955 36.1678C274.966 36.2638 274.928 36.3491 274.843 36.4238C274.768 36.4985 274.683 36.5358 274.587 36.5358H273.883C273.776 36.5358 273.696 36.5145 273.643 36.4718C273.59 36.4185 273.536 36.3278 273.483 36.1998C273.291 35.6771 273.024 35.3091 272.683 35.0958C272.352 34.8718 271.931 34.7598 271.419 34.7598C270.747 34.7598 270.214 34.9678 269.819 35.3838C269.424 35.7998 269.211 36.4345 269.179 37.2878L269.163 37.8478L269.179 38.4078C269.211 39.2611 269.424 39.8958 269.819 40.3118C270.214 40.7278 270.747 40.9358 271.419 40.9358C271.942 40.9358 272.368 40.8291 272.699 40.6158C273.03 40.3918 273.291 40.0185 273.483 39.4958C273.536 39.3678 273.59 39.2825 273.643 39.2398C273.696 39.1865 273.776 39.1598 273.883 39.1598H274.587C274.683 39.1598 274.768 39.1971 274.843 39.2718C274.928 39.3465 274.966 39.4318 274.955 39.5278C274.934 39.9225 274.79 40.3225 274.523 40.7278C274.267 41.1331 273.872 41.4745 273.339 41.7518C272.816 42.0291 272.171 42.1678 271.403 42.1678ZM279.976 42.1678C278.963 42.1678 278.179 41.8425 277.624 41.1918C277.069 40.5305 276.792 39.6558 276.792 38.5678V34.0558C276.792 33.9491 276.824 33.8638 276.888 33.7998C276.963 33.7251 277.053 33.6878 277.16 33.6878H277.896C278.003 33.6878 278.088 33.7251 278.152 33.7998C278.227 33.8638 278.264 33.9491 278.264 34.0558V38.4878C278.264 40.1091 278.968 40.9198 280.376 40.9198C281.059 40.9198 281.597 40.7065 281.992 40.2798C282.397 39.8425 282.6 39.2451 282.6 38.4878V34.0558C282.6 33.9491 282.632 33.8638 282.696 33.7998C282.771 33.7251 282.861 33.6878 282.968 33.6878H283.704C283.811 33.6878 283.896 33.7251 283.96 33.7998C284.035 33.8638 284.072 33.9491 284.072 34.0558V41.6398C284.072 41.7465 284.035 41.8371 283.96 41.9118C283.896 41.9758 283.811 42.0078 283.704 42.0078H283.016C282.909 42.0078 282.819 41.9758 282.744 41.9118C282.68 41.8371 282.648 41.7465 282.648 41.6398V40.9198C282.339 41.3358 281.976 41.6505 281.56 41.8638C281.144 42.0665 280.616 42.1678 279.976 42.1678ZM286.834 42.0078C286.727 42.0078 286.636 41.9758 286.562 41.9118C286.498 41.8371 286.466 41.7465 286.466 41.6398V34.0718C286.466 33.9651 286.498 33.8745 286.562 33.7998C286.636 33.7251 286.727 33.6878 286.834 33.6878H287.506C287.623 33.6878 287.714 33.7251 287.778 33.7998C287.852 33.8638 287.89 33.9545 287.89 34.0718V34.7758C288.327 34.0505 289.068 33.6878 290.114 33.6878H290.738C290.855 33.6878 290.946 33.7198 291.01 33.7838C291.074 33.8478 291.106 33.9385 291.106 34.0558V34.6478C291.106 34.7545 291.074 34.8451 291.01 34.9198C290.946 34.9838 290.855 35.0158 290.738 35.0158H289.826C289.239 35.0158 288.775 35.1865 288.434 35.5278C288.103 35.8691 287.938 36.3331 287.938 36.9198V41.6398C287.938 41.7465 287.9 41.8371 287.826 41.9118C287.751 41.9758 287.66 42.0078 287.554 42.0078H286.834ZM292.721 32.1198C292.615 32.1198 292.524 32.0878 292.449 32.0238C292.385 31.9491 292.353 31.8585 292.353 31.7518V30.9198C292.353 30.8131 292.385 30.7225 292.449 30.6478C292.524 30.5731 292.615 30.5358 292.721 30.5358H293.665C293.772 30.5358 293.863 30.5731 293.937 30.6478C294.012 30.7225 294.049 30.8131 294.049 30.9198V31.7518C294.049 31.8585 294.012 31.9491 293.937 32.0238C293.863 32.0878 293.772 32.1198 293.665 32.1198H292.721ZM292.849 42.0078C292.743 42.0078 292.652 41.9758 292.577 41.9118C292.513 41.8371 292.481 41.7465 292.481 41.6398V34.0558C292.481 33.9491 292.513 33.8638 292.577 33.7998C292.652 33.7251 292.743 33.6878 292.849 33.6878H293.553C293.66 33.6878 293.745 33.7251 293.809 33.7998C293.884 33.8638 293.921 33.9491 293.921 34.0558V41.6398C293.921 41.7465 293.884 41.8371 293.809 41.9118C293.745 41.9758 293.66 42.0078 293.553 42.0078H292.849ZM299.525 42.0078C297.872 42.0078 297.045 41.0745 297.045 39.2078V34.9198H295.781C295.674 34.9198 295.589 34.8878 295.525 34.8238C295.461 34.7598 295.429 34.6745 295.429 34.5678V34.0558C295.429 33.9491 295.461 33.8638 295.525 33.7998C295.589 33.7251 295.674 33.6878 295.781 33.6878H297.045V31.0158C297.045 30.9091 297.077 30.8238 297.141 30.7598C297.205 30.6851 297.29 30.6478 297.397 30.6478H298.101C298.208 30.6478 298.293 30.6851 298.357 30.7598C298.432 30.8238 298.469 30.9091 298.469 31.0158V33.6878H300.453C300.56 33.6878 300.645 33.7251 300.709 33.7998C300.784 33.8638 300.821 33.9491 300.821 34.0558V34.5678C300.821 34.6745 300.784 34.7598 300.709 34.8238C300.645 34.8878 300.56 34.9198 300.453 34.9198H298.469V39.0958C298.469 39.6398 298.554 40.0505 298.725 40.3278C298.906 40.6051 299.21 40.7438 299.637 40.7438H300.613C300.72 40.7438 300.805 40.7811 300.869 40.8558C300.933 40.9198 300.965 41.0051 300.965 41.1118V41.6398C300.965 41.7465 300.933 41.8371 300.869 41.9118C300.805 41.9758 300.72 42.0078 300.613 42.0078H299.525ZM303.984 45.0478C303.888 45.0478 303.808 45.0158 303.744 44.9518C303.68 44.8878 303.648 44.8131 303.648 44.7278C303.648 44.6958 303.675 44.5998 303.728 44.4398L304.976 41.5118L301.92 34.2958C301.856 34.1678 301.824 34.0771 301.824 34.0238C301.835 33.9278 301.872 33.8478 301.936 33.7838C302 33.7198 302.075 33.6878 302.16 33.6878H302.896C303.067 33.6878 303.195 33.7731 303.28 33.9438L305.744 39.8318L308.272 33.9438C308.357 33.7731 308.485 33.6878 308.656 33.6878H309.376C309.461 33.6878 309.536 33.7198 309.6 33.7838C309.664 33.8478 309.696 33.9225 309.696 34.0078C309.696 34.0825 309.669 34.1785 309.616 34.2958L305.088 44.7918C305.035 44.8771 304.976 44.9411 304.912 44.9838C304.859 45.0265 304.784 45.0478 304.688 45.0478H303.984ZM310.644 42.0078C310.537 42.0078 310.446 41.9758 310.372 41.9118C310.308 41.8371 310.276 41.7465 310.276 41.6398V40.5358C310.276 40.4291 310.308 40.3385 310.372 40.2638C310.446 40.1891 310.537 40.1518 310.644 40.1518H311.748C311.854 40.1518 311.94 40.1891 312.004 40.2638C312.078 40.3385 312.116 40.4291 312.116 40.5358V41.6398C312.116 41.7465 312.078 41.8371 312.004 41.9118C311.94 41.9758 311.854 42.0078 311.748 42.0078H310.644Z" fill="#4F5665"/>
</svg>
