<svg width="525" height="46" viewBox="0 0 525 46" fill="none" xmlns="http://www.w3.org/2000/svg">
<path d="M0.994375 12.5493C0.887708 12.5493 0.797042 12.5173 0.722375 12.4533C0.658375 12.3786 0.626375 12.288 0.626375 12.1813V1.71732C0.626375 1.61065 0.658375 1.52532 0.722375 1.46132C0.797042 1.38665 0.887708 1.34932 0.994375 1.34932H1.84238C1.94904 1.34932 2.03438 1.38665 2.09838 1.46132C2.17304 1.52532 2.21038 1.61065 2.21038 1.71732V11.1573H7.52238C7.63971 11.1573 7.73038 11.1946 7.79438 11.2693C7.86904 11.3333 7.90638 11.424 7.90638 11.5413V12.1813C7.90638 12.288 7.86904 12.3786 7.79438 12.4533C7.71971 12.5173 7.62904 12.5493 7.52238 12.5493H0.994375ZM12.5901 12.7093C11.4915 12.7093 10.6115 12.3733 9.95013 11.7013C9.29946 11.0186 8.94213 10.0906 8.87813 8.91732L8.86213 8.37332L8.87813 7.84532C8.95279 6.69332 9.31546 5.77598 9.96613 5.09332C10.6275 4.41065 11.4968 4.06932 12.5741 4.06932C13.7581 4.06932 14.6755 4.44798 15.3261 5.20532C15.9768 5.95198 16.3021 6.96532 16.3021 8.24532V8.51732C16.3021 8.62398 16.2648 8.71465 16.1901 8.78932C16.1261 8.85332 16.0408 8.88532 15.9341 8.88532H10.3981V9.02932C10.4301 9.72265 10.6381 10.3146 11.0221 10.8053C11.4168 11.2853 11.9341 11.5253 12.5741 11.5253C13.0648 11.5253 13.4648 11.4293 13.7741 11.2373C14.0941 11.0346 14.3288 10.8266 14.4781 10.6133C14.5741 10.4853 14.6435 10.4106 14.6861 10.3893C14.7395 10.3573 14.8301 10.3413 14.9581 10.3413H15.7421C15.8381 10.3413 15.9181 10.368 15.9821 10.4213C16.0461 10.4746 16.0781 10.5493 16.0781 10.6453C16.0781 10.88 15.9288 11.1626 15.6301 11.4933C15.3421 11.824 14.9315 12.112 14.3981 12.3573C13.8755 12.592 13.2728 12.7093 12.5901 12.7093ZM14.7821 7.78132V7.73332C14.7821 6.99732 14.5795 6.39998 14.1741 5.94132C13.7795 5.47198 13.2461 5.23732 12.5741 5.23732C11.9021 5.23732 11.3688 5.47198 10.9741 5.94132C10.5901 6.39998 10.3981 6.99732 10.3981 7.73332V7.78132H14.7821ZM21.4164 12.5493C19.731 12.5493 18.8884 11.6106 18.8884 9.73332V5.50932H17.6404C17.5337 5.50932 17.443 5.47732 17.3684 5.41332C17.3044 5.33865 17.2724 5.24798 17.2724 5.14132V4.59732C17.2724 4.49065 17.3044 4.40532 17.3684 4.34132C17.443 4.26665 17.5337 4.22932 17.6404 4.22932H18.8884V1.55732C18.8884 1.45065 18.9204 1.36532 18.9844 1.30132C19.059 1.22665 19.1497 1.18932 19.2564 1.18932H20.0084C20.115 1.18932 20.2004 1.22665 20.2644 1.30132C20.339 1.36532 20.3764 1.45065 20.3764 1.55732V4.22932H22.3604C22.467 4.22932 22.5524 4.26665 22.6164 4.34132C22.691 4.40532 22.7284 4.49065 22.7284 4.59732V5.14132C22.7284 5.24798 22.691 5.33865 22.6164 5.41332C22.5524 5.47732 22.467 5.50932 22.3604 5.50932H20.3764V9.62132C20.3764 10.1546 20.467 10.56 20.6484 10.8373C20.8297 11.104 21.1284 11.2373 21.5444 11.2373H22.5204C22.627 11.2373 22.7124 11.2746 22.7764 11.3493C22.851 11.4133 22.8884 11.4986 22.8884 11.6053V12.1813C22.8884 12.288 22.851 12.3786 22.7764 12.4533C22.7124 12.5173 22.627 12.5493 22.5204 12.5493H21.4164ZM24.7224 4.72532C24.5304 4.72532 24.4237 4.60798 24.4024 4.37332L24.1304 1.55732V1.49332C24.1304 1.39732 24.157 1.32265 24.2104 1.26932C24.2744 1.21598 24.3544 1.18932 24.4504 1.18932H25.4904C25.597 1.18932 25.6824 1.22132 25.7464 1.28532C25.8104 1.34932 25.837 1.43998 25.8264 1.55732L25.5544 4.37332C25.5117 4.60798 25.3997 4.72532 25.2184 4.72532H24.7224ZM30.4234 12.7093C29.6767 12.7093 29.0474 12.592 28.5354 12.3573C28.034 12.112 27.6554 11.8346 27.3994 11.5253C27.154 11.216 27.0314 10.96 27.0314 10.7573C27.0314 10.6506 27.0687 10.5706 27.1434 10.5173C27.2287 10.4533 27.314 10.4213 27.3994 10.4213H28.1194C28.226 10.4213 28.322 10.4746 28.4074 10.5813C28.6634 10.88 28.9407 11.1146 29.2394 11.2853C29.538 11.456 29.938 11.5413 30.4394 11.5413C30.994 11.5413 31.442 11.4346 31.7834 11.2213C32.1354 10.9973 32.3114 10.6933 32.3114 10.3093C32.3114 10.0533 32.2367 9.84532 32.0874 9.68532C31.9487 9.51465 31.7034 9.37065 31.3514 9.25332C31.01 9.12532 30.498 8.98665 29.8154 8.83732C28.8874 8.63465 28.226 8.34132 27.8314 7.95732C27.4474 7.57332 27.2554 7.07732 27.2554 6.46932C27.2554 6.06398 27.3727 5.67998 27.6074 5.31732C27.8527 4.94398 28.2047 4.64532 28.6634 4.42132C29.1327 4.18665 29.6927 4.06932 30.3434 4.06932C31.026 4.06932 31.6074 4.18132 32.0874 4.40532C32.5674 4.62932 32.9247 4.89598 33.1594 5.20532C33.4047 5.50398 33.5274 5.75465 33.5274 5.95732C33.5274 6.05332 33.49 6.13332 33.4154 6.19732C33.3514 6.26132 33.2714 6.29332 33.1754 6.29332H32.5034C32.3754 6.29332 32.2687 6.23998 32.1834 6.13332C32.0127 5.93065 31.8634 5.77598 31.7354 5.66932C31.618 5.55198 31.442 5.45065 31.2074 5.36532C30.9834 5.27998 30.6954 5.23732 30.3434 5.23732C29.8314 5.23732 29.4367 5.34932 29.1594 5.57332C28.882 5.78665 28.7434 6.06932 28.7434 6.42132C28.7434 6.64532 28.802 6.83732 28.9194 6.99732C29.0367 7.14665 29.2607 7.28532 29.5914 7.41332C29.9327 7.54132 30.4234 7.67465 31.0634 7.81332C32.0767 8.02665 32.7914 8.33598 33.2074 8.74132C33.634 9.13598 33.8474 9.64265 33.8474 10.2613C33.8474 10.72 33.714 11.136 33.4474 11.5093C33.1807 11.8826 32.786 12.176 32.2634 12.3893C31.7514 12.6026 31.138 12.7093 30.4234 12.7093ZM42.9815 12.7093C41.8402 12.7093 40.9442 12.3893 40.2935 11.7493C39.6535 11.0986 39.3122 10.192 39.2695 9.02932L39.2535 8.38932L39.2695 7.74932C39.3122 6.58665 39.6535 5.68532 40.2935 5.04532C40.9442 4.39465 41.8402 4.06932 42.9815 4.06932C43.7495 4.06932 44.4002 4.20798 44.9335 4.48532C45.4668 4.76265 45.8615 5.10398 46.1175 5.50932C46.3842 5.91465 46.5282 6.31998 46.5495 6.72532C46.5602 6.83198 46.5282 6.91732 46.4535 6.98132C46.3788 7.04532 46.2882 7.07732 46.1815 7.07732H45.4135C45.3068 7.07732 45.2268 7.05598 45.1735 7.01332C45.1202 6.97065 45.0668 6.88532 45.0135 6.75732C44.8322 6.24532 44.5762 5.88265 44.2455 5.66932C43.9148 5.44532 43.4988 5.33332 42.9975 5.33332C42.3362 5.33332 41.8082 5.54132 41.4135 5.95732C41.0295 6.36265 40.8215 6.98665 40.7895 7.82932L40.7735 8.40532L40.7895 8.94932C40.8215 9.80265 41.0295 10.432 41.4135 10.8373C41.7975 11.2426 42.3255 11.4453 42.9975 11.4453C43.4988 11.4453 43.9148 11.3386 44.2455 11.1253C44.5762 10.9013 44.8322 10.5333 45.0135 10.0213C45.0668 9.89332 45.1202 9.80798 45.1735 9.76532C45.2268 9.71198 45.3068 9.68532 45.4135 9.68532H46.1815C46.2882 9.68532 46.3788 9.72265 46.4535 9.79732C46.5282 9.86132 46.5602 9.94665 46.5495 10.0533C46.5282 10.448 46.3842 10.8533 46.1175 11.2693C45.8615 11.6746 45.4668 12.016 44.9335 12.2933C44.4108 12.5706 43.7602 12.7093 42.9815 12.7093ZM48.8336 12.5493C48.727 12.5493 48.6363 12.5173 48.5616 12.4533C48.4976 12.3786 48.4656 12.288 48.4656 12.1813V1.55732C48.4656 1.45065 48.4976 1.36532 48.5616 1.30132C48.6363 1.22665 48.727 1.18932 48.8336 1.18932H49.6336C49.7403 1.18932 49.8256 1.22665 49.8896 1.30132C49.9643 1.36532 50.0016 1.45065 50.0016 1.55732V5.28532C50.311 4.89065 50.6736 4.59198 51.0896 4.38932C51.5056 4.17598 52.023 4.06932 52.6416 4.06932C53.6656 4.06932 54.4603 4.39998 55.0256 5.06132C55.6016 5.71198 55.8896 6.58132 55.8896 7.66932V12.1813C55.8896 12.288 55.8523 12.3786 55.7776 12.4533C55.7136 12.5173 55.6283 12.5493 55.5216 12.5493H54.7216C54.615 12.5493 54.5243 12.5173 54.4496 12.4533C54.3856 12.3786 54.3536 12.288 54.3536 12.1813V7.74932C54.3536 6.99198 54.167 6.40532 53.7936 5.98932C53.431 5.57332 52.903 5.36532 52.2096 5.36532C51.5376 5.36532 50.999 5.57865 50.5936 6.00532C50.199 6.42132 50.0016 7.00265 50.0016 7.74932V12.1813C50.0016 12.288 49.9643 12.3786 49.8896 12.4533C49.8256 12.5173 49.7403 12.5493 49.6336 12.5493H48.8336ZM61.6076 12.7093C60.4343 12.7093 59.5223 12.3786 58.8716 11.7173C58.2316 11.056 57.8903 10.176 57.8476 9.07732L57.8316 8.38932L57.8476 7.70132C57.8903 6.61332 58.237 5.73865 58.8876 5.07732C59.5383 4.40532 60.445 4.06932 61.6076 4.06932C62.7703 4.06932 63.677 4.40532 64.3276 5.07732C64.9783 5.73865 65.325 6.61332 65.3676 7.70132C65.3783 7.81865 65.3836 8.04798 65.3836 8.38932C65.3836 8.73065 65.3783 8.95998 65.3676 9.07732C65.325 10.176 64.9783 11.056 64.3276 11.7173C63.6876 12.3786 62.781 12.7093 61.6076 12.7093ZM61.6076 11.4773C62.2796 11.4773 62.8076 11.264 63.1916 10.8373C63.5863 10.4106 63.7996 9.79732 63.8316 8.99732C63.8423 8.89065 63.8476 8.68798 63.8476 8.38932C63.8476 8.09065 63.8423 7.88798 63.8316 7.78132C63.7996 6.98132 63.5863 6.36798 63.1916 5.94132C62.8076 5.51465 62.2796 5.30132 61.6076 5.30132C60.9356 5.30132 60.4023 5.51465 60.0076 5.94132C59.613 6.36798 59.405 6.98132 59.3836 7.78132L59.3676 8.38932L59.3836 8.99732C59.405 9.79732 59.613 10.4106 60.0076 10.8373C60.4023 11.264 60.9356 11.4773 61.6076 11.4773ZM70.7951 12.7093C69.6218 12.7093 68.7098 12.3786 68.0591 11.7173C67.4191 11.056 67.0778 10.176 67.0351 9.07732L67.0191 8.38932L67.0351 7.70132C67.0778 6.61332 67.4245 5.73865 68.0751 5.07732C68.7258 4.40532 69.6325 4.06932 70.7951 4.06932C71.9578 4.06932 72.8645 4.40532 73.5151 5.07732C74.1658 5.73865 74.5125 6.61332 74.5551 7.70132C74.5658 7.81865 74.5711 8.04798 74.5711 8.38932C74.5711 8.73065 74.5658 8.95998 74.5551 9.07732C74.5125 10.176 74.1658 11.056 73.5151 11.7173C72.8751 12.3786 71.9685 12.7093 70.7951 12.7093ZM70.7951 11.4773C71.4671 11.4773 71.9951 11.264 72.3791 10.8373C72.7738 10.4106 72.9871 9.79732 73.0191 8.99732C73.0298 8.89065 73.0351 8.68798 73.0351 8.38932C73.0351 8.09065 73.0298 7.88798 73.0191 7.78132C72.9871 6.98132 72.7738 6.36798 72.3791 5.94132C71.9951 5.51465 71.4671 5.30132 70.7951 5.30132C70.1231 5.30132 69.5898 5.51465 69.1951 5.94132C68.8005 6.36798 68.5925 6.98132 68.5711 7.78132L68.5551 8.38932L68.5711 8.99732C68.5925 9.79732 68.8005 10.4106 69.1951 10.8373C69.5898 11.264 70.1231 11.4773 70.7951 11.4773ZM79.4546 12.7093C78.708 12.7093 78.0786 12.592 77.5666 12.3573C77.0653 12.112 76.6866 11.8346 76.4306 11.5253C76.1853 11.216 76.0626 10.96 76.0626 10.7573C76.0626 10.6506 76.1 10.5706 76.1746 10.5173C76.26 10.4533 76.3453 10.4213 76.4306 10.4213H77.1506C77.2573 10.4213 77.3533 10.4746 77.4386 10.5813C77.6946 10.88 77.972 11.1146 78.2706 11.2853C78.5693 11.456 78.9693 11.5413 79.4706 11.5413C80.0253 11.5413 80.4733 11.4346 80.8146 11.2213C81.1666 10.9973 81.3426 10.6933 81.3426 10.3093C81.3426 10.0533 81.268 9.84532 81.1186 9.68532C80.98 9.51465 80.7346 9.37065 80.3826 9.25332C80.0413 9.12532 79.5293 8.98665 78.8466 8.83732C77.9186 8.63465 77.2573 8.34132 76.8626 7.95732C76.4786 7.57332 76.2866 7.07732 76.2866 6.46932C76.2866 6.06398 76.404 5.67998 76.6386 5.31732C76.884 4.94398 77.236 4.64532 77.6946 4.42132C78.164 4.18665 78.724 4.06932 79.3746 4.06932C80.0573 4.06932 80.6386 4.18132 81.1186 4.40532C81.5986 4.62932 81.956 4.89598 82.1906 5.20532C82.436 5.50398 82.5586 5.75465 82.5586 5.95732C82.5586 6.05332 82.5213 6.13332 82.4466 6.19732C82.3826 6.26132 82.3026 6.29332 82.2066 6.29332H81.5346C81.4066 6.29332 81.3 6.23998 81.2146 6.13332C81.044 5.93065 80.8946 5.77598 80.7666 5.66932C80.6493 5.55198 80.4733 5.45065 80.2386 5.36532C80.0146 5.27998 79.7266 5.23732 79.3746 5.23732C78.8626 5.23732 78.468 5.34932 78.1906 5.57332C77.9133 5.78665 77.7746 6.06932 77.7746 6.42132C77.7746 6.64532 77.8333 6.83732 77.9506 6.99732C78.068 7.14665 78.292 7.28532 78.6226 7.41332C78.964 7.54132 79.4546 7.67465 80.0946 7.81332C81.108 8.02665 81.8226 8.33598 82.2386 8.74132C82.6653 9.13598 82.8786 9.64265 82.8786 10.2613C82.8786 10.72 82.7453 11.136 82.4786 11.5093C82.212 11.8826 81.8173 12.176 81.2946 12.3893C80.7826 12.6026 80.1693 12.7093 79.4546 12.7093ZM88.0589 12.7093C86.9602 12.7093 86.0802 12.3733 85.4189 11.7013C84.7682 11.0186 84.4109 10.0906 84.3469 8.91732L84.3309 8.37332L84.3469 7.84532C84.4215 6.69332 84.7842 5.77598 85.4349 5.09332C86.0962 4.41065 86.9655 4.06932 88.0429 4.06932C89.2269 4.06932 90.1442 4.44798 90.7949 5.20532C91.4455 5.95198 91.7709 6.96532 91.7709 8.24532V8.51732C91.7709 8.62398 91.7335 8.71465 91.6589 8.78932C91.5949 8.85332 91.5095 8.88532 91.4029 8.88532H85.8669V9.02932C85.8989 9.72265 86.1069 10.3146 86.4909 10.8053C86.8855 11.2853 87.4029 11.5253 88.0429 11.5253C88.5335 11.5253 88.9335 11.4293 89.2429 11.2373C89.5629 11.0346 89.7975 10.8266 89.9469 10.6133C90.0429 10.4853 90.1122 10.4106 90.1549 10.3893C90.2082 10.3573 90.2989 10.3413 90.4269 10.3413H91.2109C91.3069 10.3413 91.3869 10.368 91.4509 10.4213C91.5149 10.4746 91.5469 10.5493 91.5469 10.6453C91.5469 10.88 91.3975 11.1626 91.0989 11.4933C90.8109 11.824 90.4002 12.112 89.8669 12.3573C89.3442 12.592 88.7415 12.7093 88.0589 12.7093ZM90.2509 7.78132V7.73332C90.2509 6.99732 90.0482 6.39998 89.6429 5.94132C89.2482 5.47198 88.7149 5.23732 88.0429 5.23732C87.3709 5.23732 86.8375 5.47198 86.4429 5.94132C86.0589 6.39998 85.8669 6.99732 85.8669 7.73332V7.78132H90.2509ZM100.51 12.5493C98.8248 12.5493 97.9821 11.6106 97.9821 9.73332V5.50932H96.7341C96.6275 5.50932 96.5368 5.47732 96.4621 5.41332C96.3981 5.33865 96.3661 5.24798 96.3661 5.14132V4.59732C96.3661 4.49065 96.3981 4.40532 96.4621 4.34132C96.5368 4.26665 96.6275 4.22932 96.7341 4.22932H97.9821V1.55732C97.9821 1.45065 98.0141 1.36532 98.0781 1.30132C98.1528 1.22665 98.2435 1.18932 98.3501 1.18932H99.1021C99.2088 1.18932 99.2941 1.22665 99.3581 1.30132C99.4328 1.36532 99.4701 1.45065 99.4701 1.55732V4.22932H101.454C101.561 4.22932 101.646 4.26665 101.71 4.34132C101.785 4.40532 101.822 4.49065 101.822 4.59732V5.14132C101.822 5.24798 101.785 5.33865 101.71 5.41332C101.646 5.47732 101.561 5.50932 101.454 5.50932H99.4701V9.62132C99.4701 10.1546 99.5608 10.56 99.7421 10.8373C99.9235 11.104 100.222 11.2373 100.638 11.2373H101.614C101.721 11.2373 101.806 11.2746 101.87 11.3493C101.945 11.4133 101.982 11.4986 101.982 11.6053V12.1813C101.982 12.288 101.945 12.3786 101.87 12.4533C101.806 12.5173 101.721 12.5493 101.614 12.5493H100.51ZM103.896 12.5493C103.789 12.5493 103.699 12.5173 103.624 12.4533C103.56 12.3786 103.528 12.288 103.528 12.1813V1.55732C103.528 1.45065 103.56 1.36532 103.624 1.30132C103.699 1.22665 103.789 1.18932 103.896 1.18932H104.696C104.803 1.18932 104.888 1.22665 104.952 1.30132C105.027 1.36532 105.064 1.45065 105.064 1.55732V5.28532C105.373 4.89065 105.736 4.59198 106.152 4.38932C106.568 4.17598 107.085 4.06932 107.704 4.06932C108.728 4.06932 109.523 4.39998 110.088 5.06132C110.664 5.71198 110.952 6.58132 110.952 7.66932V12.1813C110.952 12.288 110.915 12.3786 110.84 12.4533C110.776 12.5173 110.691 12.5493 110.584 12.5493H109.784C109.677 12.5493 109.587 12.5173 109.512 12.4533C109.448 12.3786 109.416 12.288 109.416 12.1813V7.74932C109.416 6.99198 109.229 6.40532 108.856 5.98932C108.493 5.57332 107.965 5.36532 107.272 5.36532C106.6 5.36532 106.061 5.57865 105.656 6.00532C105.261 6.42132 105.064 7.00265 105.064 7.74932V12.1813C105.064 12.288 105.027 12.3786 104.952 12.4533C104.888 12.5173 104.803 12.5493 104.696 12.5493H103.896ZM116.59 12.7093C115.491 12.7093 114.611 12.3733 113.95 11.7013C113.299 11.0186 112.942 10.0906 112.878 8.91732L112.862 8.37332L112.878 7.84532C112.953 6.69332 113.315 5.77598 113.966 5.09332C114.627 4.41065 115.497 4.06932 116.574 4.06932C117.758 4.06932 118.675 4.44798 119.326 5.20532C119.977 5.95198 120.302 6.96532 120.302 8.24532V8.51732C120.302 8.62398 120.265 8.71465 120.19 8.78932C120.126 8.85332 120.041 8.88532 119.934 8.88532H114.398V9.02932C114.43 9.72265 114.638 10.3146 115.022 10.8053C115.417 11.2853 115.934 11.5253 116.574 11.5253C117.065 11.5253 117.465 11.4293 117.774 11.2373C118.094 11.0346 118.329 10.8266 118.478 10.6133C118.574 10.4853 118.643 10.4106 118.686 10.3893C118.739 10.3573 118.83 10.3413 118.958 10.3413H119.742C119.838 10.3413 119.918 10.368 119.982 10.4213C120.046 10.4746 120.078 10.5493 120.078 10.6453C120.078 10.88 119.929 11.1626 119.63 11.4933C119.342 11.824 118.931 12.112 118.398 12.3573C117.875 12.592 117.273 12.7093 116.59 12.7093ZM118.782 7.78132V7.73332C118.782 6.99732 118.579 6.39998 118.174 5.94132C117.779 5.47198 117.246 5.23732 116.574 5.23732C115.902 5.23732 115.369 5.47198 114.974 5.94132C114.59 6.39998 114.398 6.99732 114.398 7.73332V7.78132H118.782ZM126.521 15.5893C126.414 15.5893 126.324 15.552 126.249 15.4773C126.185 15.4133 126.153 15.328 126.153 15.2213V4.59732C126.153 4.49065 126.185 4.40532 126.249 4.34132C126.324 4.26665 126.414 4.22932 126.521 4.22932H127.257C127.364 4.22932 127.449 4.26665 127.513 4.34132C127.588 4.40532 127.625 4.49065 127.625 4.59732V5.30132C128.222 4.47998 129.097 4.06932 130.249 4.06932C131.369 4.06932 132.206 4.42132 132.761 5.12532C133.326 5.82932 133.63 6.73598 133.673 7.84532C133.684 7.96265 133.689 8.14398 133.689 8.38932C133.689 8.63465 133.684 8.81598 133.673 8.93332C133.63 10.032 133.326 10.9386 132.761 11.6533C132.196 12.3573 131.358 12.7093 130.249 12.7093C129.14 12.7093 128.276 12.3093 127.657 11.5093V15.2213C127.657 15.328 127.625 15.4133 127.561 15.4773C127.497 15.552 127.412 15.5893 127.305 15.5893H126.521ZM129.913 11.4133C130.67 11.4133 131.22 11.1786 131.561 10.7093C131.913 10.24 132.105 9.62132 132.137 8.85332C132.148 8.74665 132.153 8.59198 132.153 8.38932C132.153 6.37332 131.406 5.36532 129.913 5.36532C129.177 5.36532 128.622 5.61065 128.249 6.10132C127.886 6.58132 127.689 7.15732 127.657 7.82932L127.641 8.43732L127.657 9.06132C127.678 9.69065 127.881 10.24 128.265 10.7093C128.649 11.1786 129.198 11.4133 129.913 11.4133ZM137.988 12.7093C137.466 12.7093 136.98 12.6026 136.532 12.3893C136.084 12.176 135.727 11.888 135.46 11.5253C135.204 11.152 135.076 10.7413 135.076 10.2933C135.076 9.58932 135.364 9.01332 135.94 8.56532C136.527 8.10665 137.316 7.80798 138.308 7.66932L140.692 7.33332V6.86932C140.692 5.78132 140.068 5.23732 138.82 5.23732C138.351 5.23732 137.967 5.33865 137.668 5.54132C137.37 5.73332 137.146 5.96265 136.996 6.22932C136.964 6.32532 136.922 6.39465 136.868 6.43732C136.826 6.47998 136.762 6.50132 136.676 6.50132H135.988C135.892 6.50132 135.807 6.46932 135.732 6.40532C135.668 6.33065 135.636 6.24532 135.636 6.14932C135.647 5.89332 135.764 5.60532 135.988 5.28532C136.223 4.95465 136.58 4.67198 137.06 4.43732C137.54 4.19198 138.132 4.06932 138.836 4.06932C140.031 4.06932 140.89 4.35198 141.412 4.91732C141.935 5.47198 142.196 6.16532 142.196 6.99732V12.1813C142.196 12.288 142.159 12.3786 142.084 12.4533C142.02 12.5173 141.935 12.5493 141.828 12.5493H141.092C140.986 12.5493 140.895 12.5173 140.82 12.4533C140.756 12.3786 140.724 12.288 140.724 12.1813V11.4933C140.49 11.8346 140.148 12.1226 139.7 12.3573C139.252 12.592 138.682 12.7093 137.988 12.7093ZM138.324 11.5093C139.018 11.5093 139.583 11.2853 140.02 10.8373C140.468 10.3786 140.692 9.72265 140.692 8.86932V8.42132L138.836 8.69332C138.079 8.79998 137.508 8.98132 137.124 9.23732C136.74 9.48265 136.548 9.79732 136.548 10.1813C136.548 10.608 136.724 10.9386 137.076 11.1733C137.428 11.3973 137.844 11.5093 138.324 11.5093ZM147.857 12.7093C146.715 12.7093 145.819 12.3893 145.169 11.7493C144.529 11.0986 144.187 10.192 144.145 9.02932L144.129 8.38932L144.145 7.74932C144.187 6.58665 144.529 5.68532 145.169 5.04532C145.819 4.39465 146.715 4.06932 147.857 4.06932C148.625 4.06932 149.275 4.20798 149.809 4.48532C150.342 4.76265 150.737 5.10398 150.993 5.50932C151.259 5.91465 151.403 6.31998 151.425 6.72532C151.435 6.83198 151.403 6.91732 151.329 6.98132C151.254 7.04532 151.163 7.07732 151.057 7.07732H150.289C150.182 7.07732 150.102 7.05598 150.049 7.01332C149.995 6.97065 149.942 6.88532 149.889 6.75732C149.707 6.24532 149.451 5.88265 149.121 5.66932C148.79 5.44532 148.374 5.33332 147.873 5.33332C147.211 5.33332 146.683 5.54132 146.289 5.95732C145.905 6.36265 145.697 6.98665 145.664 7.82932L145.649 8.40532L145.664 8.94932C145.697 9.80265 145.905 10.432 146.289 10.8373C146.673 11.2426 147.201 11.4453 147.873 11.4453C148.374 11.4453 148.79 11.3386 149.121 11.1253C149.451 10.9013 149.707 10.5333 149.889 10.0213C149.942 9.89332 149.995 9.80798 150.049 9.76532C150.102 9.71198 150.182 9.68532 150.289 9.68532H151.057C151.163 9.68532 151.254 9.72265 151.329 9.79732C151.403 9.86132 151.435 9.94665 151.425 10.0533C151.403 10.448 151.259 10.8533 150.993 11.2693C150.737 11.6746 150.342 12.016 149.809 12.2933C149.286 12.5706 148.635 12.7093 147.857 12.7093ZM153.709 12.5493C153.602 12.5493 153.511 12.5173 153.437 12.4533C153.373 12.3786 153.341 12.288 153.341 12.1813V1.55732C153.341 1.45065 153.373 1.36532 153.437 1.30132C153.511 1.22665 153.602 1.18932 153.709 1.18932H154.461C154.567 1.18932 154.653 1.22665 154.717 1.30132C154.791 1.36532 154.829 1.45065 154.829 1.55732V7.12532L157.981 4.50132C158.013 4.47998 158.066 4.43732 158.141 4.37332C158.215 4.31998 158.285 4.28265 158.349 4.26132C158.423 4.23998 158.514 4.22932 158.621 4.22932H159.469C159.565 4.22932 159.645 4.26132 159.709 4.32532C159.773 4.38932 159.805 4.46932 159.805 4.56532C159.805 4.68265 159.741 4.78398 159.613 4.86932L155.917 7.94132L160.013 11.9253C160.141 12.032 160.205 12.128 160.205 12.2133C160.205 12.3093 160.173 12.3893 160.109 12.4533C160.045 12.5173 159.965 12.5493 159.869 12.5493H159.037C158.877 12.5493 158.759 12.5333 158.685 12.5013C158.621 12.4693 158.525 12.3946 158.397 12.2773L154.829 8.86932V12.1813C154.829 12.288 154.791 12.3786 154.717 12.4533C154.653 12.5173 154.567 12.5493 154.461 12.5493H153.709ZM163.738 12.7093C163.216 12.7093 162.73 12.6026 162.282 12.3893C161.834 12.176 161.477 11.888 161.21 11.5253C160.954 11.152 160.826 10.7413 160.826 10.2933C160.826 9.58932 161.114 9.01332 161.69 8.56532C162.277 8.10665 163.066 7.80798 164.058 7.66932L166.442 7.33332V6.86932C166.442 5.78132 165.818 5.23732 164.57 5.23732C164.101 5.23732 163.717 5.33865 163.418 5.54132C163.12 5.73332 162.896 5.96265 162.746 6.22932C162.714 6.32532 162.672 6.39465 162.618 6.43732C162.576 6.47998 162.512 6.50132 162.426 6.50132H161.738C161.642 6.50132 161.557 6.46932 161.482 6.40532C161.418 6.33065 161.386 6.24532 161.386 6.14932C161.397 5.89332 161.514 5.60532 161.738 5.28532C161.973 4.95465 162.33 4.67198 162.81 4.43732C163.29 4.19198 163.882 4.06932 164.586 4.06932C165.781 4.06932 166.64 4.35198 167.162 4.91732C167.685 5.47198 167.946 6.16532 167.946 6.99732V12.1813C167.946 12.288 167.909 12.3786 167.834 12.4533C167.77 12.5173 167.685 12.5493 167.578 12.5493H166.842C166.736 12.5493 166.645 12.5173 166.57 12.4533C166.506 12.3786 166.474 12.288 166.474 12.1813V11.4933C166.24 11.8346 165.898 12.1226 165.45 12.3573C165.002 12.592 164.432 12.7093 163.738 12.7093ZM164.074 11.5093C164.768 11.5093 165.333 11.2853 165.77 10.8373C166.218 10.3786 166.442 9.72265 166.442 8.86932V8.42132L164.586 8.69332C163.829 8.79998 163.258 8.98132 162.874 9.23732C162.49 9.48265 162.298 9.79732 162.298 10.1813C162.298 10.608 162.474 10.9386 162.826 11.1733C163.178 11.3973 163.594 11.5093 164.074 11.5093ZM173.655 16.0693C172.78 16.0693 172.076 15.92 171.543 15.6213C171.009 15.3333 170.631 15.0026 170.407 14.6293C170.183 14.256 170.06 13.92 170.039 13.6213C170.028 13.5146 170.06 13.424 170.135 13.3493C170.22 13.2746 170.311 13.2373 170.407 13.2373H171.174C171.271 13.2373 171.351 13.2586 171.414 13.3013C171.479 13.3546 171.532 13.4453 171.575 13.5733C171.703 13.9146 171.911 14.208 172.199 14.4533C172.497 14.7093 172.956 14.8373 173.575 14.8373C174.364 14.8373 174.945 14.6666 175.319 14.3253C175.692 13.9946 175.879 13.4026 175.879 12.5493V11.4613C175.601 11.8133 175.249 12.096 174.823 12.3093C174.396 12.512 173.889 12.6133 173.303 12.6133C172.172 12.6133 171.324 12.256 170.759 11.5413C170.204 10.816 169.911 9.89865 169.879 8.78932L169.863 8.34132L169.879 7.90932C169.911 6.81065 170.209 5.89865 170.775 5.17332C171.34 4.43732 172.183 4.06932 173.303 4.06932C174.423 4.06932 175.297 4.47998 175.927 5.30132V4.61332C175.927 4.50665 175.959 4.41598 176.023 4.34132C176.097 4.26665 176.188 4.22932 176.295 4.22932H177.031C177.137 4.22932 177.228 4.26665 177.303 4.34132C177.377 4.41598 177.415 4.50665 177.415 4.61332V12.3733C177.415 14.8373 176.161 16.0693 173.655 16.0693ZM173.623 11.3333C174.348 11.3333 174.897 11.0933 175.271 10.6133C175.644 10.1333 175.847 9.56265 175.879 8.90132C175.889 8.80532 175.895 8.61865 175.895 8.34132C175.895 8.07465 175.889 7.89332 175.879 7.79732C175.847 7.13598 175.644 6.56532 175.271 6.08532C174.908 5.60532 174.359 5.36532 173.623 5.36532C172.865 5.36532 172.316 5.59998 171.975 6.06932C171.633 6.53865 171.447 7.15732 171.414 7.92532L171.399 8.34132L171.414 8.77332C171.447 9.53065 171.633 10.1493 171.975 10.6293C172.316 11.0986 172.865 11.3333 173.623 11.3333ZM183.121 12.7093C182.023 12.7093 181.143 12.3733 180.481 11.7013C179.831 11.0186 179.473 10.0906 179.409 8.91732L179.393 8.37332L179.409 7.84532C179.484 6.69332 179.847 5.77598 180.497 5.09332C181.159 4.41065 182.028 4.06932 183.105 4.06932C184.289 4.06932 185.207 4.44798 185.857 5.20532C186.508 5.95198 186.833 6.96532 186.833 8.24532V8.51732C186.833 8.62398 186.796 8.71465 186.721 8.78932C186.657 8.85332 186.572 8.88532 186.465 8.88532H180.929V9.02932C180.961 9.72265 181.169 10.3146 181.553 10.8053C181.948 11.2853 182.465 11.5253 183.105 11.5253C183.596 11.5253 183.996 11.4293 184.305 11.2373C184.625 11.0346 184.86 10.8266 185.009 10.6133C185.105 10.4853 185.175 10.4106 185.217 10.3893C185.271 10.3573 185.361 10.3413 185.489 10.3413H186.273C186.369 10.3413 186.449 10.368 186.513 10.4213C186.577 10.4746 186.609 10.5493 186.609 10.6453C186.609 10.88 186.46 11.1626 186.161 11.4933C185.873 11.824 185.463 12.112 184.929 12.3573C184.407 12.592 183.804 12.7093 183.121 12.7093ZM185.313 7.78132V7.73332C185.313 6.99732 185.111 6.39998 184.705 5.94132C184.311 5.47198 183.777 5.23732 183.105 5.23732C182.433 5.23732 181.9 5.47198 181.505 5.94132C181.121 6.39998 180.929 6.99732 180.929 7.73332V7.78132H185.313ZM195.573 12.5493C193.887 12.5493 193.045 11.6106 193.045 9.73332V5.50932H191.797C191.69 5.50932 191.599 5.47732 191.525 5.41332C191.461 5.33865 191.429 5.24798 191.429 5.14132V4.59732C191.429 4.49065 191.461 4.40532 191.525 4.34132C191.599 4.26665 191.69 4.22932 191.797 4.22932H193.045V1.55732C193.045 1.45065 193.077 1.36532 193.141 1.30132C193.215 1.22665 193.306 1.18932 193.413 1.18932H194.165C194.271 1.18932 194.357 1.22665 194.421 1.30132C194.495 1.36532 194.533 1.45065 194.533 1.55732V4.22932H196.517C196.623 4.22932 196.709 4.26665 196.773 4.34132C196.847 4.40532 196.885 4.49065 196.885 4.59732V5.14132C196.885 5.24798 196.847 5.33865 196.773 5.41332C196.709 5.47732 196.623 5.50932 196.517 5.50932H194.533V9.62132C194.533 10.1546 194.623 10.56 194.805 10.8373C194.986 11.104 195.285 11.2373 195.701 11.2373H196.677C196.783 11.2373 196.869 11.2746 196.933 11.3493C197.007 11.4133 197.045 11.4986 197.045 11.6053V12.1813C197.045 12.288 197.007 12.3786 196.933 12.4533C196.869 12.5173 196.783 12.5493 196.677 12.5493H195.573ZM198.959 12.5493C198.852 12.5493 198.761 12.5173 198.687 12.4533C198.623 12.3786 198.591 12.288 198.591 12.1813V1.55732C198.591 1.45065 198.623 1.36532 198.687 1.30132C198.761 1.22665 198.852 1.18932 198.959 1.18932H199.759C199.865 1.18932 199.951 1.22665 200.015 1.30132C200.089 1.36532 200.127 1.45065 200.127 1.55732V5.28532C200.436 4.89065 200.799 4.59198 201.215 4.38932C201.631 4.17598 202.148 4.06932 202.767 4.06932C203.791 4.06932 204.585 4.39998 205.151 5.06132C205.727 5.71198 206.015 6.58132 206.015 7.66932V12.1813C206.015 12.288 205.977 12.3786 205.903 12.4533C205.839 12.5173 205.753 12.5493 205.647 12.5493H204.847C204.74 12.5493 204.649 12.5173 204.575 12.4533C204.511 12.3786 204.479 12.288 204.479 12.1813V7.74932C204.479 6.99198 204.292 6.40532 203.919 5.98932C203.556 5.57332 203.028 5.36532 202.335 5.36532C201.663 5.36532 201.124 5.57865 200.719 6.00532C200.324 6.42132 200.127 7.00265 200.127 7.74932V12.1813C200.127 12.288 200.089 12.3786 200.015 12.4533C199.951 12.5173 199.865 12.5493 199.759 12.5493H198.959ZM210.645 12.7093C210.122 12.7093 209.637 12.6026 209.189 12.3893C208.741 12.176 208.383 11.888 208.117 11.5253C207.861 11.152 207.733 10.7413 207.733 10.2933C207.733 9.58932 208.021 9.01332 208.597 8.56532C209.183 8.10665 209.973 7.80798 210.965 7.66932L213.349 7.33332V6.86932C213.349 5.78132 212.725 5.23732 211.477 5.23732C211.007 5.23732 210.623 5.33865 210.325 5.54132C210.026 5.73332 209.802 5.96265 209.653 6.22932C209.621 6.32532 209.578 6.39465 209.525 6.43732C209.482 6.47998 209.418 6.50132 209.333 6.50132H208.645C208.549 6.50132 208.463 6.46932 208.389 6.40532C208.325 6.33065 208.293 6.24532 208.293 6.14932C208.303 5.89332 208.421 5.60532 208.645 5.28532C208.879 4.95465 209.237 4.67198 209.717 4.43732C210.197 4.19198 210.789 4.06932 211.493 4.06932C212.687 4.06932 213.546 4.35198 214.069 4.91732C214.591 5.47198 214.853 6.16532 214.853 6.99732V12.1813C214.853 12.288 214.815 12.3786 214.741 12.4533C214.677 12.5173 214.591 12.5493 214.485 12.5493H213.749C213.642 12.5493 213.551 12.5173 213.477 12.4533C213.413 12.3786 213.381 12.288 213.381 12.1813V11.4933C213.146 11.8346 212.805 12.1226 212.357 12.3573C211.909 12.592 211.338 12.7093 210.645 12.7093ZM210.981 11.5093C211.674 11.5093 212.239 11.2853 212.677 10.8373C213.125 10.3786 213.349 9.72265 213.349 8.86932V8.42132L211.493 8.69332C210.735 8.79998 210.165 8.98132 209.781 9.23732C209.397 9.48265 209.205 9.79732 209.205 10.1813C209.205 10.608 209.381 10.9386 209.733 11.1733C210.085 11.3973 210.501 11.5093 210.981 11.5093ZM220.323 12.5493C218.637 12.5493 217.795 11.6106 217.795 9.73332V5.50932H216.547C216.44 5.50932 216.349 5.47732 216.275 5.41332C216.211 5.33865 216.179 5.24798 216.179 5.14132V4.59732C216.179 4.49065 216.211 4.40532 216.275 4.34132C216.349 4.26665 216.44 4.22932 216.547 4.22932H217.795V1.55732C217.795 1.45065 217.827 1.36532 217.891 1.30132C217.965 1.22665 218.056 1.18932 218.163 1.18932H218.915C219.021 1.18932 219.107 1.22665 219.171 1.30132C219.245 1.36532 219.283 1.45065 219.283 1.55732V4.22932H221.267C221.373 4.22932 221.459 4.26665 221.523 4.34132C221.597 4.40532 221.635 4.49065 221.635 4.59732V5.14132C221.635 5.24798 221.597 5.33865 221.523 5.41332C221.459 5.47732 221.373 5.50932 221.267 5.50932H219.283V9.62132C219.283 10.1546 219.373 10.56 219.555 10.8373C219.736 11.104 220.035 11.2373 220.451 11.2373H221.427C221.533 11.2373 221.619 11.2746 221.683 11.3493C221.757 11.4133 221.795 11.4986 221.795 11.6053V12.1813C221.795 12.288 221.757 12.3786 221.683 12.4533C221.619 12.5173 221.533 12.5493 221.427 12.5493H220.323ZM227.487 2.67732C227.38 2.67732 227.289 2.64532 227.215 2.58132C227.151 2.50665 227.118 2.41598 227.118 2.30932V1.44532C227.118 1.33865 227.151 1.24798 227.215 1.17332C227.289 1.09865 227.38 1.06132 227.487 1.06132H228.495C228.601 1.06132 228.692 1.09865 228.767 1.17332C228.841 1.24798 228.879 1.33865 228.879 1.44532V2.30932C228.879 2.41598 228.841 2.50665 228.767 2.58132C228.692 2.64532 228.601 2.67732 228.495 2.67732H227.487ZM227.615 12.5493C227.508 12.5493 227.417 12.5173 227.343 12.4533C227.279 12.3786 227.247 12.288 227.247 12.1813V4.59732C227.247 4.49065 227.279 4.40532 227.343 4.34132C227.417 4.26665 227.508 4.22932 227.615 4.22932H228.383C228.489 4.22932 228.575 4.26665 228.639 4.34132C228.713 4.40532 228.751 4.49065 228.751 4.59732V12.1813C228.751 12.288 228.713 12.3786 228.639 12.4533C228.575 12.5173 228.489 12.5493 228.383 12.5493H227.615ZM234.002 12.7093C233.255 12.7093 232.626 12.592 232.114 12.3573C231.612 12.112 231.234 11.8346 230.978 11.5253C230.732 11.216 230.61 10.96 230.61 10.7573C230.61 10.6506 230.647 10.5706 230.722 10.5173C230.807 10.4533 230.892 10.4213 230.978 10.4213H231.698C231.804 10.4213 231.9 10.4746 231.986 10.5813C232.242 10.88 232.519 11.1146 232.818 11.2853C233.116 11.456 233.516 11.5413 234.018 11.5413C234.572 11.5413 235.02 11.4346 235.362 11.2213C235.714 10.9973 235.89 10.6933 235.89 10.3093C235.89 10.0533 235.815 9.84532 235.666 9.68532C235.527 9.51465 235.282 9.37065 234.93 9.25332C234.588 9.12532 234.076 8.98665 233.394 8.83732C232.466 8.63465 231.804 8.34132 231.41 7.95732C231.026 7.57332 230.834 7.07732 230.834 6.46932C230.834 6.06398 230.951 5.67998 231.186 5.31732C231.431 4.94398 231.783 4.64532 232.242 4.42132C232.711 4.18665 233.271 4.06932 233.922 4.06932C234.604 4.06932 235.186 4.18132 235.666 4.40532C236.146 4.62932 236.503 4.89598 236.738 5.20532C236.983 5.50398 237.106 5.75465 237.106 5.95732C237.106 6.05332 237.068 6.13332 236.994 6.19732C236.93 6.26132 236.85 6.29332 236.754 6.29332H236.082C235.954 6.29332 235.847 6.23998 235.762 6.13332C235.591 5.93065 235.442 5.77598 235.314 5.66932C235.196 5.55198 235.02 5.45065 234.786 5.36532C234.562 5.27998 234.274 5.23732 233.922 5.23732C233.41 5.23732 233.015 5.34932 232.738 5.57332C232.46 5.78665 232.322 6.06932 232.322 6.42132C232.322 6.64532 232.38 6.83732 232.498 6.99732C232.615 7.14665 232.839 7.28532 233.17 7.41332C233.511 7.54132 234.002 7.67465 234.641 7.81332C235.655 8.02665 236.37 8.33598 236.786 8.74132C237.212 9.13598 237.426 9.64265 237.426 10.2613C237.426 10.72 237.292 11.136 237.026 11.5093C236.759 11.8826 236.364 12.176 235.842 12.3893C235.33 12.6026 234.716 12.7093 234.002 12.7093ZM247.312 12.7093C246.16 12.7093 245.285 12.3093 244.688 11.5093V12.1813C244.688 12.288 244.65 12.3786 244.576 12.4533C244.512 12.5173 244.426 12.5493 244.32 12.5493H243.584C243.477 12.5493 243.386 12.5173 243.312 12.4533C243.248 12.3786 243.216 12.288 243.216 12.1813V1.55732C243.216 1.45065 243.248 1.36532 243.312 1.30132C243.386 1.22665 243.477 1.18932 243.584 1.18932H244.368C244.474 1.18932 244.56 1.22665 244.624 1.30132C244.688 1.36532 244.72 1.45065 244.72 1.55732V5.23732C245.349 4.45865 246.213 4.06932 247.312 4.06932C248.421 4.06932 249.258 4.43732 249.824 5.17332C250.389 5.89865 250.693 6.81065 250.736 7.90932C250.746 8.02665 250.752 8.18665 250.752 8.38932C250.752 8.59198 250.746 8.75198 250.736 8.86932C250.693 9.97865 250.389 10.896 249.824 11.6213C249.258 12.3466 248.421 12.7093 247.312 12.7093ZM246.976 11.4133C247.733 11.4133 248.282 11.1786 248.624 10.7093C248.976 10.24 249.168 9.62132 249.2 8.85332C249.21 8.74665 249.216 8.59198 249.216 8.38932C249.216 6.37332 248.469 5.36532 246.976 5.36532C246.261 5.36532 245.712 5.59998 245.328 6.06932C244.944 6.53865 244.741 7.08798 244.72 7.71732L244.704 8.34132L244.72 8.94932C244.752 9.62132 244.949 10.2026 245.312 10.6933C245.685 11.1733 246.24 11.4133 246.976 11.4133ZM256.043 12.7093C254.945 12.7093 254.065 12.3733 253.403 11.7013C252.753 11.0186 252.395 10.0906 252.331 8.91732L252.315 8.37332L252.331 7.84532C252.406 6.69332 252.769 5.77598 253.419 5.09332C254.081 4.41065 254.95 4.06932 256.027 4.06932C257.211 4.06932 258.129 4.44798 258.779 5.20532C259.43 5.95198 259.755 6.96532 259.755 8.24532V8.51732C259.755 8.62398 259.718 8.71465 259.643 8.78932C259.579 8.85332 259.494 8.88532 259.387 8.88532H253.851V9.02932C253.883 9.72265 254.091 10.3146 254.475 10.8053C254.87 11.2853 255.387 11.5253 256.027 11.5253C256.518 11.5253 256.918 11.4293 257.227 11.2373C257.547 11.0346 257.782 10.8266 257.931 10.6133C258.027 10.4853 258.097 10.4106 258.139 10.3893C258.193 10.3573 258.283 10.3413 258.411 10.3413H259.195C259.291 10.3413 259.371 10.368 259.435 10.4213C259.499 10.4746 259.531 10.5493 259.531 10.6453C259.531 10.88 259.382 11.1626 259.083 11.4933C258.795 11.824 258.385 12.112 257.851 12.3573C257.329 12.592 256.726 12.7093 256.043 12.7093ZM258.235 7.78132V7.73332C258.235 6.99732 258.033 6.39998 257.627 5.94132C257.233 5.47198 256.699 5.23732 256.027 5.23732C255.355 5.23732 254.822 5.47198 254.427 5.94132C254.043 6.39998 253.851 6.99732 253.851 7.73332V7.78132H258.235ZM264.548 12.7093C263.802 12.7093 263.172 12.592 262.66 12.3573C262.159 12.112 261.78 11.8346 261.524 11.5253C261.279 11.216 261.156 10.96 261.156 10.7573C261.156 10.6506 261.194 10.5706 261.268 10.5173C261.354 10.4533 261.439 10.4213 261.524 10.4213H262.244C262.351 10.4213 262.447 10.4746 262.532 10.5813C262.788 10.88 263.066 11.1146 263.364 11.2853C263.663 11.456 264.063 11.5413 264.564 11.5413C265.119 11.5413 265.567 11.4346 265.908 11.2213C266.26 10.9973 266.436 10.6933 266.436 10.3093C266.436 10.0533 266.362 9.84532 266.212 9.68532C266.074 9.51465 265.828 9.37065 265.476 9.25332C265.135 9.12532 264.623 8.98665 263.94 8.83732C263.012 8.63465 262.351 8.34132 261.956 7.95732C261.572 7.57332 261.38 7.07732 261.38 6.46932C261.38 6.06398 261.498 5.67998 261.732 5.31732C261.978 4.94398 262.33 4.64532 262.788 4.42132C263.258 4.18665 263.818 4.06932 264.468 4.06932C265.151 4.06932 265.732 4.18132 266.212 4.40532C266.692 4.62932 267.05 4.89598 267.284 5.20532C267.53 5.50398 267.652 5.75465 267.652 5.95732C267.652 6.05332 267.615 6.13332 267.54 6.19732C267.476 6.26132 267.396 6.29332 267.3 6.29332H266.628C266.5 6.29332 266.394 6.23998 266.308 6.13332C266.138 5.93065 265.988 5.77598 265.86 5.66932C265.743 5.55198 265.567 5.45065 265.332 5.36532C265.108 5.27998 264.82 5.23732 264.468 5.23732C263.956 5.23732 263.562 5.34932 263.284 5.57332C263.007 5.78665 262.868 6.06932 262.868 6.42132C262.868 6.64532 262.927 6.83732 263.044 6.99732C263.162 7.14665 263.386 7.28532 263.716 7.41332C264.058 7.54132 264.548 7.67465 265.188 7.81332C266.202 8.02665 266.916 8.33598 267.332 8.74132C267.759 9.13598 267.972 9.64265 267.972 10.2613C267.972 10.72 267.839 11.136 267.572 11.5093C267.306 11.8826 266.911 12.176 266.388 12.3893C265.876 12.6026 265.263 12.7093 264.548 12.7093ZM273.057 12.5493C271.372 12.5493 270.529 11.6106 270.529 9.73332V5.50932H269.281C269.174 5.50932 269.084 5.47732 269.009 5.41332C268.945 5.33865 268.913 5.24798 268.913 5.14132V4.59732C268.913 4.49065 268.945 4.40532 269.009 4.34132C269.084 4.26665 269.174 4.22932 269.281 4.22932H270.529V1.55732C270.529 1.45065 270.561 1.36532 270.625 1.30132C270.7 1.22665 270.79 1.18932 270.897 1.18932H271.649C271.756 1.18932 271.841 1.22665 271.905 1.30132C271.98 1.36532 272.017 1.45065 272.017 1.55732V4.22932H274.001C274.108 4.22932 274.193 4.26665 274.257 4.34132C274.332 4.40532 274.369 4.49065 274.369 4.59732V5.14132C274.369 5.24798 274.332 5.33865 274.257 5.41332C274.193 5.47732 274.108 5.50932 274.001 5.50932H272.017V9.62132C272.017 10.1546 272.108 10.56 272.289 10.8373C272.47 11.104 272.769 11.2373 273.185 11.2373H274.161C274.268 11.2373 274.353 11.2746 274.417 11.3493C274.492 11.4133 274.529 11.4986 274.529 11.6053V12.1813C274.529 12.288 274.492 12.3786 274.417 12.4533C274.353 12.5173 274.268 12.5493 274.161 12.5493H273.057ZM280.884 12.5493C280.777 12.5493 280.687 12.5173 280.612 12.4533C280.548 12.3786 280.516 12.288 280.516 12.1813V5.50932H279.156C279.049 5.50932 278.959 5.47732 278.884 5.41332C278.82 5.33865 278.788 5.24798 278.788 5.14132V4.59732C278.788 4.49065 278.82 4.40532 278.884 4.34132C278.959 4.26665 279.049 4.22932 279.156 4.22932H280.516V3.42932C280.516 1.61598 281.433 0.709316 283.268 0.709316H284.228C284.335 0.709316 284.42 0.746649 284.484 0.821316C284.559 0.885316 284.596 0.970649 284.596 1.07732V1.62132C284.596 1.72798 284.559 1.81865 284.484 1.89332C284.42 1.95732 284.335 1.98932 284.228 1.98932H283.3C282.82 1.98932 282.484 2.11732 282.292 2.37332C282.1 2.61865 282.004 2.99732 282.004 3.50932V4.22932H284.068C284.175 4.22932 284.26 4.26665 284.324 4.34132C284.399 4.40532 284.436 4.49065 284.436 4.59732V5.14132C284.436 5.24798 284.399 5.33865 284.324 5.41332C284.26 5.47732 284.175 5.50932 284.068 5.50932H282.004V12.1813C282.004 12.288 281.967 12.3786 281.892 12.4533C281.828 12.5173 281.743 12.5493 281.636 12.5493H280.884ZM289.092 12.7093C287.919 12.7093 287.007 12.3786 286.356 11.7173C285.716 11.056 285.375 10.176 285.332 9.07732L285.316 8.38932L285.332 7.70132C285.375 6.61332 285.721 5.73865 286.372 5.07732C287.023 4.40532 287.929 4.06932 289.092 4.06932C290.255 4.06932 291.161 4.40532 291.812 5.07732C292.463 5.73865 292.809 6.61332 292.852 7.70132C292.863 7.81865 292.868 8.04798 292.868 8.38932C292.868 8.73065 292.863 8.95998 292.852 9.07732C292.809 10.176 292.463 11.056 291.812 11.7173C291.172 12.3786 290.265 12.7093 289.092 12.7093ZM289.092 11.4773C289.764 11.4773 290.292 11.264 290.676 10.8373C291.071 10.4106 291.284 9.79732 291.316 8.99732C291.327 8.89065 291.332 8.68798 291.332 8.38932C291.332 8.09065 291.327 7.88798 291.316 7.78132C291.284 6.98132 291.071 6.36798 290.676 5.94132C290.292 5.51465 289.764 5.30132 289.092 5.30132C288.42 5.30132 287.887 5.51465 287.492 5.94132C287.097 6.36798 286.889 6.98132 286.868 7.78132L286.852 8.38932L286.868 8.99732C286.889 9.79732 287.097 10.4106 287.492 10.8373C287.887 11.264 288.42 11.4773 289.092 11.4773ZM295.24 12.5493C295.133 12.5493 295.042 12.5173 294.968 12.4533C294.904 12.3786 294.872 12.288 294.872 12.1813V4.61332C294.872 4.50665 294.904 4.41598 294.968 4.34132C295.042 4.26665 295.133 4.22932 295.24 4.22932H295.976C296.082 4.22932 296.173 4.26665 296.248 4.34132C296.322 4.41598 296.36 4.50665 296.36 4.61332V5.31732C296.797 4.59198 297.544 4.22932 298.6 4.22932H299.224C299.33 4.22932 299.416 4.26665 299.48 4.34132C299.554 4.40532 299.592 4.49065 299.592 4.59732V5.25332C299.592 5.35998 299.554 5.44532 299.48 5.50932C299.416 5.57332 299.33 5.60532 299.224 5.60532H298.264C297.688 5.60532 297.234 5.77598 296.904 6.11732C296.573 6.44798 296.408 6.90132 296.408 7.47732V12.1813C296.408 12.288 296.37 12.3786 296.296 12.4533C296.221 12.5173 296.13 12.5493 296.024 12.5493H295.24ZM305.515 15.5893C305.43 15.5893 305.355 15.5573 305.291 15.4933C305.227 15.4293 305.195 15.3546 305.195 15.2693C305.195 15.1946 305.222 15.0986 305.275 14.9813L306.507 12.0533L303.451 4.83732C303.398 4.69865 303.371 4.60798 303.371 4.56532C303.371 4.46932 303.403 4.38932 303.467 4.32532C303.531 4.26132 303.611 4.22932 303.707 4.22932H304.491C304.662 4.22932 304.79 4.31998 304.875 4.50132L307.307 10.3253L309.803 4.50132C309.888 4.31998 310.022 4.22932 310.203 4.22932H310.955C311.051 4.22932 311.131 4.26132 311.195 4.32532C311.259 4.38932 311.291 4.46398 311.291 4.54932C311.291 4.58132 311.264 4.67732 311.211 4.83732L306.667 15.3173C306.582 15.4986 306.448 15.5893 306.267 15.5893H305.515ZM316.014 12.7093C314.841 12.7093 313.929 12.3786 313.278 11.7173C312.638 11.056 312.297 10.176 312.254 9.07732L312.238 8.38932L312.254 7.70132C312.297 6.61332 312.643 5.73865 313.294 5.07732C313.945 4.40532 314.851 4.06932 316.014 4.06932C317.177 4.06932 318.083 4.40532 318.734 5.07732C319.385 5.73865 319.731 6.61332 319.774 7.70132C319.785 7.81865 319.79 8.04798 319.79 8.38932C319.79 8.73065 319.785 8.95998 319.774 9.07732C319.731 10.176 319.385 11.056 318.734 11.7173C318.094 12.3786 317.187 12.7093 316.014 12.7093ZM316.014 11.4773C316.686 11.4773 317.214 11.264 317.598 10.8373C317.993 10.4106 318.206 9.79732 318.238 8.99732C318.249 8.89065 318.254 8.68798 318.254 8.38932C318.254 8.09065 318.249 7.88798 318.238 7.78132C318.206 6.98132 317.993 6.36798 317.598 5.94132C317.214 5.51465 316.686 5.30132 316.014 5.30132C315.342 5.30132 314.809 5.51465 314.414 5.94132C314.019 6.36798 313.811 6.98132 313.79 7.78132L313.774 8.38932L313.79 8.99732C313.811 9.79732 314.019 10.4106 314.414 10.8373C314.809 11.264 315.342 11.4773 316.014 11.4773ZM324.897 12.7093C323.884 12.7093 323.1 12.384 322.545 11.7333C321.991 11.072 321.713 10.1973 321.713 9.10932V4.59732C321.713 4.49065 321.745 4.40532 321.809 4.34132C321.884 4.26665 321.975 4.22932 322.081 4.22932H322.881C322.988 4.22932 323.073 4.26665 323.137 4.34132C323.212 4.40532 323.249 4.49065 323.249 4.59732V9.02932C323.249 10.6186 323.943 11.4133 325.329 11.4133C326.001 11.4133 326.535 11.2053 326.929 10.7893C327.324 10.3626 327.521 9.77598 327.521 9.02932V4.59732C327.521 4.49065 327.553 4.40532 327.617 4.34132C327.692 4.26665 327.783 4.22932 327.889 4.22932H328.689C328.796 4.22932 328.881 4.26665 328.945 4.34132C329.009 4.40532 329.041 4.49065 329.041 4.59732V12.1813C329.041 12.288 329.009 12.3786 328.945 12.4533C328.881 12.5173 328.796 12.5493 328.689 12.5493H327.937C327.831 12.5493 327.74 12.5173 327.665 12.4533C327.601 12.3786 327.569 12.288 327.569 12.1813V11.4773C327.271 11.8826 326.908 12.192 326.481 12.4053C326.055 12.608 325.527 12.7093 324.897 12.7093ZM337.66 12.7093C337.138 12.7093 336.652 12.6026 336.204 12.3893C335.756 12.176 335.399 11.888 335.132 11.5253C334.876 11.152 334.748 10.7413 334.748 10.2933C334.748 9.58932 335.036 9.01332 335.612 8.56532C336.199 8.10665 336.988 7.80798 337.98 7.66932L340.364 7.33332V6.86932C340.364 5.78132 339.74 5.23732 338.492 5.23732C338.023 5.23732 337.639 5.33865 337.34 5.54132C337.042 5.73332 336.818 5.96265 336.668 6.22932C336.636 6.32532 336.594 6.39465 336.54 6.43732C336.498 6.47998 336.434 6.50132 336.348 6.50132H335.66C335.564 6.50132 335.479 6.46932 335.404 6.40532C335.34 6.33065 335.308 6.24532 335.308 6.14932C335.319 5.89332 335.436 5.60532 335.66 5.28532C335.895 4.95465 336.252 4.67198 336.732 4.43732C337.212 4.19198 337.804 4.06932 338.508 4.06932C339.703 4.06932 340.562 4.35198 341.084 4.91732C341.607 5.47198 341.868 6.16532 341.868 6.99732V12.1813C341.868 12.288 341.831 12.3786 341.756 12.4533C341.692 12.5173 341.607 12.5493 341.5 12.5493H340.764C340.658 12.5493 340.567 12.5173 340.492 12.4533C340.428 12.3786 340.396 12.288 340.396 12.1813V11.4933C340.162 11.8346 339.82 12.1226 339.372 12.3573C338.924 12.592 338.354 12.7093 337.66 12.7093ZM337.996 11.5093C338.69 11.5093 339.255 11.2853 339.692 10.8373C340.14 10.3786 340.364 9.72265 340.364 8.86932V8.42132L338.508 8.69332C337.751 8.79998 337.18 8.98132 336.796 9.23732C336.412 9.48265 336.22 9.79732 336.22 10.1813C336.22 10.608 336.396 10.9386 336.748 11.1733C337.1 11.3973 337.516 11.5093 337.996 11.5093ZM344.536 12.5493C344.43 12.5493 344.339 12.5173 344.264 12.4533C344.2 12.3786 344.168 12.288 344.168 12.1813V4.59732C344.168 4.49065 344.2 4.40532 344.264 4.34132C344.339 4.26665 344.43 4.22932 344.536 4.22932H345.288C345.395 4.22932 345.48 4.26665 345.544 4.34132C345.619 4.40532 345.656 4.49065 345.656 4.59732V5.30132C345.966 4.90665 346.328 4.60265 346.744 4.38932C347.171 4.17598 347.699 4.06932 348.328 4.06932C349.352 4.06932 350.147 4.39998 350.712 5.06132C351.288 5.71198 351.576 6.58132 351.576 7.66932V12.1813C351.576 12.288 351.539 12.3786 351.464 12.4533C351.4 12.5173 351.315 12.5493 351.208 12.5493H350.408C350.302 12.5493 350.211 12.5173 350.136 12.4533C350.072 12.3786 350.04 12.288 350.04 12.1813V7.74932C350.04 6.99198 349.854 6.40532 349.48 5.98932C349.118 5.57332 348.59 5.36532 347.896 5.36532C347.224 5.36532 346.691 5.57865 346.296 6.00532C345.902 6.42132 345.704 7.00265 345.704 7.74932V12.1813C345.704 12.288 345.667 12.3786 345.592 12.4533C345.528 12.5173 345.443 12.5493 345.336 12.5493H344.536ZM356.911 12.7093C355.802 12.7093 354.965 12.3466 354.4 11.6213C353.834 10.896 353.536 9.97865 353.504 8.86932L353.488 8.38932L353.504 7.90932C353.536 6.81065 353.834 5.89865 354.4 5.17332C354.965 4.43732 355.802 4.06932 356.911 4.06932C358.01 4.06932 358.874 4.45865 359.504 5.23732V1.55732C359.504 1.45065 359.536 1.36532 359.6 1.30132C359.674 1.22665 359.765 1.18932 359.872 1.18932H360.64C360.746 1.18932 360.832 1.22665 360.896 1.30132C360.97 1.36532 361.008 1.45065 361.008 1.55732V12.1813C361.008 12.288 360.97 12.3786 360.896 12.4533C360.832 12.5173 360.746 12.5493 360.64 12.5493H359.92C359.813 12.5493 359.722 12.5173 359.648 12.4533C359.584 12.3786 359.552 12.288 359.552 12.1813V11.5093C358.933 12.3093 358.053 12.7093 356.911 12.7093ZM357.248 11.4133C357.984 11.4133 358.533 11.1733 358.896 10.6933C359.269 10.2026 359.472 9.62132 359.504 8.94932C359.514 8.83198 359.52 8.62932 359.52 8.34132C359.52 8.04265 359.514 7.83465 359.504 7.71732C359.482 7.08798 359.28 6.53865 358.896 6.06932C358.512 5.59998 357.962 5.36532 357.248 5.36532C356.49 5.36532 355.936 5.59998 355.584 6.06932C355.242 6.53865 355.056 7.15732 355.024 7.92532L355.008 8.38932C355.008 10.4053 355.754 11.4133 357.248 11.4133ZM370.637 12.7093C369.538 12.7093 368.658 12.3733 367.997 11.7013C367.346 11.0186 366.989 10.0906 366.925 8.91732L366.909 8.37332L366.925 7.84532C367 6.69332 367.362 5.77598 368.013 5.09332C368.674 4.41065 369.544 4.06932 370.621 4.06932C371.805 4.06932 372.722 4.44798 373.373 5.20532C374.024 5.95198 374.349 6.96532 374.349 8.24532V8.51732C374.349 8.62398 374.312 8.71465 374.237 8.78932C374.173 8.85332 374.088 8.88532 373.981 8.88532H368.445V9.02932C368.477 9.72265 368.685 10.3146 369.069 10.8053C369.464 11.2853 369.981 11.5253 370.621 11.5253C371.112 11.5253 371.512 11.4293 371.821 11.2373C372.141 11.0346 372.376 10.8266 372.525 10.6133C372.621 10.4853 372.69 10.4106 372.733 10.3893C372.786 10.3573 372.877 10.3413 373.005 10.3413H373.789C373.885 10.3413 373.965 10.368 374.029 10.4213C374.093 10.4746 374.125 10.5493 374.125 10.6453C374.125 10.88 373.976 11.1626 373.677 11.4933C373.389 11.824 372.978 12.112 372.445 12.3573C371.922 12.592 371.32 12.7093 370.637 12.7093ZM372.829 7.78132V7.73332C372.829 6.99732 372.626 6.39998 372.221 5.94132C371.826 5.47198 371.293 5.23732 370.621 5.23732C369.949 5.23732 369.416 5.47198 369.021 5.94132C368.637 6.39998 368.445 6.99732 368.445 7.73332V7.78132H372.829ZM375.706 12.5493C375.621 12.5493 375.541 12.5173 375.466 12.4533C375.402 12.3893 375.37 12.3093 375.37 12.2133C375.37 12.1173 375.408 12.0213 375.482 11.9253L378.266 8.29332L375.658 4.85332C375.584 4.76798 375.546 4.67198 375.546 4.56532C375.546 4.46932 375.578 4.38932 375.642 4.32532C375.706 4.26132 375.786 4.22932 375.882 4.22932H376.698C376.858 4.22932 376.997 4.31465 377.114 4.48532L379.242 7.25332L381.37 4.50132C381.434 4.41598 381.493 4.35198 381.546 4.30932C381.61 4.25598 381.69 4.22932 381.786 4.22932H382.57C382.666 4.22932 382.746 4.26132 382.81 4.32532C382.874 4.38932 382.906 4.46932 382.906 4.56532C382.906 4.67198 382.869 4.76798 382.794 4.85332L380.154 8.32532L382.938 11.9253C383.013 12.0213 383.05 12.1173 383.05 12.2133C383.05 12.3093 383.018 12.3893 382.954 12.4533C382.89 12.5173 382.81 12.5493 382.714 12.5493H381.866C381.706 12.5493 381.568 12.4693 381.45 12.3093L379.21 9.38132L376.938 12.3093C376.874 12.384 376.81 12.4426 376.746 12.4853C376.693 12.528 376.618 12.5493 376.522 12.5493H375.706ZM385.099 15.5893C384.993 15.5893 384.902 15.552 384.827 15.4773C384.763 15.4133 384.731 15.328 384.731 15.2213V4.59732C384.731 4.49065 384.763 4.40532 384.827 4.34132C384.902 4.26665 384.993 4.22932 385.099 4.22932H385.835C385.942 4.22932 386.027 4.26665 386.091 4.34132C386.166 4.40532 386.203 4.49065 386.203 4.59732V5.30132C386.801 4.47998 387.675 4.06932 388.827 4.06932C389.947 4.06932 390.785 4.42132 391.339 5.12532C391.905 5.82932 392.209 6.73598 392.251 7.84532C392.262 7.96265 392.267 8.14398 392.267 8.38932C392.267 8.63465 392.262 8.81598 392.251 8.93332C392.209 10.032 391.905 10.9386 391.339 11.6533C390.774 12.3573 389.937 12.7093 388.827 12.7093C387.718 12.7093 386.854 12.3093 386.235 11.5093V15.2213C386.235 15.328 386.203 15.4133 386.139 15.4773C386.075 15.552 385.99 15.5893 385.883 15.5893H385.099ZM388.491 11.4133C389.249 11.4133 389.798 11.1786 390.139 10.7093C390.491 10.24 390.683 9.62132 390.715 8.85332C390.726 8.74665 390.731 8.59198 390.731 8.38932C390.731 6.37332 389.985 5.36532 388.491 5.36532C387.755 5.36532 387.201 5.61065 386.827 6.10132C386.465 6.58132 386.267 7.15732 386.235 7.82932L386.219 8.43732L386.235 9.06132C386.257 9.69065 386.459 10.24 386.843 10.7093C387.227 11.1786 387.777 11.4133 388.491 11.4133ZM394.631 12.5493C394.524 12.5493 394.433 12.5173 394.359 12.4533C394.295 12.3786 394.263 12.288 394.263 12.1813V1.55732C394.263 1.45065 394.295 1.36532 394.359 1.30132C394.433 1.22665 394.524 1.18932 394.631 1.18932H395.383C395.489 1.18932 395.575 1.22665 395.639 1.30132C395.713 1.36532 395.751 1.45065 395.751 1.55732V12.1813C395.751 12.288 395.713 12.3786 395.639 12.4533C395.575 12.5173 395.489 12.5493 395.383 12.5493H394.631ZM401.545 12.7093C400.372 12.7093 399.46 12.3786 398.809 11.7173C398.169 11.056 397.828 10.176 397.785 9.07732L397.769 8.38932L397.785 7.70132C397.828 6.61332 398.174 5.73865 398.825 5.07732C399.476 4.40532 400.382 4.06932 401.545 4.06932C402.708 4.06932 403.614 4.40532 404.265 5.07732C404.916 5.73865 405.262 6.61332 405.305 7.70132C405.316 7.81865 405.321 8.04798 405.321 8.38932C405.321 8.73065 405.316 8.95998 405.305 9.07732C405.262 10.176 404.916 11.056 404.265 11.7173C403.625 12.3786 402.718 12.7093 401.545 12.7093ZM401.545 11.4773C402.217 11.4773 402.745 11.264 403.129 10.8373C403.524 10.4106 403.737 9.79732 403.769 8.99732C403.78 8.89065 403.785 8.68798 403.785 8.38932C403.785 8.09065 403.78 7.88798 403.769 7.78132C403.737 6.98132 403.524 6.36798 403.129 5.94132C402.745 5.51465 402.217 5.30132 401.545 5.30132C400.873 5.30132 400.34 5.51465 399.945 5.94132C399.55 6.36798 399.342 6.98132 399.321 7.78132L399.305 8.38932L399.321 8.99732C399.342 9.79732 399.55 10.4106 399.945 10.8373C400.34 11.264 400.873 11.4773 401.545 11.4773ZM407.693 12.5493C407.586 12.5493 407.495 12.5173 407.421 12.4533C407.357 12.3786 407.325 12.288 407.325 12.1813V4.61332C407.325 4.50665 407.357 4.41598 407.421 4.34132C407.495 4.26665 407.586 4.22932 407.693 4.22932H408.429C408.535 4.22932 408.626 4.26665 408.701 4.34132C408.775 4.41598 408.813 4.50665 408.813 4.61332V5.31732C409.25 4.59198 409.997 4.22932 411.053 4.22932H411.677C411.783 4.22932 411.869 4.26665 411.933 4.34132C412.007 4.40532 412.045 4.49065 412.045 4.59732V5.25332C412.045 5.35998 412.007 5.44532 411.933 5.50932C411.869 5.57332 411.783 5.60532 411.677 5.60532H410.717C410.141 5.60532 409.687 5.77598 409.357 6.11732C409.026 6.44798 408.861 6.90132 408.861 7.47732V12.1813C408.861 12.288 408.823 12.3786 408.749 12.4533C408.674 12.5173 408.583 12.5493 408.477 12.5493H407.693ZM416.575 12.7093C415.476 12.7093 414.596 12.3733 413.935 11.7013C413.284 11.0186 412.927 10.0906 412.863 8.91732L412.847 8.37332L412.863 7.84532C412.937 6.69332 413.3 5.77598 413.951 5.09332C414.612 4.41065 415.481 4.06932 416.559 4.06932C417.743 4.06932 418.66 4.44798 419.311 5.20532C419.961 5.95198 420.286 6.96532 420.286 8.24532V8.51732C420.286 8.62398 420.249 8.71465 420.175 8.78932C420.111 8.85332 420.025 8.88532 419.919 8.88532H414.383V9.02932C414.415 9.72265 414.623 10.3146 415.007 10.8053C415.401 11.2853 415.919 11.5253 416.559 11.5253C417.049 11.5253 417.449 11.4293 417.759 11.2373C418.079 11.0346 418.313 10.8266 418.463 10.6133C418.559 10.4853 418.628 10.4106 418.671 10.3893C418.724 10.3573 418.815 10.3413 418.943 10.3413H419.727C419.823 10.3413 419.903 10.368 419.967 10.4213C420.031 10.4746 420.062 10.5493 420.062 10.6453C420.062 10.88 419.913 11.1626 419.615 11.4933C419.327 11.824 418.916 12.112 418.383 12.3573C417.86 12.592 417.257 12.7093 416.575 12.7093ZM418.767 7.78132V7.73332C418.767 6.99732 418.564 6.39998 418.159 5.94132C417.764 5.47198 417.231 5.23732 416.559 5.23732C415.887 5.23732 415.353 5.47198 414.959 5.94132C414.575 6.39998 414.383 6.99732 414.383 7.73332V7.78132H418.767ZM426.362 2.67732C426.255 2.67732 426.164 2.64532 426.09 2.58132C426.026 2.50665 425.993 2.41598 425.993 2.30932V1.44532C425.993 1.33865 426.026 1.24798 426.09 1.17332C426.164 1.09865 426.255 1.06132 426.362 1.06132H427.37C427.476 1.06132 427.567 1.09865 427.642 1.17332C427.716 1.24798 427.754 1.33865 427.754 1.44532V2.30932C427.754 2.41598 427.716 2.50665 427.642 2.58132C427.567 2.64532 427.476 2.67732 427.37 2.67732H426.362ZM426.49 12.5493C426.383 12.5493 426.292 12.5173 426.218 12.4533C426.154 12.3786 426.122 12.288 426.122 12.1813V4.59732C426.122 4.49065 426.154 4.40532 426.218 4.34132C426.292 4.26665 426.383 4.22932 426.49 4.22932H427.258C427.364 4.22932 427.45 4.26665 427.514 4.34132C427.588 4.40532 427.626 4.49065 427.626 4.59732V12.1813C427.626 12.288 427.588 12.3786 427.514 12.4533C427.45 12.5173 427.364 12.5493 427.258 12.5493H426.49ZM433.245 12.5493C431.559 12.5493 430.717 11.6106 430.717 9.73332V5.50932H429.469C429.362 5.50932 429.271 5.47732 429.197 5.41332C429.133 5.33865 429.101 5.24798 429.101 5.14132V4.59732C429.101 4.49065 429.133 4.40532 429.197 4.34132C429.271 4.26665 429.362 4.22932 429.469 4.22932H430.717V1.55732C430.717 1.45065 430.749 1.36532 430.812 1.30132C430.887 1.22665 430.978 1.18932 431.085 1.18932H431.837C431.943 1.18932 432.029 1.22665 432.093 1.30132C432.167 1.36532 432.205 1.45065 432.205 1.55732V4.22932H434.189C434.295 4.22932 434.381 4.26665 434.445 4.34132C434.519 4.40532 434.557 4.49065 434.557 4.59732V5.14132C434.557 5.24798 434.519 5.33865 434.445 5.41332C434.381 5.47732 434.295 5.50932 434.189 5.50932H432.205V9.62132C432.205 10.1546 432.295 10.56 432.477 10.8373C432.658 11.104 432.957 11.2373 433.373 11.2373H434.349C434.455 11.2373 434.541 11.2746 434.605 11.3493C434.679 11.4133 434.717 11.4986 434.717 11.6053V12.1813C434.717 12.288 434.679 12.3786 434.605 12.4533C434.541 12.5173 434.455 12.5493 434.349 12.5493H433.245ZM440.552 12.5493C440.446 12.5493 440.355 12.5173 440.28 12.4533C440.216 12.3786 440.184 12.288 440.184 12.1813V1.55732C440.184 1.45065 440.216 1.36532 440.28 1.30132C440.355 1.22665 440.446 1.18932 440.552 1.18932H441.352C441.459 1.18932 441.544 1.22665 441.608 1.30132C441.683 1.36532 441.72 1.45065 441.72 1.55732V5.28532C442.03 4.89065 442.392 4.59198 442.808 4.38932C443.224 4.17598 443.742 4.06932 444.36 4.06932C445.384 4.06932 446.179 4.39998 446.744 5.06132C447.32 5.71198 447.608 6.58132 447.608 7.66932V12.1813C447.608 12.288 447.571 12.3786 447.496 12.4533C447.432 12.5173 447.347 12.5493 447.24 12.5493H446.44C446.334 12.5493 446.243 12.5173 446.168 12.4533C446.104 12.3786 446.072 12.288 446.072 12.1813V7.74932C446.072 6.99198 445.886 6.40532 445.512 5.98932C445.15 5.57332 444.622 5.36532 443.928 5.36532C443.256 5.36532 442.718 5.57865 442.312 6.00532C441.918 6.42132 441.72 7.00265 441.72 7.74932V12.1813C441.72 12.288 441.683 12.3786 441.608 12.4533C441.544 12.5173 441.459 12.5493 441.352 12.5493H440.552ZM452.238 12.7093C451.716 12.7093 451.23 12.6026 450.782 12.3893C450.334 12.176 449.977 11.888 449.71 11.5253C449.454 11.152 449.326 10.7413 449.326 10.2933C449.326 9.58932 449.614 9.01332 450.19 8.56532C450.777 8.10665 451.566 7.80798 452.558 7.66932L454.942 7.33332V6.86932C454.942 5.78132 454.318 5.23732 453.07 5.23732C452.601 5.23732 452.217 5.33865 451.918 5.54132C451.62 5.73332 451.396 5.96265 451.246 6.22932C451.214 6.32532 451.172 6.39465 451.118 6.43732C451.076 6.47998 451.012 6.50132 450.926 6.50132H450.238C450.142 6.50132 450.057 6.46932 449.982 6.40532C449.918 6.33065 449.886 6.24532 449.886 6.14932C449.897 5.89332 450.014 5.60532 450.238 5.28532C450.473 4.95465 450.83 4.67198 451.31 4.43732C451.79 4.19198 452.382 4.06932 453.086 4.06932C454.281 4.06932 455.14 4.35198 455.662 4.91732C456.185 5.47198 456.446 6.16532 456.446 6.99732V12.1813C456.446 12.288 456.409 12.3786 456.334 12.4533C456.27 12.5173 456.185 12.5493 456.078 12.5493H455.342C455.236 12.5493 455.145 12.5173 455.07 12.4533C455.006 12.3786 454.974 12.288 454.974 12.1813V11.4933C454.74 11.8346 454.398 12.1226 453.95 12.3573C453.502 12.592 452.932 12.7093 452.238 12.7093ZM452.574 11.5093C453.268 11.5093 453.833 11.2853 454.27 10.8373C454.718 10.3786 454.942 9.72265 454.942 8.86932V8.42132L453.086 8.69332C452.329 8.79998 451.758 8.98132 451.374 9.23732C450.99 9.48265 450.798 9.79732 450.798 10.1813C450.798 10.608 450.974 10.9386 451.326 11.1733C451.678 11.3973 452.094 11.5093 452.574 11.5093ZM459.131 15.5893C459.024 15.5893 458.933 15.552 458.859 15.4773C458.795 15.4133 458.763 15.328 458.763 15.2213V4.59732C458.763 4.49065 458.795 4.40532 458.859 4.34132C458.933 4.26665 459.024 4.22932 459.131 4.22932H459.867C459.973 4.22932 460.059 4.26665 460.123 4.34132C460.197 4.40532 460.235 4.49065 460.235 4.59732V5.30132C460.832 4.47998 461.707 4.06932 462.859 4.06932C463.979 4.06932 464.816 4.42132 465.371 5.12532C465.936 5.82932 466.24 6.73598 466.283 7.84532C466.293 7.96265 466.299 8.14398 466.299 8.38932C466.299 8.63465 466.293 8.81598 466.283 8.93332C466.24 10.032 465.936 10.9386 465.371 11.6533C464.805 12.3573 463.968 12.7093 462.859 12.7093C461.749 12.7093 460.885 12.3093 460.267 11.5093V15.2213C460.267 15.328 460.235 15.4133 460.171 15.4773C460.107 15.552 460.021 15.5893 459.914 15.5893H459.131ZM462.523 11.4133C463.28 11.4133 463.829 11.1786 464.171 10.7093C464.523 10.24 464.715 9.62132 464.747 8.85332C464.757 8.74665 464.763 8.59198 464.763 8.38932C464.763 6.37332 464.016 5.36532 462.523 5.36532C461.787 5.36532 461.232 5.61065 460.859 6.10132C460.496 6.58132 460.299 7.15732 460.267 7.82932L460.251 8.43732L460.267 9.06132C460.288 9.69065 460.491 10.24 460.875 10.7093C461.259 11.1786 461.808 11.4133 462.523 11.4133ZM468.662 15.5893C468.555 15.5893 468.464 15.552 468.39 15.4773C468.326 15.4133 468.294 15.328 468.294 15.2213V4.59732C468.294 4.49065 468.326 4.40532 468.39 4.34132C468.464 4.26665 468.555 4.22932 468.662 4.22932H469.398C469.504 4.22932 469.59 4.26665 469.654 4.34132C469.728 4.40532 469.766 4.49065 469.766 4.59732V5.30132C470.363 4.47998 471.238 4.06932 472.39 4.06932C473.51 4.06932 474.347 4.42132 474.902 5.12532C475.467 5.82932 475.771 6.73598 475.814 7.84532C475.824 7.96265 475.83 8.14398 475.83 8.38932C475.83 8.63465 475.824 8.81598 475.814 8.93332C475.771 10.032 475.467 10.9386 474.902 11.6533C474.336 12.3573 473.499 12.7093 472.39 12.7093C471.28 12.7093 470.416 12.3093 469.798 11.5093V15.2213C469.798 15.328 469.766 15.4133 469.702 15.4773C469.638 15.552 469.552 15.5893 469.446 15.5893H468.662ZM472.054 11.4133C472.811 11.4133 473.36 11.1786 473.702 10.7093C474.054 10.24 474.246 9.62132 474.278 8.85332C474.288 8.74665 474.294 8.59198 474.294 8.38932C474.294 6.37332 473.547 5.36532 472.054 5.36532C471.318 5.36532 470.763 5.61065 470.39 6.10132C470.027 6.58132 469.83 7.15732 469.798 7.82932L469.782 8.43732L469.798 9.06132C469.819 9.69065 470.022 10.24 470.406 10.7093C470.79 11.1786 471.339 11.4133 472.054 11.4133ZM478.049 2.67732C477.942 2.67732 477.852 2.64532 477.777 2.58132C477.713 2.50665 477.681 2.41598 477.681 2.30932V1.44532C477.681 1.33865 477.713 1.24798 477.777 1.17332C477.852 1.09865 477.942 1.06132 478.049 1.06132H479.057C479.164 1.06132 479.254 1.09865 479.329 1.17332C479.404 1.24798 479.441 1.33865 479.441 1.44532V2.30932C479.441 2.41598 479.404 2.50665 479.329 2.58132C479.254 2.64532 479.164 2.67732 479.057 2.67732H478.049ZM478.177 12.5493C478.07 12.5493 477.98 12.5173 477.905 12.4533C477.841 12.3786 477.809 12.288 477.809 12.1813V4.59732C477.809 4.49065 477.841 4.40532 477.905 4.34132C477.98 4.26665 478.07 4.22932 478.177 4.22932H478.945C479.052 4.22932 479.137 4.26665 479.201 4.34132C479.276 4.40532 479.313 4.49065 479.313 4.59732V12.1813C479.313 12.288 479.276 12.3786 479.201 12.4533C479.137 12.5173 479.052 12.5493 478.945 12.5493H478.177ZM482.068 12.5493C481.961 12.5493 481.871 12.5173 481.796 12.4533C481.732 12.3786 481.7 12.288 481.7 12.1813V1.55732C481.7 1.45065 481.732 1.36532 481.796 1.30132C481.871 1.22665 481.961 1.18932 482.068 1.18932H482.82C482.927 1.18932 483.012 1.22665 483.076 1.30132C483.151 1.36532 483.188 1.45065 483.188 1.55732V12.1813C483.188 12.288 483.151 12.3786 483.076 12.4533C483.012 12.5173 482.927 12.5493 482.82 12.5493H482.068ZM487.031 15.5893C486.945 15.5893 486.871 15.5573 486.807 15.4933C486.743 15.4293 486.711 15.3546 486.711 15.2693C486.711 15.1946 486.737 15.0986 486.791 14.9813L488.023 12.0533L484.967 4.83732C484.913 4.69865 484.887 4.60798 484.887 4.56532C484.887 4.46932 484.919 4.38932 484.983 4.32532C485.047 4.26132 485.127 4.22932 485.223 4.22932H486.007C486.177 4.22932 486.305 4.31998 486.391 4.50132L488.823 10.3253L491.319 4.50132C491.404 4.31998 491.537 4.22932 491.719 4.22932H492.471C492.567 4.22932 492.647 4.26132 492.711 4.32532C492.775 4.38932 492.807 4.46398 492.807 4.54932C492.807 4.58132 492.78 4.67732 492.727 4.83732L488.183 15.3173C488.097 15.4986 487.964 15.5893 487.783 15.5893H487.031ZM500.223 12.7093C499.7 12.7093 499.215 12.6026 498.767 12.3893C498.319 12.176 497.961 11.888 497.695 11.5253C497.439 11.152 497.311 10.7413 497.311 10.2933C497.311 9.58932 497.599 9.01332 498.175 8.56532C498.761 8.10665 499.551 7.80798 500.543 7.66932L502.927 7.33332V6.86932C502.927 5.78132 502.303 5.23732 501.055 5.23732C500.585 5.23732 500.201 5.33865 499.903 5.54132C499.604 5.73332 499.38 5.96265 499.231 6.22932C499.199 6.32532 499.156 6.39465 499.103 6.43732C499.06 6.47998 498.996 6.50132 498.911 6.50132H498.223C498.127 6.50132 498.041 6.46932 497.967 6.40532C497.903 6.33065 497.871 6.24532 497.871 6.14932C497.881 5.89332 497.999 5.60532 498.223 5.28532C498.457 4.95465 498.815 4.67198 499.295 4.43732C499.775 4.19198 500.367 4.06932 501.071 4.06932C502.265 4.06932 503.124 4.35198 503.647 4.91732C504.169 5.47198 504.431 6.16532 504.431 6.99732V12.1813C504.431 12.288 504.393 12.3786 504.319 12.4533C504.255 12.5173 504.169 12.5493 504.063 12.5493H503.327C503.22 12.5493 503.129 12.5173 503.055 12.4533C502.991 12.3786 502.959 12.288 502.959 12.1813V11.4933C502.724 11.8346 502.383 12.1226 501.935 12.3573C501.487 12.592 500.916 12.7093 500.223 12.7093ZM500.559 11.5093C501.252 11.5093 501.817 11.2853 502.255 10.8373C502.703 10.3786 502.927 9.72265 502.927 8.86932V8.42132L501.071 8.69332C500.313 8.79998 499.743 8.98132 499.359 9.23732C498.975 9.48265 498.783 9.79732 498.783 10.1813C498.783 10.608 498.959 10.9386 499.311 11.1733C499.663 11.3973 500.079 11.5093 500.559 11.5093ZM507.099 12.5493C506.992 12.5493 506.902 12.5173 506.827 12.4533C506.763 12.3786 506.731 12.288 506.731 12.1813V4.59732C506.731 4.49065 506.763 4.40532 506.827 4.34132C506.902 4.26665 506.992 4.22932 507.099 4.22932H507.851C507.958 4.22932 508.043 4.26665 508.107 4.34132C508.182 4.40532 508.219 4.49065 508.219 4.59732V5.30132C508.528 4.90665 508.891 4.60265 509.307 4.38932C509.734 4.17598 510.262 4.06932 510.891 4.06932C511.915 4.06932 512.71 4.39998 513.275 5.06132C513.851 5.71198 514.139 6.58132 514.139 7.66932V12.1813C514.139 12.288 514.102 12.3786 514.027 12.4533C513.963 12.5173 513.878 12.5493 513.771 12.5493H512.971C512.864 12.5493 512.774 12.5173 512.699 12.4533C512.635 12.3786 512.603 12.288 512.603 12.1813V7.74932C512.603 6.99198 512.416 6.40532 512.043 5.98932C511.68 5.57332 511.152 5.36532 510.459 5.36532C509.787 5.36532 509.254 5.57865 508.859 6.00532C508.464 6.42132 508.267 7.00265 508.267 7.74932V12.1813C508.267 12.288 508.23 12.3786 508.155 12.4533C508.091 12.5173 508.006 12.5493 507.899 12.5493H507.099ZM519.474 12.7093C518.365 12.7093 517.527 12.3466 516.962 11.6213C516.397 10.896 516.098 9.97865 516.066 8.86932L516.05 8.38932L516.066 7.90932C516.098 6.81065 516.397 5.89865 516.962 5.17332C517.527 4.43732 518.365 4.06932 519.474 4.06932C520.573 4.06932 521.437 4.45865 522.066 5.23732V1.55732C522.066 1.45065 522.098 1.36532 522.162 1.30132C522.237 1.22665 522.327 1.18932 522.434 1.18932H523.202C523.309 1.18932 523.394 1.22665 523.458 1.30132C523.533 1.36532 523.57 1.45065 523.57 1.55732V12.1813C523.57 12.288 523.533 12.3786 523.458 12.4533C523.394 12.5173 523.309 12.5493 523.202 12.5493H522.482C522.375 12.5493 522.285 12.5173 522.21 12.4533C522.146 12.3786 522.114 12.288 522.114 12.1813V11.5093C521.495 12.3093 520.615 12.7093 519.474 12.7093ZM519.81 11.4133C520.546 11.4133 521.095 11.1733 521.458 10.6933C521.831 10.2026 522.034 9.62132 522.066 8.94932C522.077 8.83198 522.082 8.62932 522.082 8.34132C522.082 8.04265 522.077 7.83465 522.066 7.71732C522.045 7.08798 521.842 6.53865 521.458 6.06932C521.074 5.59998 520.525 5.36532 519.81 5.36532C519.053 5.36532 518.498 5.59998 518.146 6.06932C517.805 6.53865 517.618 7.15732 517.586 7.92532L517.57 8.38932C517.57 10.4053 518.317 11.4133 519.81 11.4133ZM227.505 42.7093C226.364 42.7093 225.468 42.3893 224.817 41.7493C224.177 41.0986 223.836 40.192 223.793 39.0293L223.777 38.3893L223.793 37.7493C223.836 36.5866 224.177 35.6853 224.817 35.0453C225.468 34.3946 226.364 34.0693 227.505 34.0693C228.273 34.0693 228.924 34.208 229.457 34.4853C229.99 34.7626 230.385 35.104 230.641 35.5093C230.908 35.9146 231.052 36.32 231.073 36.7253C231.084 36.832 231.052 36.9173 230.977 36.9813C230.902 37.0453 230.812 37.0773 230.705 37.0773H229.937C229.83 37.0773 229.75 37.056 229.697 37.0133C229.644 36.9706 229.59 36.8853 229.537 36.7573C229.356 36.2453 229.1 35.8826 228.769 35.6693C228.438 35.4453 228.022 35.3333 227.521 35.3333C226.86 35.3333 226.332 35.5413 225.937 35.9573C225.553 36.3626 225.345 36.9866 225.313 37.8293L225.297 38.4053L225.313 38.9493C225.345 39.8026 225.553 40.432 225.937 40.8373C226.321 41.2426 226.849 41.4453 227.521 41.4453C228.022 41.4453 228.438 41.3386 228.769 41.1253C229.1 40.9013 229.356 40.5333 229.537 40.0213C229.59 39.8933 229.644 39.808 229.697 39.7653C229.75 39.712 229.83 39.6853 229.937 39.6853H230.705C230.812 39.6853 230.902 39.7226 230.977 39.7973C231.052 39.8613 231.084 39.9466 231.073 40.0533C231.052 40.448 230.908 40.8533 230.641 41.2693C230.385 41.6746 229.99 42.016 229.457 42.2933C228.934 42.5706 228.284 42.7093 227.505 42.7093ZM233.357 42.5493C233.25 42.5493 233.16 42.5173 233.085 42.4533C233.021 42.3786 232.989 42.288 232.989 42.1813V31.5573C232.989 31.4506 233.021 31.3653 233.085 31.3013C233.16 31.2266 233.25 31.1893 233.357 31.1893H234.157C234.264 31.1893 234.349 31.2266 234.413 31.3013C234.488 31.3653 234.525 31.4506 234.525 31.5573V35.2853C234.834 34.8906 235.197 34.592 235.613 34.3893C236.029 34.176 236.546 34.0693 237.165 34.0693C238.189 34.0693 238.984 34.4 239.549 35.0613C240.125 35.712 240.413 36.5813 240.413 37.6693V42.1813C240.413 42.288 240.376 42.3786 240.301 42.4533C240.237 42.5173 240.152 42.5493 240.045 42.5493H239.245C239.138 42.5493 239.048 42.5173 238.973 42.4533C238.909 42.3786 238.877 42.288 238.877 42.1813V37.7493C238.877 36.992 238.69 36.4053 238.317 35.9893C237.954 35.5733 237.426 35.3653 236.733 35.3653C236.061 35.3653 235.522 35.5786 235.117 36.0053C234.722 36.4213 234.525 37.0026 234.525 37.7493V42.1813C234.525 42.288 234.488 42.3786 234.413 42.4533C234.349 42.5173 234.264 42.5493 234.157 42.5493H233.357ZM246.051 42.7093C244.952 42.7093 244.072 42.3733 243.411 41.7013C242.76 41.0186 242.403 40.0906 242.339 38.9173L242.323 38.3733L242.339 37.8453C242.414 36.6933 242.776 35.776 243.427 35.0933C244.088 34.4106 244.958 34.0693 246.035 34.0693C247.219 34.0693 248.136 34.448 248.787 35.2053C249.438 35.952 249.763 36.9653 249.763 38.2453V38.5173C249.763 38.624 249.726 38.7146 249.651 38.7893C249.587 38.8533 249.502 38.8853 249.395 38.8853H243.859V39.0293C243.891 39.7226 244.099 40.3146 244.483 40.8053C244.878 41.2853 245.395 41.5253 246.035 41.5253C246.526 41.5253 246.926 41.4293 247.235 41.2373C247.555 41.0346 247.79 40.8266 247.939 40.6133C248.035 40.4853 248.104 40.4106 248.147 40.3893C248.2 40.3573 248.291 40.3413 248.419 40.3413H249.203C249.299 40.3413 249.379 40.368 249.443 40.4213C249.507 40.4746 249.539 40.5493 249.539 40.6453C249.539 40.88 249.39 41.1626 249.091 41.4933C248.803 41.824 248.392 42.112 247.859 42.3573C247.336 42.592 246.734 42.7093 246.051 42.7093ZM248.243 37.7813V37.7333C248.243 36.9973 248.04 36.4 247.635 35.9413C247.24 35.472 246.707 35.2373 246.035 35.2373C245.363 35.2373 244.83 35.472 244.435 35.9413C244.051 36.4 243.859 36.9973 243.859 37.7333V37.7813H248.243ZM255.004 42.7093C253.906 42.7093 253.026 42.3733 252.364 41.7013C251.714 41.0186 251.356 40.0906 251.292 38.9173L251.276 38.3733L251.292 37.8453C251.367 36.6933 251.73 35.776 252.38 35.0933C253.042 34.4106 253.911 34.0693 254.988 34.0693C256.172 34.0693 257.09 34.448 257.74 35.2053C258.391 35.952 258.716 36.9653 258.716 38.2453V38.5173C258.716 38.624 258.679 38.7146 258.604 38.7893C258.54 38.8533 258.455 38.8853 258.348 38.8853H252.812V39.0293C252.844 39.7226 253.052 40.3146 253.436 40.8053C253.831 41.2853 254.348 41.5253 254.988 41.5253C255.479 41.5253 255.879 41.4293 256.188 41.2373C256.508 41.0346 256.743 40.8266 256.892 40.6133C256.988 40.4853 257.058 40.4106 257.1 40.3893C257.154 40.3573 257.244 40.3413 257.372 40.3413H258.156C258.252 40.3413 258.332 40.368 258.396 40.4213C258.46 40.4746 258.492 40.5493 258.492 40.6453C258.492 40.88 258.343 41.1626 258.044 41.4933C257.756 41.824 257.346 42.112 256.812 42.3573C256.29 42.592 255.687 42.7093 255.004 42.7093ZM257.196 37.7813V37.7333C257.196 36.9973 256.994 36.4 256.588 35.9413C256.194 35.472 255.66 35.2373 254.988 35.2373C254.316 35.2373 253.783 35.472 253.388 35.9413C253.004 36.4 252.812 36.9973 252.812 37.7333V37.7813H257.196ZM260.997 42.5493C260.891 42.5493 260.8 42.5173 260.725 42.4533C260.661 42.3786 260.629 42.288 260.629 42.1813V34.6133C260.629 34.5066 260.661 34.416 260.725 34.3413C260.8 34.2666 260.891 34.2293 260.997 34.2293H261.733C261.84 34.2293 261.931 34.2666 262.005 34.3413C262.08 34.416 262.117 34.5066 262.117 34.6133V35.3173C262.555 34.592 263.301 34.2293 264.357 34.2293H264.981C265.088 34.2293 265.173 34.2666 265.237 34.3413C265.312 34.4053 265.349 34.4906 265.349 34.5973V35.2533C265.349 35.36 265.312 35.4453 265.237 35.5093C265.173 35.5733 265.088 35.6053 264.981 35.6053H264.021C263.445 35.6053 262.992 35.776 262.661 36.1173C262.331 36.448 262.165 36.9013 262.165 37.4773V42.1813C262.165 42.288 262.128 42.3786 262.053 42.4533C261.979 42.5173 261.888 42.5493 261.781 42.5493H260.997ZM267.907 42.5493C267.801 42.5493 267.71 42.5173 267.635 42.4533C267.571 42.3786 267.539 42.288 267.539 42.1813V35.5093H266.179C266.073 35.5093 265.982 35.4773 265.907 35.4133C265.843 35.3386 265.811 35.248 265.811 35.1413V34.5973C265.811 34.4906 265.843 34.4053 265.907 34.3413C265.982 34.2666 266.073 34.2293 266.179 34.2293H267.539V33.4293C267.539 31.616 268.457 30.7093 270.291 30.7093H271.251C271.358 30.7093 271.443 30.7466 271.507 30.8213C271.582 30.8853 271.619 30.9706 271.619 31.0773V31.6213C271.619 31.728 271.582 31.8186 271.507 31.8933C271.443 31.9573 271.358 31.9893 271.251 31.9893H270.323C269.843 31.9893 269.507 32.1173 269.315 32.3733C269.123 32.6186 269.027 32.9973 269.027 33.5093V34.2293H271.091C271.198 34.2293 271.283 34.2666 271.347 34.3413C271.422 34.4053 271.459 34.4906 271.459 34.5973V35.1413C271.459 35.248 271.422 35.3386 271.347 35.4133C271.283 35.4773 271.198 35.5093 271.091 35.5093H269.027V42.1813C269.027 42.288 268.99 42.3786 268.915 42.4533C268.851 42.5173 268.766 42.5493 268.659 42.5493H267.907ZM275.968 42.7093C274.954 42.7093 274.17 42.384 273.616 41.7333C273.061 41.072 272.784 40.1973 272.784 39.1093V34.5973C272.784 34.4906 272.816 34.4053 272.88 34.3413C272.954 34.2666 273.045 34.2293 273.152 34.2293H273.952C274.058 34.2293 274.144 34.2666 274.208 34.3413C274.282 34.4053 274.32 34.4906 274.32 34.5973V39.0293C274.32 40.6186 275.013 41.4133 276.4 41.4133C277.072 41.4133 277.605 41.2053 278 40.7893C278.394 40.3626 278.592 39.776 278.592 39.0293V34.5973C278.592 34.4906 278.624 34.4053 278.688 34.3413C278.762 34.2666 278.853 34.2293 278.96 34.2293H279.76C279.866 34.2293 279.952 34.2666 280.016 34.3413C280.08 34.4053 280.112 34.4906 280.112 34.5973V42.1813C280.112 42.288 280.08 42.3786 280.016 42.4533C279.952 42.5173 279.866 42.5493 279.76 42.5493H279.008C278.901 42.5493 278.81 42.5173 278.736 42.4533C278.672 42.3786 278.64 42.288 278.64 42.1813V41.4773C278.341 41.8826 277.978 42.192 277.552 42.4053C277.125 42.608 276.597 42.7093 275.968 42.7093ZM282.873 42.5493C282.766 42.5493 282.675 42.5173 282.601 42.4533C282.537 42.3786 282.505 42.288 282.505 42.1813V31.5573C282.505 31.4506 282.537 31.3653 282.601 31.3013C282.675 31.2266 282.766 31.1893 282.873 31.1893H283.625C283.731 31.1893 283.817 31.2266 283.881 31.3013C283.955 31.3653 283.993 31.4506 283.993 31.5573V42.1813C283.993 42.288 283.955 42.3786 283.881 42.4533C283.817 42.5173 283.731 42.5493 283.625 42.5493H282.873ZM286.763 42.5493C286.657 42.5493 286.566 42.5173 286.491 42.4533C286.427 42.3786 286.395 42.288 286.395 42.1813V31.5573C286.395 31.4506 286.427 31.3653 286.491 31.3013C286.566 31.2266 286.657 31.1893 286.763 31.1893H287.515C287.622 31.1893 287.707 31.2266 287.771 31.3013C287.846 31.3653 287.883 31.4506 287.883 31.5573V42.1813C287.883 42.288 287.846 42.3786 287.771 42.4533C287.707 42.5173 287.622 42.5493 287.515 42.5493H286.763ZM291.726 45.5893C291.641 45.5893 291.566 45.5573 291.502 45.4933C291.438 45.4293 291.406 45.3546 291.406 45.2693C291.406 45.1946 291.433 45.0986 291.486 44.9813L292.718 42.0533L289.662 34.8373C289.609 34.6986 289.582 34.608 289.582 34.5653C289.582 34.4693 289.614 34.3893 289.678 34.3253C289.742 34.2613 289.822 34.2293 289.918 34.2293H290.702C290.873 34.2293 291.001 34.32 291.086 34.5013L293.518 40.3253L296.014 34.5013C296.099 34.32 296.233 34.2293 296.414 34.2293H297.166C297.262 34.2293 297.342 34.2613 297.406 34.3253C297.47 34.3893 297.502 34.464 297.502 34.5493C297.502 34.5813 297.475 34.6773 297.422 34.8373L292.878 45.3173C292.793 45.4986 292.659 45.5893 292.478 45.5893H291.726ZM298.448 42.5493C298.341 42.5493 298.25 42.5173 298.176 42.4533C298.112 42.3786 298.08 42.288 298.08 42.1813V41.0293C298.08 40.9226 298.112 40.8373 298.176 40.7733C298.25 40.6986 298.341 40.6613 298.448 40.6613H299.6C299.706 40.6613 299.797 40.6986 299.872 40.7733C299.946 40.8373 299.984 40.9226 299.984 41.0293V42.1813C299.984 42.288 299.946 42.3786 299.872 42.4533C299.797 42.5173 299.706 42.5493 299.6 42.5493H298.448Z" fill="#4F5665"/>
</svg>
