<svg width="144" height="14" viewBox="0 0 144 14" fill="none" xmlns="http://www.w3.org/2000/svg">
<path d="M0.74105 10.5493C0.647717 10.5493 0.57305 10.5213 0.51705 10.4653C0.46105 10.4 0.43305 10.3206 0.43305 10.2273V1.08532C0.43305 0.982649 0.46105 0.903316 0.51705 0.847316C0.57305 0.781983 0.647717 0.749316 0.74105 0.749316H1.35705C1.45038 0.749316 1.52038 0.767982 1.56705 0.805316C1.61372 0.842649 1.66038 0.889316 1.70705 0.945316L6.39705 8.16932V1.08532C6.39705 0.982649 6.42505 0.903316 6.48105 0.847316C6.54638 0.781983 6.62572 0.749316 6.71905 0.749316H7.34905C7.45172 0.749316 7.53105 0.781983 7.58705 0.847316C7.65238 0.903316 7.68505 0.982649 7.68505 1.08532V10.2133C7.68505 10.3066 7.65238 10.386 7.58705 10.4513C7.53105 10.5166 7.45638 10.5493 7.36305 10.5493H6.73305C6.57438 10.5493 6.46238 10.484 6.39705 10.3533L1.70705 3.19932V10.2273C1.70705 10.3206 1.67438 10.4 1.60905 10.4653C1.55305 10.5213 1.47838 10.5493 1.38505 10.5493H0.74105ZM12.9121 10.6893C11.8854 10.6893 11.0921 10.4 10.5321 9.82132C9.98141 9.24265 9.68741 8.47265 9.65008 7.51132L9.63608 6.90932L9.65008 6.30732C9.68741 5.34598 9.98608 4.57598 10.5461 3.99732C11.1154 3.41865 11.9041 3.12932 12.9121 3.12932C13.9201 3.12932 14.7041 3.41865 15.2641 3.99732C15.8334 4.57598 16.1367 5.34598 16.1741 6.30732C16.1927 6.51265 16.2021 6.71332 16.2021 6.90932C16.2021 7.10532 16.1927 7.30598 16.1741 7.51132C16.1367 8.47265 15.8381 9.24265 15.2781 9.82132C14.7274 10.4 13.9387 10.6893 12.9121 10.6893ZM12.9121 9.63932C13.5094 9.63932 13.9807 9.45265 14.3261 9.07932C14.6807 8.69665 14.8721 8.15065 14.9001 7.44132C14.9094 7.34798 14.9141 7.17065 14.9141 6.90932C14.9141 6.64798 14.9094 6.47065 14.9001 6.37732C14.8721 5.66798 14.6807 5.12665 14.3261 4.75332C13.9807 4.37065 13.5094 4.17932 12.9121 4.17932C12.3147 4.17932 11.8387 4.37065 11.4841 4.75332C11.1387 5.12665 10.9521 5.66798 10.9241 6.37732L10.9101 6.90932L10.9241 7.44132C10.9521 8.15065 11.1387 8.69665 11.4841 9.07932C11.8387 9.45265 12.3147 9.63932 12.9121 9.63932ZM23.9071 10.6893C23.2631 10.6893 22.7171 10.5866 22.2691 10.3813C21.8304 10.1666 21.5038 9.92398 21.2891 9.65332C21.0744 9.38265 20.9671 9.15865 20.9671 8.98132C20.9671 8.88798 20.9998 8.81798 21.0651 8.77132C21.1304 8.71532 21.2004 8.68732 21.2751 8.68732H21.8631C21.9191 8.68732 21.9611 8.69665 21.9891 8.71532C22.0264 8.73398 22.0731 8.77598 22.1291 8.84132C22.3438 9.10265 22.5818 9.30798 22.8431 9.45732C23.1138 9.60665 23.4731 9.68132 23.9211 9.68132C24.4251 9.68132 24.8264 9.58798 25.1251 9.40132C25.4331 9.21465 25.5871 8.94398 25.5871 8.58932C25.5871 8.35598 25.5218 8.16932 25.3911 8.02932C25.2604 7.88932 25.0411 7.76332 24.7331 7.65132C24.4344 7.53932 23.9864 7.41798 23.3891 7.28732C22.5771 7.10998 22.0031 6.85332 21.6671 6.51732C21.3311 6.18132 21.1631 5.74732 21.1631 5.21532C21.1631 4.86998 21.2658 4.53865 21.4711 4.22132C21.6764 3.89465 21.9798 3.63332 22.3811 3.43732C22.7918 3.23198 23.2771 3.12932 23.8371 3.12932C24.4251 3.12932 24.9244 3.22732 25.3351 3.42332C25.7551 3.61932 26.0678 3.84798 26.2731 4.10932C26.4878 4.37065 26.5951 4.58998 26.5951 4.76732C26.5951 4.85132 26.5624 4.92132 26.4971 4.97732C26.4411 5.03332 26.3711 5.06132 26.2871 5.06132H25.7551C25.6244 5.06132 25.5311 5.00998 25.4751 4.90732C25.3164 4.72998 25.1811 4.59465 25.0691 4.50132C24.9664 4.39865 24.8124 4.31465 24.6071 4.24932C24.4018 4.17465 24.1451 4.13732 23.8371 4.13732C23.3798 4.13732 23.0298 4.23532 22.7871 4.43132C22.5444 4.61798 22.4231 4.86998 22.4231 5.18732C22.4231 5.38332 22.4744 5.55132 22.5771 5.69132C22.6798 5.82198 22.8758 5.94798 23.1651 6.06932C23.4544 6.18132 23.8838 6.29798 24.4531 6.41932C25.3398 6.60598 25.9651 6.87198 26.3291 7.21732C26.7024 7.56265 26.8891 8.00598 26.8891 8.54732C26.8891 8.94865 26.7724 9.31265 26.5391 9.63932C26.3151 9.96598 25.9744 10.2226 25.5171 10.4093C25.0691 10.596 24.5324 10.6893 23.9071 10.6893ZM28.8605 13.2093C28.7672 13.2093 28.6878 13.1813 28.6225 13.1253C28.5665 13.0693 28.5385 12.99 28.5385 12.8873V3.59132C28.5385 3.48865 28.5665 3.40932 28.6225 3.35332C28.6878 3.29732 28.7672 3.26932 28.8605 3.26932H29.4485C29.5512 3.26932 29.6305 3.29732 29.6865 3.35332C29.7425 3.40932 29.7705 3.48865 29.7705 3.59132V4.20732C30.3118 3.48865 31.0818 3.12932 32.0805 3.12932C33.0605 3.12932 33.7932 3.44198 34.2785 4.06732C34.7732 4.68332 35.0345 5.47198 35.0625 6.43332C35.0718 6.53598 35.0765 6.69465 35.0765 6.90932C35.0765 7.12398 35.0718 7.28265 35.0625 7.38532C35.0345 8.33732 34.7732 9.12598 34.2785 9.75132C33.7932 10.3766 33.0605 10.6893 32.0805 10.6893C31.0818 10.6893 30.3258 10.3346 29.8125 9.62532V12.8873C29.8125 12.9806 29.7798 13.0553 29.7145 13.1113C29.6585 13.1766 29.5838 13.2093 29.4905 13.2093H28.8605ZM31.8145 9.59732C32.4865 9.59732 32.9765 9.38732 33.2845 8.96732C33.5925 8.54732 33.7605 7.99665 33.7885 7.31532C33.7978 7.22198 33.8025 7.08665 33.8025 6.90932C33.8025 5.11732 33.1398 4.22132 31.8145 4.22132C31.1612 4.22132 30.6665 4.44065 30.3305 4.87932C30.0038 5.30865 29.8312 5.81732 29.8125 6.40532C29.8032 6.50798 29.7985 6.68998 29.7985 6.95132C29.7985 7.21265 29.8032 7.39465 29.8125 7.49732C29.8312 8.06665 30.0085 8.56132 30.3445 8.98132C30.6898 9.39198 31.1798 9.59732 31.8145 9.59732ZM39.721 10.6893C38.769 10.6893 38.0083 10.3953 37.439 9.80732C36.8697 9.20998 36.557 8.39798 36.501 7.37132L36.487 6.89532L36.501 6.43332C36.557 5.42532 36.8697 4.62265 37.439 4.02532C38.0083 3.42798 38.769 3.12932 39.721 3.12932C40.7477 3.12932 41.541 3.45598 42.101 4.10932C42.6703 4.76265 42.955 5.64932 42.955 6.76932V7.02132C42.955 7.11465 42.9223 7.19398 42.857 7.25932C42.801 7.31532 42.7263 7.34332 42.633 7.34332H37.775V7.46932C37.803 8.07598 37.9897 8.59398 38.335 9.02332C38.6803 9.45265 39.1377 9.66732 39.707 9.66732C40.1457 9.66732 40.5003 9.58332 40.771 9.41532C41.051 9.23798 41.261 9.05598 41.401 8.86932C41.485 8.75732 41.5503 8.69198 41.597 8.67332C41.6437 8.64532 41.723 8.63132 41.835 8.63132H42.451C42.535 8.63132 42.605 8.65465 42.661 8.70132C42.7263 8.74798 42.759 8.80865 42.759 8.88332C42.759 9.08865 42.633 9.33598 42.381 9.62532C42.129 9.91465 41.7697 10.1666 41.303 10.3813C40.8457 10.5866 40.3183 10.6893 39.721 10.6893ZM41.681 6.39132V6.34932C41.681 5.69598 41.5037 5.16398 41.149 4.75332C40.7943 4.34265 40.3183 4.13732 39.721 4.13732C39.1143 4.13732 38.6383 4.34265 38.293 4.75332C37.9477 5.16398 37.775 5.69598 37.775 6.34932V6.39132H41.681ZM47.5693 10.6893C46.5706 10.6893 45.7913 10.4093 45.2313 9.84932C44.6713 9.27998 44.3773 8.48665 44.3493 7.46932L44.3353 6.90932L44.3493 6.34932C44.3773 5.33198 44.6713 4.54332 45.2313 3.98332C45.7913 3.41398 46.5706 3.12932 47.5693 3.12932C48.2413 3.12932 48.806 3.25065 49.2633 3.49332C49.73 3.72665 50.0753 4.02065 50.2993 4.37532C50.5326 4.72998 50.6586 5.08465 50.6773 5.43932C50.6866 5.52332 50.654 5.59798 50.5793 5.66332C50.514 5.72865 50.4393 5.76132 50.3553 5.76132H49.7393C49.646 5.76132 49.576 5.74265 49.5293 5.70532C49.4826 5.65865 49.436 5.57932 49.3893 5.46732C49.2213 5.00998 48.988 4.68798 48.6893 4.50132C48.4 4.30532 48.0313 4.20732 47.5833 4.20732C46.9953 4.20732 46.5286 4.38932 46.1833 4.75332C45.838 5.11732 45.6513 5.67265 45.6233 6.41932L45.6093 6.90932L45.6233 7.39932C45.6513 8.14598 45.838 8.70132 46.1833 9.06532C46.5286 9.42932 46.9953 9.61132 47.5833 9.61132C48.0406 9.61132 48.414 9.51798 48.7033 9.33132C48.9926 9.13532 49.2213 8.80865 49.3893 8.35132C49.436 8.23932 49.4826 8.16465 49.5293 8.12732C49.576 8.08065 49.646 8.05732 49.7393 8.05732H50.3553C50.4393 8.05732 50.514 8.08998 50.5793 8.15532C50.654 8.22065 50.6866 8.29532 50.6773 8.37932C50.6586 8.72465 50.5326 9.07465 50.2993 9.42932C50.0753 9.78398 49.73 10.0826 49.2633 10.3253C48.806 10.568 48.2413 10.6893 47.5693 10.6893ZM52.5646 1.89732C52.4712 1.89732 52.3919 1.86932 52.3266 1.81332C52.2706 1.74798 52.2426 1.66865 52.2426 1.57532V0.847316C52.2426 0.753983 52.2706 0.674649 52.3266 0.609316C52.3919 0.543983 52.4712 0.511316 52.5646 0.511316H53.3906C53.4839 0.511316 53.5632 0.543983 53.6286 0.609316C53.6939 0.674649 53.7266 0.753983 53.7266 0.847316V1.57532C53.7266 1.66865 53.6939 1.74798 53.6286 1.81332C53.5632 1.86932 53.4839 1.89732 53.3906 1.89732H52.5646ZM52.6766 10.5493C52.5832 10.5493 52.5039 10.5213 52.4386 10.4653C52.3826 10.4 52.3546 10.3206 52.3546 10.2273V3.59132C52.3546 3.49798 52.3826 3.42332 52.4386 3.36732C52.5039 3.30198 52.5832 3.26932 52.6766 3.26932H53.2926C53.3859 3.26932 53.4606 3.30198 53.5166 3.36732C53.5819 3.42332 53.6146 3.49798 53.6146 3.59132V10.2273C53.6146 10.3206 53.5819 10.4 53.5166 10.4653C53.4606 10.5213 53.3859 10.5493 53.2926 10.5493H52.6766ZM56.7678 10.5493C56.6745 10.5493 56.5952 10.5213 56.5298 10.4653C56.4738 10.4 56.4458 10.3206 56.4458 10.2273V4.34732H55.2418C55.1485 4.34732 55.0692 4.31932 55.0038 4.26332C54.9478 4.20732 54.9198 4.13265 54.9198 4.03932V3.59132C54.9198 3.49798 54.9478 3.42332 55.0038 3.36732C55.0692 3.30198 55.1485 3.26932 55.2418 3.26932H56.4458V2.56932C56.4458 1.81332 56.6278 1.22998 56.9918 0.819316C57.3652 0.399316 57.9718 0.189316 58.8118 0.189316H60.9118C61.0052 0.189316 61.0798 0.221983 61.1358 0.287316C61.1918 0.343316 61.2198 0.417982 61.2198 0.511316V0.959316C61.2198 1.05265 61.1918 1.12732 61.1358 1.18332C61.0798 1.23932 61.0052 1.26732 60.9118 1.26732H58.8398C58.4105 1.26732 58.1118 1.37932 57.9438 1.60332C57.7758 1.82732 57.6918 2.17265 57.6918 2.63932V3.26932H60.9118C61.0052 3.26932 61.0798 3.30198 61.1358 3.36732C61.1918 3.42332 61.2198 3.49798 61.2198 3.59132V10.2273C61.2198 10.3206 61.1918 10.4 61.1358 10.4653C61.0798 10.5213 61.0052 10.5493 60.9118 10.5493H60.2958C60.2025 10.5493 60.1232 10.5213 60.0578 10.4653C60.0018 10.4 59.9738 10.3206 59.9738 10.2273V4.34732H57.6918V10.2273C57.6918 10.3206 57.6592 10.4 57.5938 10.4653C57.5378 10.5213 57.4632 10.5493 57.3698 10.5493H56.7678ZM66.2314 10.6893C65.2327 10.6893 64.4534 10.4093 63.8934 9.84932C63.3334 9.27998 63.0394 8.48665 63.0114 7.46932L62.9974 6.90932L63.0114 6.34932C63.0394 5.33198 63.3334 4.54332 63.8934 3.98332C64.4534 3.41398 65.2327 3.12932 66.2314 3.12932C66.9034 3.12932 67.4681 3.25065 67.9254 3.49332C68.3921 3.72665 68.7374 4.02065 68.9614 4.37532C69.1947 4.72998 69.3207 5.08465 69.3394 5.43932C69.3487 5.52332 69.3161 5.59798 69.2414 5.66332C69.1761 5.72865 69.1014 5.76132 69.0174 5.76132H68.4014C68.3081 5.76132 68.2381 5.74265 68.1914 5.70532C68.1447 5.65865 68.0981 5.57932 68.0514 5.46732C67.8834 5.00998 67.6501 4.68798 67.3514 4.50132C67.0621 4.30532 66.6934 4.20732 66.2454 4.20732C65.6574 4.20732 65.1907 4.38932 64.8454 4.75332C64.5001 5.11732 64.3134 5.67265 64.2854 6.41932L64.2714 6.90932L64.2854 7.39932C64.3134 8.14598 64.5001 8.70132 64.8454 9.06532C65.1907 9.42932 65.6574 9.61132 66.2454 9.61132C66.7027 9.61132 67.0761 9.51798 67.3654 9.33132C67.6547 9.13532 67.8834 8.80865 68.0514 8.35132C68.0981 8.23932 68.1447 8.16465 68.1914 8.12732C68.2381 8.08065 68.3081 8.05732 68.4014 8.05732H69.0174C69.1014 8.05732 69.1761 8.08998 69.2414 8.15532C69.3161 8.22065 69.3487 8.29532 69.3394 8.37932C69.3207 8.72465 69.1947 9.07465 68.9614 9.42932C68.7374 9.78398 68.3921 10.0826 67.9254 10.3253C67.4681 10.568 66.9034 10.6893 66.2314 10.6893ZM76.9612 10.5493C75.5145 10.5493 74.7912 9.73265 74.7912 8.09932V4.34732H73.6852C73.5919 4.34732 73.5172 4.31932 73.4612 4.26332C73.4052 4.20732 73.3772 4.13265 73.3772 4.03932V3.59132C73.3772 3.49798 73.4052 3.42332 73.4612 3.36732C73.5172 3.30198 73.5919 3.26932 73.6852 3.26932H74.7912V0.931316C74.7912 0.837983 74.8192 0.763316 74.8752 0.707316C74.9312 0.641983 75.0059 0.609316 75.0992 0.609316H75.7152C75.8085 0.609316 75.8832 0.641983 75.9392 0.707316C76.0045 0.763316 76.0372 0.837983 76.0372 0.931316V3.26932H77.7732C77.8665 3.26932 77.9412 3.30198 77.9972 3.36732C78.0625 3.42332 78.0952 3.49798 78.0952 3.59132V4.03932C78.0952 4.13265 78.0625 4.20732 77.9972 4.26332C77.9412 4.31932 77.8665 4.34732 77.7732 4.34732H76.0372V8.00132C76.0372 8.47732 76.1119 8.83665 76.2612 9.07932C76.4199 9.32198 76.6859 9.44332 77.0592 9.44332H77.9132C78.0065 9.44332 78.0812 9.47598 78.1372 9.54132C78.1932 9.59732 78.2212 9.67198 78.2212 9.76532V10.2273C78.2212 10.3206 78.1932 10.4 78.1372 10.4653C78.0812 10.5213 78.0065 10.5493 77.9132 10.5493H76.9612ZM79.7989 1.89732C79.7056 1.89732 79.6263 1.86932 79.5609 1.81332C79.5049 1.74798 79.4769 1.66865 79.4769 1.57532V0.847316C79.4769 0.753983 79.5049 0.674649 79.5609 0.609316C79.6263 0.543983 79.7056 0.511316 79.7989 0.511316H80.6249C80.7183 0.511316 80.7976 0.543983 80.8629 0.609316C80.9283 0.674649 80.9609 0.753983 80.9609 0.847316V1.57532C80.9609 1.66865 80.9283 1.74798 80.8629 1.81332C80.7976 1.86932 80.7183 1.89732 80.6249 1.89732H79.7989ZM79.9109 10.5493C79.8176 10.5493 79.7383 10.5213 79.6729 10.4653C79.6169 10.4 79.5889 10.3206 79.5889 10.2273V3.59132C79.5889 3.49798 79.6169 3.42332 79.6729 3.36732C79.7383 3.30198 79.8176 3.26932 79.9109 3.26932H80.5269C80.6203 3.26932 80.6949 3.30198 80.7509 3.36732C80.8163 3.42332 80.8489 3.49798 80.8489 3.59132V10.2273C80.8489 10.3206 80.8163 10.4 80.7509 10.4653C80.6949 10.5213 80.6203 10.5493 80.5269 10.5493H79.9109ZM83.2742 10.5493C83.1809 10.5493 83.1016 10.5213 83.0362 10.4653C82.9802 10.4 82.9522 10.3206 82.9522 10.2273V3.59132C82.9522 3.49798 82.9802 3.42332 83.0362 3.36732C83.1016 3.30198 83.1809 3.26932 83.2742 3.26932H83.8622C83.9556 3.26932 84.0302 3.30198 84.0862 3.36732C84.1422 3.42332 84.1702 3.49798 84.1702 3.59132V4.06732C84.6742 3.44198 85.3556 3.12932 86.2142 3.12932C87.2409 3.12932 87.9689 3.55865 88.3982 4.41732C88.6222 4.02532 88.9396 3.71265 89.3502 3.47932C89.7702 3.24598 90.2369 3.12932 90.7502 3.12932C91.5156 3.12932 92.1409 3.39065 92.6262 3.91332C93.1116 4.43598 93.3542 5.19198 93.3542 6.18132V10.2273C93.3542 10.3206 93.3216 10.4 93.2562 10.4653C93.2002 10.5213 93.1256 10.5493 93.0322 10.5493H92.4302C92.3369 10.5493 92.2576 10.5213 92.1922 10.4653C92.1362 10.4 92.1082 10.3206 92.1082 10.2273V6.30732C92.1082 5.56065 91.9542 5.02865 91.6462 4.71132C91.3382 4.38465 90.9322 4.22132 90.4282 4.22132C89.9802 4.22132 89.5929 4.38932 89.2662 4.72532C88.9489 5.05198 88.7902 5.57932 88.7902 6.30732V10.2273C88.7902 10.3206 88.7576 10.4 88.6922 10.4653C88.6362 10.5213 88.5616 10.5493 88.4682 10.5493H87.8522C87.7589 10.5493 87.6796 10.5213 87.6142 10.4653C87.5582 10.4 87.5302 10.3206 87.5302 10.2273V6.30732C87.5302 5.56998 87.3669 5.03798 87.0402 4.71132C86.7229 4.38465 86.3262 4.22132 85.8502 4.22132C85.4022 4.22132 85.0149 4.38465 84.6882 4.71132C84.3709 5.03798 84.2122 5.56532 84.2122 6.29332V10.2273C84.2122 10.3206 84.1796 10.4 84.1142 10.4653C84.0582 10.5213 83.9836 10.5493 83.8902 10.5493H83.2742ZM98.264 10.6893C97.312 10.6893 96.5513 10.3953 95.982 9.80732C95.4126 9.20998 95.1 8.39798 95.044 7.37132L95.03 6.89532L95.044 6.43332C95.1 5.42532 95.4126 4.62265 95.982 4.02532C96.5513 3.42798 97.312 3.12932 98.264 3.12932C99.2906 3.12932 100.084 3.45598 100.644 4.10932C101.213 4.76265 101.498 5.64932 101.498 6.76932V7.02132C101.498 7.11465 101.465 7.19398 101.4 7.25932C101.344 7.31532 101.269 7.34332 101.176 7.34332H96.318V7.46932C96.346 8.07598 96.5326 8.59398 96.878 9.02332C97.2233 9.45265 97.6806 9.66732 98.25 9.66732C98.6886 9.66732 99.0433 9.58332 99.314 9.41532C99.594 9.23798 99.804 9.05598 99.944 8.86932C100.028 8.75732 100.093 8.69198 100.14 8.67332C100.187 8.64532 100.266 8.63132 100.378 8.63132H100.994C101.078 8.63132 101.148 8.65465 101.204 8.70132C101.269 8.74798 101.302 8.80865 101.302 8.88332C101.302 9.08865 101.176 9.33598 100.924 9.62532C100.672 9.91465 100.313 10.1666 99.846 10.3813C99.3886 10.5866 98.8613 10.6893 98.264 10.6893ZM100.224 6.39132V6.34932C100.224 5.69598 100.047 5.16398 99.692 4.75332C99.3373 4.34265 98.8613 4.13732 98.264 4.13732C97.6573 4.13732 97.1813 4.34265 96.836 4.75332C96.4906 5.16398 96.318 5.69598 96.318 6.34932V6.39132H100.224ZM106.982 10.5493C106.888 10.5493 106.809 10.5213 106.744 10.4653C106.688 10.4 106.66 10.3206 106.66 10.2273V0.931316C106.66 0.828649 106.688 0.749316 106.744 0.693316C106.809 0.637316 106.888 0.609316 106.982 0.609316H107.598C107.691 0.609316 107.766 0.641983 107.822 0.707316C107.887 0.763316 107.92 0.837983 107.92 0.931316V10.2273C107.92 10.3206 107.887 10.4 107.822 10.4653C107.766 10.5213 107.691 10.5493 107.598 10.5493H106.982ZM110.233 1.89732C110.139 1.89732 110.06 1.86932 109.995 1.81332C109.939 1.74798 109.911 1.66865 109.911 1.57532V0.847316C109.911 0.753983 109.939 0.674649 109.995 0.609316C110.06 0.543983 110.139 0.511316 110.233 0.511316H111.059C111.152 0.511316 111.231 0.543983 111.297 0.609316C111.362 0.674649 111.395 0.753983 111.395 0.847316V1.57532C111.395 1.66865 111.362 1.74798 111.297 1.81332C111.231 1.86932 111.152 1.89732 111.059 1.89732H110.233ZM110.345 10.5493C110.251 10.5493 110.172 10.5213 110.107 10.4653C110.051 10.4 110.023 10.3206 110.023 10.2273V3.59132C110.023 3.49798 110.051 3.42332 110.107 3.36732C110.172 3.30198 110.251 3.26932 110.345 3.26932H110.961C111.054 3.26932 111.129 3.30198 111.185 3.36732C111.25 3.42332 111.283 3.49798 111.283 3.59132V10.2273C111.283 10.3206 111.25 10.4 111.185 10.4653C111.129 10.5213 111.054 10.5493 110.961 10.5493H110.345ZM113.708 10.5493C113.614 10.5493 113.535 10.5213 113.47 10.4653C113.414 10.4 113.386 10.3206 113.386 10.2273V3.59132C113.386 3.49798 113.414 3.42332 113.47 3.36732C113.535 3.30198 113.614 3.26932 113.708 3.26932H114.296C114.389 3.26932 114.464 3.30198 114.52 3.36732C114.576 3.42332 114.604 3.49798 114.604 3.59132V4.06732C115.108 3.44198 115.789 3.12932 116.648 3.12932C117.674 3.12932 118.402 3.55865 118.832 4.41732C119.056 4.02532 119.373 3.71265 119.784 3.47932C120.204 3.24598 120.67 3.12932 121.184 3.12932C121.949 3.12932 122.574 3.39065 123.06 3.91332C123.545 4.43598 123.788 5.19198 123.788 6.18132V10.2273C123.788 10.3206 123.755 10.4 123.69 10.4653C123.634 10.5213 123.559 10.5493 123.466 10.5493H122.864C122.77 10.5493 122.691 10.5213 122.626 10.4653C122.57 10.4 122.542 10.3206 122.542 10.2273V6.30732C122.542 5.56065 122.388 5.02865 122.08 4.71132C121.772 4.38465 121.366 4.22132 120.862 4.22132C120.414 4.22132 120.026 4.38932 119.7 4.72532C119.382 5.05198 119.224 5.57932 119.224 6.30732V10.2273C119.224 10.3206 119.191 10.4 119.126 10.4653C119.07 10.5213 118.995 10.5493 118.902 10.5493H118.286C118.192 10.5493 118.113 10.5213 118.048 10.4653C117.992 10.4 117.964 10.3206 117.964 10.2273V6.30732C117.964 5.56998 117.8 5.03798 117.474 4.71132C117.156 4.38465 116.76 4.22132 116.284 4.22132C115.836 4.22132 115.448 4.38465 115.122 4.71132C114.804 5.03798 114.646 5.56532 114.646 6.29332V10.2273C114.646 10.3206 114.613 10.4 114.548 10.4653C114.492 10.5213 114.417 10.5493 114.324 10.5493H113.708ZM126.024 1.89732C125.93 1.89732 125.851 1.86932 125.786 1.81332C125.73 1.74798 125.702 1.66865 125.702 1.57532V0.847316C125.702 0.753983 125.73 0.674649 125.786 0.609316C125.851 0.543983 125.93 0.511316 126.024 0.511316H126.85C126.943 0.511316 127.022 0.543983 127.088 0.609316C127.153 0.674649 127.186 0.753983 127.186 0.847316V1.57532C127.186 1.66865 127.153 1.74798 127.088 1.81332C127.022 1.86932 126.943 1.89732 126.85 1.89732H126.024ZM126.136 10.5493C126.042 10.5493 125.963 10.5213 125.898 10.4653C125.842 10.4 125.814 10.3206 125.814 10.2273V3.59132C125.814 3.49798 125.842 3.42332 125.898 3.36732C125.963 3.30198 126.042 3.26932 126.136 3.26932H126.752C126.845 3.26932 126.92 3.30198 126.976 3.36732C127.041 3.42332 127.074 3.49798 127.074 3.59132V10.2273C127.074 10.3206 127.041 10.4 126.976 10.4653C126.92 10.5213 126.845 10.5493 126.752 10.5493H126.136ZM131.977 10.5493C130.53 10.5493 129.807 9.73265 129.807 8.09932V4.34732H128.701C128.607 4.34732 128.533 4.31932 128.477 4.26332C128.421 4.20732 128.393 4.13265 128.393 4.03932V3.59132C128.393 3.49798 128.421 3.42332 128.477 3.36732C128.533 3.30198 128.607 3.26932 128.701 3.26932H129.807V0.931316C129.807 0.837983 129.835 0.763316 129.891 0.707316C129.947 0.641983 130.021 0.609316 130.115 0.609316H130.731C130.824 0.609316 130.899 0.641983 130.955 0.707316C131.02 0.763316 131.053 0.837983 131.053 0.931316V3.26932H132.789C132.882 3.26932 132.957 3.30198 133.013 3.36732C133.078 3.42332 133.111 3.49798 133.111 3.59132V4.03932C133.111 4.13265 133.078 4.20732 133.013 4.26332C132.957 4.31932 132.882 4.34732 132.789 4.34732H131.053V8.00132C131.053 8.47732 131.127 8.83665 131.277 9.07932C131.435 9.32198 131.701 9.44332 132.075 9.44332H132.929C133.022 9.44332 133.097 9.47598 133.153 9.54132C133.209 9.59732 133.237 9.67198 133.237 9.76532V10.2273C133.237 10.3206 133.209 10.4 133.153 10.4653C133.097 10.5213 133.022 10.5493 132.929 10.5493H131.977ZM137.097 10.6893C136.453 10.6893 135.907 10.5866 135.459 10.3813C135.02 10.1666 134.693 9.92398 134.479 9.65332C134.264 9.38265 134.157 9.15865 134.157 8.98132C134.157 8.88798 134.189 8.81798 134.255 8.77132C134.32 8.71532 134.39 8.68732 134.465 8.68732H135.053C135.109 8.68732 135.151 8.69665 135.179 8.71532C135.216 8.73398 135.263 8.77598 135.319 8.84132C135.533 9.10265 135.771 9.30798 136.033 9.45732C136.303 9.60665 136.663 9.68132 137.111 9.68132C137.615 9.68132 138.016 9.58798 138.315 9.40132C138.623 9.21465 138.777 8.94398 138.777 8.58932C138.777 8.35598 138.711 8.16932 138.581 8.02932C138.45 7.88932 138.231 7.76332 137.923 7.65132C137.624 7.53932 137.176 7.41798 136.579 7.28732C135.767 7.10998 135.193 6.85332 134.857 6.51732C134.521 6.18132 134.353 5.74732 134.353 5.21532C134.353 4.86998 134.455 4.53865 134.661 4.22132C134.866 3.89465 135.169 3.63332 135.571 3.43732C135.981 3.23198 136.467 3.12932 137.027 3.12932C137.615 3.12932 138.114 3.22732 138.525 3.42332C138.945 3.61932 139.257 3.84798 139.463 4.10932C139.677 4.37065 139.785 4.58998 139.785 4.76732C139.785 4.85132 139.752 4.92132 139.687 4.97732C139.631 5.03332 139.561 5.06132 139.477 5.06132H138.945C138.814 5.06132 138.721 5.00998 138.665 4.90732C138.506 4.72998 138.371 4.59465 138.259 4.50132C138.156 4.39865 138.002 4.31465 137.797 4.24932C137.591 4.17465 137.335 4.13732 137.027 4.13732C136.569 4.13732 136.219 4.23532 135.977 4.43132C135.734 4.61798 135.613 4.86998 135.613 5.18732C135.613 5.38332 135.664 5.55132 135.767 5.69132C135.869 5.82198 136.065 5.94798 136.355 6.06932C136.644 6.18132 137.073 6.29798 137.643 6.41932C138.529 6.60598 139.155 6.87198 139.519 7.21732C139.892 7.56265 140.079 8.00598 140.079 8.54732C140.079 8.94865 139.962 9.31265 139.729 9.63932C139.505 9.96598 139.164 10.2226 138.707 10.4093C138.259 10.596 137.722 10.6893 137.097 10.6893ZM141.938 10.5493C141.845 10.5493 141.765 10.5213 141.7 10.4653C141.644 10.4 141.616 10.3206 141.616 10.2273V9.26132C141.616 9.16798 141.644 9.08865 141.7 9.02332C141.765 8.95798 141.845 8.92532 141.938 8.92532H142.904C142.997 8.92532 143.072 8.95798 143.128 9.02332C143.193 9.08865 143.226 9.16798 143.226 9.26132V10.2273C143.226 10.3206 143.193 10.4 143.128 10.4653C143.072 10.5213 142.997 10.5493 142.904 10.5493H141.938Z" fill="#4F5665"/>
</svg>
