<svg width="177" height="14" viewBox="0 0 177 14" fill="none" xmlns="http://www.w3.org/2000/svg">
<path d="M0.74105 10.5493C0.647717 10.5493 0.57305 10.5213 0.51705 10.4653C0.46105 10.4 0.43305 10.3206 0.43305 10.2273V1.08532C0.43305 0.982649 0.46105 0.903316 0.51705 0.847316C0.57305 0.781983 0.647717 0.749316 0.74105 0.749316H4.28305C5.33772 0.749316 6.16372 1.00598 6.76105 1.51932C7.36772 2.02332 7.67105 2.76065 7.67105 3.73132C7.67105 4.70198 7.36772 5.43932 6.76105 5.94332C6.16372 6.44732 5.33772 6.69932 4.28305 6.69932H1.76305V10.2273C1.76305 10.3206 1.73038 10.4 1.66505 10.4653C1.60905 10.5213 1.53438 10.5493 1.44105 10.5493H0.74105ZM4.21305 5.56532C5.62238 5.56532 6.32705 4.95398 6.32705 3.73132C6.32705 3.13398 6.14972 2.67665 5.79505 2.35932C5.44972 2.04198 4.92238 1.88332 4.21305 1.88332H1.76305V5.56532H4.21305ZM12.0781 10.6893C11.0514 10.6893 10.2581 10.4 9.6981 9.82132C9.14743 9.24265 8.85343 8.47265 8.8161 7.51132L8.8021 6.90932L8.8161 6.30732C8.85343 5.34598 9.1521 4.57598 9.7121 3.99732C10.2814 3.41865 11.0701 3.12932 12.0781 3.12932C13.0861 3.12932 13.8701 3.41865 14.4301 3.99732C14.9994 4.57598 15.3028 5.34598 15.3401 6.30732C15.3588 6.51265 15.3681 6.71332 15.3681 6.90932C15.3681 7.10532 15.3588 7.30598 15.3401 7.51132C15.3028 8.47265 15.0041 9.24265 14.4441 9.82132C13.8934 10.4 13.1048 10.6893 12.0781 10.6893ZM12.0781 9.63932C12.6754 9.63932 13.1468 9.45265 13.4921 9.07932C13.8468 8.69665 14.0381 8.15065 14.0661 7.44132C14.0754 7.34798 14.0801 7.17065 14.0801 6.90932C14.0801 6.64798 14.0754 6.47065 14.0661 6.37732C14.0381 5.66798 13.8468 5.12665 13.4921 4.75332C13.1468 4.37065 12.6754 4.17932 12.0781 4.17932C11.4808 4.17932 11.0048 4.37065 10.6501 4.75332C10.3048 5.12665 10.1181 5.66798 10.0901 6.37732L10.0761 6.90932L10.0901 7.44132C10.1181 8.15065 10.3048 8.69665 10.6501 9.07932C11.0048 9.45265 11.4808 9.63932 12.0781 9.63932ZM18.8764 10.5493C18.7457 10.5493 18.6477 10.5213 18.5824 10.4653C18.5171 10.4093 18.4657 10.3206 18.4284 10.1993L16.4404 3.70332L16.4124 3.56332C16.4124 3.47932 16.4404 3.40932 16.4964 3.35332C16.5524 3.29732 16.6224 3.26932 16.7064 3.26932H17.2804C17.3737 3.26932 17.4484 3.29732 17.5044 3.35332C17.5697 3.39998 17.6071 3.44665 17.6164 3.49332L19.1984 8.84132L20.8784 3.56332C20.8971 3.48865 20.9391 3.42332 21.0044 3.36732C21.0697 3.30198 21.1584 3.26932 21.2704 3.26932H21.7184C21.8304 3.26932 21.9191 3.30198 21.9844 3.36732C22.0497 3.42332 22.0917 3.48865 22.1104 3.56332L23.7904 8.84132L25.3724 3.49332C25.3817 3.44665 25.4144 3.39998 25.4704 3.35332C25.5357 3.29732 25.6151 3.26932 25.7084 3.26932H26.2824C26.3664 3.26932 26.4364 3.29732 26.4924 3.35332C26.5484 3.40932 26.5764 3.47932 26.5764 3.56332L26.5484 3.70332L24.5604 10.1993C24.5231 10.3206 24.4717 10.4093 24.4064 10.4653C24.3411 10.5213 24.2431 10.5493 24.1124 10.5493H23.6084C23.3657 10.5493 23.2071 10.4326 23.1324 10.1993L21.4944 5.13132L19.8564 10.1993C19.7817 10.4326 19.6231 10.5493 19.3804 10.5493H18.8764ZM30.8343 10.6893C29.8823 10.6893 29.1216 10.3953 28.5523 9.80732C27.9829 9.20998 27.6703 8.39798 27.6143 7.37132L27.6003 6.89532L27.6143 6.43332C27.6703 5.42532 27.9829 4.62265 28.5523 4.02532C29.1216 3.42798 29.8823 3.12932 30.8343 3.12932C31.8609 3.12932 32.6543 3.45598 33.2143 4.10932C33.7836 4.76265 34.0683 5.64932 34.0683 6.76932V7.02132C34.0683 7.11465 34.0356 7.19398 33.9703 7.25932C33.9143 7.31532 33.8396 7.34332 33.7463 7.34332H28.8883V7.46932C28.9163 8.07598 29.1029 8.59398 29.4483 9.02332C29.7936 9.45265 30.2509 9.66732 30.8203 9.66732C31.2589 9.66732 31.6136 9.58332 31.8843 9.41532C32.1643 9.23798 32.3743 9.05598 32.5143 8.86932C32.5983 8.75732 32.6636 8.69198 32.7103 8.67332C32.7569 8.64532 32.8363 8.63132 32.9483 8.63132H33.5643C33.6483 8.63132 33.7183 8.65465 33.7743 8.70132C33.8396 8.74798 33.8723 8.80865 33.8723 8.88332C33.8723 9.08865 33.7463 9.33598 33.4943 9.62532C33.2423 9.91465 32.8829 10.1666 32.4163 10.3813C31.9589 10.5866 31.4316 10.6893 30.8343 10.6893ZM32.7943 6.39132V6.34932C32.7943 5.69598 32.6169 5.16398 32.2623 4.75332C31.9076 4.34265 31.4316 4.13732 30.8343 4.13732C30.2276 4.13732 29.7516 4.34265 29.4063 4.75332C29.0609 5.16398 28.8883 5.69598 28.8883 6.34932V6.39132H32.7943ZM36.0926 10.5493C35.9992 10.5493 35.9199 10.5213 35.8546 10.4653C35.7986 10.4 35.7706 10.3206 35.7706 10.2273V3.60532C35.7706 3.51198 35.7986 3.43265 35.8546 3.36732C35.9199 3.30198 35.9992 3.26932 36.0926 3.26932H36.6806C36.7832 3.26932 36.8626 3.30198 36.9186 3.36732C36.9839 3.42332 37.0166 3.50265 37.0166 3.60532V4.22132C37.3992 3.58665 38.0479 3.26932 38.9626 3.26932H39.5086C39.6112 3.26932 39.6906 3.29732 39.7466 3.35332C39.8026 3.40932 39.8306 3.48865 39.8306 3.59132V4.10932C39.8306 4.20265 39.8026 4.28198 39.7466 4.34732C39.6906 4.40332 39.6112 4.43132 39.5086 4.43132H38.7106C38.1972 4.43132 37.7912 4.58065 37.4926 4.87932C37.2032 5.17798 37.0586 5.58398 37.0586 6.09732V10.2273C37.0586 10.3206 37.0259 10.4 36.9606 10.4653C36.8952 10.5213 36.8159 10.5493 36.7226 10.5493H36.0926ZM42.0843 10.5493C41.9909 10.5493 41.9116 10.5213 41.8463 10.4653C41.7903 10.4 41.7623 10.3206 41.7623 10.2273V4.34732H40.5583C40.4649 4.34732 40.3856 4.31932 40.3203 4.26332C40.2643 4.20732 40.2363 4.13265 40.2363 4.03932V3.59132C40.2363 3.49798 40.2643 3.42332 40.3203 3.36732C40.3856 3.30198 40.4649 3.26932 40.5583 3.26932H41.7623V2.56932C41.7623 1.81332 41.9443 1.22998 42.3083 0.819316C42.6816 0.399316 43.2883 0.189316 44.1283 0.189316H44.9543C45.0476 0.189316 45.1223 0.221983 45.1783 0.287316C45.2436 0.343316 45.2763 0.417982 45.2763 0.511316V0.959316C45.2763 1.05265 45.2436 1.12732 45.1783 1.18332C45.1223 1.23932 45.0476 1.26732 44.9543 1.26732H44.1563C43.7269 1.26732 43.4283 1.37932 43.2603 1.60332C43.0923 1.82732 43.0083 2.17265 43.0083 2.63932V3.26932H44.8143C44.9076 3.26932 44.9823 3.30198 45.0383 3.36732C45.1036 3.42332 45.1363 3.49798 45.1363 3.59132V4.03932C45.1363 4.13265 45.1036 4.20732 45.0383 4.26332C44.9823 4.31932 44.9076 4.34732 44.8143 4.34732H43.0083V10.2273C43.0083 10.3206 42.9756 10.4 42.9103 10.4653C42.8543 10.5213 42.7796 10.5493 42.6863 10.5493H42.0843ZM49.096 10.6893C48.2093 10.6893 47.5233 10.4046 47.038 9.83532C46.5526 9.25665 46.31 8.49132 46.31 7.53932V3.59132C46.31 3.49798 46.338 3.42332 46.394 3.36732C46.4593 3.30198 46.5386 3.26932 46.632 3.26932H47.276C47.3693 3.26932 47.444 3.30198 47.5 3.36732C47.5653 3.42332 47.598 3.49798 47.598 3.59132V7.46932C47.598 8.88798 48.214 9.59732 49.446 9.59732C50.0433 9.59732 50.5146 9.41065 50.86 9.03732C51.2146 8.65465 51.392 8.13198 51.392 7.46932V3.59132C51.392 3.49798 51.42 3.42332 51.476 3.36732C51.5413 3.30198 51.6206 3.26932 51.714 3.26932H52.358C52.4513 3.26932 52.526 3.30198 52.582 3.36732C52.6473 3.42332 52.68 3.49798 52.68 3.59132V10.2273C52.68 10.3206 52.6473 10.4 52.582 10.4653C52.526 10.5213 52.4513 10.5493 52.358 10.5493H51.756C51.6626 10.5493 51.5833 10.5213 51.518 10.4653C51.462 10.4 51.434 10.3206 51.434 10.2273V9.59732C51.1633 9.96132 50.846 10.2366 50.482 10.4233C50.118 10.6006 49.656 10.6893 49.096 10.6893ZM55.1105 10.5493C55.0172 10.5493 54.9378 10.5213 54.8725 10.4653C54.8165 10.4 54.7885 10.3206 54.7885 10.2273V0.931316C54.7885 0.828649 54.8165 0.749316 54.8725 0.693316C54.9378 0.637316 55.0172 0.609316 55.1105 0.609316H55.7265C55.8198 0.609316 55.8945 0.641983 55.9505 0.707316C56.0158 0.763316 56.0485 0.837983 56.0485 0.931316V10.2273C56.0485 10.3206 56.0158 10.4 55.9505 10.4653C55.8945 10.5213 55.8198 10.5493 55.7265 10.5493H55.1105ZM58.4874 10.5493C58.3941 10.5493 58.3148 10.5213 58.2494 10.4653C58.1934 10.4 58.1654 10.3206 58.1654 10.2273V0.931316C58.1654 0.828649 58.1934 0.749316 58.2494 0.693316C58.3148 0.637316 58.3941 0.609316 58.4874 0.609316H59.1034C59.1968 0.609316 59.2714 0.641983 59.3274 0.707316C59.3928 0.763316 59.4254 0.837983 59.4254 0.931316V10.2273C59.4254 10.3206 59.3928 10.4 59.3274 10.4653C59.2714 10.5213 59.1968 10.5493 59.1034 10.5493H58.4874ZM67.9277 10.6893C66.901 10.6893 66.1077 10.4 65.5477 9.82132C64.997 9.24265 64.703 8.47265 64.6657 7.51132L64.6517 6.90932L64.6657 6.30732C64.703 5.34598 65.0017 4.57598 65.5617 3.99732C66.131 3.41865 66.9197 3.12932 67.9277 3.12932C68.9357 3.12932 69.7197 3.41865 70.2797 3.99732C70.849 4.57598 71.1524 5.34598 71.1897 6.30732C71.2084 6.51265 71.2177 6.71332 71.2177 6.90932C71.2177 7.10532 71.2084 7.30598 71.1897 7.51132C71.1524 8.47265 70.8537 9.24265 70.2937 9.82132C69.743 10.4 68.9544 10.6893 67.9277 10.6893ZM67.9277 9.63932C68.525 9.63932 68.9964 9.45265 69.3417 9.07932C69.6964 8.69665 69.8877 8.15065 69.9157 7.44132C69.925 7.34798 69.9297 7.17065 69.9297 6.90932C69.9297 6.64798 69.925 6.47065 69.9157 6.37732C69.8877 5.66798 69.6964 5.12665 69.3417 4.75332C68.9964 4.37065 68.525 4.17932 67.9277 4.17932C67.3304 4.17932 66.8544 4.37065 66.4997 4.75332C66.1544 5.12665 65.9677 5.66798 65.9397 6.37732L65.9257 6.90932L65.9397 7.44132C65.9677 8.15065 66.1544 8.69665 66.4997 9.07932C66.8544 9.45265 67.3304 9.63932 67.9277 9.63932ZM73.3074 10.5493C73.2141 10.5493 73.1348 10.5213 73.0694 10.4653C73.0134 10.4 72.9854 10.3206 72.9854 10.2273V3.59132C72.9854 3.49798 73.0134 3.42332 73.0694 3.36732C73.1348 3.30198 73.2141 3.26932 73.3074 3.26932H73.9094C74.0121 3.26932 74.0914 3.29732 74.1474 3.35332C74.2034 3.40932 74.2314 3.48865 74.2314 3.59132V4.20732C74.5114 3.86198 74.8334 3.59598 75.1974 3.40932C75.5708 3.22265 76.0328 3.12932 76.5834 3.12932C77.4794 3.12932 78.1748 3.41865 78.6694 3.99732C79.1641 4.56665 79.4114 5.32265 79.4114 6.26532V10.2273C79.4114 10.3206 79.3788 10.4 79.3134 10.4653C79.2574 10.5213 79.1828 10.5493 79.0894 10.5493H78.4454C78.3521 10.5493 78.2728 10.5213 78.2074 10.4653C78.1514 10.4 78.1234 10.3206 78.1234 10.2273V6.34932C78.1234 5.67732 77.9601 5.15465 77.6334 4.78132C77.3068 4.40798 76.8401 4.22132 76.2334 4.22132C75.6361 4.22132 75.1601 4.41265 74.8054 4.79532C74.4508 5.16865 74.2734 5.68665 74.2734 6.34932V10.2273C74.2734 10.3206 74.2408 10.4 74.1754 10.4653C74.1194 10.5213 74.0448 10.5493 73.9514 10.5493H73.3074ZM81.7706 10.5493C81.6773 10.5493 81.598 10.5213 81.5326 10.4653C81.4766 10.4 81.4486 10.3206 81.4486 10.2273V0.931316C81.4486 0.828649 81.4766 0.749316 81.5326 0.693316C81.598 0.637316 81.6773 0.609316 81.7706 0.609316H82.3866C82.48 0.609316 82.5546 0.641983 82.6106 0.707316C82.676 0.763316 82.7086 0.837983 82.7086 0.931316V10.2273C82.7086 10.3206 82.676 10.4 82.6106 10.4653C82.5546 10.5213 82.48 10.5493 82.3866 10.5493H81.7706ZM85.0216 1.89732C84.9283 1.89732 84.8489 1.86932 84.7836 1.81332C84.7276 1.74798 84.6996 1.66865 84.6996 1.57532V0.847316C84.6996 0.753983 84.7276 0.674649 84.7836 0.609316C84.8489 0.543983 84.9283 0.511316 85.0216 0.511316H85.8476C85.9409 0.511316 86.0203 0.543983 86.0856 0.609316C86.1509 0.674649 86.1836 0.753983 86.1836 0.847316V1.57532C86.1836 1.66865 86.1509 1.74798 86.0856 1.81332C86.0203 1.86932 85.9409 1.89732 85.8476 1.89732H85.0216ZM85.1336 10.5493C85.0403 10.5493 84.9609 10.5213 84.8956 10.4653C84.8396 10.4 84.8116 10.3206 84.8116 10.2273V3.59132C84.8116 3.49798 84.8396 3.42332 84.8956 3.36732C84.9609 3.30198 85.0403 3.26932 85.1336 3.26932H85.7496C85.8429 3.26932 85.9176 3.30198 85.9736 3.36732C86.0389 3.42332 86.0716 3.49798 86.0716 3.59132V10.2273C86.0716 10.3206 86.0389 10.4 85.9736 10.4653C85.9176 10.5213 85.8429 10.5493 85.7496 10.5493H85.1336ZM88.4969 10.5493C88.4035 10.5493 88.3242 10.5213 88.2589 10.4653C88.2029 10.4 88.1749 10.3206 88.1749 10.2273V3.59132C88.1749 3.49798 88.2029 3.42332 88.2589 3.36732C88.3242 3.30198 88.4035 3.26932 88.4969 3.26932H89.0989C89.2015 3.26932 89.2809 3.29732 89.3369 3.35332C89.3929 3.40932 89.4209 3.48865 89.4209 3.59132V4.20732C89.7009 3.86198 90.0229 3.59598 90.3869 3.40932C90.7602 3.22265 91.2222 3.12932 91.7729 3.12932C92.6689 3.12932 93.3642 3.41865 93.8589 3.99732C94.3535 4.56665 94.6009 5.32265 94.6009 6.26532V10.2273C94.6009 10.3206 94.5682 10.4 94.5029 10.4653C94.4469 10.5213 94.3722 10.5493 94.2789 10.5493H93.6349C93.5415 10.5493 93.4622 10.5213 93.3969 10.4653C93.3409 10.4 93.3129 10.3206 93.3129 10.2273V6.34932C93.3129 5.67732 93.1495 5.15465 92.8229 4.78132C92.4962 4.40798 92.0295 4.22132 91.4229 4.22132C90.8255 4.22132 90.3495 4.41265 89.9949 4.79532C89.6402 5.16865 89.4629 5.68665 89.4629 6.34932V10.2273C89.4629 10.3206 89.4302 10.4 89.3649 10.4653C89.3089 10.5213 89.2342 10.5493 89.1409 10.5493H88.4969ZM99.5081 10.6893C98.5561 10.6893 97.7954 10.3953 97.2261 9.80732C96.6568 9.20998 96.3441 8.39798 96.2881 7.37132L96.2741 6.89532L96.2881 6.43332C96.3441 5.42532 96.6568 4.62265 97.2261 4.02532C97.7954 3.42798 98.5561 3.12932 99.5081 3.12932C100.535 3.12932 101.328 3.45598 101.888 4.10932C102.457 4.76265 102.742 5.64932 102.742 6.76932V7.02132C102.742 7.11465 102.709 7.19398 102.644 7.25932C102.588 7.31532 102.513 7.34332 102.42 7.34332H97.5621V7.46932C97.5901 8.07598 97.7768 8.59398 98.1221 9.02332C98.4674 9.45265 98.9248 9.66732 99.4941 9.66732C99.9328 9.66732 100.287 9.58332 100.558 9.41532C100.838 9.23798 101.048 9.05598 101.188 8.86932C101.272 8.75732 101.337 8.69198 101.384 8.67332C101.431 8.64532 101.51 8.63132 101.622 8.63132H102.238C102.322 8.63132 102.392 8.65465 102.448 8.70132C102.513 8.74798 102.546 8.80865 102.546 8.88332C102.546 9.08865 102.42 9.33598 102.168 9.62532C101.916 9.91465 101.557 10.1666 101.09 10.3813C100.633 10.5866 100.105 10.6893 99.5081 10.6893ZM101.468 6.39132V6.34932C101.468 5.69598 101.291 5.16398 100.936 4.75332C100.581 4.34265 100.105 4.13732 99.5081 4.13732C98.9014 4.13732 98.4254 4.34265 98.0801 4.75332C97.7348 5.16398 97.5621 5.69598 97.5621 6.34932V6.39132H101.468ZM108.226 13.2093C108.132 13.2093 108.053 13.1813 107.988 13.1253C107.932 13.0693 107.904 12.99 107.904 12.8873V3.59132C107.904 3.48865 107.932 3.40932 107.988 3.35332C108.053 3.29732 108.132 3.26932 108.226 3.26932H108.814C108.916 3.26932 108.996 3.29732 109.052 3.35332C109.108 3.40932 109.136 3.48865 109.136 3.59132V4.20732C109.677 3.48865 110.447 3.12932 111.446 3.12932C112.426 3.12932 113.158 3.44198 113.644 4.06732C114.138 4.68332 114.4 5.47198 114.428 6.43332C114.437 6.53598 114.442 6.69465 114.442 6.90932C114.442 7.12398 114.437 7.28265 114.428 7.38532C114.4 8.33732 114.138 9.12598 113.644 9.75132C113.158 10.3766 112.426 10.6893 111.446 10.6893C110.447 10.6893 109.691 10.3346 109.178 9.62532V12.8873C109.178 12.9806 109.145 13.0553 109.08 13.1113C109.024 13.1766 108.949 13.2093 108.856 13.2093H108.226ZM111.18 9.59732C111.852 9.59732 112.342 9.38732 112.65 8.96732C112.958 8.54732 113.126 7.99665 113.154 7.31532C113.163 7.22198 113.168 7.08665 113.168 6.90932C113.168 5.11732 112.505 4.22132 111.18 4.22132C110.526 4.22132 110.032 4.44065 109.696 4.87932C109.369 5.30865 109.196 5.81732 109.178 6.40532C109.168 6.50798 109.164 6.68998 109.164 6.95132C109.164 7.21265 109.168 7.39465 109.178 7.49732C109.196 8.06665 109.374 8.56132 109.71 8.98132C110.055 9.39198 110.545 9.59732 111.18 9.59732ZM116.524 10.5493C116.431 10.5493 116.352 10.5213 116.286 10.4653C116.23 10.4 116.202 10.3206 116.202 10.2273V3.60532C116.202 3.51198 116.23 3.43265 116.286 3.36732C116.352 3.30198 116.431 3.26932 116.524 3.26932H117.112C117.215 3.26932 117.294 3.30198 117.35 3.36732C117.416 3.42332 117.448 3.50265 117.448 3.60532V4.22132C117.831 3.58665 118.48 3.26932 119.394 3.26932H119.94C120.043 3.26932 120.122 3.29732 120.178 3.35332C120.234 3.40932 120.262 3.48865 120.262 3.59132V4.10932C120.262 4.20265 120.234 4.28198 120.178 4.34732C120.122 4.40332 120.043 4.43132 119.94 4.43132H119.142C118.629 4.43132 118.223 4.58065 117.924 4.87932C117.635 5.17798 117.49 5.58398 117.49 6.09732V10.2273C117.49 10.3206 117.458 10.4 117.392 10.4653C117.327 10.5213 117.248 10.5493 117.154 10.5493H116.524ZM124.283 10.6893C123.257 10.6893 122.463 10.4 121.903 9.82132C121.353 9.24265 121.059 8.47265 121.021 7.51132L121.007 6.90932L121.021 6.30732C121.059 5.34598 121.357 4.57598 121.917 3.99732C122.487 3.41865 123.275 3.12932 124.283 3.12932C125.291 3.12932 126.075 3.41865 126.635 3.99732C127.205 4.57598 127.508 5.34598 127.545 6.30732C127.564 6.51265 127.573 6.71332 127.573 6.90932C127.573 7.10532 127.564 7.30598 127.545 7.51132C127.508 8.47265 127.209 9.24265 126.649 9.82132C126.099 10.4 125.31 10.6893 124.283 10.6893ZM124.283 9.63932C124.881 9.63932 125.352 9.45265 125.697 9.07932C126.052 8.69665 126.243 8.15065 126.271 7.44132C126.281 7.34798 126.285 7.17065 126.285 6.90932C126.285 6.64798 126.281 6.47065 126.271 6.37732C126.243 5.66798 126.052 5.12665 125.697 4.75332C125.352 4.37065 124.881 4.17932 124.283 4.17932C123.686 4.17932 123.21 4.37065 122.855 4.75332C122.51 5.12665 122.323 5.66798 122.295 6.37732L122.281 6.90932L122.295 7.44132C122.323 8.15065 122.51 8.69665 122.855 9.07932C123.21 9.45265 123.686 9.63932 124.283 9.63932ZM132.073 10.5493C130.626 10.5493 129.903 9.73265 129.903 8.09932V4.34732H128.797C128.703 4.34732 128.629 4.31932 128.573 4.26332C128.517 4.20732 128.489 4.13265 128.489 4.03932V3.59132C128.489 3.49798 128.517 3.42332 128.573 3.36732C128.629 3.30198 128.703 3.26932 128.797 3.26932H129.903V0.931316C129.903 0.837983 129.931 0.763316 129.987 0.707316C130.043 0.641983 130.117 0.609316 130.211 0.609316H130.827C130.92 0.609316 130.995 0.641983 131.051 0.707316C131.116 0.763316 131.149 0.837983 131.149 0.931316V3.26932H132.885C132.978 3.26932 133.053 3.30198 133.109 3.36732C133.174 3.42332 133.207 3.49798 133.207 3.59132V4.03932C133.207 4.13265 133.174 4.20732 133.109 4.26332C133.053 4.31932 132.978 4.34732 132.885 4.34732H131.149V8.00132C131.149 8.47732 131.223 8.83665 131.373 9.07932C131.531 9.32198 131.797 9.44332 132.171 9.44332H133.025C133.118 9.44332 133.193 9.47598 133.249 9.54132C133.305 9.59732 133.333 9.67198 133.333 9.76532V10.2273C133.333 10.3206 133.305 10.4 133.249 10.4653C133.193 10.5213 133.118 10.5493 133.025 10.5493H132.073ZM137.584 10.6893C136.632 10.6893 135.872 10.3953 135.302 9.80732C134.733 9.20998 134.42 8.39798 134.364 7.37132L134.35 6.89532L134.364 6.43332C134.42 5.42532 134.733 4.62265 135.302 4.02532C135.872 3.42798 136.632 3.12932 137.584 3.12932C138.611 3.12932 139.404 3.45598 139.964 4.10932C140.534 4.76265 140.818 5.64932 140.818 6.76932V7.02132C140.818 7.11465 140.786 7.19398 140.72 7.25932C140.664 7.31532 140.59 7.34332 140.496 7.34332H135.638V7.46932C135.666 8.07598 135.853 8.59398 136.198 9.02332C136.544 9.45265 137.001 9.66732 137.57 9.66732C138.009 9.66732 138.364 9.58332 138.634 9.41532C138.914 9.23798 139.124 9.05598 139.264 8.86932C139.348 8.75732 139.414 8.69198 139.46 8.67332C139.507 8.64532 139.586 8.63132 139.698 8.63132H140.314C140.398 8.63132 140.468 8.65465 140.524 8.70132C140.59 8.74798 140.622 8.80865 140.622 8.88332C140.622 9.08865 140.496 9.33598 140.244 9.62532C139.992 9.91465 139.633 10.1666 139.166 10.3813C138.709 10.5866 138.182 10.6893 137.584 10.6893ZM139.544 6.39132V6.34932C139.544 5.69598 139.367 5.16398 139.012 4.75332C138.658 4.34265 138.182 4.13732 137.584 4.13732C136.978 4.13732 136.502 4.34265 136.156 4.75332C135.811 5.16398 135.638 5.69598 135.638 6.34932V6.39132H139.544ZM145.433 10.6893C144.434 10.6893 143.655 10.4093 143.095 9.84932C142.535 9.27998 142.241 8.48665 142.213 7.46932L142.199 6.90932L142.213 6.34932C142.241 5.33198 142.535 4.54332 143.095 3.98332C143.655 3.41398 144.434 3.12932 145.433 3.12932C146.105 3.12932 146.669 3.25065 147.127 3.49332C147.593 3.72665 147.939 4.02065 148.163 4.37532C148.396 4.72998 148.522 5.08465 148.541 5.43932C148.55 5.52332 148.517 5.59798 148.443 5.66332C148.377 5.72865 148.303 5.76132 148.219 5.76132H147.603C147.509 5.76132 147.439 5.74265 147.393 5.70532C147.346 5.65865 147.299 5.57932 147.253 5.46732C147.085 5.00998 146.851 4.68798 146.553 4.50132C146.263 4.30532 145.895 4.20732 145.447 4.20732C144.859 4.20732 144.392 4.38932 144.047 4.75332C143.701 5.11732 143.515 5.67265 143.487 6.41932L143.473 6.90932L143.487 7.39932C143.515 8.14598 143.701 8.70132 144.047 9.06532C144.392 9.42932 144.859 9.61132 145.447 9.61132C145.904 9.61132 146.277 9.51798 146.567 9.33132C146.856 9.13532 147.085 8.80865 147.253 8.35132C147.299 8.23932 147.346 8.16465 147.393 8.12732C147.439 8.08065 147.509 8.05732 147.603 8.05732H148.219C148.303 8.05732 148.377 8.08998 148.443 8.15532C148.517 8.22065 148.55 8.29532 148.541 8.37932C148.522 8.72465 148.396 9.07465 148.163 9.42932C147.939 9.78398 147.593 10.0826 147.127 10.3253C146.669 10.568 146.105 10.6893 145.433 10.6893ZM153.018 10.5493C151.571 10.5493 150.848 9.73265 150.848 8.09932V4.34732H149.742C149.649 4.34732 149.574 4.31932 149.518 4.26332C149.462 4.20732 149.434 4.13265 149.434 4.03932V3.59132C149.434 3.49798 149.462 3.42332 149.518 3.36732C149.574 3.30198 149.649 3.26932 149.742 3.26932H150.848V0.931316C150.848 0.837983 150.876 0.763316 150.932 0.707316C150.988 0.641983 151.063 0.609316 151.156 0.609316H151.772C151.865 0.609316 151.94 0.641983 151.996 0.707316C152.061 0.763316 152.094 0.837983 152.094 0.931316V3.26932H153.83C153.923 3.26932 153.998 3.30198 154.054 3.36732C154.119 3.42332 154.152 3.49798 154.152 3.59132V4.03932C154.152 4.13265 154.119 4.20732 154.054 4.26332C153.998 4.31932 153.923 4.34732 153.83 4.34732H152.094V8.00132C152.094 8.47732 152.169 8.83665 152.318 9.07932C152.477 9.32198 152.743 9.44332 153.116 9.44332H153.97C154.063 9.44332 154.138 9.47598 154.194 9.54132C154.25 9.59732 154.278 9.67198 154.278 9.76532V10.2273C154.278 10.3206 154.25 10.4 154.194 10.4653C154.138 10.5213 154.063 10.5493 153.97 10.5493H153.018ZM155.856 1.89732C155.762 1.89732 155.683 1.86932 155.618 1.81332C155.562 1.74798 155.534 1.66865 155.534 1.57532V0.847316C155.534 0.753983 155.562 0.674649 155.618 0.609316C155.683 0.543983 155.762 0.511316 155.856 0.511316H156.682C156.775 0.511316 156.854 0.543983 156.92 0.609316C156.985 0.674649 157.018 0.753983 157.018 0.847316V1.57532C157.018 1.66865 156.985 1.74798 156.92 1.81332C156.854 1.86932 156.775 1.89732 156.682 1.89732H155.856ZM155.968 10.5493C155.874 10.5493 155.795 10.5213 155.73 10.4653C155.674 10.4 155.646 10.3206 155.646 10.2273V3.59132C155.646 3.49798 155.674 3.42332 155.73 3.36732C155.795 3.30198 155.874 3.26932 155.968 3.26932H156.584C156.677 3.26932 156.752 3.30198 156.808 3.36732C156.873 3.42332 156.906 3.49798 156.906 3.59132V10.2273C156.906 10.3206 156.873 10.4 156.808 10.4653C156.752 10.5213 156.677 10.5493 156.584 10.5493H155.968ZM161.963 10.6893C160.936 10.6893 160.143 10.4 159.583 9.82132C159.032 9.24265 158.738 8.47265 158.701 7.51132L158.687 6.90932L158.701 6.30732C158.738 5.34598 159.037 4.57598 159.597 3.99732C160.166 3.41865 160.955 3.12932 161.963 3.12932C162.971 3.12932 163.755 3.41865 164.315 3.99732C164.884 4.57598 165.188 5.34598 165.225 6.30732C165.244 6.51265 165.253 6.71332 165.253 6.90932C165.253 7.10532 165.244 7.30598 165.225 7.51132C165.188 8.47265 164.889 9.24265 164.329 9.82132C163.778 10.4 162.99 10.6893 161.963 10.6893ZM161.963 9.63932C162.56 9.63932 163.032 9.45265 163.377 9.07932C163.732 8.69665 163.923 8.15065 163.951 7.44132C163.96 7.34798 163.965 7.17065 163.965 6.90932C163.965 6.64798 163.96 6.47065 163.951 6.37732C163.923 5.66798 163.732 5.12665 163.377 4.75332C163.032 4.37065 162.56 4.17932 161.963 4.17932C161.366 4.17932 160.89 4.37065 160.535 4.75332C160.19 5.12665 160.003 5.66798 159.975 6.37732L159.961 6.90932L159.975 7.44132C160.003 8.15065 160.19 8.69665 160.535 9.07932C160.89 9.45265 161.366 9.63932 161.963 9.63932ZM167.343 10.5493C167.249 10.5493 167.17 10.5213 167.105 10.4653C167.049 10.4 167.021 10.3206 167.021 10.2273V3.59132C167.021 3.49798 167.049 3.42332 167.105 3.36732C167.17 3.30198 167.249 3.26932 167.343 3.26932H167.945C168.047 3.26932 168.127 3.29732 168.183 3.35332C168.239 3.40932 168.267 3.48865 168.267 3.59132V4.20732C168.547 3.86198 168.869 3.59598 169.233 3.40932C169.606 3.22265 170.068 3.12932 170.619 3.12932C171.515 3.12932 172.21 3.41865 172.705 3.99732C173.199 4.56665 173.447 5.32265 173.447 6.26532V10.2273C173.447 10.3206 173.414 10.4 173.349 10.4653C173.293 10.5213 173.218 10.5493 173.125 10.5493H172.481C172.387 10.5493 172.308 10.5213 172.243 10.4653C172.187 10.4 172.159 10.3206 172.159 10.2273V6.34932C172.159 5.67732 171.995 5.15465 171.669 4.78132C171.342 4.40798 170.875 4.22132 170.269 4.22132C169.671 4.22132 169.195 4.41265 168.841 4.79532C168.486 5.16865 168.309 5.68665 168.309 6.34932V10.2273C168.309 10.3206 168.276 10.4 168.211 10.4653C168.155 10.5213 168.08 10.5493 167.987 10.5493H167.343ZM175.694 10.5493C175.6 10.5493 175.521 10.5213 175.456 10.4653C175.4 10.4 175.372 10.3206 175.372 10.2273V9.26132C175.372 9.16798 175.4 9.08865 175.456 9.02332C175.521 8.95798 175.6 8.92532 175.694 8.92532H176.66C176.753 8.92532 176.828 8.95798 176.884 9.02332C176.949 9.08865 176.982 9.16798 176.982 9.26132V10.2273C176.982 10.3206 176.949 10.4 176.884 10.4653C176.828 10.5213 176.753 10.5493 176.66 10.5493H175.694Z" fill="#4F5665"/>
</svg>
