<svg width="119" height="14" viewBox="0 0 119 14" fill="none" xmlns="http://www.w3.org/2000/svg">
<path d="M0.586977 13.5496C0.466977 13.5496 0.364977 13.5076 0.280977 13.4236C0.196977 13.3396 0.154977 13.2376 0.154977 13.1176V1.39956C0.154977 1.26756 0.190977 1.15956 0.262977 1.07556C0.346977 0.99156 0.454977 0.94956 0.586977 0.94956H5.41098C6.86298 0.94956 8.00298 1.29156 8.83098 1.97556C9.65898 2.65956 10.073 3.65556 10.073 4.96356C10.073 6.25956 9.65898 7.24356 8.83098 7.91556C8.00298 8.57556 6.86298 8.90556 5.41098 8.90556H2.76498V13.1176C2.76498 13.2496 2.72298 13.3576 2.63898 13.4416C2.55498 13.5136 2.44698 13.5496 2.31498 13.5496H0.586977ZM5.32098 6.88956C6.01698 6.88956 6.54498 6.72756 6.90498 6.40356C7.27698 6.06756 7.46298 5.58156 7.46298 4.94556C7.46298 4.32156 7.28298 3.83556 6.92298 3.48756C6.57498 3.13956 6.04098 2.96556 5.32098 2.96556H2.72898V6.88956H5.32098ZM12.2538 13.5496C12.1338 13.5496 12.0318 13.5076 11.9478 13.4236C11.8638 13.3396 11.8218 13.2376 11.8218 13.1176V4.63956C11.8218 4.50756 11.8638 4.39956 11.9478 4.31556C12.0318 4.23156 12.1338 4.18956 12.2538 4.18956H13.7298C13.8618 4.18956 13.9698 4.23156 14.0538 4.31556C14.1378 4.39956 14.1798 4.50756 14.1798 4.63956V5.37756C14.7798 4.58556 15.6438 4.18956 16.7718 4.18956H17.5278C17.6598 4.18956 17.7618 4.23156 17.8338 4.31556C17.9178 4.38756 17.9598 4.48956 17.9598 4.62156V5.93556C17.9598 6.05556 17.9178 6.15756 17.8338 6.24156C17.7618 6.32556 17.6598 6.36756 17.5278 6.36756H16.1058C15.5418 6.36756 15.0978 6.52956 14.7738 6.85356C14.4498 7.17756 14.2878 7.62156 14.2878 8.18556V13.1176C14.2878 13.2376 14.2458 13.3396 14.1618 13.4236C14.0778 13.5076 13.9758 13.5496 13.8558 13.5496H12.2538ZM23.2898 13.7296C21.9458 13.7296 20.8778 13.3456 20.0858 12.5776C19.3058 11.8096 18.8918 10.7176 18.8438 9.30156L18.8258 8.85156C18.8258 7.35156 19.2158 6.16956 19.9958 5.30556C20.7878 4.44156 21.8798 4.00956 23.2718 4.00956C24.6998 4.00956 25.7978 4.44156 26.5658 5.30556C27.3458 6.16956 27.7358 7.32156 27.7358 8.76156V9.13956C27.7358 9.25956 27.6938 9.36156 27.6098 9.44556C27.5258 9.52956 27.4178 9.57156 27.2858 9.57156H21.3098V9.71556C21.3338 10.3876 21.5138 10.9456 21.8498 11.3896C22.1978 11.8216 22.6718 12.0376 23.2718 12.0376C23.9558 12.0376 24.5138 11.7616 24.9458 11.2096C25.0538 11.0776 25.1378 10.9996 25.1978 10.9756C25.2578 10.9396 25.3598 10.9216 25.5038 10.9216H27.0878C27.1958 10.9216 27.2858 10.9516 27.3578 11.0116C27.4418 11.0716 27.4838 11.1556 27.4838 11.2636C27.4838 11.5516 27.3098 11.8936 26.9618 12.2896C26.6258 12.6736 26.1398 13.0096 25.5038 13.2976C24.8678 13.5856 24.1298 13.7296 23.2898 13.7296ZM25.2518 8.04156V8.00556C25.2518 7.29756 25.0718 6.73356 24.7118 6.31356C24.3638 5.88156 23.8838 5.66556 23.2718 5.66556C22.6598 5.66556 22.1798 5.88156 21.8318 6.31356C21.4838 6.73356 21.3098 7.29756 21.3098 8.00556V8.04156H25.2518ZM30.078 13.5496C29.958 13.5496 29.856 13.5076 29.772 13.4236C29.688 13.3396 29.646 13.2376 29.646 13.1176V4.62156C29.646 4.48956 29.688 4.38756 29.772 4.31556C29.856 4.23156 29.958 4.18956 30.078 4.18956H31.5C31.632 4.18956 31.734 4.23156 31.806 4.31556C31.89 4.38756 31.932 4.48956 31.932 4.62156V5.23356C32.58 4.41756 33.45 4.00956 34.542 4.00956C35.874 4.00956 36.804 4.54356 37.332 5.61156C37.62 5.13156 38.028 4.74756 38.556 4.45956C39.084 4.15956 39.654 4.00956 40.266 4.00956C41.25 4.00956 42.054 4.34556 42.678 5.01756C43.302 5.68956 43.614 6.66756 43.614 7.95156V13.1176C43.614 13.2376 43.572 13.3396 43.488 13.4236C43.416 13.5076 43.314 13.5496 43.182 13.5496H41.688C41.568 13.5496 41.466 13.5076 41.382 13.4236C41.298 13.3396 41.256 13.2376 41.256 13.1176V8.09556C41.256 7.33956 41.094 6.79356 40.77 6.45756C40.458 6.12156 40.044 5.95356 39.528 5.95356C39.06 5.95356 38.658 6.12756 38.322 6.47556C37.998 6.81156 37.836 7.35156 37.836 8.09556V13.1176C37.836 13.2376 37.794 13.3396 37.71 13.4236C37.638 13.5076 37.536 13.5496 37.404 13.5496H35.892C35.772 13.5496 35.67 13.5076 35.586 13.4236C35.502 13.3396 35.46 13.2376 35.46 13.1176V8.09556C35.46 7.35156 35.298 6.81156 34.974 6.47556C34.65 6.12756 34.236 5.95356 33.732 5.95356C33.264 5.95356 32.862 6.12756 32.526 6.47556C32.202 6.81156 32.04 7.35156 32.04 8.09556V13.1176C32.04 13.2376 31.998 13.3396 31.914 13.4236C31.842 13.5076 31.74 13.5496 31.608 13.5496H30.078ZM46.2658 2.65956C46.1458 2.65956 46.0438 2.61756 45.9598 2.53356C45.8758 2.44956 45.8338 2.34756 45.8338 2.22756V0.91356C45.8338 0.78156 45.8758 0.67356 45.9598 0.58956C46.0438 0.50556 46.1458 0.46356 46.2658 0.46356H47.9218C48.0538 0.46356 48.1618 0.50556 48.2458 0.58956C48.3298 0.67356 48.3718 0.78156 48.3718 0.91356V2.22756C48.3718 2.34756 48.3238 2.44956 48.2278 2.53356C48.1438 2.61756 48.0418 2.65956 47.9218 2.65956H46.2658ZM46.3378 13.5496C46.2178 13.5496 46.1158 13.5076 46.0318 13.4236C45.9478 13.3396 45.9058 13.2376 45.9058 13.1176V4.62156C45.9058 4.48956 45.9478 4.38756 46.0318 4.31556C46.1158 4.23156 46.2178 4.18956 46.3378 4.18956H47.8678C47.9878 4.18956 48.0898 4.23156 48.1738 4.31556C48.2578 4.39956 48.2998 4.50156 48.2998 4.62156V13.1176C48.2998 13.2376 48.2578 13.3396 48.1738 13.4236C48.0898 13.5076 47.9878 13.5496 47.8678 13.5496H46.3378ZM54.1434 13.7296C53.0394 13.7296 52.1694 13.3696 51.5334 12.6496C50.8974 11.9296 50.5794 10.9396 50.5794 9.67956V4.62156C50.5794 4.48956 50.6214 4.38756 50.7054 4.31556C50.7894 4.23156 50.8914 4.18956 51.0114 4.18956H52.6314C52.7514 4.18956 52.8534 4.23156 52.9374 4.31556C53.0214 4.39956 53.0634 4.50156 53.0634 4.62156V9.57156C53.0634 11.0476 53.7054 11.7856 54.9894 11.7856C55.6134 11.7856 56.1054 11.5876 56.4654 11.1916C56.8374 10.7956 57.0234 10.2556 57.0234 9.57156V4.62156C57.0234 4.48956 57.0654 4.38756 57.1494 4.31556C57.2334 4.23156 57.3354 4.18956 57.4554 4.18956H59.0574C59.1894 4.18956 59.2914 4.23156 59.3634 4.31556C59.4474 4.38756 59.4894 4.48956 59.4894 4.62156V13.1176C59.4894 13.2376 59.4474 13.3396 59.3634 13.4236C59.2914 13.5076 59.1894 13.5496 59.0574 13.5496H57.5634C57.4434 13.5496 57.3414 13.5076 57.2574 13.4236C57.1734 13.3396 57.1314 13.2376 57.1314 13.1176V12.3796C56.4714 13.2796 55.4754 13.7296 54.1434 13.7296ZM62.2987 13.5496C62.1787 13.5496 62.0767 13.5076 61.9927 13.4236C61.9087 13.3396 61.8667 13.2376 61.8667 13.1176V4.62156C61.8667 4.48956 61.9087 4.38756 61.9927 4.31556C62.0767 4.23156 62.1787 4.18956 62.2987 4.18956H63.7207C63.8527 4.18956 63.9547 4.23156 64.0267 4.31556C64.1107 4.38756 64.1527 4.48956 64.1527 4.62156V5.23356C64.8007 4.41756 65.6707 4.00956 66.7627 4.00956C68.0947 4.00956 69.0247 4.54356 69.5527 5.61156C69.8407 5.13156 70.2487 4.74756 70.7767 4.45956C71.3047 4.15956 71.8747 4.00956 72.4867 4.00956C73.4707 4.00956 74.2747 4.34556 74.8987 5.01756C75.5227 5.68956 75.8347 6.66756 75.8347 7.95156V13.1176C75.8347 13.2376 75.7927 13.3396 75.7087 13.4236C75.6367 13.5076 75.5347 13.5496 75.4027 13.5496H73.9087C73.7887 13.5496 73.6867 13.5076 73.6027 13.4236C73.5187 13.3396 73.4767 13.2376 73.4767 13.1176V8.09556C73.4767 7.33956 73.3147 6.79356 72.9907 6.45756C72.6787 6.12156 72.2647 5.95356 71.7487 5.95356C71.2807 5.95356 70.8787 6.12756 70.5427 6.47556C70.2187 6.81156 70.0567 7.35156 70.0567 8.09556V13.1176C70.0567 13.2376 70.0147 13.3396 69.9307 13.4236C69.8587 13.5076 69.7567 13.5496 69.6247 13.5496H68.1127C67.9927 13.5496 67.8907 13.5076 67.8067 13.4236C67.7227 13.3396 67.6807 13.2376 67.6807 13.1176V8.09556C67.6807 7.35156 67.5187 6.81156 67.1947 6.47556C66.8707 6.12756 66.4567 5.95356 65.9527 5.95356C65.4847 5.95356 65.0827 6.12756 64.7467 6.47556C64.4227 6.81156 64.2607 7.35156 64.2607 8.09556V13.1176C64.2607 13.2376 64.2187 13.3396 64.1347 13.4236C64.0627 13.5076 63.9607 13.5496 63.8287 13.5496H62.2987ZM82.8702 13.5496C82.7502 13.5496 82.6482 13.5076 82.5642 13.4236C82.4802 13.3396 82.4382 13.2376 82.4382 13.1176V1.39956C82.4382 1.26756 82.4742 1.15956 82.5462 1.07556C82.6302 0.99156 82.7382 0.94956 82.8702 0.94956H87.6942C89.1462 0.94956 90.2862 1.29156 91.1142 1.97556C91.9422 2.65956 92.3562 3.65556 92.3562 4.96356C92.3562 6.25956 91.9422 7.24356 91.1142 7.91556C90.2862 8.57556 89.1462 8.90556 87.6942 8.90556H85.0482V13.1176C85.0482 13.2496 85.0062 13.3576 84.9222 13.4416C84.8382 13.5136 84.7302 13.5496 84.5982 13.5496H82.8702ZM87.6042 6.88956C88.3002 6.88956 88.8282 6.72756 89.1882 6.40356C89.5602 6.06756 89.7462 5.58156 89.7462 4.94556C89.7462 4.32156 89.5662 3.83556 89.2062 3.48756C88.8582 3.13956 88.3242 2.96556 87.6042 2.96556H85.0122V6.88956H87.6042ZM94.555 13.5496C94.435 13.5496 94.333 13.5076 94.249 13.4236C94.165 13.3396 94.123 13.2376 94.123 13.1176V1.20156C94.123 1.06956 94.165 0.96756 94.249 0.89556C94.333 0.81156 94.435 0.76956 94.555 0.76956H96.067C96.199 0.76956 96.301 0.81156 96.373 0.89556C96.457 0.96756 96.499 1.06956 96.499 1.20156V13.1176C96.499 13.2376 96.457 13.3396 96.373 13.4236C96.301 13.5076 96.199 13.5496 96.067 13.5496H94.555ZM101.604 13.7296C100.992 13.7296 100.428 13.6096 99.9122 13.3696C99.4082 13.1176 99.0062 12.7816 98.7062 12.3616C98.4182 11.9416 98.2742 11.4796 98.2742 10.9756C98.2742 10.1596 98.6042 9.49956 99.2642 8.99556C99.9242 8.49156 100.83 8.14956 101.982 7.96956L104.448 7.60956V7.23156C104.448 6.71556 104.316 6.32556 104.052 6.06156C103.788 5.79756 103.368 5.66556 102.792 5.66556C102.396 5.66556 102.078 5.73756 101.838 5.88156C101.598 6.02556 101.4 6.17556 101.244 6.33156C101.1 6.47556 101.004 6.57156 100.956 6.61956C100.908 6.76356 100.818 6.83556 100.686 6.83556H99.2822C99.1742 6.83556 99.0782 6.79956 98.9942 6.72756C98.9222 6.65556 98.8862 6.55956 98.8862 6.43956C98.8982 6.13956 99.0422 5.80356 99.3182 5.43156C99.6062 5.04756 100.044 4.71756 100.632 4.44156C101.22 4.15356 101.946 4.00956 102.81 4.00956C104.226 4.00956 105.258 4.32756 105.906 4.96356C106.554 5.59956 106.878 6.43356 106.878 7.46556V13.1176C106.878 13.2376 106.836 13.3396 106.752 13.4236C106.68 13.5076 106.578 13.5496 106.446 13.5496H104.952C104.832 13.5496 104.73 13.5076 104.646 13.4236C104.562 13.3396 104.52 13.2376 104.52 13.1176V12.4156C104.256 12.7996 103.884 13.1176 103.404 13.3696C102.924 13.6096 102.324 13.7296 101.604 13.7296ZM102.216 12.0016C102.876 12.0016 103.416 11.7856 103.836 11.3536C104.256 10.9216 104.466 10.2976 104.466 9.48156V9.12156L102.666 9.40956C101.286 9.62556 100.596 10.0876 100.596 10.7956C100.596 11.1796 100.752 11.4796 101.064 11.6956C101.388 11.8996 101.772 12.0016 102.216 12.0016ZM109.619 13.5496C109.499 13.5496 109.397 13.5076 109.313 13.4236C109.229 13.3396 109.187 13.2376 109.187 13.1176V4.62156C109.187 4.48956 109.229 4.38756 109.313 4.31556C109.397 4.23156 109.499 4.18956 109.619 4.18956H111.113C111.245 4.18956 111.347 4.23156 111.419 4.31556C111.503 4.38756 111.545 4.48956 111.545 4.62156V5.35956C112.277 4.45956 113.279 4.00956 114.551 4.00956C115.655 4.00956 116.531 4.36956 117.179 5.08956C117.827 5.80956 118.151 6.79956 118.151 8.05956V13.1176C118.151 13.2376 118.109 13.3396 118.025 13.4236C117.953 13.5076 117.851 13.5496 117.719 13.5496H116.099C115.979 13.5496 115.877 13.5076 115.793 13.4236C115.709 13.3396 115.667 13.2376 115.667 13.1176V8.16756C115.667 7.47156 115.493 6.93156 115.145 6.54756C114.809 6.15156 114.323 5.95356 113.687 5.95356C113.075 5.95356 112.583 6.15156 112.211 6.54756C111.839 6.94356 111.653 7.48356 111.653 8.16756V13.1176C111.653 13.2376 111.611 13.3396 111.527 13.4236C111.455 13.5076 111.353 13.5496 111.221 13.5496H109.619Z" fill="#0B132A"/>
</svg>
