<svg width="50" height="16" viewBox="0 0 50 16" fill="none" xmlns="http://www.w3.org/2000/svg">
<path d="M0.76 11.6162C0.653333 11.6162 0.568 11.5842 0.504 11.5202C0.44 11.4455 0.408 11.3549 0.408 11.2482V0.80021C0.408 0.682877 0.44 0.59221 0.504 0.528211C0.568 0.453544 0.653333 0.41621 0.76 0.41621H4.808C6.01333 0.41621 6.95733 0.709544 7.64 1.29621C8.33333 1.87221 8.68 2.71488 8.68 3.82421C8.68 4.93354 8.33333 5.77621 7.64 6.35221C6.95733 6.92821 6.01333 7.21621 4.808 7.21621H1.928V11.2482C1.928 11.3549 1.89067 11.4455 1.816 11.5202C1.752 11.5842 1.66667 11.6162 1.56 11.6162H0.76ZM4.728 5.92021C6.33867 5.92021 7.144 5.22154 7.144 3.82421C7.144 3.14154 6.94133 2.61888 6.536 2.25621C6.14133 1.89354 5.53867 1.71221 4.728 1.71221H1.928V5.92021H4.728ZM10.818 11.6162C10.7113 11.6162 10.6207 11.5842 10.546 11.5202C10.482 11.4455 10.45 11.3549 10.45 11.2482V3.68021C10.45 3.57354 10.482 3.48288 10.546 3.40821C10.6207 3.33354 10.7113 3.29621 10.818 3.29621H11.49C11.6073 3.29621 11.698 3.33354 11.762 3.40821C11.8367 3.47221 11.874 3.56288 11.874 3.68021V4.38421C12.3113 3.65888 13.0527 3.29621 14.098 3.29621H14.722C14.8393 3.29621 14.93 3.32821 14.994 3.39221C15.058 3.45621 15.09 3.54688 15.09 3.66421V4.25621C15.09 4.36288 15.058 4.45354 14.994 4.52821C14.93 4.59221 14.8393 4.62421 14.722 4.62421H13.81C13.2233 4.62421 12.7593 4.79488 12.418 5.13621C12.0873 5.47754 11.922 5.94154 11.922 6.52821V11.2482C11.922 11.3549 11.8847 11.4455 11.81 11.5202C11.7353 11.5842 11.6447 11.6162 11.538 11.6162H10.818ZM16.7056 1.72821C16.599 1.72821 16.5083 1.69621 16.4336 1.63221C16.3696 1.55754 16.3376 1.46688 16.3376 1.36021V0.528211C16.3376 0.421544 16.3696 0.330877 16.4336 0.25621C16.5083 0.181544 16.599 0.144211 16.7056 0.144211H17.6496C17.7563 0.144211 17.847 0.181544 17.9216 0.25621C17.9963 0.330877 18.0336 0.421544 18.0336 0.528211V1.36021C18.0336 1.46688 17.9963 1.55754 17.9216 1.63221C17.847 1.69621 17.7563 1.72821 17.6496 1.72821H16.7056ZM16.8336 11.6162C16.727 11.6162 16.6363 11.5842 16.5616 11.5202C16.4976 11.4455 16.4656 11.3549 16.4656 11.2482V3.66421C16.4656 3.55754 16.4976 3.47221 16.5616 3.40821C16.6363 3.33354 16.727 3.29621 16.8336 3.29621H17.5376C17.6443 3.29621 17.7296 3.33354 17.7936 3.40821C17.8683 3.47221 17.9056 3.55754 17.9056 3.66421V11.2482C17.9056 11.3549 17.8683 11.4455 17.7936 11.5202C17.7296 11.5842 17.6443 11.6162 17.5376 11.6162H16.8336ZM23.6374 11.7762C22.496 11.7762 21.6054 11.4562 20.9654 10.8162C20.3254 10.1655 19.9894 9.25888 19.9574 8.09621L19.9414 7.45621L19.9574 6.81621C19.9894 5.65354 20.3254 4.75221 20.9654 4.11221C21.6054 3.46154 22.496 3.13621 23.6374 3.13621C24.4054 3.13621 25.0507 3.27488 25.5734 3.55221C26.1067 3.81888 26.5014 4.15488 26.7574 4.56021C27.024 4.96554 27.168 5.37088 27.1894 5.77621C27.2 5.87221 27.1627 5.95754 27.0774 6.03221C27.0027 6.10688 26.9174 6.14421 26.8214 6.14421H26.1174C26.0107 6.14421 25.9307 6.12288 25.8774 6.08021C25.824 6.02688 25.7707 5.93621 25.7174 5.80821C25.5254 5.28554 25.2587 4.91754 24.9174 4.70421C24.5867 4.48021 24.1654 4.36821 23.6534 4.36821C22.9814 4.36821 22.448 4.57621 22.0534 4.99221C21.6587 5.40821 21.4454 6.04288 21.4134 6.89621L21.3974 7.45621L21.4134 8.01621C21.4454 8.86954 21.6587 9.50421 22.0534 9.92021C22.448 10.3362 22.9814 10.5442 23.6534 10.5442C24.176 10.5442 24.6027 10.4375 24.9334 10.2242C25.264 10.0002 25.5254 9.62688 25.7174 9.10421C25.7707 8.97621 25.824 8.89088 25.8774 8.84821C25.9307 8.79488 26.0107 8.76821 26.1174 8.76821H26.8214C26.9174 8.76821 27.0027 8.80554 27.0774 8.88021C27.1627 8.95488 27.2 9.04021 27.1894 9.13621C27.168 9.53088 27.024 9.93088 26.7574 10.3362C26.5014 10.7415 26.1067 11.0829 25.5734 11.3602C25.0507 11.6375 24.4054 11.7762 23.6374 11.7762ZM29.3463 1.72821C29.2396 1.72821 29.1489 1.69621 29.0743 1.63221C29.0103 1.55754 28.9783 1.46688 28.9783 1.36021V0.528211C28.9783 0.421544 29.0103 0.330877 29.0743 0.25621C29.1489 0.181544 29.2396 0.144211 29.3463 0.144211H30.2903C30.3969 0.144211 30.4876 0.181544 30.5623 0.25621C30.6369 0.330877 30.6743 0.421544 30.6743 0.528211V1.36021C30.6743 1.46688 30.6369 1.55754 30.5623 1.63221C30.4876 1.69621 30.3969 1.72821 30.2903 1.72821H29.3463ZM29.4743 11.6162C29.3676 11.6162 29.2769 11.5842 29.2023 11.5202C29.1383 11.4455 29.1063 11.3549 29.1063 11.2482V3.66421C29.1063 3.55754 29.1383 3.47221 29.2023 3.40821C29.2769 3.33354 29.3676 3.29621 29.4743 3.29621H30.1783C30.2849 3.29621 30.3703 3.33354 30.4343 3.40821C30.5089 3.47221 30.5463 3.55754 30.5463 3.66421V11.2482C30.5463 11.3549 30.5089 11.4455 30.4343 11.5202C30.3703 11.5842 30.2849 11.6162 30.1783 11.6162H29.4743ZM33.318 11.6162C33.2113 11.6162 33.1207 11.5842 33.046 11.5202C32.982 11.4455 32.95 11.3549 32.95 11.2482V3.66421C32.95 3.55754 32.982 3.47221 33.046 3.40821C33.1207 3.33354 33.2113 3.29621 33.318 3.29621H34.006C34.1233 3.29621 34.214 3.32821 34.278 3.39221C34.342 3.45621 34.374 3.54688 34.374 3.66421V4.36821C34.694 3.97354 35.062 3.66954 35.478 3.45621C35.9047 3.24288 36.4327 3.13621 37.062 3.13621C38.086 3.13621 38.8807 3.46688 39.446 4.12821C40.0113 4.77888 40.294 5.64288 40.294 6.72021V11.2482C40.294 11.3549 40.2567 11.4455 40.182 11.5202C40.118 11.5842 40.0327 11.6162 39.926 11.6162H39.19C39.0833 11.6162 38.9927 11.5842 38.918 11.5202C38.854 11.4455 38.822 11.3549 38.822 11.2482V6.81621C38.822 6.04821 38.6353 5.45088 38.262 5.02421C37.8887 4.59754 37.3553 4.38421 36.662 4.38421C35.9793 4.38421 35.4353 4.60288 35.03 5.04021C34.6247 5.46688 34.422 6.05888 34.422 6.81621V11.2482C34.422 11.3549 34.3847 11.4455 34.31 11.5202C34.246 11.5842 34.1607 11.6162 34.054 11.6162H33.318ZM45.9823 15.1362C45.0969 15.1362 44.3876 14.9869 43.8543 14.6882C43.3209 14.3895 42.9423 14.0482 42.7183 13.6642C42.5049 13.2802 42.3983 12.9495 42.3983 12.6722C42.3983 12.5762 42.4356 12.4909 42.5103 12.4162C42.5849 12.3522 42.6703 12.3202 42.7663 12.3202H43.4703C43.5663 12.3202 43.6463 12.3415 43.7103 12.3842C43.7743 12.4375 43.8276 12.5282 43.8703 12.6562C44.1689 13.5095 44.8463 13.9362 45.9023 13.9362C46.7023 13.9362 47.2943 13.7655 47.6783 13.4242C48.0623 13.0829 48.2543 12.4802 48.2543 11.6162V10.5122C47.6356 11.3015 46.7716 11.6962 45.6623 11.6962C44.5316 11.6962 43.6836 11.3335 43.1183 10.6082C42.5636 9.88288 42.2703 8.96554 42.2383 7.85621L42.2223 7.40821L42.2383 6.97621C42.2703 5.87754 42.5636 4.96554 43.1183 4.24021C43.6836 3.50421 44.5316 3.13621 45.6623 3.13621C46.7823 3.13621 47.6569 3.54688 48.2863 4.36821V3.68021C48.2863 3.57354 48.3183 3.48288 48.3823 3.40821C48.4569 3.33354 48.5476 3.29621 48.6543 3.29621H49.3423C49.4489 3.29621 49.5343 3.33354 49.5983 3.40821C49.6729 3.48288 49.7103 3.57354 49.7103 3.68021V11.4402C49.7103 13.9042 48.4676 15.1362 45.9823 15.1362ZM45.9503 10.4482C46.6969 10.4482 47.2569 10.2082 47.6303 9.72821C48.0143 9.23754 48.2223 8.65088 48.2543 7.96821C48.2649 7.87221 48.2703 7.68554 48.2703 7.40821C48.2703 7.14154 48.2649 6.96021 48.2543 6.86421C48.2223 6.18154 48.0143 5.60021 47.6303 5.12021C47.2569 4.62954 46.6969 4.38421 45.9503 4.38421C45.1823 4.38421 44.6223 4.62954 44.2703 5.12021C43.9289 5.60021 43.7423 6.22421 43.7103 6.99221L43.6943 7.40821L43.7103 7.84021C43.7423 8.60821 43.9289 9.23754 44.2703 9.72821C44.6223 10.2082 45.1823 10.4482 45.9503 10.4482Z" fill="#4F5665"/>
</svg>
