<svg width="504" height="43" viewBox="0 0 504 43" fill="none" xmlns="http://www.w3.org/2000/svg">
<path d="M5.19475 12.7093C4.32008 12.7093 3.55742 12.5706 2.90675 12.2933C2.26675 12.016 1.77608 11.6533 1.43475 11.2053C1.10408 10.7466 0.928083 10.256 0.90675 9.73332C0.90675 9.64798 0.93875 9.57332 1.00275 9.50932C1.06675 9.44532 1.14675 9.41332 1.24275 9.41332H2.02675C2.21875 9.41332 2.35208 9.51998 2.42675 9.73332C2.52275 10.1813 2.79475 10.5706 3.24275 10.9013C3.70142 11.2213 4.35208 11.3813 5.19475 11.3813C6.10142 11.3813 6.77875 11.2213 7.22675 10.9013C7.67475 10.5813 7.89875 10.1386 7.89875 9.57332C7.89875 9.21065 7.78675 8.91198 7.56275 8.67732C7.34942 8.44265 7.02408 8.23998 6.58675 8.06932C6.16008 7.88798 5.51475 7.66932 4.65075 7.41332C3.82942 7.17865 3.17342 6.92798 2.68275 6.66132C2.20275 6.39465 1.84008 6.06932 1.59475 5.68532C1.34942 5.29065 1.22675 4.79465 1.22675 4.19732C1.22675 3.62132 1.38142 3.10932 1.69075 2.66132C2.00008 2.20265 2.44808 1.84532 3.03475 1.58932C3.62142 1.32265 4.31475 1.18932 5.11475 1.18932C5.94675 1.18932 6.65608 1.33865 7.24275 1.63732C7.84008 1.92532 8.29342 2.29332 8.60275 2.74132C8.91208 3.17865 9.07742 3.62132 9.09875 4.06932C9.09875 4.16532 9.06675 4.24532 9.00275 4.30932C8.93875 4.37332 8.85875 4.40532 8.76275 4.40532H7.96275C7.87742 4.40532 7.79742 4.37865 7.72275 4.32532C7.64808 4.27198 7.59475 4.19198 7.56275 4.08532C7.49875 3.62665 7.24275 3.24798 6.79475 2.94932C6.34675 2.65065 5.78675 2.50132 5.11475 2.50132C4.38942 2.50132 3.81342 2.64532 3.38675 2.93332C2.96008 3.21065 2.74675 3.62665 2.74675 4.18132C2.74675 4.55465 2.84275 4.85865 3.03475 5.09332C3.23742 5.32798 3.54142 5.53598 3.94675 5.71732C4.36275 5.89865 4.96542 6.10665 5.75475 6.34132C6.66142 6.59732 7.37075 6.85332 7.88275 7.10932C8.40542 7.36532 8.79475 7.68532 9.05075 8.06932C9.30675 8.44265 9.43475 8.92798 9.43475 9.52532C9.43475 10.528 9.05075 11.312 8.28275 11.8773C7.52542 12.432 6.49608 12.7093 5.19475 12.7093ZM14.6366 12.7093C13.5486 12.7093 12.6793 12.3733 12.0286 11.7013C11.378 11.0186 11.0206 10.0906 10.9566 8.91732L10.9406 8.37332L10.9566 7.84532C11.0206 6.69332 11.378 5.77598 12.0286 5.09332C12.6793 4.41065 13.5486 4.06932 14.6366 4.06932C15.81 4.06932 16.7166 4.44265 17.3566 5.18932C18.0073 5.93598 18.3326 6.94932 18.3326 8.22932V8.51732C18.3326 8.62398 18.2953 8.71465 18.2206 8.78932C18.1566 8.85332 18.0713 8.88532 17.9646 8.88532H12.4126V9.02932C12.4446 9.72265 12.658 10.3146 13.0526 10.8053C13.4473 11.296 13.97 11.5413 14.6206 11.5413C15.122 11.5413 15.5273 11.4453 15.8366 11.2533C16.1566 11.0506 16.3966 10.8426 16.5566 10.6293C16.6526 10.5013 16.7273 10.4266 16.7806 10.4053C16.834 10.3733 16.9246 10.3573 17.0526 10.3573H17.7566C17.8526 10.3573 17.9326 10.384 17.9966 10.4373C18.0713 10.4906 18.1086 10.56 18.1086 10.6453C18.1086 10.88 17.9646 11.1626 17.6766 11.4933C17.3886 11.824 16.978 12.112 16.4446 12.3573C15.922 12.592 15.3193 12.7093 14.6366 12.7093ZM16.8766 7.79732V7.74932C16.8766 7.00265 16.674 6.39465 16.2686 5.92532C15.8633 5.45598 15.3193 5.22132 14.6366 5.22132C13.9433 5.22132 13.3993 5.45598 13.0046 5.92532C12.61 6.39465 12.4126 7.00265 12.4126 7.74932V7.79732H16.8766ZM23.5741 12.7093C22.4861 12.7093 21.6168 12.3733 20.9661 11.7013C20.3155 11.0186 19.9581 10.0906 19.8941 8.91732L19.8781 8.37332L19.8941 7.84532C19.9581 6.69332 20.3155 5.77598 20.9661 5.09332C21.6168 4.41065 22.4861 4.06932 23.5741 4.06932C24.7475 4.06932 25.6541 4.44265 26.2941 5.18932C26.9448 5.93598 27.2701 6.94932 27.2701 8.22932V8.51732C27.2701 8.62398 27.2328 8.71465 27.1581 8.78932C27.0941 8.85332 27.0088 8.88532 26.9021 8.88532H21.3501V9.02932C21.3821 9.72265 21.5955 10.3146 21.9901 10.8053C22.3848 11.296 22.9075 11.5413 23.5581 11.5413C24.0595 11.5413 24.4648 11.4453 24.7741 11.2533C25.0941 11.0506 25.3341 10.8426 25.4941 10.6293C25.5901 10.5013 25.6648 10.4266 25.7181 10.4053C25.7715 10.3733 25.8621 10.3573 25.9901 10.3573H26.6941C26.7901 10.3573 26.8701 10.384 26.9341 10.4373C27.0088 10.4906 27.0461 10.56 27.0461 10.6453C27.0461 10.88 26.9021 11.1626 26.6141 11.4933C26.3261 11.824 25.9155 12.112 25.3821 12.3573C24.8595 12.592 24.2568 12.7093 23.5741 12.7093ZM25.8141 7.79732V7.74932C25.8141 7.00265 25.6115 6.39465 25.2061 5.92532C24.8008 5.45598 24.2568 5.22132 23.5741 5.22132C22.8808 5.22132 22.3368 5.45598 21.9421 5.92532C21.5475 6.39465 21.3501 7.00265 21.3501 7.74932V7.79732H25.8141ZM33.5851 12.5493C33.4785 12.5493 33.3878 12.512 33.3131 12.4373C33.2385 12.3626 33.2011 12.272 33.2011 12.1653V1.73332C33.2011 1.61598 33.2385 1.52532 33.3131 1.46132C33.3878 1.38665 33.4785 1.34932 33.5851 1.34932H35.0891C35.2065 1.34932 35.2971 1.38665 35.3611 1.46132C35.4358 1.52532 35.4731 1.61598 35.4731 1.73332V10.6293H40.5451C40.6625 10.6293 40.7585 10.6666 40.8331 10.7413C40.9078 10.816 40.9451 10.9066 40.9451 11.0133V12.1653C40.9451 12.272 40.9078 12.3626 40.8331 12.4373C40.7585 12.512 40.6625 12.5493 40.5451 12.5493H33.5851ZM44.722 12.7093C44.178 12.7093 43.6767 12.6026 43.218 12.3893C42.77 12.1653 42.4127 11.8666 42.146 11.4933C41.89 11.12 41.762 10.7093 41.762 10.2613C41.762 9.53598 42.0553 8.94932 42.642 8.50132C43.2287 8.05332 44.034 7.74932 45.058 7.58932L47.25 7.26932V6.93332C47.25 6.47465 47.1327 6.12798 46.898 5.89332C46.6633 5.65865 46.29 5.54132 45.778 5.54132C45.426 5.54132 45.1433 5.60532 44.93 5.73332C44.7167 5.86132 44.5407 5.99465 44.402 6.13332C44.274 6.26132 44.1887 6.34665 44.146 6.38932C44.1033 6.51732 44.0233 6.58132 43.906 6.58132H42.658C42.562 6.58132 42.4767 6.54932 42.402 6.48532C42.338 6.42132 42.306 6.33598 42.306 6.22932C42.3167 5.96265 42.4447 5.66398 42.69 5.33332C42.946 4.99198 43.3353 4.69865 43.858 4.45332C44.3807 4.19732 45.026 4.06932 45.794 4.06932C47.0527 4.06932 47.97 4.35198 48.546 4.91732C49.122 5.48265 49.41 6.22398 49.41 7.14132V12.1653C49.41 12.272 49.3727 12.3626 49.298 12.4373C49.234 12.512 49.1433 12.5493 49.026 12.5493H47.698C47.5913 12.5493 47.5007 12.512 47.426 12.4373C47.3513 12.3626 47.314 12.272 47.314 12.1653V11.5413C47.0793 11.8826 46.7487 12.1653 46.322 12.3893C45.8953 12.6026 45.362 12.7093 44.722 12.7093ZM45.266 11.1733C45.8527 11.1733 46.3327 10.9813 46.706 10.5973C47.0793 10.2133 47.266 9.65865 47.266 8.93332V8.61332L45.666 8.86932C44.4393 9.06132 43.826 9.47198 43.826 10.1013C43.826 10.4426 43.9647 10.7093 44.242 10.9013C44.53 11.0826 44.8713 11.1733 45.266 11.1733ZM54.6302 12.7093C53.8196 12.7093 53.1423 12.5866 52.5983 12.3413C52.0543 12.096 51.6489 11.8133 51.3823 11.4933C51.1263 11.1626 50.9983 10.88 50.9983 10.6453C50.9983 10.5386 51.0303 10.4533 51.0943 10.3893C51.1689 10.3253 51.2543 10.2933 51.3503 10.2933H52.6623C52.7476 10.2933 52.8223 10.336 52.8863 10.4213C52.9396 10.464 53.0569 10.5653 53.2383 10.7253C53.4303 10.8853 53.6436 11.0133 53.8783 11.1093C54.1236 11.1946 54.3903 11.2373 54.6783 11.2373C55.1049 11.2373 55.4516 11.1573 55.7183 10.9973C55.9849 10.8266 56.1183 10.5866 56.1183 10.2773C56.1183 10.064 56.0543 9.89332 55.9263 9.76532C55.8089 9.62665 55.5903 9.50398 55.2703 9.39732C54.9609 9.27998 54.4916 9.15198 53.8623 9.01332C52.9556 8.82132 52.2836 8.52798 51.8463 8.13332C51.4196 7.73865 51.2063 7.21598 51.2063 6.56532C51.2063 6.13865 51.3343 5.73865 51.5903 5.36532C51.8463 4.98132 52.2249 4.67198 52.7263 4.43732C53.2383 4.19198 53.8463 4.06932 54.5503 4.06932C55.2756 4.06932 55.8996 4.18665 56.4223 4.42132C56.9449 4.64532 57.3396 4.91732 57.6063 5.23732C57.8836 5.55732 58.0223 5.83998 58.0223 6.08532C58.0223 6.18132 57.9849 6.26665 57.9103 6.34132C57.8463 6.40532 57.7663 6.43732 57.6703 6.43732H56.4703C56.3529 6.43732 56.2623 6.39465 56.1983 6.30932C56.1236 6.25598 56.0009 6.15998 55.8303 6.02132C55.6703 5.87198 55.4889 5.75465 55.2863 5.66932C55.0836 5.58398 54.8383 5.54132 54.5503 5.54132C54.1556 5.54132 53.8516 5.62665 53.6383 5.79732C53.4249 5.96798 53.3183 6.19198 53.3183 6.46932C53.3183 6.66132 53.3663 6.82132 53.4623 6.94932C53.5689 7.07732 53.7769 7.19998 54.0863 7.31732C54.3956 7.42398 54.8596 7.53598 55.4783 7.65332C57.3983 8.02665 58.3583 8.86398 58.3583 10.1653C58.3583 10.9226 58.0276 11.536 57.3663 12.0053C56.7156 12.4746 55.8036 12.7093 54.6302 12.7093ZM60.3935 12.5493C60.2868 12.5493 60.1962 12.512 60.1215 12.4373C60.0468 12.3626 60.0095 12.272 60.0095 12.1653V1.57332C60.0095 1.45598 60.0468 1.36532 60.1215 1.30132C60.1962 1.22665 60.2868 1.18932 60.3935 1.18932H61.7375C61.8548 1.18932 61.9455 1.22665 62.0095 1.30132C62.0842 1.36532 62.1215 1.45598 62.1215 1.57332V12.1653C62.1215 12.272 62.0842 12.3626 62.0095 12.4373C61.9455 12.512 61.8548 12.5493 61.7375 12.5493H60.3935ZM67.8435 12.7093C66.6488 12.7093 65.6995 12.368 64.9955 11.6853C64.3022 11.0026 63.9342 10.032 63.8915 8.77332L63.8755 8.37332C63.8755 7.03998 64.2222 5.98932 64.9155 5.22132C65.6195 4.45332 66.5902 4.06932 67.8275 4.06932C69.0968 4.06932 70.0728 4.45332 70.7555 5.22132C71.4488 5.98932 71.7955 7.01332 71.7955 8.29332V8.62932C71.7955 8.73598 71.7582 8.82665 71.6835 8.90132C71.6088 8.97598 71.5128 9.01332 71.3955 9.01332H66.0835V9.14132C66.1048 9.73865 66.2648 10.2346 66.5635 10.6293C66.8728 11.0133 67.2942 11.2053 67.8275 11.2053C68.4355 11.2053 68.9315 10.96 69.3155 10.4693C69.4115 10.352 69.4862 10.2826 69.5395 10.2613C69.5928 10.2293 69.6835 10.2133 69.8115 10.2133H71.2195C71.3155 10.2133 71.3955 10.24 71.4595 10.2933C71.5342 10.3466 71.5715 10.4213 71.5715 10.5173C71.5715 10.7733 71.4168 11.0773 71.1075 11.4293C70.8088 11.7706 70.3768 12.0693 69.8115 12.3253C69.2462 12.5813 68.5902 12.7093 67.8435 12.7093ZM69.5875 7.65332V7.62132C69.5875 6.99198 69.4275 6.49065 69.1075 6.11732C68.7982 5.73332 68.3715 5.54132 67.8275 5.54132C67.2835 5.54132 66.8568 5.73332 66.5475 6.11732C66.2382 6.49065 66.0835 6.99198 66.0835 7.62132V7.65332H69.5875ZM76.6615 12.7093C75.8508 12.7093 75.1735 12.5866 74.6295 12.3413C74.0855 12.096 73.6802 11.8133 73.4135 11.4933C73.1575 11.1626 73.0295 10.88 73.0295 10.6453C73.0295 10.5386 73.0615 10.4533 73.1255 10.3893C73.2002 10.3253 73.2855 10.2933 73.3815 10.2933H74.6935C74.7788 10.2933 74.8535 10.336 74.9175 10.4213C74.9708 10.464 75.0882 10.5653 75.2695 10.7253C75.4615 10.8853 75.6748 11.0133 75.9095 11.1093C76.1548 11.1946 76.4215 11.2373 76.7095 11.2373C77.1362 11.2373 77.4828 11.1573 77.7495 10.9973C78.0162 10.8266 78.1495 10.5866 78.1495 10.2773C78.1495 10.064 78.0855 9.89332 77.9575 9.76532C77.8402 9.62665 77.6215 9.50398 77.3015 9.39732C76.9922 9.27998 76.5228 9.15198 75.8935 9.01332C74.9868 8.82132 74.3148 8.52798 73.8775 8.13332C73.4508 7.73865 73.2375 7.21598 73.2375 6.56532C73.2375 6.13865 73.3655 5.73865 73.6215 5.36532C73.8775 4.98132 74.2562 4.67198 74.7575 4.43732C75.2695 4.19198 75.8775 4.06932 76.5815 4.06932C77.3068 4.06932 77.9308 4.18665 78.4535 4.42132C78.9762 4.64532 79.3708 4.91732 79.6375 5.23732C79.9148 5.55732 80.0535 5.83998 80.0535 6.08532C80.0535 6.18132 80.0162 6.26665 79.9415 6.34132C79.8775 6.40532 79.7975 6.43732 79.7015 6.43732H78.5015C78.3842 6.43732 78.2935 6.39465 78.2295 6.30932C78.1548 6.25598 78.0322 6.15998 77.8615 6.02132C77.7015 5.87198 77.5202 5.75465 77.3175 5.66932C77.1148 5.58398 76.8695 5.54132 76.5815 5.54132C76.1868 5.54132 75.8828 5.62665 75.6695 5.79732C75.4562 5.96798 75.3495 6.19198 75.3495 6.46932C75.3495 6.66132 75.3975 6.82132 75.4935 6.94932C75.6002 7.07732 75.8082 7.19998 76.1175 7.31732C76.4268 7.42398 76.8908 7.53598 77.5095 7.65332C79.4295 8.02665 80.3895 8.86398 80.3895 10.1653C80.3895 10.9226 80.0588 11.536 79.3975 12.0053C78.7468 12.4746 77.8348 12.7093 76.6615 12.7093ZM84.637 12.5493C84.317 12.5493 84.109 12.4 84.013 12.1013L80.589 1.82932C80.5783 1.79732 80.573 1.74932 80.573 1.68532C80.573 1.58932 80.605 1.50932 80.669 1.44532C80.733 1.38132 80.813 1.34932 80.909 1.34932H82.333C82.4717 1.34932 82.5837 1.38665 82.669 1.46132C82.7543 1.53598 82.813 1.61598 82.845 1.70132L85.517 9.89332L88.205 1.70132C88.2263 1.61598 88.2797 1.53598 88.365 1.46132C88.4503 1.38665 88.5623 1.34932 88.701 1.34932H90.141C90.2263 1.34932 90.301 1.38132 90.365 1.44532C90.4397 1.50932 90.477 1.58932 90.477 1.68532L90.445 1.82932L87.037 12.1013C86.9303 12.4 86.7223 12.5493 86.413 12.5493H84.637ZM92.5539 12.5493C92.4472 12.5493 92.3565 12.512 92.2819 12.4373C92.2072 12.3626 92.1699 12.272 92.1699 12.1653V1.74932C92.1699 1.63198 92.2019 1.53598 92.2659 1.46132C92.3405 1.38665 92.4365 1.34932 92.5539 1.34932H96.8419C98.1325 1.34932 99.1459 1.65332 99.8819 2.26132C100.618 2.86932 100.986 3.75465 100.986 4.91732C100.986 6.06932 100.618 6.94398 99.8819 7.54132C99.1459 8.12798 98.1325 8.42132 96.8419 8.42132H94.4899V12.1653C94.4899 12.2826 94.4525 12.3786 94.3779 12.4533C94.3032 12.5173 94.2072 12.5493 94.0899 12.5493H92.5539ZM96.7619 6.62932C97.3805 6.62932 97.8499 6.48532 98.1699 6.19732C98.5005 5.89865 98.6659 5.46665 98.6659 4.90132C98.6659 4.34665 98.5059 3.91465 98.1859 3.60532C97.8765 3.29598 97.4019 3.14132 96.7619 3.14132H94.4579V6.62932H96.7619ZM103.116 12.5493C103.01 12.5493 102.919 12.512 102.844 12.4373C102.77 12.3626 102.732 12.272 102.732 12.1653V1.74932C102.732 1.63198 102.764 1.53598 102.828 1.46132C102.903 1.38665 102.999 1.34932 103.116 1.34932H104.364C104.567 1.34932 104.722 1.43998 104.828 1.62132L109.404 8.72532V1.74932C109.404 1.63198 109.436 1.53598 109.5 1.46132C109.575 1.38665 109.671 1.34932 109.788 1.34932H111.164C111.282 1.34932 111.378 1.38665 111.452 1.46132C111.527 1.53598 111.564 1.63198 111.564 1.74932V12.1493C111.564 12.2666 111.527 12.3626 111.452 12.4373C111.378 12.512 111.287 12.5493 111.18 12.5493H109.916C109.703 12.5493 109.543 12.4586 109.436 12.2773L104.876 5.33332V12.1653C104.876 12.272 104.839 12.3626 104.764 12.4373C104.7 12.512 104.61 12.5493 104.492 12.5493H103.116ZM121.23 12.7093C120.142 12.7093 119.273 12.3733 118.622 11.7013C117.972 11.0186 117.614 10.0906 117.55 8.91732L117.534 8.37332L117.55 7.84532C117.614 6.69332 117.972 5.77598 118.622 5.09332C119.273 4.41065 120.142 4.06932 121.23 4.06932C122.404 4.06932 123.31 4.44265 123.95 5.18932C124.601 5.93598 124.926 6.94932 124.926 8.22932V8.51732C124.926 8.62398 124.889 8.71465 124.814 8.78932C124.75 8.85332 124.665 8.88532 124.558 8.88532H119.006V9.02932C119.038 9.72265 119.252 10.3146 119.646 10.8053C120.041 11.296 120.564 11.5413 121.214 11.5413C121.716 11.5413 122.121 11.4453 122.43 11.2533C122.75 11.0506 122.99 10.8426 123.15 10.6293C123.246 10.5013 123.321 10.4266 123.374 10.4053C123.428 10.3733 123.518 10.3573 123.646 10.3573H124.35C124.446 10.3573 124.526 10.384 124.59 10.4373C124.665 10.4906 124.702 10.56 124.702 10.6453C124.702 10.88 124.558 11.1626 124.27 11.4933C123.982 11.824 123.572 12.112 123.038 12.3573C122.516 12.592 121.913 12.7093 121.23 12.7093ZM123.47 7.79732V7.74932C123.47 7.00265 123.268 6.39465 122.862 5.92532C122.457 5.45598 121.913 5.22132 121.23 5.22132C120.537 5.22132 119.993 5.45598 119.598 5.92532C119.204 6.39465 119.006 7.00265 119.006 7.74932V7.79732H123.47ZM129.487 12.5493C129.209 12.5493 129.012 12.416 128.895 12.1493L125.919 4.72532C125.908 4.69332 125.903 4.63998 125.903 4.56532C125.903 4.46932 125.935 4.38932 125.999 4.32532C126.063 4.26132 126.137 4.22932 126.223 4.22932H126.959C127.129 4.22932 127.257 4.31465 127.343 4.48532L129.807 10.8693L132.271 4.48532C132.292 4.42132 132.335 4.36265 132.399 4.30932C132.473 4.25598 132.559 4.22932 132.655 4.22932H133.391C133.476 4.22932 133.551 4.26132 133.615 4.32532C133.679 4.38932 133.711 4.46932 133.711 4.56532L133.679 4.72532L130.719 12.1493C130.601 12.416 130.404 12.5493 130.127 12.5493H129.487ZM138.418 12.7093C137.33 12.7093 136.461 12.3733 135.81 11.7013C135.159 11.0186 134.802 10.0906 134.738 8.91732L134.722 8.37332L134.738 7.84532C134.802 6.69332 135.159 5.77598 135.81 5.09332C136.461 4.41065 137.33 4.06932 138.418 4.06932C139.591 4.06932 140.498 4.44265 141.138 5.18932C141.789 5.93598 142.114 6.94932 142.114 8.22932V8.51732C142.114 8.62398 142.077 8.71465 142.002 8.78932C141.938 8.85332 141.853 8.88532 141.746 8.88532H136.194V9.02932C136.226 9.72265 136.439 10.3146 136.834 10.8053C137.229 11.296 137.751 11.5413 138.402 11.5413C138.903 11.5413 139.309 11.4453 139.618 11.2533C139.938 11.0506 140.178 10.8426 140.338 10.6293C140.434 10.5013 140.509 10.4266 140.562 10.4053C140.615 10.3733 140.706 10.3573 140.834 10.3573H141.538C141.634 10.3573 141.714 10.384 141.778 10.4373C141.853 10.4906 141.89 10.56 141.89 10.6453C141.89 10.88 141.746 11.1626 141.458 11.4933C141.17 11.824 140.759 12.112 140.226 12.3573C139.703 12.592 139.101 12.7093 138.418 12.7093ZM140.658 7.79732V7.74932C140.658 7.00265 140.455 6.39465 140.05 5.92532C139.645 5.45598 139.101 5.22132 138.418 5.22132C137.725 5.22132 137.181 5.45598 136.786 5.92532C136.391 6.39465 136.194 7.00265 136.194 7.74932V7.79732H140.658ZM144.427 12.5493C144.321 12.5493 144.23 12.5173 144.155 12.4533C144.091 12.3786 144.059 12.288 144.059 12.1813V4.61332C144.059 4.50665 144.091 4.41598 144.155 4.34132C144.23 4.26665 144.321 4.22932 144.427 4.22932H145.099C145.217 4.22932 145.307 4.26665 145.371 4.34132C145.446 4.40532 145.483 4.49598 145.483 4.61332V5.31732C145.921 4.59198 146.662 4.22932 147.707 4.22932H148.331C148.449 4.22932 148.539 4.26132 148.603 4.32532C148.667 4.38932 148.699 4.47998 148.699 4.59732V5.18932C148.699 5.29598 148.667 5.38665 148.603 5.46132C148.539 5.52532 148.449 5.55732 148.331 5.55732H147.419C146.833 5.55732 146.369 5.72798 146.027 6.06932C145.697 6.41065 145.531 6.87465 145.531 7.46132V12.1813C145.531 12.288 145.494 12.3786 145.419 12.4533C145.345 12.5173 145.254 12.5493 145.147 12.5493H144.427ZM151.531 15.5893C151.435 15.5893 151.355 15.5573 151.291 15.4933C151.227 15.4293 151.195 15.3546 151.195 15.2693C151.195 15.2373 151.222 15.1413 151.275 14.9813L152.523 12.0533L149.467 4.83732C149.403 4.70932 149.371 4.61865 149.371 4.56532C149.382 4.46932 149.419 4.38932 149.483 4.32532C149.547 4.26132 149.622 4.22932 149.707 4.22932H150.443C150.614 4.22932 150.742 4.31465 150.827 4.48532L153.291 10.3733L155.819 4.48532C155.904 4.31465 156.032 4.22932 156.203 4.22932H156.923C157.008 4.22932 157.083 4.26132 157.147 4.32532C157.211 4.38932 157.243 4.46398 157.243 4.54932C157.243 4.62398 157.216 4.71998 157.163 4.83732L152.635 15.3333C152.582 15.4186 152.523 15.4826 152.459 15.5253C152.406 15.568 152.331 15.5893 152.235 15.5893H151.531ZM161.064 12.5493C160.915 12.5493 160.803 12.5173 160.728 12.4533C160.654 12.3893 160.595 12.288 160.552 12.1493L158.28 4.72532L158.248 4.56532C158.248 4.46932 158.28 4.38932 158.344 4.32532C158.408 4.26132 158.488 4.22932 158.584 4.22932H159.24C159.347 4.22932 159.432 4.26132 159.496 4.32532C159.571 4.37865 159.614 4.43198 159.624 4.48532L161.432 10.5973L163.352 4.56532C163.374 4.47998 163.422 4.40532 163.496 4.34132C163.571 4.26665 163.672 4.22932 163.8 4.22932H164.312C164.44 4.22932 164.542 4.26665 164.616 4.34132C164.691 4.40532 164.739 4.47998 164.76 4.56532L166.68 10.5973L168.488 4.48532C168.499 4.43198 168.536 4.37865 168.6 4.32532C168.675 4.26132 168.766 4.22932 168.872 4.22932H169.528C169.624 4.22932 169.704 4.26132 169.768 4.32532C169.832 4.38932 169.864 4.46932 169.864 4.56532L169.832 4.72532L167.56 12.1493C167.518 12.288 167.459 12.3893 167.384 12.4533C167.31 12.5173 167.198 12.5493 167.048 12.5493H166.472C166.195 12.5493 166.014 12.416 165.928 12.1493L164.056 6.35732L162.184 12.1493C162.099 12.416 161.918 12.5493 161.64 12.5493H161.064ZM172.037 12.5493C171.93 12.5493 171.84 12.5173 171.765 12.4533C171.701 12.3786 171.669 12.288 171.669 12.1813V1.55732C171.669 1.43998 171.701 1.34932 171.765 1.28532C171.84 1.22132 171.93 1.18932 172.037 1.18932H172.773C172.89 1.18932 172.981 1.22132 173.045 1.28532C173.109 1.34932 173.141 1.43998 173.141 1.55732V5.28532C173.45 4.89065 173.813 4.59198 174.229 4.38932C174.656 4.17598 175.178 4.06932 175.797 4.06932C176.821 4.06932 177.616 4.39998 178.181 5.06132C178.757 5.71198 179.045 6.57598 179.045 7.65332V12.1813C179.045 12.288 179.008 12.3786 178.933 12.4533C178.869 12.5173 178.784 12.5493 178.677 12.5493H177.925C177.818 12.5493 177.728 12.5173 177.653 12.4533C177.589 12.3786 177.557 12.288 177.557 12.1813V7.74932C177.557 6.98132 177.37 6.38398 176.997 5.95732C176.624 5.53065 176.085 5.31732 175.381 5.31732C174.698 5.31732 174.154 5.53598 173.749 5.97332C173.344 6.39998 173.141 6.99198 173.141 7.74932V12.1813C173.141 12.288 173.104 12.3786 173.029 12.4533C172.965 12.5173 172.88 12.5493 172.773 12.5493H172.037ZM184.668 12.7093C183.58 12.7093 182.711 12.3733 182.06 11.7013C181.409 11.0186 181.052 10.0906 180.988 8.91732L180.972 8.37332L180.988 7.84532C181.052 6.69332 181.409 5.77598 182.06 5.09332C182.711 4.41065 183.58 4.06932 184.668 4.06932C185.841 4.06932 186.748 4.44265 187.388 5.18932C188.039 5.93598 188.364 6.94932 188.364 8.22932V8.51732C188.364 8.62398 188.327 8.71465 188.252 8.78932C188.188 8.85332 188.103 8.88532 187.996 8.88532H182.444V9.02932C182.476 9.72265 182.689 10.3146 183.084 10.8053C183.479 11.296 184.001 11.5413 184.652 11.5413C185.153 11.5413 185.559 11.4453 185.868 11.2533C186.188 11.0506 186.428 10.8426 186.588 10.6293C186.684 10.5013 186.759 10.4266 186.812 10.4053C186.865 10.3733 186.956 10.3573 187.084 10.3573H187.788C187.884 10.3573 187.964 10.384 188.028 10.4373C188.103 10.4906 188.14 10.56 188.14 10.6453C188.14 10.88 187.996 11.1626 187.708 11.4933C187.42 11.824 187.009 12.112 186.476 12.3573C185.953 12.592 185.351 12.7093 184.668 12.7093ZM186.908 7.79732V7.74932C186.908 7.00265 186.705 6.39465 186.3 5.92532C185.895 5.45598 185.351 5.22132 184.668 5.22132C183.975 5.22132 183.431 5.45598 183.036 5.92532C182.641 6.39465 182.444 7.00265 182.444 7.74932V7.79732H186.908ZM190.677 12.5493C190.571 12.5493 190.48 12.5173 190.405 12.4533C190.341 12.3786 190.309 12.288 190.309 12.1813V4.61332C190.309 4.50665 190.341 4.41598 190.405 4.34132C190.48 4.26665 190.571 4.22932 190.677 4.22932H191.349C191.467 4.22932 191.557 4.26665 191.621 4.34132C191.696 4.40532 191.733 4.49598 191.733 4.61332V5.31732C192.171 4.59198 192.912 4.22932 193.957 4.22932H194.581C194.699 4.22932 194.789 4.26132 194.853 4.32532C194.917 4.38932 194.949 4.47998 194.949 4.59732V5.18932C194.949 5.29598 194.917 5.38665 194.853 5.46132C194.789 5.52532 194.699 5.55732 194.581 5.55732H193.669C193.083 5.55732 192.619 5.72798 192.277 6.06932C191.947 6.41065 191.781 6.87465 191.781 7.46132V12.1813C191.781 12.288 191.744 12.3786 191.669 12.4533C191.595 12.5173 191.504 12.5493 191.397 12.5493H190.677ZM199.465 12.7093C198.377 12.7093 197.507 12.3733 196.857 11.7013C196.206 11.0186 195.849 10.0906 195.785 8.91732L195.769 8.37332L195.785 7.84532C195.849 6.69332 196.206 5.77598 196.857 5.09332C197.507 4.41065 198.377 4.06932 199.465 4.06932C200.638 4.06932 201.545 4.44265 202.185 5.18932C202.835 5.93598 203.161 6.94932 203.161 8.22932V8.51732C203.161 8.62398 203.123 8.71465 203.049 8.78932C202.985 8.85332 202.899 8.88532 202.793 8.88532H197.241V9.02932C197.273 9.72265 197.486 10.3146 197.881 10.8053C198.275 11.296 198.798 11.5413 199.449 11.5413C199.95 11.5413 200.355 11.4453 200.665 11.2533C200.985 11.0506 201.225 10.8426 201.385 10.6293C201.481 10.5013 201.555 10.4266 201.609 10.4053C201.662 10.3733 201.753 10.3573 201.881 10.3573H202.585C202.681 10.3573 202.761 10.384 202.825 10.4373C202.899 10.4906 202.937 10.56 202.937 10.6453C202.937 10.88 202.793 11.1626 202.505 11.4933C202.217 11.824 201.806 12.112 201.273 12.3573C200.75 12.592 200.147 12.7093 199.465 12.7093ZM201.705 7.79732V7.74932C201.705 7.00265 201.502 6.39465 201.097 5.92532C200.691 5.45598 200.147 5.22132 199.465 5.22132C198.771 5.22132 198.227 5.45598 197.833 5.92532C197.438 6.39465 197.241 7.00265 197.241 7.74932V7.79732H201.705ZM211.9 12.5493C210.247 12.5493 209.42 11.616 209.42 9.74932V5.46132H208.156C208.049 5.46132 207.964 5.42932 207.9 5.36532C207.836 5.30132 207.804 5.21598 207.804 5.10932V4.59732C207.804 4.49065 207.836 4.40532 207.9 4.34132C207.964 4.26665 208.049 4.22932 208.156 4.22932H209.42V1.55732C209.42 1.45065 209.452 1.36532 209.516 1.30132C209.58 1.22665 209.665 1.18932 209.772 1.18932H210.476C210.583 1.18932 210.668 1.22665 210.732 1.30132C210.807 1.36532 210.844 1.45065 210.844 1.55732V4.22932H212.828C212.935 4.22932 213.02 4.26665 213.084 4.34132C213.159 4.40532 213.196 4.49065 213.196 4.59732V5.10932C213.196 5.21598 213.159 5.30132 213.084 5.36532C213.02 5.42932 212.935 5.46132 212.828 5.46132H210.844V9.63732C210.844 10.1813 210.929 10.592 211.1 10.8693C211.281 11.1466 211.585 11.2853 212.012 11.2853H212.988C213.095 11.2853 213.18 11.3226 213.244 11.3973C213.308 11.4613 213.34 11.5466 213.34 11.6533V12.1813C213.34 12.288 213.308 12.3786 213.244 12.4533C213.18 12.5173 213.095 12.5493 212.988 12.5493H211.9ZM218.279 12.7093C217.106 12.7093 216.199 12.3786 215.559 11.7173C214.93 11.056 214.594 10.176 214.551 9.07732L214.535 8.38932L214.551 7.70132C214.594 6.60265 214.935 5.72265 215.575 5.06132C216.226 4.39998 217.127 4.06932 218.279 4.06932C219.431 4.06932 220.327 4.39998 220.967 5.06132C221.618 5.72265 221.964 6.60265 222.007 7.70132C222.028 7.93598 222.039 8.16532 222.039 8.38932C222.039 8.61332 222.028 8.84265 222.007 9.07732C221.964 10.176 221.623 11.056 220.983 11.7173C220.354 12.3786 219.452 12.7093 218.279 12.7093ZM218.279 11.5093C218.962 11.5093 219.5 11.296 219.895 10.8693C220.3 10.432 220.519 9.80798 220.551 8.99732C220.562 8.89065 220.567 8.68798 220.567 8.38932C220.567 8.09065 220.562 7.88798 220.551 7.78132C220.519 6.97065 220.3 6.35198 219.895 5.92532C219.5 5.48798 218.962 5.26932 218.279 5.26932C217.596 5.26932 217.052 5.48798 216.647 5.92532C216.252 6.35198 216.039 6.97065 216.007 7.78132L215.991 8.38932L216.007 8.99732C216.039 9.80798 216.252 10.432 216.647 10.8693C217.052 11.296 217.596 11.5093 218.279 11.5093ZM228.365 12.5493C228.258 12.5493 228.168 12.5173 228.093 12.4533C228.029 12.3786 227.997 12.288 227.997 12.1813V4.59732C227.997 4.49065 228.029 4.40532 228.093 4.34132C228.168 4.26665 228.258 4.22932 228.365 4.22932H229.037C229.144 4.22932 229.229 4.26665 229.293 4.34132C229.357 4.40532 229.389 4.49065 229.389 4.59732V5.14132C229.965 4.42665 230.744 4.06932 231.725 4.06932C232.898 4.06932 233.73 4.55998 234.221 5.54132C234.477 5.09332 234.84 4.73598 235.309 4.46932C235.789 4.20265 236.322 4.06932 236.909 4.06932C237.784 4.06932 238.498 4.36798 239.053 4.96532C239.608 5.56265 239.885 6.42665 239.885 7.55732V12.1813C239.885 12.288 239.848 12.3786 239.773 12.4533C239.709 12.5173 239.624 12.5493 239.517 12.5493H238.829C238.722 12.5493 238.632 12.5173 238.557 12.4533C238.493 12.3786 238.461 12.288 238.461 12.1813V7.70132C238.461 6.84798 238.285 6.23998 237.933 5.87732C237.581 5.50398 237.117 5.31732 236.541 5.31732C236.029 5.31732 235.586 5.50932 235.213 5.89332C234.85 6.26665 234.669 6.86932 234.669 7.70132V12.1813C234.669 12.288 234.632 12.3786 234.557 12.4533C234.493 12.5173 234.408 12.5493 234.301 12.5493H233.597C233.49 12.5493 233.4 12.5173 233.325 12.4533C233.261 12.3786 233.229 12.288 233.229 12.1813V7.70132C233.229 6.85865 233.042 6.25065 232.669 5.87732C232.306 5.50398 231.853 5.31732 231.309 5.31732C230.797 5.31732 230.354 5.50398 229.981 5.87732C229.618 6.25065 229.437 6.85332 229.437 7.68532V12.1813C229.437 12.288 229.4 12.3786 229.325 12.4533C229.261 12.5173 229.176 12.5493 229.069 12.5493H228.365ZM244.504 12.7093C243.981 12.7093 243.496 12.6026 243.048 12.3893C242.611 12.176 242.259 11.888 241.992 11.5253C241.736 11.152 241.608 10.7413 241.608 10.2933C241.608 9.58932 241.896 9.01332 242.472 8.56532C243.048 8.11732 243.832 7.81865 244.824 7.66932L247.224 7.33332V6.86932C247.224 5.77065 246.589 5.22132 245.32 5.22132C244.829 5.22132 244.435 5.32265 244.136 5.52532C243.837 5.71732 243.619 5.94665 243.48 6.21332C243.437 6.31998 243.389 6.39465 243.336 6.43732C243.293 6.46932 243.229 6.48532 243.144 6.48532H242.52C242.424 6.48532 242.339 6.45332 242.264 6.38932C242.2 6.31465 242.168 6.22932 242.168 6.13332C242.168 5.88798 242.28 5.60532 242.504 5.28532C242.739 4.95465 243.096 4.67198 243.576 4.43732C244.056 4.19198 244.643 4.06932 245.336 4.06932C246.531 4.06932 247.384 4.34665 247.896 4.90132C248.419 5.45598 248.68 6.14932 248.68 6.98132V12.1813C248.68 12.288 248.643 12.3786 248.568 12.4533C248.504 12.5173 248.419 12.5493 248.312 12.5493H247.608C247.501 12.5493 247.416 12.5173 247.352 12.4533C247.288 12.3786 247.256 12.288 247.256 12.1813V11.4773C247.021 11.8293 246.68 12.1226 246.232 12.3573C245.784 12.592 245.208 12.7093 244.504 12.7093ZM244.824 11.5413C245.528 11.5413 246.104 11.312 246.552 10.8533C247 10.3946 247.224 9.72798 247.224 8.85332V8.40532L245.352 8.67732C244.584 8.78398 244.003 8.96532 243.608 9.22132C243.213 9.47732 243.016 9.79732 243.016 10.1813C243.016 10.6186 243.192 10.9546 243.544 11.1893C243.907 11.424 244.333 11.5413 244.824 11.5413ZM251.381 12.5493C251.274 12.5493 251.184 12.5173 251.109 12.4533C251.045 12.3786 251.013 12.288 251.013 12.1813V1.55732C251.013 1.43998 251.045 1.34932 251.109 1.28532C251.184 1.22132 251.274 1.18932 251.381 1.18932H252.069C252.176 1.18932 252.261 1.22665 252.325 1.30132C252.4 1.36532 252.437 1.45065 252.437 1.55732V7.14132L255.637 4.50132C255.797 4.38398 255.909 4.30932 255.973 4.27732C256.037 4.24532 256.138 4.22932 256.277 4.22932H257.077C257.173 4.22932 257.248 4.26132 257.301 4.32532C257.365 4.37865 257.397 4.45865 257.397 4.56532C257.397 4.66132 257.338 4.76265 257.221 4.86932L253.477 7.94132L257.621 11.9093C257.738 12.0266 257.797 12.128 257.797 12.2133C257.797 12.3093 257.765 12.3893 257.701 12.4533C257.648 12.5173 257.573 12.5493 257.477 12.5493H256.693C256.533 12.5493 256.416 12.5333 256.341 12.5013C256.277 12.4693 256.181 12.3946 256.053 12.2773L252.437 8.85332V12.1813C252.437 12.288 252.4 12.3786 252.325 12.4533C252.261 12.5173 252.176 12.5493 252.069 12.5493H251.381ZM262.105 12.7093C261.017 12.7093 260.148 12.3733 259.497 11.7013C258.847 11.0186 258.489 10.0906 258.425 8.91732L258.409 8.37332L258.425 7.84532C258.489 6.69332 258.847 5.77598 259.497 5.09332C260.148 4.41065 261.017 4.06932 262.105 4.06932C263.279 4.06932 264.185 4.44265 264.825 5.18932C265.476 5.93598 265.801 6.94932 265.801 8.22932V8.51732C265.801 8.62398 265.764 8.71465 265.689 8.78932C265.625 8.85332 265.54 8.88532 265.433 8.88532H259.881V9.02932C259.913 9.72265 260.127 10.3146 260.521 10.8053C260.916 11.296 261.439 11.5413 262.089 11.5413C262.591 11.5413 262.996 11.4453 263.305 11.2533C263.625 11.0506 263.865 10.8426 264.025 10.6293C264.121 10.5013 264.196 10.4266 264.249 10.4053C264.303 10.3733 264.393 10.3573 264.521 10.3573H265.225C265.321 10.3573 265.401 10.384 265.465 10.4373C265.54 10.4906 265.577 10.56 265.577 10.6453C265.577 10.88 265.433 11.1626 265.145 11.4933C264.857 11.824 264.447 12.112 263.913 12.3573C263.391 12.592 262.788 12.7093 262.105 12.7093ZM264.345 7.79732V7.74932C264.345 7.00265 264.143 6.39465 263.737 5.92532C263.332 5.45598 262.788 5.22132 262.105 5.22132C261.412 5.22132 260.868 5.45598 260.473 5.92532C260.079 6.39465 259.881 7.00265 259.881 7.74932V7.79732H264.345ZM271.924 2.66132C271.818 2.66132 271.727 2.62932 271.652 2.56532C271.588 2.49065 271.556 2.39998 271.556 2.29332V1.46132C271.556 1.35465 271.588 1.26398 271.652 1.18932C271.727 1.11465 271.818 1.07732 271.924 1.07732H272.868C272.975 1.07732 273.066 1.11465 273.14 1.18932C273.215 1.26398 273.252 1.35465 273.252 1.46132V2.29332C273.252 2.39998 273.215 2.49065 273.14 2.56532C273.066 2.62932 272.975 2.66132 272.868 2.66132H271.924ZM272.052 12.5493C271.946 12.5493 271.855 12.5173 271.78 12.4533C271.716 12.3786 271.684 12.288 271.684 12.1813V4.59732C271.684 4.49065 271.716 4.40532 271.78 4.34132C271.855 4.26665 271.946 4.22932 272.052 4.22932H272.756C272.863 4.22932 272.948 4.26665 273.012 4.34132C273.087 4.40532 273.124 4.49065 273.124 4.59732V12.1813C273.124 12.288 273.087 12.3786 273.012 12.4533C272.948 12.5173 272.863 12.5493 272.756 12.5493H272.052ZM278.728 12.5493C277.075 12.5493 276.248 11.616 276.248 9.74932V5.46132H274.984C274.877 5.46132 274.792 5.42932 274.728 5.36532C274.664 5.30132 274.632 5.21598 274.632 5.10932V4.59732C274.632 4.49065 274.664 4.40532 274.728 4.34132C274.792 4.26665 274.877 4.22932 274.984 4.22932H276.248V1.55732C276.248 1.45065 276.28 1.36532 276.344 1.30132C276.408 1.22665 276.493 1.18932 276.6 1.18932H277.304C277.411 1.18932 277.496 1.22665 277.56 1.30132C277.635 1.36532 277.672 1.45065 277.672 1.55732V4.22932H279.656C279.763 4.22932 279.848 4.26665 279.912 4.34132C279.987 4.40532 280.024 4.49065 280.024 4.59732V5.10932C280.024 5.21598 279.987 5.30132 279.912 5.36532C279.848 5.42932 279.763 5.46132 279.656 5.46132H277.672V9.63732C277.672 10.1813 277.757 10.592 277.928 10.8693C278.109 11.1466 278.413 11.2853 278.84 11.2853H279.816C279.923 11.2853 280.008 11.3226 280.072 11.3973C280.136 11.4613 280.168 11.5466 280.168 11.6533V12.1813C280.168 12.288 280.136 12.3786 280.072 12.4533C280.008 12.5173 279.923 12.5493 279.816 12.5493H278.728ZM288.965 12.7093C287.877 12.7093 287.007 12.3733 286.357 11.7013C285.706 11.0186 285.349 10.0906 285.285 8.91732L285.269 8.37332L285.285 7.84532C285.349 6.69332 285.706 5.77598 286.357 5.09332C287.007 4.41065 287.877 4.06932 288.965 4.06932C290.138 4.06932 291.045 4.44265 291.685 5.18932C292.335 5.93598 292.661 6.94932 292.661 8.22932V8.51732C292.661 8.62398 292.623 8.71465 292.549 8.78932C292.485 8.85332 292.399 8.88532 292.293 8.88532H286.741V9.02932C286.773 9.72265 286.986 10.3146 287.381 10.8053C287.775 11.296 288.298 11.5413 288.949 11.5413C289.45 11.5413 289.855 11.4453 290.165 11.2533C290.485 11.0506 290.725 10.8426 290.885 10.6293C290.981 10.5013 291.055 10.4266 291.109 10.4053C291.162 10.3733 291.253 10.3573 291.381 10.3573H292.085C292.181 10.3573 292.261 10.384 292.325 10.4373C292.399 10.4906 292.437 10.56 292.437 10.6453C292.437 10.88 292.293 11.1626 292.005 11.4933C291.717 11.824 291.306 12.112 290.773 12.3573C290.25 12.592 289.647 12.7093 288.965 12.7093ZM291.205 7.79732V7.74932C291.205 7.00265 291.002 6.39465 290.597 5.92532C290.191 5.45598 289.647 5.22132 288.965 5.22132C288.271 5.22132 287.727 5.45598 287.333 5.92532C286.938 6.39465 286.741 7.00265 286.741 7.74932V7.79732H291.205ZM296.91 12.7093C296.388 12.7093 295.902 12.6026 295.454 12.3893C295.017 12.176 294.665 11.888 294.398 11.5253C294.142 11.152 294.014 10.7413 294.014 10.2933C294.014 9.58932 294.302 9.01332 294.878 8.56532C295.454 8.11732 296.238 7.81865 297.23 7.66932L299.63 7.33332V6.86932C299.63 5.77065 298.996 5.22132 297.726 5.22132C297.236 5.22132 296.841 5.32265 296.542 5.52532C296.244 5.71732 296.025 5.94665 295.886 6.21332C295.844 6.31998 295.796 6.39465 295.742 6.43732C295.7 6.46932 295.636 6.48532 295.55 6.48532H294.926C294.83 6.48532 294.745 6.45332 294.67 6.38932C294.606 6.31465 294.574 6.22932 294.574 6.13332C294.574 5.88798 294.686 5.60532 294.91 5.28532C295.145 4.95465 295.502 4.67198 295.982 4.43732C296.462 4.19198 297.049 4.06932 297.742 4.06932C298.937 4.06932 299.79 4.34665 300.302 4.90132C300.825 5.45598 301.086 6.14932 301.086 6.98132V12.1813C301.086 12.288 301.049 12.3786 300.974 12.4533C300.91 12.5173 300.825 12.5493 300.718 12.5493H300.014C299.908 12.5493 299.822 12.5173 299.758 12.4533C299.694 12.3786 299.662 12.288 299.662 12.1813V11.4773C299.428 11.8293 299.086 12.1226 298.638 12.3573C298.19 12.592 297.614 12.7093 296.91 12.7093ZM297.23 11.5413C297.934 11.5413 298.51 11.312 298.958 10.8533C299.406 10.3946 299.63 9.72798 299.63 8.85332V8.40532L297.758 8.67732C296.99 8.78398 296.409 8.96532 296.014 9.22132C295.62 9.47732 295.422 9.79732 295.422 10.1813C295.422 10.6186 295.598 10.9546 295.95 11.1893C296.313 11.424 296.74 11.5413 297.23 11.5413ZM306.251 12.7093C305.515 12.7093 304.891 12.592 304.379 12.3573C303.878 12.112 303.504 11.8346 303.259 11.5253C303.014 11.216 302.891 10.96 302.891 10.7573C302.891 10.6506 302.928 10.5706 303.003 10.5173C303.078 10.4533 303.158 10.4213 303.243 10.4213H303.915C303.979 10.4213 304.027 10.432 304.059 10.4533C304.102 10.4746 304.155 10.5226 304.219 10.5973C304.464 10.896 304.736 11.1306 305.035 11.3013C305.344 11.472 305.755 11.5573 306.267 11.5573C306.843 11.5573 307.302 11.4506 307.643 11.2373C307.995 11.024 308.171 10.7146 308.171 10.3093C308.171 10.0426 308.096 9.82932 307.947 9.66932C307.798 9.50932 307.547 9.36532 307.195 9.23732C306.854 9.10932 306.342 8.97065 305.659 8.82132C304.731 8.61865 304.075 8.32532 303.691 7.94132C303.307 7.55732 303.115 7.06132 303.115 6.45332C303.115 6.05865 303.232 5.67998 303.467 5.31732C303.702 4.94398 304.048 4.64532 304.507 4.42132C304.976 4.18665 305.531 4.06932 306.171 4.06932C306.843 4.06932 307.414 4.18132 307.883 4.40532C308.363 4.62932 308.72 4.89065 308.955 5.18932C309.2 5.48798 309.323 5.73865 309.323 5.94132C309.323 6.03732 309.286 6.11732 309.211 6.18132C309.147 6.24532 309.067 6.27732 308.971 6.27732H308.363C308.214 6.27732 308.107 6.21865 308.043 6.10132C307.862 5.89865 307.707 5.74398 307.579 5.63732C307.462 5.51998 307.286 5.42398 307.051 5.34932C306.816 5.26398 306.523 5.22132 306.171 5.22132C305.648 5.22132 305.248 5.33332 304.971 5.55732C304.694 5.77065 304.555 6.05865 304.555 6.42132C304.555 6.64532 304.614 6.83732 304.731 6.99732C304.848 7.14665 305.072 7.29065 305.403 7.42932C305.734 7.55732 306.224 7.69065 306.875 7.82932C307.888 8.04265 308.603 8.34665 309.019 8.74132C309.446 9.13598 309.659 9.64265 309.659 10.2613C309.659 10.72 309.526 11.136 309.259 11.5093C309.003 11.8826 308.614 12.176 308.091 12.3893C307.579 12.6026 306.966 12.7093 306.251 12.7093ZM311.768 2.66132C311.661 2.66132 311.571 2.62932 311.496 2.56532C311.432 2.49065 311.4 2.39998 311.4 2.29332V1.46132C311.4 1.35465 311.432 1.26398 311.496 1.18932C311.571 1.11465 311.661 1.07732 311.768 1.07732H312.712C312.819 1.07732 312.909 1.11465 312.984 1.18932C313.059 1.26398 313.096 1.35465 313.096 1.46132V2.29332C313.096 2.39998 313.059 2.49065 312.984 2.56532C312.909 2.62932 312.819 2.66132 312.712 2.66132H311.768ZM311.896 12.5493C311.789 12.5493 311.699 12.5173 311.624 12.4533C311.56 12.3786 311.528 12.288 311.528 12.1813V4.59732C311.528 4.49065 311.56 4.40532 311.624 4.34132C311.699 4.26665 311.789 4.22932 311.896 4.22932H312.6C312.707 4.22932 312.792 4.26665 312.856 4.34132C312.931 4.40532 312.968 4.49065 312.968 4.59732V12.1813C312.968 12.288 312.931 12.3786 312.856 12.4533C312.792 12.5173 312.707 12.5493 312.6 12.5493H311.896ZM318.668 12.7093C317.58 12.7093 316.711 12.3733 316.06 11.7013C315.409 11.0186 315.052 10.0906 314.988 8.91732L314.972 8.37332L314.988 7.84532C315.052 6.69332 315.409 5.77598 316.06 5.09332C316.711 4.41065 317.58 4.06932 318.668 4.06932C319.841 4.06932 320.748 4.44265 321.388 5.18932C322.039 5.93598 322.364 6.94932 322.364 8.22932V8.51732C322.364 8.62398 322.327 8.71465 322.252 8.78932C322.188 8.85332 322.103 8.88532 321.996 8.88532H316.444V9.02932C316.476 9.72265 316.689 10.3146 317.084 10.8053C317.479 11.296 318.001 11.5413 318.652 11.5413C319.153 11.5413 319.559 11.4453 319.868 11.2533C320.188 11.0506 320.428 10.8426 320.588 10.6293C320.684 10.5013 320.759 10.4266 320.812 10.4053C320.865 10.3733 320.956 10.3573 321.084 10.3573H321.788C321.884 10.3573 321.964 10.384 322.028 10.4373C322.103 10.4906 322.14 10.56 322.14 10.6453C322.14 10.88 321.996 11.1626 321.708 11.4933C321.42 11.824 321.009 12.112 320.476 12.3573C319.953 12.592 319.351 12.7093 318.668 12.7093ZM320.908 7.79732V7.74932C320.908 7.00265 320.705 6.39465 320.3 5.92532C319.895 5.45598 319.351 5.22132 318.668 5.22132C317.975 5.22132 317.431 5.45598 317.036 5.92532C316.641 6.39465 316.444 7.00265 316.444 7.74932V7.79732H320.908ZM324.677 12.5493C324.571 12.5493 324.48 12.5173 324.405 12.4533C324.341 12.3786 324.309 12.288 324.309 12.1813V4.61332C324.309 4.50665 324.341 4.41598 324.405 4.34132C324.48 4.26665 324.571 4.22932 324.677 4.22932H325.349C325.467 4.22932 325.557 4.26665 325.621 4.34132C325.696 4.40532 325.733 4.49598 325.733 4.61332V5.31732C326.171 4.59198 326.912 4.22932 327.957 4.22932H328.581C328.699 4.22932 328.789 4.26132 328.853 4.32532C328.917 4.38932 328.949 4.47998 328.949 4.59732V5.18932C328.949 5.29598 328.917 5.38665 328.853 5.46132C328.789 5.52532 328.699 5.55732 328.581 5.55732H327.669C327.083 5.55732 326.619 5.72798 326.277 6.06932C325.947 6.41065 325.781 6.87465 325.781 7.46132V12.1813C325.781 12.288 325.744 12.3786 325.669 12.4533C325.595 12.5173 325.504 12.5493 325.397 12.5493H324.677ZM334.791 12.5493C334.684 12.5493 334.593 12.5173 334.519 12.4533C334.455 12.3786 334.423 12.288 334.423 12.1813V5.46132H333.047C332.94 5.46132 332.849 5.42932 332.775 5.36532C332.711 5.30132 332.679 5.21598 332.679 5.10932V4.59732C332.679 4.49065 332.711 4.40532 332.775 4.34132C332.849 4.26665 332.94 4.22932 333.047 4.22932H334.423V3.42932C334.423 2.56532 334.631 1.89865 335.047 1.42932C335.473 0.949316 336.167 0.709316 337.127 0.709316H338.071C338.177 0.709316 338.263 0.746649 338.327 0.821316C338.401 0.885316 338.439 0.970649 338.439 1.07732V1.58932C338.439 1.69598 338.401 1.78132 338.327 1.84532C338.263 1.90932 338.177 1.94132 338.071 1.94132H337.159C336.668 1.94132 336.327 2.06932 336.135 2.32532C335.943 2.58132 335.847 2.97598 335.847 3.50932V4.22932H337.911C338.017 4.22932 338.103 4.26665 338.167 4.34132C338.241 4.40532 338.279 4.49065 338.279 4.59732V5.10932C338.279 5.21598 338.241 5.30132 338.167 5.36532C338.103 5.42932 338.017 5.46132 337.911 5.46132H335.847V12.1813C335.847 12.288 335.809 12.3786 335.735 12.4533C335.671 12.5173 335.585 12.5493 335.479 12.5493H334.791ZM342.92 12.7093C341.746 12.7093 340.84 12.3786 340.2 11.7173C339.57 11.056 339.234 10.176 339.192 9.07732L339.176 8.38932L339.192 7.70132C339.234 6.60265 339.576 5.72265 340.216 5.06132C340.866 4.39998 341.768 4.06932 342.92 4.06932C344.072 4.06932 344.968 4.39998 345.608 5.06132C346.258 5.72265 346.605 6.60265 346.648 7.70132C346.669 7.93598 346.68 8.16532 346.68 8.38932C346.68 8.61332 346.669 8.84265 346.648 9.07732C346.605 10.176 346.264 11.056 345.624 11.7173C344.994 12.3786 344.093 12.7093 342.92 12.7093ZM342.92 11.5093C343.602 11.5093 344.141 11.296 344.536 10.8693C344.941 10.432 345.16 9.80798 345.192 8.99732C345.202 8.89065 345.208 8.68798 345.208 8.38932C345.208 8.09065 345.202 7.88798 345.192 7.78132C345.16 6.97065 344.941 6.35198 344.536 5.92532C344.141 5.48798 343.602 5.26932 342.92 5.26932C342.237 5.26932 341.693 5.48798 341.288 5.92532C340.893 6.35198 340.68 6.97065 340.648 7.78132L340.632 8.38932L340.648 8.99732C340.68 9.80798 340.893 10.432 341.288 10.8693C341.693 11.296 342.237 11.5093 342.92 11.5093ZM349.068 12.5493C348.961 12.5493 348.871 12.5173 348.796 12.4533C348.732 12.3786 348.7 12.288 348.7 12.1813V4.61332C348.7 4.50665 348.732 4.41598 348.796 4.34132C348.871 4.26665 348.961 4.22932 349.068 4.22932H349.74C349.857 4.22932 349.948 4.26665 350.012 4.34132C350.087 4.40532 350.124 4.49598 350.124 4.61332V5.31732C350.561 4.59198 351.303 4.22932 352.348 4.22932H352.972C353.089 4.22932 353.18 4.26132 353.244 4.32532C353.308 4.38932 353.34 4.47998 353.34 4.59732V5.18932C353.34 5.29598 353.308 5.38665 353.244 5.46132C353.18 5.52532 353.089 5.55732 352.972 5.55732H352.06C351.473 5.55732 351.009 5.72798 350.668 6.06932C350.337 6.41065 350.172 6.87465 350.172 7.46132V12.1813C350.172 12.288 350.135 12.3786 350.06 12.4533C349.985 12.5173 349.895 12.5493 349.788 12.5493H349.068ZM359.297 15.5893C359.201 15.5893 359.121 15.5573 359.057 15.4933C358.993 15.4293 358.961 15.3546 358.961 15.2693C358.961 15.2373 358.987 15.1413 359.041 14.9813L360.289 12.0533L357.233 4.83732C357.169 4.70932 357.137 4.61865 357.137 4.56532C357.147 4.46932 357.185 4.38932 357.249 4.32532C357.313 4.26132 357.387 4.22932 357.473 4.22932H358.209C358.379 4.22932 358.507 4.31465 358.593 4.48532L361.057 10.3733L363.585 4.48532C363.67 4.31465 363.798 4.22932 363.969 4.22932H364.689C364.774 4.22932 364.849 4.26132 364.913 4.32532C364.977 4.38932 365.009 4.46398 365.009 4.54932C365.009 4.62398 364.982 4.71998 364.929 4.83732L360.401 15.3333C360.347 15.4186 360.289 15.4826 360.225 15.5253C360.171 15.568 360.097 15.5893 360.001 15.5893H359.297ZM369.717 12.7093C368.543 12.7093 367.637 12.3786 366.997 11.7173C366.367 11.056 366.031 10.176 365.989 9.07732L365.973 8.38932L365.989 7.70132C366.031 6.60265 366.373 5.72265 367.013 5.06132C367.663 4.39998 368.565 4.06932 369.717 4.06932C370.869 4.06932 371.765 4.39998 372.405 5.06132C373.055 5.72265 373.402 6.60265 373.445 7.70132C373.466 7.93598 373.477 8.16532 373.477 8.38932C373.477 8.61332 373.466 8.84265 373.445 9.07732C373.402 10.176 373.061 11.056 372.421 11.7173C371.791 12.3786 370.89 12.7093 369.717 12.7093ZM369.717 11.5093C370.399 11.5093 370.938 11.296 371.333 10.8693C371.738 10.432 371.957 9.80798 371.989 8.99732C371.999 8.89065 372.005 8.68798 372.005 8.38932C372.005 8.09065 371.999 7.88798 371.989 7.78132C371.957 6.97065 371.738 6.35198 371.333 5.92532C370.938 5.48798 370.399 5.26932 369.717 5.26932C369.034 5.26932 368.49 5.48798 368.085 5.92532C367.69 6.35198 367.477 6.97065 367.445 7.78132L367.429 8.38932L367.445 8.99732C367.477 9.80798 367.69 10.432 368.085 10.8693C368.49 11.296 369.034 11.5093 369.717 11.5093ZM378.601 12.7093C377.588 12.7093 376.804 12.384 376.249 11.7333C375.694 11.072 375.417 10.1973 375.417 9.10932V4.59732C375.417 4.49065 375.449 4.40532 375.513 4.34132C375.588 4.26665 375.678 4.22932 375.785 4.22932H376.521C376.628 4.22932 376.713 4.26665 376.777 4.34132C376.852 4.40532 376.889 4.49065 376.889 4.59732V9.02932C376.889 10.6506 377.593 11.4613 379.001 11.4613C379.684 11.4613 380.222 11.248 380.617 10.8213C381.022 10.384 381.225 9.78665 381.225 9.02932V4.59732C381.225 4.49065 381.257 4.40532 381.321 4.34132C381.396 4.26665 381.486 4.22932 381.593 4.22932H382.329C382.436 4.22932 382.521 4.26665 382.585 4.34132C382.66 4.40532 382.697 4.49065 382.697 4.59732V12.1813C382.697 12.288 382.66 12.3786 382.585 12.4533C382.521 12.5173 382.436 12.5493 382.329 12.5493H381.641C381.534 12.5493 381.444 12.5173 381.369 12.4533C381.305 12.3786 381.273 12.288 381.273 12.1813V11.4613C380.964 11.8773 380.601 12.192 380.185 12.4053C379.769 12.608 379.241 12.7093 378.601 12.7093ZM390.861 12.5493C390.712 12.5493 390.6 12.5173 390.525 12.4533C390.45 12.3893 390.392 12.288 390.349 12.1493L388.077 4.72532L388.045 4.56532C388.045 4.46932 388.077 4.38932 388.141 4.32532C388.205 4.26132 388.285 4.22932 388.381 4.22932H389.037C389.144 4.22932 389.229 4.26132 389.293 4.32532C389.368 4.37865 389.41 4.43198 389.421 4.48532L391.229 10.5973L393.149 4.56532C393.17 4.47998 393.218 4.40532 393.293 4.34132C393.368 4.26665 393.469 4.22932 393.597 4.22932H394.109C394.237 4.22932 394.338 4.26665 394.413 4.34132C394.488 4.40532 394.536 4.47998 394.557 4.56532L396.477 10.5973L398.285 4.48532C398.296 4.43198 398.333 4.37865 398.397 4.32532C398.472 4.26132 398.562 4.22932 398.669 4.22932H399.325C399.421 4.22932 399.501 4.26132 399.565 4.32532C399.629 4.38932 399.661 4.46932 399.661 4.56532L399.629 4.72532L397.357 12.1493C397.314 12.288 397.256 12.3893 397.181 12.4533C397.106 12.5173 396.994 12.5493 396.845 12.5493H396.269C395.992 12.5493 395.81 12.416 395.725 12.1493L393.853 6.35732L391.981 12.1493C391.896 12.416 391.714 12.5493 391.437 12.5493H390.861ZM401.834 12.5493C401.727 12.5493 401.637 12.5173 401.562 12.4533C401.498 12.3786 401.466 12.288 401.466 12.1813V1.55732C401.466 1.43998 401.498 1.34932 401.562 1.28532C401.637 1.22132 401.727 1.18932 401.834 1.18932H402.57C402.687 1.18932 402.778 1.22132 402.842 1.28532C402.906 1.34932 402.938 1.43998 402.938 1.55732V5.28532C403.247 4.89065 403.61 4.59198 404.026 4.38932C404.453 4.17598 404.975 4.06932 405.594 4.06932C406.618 4.06932 407.413 4.39998 407.978 5.06132C408.554 5.71198 408.842 6.57598 408.842 7.65332V12.1813C408.842 12.288 408.805 12.3786 408.73 12.4533C408.666 12.5173 408.581 12.5493 408.474 12.5493H407.722C407.615 12.5493 407.525 12.5173 407.45 12.4533C407.386 12.3786 407.354 12.288 407.354 12.1813V7.74932C407.354 6.98132 407.167 6.38398 406.794 5.95732C406.421 5.53065 405.882 5.31732 405.178 5.31732C404.495 5.31732 403.951 5.53598 403.546 5.97332C403.141 6.39998 402.938 6.99198 402.938 7.74932V12.1813C402.938 12.288 402.901 12.3786 402.826 12.4533C402.762 12.5173 402.677 12.5493 402.57 12.5493H401.834ZM414.465 12.7093C413.377 12.7093 412.507 12.3733 411.857 11.7013C411.206 11.0186 410.849 10.0906 410.785 8.91732L410.769 8.37332L410.785 7.84532C410.849 6.69332 411.206 5.77598 411.857 5.09332C412.507 4.41065 413.377 4.06932 414.465 4.06932C415.638 4.06932 416.545 4.44265 417.185 5.18932C417.835 5.93598 418.161 6.94932 418.161 8.22932V8.51732C418.161 8.62398 418.123 8.71465 418.049 8.78932C417.985 8.85332 417.899 8.88532 417.793 8.88532H412.241V9.02932C412.273 9.72265 412.486 10.3146 412.881 10.8053C413.275 11.296 413.798 11.5413 414.449 11.5413C414.95 11.5413 415.355 11.4453 415.665 11.2533C415.985 11.0506 416.225 10.8426 416.385 10.6293C416.481 10.5013 416.555 10.4266 416.609 10.4053C416.662 10.3733 416.753 10.3573 416.881 10.3573H417.585C417.681 10.3573 417.761 10.384 417.825 10.4373C417.899 10.4906 417.937 10.56 417.937 10.6453C417.937 10.88 417.793 11.1626 417.505 11.4933C417.217 11.824 416.806 12.112 416.273 12.3573C415.75 12.592 415.147 12.7093 414.465 12.7093ZM416.705 7.79732V7.74932C416.705 7.00265 416.502 6.39465 416.097 5.92532C415.691 5.45598 415.147 5.22132 414.465 5.22132C413.771 5.22132 413.227 5.45598 412.833 5.92532C412.438 6.39465 412.241 7.00265 412.241 7.74932V7.79732H416.705ZM420.474 12.5493C420.368 12.5493 420.277 12.5173 420.202 12.4533C420.138 12.3786 420.106 12.288 420.106 12.1813V4.59732C420.106 4.49065 420.138 4.40532 420.202 4.34132C420.277 4.26665 420.368 4.22932 420.474 4.22932H421.162C421.28 4.22932 421.37 4.26132 421.434 4.32532C421.498 4.38932 421.53 4.47998 421.53 4.59732V5.30132C421.85 4.90665 422.218 4.60265 422.634 4.38932C423.061 4.17598 423.589 4.06932 424.218 4.06932C425.242 4.06932 426.037 4.39998 426.602 5.06132C427.168 5.71198 427.45 6.57598 427.45 7.65332V12.1813C427.45 12.288 427.413 12.3786 427.338 12.4533C427.274 12.5173 427.189 12.5493 427.082 12.5493H426.346C426.24 12.5493 426.149 12.5173 426.074 12.4533C426.01 12.3786 425.978 12.288 425.978 12.1813V7.74932C425.978 6.98132 425.792 6.38398 425.418 5.95732C425.045 5.53065 424.512 5.31732 423.818 5.31732C423.136 5.31732 422.592 5.53598 422.186 5.97332C421.781 6.39998 421.578 6.99198 421.578 7.74932V12.1813C421.578 12.288 421.541 12.3786 421.466 12.4533C421.402 12.5173 421.317 12.5493 421.21 12.5493H420.474ZM434.719 15.5893C434.623 15.5893 434.543 15.5573 434.479 15.4933C434.415 15.4293 434.383 15.3546 434.383 15.2693C434.383 15.2373 434.409 15.1413 434.463 14.9813L435.711 12.0533L432.655 4.83732C432.591 4.70932 432.559 4.61865 432.559 4.56532C432.569 4.46932 432.607 4.38932 432.671 4.32532C432.735 4.26132 432.809 4.22932 432.895 4.22932H433.631C433.801 4.22932 433.929 4.31465 434.015 4.48532L436.479 10.3733L439.007 4.48532C439.092 4.31465 439.22 4.22932 439.391 4.22932H440.111C440.196 4.22932 440.271 4.26132 440.335 4.32532C440.399 4.38932 440.431 4.46398 440.431 4.54932C440.431 4.62398 440.404 4.71998 440.351 4.83732L435.823 15.3333C435.769 15.4186 435.711 15.4826 435.647 15.5253C435.593 15.568 435.519 15.5893 435.423 15.5893H434.719ZM445.139 12.7093C443.965 12.7093 443.059 12.3786 442.419 11.7173C441.789 11.056 441.453 10.176 441.411 9.07732L441.395 8.38932L441.411 7.70132C441.453 6.60265 441.795 5.72265 442.435 5.06132C443.085 4.39998 443.987 4.06932 445.139 4.06932C446.291 4.06932 447.187 4.39998 447.827 5.06132C448.477 5.72265 448.824 6.60265 448.867 7.70132C448.888 7.93598 448.899 8.16532 448.899 8.38932C448.899 8.61332 448.888 8.84265 448.867 9.07732C448.824 10.176 448.483 11.056 447.843 11.7173C447.213 12.3786 446.312 12.7093 445.139 12.7093ZM445.139 11.5093C445.821 11.5093 446.36 11.296 446.755 10.8693C447.16 10.432 447.379 9.80798 447.411 8.99732C447.421 8.89065 447.427 8.68798 447.427 8.38932C447.427 8.09065 447.421 7.88798 447.411 7.78132C447.379 6.97065 447.16 6.35198 446.755 5.92532C446.36 5.48798 445.821 5.26932 445.139 5.26932C444.456 5.26932 443.912 5.48798 443.507 5.92532C443.112 6.35198 442.899 6.97065 442.867 7.78132L442.851 8.38932L442.867 8.99732C442.899 9.80798 443.112 10.432 443.507 10.8693C443.912 11.296 444.456 11.5093 445.139 11.5093ZM454.023 12.7093C453.009 12.7093 452.225 12.384 451.671 11.7333C451.116 11.072 450.839 10.1973 450.839 9.10932V4.59732C450.839 4.49065 450.871 4.40532 450.935 4.34132C451.009 4.26665 451.1 4.22932 451.207 4.22932H451.943C452.049 4.22932 452.135 4.26665 452.199 4.34132C452.273 4.40532 452.311 4.49065 452.311 4.59732V9.02932C452.311 10.6506 453.015 11.4613 454.423 11.4613C455.105 11.4613 455.644 11.248 456.039 10.8213C456.444 10.384 456.647 9.78665 456.647 9.02932V4.59732C456.647 4.49065 456.679 4.40532 456.743 4.34132C456.817 4.26665 456.908 4.22932 457.015 4.22932H457.751C457.857 4.22932 457.943 4.26665 458.007 4.34132C458.081 4.40532 458.119 4.49065 458.119 4.59732V12.1813C458.119 12.288 458.081 12.3786 458.007 12.4533C457.943 12.5173 457.857 12.5493 457.751 12.5493H457.063C456.956 12.5493 456.865 12.5173 456.791 12.4533C456.727 12.3786 456.695 12.288 456.695 12.1813V11.4613C456.385 11.8773 456.023 12.192 455.607 12.4053C455.191 12.608 454.663 12.7093 454.023 12.7093ZM464.818 12.5493C464.711 12.5493 464.621 12.5173 464.546 12.4533C464.482 12.3786 464.45 12.288 464.45 12.1813V4.59732C464.45 4.49065 464.482 4.40532 464.546 4.34132C464.621 4.26665 464.711 4.22932 464.818 4.22932H465.49C465.597 4.22932 465.682 4.26665 465.746 4.34132C465.81 4.40532 465.842 4.49065 465.842 4.59732V5.14132C466.418 4.42665 467.197 4.06932 468.178 4.06932C469.351 4.06932 470.183 4.55998 470.674 5.54132C470.93 5.09332 471.293 4.73598 471.762 4.46932C472.242 4.20265 472.775 4.06932 473.362 4.06932C474.237 4.06932 474.951 4.36798 475.506 4.96532C476.061 5.56265 476.338 6.42665 476.338 7.55732V12.1813C476.338 12.288 476.301 12.3786 476.226 12.4533C476.162 12.5173 476.077 12.5493 475.97 12.5493H475.282C475.175 12.5493 475.085 12.5173 475.01 12.4533C474.946 12.3786 474.914 12.288 474.914 12.1813V7.70132C474.914 6.84798 474.738 6.23998 474.386 5.87732C474.034 5.50398 473.57 5.31732 472.994 5.31732C472.482 5.31732 472.039 5.50932 471.666 5.89332C471.303 6.26665 471.122 6.86932 471.122 7.70132V12.1813C471.122 12.288 471.085 12.3786 471.01 12.4533C470.946 12.5173 470.861 12.5493 470.754 12.5493H470.05C469.943 12.5493 469.853 12.5173 469.778 12.4533C469.714 12.3786 469.682 12.288 469.682 12.1813V7.70132C469.682 6.85865 469.495 6.25065 469.122 5.87732C468.759 5.50398 468.306 5.31732 467.762 5.31732C467.25 5.31732 466.807 5.50398 466.434 5.87732C466.071 6.25065 465.89 6.85332 465.89 7.68532V12.1813C465.89 12.288 465.853 12.3786 465.778 12.4533C465.714 12.5173 465.629 12.5493 465.522 12.5493H464.818ZM482.029 12.7093C480.856 12.7093 479.949 12.3786 479.309 11.7173C478.68 11.056 478.344 10.176 478.301 9.07732L478.285 8.38932L478.301 7.70132C478.344 6.60265 478.685 5.72265 479.325 5.06132C479.976 4.39998 480.877 4.06932 482.029 4.06932C483.181 4.06932 484.077 4.39998 484.717 5.06132C485.368 5.72265 485.714 6.60265 485.757 7.70132C485.778 7.93598 485.789 8.16532 485.789 8.38932C485.789 8.61332 485.778 8.84265 485.757 9.07732C485.714 10.176 485.373 11.056 484.733 11.7173C484.104 12.3786 483.202 12.7093 482.029 12.7093ZM482.029 11.5093C482.712 11.5093 483.25 11.296 483.645 10.8693C484.05 10.432 484.269 9.80798 484.301 8.99732C484.312 8.89065 484.317 8.68798 484.317 8.38932C484.317 8.09065 484.312 7.88798 484.301 7.78132C484.269 6.97065 484.05 6.35198 483.645 5.92532C483.25 5.48798 482.712 5.26932 482.029 5.26932C481.346 5.26932 480.802 5.48798 480.397 5.92532C480.002 6.35198 479.789 6.97065 479.757 7.78132L479.741 8.38932L479.757 8.99732C479.789 9.80798 480.002 10.432 480.397 10.8693C480.802 11.296 481.346 11.5093 482.029 11.5093ZM490.409 12.5493C490.131 12.5493 489.934 12.416 489.817 12.1493L486.84 4.72532C486.83 4.69332 486.825 4.63998 486.825 4.56532C486.825 4.46932 486.857 4.38932 486.921 4.32532C486.985 4.26132 487.059 4.22932 487.145 4.22932H487.881C488.051 4.22932 488.179 4.31465 488.265 4.48532L490.729 10.8693L493.193 4.48532C493.214 4.42132 493.257 4.36265 493.321 4.30932C493.395 4.25598 493.481 4.22932 493.577 4.22932H494.312C494.398 4.22932 494.473 4.26132 494.536 4.32532C494.601 4.38932 494.633 4.46932 494.633 4.56532L494.601 4.72532L491.641 12.1493C491.523 12.416 491.326 12.5493 491.049 12.5493H490.409ZM499.34 12.7093C498.252 12.7093 497.382 12.3733 496.732 11.7013C496.081 11.0186 495.724 10.0906 495.66 8.91732L495.644 8.37332L495.66 7.84532C495.724 6.69332 496.081 5.77598 496.732 5.09332C497.382 4.41065 498.252 4.06932 499.34 4.06932C500.513 4.06932 501.42 4.44265 502.06 5.18932C502.71 5.93598 503.036 6.94932 503.036 8.22932V8.51732C503.036 8.62398 502.998 8.71465 502.924 8.78932C502.86 8.85332 502.774 8.88532 502.668 8.88532H497.116V9.02932C497.148 9.72265 497.361 10.3146 497.756 10.8053C498.15 11.296 498.673 11.5413 499.324 11.5413C499.825 11.5413 500.23 11.4453 500.54 11.2533C500.86 11.0506 501.1 10.8426 501.26 10.6293C501.356 10.5013 501.43 10.4266 501.484 10.4053C501.537 10.3733 501.628 10.3573 501.756 10.3573H502.46C502.556 10.3573 502.636 10.384 502.7 10.4373C502.774 10.4906 502.812 10.56 502.812 10.6453C502.812 10.88 502.668 11.1626 502.38 11.4933C502.092 11.824 501.681 12.112 501.148 12.3573C500.625 12.592 500.022 12.7093 499.34 12.7093ZM501.58 7.79732V7.74932C501.58 7.00265 501.377 6.39465 500.972 5.92532C500.566 5.45598 500.022 5.22132 499.34 5.22132C498.646 5.22132 498.102 5.45598 497.708 5.92532C497.313 6.39465 497.116 7.00265 497.116 7.74932V7.79732H501.58ZM217.826 42.5493C217.72 42.5493 217.629 42.5173 217.554 42.4533C217.49 42.3786 217.458 42.288 217.458 42.1813V31.5573C217.458 31.44 217.49 31.3493 217.554 31.2853C217.629 31.2213 217.72 31.1893 217.826 31.1893H218.53C218.637 31.1893 218.722 31.2266 218.786 31.3013C218.861 31.3653 218.898 31.4506 218.898 31.5573V42.1813C218.898 42.288 218.861 42.3786 218.786 42.4533C218.722 42.5173 218.637 42.5493 218.53 42.5493H217.826ZM224.678 42.7093C223.504 42.7093 222.598 42.3786 221.958 41.7173C221.328 41.056 220.992 40.176 220.95 39.0773L220.934 38.3893L220.95 37.7013C220.992 36.6026 221.334 35.7226 221.974 35.0613C222.624 34.4 223.526 34.0693 224.678 34.0693C225.83 34.0693 226.726 34.4 227.366 35.0613C228.016 35.7226 228.363 36.6026 228.406 37.7013C228.427 37.936 228.438 38.1653 228.438 38.3893C228.438 38.6133 228.427 38.8426 228.406 39.0773C228.363 40.176 228.022 41.056 227.382 41.7173C226.752 42.3786 225.851 42.7093 224.678 42.7093ZM224.678 41.5093C225.36 41.5093 225.899 41.296 226.294 40.8693C226.699 40.432 226.918 39.808 226.95 38.9973C226.96 38.8906 226.966 38.688 226.966 38.3893C226.966 38.0906 226.96 37.888 226.95 37.7813C226.918 36.9706 226.699 36.352 226.294 35.9253C225.899 35.488 225.36 35.2693 224.678 35.2693C223.995 35.2693 223.451 35.488 223.046 35.9253C222.651 36.352 222.438 36.9706 222.406 37.7813L222.39 38.3893L222.406 38.9973C222.438 39.808 222.651 40.432 223.046 40.8693C223.451 41.296 223.995 41.5093 224.678 41.5093ZM233.786 42.7093C232.644 42.7093 231.754 42.3893 231.114 41.7493C230.474 41.0986 230.138 40.192 230.106 39.0293L230.09 38.3893L230.106 37.7493C230.138 36.5866 230.474 35.6853 231.114 35.0453C231.754 34.3946 232.644 34.0693 233.786 34.0693C234.554 34.0693 235.199 34.208 235.722 34.4853C236.255 34.752 236.65 35.088 236.906 35.4933C237.172 35.8986 237.316 36.304 237.338 36.7093C237.348 36.8053 237.311 36.8906 237.226 36.9653C237.151 37.04 237.066 37.0773 236.97 37.0773H236.266C236.159 37.0773 236.079 37.056 236.026 37.0133C235.972 36.96 235.919 36.8693 235.866 36.7413C235.674 36.2186 235.407 35.8506 235.066 35.6373C234.735 35.4133 234.314 35.3013 233.802 35.3013C233.13 35.3013 232.596 35.5093 232.202 35.9253C231.807 36.3413 231.594 36.976 231.562 37.8293L231.546 38.3893L231.562 38.9493C231.594 39.8026 231.807 40.4373 232.202 40.8533C232.596 41.2693 233.13 41.4773 233.802 41.4773C234.324 41.4773 234.751 41.3706 235.082 41.1573C235.412 40.9333 235.674 40.56 235.866 40.0373C235.919 39.9093 235.972 39.824 236.026 39.7813C236.079 39.728 236.159 39.7013 236.266 39.7013H236.97C237.066 39.7013 237.151 39.7386 237.226 39.8133C237.311 39.888 237.348 39.9733 237.338 40.0693C237.316 40.464 237.172 40.864 236.906 41.2693C236.65 41.6746 236.255 42.016 235.722 42.2933C235.199 42.5706 234.554 42.7093 233.786 42.7093ZM241.559 42.7093C241.036 42.7093 240.551 42.6026 240.103 42.3893C239.665 42.176 239.313 41.888 239.047 41.5253C238.791 41.152 238.663 40.7413 238.663 40.2933C238.663 39.5893 238.951 39.0133 239.527 38.5653C240.103 38.1173 240.887 37.8186 241.879 37.6693L244.279 37.3333V36.8693C244.279 35.7706 243.644 35.2213 242.375 35.2213C241.884 35.2213 241.489 35.3226 241.191 35.5253C240.892 35.7173 240.673 35.9466 240.535 36.2133C240.492 36.32 240.444 36.3946 240.391 36.4373C240.348 36.4693 240.284 36.4853 240.199 36.4853H239.575C239.479 36.4853 239.393 36.4533 239.319 36.3893C239.255 36.3146 239.223 36.2293 239.223 36.1333C239.223 35.888 239.335 35.6053 239.559 35.2853C239.793 34.9546 240.151 34.672 240.631 34.4373C241.111 34.192 241.697 34.0693 242.391 34.0693C243.585 34.0693 244.439 34.3466 244.951 34.9013C245.473 35.456 245.735 36.1493 245.735 36.9813V42.1813C245.735 42.288 245.697 42.3786 245.623 42.4533C245.559 42.5173 245.473 42.5493 245.367 42.5493H244.663C244.556 42.5493 244.471 42.5173 244.407 42.4533C244.343 42.3786 244.311 42.288 244.311 42.1813V41.4773C244.076 41.8293 243.735 42.1226 243.287 42.3573C242.839 42.592 242.263 42.7093 241.559 42.7093ZM241.879 41.5413C242.583 41.5413 243.159 41.312 243.607 40.8533C244.055 40.3946 244.279 39.728 244.279 38.8533V38.4053L242.407 38.6773C241.639 38.784 241.057 38.9653 240.663 39.2213C240.268 39.4773 240.071 39.7973 240.071 40.1813C240.071 40.6186 240.247 40.9546 240.599 41.1893C240.961 41.424 241.388 41.5413 241.879 41.5413ZM251.173 42.5493C249.52 42.5493 248.693 41.616 248.693 39.7493V35.4613H247.429C247.323 35.4613 247.237 35.4293 247.173 35.3653C247.109 35.3013 247.077 35.216 247.077 35.1093V34.5973C247.077 34.4906 247.109 34.4053 247.173 34.3413C247.237 34.2666 247.323 34.2293 247.429 34.2293H248.693V31.5573C248.693 31.4506 248.725 31.3653 248.789 31.3013C248.853 31.2266 248.939 31.1893 249.045 31.1893H249.749C249.856 31.1893 249.941 31.2266 250.005 31.3013C250.08 31.3653 250.117 31.4506 250.117 31.5573V34.2293H252.101C252.208 34.2293 252.293 34.2666 252.357 34.3413C252.432 34.4053 252.469 34.4906 252.469 34.5973V35.1093C252.469 35.216 252.432 35.3013 252.357 35.3653C252.293 35.4293 252.208 35.4613 252.101 35.4613H250.117V39.6373C250.117 40.1813 250.203 40.592 250.373 40.8693C250.555 41.1466 250.859 41.2853 251.285 41.2853H252.261C252.368 41.2853 252.453 41.3226 252.517 41.3973C252.581 41.4613 252.613 41.5466 252.613 41.6533V42.1813C252.613 42.288 252.581 42.3786 252.517 42.4533C252.453 42.5173 252.368 42.5493 252.261 42.5493H251.173ZM254.417 32.6613C254.31 32.6613 254.219 32.6293 254.145 32.5653C254.081 32.4906 254.049 32.4 254.049 32.2933V31.4613C254.049 31.3546 254.081 31.264 254.145 31.1893C254.219 31.1146 254.31 31.0773 254.417 31.0773H255.361C255.467 31.0773 255.558 31.1146 255.633 31.1893C255.707 31.264 255.745 31.3546 255.745 31.4613V32.2933C255.745 32.4 255.707 32.4906 255.633 32.5653C255.558 32.6293 255.467 32.6613 255.361 32.6613H254.417ZM254.545 42.5493C254.438 42.5493 254.347 42.5173 254.273 42.4533C254.209 42.3786 254.177 42.288 254.177 42.1813V34.5973C254.177 34.4906 254.209 34.4053 254.273 34.3413C254.347 34.2666 254.438 34.2293 254.545 34.2293H255.249C255.355 34.2293 255.441 34.2666 255.505 34.3413C255.579 34.4053 255.617 34.4906 255.617 34.5973V42.1813C255.617 42.288 255.579 42.3786 255.505 42.4533C255.441 42.5173 255.355 42.5493 255.249 42.5493H254.545ZM261.396 42.7093C260.223 42.7093 259.316 42.3786 258.676 41.7173C258.047 41.056 257.711 40.176 257.668 39.0773L257.652 38.3893L257.668 37.7013C257.711 36.6026 258.052 35.7226 258.692 35.0613C259.343 34.4 260.244 34.0693 261.396 34.0693C262.548 34.0693 263.444 34.4 264.084 35.0613C264.735 35.7226 265.082 36.6026 265.124 37.7013C265.146 37.936 265.156 38.1653 265.156 38.3893C265.156 38.6133 265.146 38.8426 265.124 39.0773C265.082 40.176 264.74 41.056 264.1 41.7173C263.471 42.3786 262.57 42.7093 261.396 42.7093ZM261.396 41.5093C262.079 41.5093 262.618 41.296 263.012 40.8693C263.418 40.432 263.636 39.808 263.668 38.9973C263.679 38.8906 263.684 38.688 263.684 38.3893C263.684 38.0906 263.679 37.888 263.668 37.7813C263.636 36.9706 263.418 36.352 263.012 35.9253C262.618 35.488 262.079 35.2693 261.396 35.2693C260.714 35.2693 260.17 35.488 259.764 35.9253C259.37 36.352 259.156 36.9706 259.124 37.7813L259.108 38.3893L259.124 38.9973C259.156 39.808 259.37 40.432 259.764 40.8693C260.17 41.296 260.714 41.5093 261.396 41.5093ZM267.545 42.5493C267.438 42.5493 267.347 42.5173 267.273 42.4533C267.209 42.3786 267.177 42.288 267.177 42.1813V34.5973C267.177 34.4906 267.209 34.4053 267.273 34.3413C267.347 34.2666 267.438 34.2293 267.545 34.2293H268.233C268.35 34.2293 268.441 34.2613 268.505 34.3253C268.569 34.3893 268.601 34.48 268.601 34.5973V35.3013C268.921 34.9066 269.289 34.6026 269.705 34.3893C270.131 34.176 270.659 34.0693 271.289 34.0693C272.313 34.0693 273.107 34.4 273.673 35.0613C274.238 35.712 274.521 36.576 274.521 37.6533V42.1813C274.521 42.288 274.483 42.3786 274.409 42.4533C274.345 42.5173 274.259 42.5493 274.153 42.5493H273.417C273.31 42.5493 273.219 42.5173 273.145 42.4533C273.081 42.3786 273.049 42.288 273.049 42.1813V37.7493C273.049 36.9813 272.862 36.384 272.489 35.9573C272.115 35.5306 271.582 35.3173 270.889 35.3173C270.206 35.3173 269.662 35.536 269.257 35.9733C268.851 36.4 268.649 36.992 268.649 37.7493V42.1813C268.649 42.288 268.611 42.3786 268.537 42.4533C268.473 42.5173 268.387 42.5493 268.281 42.5493H267.545ZM279.681 42.7093C278.945 42.7093 278.321 42.592 277.809 42.3573C277.307 42.112 276.934 41.8346 276.689 41.5253C276.443 41.216 276.321 40.96 276.321 40.7573C276.321 40.6506 276.358 40.5706 276.433 40.5173C276.507 40.4533 276.587 40.4213 276.673 40.4213H277.345C277.409 40.4213 277.457 40.432 277.489 40.4533C277.531 40.4746 277.585 40.5226 277.649 40.5973C277.894 40.896 278.166 41.1306 278.465 41.3013C278.774 41.472 279.185 41.5573 279.697 41.5573C280.273 41.5573 280.731 41.4506 281.073 41.2373C281.425 41.024 281.601 40.7146 281.601 40.3093C281.601 40.0426 281.526 39.8293 281.377 39.6693C281.227 39.5093 280.977 39.3653 280.625 39.2373C280.283 39.1093 279.771 38.9706 279.089 38.8213C278.161 38.6186 277.505 38.3253 277.121 37.9413C276.737 37.5573 276.545 37.0613 276.545 36.4533C276.545 36.0586 276.662 35.68 276.897 35.3173C277.131 34.944 277.478 34.6453 277.937 34.4213C278.406 34.1866 278.961 34.0693 279.601 34.0693C280.273 34.0693 280.843 34.1813 281.313 34.4053C281.793 34.6293 282.15 34.8906 282.385 35.1893C282.63 35.488 282.753 35.7386 282.753 35.9413C282.753 36.0373 282.715 36.1173 282.641 36.1813C282.577 36.2453 282.497 36.2773 282.401 36.2773H281.793C281.643 36.2773 281.537 36.2186 281.473 36.1013C281.291 35.8986 281.137 35.744 281.009 35.6373C280.891 35.52 280.715 35.424 280.481 35.3493C280.246 35.264 279.953 35.2213 279.601 35.2213C279.078 35.2213 278.678 35.3333 278.401 35.5573C278.123 35.7706 277.985 36.0586 277.985 36.4213C277.985 36.6453 278.043 36.8373 278.161 36.9973C278.278 37.1466 278.502 37.2906 278.833 37.4293C279.163 37.5573 279.654 37.6906 280.305 37.8293C281.318 38.0426 282.033 38.3466 282.449 38.7413C282.875 39.136 283.089 39.6426 283.089 40.2613C283.089 40.72 282.955 41.136 282.689 41.5093C282.433 41.8826 282.043 42.176 281.521 42.3893C281.009 42.6026 280.395 42.7093 279.681 42.7093ZM285.214 42.5493C285.107 42.5493 285.016 42.5173 284.942 42.4533C284.878 42.3786 284.846 42.288 284.846 42.1813V41.0773C284.846 40.9706 284.878 40.88 284.942 40.8053C285.016 40.7306 285.107 40.6933 285.214 40.6933H286.318C286.424 40.6933 286.51 40.7306 286.574 40.8053C286.648 40.88 286.686 40.9706 286.686 41.0773V42.1813C286.686 42.288 286.648 42.3786 286.574 42.4533C286.51 42.5173 286.424 42.5493 286.318 42.5493H285.214Z" fill="#4F5665"/>
</svg>
