<svg width="122" height="14" viewBox="0 0 122 14" fill="none" xmlns="http://www.w3.org/2000/svg">
<path d="M5.29893 13.7296C4.21893 13.7296 3.29493 13.5676 2.52693 13.2436C1.75893 12.9196 1.17693 12.4936 0.78093 11.9656C0.38493 11.4376 0.17493 10.8616 0.15093 10.2376C0.15093 10.1416 0.18693 10.0576 0.25893 9.98556C0.33093 9.90156 0.42093 9.85956 0.52893 9.85956H2.16693C2.29893 9.85956 2.40693 9.88956 2.49093 9.94956C2.57493 10.0096 2.65293 10.0936 2.72493 10.2016C2.84493 10.6096 3.11493 10.9516 3.53493 11.2276C3.96693 11.5036 4.55493 11.6416 5.29893 11.6416C6.13893 11.6416 6.76893 11.5036 7.18893 11.2276C7.62093 10.9396 7.83693 10.5496 7.83693 10.0576C7.83693 9.73356 7.72893 9.46356 7.51293 9.24756C7.29693 9.03156 6.96693 8.84556 6.52293 8.68956C6.09093 8.52156 5.44293 8.32356 4.57893 8.09556C3.16293 7.75956 2.12493 7.31556 1.46493 6.76356C0.80493 6.21156 0.47493 5.41956 0.47493 4.38756C0.47493 3.69156 0.66693 3.07356 1.05093 2.53356C1.43493 1.98156 1.98093 1.54956 2.68893 1.23756C3.40893 0.92556 4.24293 0.76956 5.19093 0.76956C6.18693 0.76956 7.04493 0.94356 7.76493 1.29156C8.49693 1.63956 9.04893 2.07756 9.42093 2.60556C9.80493 3.12156 10.0089 3.63756 10.0329 4.15356C10.0329 4.24956 9.99693 4.33956 9.92493 4.42356C9.85293 4.49556 9.76293 4.53156 9.65493 4.53156H7.94493C7.68093 4.53156 7.50093 4.42356 7.40493 4.20756C7.34493 3.82356 7.11093 3.50556 6.70293 3.25356C6.29493 2.98956 5.79093 2.85756 5.19093 2.85756C4.53093 2.85756 4.00893 2.98356 3.62493 3.23556C3.25293 3.48756 3.06693 3.85356 3.06693 4.33356C3.06693 4.65756 3.16293 4.92756 3.35493 5.14356C3.54693 5.35956 3.84693 5.55156 4.25493 5.71956C4.66293 5.87556 5.25693 6.05556 6.03693 6.25956C7.10493 6.49956 7.95093 6.76956 8.57493 7.06956C9.21093 7.36956 9.67893 7.74756 9.97893 8.20356C10.2789 8.65956 10.4289 9.24156 10.4289 9.94956C10.4289 10.7296 10.2129 11.4076 9.78093 11.9836C9.36093 12.5476 8.76093 12.9796 7.98093 13.2796C7.21293 13.5796 6.31893 13.7296 5.29893 13.7296ZM16.5053 13.5496C15.4133 13.5496 14.5913 13.2676 14.0393 12.7036C13.4873 12.1276 13.2113 11.2876 13.2113 10.1836V6.11556H11.7893C11.6693 6.11556 11.5673 6.07356 11.4833 5.98956C11.3993 5.90556 11.3573 5.80356 11.3573 5.68356V4.62156C11.3573 4.50156 11.3993 4.39956 11.4833 4.31556C11.5673 4.23156 11.6693 4.18956 11.7893 4.18956H13.2113V1.20156C13.2113 1.06956 13.2533 0.96756 13.3373 0.89556C13.4213 0.81156 13.5233 0.76956 13.6433 0.76956H15.1373C15.2693 0.76956 15.3713 0.81156 15.4433 0.89556C15.5273 0.96756 15.5693 1.06956 15.5693 1.20156V4.18956H17.8193C17.9393 4.18956 18.0413 4.23156 18.1253 4.31556C18.2093 4.39956 18.2513 4.50156 18.2513 4.62156V5.68356C18.2513 5.80356 18.2093 5.90556 18.1253 5.98956C18.0413 6.07356 17.9393 6.11556 17.8193 6.11556H15.5693V9.98556C15.5693 10.5016 15.6593 10.8916 15.8393 11.1556C16.0193 11.4196 16.3133 11.5516 16.7213 11.5516H17.9813C18.1133 11.5516 18.2153 11.5936 18.2873 11.6776C18.3713 11.7496 18.4133 11.8516 18.4133 11.9836V13.1176C18.4133 13.2376 18.3713 13.3396 18.2873 13.4236C18.2153 13.5076 18.1133 13.5496 17.9813 13.5496H16.5053ZM22.7273 13.7296C22.1153 13.7296 21.5513 13.6096 21.0353 13.3696C20.5313 13.1176 20.1293 12.7816 19.8293 12.3616C19.5413 11.9416 19.3973 11.4796 19.3973 10.9756C19.3973 10.1596 19.7273 9.49956 20.3873 8.99556C21.0473 8.49156 21.9533 8.14956 23.1053 7.96956L25.5713 7.60956V7.23156C25.5713 6.71556 25.4393 6.32556 25.1753 6.06156C24.9113 5.79756 24.4913 5.66556 23.9153 5.66556C23.5193 5.66556 23.2013 5.73756 22.9613 5.88156C22.7213 6.02556 22.5233 6.17556 22.3673 6.33156C22.2233 6.47556 22.1273 6.57156 22.0793 6.61956C22.0313 6.76356 21.9413 6.83556 21.8093 6.83556H20.4053C20.2973 6.83556 20.2013 6.79956 20.1173 6.72756C20.0453 6.65556 20.0093 6.55956 20.0093 6.43956C20.0213 6.13956 20.1653 5.80356 20.4413 5.43156C20.7293 5.04756 21.1673 4.71756 21.7553 4.44156C22.3433 4.15356 23.0693 4.00956 23.9333 4.00956C25.3493 4.00956 26.3813 4.32756 27.0293 4.96356C27.6773 5.59956 28.0013 6.43356 28.0013 7.46556V13.1176C28.0013 13.2376 27.9593 13.3396 27.8753 13.4236C27.8033 13.5076 27.7013 13.5496 27.5693 13.5496H26.0753C25.9553 13.5496 25.8533 13.5076 25.7693 13.4236C25.6853 13.3396 25.6433 13.2376 25.6433 13.1176V12.4156C25.3793 12.7996 25.0073 13.1176 24.5273 13.3696C24.0473 13.6096 23.4473 13.7296 22.7273 13.7296ZM23.3393 12.0016C23.9993 12.0016 24.5393 11.7856 24.9593 11.3536C25.3793 10.9216 25.5893 10.2976 25.5893 9.48156V9.12156L23.7893 9.40956C22.4093 9.62556 21.7193 10.0876 21.7193 10.7956C21.7193 11.1796 21.8753 11.4796 22.1873 11.6956C22.5113 11.8996 22.8953 12.0016 23.3393 12.0016ZM30.7421 13.5496C30.6221 13.5496 30.5201 13.5076 30.4361 13.4236C30.3521 13.3396 30.3101 13.2376 30.3101 13.1176V4.62156C30.3101 4.48956 30.3521 4.38756 30.4361 4.31556C30.5201 4.23156 30.6221 4.18956 30.7421 4.18956H32.2361C32.3681 4.18956 32.4701 4.23156 32.5421 4.31556C32.6261 4.38756 32.6681 4.48956 32.6681 4.62156V5.35956C33.4001 4.45956 34.4021 4.00956 35.6741 4.00956C36.7781 4.00956 37.6541 4.36956 38.3021 5.08956C38.9501 5.80956 39.2741 6.79956 39.2741 8.05956V13.1176C39.2741 13.2376 39.2321 13.3396 39.1481 13.4236C39.0761 13.5076 38.9741 13.5496 38.8421 13.5496H37.2221C37.1021 13.5496 37.0001 13.5076 36.9161 13.4236C36.8321 13.3396 36.7901 13.2376 36.7901 13.1176V8.16756C36.7901 7.47156 36.6161 6.93156 36.2681 6.54756C35.9321 6.15156 35.4461 5.95356 34.8101 5.95356C34.1981 5.95356 33.7061 6.15156 33.3341 6.54756C32.9621 6.94356 32.7761 7.48356 32.7761 8.16756V13.1176C32.7761 13.2376 32.7341 13.3396 32.6501 13.4236C32.5781 13.5076 32.4761 13.5496 32.3441 13.5496H30.7421ZM45.0341 13.7296C43.8221 13.7296 42.8921 13.3456 42.2441 12.5776C41.5961 11.7976 41.2421 10.7596 41.1821 9.46356L41.1641 8.86956L41.1821 8.27556C41.2301 7.00356 41.5781 5.97756 42.2261 5.19756C42.8861 4.40556 43.8221 4.00956 45.0341 4.00956C46.1861 4.00956 47.1041 4.40556 47.7881 5.19756V1.20156C47.7881 1.06956 47.8301 0.96756 47.9141 0.89556C47.9981 0.81156 48.1001 0.76956 48.2201 0.76956H49.7861C49.9181 0.76956 50.0201 0.81156 50.0921 0.89556C50.1761 0.96756 50.2181 1.06956 50.2181 1.20156V13.1176C50.2181 13.2376 50.1761 13.3396 50.0921 13.4236C50.0201 13.5076 49.9181 13.5496 49.7861 13.5496H48.3281C48.2081 13.5496 48.1061 13.5076 48.0221 13.4236C47.9381 13.3396 47.8961 13.2376 47.8961 13.1176V12.4516C47.2361 13.3036 46.2821 13.7296 45.0341 13.7296ZM45.7181 11.7856C46.4021 11.7856 46.9061 11.5696 47.2301 11.1376C47.5661 10.6936 47.7521 10.1476 47.7881 9.49956C47.8001 9.35556 47.8061 9.12756 47.8061 8.81556C47.8061 8.49156 47.8001 8.25756 47.7881 8.11356C47.7641 7.51356 47.5781 7.00356 47.2301 6.58356C46.8821 6.16356 46.3781 5.95356 45.7181 5.95356C44.4341 5.95356 43.7501 6.74556 43.6661 8.32956L43.6481 8.86956L43.6661 9.40956C43.7501 10.9936 44.4341 11.7856 45.7181 11.7856ZM55.3347 13.7296C54.7227 13.7296 54.1587 13.6096 53.6427 13.3696C53.1387 13.1176 52.7367 12.7816 52.4367 12.3616C52.1487 11.9416 52.0047 11.4796 52.0047 10.9756C52.0047 10.1596 52.3347 9.49956 52.9947 8.99556C53.6547 8.49156 54.5607 8.14956 55.7127 7.96956L58.1787 7.60956V7.23156C58.1787 6.71556 58.0467 6.32556 57.7827 6.06156C57.5187 5.79756 57.0987 5.66556 56.5227 5.66556C56.1267 5.66556 55.8087 5.73756 55.5687 5.88156C55.3287 6.02556 55.1307 6.17556 54.9747 6.33156C54.8307 6.47556 54.7347 6.57156 54.6867 6.61956C54.6387 6.76356 54.5487 6.83556 54.4167 6.83556H53.0127C52.9047 6.83556 52.8087 6.79956 52.7247 6.72756C52.6527 6.65556 52.6167 6.55956 52.6167 6.43956C52.6287 6.13956 52.7727 5.80356 53.0487 5.43156C53.3367 5.04756 53.7747 4.71756 54.3627 4.44156C54.9507 4.15356 55.6767 4.00956 56.5407 4.00956C57.9567 4.00956 58.9887 4.32756 59.6367 4.96356C60.2847 5.59956 60.6087 6.43356 60.6087 7.46556V13.1176C60.6087 13.2376 60.5667 13.3396 60.4827 13.4236C60.4107 13.5076 60.3087 13.5496 60.1767 13.5496H58.6827C58.5627 13.5496 58.4607 13.5076 58.3767 13.4236C58.2927 13.3396 58.2507 13.2376 58.2507 13.1176V12.4156C57.9867 12.7996 57.6147 13.1176 57.1347 13.3696C56.6547 13.6096 56.0547 13.7296 55.3347 13.7296ZM55.9467 12.0016C56.6067 12.0016 57.1467 11.7856 57.5667 11.3536C57.9867 10.9216 58.1967 10.2976 58.1967 9.48156V9.12156L56.3967 9.40956C55.0167 9.62556 54.3267 10.0876 54.3267 10.7956C54.3267 11.1796 54.4827 11.4796 54.7947 11.6956C55.1187 11.8996 55.5027 12.0016 55.9467 12.0016ZM63.3495 13.5496C63.2295 13.5496 63.1275 13.5076 63.0435 13.4236C62.9595 13.3396 62.9175 13.2376 62.9175 13.1176V4.63956C62.9175 4.50756 62.9595 4.39956 63.0435 4.31556C63.1275 4.23156 63.2295 4.18956 63.3495 4.18956H64.8255C64.9575 4.18956 65.0655 4.23156 65.1495 4.31556C65.2335 4.39956 65.2755 4.50756 65.2755 4.63956V5.37756C65.8755 4.58556 66.7395 4.18956 67.8675 4.18956H68.6235C68.7555 4.18956 68.8575 4.23156 68.9295 4.31556C69.0135 4.38756 69.0555 4.48956 69.0555 4.62156V5.93556C69.0555 6.05556 69.0135 6.15756 68.9295 6.24156C68.8575 6.32556 68.7555 6.36756 68.6235 6.36756H67.2015C66.6375 6.36756 66.1935 6.52956 65.8695 6.85356C65.5455 7.17756 65.3835 7.62156 65.3835 8.18556V13.1176C65.3835 13.2376 65.3415 13.3396 65.2575 13.4236C65.1735 13.5076 65.0715 13.5496 64.9515 13.5496H63.3495ZM73.7919 13.7296C72.5799 13.7296 71.6499 13.3456 71.0019 12.5776C70.3539 11.7976 69.9999 10.7596 69.9399 9.46356L69.9219 8.86956L69.9399 8.27556C69.9879 7.00356 70.3359 5.97756 70.9839 5.19756C71.6439 4.40556 72.5799 4.00956 73.7919 4.00956C74.9439 4.00956 75.8619 4.40556 76.5459 5.19756V1.20156C76.5459 1.06956 76.5879 0.96756 76.6719 0.89556C76.7559 0.81156 76.8579 0.76956 76.9779 0.76956H78.5439C78.6759 0.76956 78.7779 0.81156 78.8499 0.89556C78.9339 0.96756 78.9759 1.06956 78.9759 1.20156V13.1176C78.9759 13.2376 78.9339 13.3396 78.8499 13.4236C78.7779 13.5076 78.6759 13.5496 78.5439 13.5496H77.0859C76.9659 13.5496 76.8639 13.5076 76.7799 13.4236C76.6959 13.3396 76.6539 13.2376 76.6539 13.1176V12.4516C75.9939 13.3036 75.0399 13.7296 73.7919 13.7296ZM74.4759 11.7856C75.1599 11.7856 75.6639 11.5696 75.9879 11.1376C76.3239 10.6936 76.5099 10.1476 76.5459 9.49956C76.5579 9.35556 76.5639 9.12756 76.5639 8.81556C76.5639 8.49156 76.5579 8.25756 76.5459 8.11356C76.5219 7.51356 76.3359 7.00356 75.9879 6.58356C75.6399 6.16356 75.1359 5.95356 74.4759 5.95356C73.1919 5.95356 72.5079 6.74556 72.4239 8.32956L72.4059 8.86956L72.4239 9.40956C72.5079 10.9936 73.1919 11.7856 74.4759 11.7856ZM86.1182 13.5496C85.9982 13.5496 85.8962 13.5076 85.8122 13.4236C85.7282 13.3396 85.6862 13.2376 85.6862 13.1176V1.39956C85.6862 1.26756 85.7222 1.15956 85.7942 1.07556C85.8782 0.99156 85.9862 0.94956 86.1182 0.94956H90.9422C92.3942 0.94956 93.5342 1.29156 94.3622 1.97556C95.1902 2.65956 95.6042 3.65556 95.6042 4.96356C95.6042 6.25956 95.1902 7.24356 94.3622 7.91556C93.5342 8.57556 92.3942 8.90556 90.9422 8.90556H88.2962V13.1176C88.2962 13.2496 88.2542 13.3576 88.1702 13.4416C88.0862 13.5136 87.9782 13.5496 87.8462 13.5496H86.1182ZM90.8522 6.88956C91.5482 6.88956 92.0762 6.72756 92.4362 6.40356C92.8082 6.06756 92.9942 5.58156 92.9942 4.94556C92.9942 4.32156 92.8142 3.83556 92.4542 3.48756C92.1062 3.13956 91.5722 2.96556 90.8522 2.96556H88.2602V6.88956H90.8522ZM97.803 13.5496C97.683 13.5496 97.581 13.5076 97.497 13.4236C97.413 13.3396 97.371 13.2376 97.371 13.1176V1.20156C97.371 1.06956 97.413 0.96756 97.497 0.89556C97.581 0.81156 97.683 0.76956 97.803 0.76956H99.315C99.447 0.76956 99.549 0.81156 99.621 0.89556C99.705 0.96756 99.747 1.06956 99.747 1.20156V13.1176C99.747 13.2376 99.705 13.3396 99.621 13.4236C99.549 13.5076 99.447 13.5496 99.315 13.5496H97.803ZM104.852 13.7296C104.24 13.7296 103.676 13.6096 103.16 13.3696C102.656 13.1176 102.254 12.7816 101.954 12.3616C101.666 11.9416 101.522 11.4796 101.522 10.9756C101.522 10.1596 101.852 9.49956 102.512 8.99556C103.172 8.49156 104.078 8.14956 105.23 7.96956L107.696 7.60956V7.23156C107.696 6.71556 107.564 6.32556 107.3 6.06156C107.036 5.79756 106.616 5.66556 106.04 5.66556C105.644 5.66556 105.326 5.73756 105.086 5.88156C104.846 6.02556 104.648 6.17556 104.492 6.33156C104.348 6.47556 104.252 6.57156 104.204 6.61956C104.156 6.76356 104.066 6.83556 103.934 6.83556H102.53C102.422 6.83556 102.326 6.79956 102.242 6.72756C102.17 6.65556 102.134 6.55956 102.134 6.43956C102.146 6.13956 102.29 5.80356 102.566 5.43156C102.854 5.04756 103.292 4.71756 103.88 4.44156C104.468 4.15356 105.194 4.00956 106.058 4.00956C107.474 4.00956 108.506 4.32756 109.154 4.96356C109.802 5.59956 110.126 6.43356 110.126 7.46556V13.1176C110.126 13.2376 110.084 13.3396 110 13.4236C109.928 13.5076 109.826 13.5496 109.694 13.5496H108.2C108.08 13.5496 107.978 13.5076 107.894 13.4236C107.81 13.3396 107.768 13.2376 107.768 13.1176V12.4156C107.504 12.7996 107.132 13.1176 106.652 13.3696C106.172 13.6096 105.572 13.7296 104.852 13.7296ZM105.464 12.0016C106.124 12.0016 106.664 11.7856 107.084 11.3536C107.504 10.9216 107.714 10.2976 107.714 9.48156V9.12156L105.914 9.40956C104.534 9.62556 103.844 10.0876 103.844 10.7956C103.844 11.1796 104 11.4796 104.312 11.6956C104.636 11.8996 105.02 12.0016 105.464 12.0016ZM112.867 13.5496C112.747 13.5496 112.645 13.5076 112.561 13.4236C112.477 13.3396 112.435 13.2376 112.435 13.1176V4.62156C112.435 4.48956 112.477 4.38756 112.561 4.31556C112.645 4.23156 112.747 4.18956 112.867 4.18956H114.361C114.493 4.18956 114.595 4.23156 114.667 4.31556C114.751 4.38756 114.793 4.48956 114.793 4.62156V5.35956C115.525 4.45956 116.527 4.00956 117.799 4.00956C118.903 4.00956 119.779 4.36956 120.427 5.08956C121.075 5.80956 121.399 6.79956 121.399 8.05956V13.1176C121.399 13.2376 121.357 13.3396 121.273 13.4236C121.201 13.5076 121.099 13.5496 120.967 13.5496H119.347C119.227 13.5496 119.125 13.5076 119.041 13.4236C118.957 13.3396 118.915 13.2376 118.915 13.1176V8.16756C118.915 7.47156 118.741 6.93156 118.393 6.54756C118.057 6.15156 117.571 5.95356 116.935 5.95356C116.323 5.95356 115.831 6.15156 115.459 6.54756C115.087 6.94356 114.901 7.48356 114.901 8.16756V13.1176C114.901 13.2376 114.859 13.3396 114.775 13.4236C114.703 13.5076 114.601 13.5496 114.469 13.5496H112.867Z" fill="#0B132A"/>
</svg>
