<svg width="122" height="14" viewBox="0 0 122 14" fill="none" xmlns="http://www.w3.org/2000/svg">
<path d="M4.55505 10.6893C3.78972 10.6893 3.12238 10.568 2.55305 10.3253C1.99305 10.0826 1.56372 9.76532 1.26505 9.37332C0.975717 8.97198 0.821716 8.54265 0.80305 8.08532C0.80305 8.01065 0.83105 7.94532 0.88705 7.88932C0.94305 7.83332 1.01305 7.80532 1.09705 7.80532H1.78305C1.95105 7.80532 2.06772 7.89865 2.13305 8.08532C2.21705 8.47732 2.45505 8.81798 2.84705 9.10732C3.24838 9.38732 3.81772 9.52732 4.55505 9.52732C5.34838 9.52732 5.94105 9.38732 6.33305 9.10732C6.72505 8.82732 6.92105 8.43998 6.92105 7.94532C6.92105 7.62798 6.82305 7.36665 6.62705 7.16132C6.44038 6.95598 6.15572 6.77865 5.77305 6.62932C5.39972 6.47065 4.83505 6.27932 4.07905 6.05532C3.36038 5.84998 2.78638 5.63065 2.35705 5.39732C1.93705 5.16398 1.61972 4.87932 1.40505 4.54332C1.19038 4.19798 1.08305 3.76398 1.08305 3.24132C1.08305 2.73732 1.21838 2.28932 1.48905 1.89732C1.75972 1.49598 2.15172 1.18332 2.66505 0.959316C3.17838 0.725982 3.78505 0.609316 4.48505 0.609316C5.21305 0.609316 5.83372 0.739983 6.34705 1.00132C6.86972 1.25332 7.26638 1.57532 7.53705 1.96732C7.80772 2.34998 7.95238 2.73732 7.97105 3.12932C7.97105 3.21332 7.94305 3.28332 7.88705 3.33932C7.83105 3.39532 7.76105 3.42332 7.67705 3.42332H6.97705C6.90238 3.42332 6.83238 3.39998 6.76705 3.35332C6.70172 3.30665 6.65505 3.23665 6.62705 3.14332C6.57105 2.74198 6.34705 2.41065 5.95505 2.14932C5.56305 1.88798 5.07305 1.75732 4.48505 1.75732C3.85038 1.75732 3.34638 1.88332 2.97305 2.13532C2.59972 2.37798 2.41305 2.74198 2.41305 3.22732C2.41305 3.55398 2.49705 3.81998 2.66505 4.02532C2.84238 4.23065 3.10838 4.41265 3.46305 4.57132C3.82705 4.72998 4.35438 4.91198 5.04505 5.11732C5.83838 5.34132 6.45905 5.56532 6.90705 5.78932C7.36438 6.01332 7.70505 6.29332 7.92905 6.62932C8.15305 6.95598 8.26505 7.38065 8.26505 7.90332C8.26505 8.78065 7.92905 9.46665 7.25705 9.96132C6.59438 10.4466 5.69372 10.6893 4.55505 10.6893ZM12.6487 10.6893C11.762 10.6893 11.076 10.4046 10.5907 9.83532C10.1054 9.25665 9.86269 8.49132 9.86269 7.53932V3.59132C9.86269 3.49798 9.89069 3.42332 9.94669 3.36732C10.012 3.30198 10.0914 3.26932 10.1847 3.26932H10.8287C10.922 3.26932 10.9967 3.30198 11.0527 3.36732C11.118 3.42332 11.1507 3.49798 11.1507 3.59132V7.46932C11.1507 8.88798 11.7667 9.59732 12.9987 9.59732C13.596 9.59732 14.0674 9.41065 14.4127 9.03732C14.7674 8.65465 14.9447 8.13198 14.9447 7.46932V3.59132C14.9447 3.49798 14.9727 3.42332 15.0287 3.36732C15.094 3.30198 15.1734 3.26932 15.2667 3.26932H15.9107C16.004 3.26932 16.0787 3.30198 16.1347 3.36732C16.2 3.42332 16.2327 3.49798 16.2327 3.59132V10.2273C16.2327 10.3206 16.2 10.4 16.1347 10.4653C16.0787 10.5213 16.004 10.5493 15.9107 10.5493H15.3087C15.2154 10.5493 15.136 10.5213 15.0707 10.4653C15.0147 10.4 14.9867 10.3206 14.9867 10.2273V9.59732C14.716 9.96132 14.3987 10.2366 14.0347 10.4233C13.6707 10.6006 13.2087 10.6893 12.6487 10.6893ZM18.6632 13.2093C18.5699 13.2093 18.4906 13.1813 18.4252 13.1253C18.3692 13.0693 18.3412 12.99 18.3412 12.8873V3.59132C18.3412 3.48865 18.3692 3.40932 18.4252 3.35332C18.4906 3.29732 18.5699 3.26932 18.6632 3.26932H19.2512C19.3539 3.26932 19.4332 3.29732 19.4892 3.35332C19.5452 3.40932 19.5732 3.48865 19.5732 3.59132V4.20732C20.1146 3.48865 20.8846 3.12932 21.8832 3.12932C22.8632 3.12932 23.5959 3.44198 24.0812 4.06732C24.5759 4.68332 24.8372 5.47198 24.8652 6.43332C24.8746 6.53598 24.8792 6.69465 24.8792 6.90932C24.8792 7.12398 24.8746 7.28265 24.8652 7.38532C24.8372 8.33732 24.5759 9.12598 24.0812 9.75132C23.5959 10.3766 22.8632 10.6893 21.8832 10.6893C20.8846 10.6893 20.1286 10.3346 19.6152 9.62532V12.8873C19.6152 12.9806 19.5826 13.0553 19.5172 13.1113C19.4612 13.1766 19.3866 13.2093 19.2932 13.2093H18.6632ZM21.6172 9.59732C22.2892 9.59732 22.7792 9.38732 23.0872 8.96732C23.3952 8.54732 23.5632 7.99665 23.5912 7.31532C23.6006 7.22198 23.6052 7.08665 23.6052 6.90932C23.6052 5.11732 22.9426 4.22132 21.6172 4.22132C20.9639 4.22132 20.4692 4.44065 20.1332 4.87932C19.8066 5.30865 19.6339 5.81732 19.6152 6.40532C19.6059 6.50798 19.6012 6.68998 19.6012 6.95132C19.6012 7.21265 19.6059 7.39465 19.6152 7.49732C19.6339 8.06665 19.8112 8.56132 20.1472 8.98132C20.4926 9.39198 20.9826 9.59732 21.6172 9.59732ZM29.5237 10.6893C28.5717 10.6893 27.8111 10.3953 27.2417 9.80732C26.6724 9.20998 26.3597 8.39798 26.3037 7.37132L26.2897 6.89532L26.3037 6.43332C26.3597 5.42532 26.6724 4.62265 27.2417 4.02532C27.8111 3.42798 28.5717 3.12932 29.5237 3.12932C30.5504 3.12932 31.3437 3.45598 31.9037 4.10932C32.4731 4.76265 32.7577 5.64932 32.7577 6.76932V7.02132C32.7577 7.11465 32.7251 7.19398 32.6597 7.25932C32.6037 7.31532 32.5291 7.34332 32.4357 7.34332H27.5777V7.46932C27.6057 8.07598 27.7924 8.59398 28.1377 9.02332C28.4831 9.45265 28.9404 9.66732 29.5097 9.66732C29.9484 9.66732 30.3031 9.58332 30.5737 9.41532C30.8537 9.23798 31.0637 9.05598 31.2037 8.86932C31.2877 8.75732 31.3531 8.69198 31.3997 8.67332C31.4464 8.64532 31.5257 8.63132 31.6377 8.63132H32.2537C32.3377 8.63132 32.4077 8.65465 32.4637 8.70132C32.5291 8.74798 32.5617 8.80865 32.5617 8.88332C32.5617 9.08865 32.4357 9.33598 32.1837 9.62532C31.9317 9.91465 31.5724 10.1666 31.1057 10.3813C30.6484 10.5866 30.1211 10.6893 29.5237 10.6893ZM31.4837 6.39132V6.34932C31.4837 5.69598 31.3064 5.16398 30.9517 4.75332C30.5971 4.34265 30.1211 4.13732 29.5237 4.13732C28.9171 4.13732 28.4411 4.34265 28.0957 4.75332C27.7504 5.16398 27.5777 5.69598 27.5777 6.34932V6.39132H31.4837ZM34.782 10.5493C34.6887 10.5493 34.6094 10.5213 34.544 10.4653C34.488 10.4 34.46 10.3206 34.46 10.2273V3.60532C34.46 3.51198 34.488 3.43265 34.544 3.36732C34.6094 3.30198 34.6887 3.26932 34.782 3.26932H35.37C35.4727 3.26932 35.552 3.30198 35.608 3.36732C35.6734 3.42332 35.706 3.50265 35.706 3.60532V4.22132C36.0887 3.58665 36.7374 3.26932 37.652 3.26932H38.198C38.3007 3.26932 38.38 3.29732 38.436 3.35332C38.492 3.40932 38.52 3.48865 38.52 3.59132V4.10932C38.52 4.20265 38.492 4.28198 38.436 4.34732C38.38 4.40332 38.3007 4.43132 38.198 4.43132H37.4C36.8867 4.43132 36.4807 4.58065 36.182 4.87932C35.8927 5.17798 35.748 5.58398 35.748 6.09732V10.2273C35.748 10.3206 35.7154 10.4 35.65 10.4653C35.5847 10.5213 35.5054 10.5493 35.412 10.5493H34.782ZM42.499 10.6893C41.5003 10.6893 40.721 10.4093 40.161 9.84932C39.601 9.27998 39.307 8.48665 39.279 7.46932L39.265 6.90932L39.279 6.34932C39.307 5.33198 39.601 4.54332 40.161 3.98332C40.721 3.41398 41.5003 3.12932 42.499 3.12932C43.171 3.12932 43.7357 3.25065 44.193 3.49332C44.6597 3.72665 45.005 4.02065 45.229 4.37532C45.4623 4.72998 45.5883 5.08465 45.607 5.43932C45.6163 5.52332 45.5837 5.59798 45.509 5.66332C45.4437 5.72865 45.369 5.76132 45.285 5.76132H44.669C44.5757 5.76132 44.5057 5.74265 44.459 5.70532C44.4123 5.65865 44.3657 5.57932 44.319 5.46732C44.151 5.00998 43.9177 4.68798 43.619 4.50132C43.3297 4.30532 42.961 4.20732 42.513 4.20732C41.925 4.20732 41.4583 4.38932 41.113 4.75332C40.7677 5.11732 40.581 5.67265 40.553 6.41932L40.539 6.90932L40.553 7.39932C40.581 8.14598 40.7677 8.70132 41.113 9.06532C41.4583 9.42932 41.925 9.61132 42.513 9.61132C42.9703 9.61132 43.3437 9.51798 43.633 9.33132C43.9223 9.13532 44.151 8.80865 44.319 8.35132C44.3657 8.23932 44.4123 8.16465 44.459 8.12732C44.5057 8.08065 44.5757 8.05732 44.669 8.05732H45.285C45.369 8.05732 45.4437 8.08998 45.509 8.15532C45.5837 8.22065 45.6163 8.29532 45.607 8.37932C45.5883 8.72465 45.4623 9.07465 45.229 9.42932C45.005 9.78398 44.6597 10.0826 44.193 10.3253C43.7357 10.568 43.171 10.6893 42.499 10.6893ZM47.6203 10.5493C47.5269 10.5493 47.4476 10.5213 47.3823 10.4653C47.3263 10.4 47.2983 10.3206 47.2983 10.2273V0.931316C47.2983 0.828649 47.3263 0.749316 47.3823 0.693316C47.4476 0.637316 47.5269 0.609316 47.6203 0.609316H48.2643C48.3669 0.609316 48.4463 0.637316 48.5023 0.693316C48.5583 0.749316 48.5863 0.828649 48.5863 0.931316V4.19332C48.8569 3.84798 49.1743 3.58665 49.5383 3.40932C49.9116 3.22265 50.3689 3.12932 50.9103 3.12932C51.8063 3.12932 52.5016 3.41865 52.9963 3.99732C53.5003 4.56665 53.7523 5.32265 53.7523 6.26532V10.2273C53.7523 10.3206 53.7196 10.4 53.6543 10.4653C53.5983 10.5213 53.5236 10.5493 53.4303 10.5493H52.7723C52.6789 10.5493 52.5996 10.5213 52.5343 10.4653C52.4783 10.4 52.4503 10.3206 52.4503 10.2273V6.34932C52.4503 5.67732 52.2869 5.15465 51.9603 4.78132C51.6336 4.40798 51.1623 4.22132 50.5463 4.22132C49.9489 4.22132 49.4729 4.41265 49.1183 4.79532C48.7636 5.16865 48.5863 5.68665 48.5863 6.34932V10.2273C48.5863 10.3206 48.5536 10.4 48.4883 10.4653C48.4323 10.5213 48.3576 10.5493 48.2643 10.5493H47.6203ZM57.8042 10.6893C57.3468 10.6893 56.9222 10.596 56.5302 10.4093C56.1475 10.2226 55.8395 9.97065 55.6062 9.65332C55.3822 9.32665 55.2702 8.96732 55.2702 8.57532C55.2702 7.95932 55.5222 7.45532 56.0262 7.06332C56.5302 6.67132 57.2162 6.40998 58.0842 6.27932L60.1842 5.98532V5.57932C60.1842 4.61798 59.6288 4.13732 58.5182 4.13732C58.0888 4.13732 57.7435 4.22598 57.4822 4.40332C57.2208 4.57132 57.0295 4.77198 56.9082 5.00532C56.8708 5.09865 56.8288 5.16398 56.7822 5.20132C56.7448 5.22932 56.6888 5.24332 56.6142 5.24332H56.0682C55.9842 5.24332 55.9095 5.21532 55.8442 5.15932C55.7882 5.09398 55.7602 5.01932 55.7602 4.93532C55.7602 4.72065 55.8582 4.47332 56.0542 4.19332C56.2595 3.90398 56.5722 3.65665 56.9922 3.45132C57.4122 3.23665 57.9255 3.12932 58.5322 3.12932C59.5775 3.12932 60.3242 3.37198 60.7722 3.85732C61.2295 4.34265 61.4582 4.94932 61.4582 5.67732V10.2273C61.4582 10.3206 61.4255 10.4 61.3602 10.4653C61.3042 10.5213 61.2295 10.5493 61.1362 10.5493H60.5202C60.4268 10.5493 60.3522 10.5213 60.2962 10.4653C60.2402 10.4 60.2122 10.3206 60.2122 10.2273V9.61132C60.0068 9.91932 59.7082 10.176 59.3162 10.3813C58.9242 10.5866 58.4202 10.6893 57.8042 10.6893ZM58.0842 9.66732C58.7002 9.66732 59.2042 9.46665 59.5962 9.06532C59.9882 8.66398 60.1842 8.08065 60.1842 7.31532V6.92332L58.5462 7.16132C57.8742 7.25465 57.3655 7.41332 57.0202 7.63732C56.6748 7.86132 56.5022 8.14132 56.5022 8.47732C56.5022 8.85998 56.6562 9.15398 56.9642 9.35932C57.2815 9.56465 57.6548 9.66732 58.0842 9.66732ZM63.8074 10.5493C63.7141 10.5493 63.6348 10.5213 63.5694 10.4653C63.5134 10.4 63.4854 10.3206 63.4854 10.2273V3.60532C63.4854 3.51198 63.5134 3.43265 63.5694 3.36732C63.6348 3.30198 63.7141 3.26932 63.8074 3.26932H64.3954C64.4981 3.26932 64.5774 3.30198 64.6334 3.36732C64.6988 3.42332 64.7314 3.50265 64.7314 3.60532V4.22132C65.1141 3.58665 65.7628 3.26932 66.6774 3.26932H67.2234C67.3261 3.26932 67.4054 3.29732 67.4614 3.35332C67.5174 3.40932 67.5454 3.48865 67.5454 3.59132V4.10932C67.5454 4.20265 67.5174 4.28198 67.4614 4.34732C67.4054 4.40332 67.3261 4.43132 67.2234 4.43132H66.4254C65.9121 4.43132 65.5061 4.58065 65.2074 4.87932C64.9181 5.17798 64.7734 5.58398 64.7734 6.09732V10.2273C64.7734 10.3206 64.7408 10.4 64.6754 10.4653C64.6101 10.5213 64.5308 10.5493 64.4374 10.5493H63.8074ZM71.5527 13.6293C70.778 13.6293 70.1574 13.4986 69.6907 13.2373C69.224 12.976 68.8927 12.6773 68.6967 12.3413C68.51 12.0053 68.4167 11.716 68.4167 11.4733C68.4167 11.3893 68.4494 11.3146 68.5147 11.2493C68.58 11.1933 68.6547 11.1653 68.7387 11.1653H69.3547C69.4387 11.1653 69.5087 11.184 69.5647 11.2213C69.6207 11.268 69.6674 11.3473 69.7047 11.4593C69.966 12.206 70.5587 12.5793 71.4827 12.5793C72.1827 12.5793 72.7007 12.43 73.0367 12.1313C73.3727 11.8326 73.5407 11.3053 73.5407 10.5493V9.58332C72.9994 10.274 72.2434 10.6193 71.2727 10.6193C70.2834 10.6193 69.5414 10.302 69.0467 9.66732C68.5614 9.03265 68.3047 8.22998 68.2767 7.25932L68.2627 6.86732L68.2767 6.48932C68.3047 5.52798 68.5614 4.72998 69.0467 4.09532C69.5414 3.45132 70.2834 3.12932 71.2727 3.12932C72.2527 3.12932 73.018 3.48865 73.5687 4.20732V3.60532C73.5687 3.51198 73.5967 3.43265 73.6527 3.36732C73.718 3.30198 73.7974 3.26932 73.8907 3.26932H74.4927C74.586 3.26932 74.6607 3.30198 74.7167 3.36732C74.782 3.43265 74.8147 3.51198 74.8147 3.60532V10.3953C74.8147 12.5513 73.7274 13.6293 71.5527 13.6293ZM71.5247 9.52732C72.178 9.52732 72.668 9.31732 72.9947 8.89732C73.3307 8.46798 73.5127 7.95465 73.5407 7.35732C73.55 7.27332 73.5547 7.10998 73.5547 6.86732C73.5547 6.63398 73.55 6.47532 73.5407 6.39132C73.5127 5.79398 73.3307 5.28532 72.9947 4.86532C72.668 4.43598 72.178 4.22132 71.5247 4.22132C70.8527 4.22132 70.3627 4.43598 70.0547 4.86532C69.756 5.28532 69.5927 5.83132 69.5647 6.50332L69.5507 6.86732L69.5647 7.24532C69.5927 7.91732 69.756 8.46798 70.0547 8.89732C70.3627 9.31732 70.8527 9.52732 71.5247 9.52732ZM79.8089 10.6893C78.8569 10.6893 78.0962 10.3953 77.5269 9.80732C76.9575 9.20998 76.6449 8.39798 76.5889 7.37132L76.5749 6.89532L76.5889 6.43332C76.6449 5.42532 76.9575 4.62265 77.5269 4.02532C78.0962 3.42798 78.8569 3.12932 79.8089 3.12932C80.8355 3.12932 81.6289 3.45598 82.1889 4.10932C82.7582 4.76265 83.0429 5.64932 83.0429 6.76932V7.02132C83.0429 7.11465 83.0102 7.19398 82.9449 7.25932C82.8889 7.31532 82.8142 7.34332 82.7209 7.34332H77.8629V7.46932C77.8909 8.07598 78.0775 8.59398 78.4229 9.02332C78.7682 9.45265 79.2255 9.66732 79.7949 9.66732C80.2335 9.66732 80.5882 9.58332 80.8589 9.41532C81.1389 9.23798 81.3489 9.05598 81.4889 8.86932C81.5729 8.75732 81.6382 8.69198 81.6849 8.67332C81.7315 8.64532 81.8109 8.63132 81.9229 8.63132H82.5389C82.6229 8.63132 82.6929 8.65465 82.7489 8.70132C82.8142 8.74798 82.8469 8.80865 82.8469 8.88332C82.8469 9.08865 82.7209 9.33598 82.4689 9.62532C82.2169 9.91465 81.8575 10.1666 81.3909 10.3813C80.9335 10.5866 80.4062 10.6893 79.8089 10.6893ZM81.7689 6.39132V6.34932C81.7689 5.69598 81.5915 5.16398 81.2369 4.75332C80.8822 4.34265 80.4062 4.13732 79.8089 4.13732C79.2022 4.13732 78.7262 4.34265 78.3809 4.75332C78.0355 5.16398 77.8629 5.69598 77.8629 6.34932V6.39132H81.7689ZM87.4052 10.6893C86.4252 10.6893 85.6879 10.372 85.1932 9.73732C84.7079 9.10265 84.4465 8.29998 84.4092 7.32932L84.3952 6.90932L84.4092 6.48932C84.4465 5.52798 84.7125 4.72998 85.2072 4.09532C85.7019 3.45132 86.4345 3.12932 87.4052 3.12932C88.3759 3.12932 89.1319 3.47465 89.6732 4.16532V0.931316C89.6732 0.837983 89.7012 0.763316 89.7572 0.707316C89.8225 0.641983 89.9019 0.609316 89.9952 0.609316H90.6252C90.7185 0.609316 90.7932 0.641983 90.8492 0.707316C90.9145 0.763316 90.9472 0.837983 90.9472 0.931316V10.2273C90.9472 10.3206 90.9145 10.4 90.8492 10.4653C90.7932 10.5213 90.7185 10.5493 90.6252 10.5493H90.0232C89.9299 10.5493 89.8552 10.5213 89.7992 10.4653C89.7432 10.4 89.7152 10.3206 89.7152 10.2273V9.62532C89.1832 10.3346 88.4132 10.6893 87.4052 10.6893ZM87.6712 9.59732C88.3245 9.59732 88.8145 9.38265 89.1412 8.95332C89.4679 8.51465 89.6452 7.99665 89.6732 7.39932C89.6825 7.29665 89.6872 7.11932 89.6872 6.86732C89.6872 6.60598 89.6825 6.42398 89.6732 6.32132C89.6545 5.75198 89.4725 5.26198 89.1272 4.85132C88.7912 4.43132 88.3059 4.22132 87.6712 4.22132C86.9992 4.22132 86.5092 4.43132 86.2012 4.85132C85.8932 5.27132 85.7252 5.82198 85.6972 6.50332L85.6832 6.90932C85.6832 8.70132 86.3459 9.59732 87.6712 9.59732ZM99.2142 10.5493C98.9715 10.5493 98.8035 10.428 98.7102 10.1853L95.5602 1.18332L95.5322 1.02932C95.5322 0.954649 95.5602 0.889316 95.6162 0.833316C95.6815 0.777316 95.7515 0.749316 95.8262 0.749316H96.4982C96.6009 0.749316 96.6802 0.777316 96.7362 0.833316C96.8015 0.879983 96.8435 0.935983 96.8622 1.00132L99.6342 9.00932L102.42 1.00132C102.439 0.935983 102.476 0.879983 102.532 0.833316C102.598 0.777316 102.682 0.749316 102.784 0.749316H103.456C103.531 0.749316 103.596 0.777316 103.652 0.833316C103.708 0.889316 103.736 0.954649 103.736 1.02932C103.736 1.09465 103.732 1.14598 103.722 1.18332L100.572 10.1853C100.479 10.428 100.311 10.5493 100.068 10.5493H99.2142ZM105.757 10.5493C105.663 10.5493 105.589 10.5213 105.533 10.4653C105.477 10.4 105.449 10.3206 105.449 10.2273V1.08532C105.449 0.982649 105.477 0.903316 105.533 0.847316C105.589 0.781983 105.663 0.749316 105.757 0.749316H109.299C110.353 0.749316 111.179 1.00598 111.777 1.51932C112.383 2.02332 112.687 2.76065 112.687 3.73132C112.687 4.70198 112.383 5.43932 111.777 5.94332C111.179 6.44732 110.353 6.69932 109.299 6.69932H106.779V10.2273C106.779 10.3206 106.746 10.4 106.681 10.4653C106.625 10.5213 106.55 10.5493 106.457 10.5493H105.757ZM109.229 5.56532C110.638 5.56532 111.343 4.95398 111.343 3.73132C111.343 3.13398 111.165 2.67665 110.811 2.35932C110.465 2.04198 109.938 1.88332 109.229 1.88332H106.779V5.56532H109.229ZM114.725 10.5493C114.632 10.5493 114.557 10.5213 114.501 10.4653C114.445 10.4 114.417 10.3206 114.417 10.2273V1.08532C114.417 0.982649 114.445 0.903316 114.501 0.847316C114.557 0.781983 114.632 0.749316 114.725 0.749316H115.341C115.435 0.749316 115.505 0.767982 115.551 0.805316C115.598 0.842649 115.645 0.889316 115.691 0.945316L120.381 8.16932V1.08532C120.381 0.982649 120.409 0.903316 120.465 0.847316C120.531 0.781983 120.61 0.749316 120.703 0.749316H121.333C121.436 0.749316 121.515 0.781983 121.571 0.847316C121.637 0.903316 121.669 0.982649 121.669 1.08532V10.2133C121.669 10.3066 121.637 10.386 121.571 10.4513C121.515 10.5166 121.441 10.5493 121.347 10.5493H120.717C120.559 10.5493 120.447 10.484 120.381 10.3533L115.691 3.19932V10.2273C115.691 10.3206 115.659 10.4 115.593 10.4653C115.537 10.5213 115.463 10.5493 115.369 10.5493H114.725Z" fill="#4F5665"/>
</svg>
