<svg width="92" height="12" viewBox="0 0 92 12" fill="none" xmlns="http://www.w3.org/2000/svg">
<path d="M4.224 11.6162C4.11733 11.6162 4.02667 11.5842 3.952 11.5202C3.888 11.4455 3.856 11.3549 3.856 11.2482V1.79221H0.768C0.661333 1.79221 0.570667 1.76021 0.496 1.69621C0.432 1.62154 0.4 1.53088 0.4 1.42421V0.80021C0.4 0.682877 0.432 0.59221 0.496 0.528211C0.570667 0.453544 0.661333 0.41621 0.768 0.41621H8.448C8.56533 0.41621 8.656 0.453544 8.72 0.528211C8.784 0.59221 8.816 0.682877 8.816 0.80021V1.42421C8.816 1.53088 8.77867 1.62154 8.704 1.69621C8.64 1.76021 8.55467 1.79221 8.448 1.79221H5.376V11.2482C5.376 11.3549 5.33867 11.4455 5.264 11.5202C5.18933 11.5842 5.09867 11.6162 4.992 11.6162H4.224ZM12.1991 11.7762C11.1111 11.7762 10.2418 11.4402 9.59113 10.7682C8.94046 10.0855 8.58313 9.15754 8.51913 7.98421L8.50313 7.44021L8.51913 6.91221C8.58313 5.76021 8.94046 4.84288 9.59113 4.16021C10.2418 3.47754 11.1111 3.13621 12.1991 3.13621C13.3725 3.13621 14.2791 3.50954 14.9191 4.25621C15.5698 5.00288 15.8951 6.01621 15.8951 7.29621V7.58421C15.8951 7.69088 15.8578 7.78154 15.7831 7.85621C15.7191 7.92021 15.6338 7.95221 15.5271 7.95221H9.97513V8.09621C10.0071 8.78954 10.2205 9.38154 10.6151 9.87221C11.0098 10.3629 11.5325 10.6082 12.1831 10.6082C12.6845 10.6082 13.0898 10.5122 13.3991 10.3202C13.7191 10.1175 13.9591 9.90954 14.1191 9.69621C14.2151 9.56821 14.2898 9.49354 14.3431 9.47221C14.3965 9.44021 14.4871 9.42421 14.6151 9.42421H15.3191C15.4151 9.42421 15.4951 9.45088 15.5591 9.50421C15.6338 9.55754 15.6711 9.62688 15.6711 9.71221C15.6711 9.94688 15.5271 10.2295 15.2391 10.5602C14.9511 10.8909 14.5405 11.1789 14.0071 11.4242C13.4845 11.6589 12.8818 11.7762 12.1991 11.7762ZM14.4391 6.86421V6.81621C14.4391 6.06954 14.2365 5.46154 13.8311 4.99221C13.4258 4.52288 12.8818 4.28821 12.1991 4.28821C11.5058 4.28821 10.9618 4.52288 10.5671 4.99221C10.1725 5.46154 9.97513 6.06954 9.97513 6.81621V6.86421H14.4391ZM20.6886 11.7762C19.9526 11.7762 19.3286 11.6589 18.8166 11.4242C18.3153 11.1789 17.942 10.9015 17.6966 10.5922C17.4513 10.2829 17.3286 10.0269 17.3286 9.82421C17.3286 9.71754 17.366 9.63754 17.4406 9.58421C17.5153 9.52021 17.5953 9.48821 17.6806 9.48821H18.3526C18.4166 9.48821 18.4646 9.49888 18.4966 9.52021C18.5393 9.54154 18.5926 9.58954 18.6566 9.66421C18.902 9.96288 19.174 10.1975 19.4726 10.3682C19.782 10.5389 20.1926 10.6242 20.7046 10.6242C21.2806 10.6242 21.7393 10.5175 22.0806 10.3042C22.4326 10.0909 22.6086 9.78154 22.6086 9.37621C22.6086 9.10954 22.534 8.89621 22.3846 8.73621C22.2353 8.57621 21.9846 8.43221 21.6326 8.30421C21.2913 8.17621 20.7793 8.03754 20.0966 7.88821C19.1686 7.68554 18.5126 7.39221 18.1286 7.00821C17.7446 6.62421 17.5526 6.12821 17.5526 5.52021C17.5526 5.12554 17.67 4.74688 17.9046 4.38421C18.1393 4.01088 18.486 3.71221 18.9446 3.48821C19.414 3.25354 19.9686 3.13621 20.6086 3.13621C21.2806 3.13621 21.8513 3.24821 22.3206 3.47221C22.8006 3.69621 23.158 3.95754 23.3926 4.25621C23.638 4.55488 23.7606 4.80554 23.7606 5.00821C23.7606 5.10421 23.7233 5.18421 23.6486 5.24821C23.5846 5.31221 23.5046 5.34421 23.4086 5.34421H22.8006C22.6513 5.34421 22.5446 5.28554 22.4806 5.16821C22.2993 4.96554 22.1446 4.81088 22.0166 4.70421C21.8993 4.58688 21.7233 4.49088 21.4886 4.41621C21.254 4.33088 20.9606 4.28821 20.6086 4.28821C20.086 4.28821 19.686 4.40021 19.4086 4.62421C19.1313 4.83754 18.9926 5.12554 18.9926 5.48821C18.9926 5.71221 19.0513 5.90421 19.1686 6.06421C19.286 6.21354 19.51 6.35754 19.8406 6.49621C20.1713 6.62421 20.662 6.75754 21.3126 6.89621C22.326 7.10954 23.0406 7.41354 23.4566 7.80821C23.8833 8.20288 24.0966 8.70954 24.0966 9.32821C24.0966 9.78688 23.9633 10.2029 23.6966 10.5762C23.4406 10.9495 23.0513 11.2429 22.5286 11.4562C22.0166 11.6695 21.4033 11.7762 20.6886 11.7762ZM29.15 11.6162C27.4967 11.6162 26.67 10.6829 26.67 8.81621V4.52821H25.406C25.2993 4.52821 25.214 4.49621 25.15 4.43221C25.086 4.36821 25.054 4.28288 25.054 4.17621V3.66421C25.054 3.55754 25.086 3.47221 25.15 3.40821C25.214 3.33354 25.2993 3.29621 25.406 3.29621H26.67V0.62421C26.67 0.517544 26.702 0.432211 26.766 0.368211C26.83 0.293544 26.9153 0.25621 27.022 0.25621H27.726C27.8327 0.25621 27.918 0.293544 27.982 0.368211C28.0567 0.432211 28.094 0.517544 28.094 0.62421V3.29621H30.078C30.1847 3.29621 30.27 3.33354 30.334 3.40821C30.4087 3.47221 30.446 3.55754 30.446 3.66421V4.17621C30.446 4.28288 30.4087 4.36821 30.334 4.43221C30.27 4.49621 30.1847 4.52821 30.078 4.52821H28.094V8.70421C28.094 9.24821 28.1793 9.65888 28.35 9.93621C28.5313 10.2135 28.8353 10.3522 29.262 10.3522H30.238C30.3447 10.3522 30.43 10.3895 30.494 10.4642C30.558 10.5282 30.59 10.6135 30.59 10.7202V11.2482C30.59 11.3549 30.558 11.4455 30.494 11.5202C30.43 11.5842 30.3447 11.6162 30.238 11.6162H29.15ZM32.3931 1.72821C32.2865 1.72821 32.1958 1.69621 32.1211 1.63221C32.0571 1.55754 32.0251 1.46688 32.0251 1.36021V0.528211C32.0251 0.421544 32.0571 0.330877 32.1211 0.25621C32.1958 0.181544 32.2865 0.144211 32.3931 0.144211H33.3371C33.4438 0.144211 33.5345 0.181544 33.6091 0.25621C33.6838 0.330877 33.7211 0.421544 33.7211 0.528211V1.36021C33.7211 1.46688 33.6838 1.55754 33.6091 1.63221C33.5345 1.69621 33.4438 1.72821 33.3371 1.72821H32.3931ZM32.5211 11.6162C32.4145 11.6162 32.3238 11.5842 32.2491 11.5202C32.1851 11.4455 32.1531 11.3549 32.1531 11.2482V3.66421C32.1531 3.55754 32.1851 3.47221 32.2491 3.40821C32.3238 3.33354 32.4145 3.29621 32.5211 3.29621H33.2251C33.3318 3.29621 33.4171 3.33354 33.4811 3.40821C33.5558 3.47221 33.5931 3.55754 33.5931 3.66421V11.2482C33.5931 11.3549 33.5558 11.4455 33.4811 11.5202C33.4171 11.5842 33.3318 11.6162 33.2251 11.6162H32.5211ZM36.3649 11.6162C36.2582 11.6162 36.1675 11.5842 36.0929 11.5202C36.0289 11.4455 35.9969 11.3549 35.9969 11.2482V3.66421C35.9969 3.55754 36.0289 3.47221 36.0929 3.40821C36.1675 3.33354 36.2582 3.29621 36.3649 3.29621H37.0369C37.1435 3.29621 37.2289 3.33354 37.2929 3.40821C37.3569 3.47221 37.3889 3.55754 37.3889 3.66421V4.20821C37.9649 3.49354 38.7435 3.13621 39.7249 3.13621C40.8982 3.13621 41.7302 3.62688 42.2209 4.60821C42.4769 4.16021 42.8395 3.80288 43.3089 3.53621C43.7889 3.26954 44.3222 3.13621 44.9089 3.13621C45.7835 3.13621 46.4982 3.43488 47.0529 4.03221C47.6075 4.62954 47.8849 5.49354 47.8849 6.62421V11.2482C47.8849 11.3549 47.8475 11.4455 47.7729 11.5202C47.7089 11.5842 47.6235 11.6162 47.5169 11.6162H46.8289C46.7222 11.6162 46.6315 11.5842 46.5569 11.5202C46.4929 11.4455 46.4609 11.3549 46.4609 11.2482V6.76821C46.4609 5.91488 46.2849 5.30688 45.9329 4.94421C45.5809 4.57088 45.1169 4.38421 44.5409 4.38421C44.0289 4.38421 43.5862 4.57621 43.2129 4.96021C42.8502 5.33354 42.6689 5.93621 42.6689 6.76821V11.2482C42.6689 11.3549 42.6315 11.4455 42.5569 11.5202C42.4929 11.5842 42.4075 11.6162 42.3009 11.6162H41.5969C41.4902 11.6162 41.3995 11.5842 41.3249 11.5202C41.2609 11.4455 41.2289 11.3549 41.2289 11.2482V6.76821C41.2289 5.92554 41.0422 5.31754 40.6689 4.94421C40.3062 4.57088 39.8529 4.38421 39.3089 4.38421C38.7969 4.38421 38.3542 4.57088 37.9809 4.94421C37.6182 5.31754 37.4369 5.92021 37.4369 6.75221V11.2482C37.4369 11.3549 37.3995 11.4455 37.3249 11.5202C37.2609 11.5842 37.1755 11.6162 37.0689 11.6162H36.3649ZM53.576 11.7762C52.4027 11.7762 51.496 11.4455 50.856 10.7842C50.2267 10.1229 49.8907 9.24288 49.848 8.14421L49.832 7.45621L49.848 6.76821C49.8907 5.66954 50.232 4.78954 50.872 4.12821C51.5227 3.46688 52.424 3.13621 53.576 3.13621C54.728 3.13621 55.624 3.46688 56.264 4.12821C56.9147 4.78954 57.2613 5.66954 57.304 6.76821C57.3253 7.00288 57.336 7.23221 57.336 7.45621C57.336 7.68021 57.3253 7.90954 57.304 8.14421C57.2613 9.24288 56.92 10.1229 56.28 10.7842C55.6507 11.4455 54.7493 11.7762 53.576 11.7762ZM53.576 10.5762C54.2587 10.5762 54.7973 10.3629 55.192 9.93621C55.5973 9.49888 55.816 8.87488 55.848 8.06421C55.8587 7.95754 55.864 7.75488 55.864 7.45621C55.864 7.15754 55.8587 6.95488 55.848 6.84821C55.816 6.03754 55.5973 5.41888 55.192 4.99221C54.7973 4.55488 54.2587 4.33621 53.576 4.33621C52.8933 4.33621 52.3493 4.55488 51.944 4.99221C51.5493 5.41888 51.336 6.03754 51.304 6.84821L51.288 7.45621L51.304 8.06421C51.336 8.87488 51.5493 9.49888 51.944 9.93621C52.3493 10.3629 52.8933 10.5762 53.576 10.5762ZM59.7243 11.6162C59.6176 11.6162 59.5269 11.5842 59.4523 11.5202C59.3883 11.4455 59.3563 11.3549 59.3563 11.2482V3.66421C59.3563 3.55754 59.3883 3.47221 59.4523 3.40821C59.5269 3.33354 59.6176 3.29621 59.7243 3.29621H60.4123C60.5296 3.29621 60.6203 3.32821 60.6843 3.39221C60.7483 3.45621 60.7803 3.54688 60.7803 3.66421V4.36821C61.1003 3.97354 61.4683 3.66954 61.8843 3.45621C62.3109 3.24288 62.8389 3.13621 63.4683 3.13621C64.4923 3.13621 65.2869 3.46688 65.8523 4.12821C66.4176 4.77888 66.7003 5.64288 66.7003 6.72021V11.2482C66.7003 11.3549 66.6629 11.4455 66.5883 11.5202C66.5243 11.5842 66.4389 11.6162 66.3323 11.6162H65.5963C65.4896 11.6162 65.3989 11.5842 65.3243 11.5202C65.2603 11.4455 65.2283 11.3549 65.2283 11.2482V6.81621C65.2283 6.04821 65.0416 5.45088 64.6683 5.02421C64.2949 4.59754 63.7616 4.38421 63.0683 4.38421C62.3856 4.38421 61.8416 4.60288 61.4363 5.04021C61.0309 5.46688 60.8283 6.05888 60.8283 6.81621V11.2482C60.8283 11.3549 60.7909 11.4455 60.7163 11.5202C60.6523 11.5842 60.5669 11.6162 60.4603 11.6162H59.7243ZM69.2525 1.72821C69.1458 1.72821 69.0552 1.69621 68.9805 1.63221C68.9165 1.55754 68.8845 1.46688 68.8845 1.36021V0.528211C68.8845 0.421544 68.9165 0.330877 68.9805 0.25621C69.0552 0.181544 69.1458 0.144211 69.2525 0.144211H70.1965C70.3032 0.144211 70.3938 0.181544 70.4685 0.25621C70.5432 0.330877 70.5805 0.421544 70.5805 0.528211V1.36021C70.5805 1.46688 70.5432 1.55754 70.4685 1.63221C70.3938 1.69621 70.3032 1.72821 70.1965 1.72821H69.2525ZM69.3805 11.6162C69.2738 11.6162 69.1832 11.5842 69.1085 11.5202C69.0445 11.4455 69.0125 11.3549 69.0125 11.2482V3.66421C69.0125 3.55754 69.0445 3.47221 69.1085 3.40821C69.1832 3.33354 69.2738 3.29621 69.3805 3.29621H70.0845C70.1912 3.29621 70.2765 3.33354 70.3405 3.40821C70.4152 3.47221 70.4525 3.55754 70.4525 3.66421V11.2482C70.4525 11.3549 70.4152 11.4455 70.3405 11.5202C70.2765 11.5842 70.1912 11.6162 70.0845 11.6162H69.3805ZM75.1603 11.7762C74.6376 11.7762 74.1523 11.6695 73.7043 11.4562C73.2669 11.2429 72.9149 10.9549 72.6483 10.5922C72.3923 10.2189 72.2643 9.80821 72.2643 9.36021C72.2643 8.65621 72.5523 8.08021 73.1283 7.63221C73.7043 7.18421 74.4883 6.88554 75.4803 6.73621L77.8803 6.40021V5.93621C77.8803 4.83754 77.2456 4.28821 75.9763 4.28821C75.4856 4.28821 75.0909 4.38954 74.7923 4.59221C74.4936 4.78421 74.2749 5.01354 74.1363 5.28021C74.0936 5.38688 74.0456 5.46154 73.9923 5.50421C73.9496 5.53621 73.8856 5.55221 73.8003 5.55221H73.1763C73.0803 5.55221 72.9949 5.52021 72.9203 5.45621C72.8563 5.38154 72.8243 5.29621 72.8243 5.20021C72.8243 4.95488 72.9363 4.67221 73.1603 4.35221C73.3949 4.02154 73.7523 3.73888 74.2323 3.50421C74.7123 3.25888 75.2989 3.13621 75.9923 3.13621C77.1869 3.13621 78.0403 3.41354 78.5523 3.96821C79.0749 4.52288 79.3363 5.21621 79.3363 6.04821V11.2482C79.3363 11.3549 79.2989 11.4455 79.2243 11.5202C79.1603 11.5842 79.0749 11.6162 78.9683 11.6162H78.2643C78.1576 11.6162 78.0723 11.5842 78.0083 11.5202C77.9443 11.4455 77.9123 11.3549 77.9123 11.2482V10.5442C77.6776 10.8962 77.3363 11.1895 76.8883 11.4242C76.4403 11.6589 75.8643 11.7762 75.1603 11.7762ZM75.4803 10.6082C76.1843 10.6082 76.7603 10.3789 77.2083 9.92021C77.6563 9.46154 77.8803 8.79488 77.8803 7.92021V7.47221L76.0083 7.74421C75.2403 7.85088 74.6589 8.03221 74.2643 8.28821C73.8696 8.54421 73.6723 8.86421 73.6723 9.24821C73.6723 9.68554 73.8483 10.0215 74.2003 10.2562C74.5629 10.4909 74.9896 10.6082 75.4803 10.6082ZM82.0371 11.6162C81.9305 11.6162 81.8398 11.5842 81.7651 11.5202C81.7011 11.4455 81.6691 11.3549 81.6691 11.2482V0.62421C81.6691 0.506877 81.7011 0.41621 81.7651 0.35221C81.8398 0.28821 81.9305 0.25621 82.0371 0.25621H82.7411C82.8478 0.25621 82.9331 0.293544 82.9971 0.368211C83.0718 0.432211 83.1091 0.517544 83.1091 0.62421V11.2482C83.1091 11.3549 83.0718 11.4455 82.9971 11.5202C82.9331 11.5842 82.8478 11.6162 82.7411 11.6162H82.0371ZM88.3605 11.7762C87.6245 11.7762 87.0005 11.6589 86.4885 11.4242C85.9872 11.1789 85.6138 10.9015 85.3685 10.5922C85.1232 10.2829 85.0005 10.0269 85.0005 9.82421C85.0005 9.71754 85.0378 9.63754 85.1125 9.58421C85.1872 9.52021 85.2672 9.48821 85.3525 9.48821H86.0245C86.0885 9.48821 86.1365 9.49888 86.1685 9.52021C86.2112 9.54154 86.2645 9.58954 86.3285 9.66421C86.5738 9.96288 86.8458 10.1975 87.1445 10.3682C87.4538 10.5389 87.8645 10.6242 88.3765 10.6242C88.9525 10.6242 89.4112 10.5175 89.7525 10.3042C90.1045 10.0909 90.2805 9.78154 90.2805 9.37621C90.2805 9.10954 90.2058 8.89621 90.0565 8.73621C89.9072 8.57621 89.6565 8.43221 89.3045 8.30421C88.9632 8.17621 88.4512 8.03754 87.7685 7.88821C86.8405 7.68554 86.1845 7.39221 85.8005 7.00821C85.4165 6.62421 85.2245 6.12821 85.2245 5.52021C85.2245 5.12554 85.3418 4.74688 85.5765 4.38421C85.8112 4.01088 86.1578 3.71221 86.6165 3.48821C87.0858 3.25354 87.6405 3.13621 88.2805 3.13621C88.9525 3.13621 89.5232 3.24821 89.9925 3.47221C90.4725 3.69621 90.8298 3.95754 91.0645 4.25621C91.3098 4.55488 91.4325 4.80554 91.4325 5.00821C91.4325 5.10421 91.3952 5.18421 91.3205 5.24821C91.2565 5.31221 91.1765 5.34421 91.0805 5.34421H90.4725C90.3232 5.34421 90.2165 5.28554 90.1525 5.16821C89.9712 4.96554 89.8165 4.81088 89.6885 4.70421C89.5712 4.58688 89.3952 4.49088 89.1605 4.41621C88.9258 4.33088 88.6325 4.28821 88.2805 4.28821C87.7578 4.28821 87.3578 4.40021 87.0805 4.62421C86.8032 4.83754 86.6645 5.12554 86.6645 5.48821C86.6645 5.71221 86.7232 5.90421 86.8405 6.06421C86.9578 6.21354 87.1818 6.35754 87.5125 6.49621C87.8432 6.62421 88.3338 6.75754 88.9845 6.89621C89.9978 7.10954 90.7125 7.41354 91.1285 7.80821C91.5552 8.20288 91.7685 8.70954 91.7685 9.32821C91.7685 9.78688 91.6352 10.2029 91.3685 10.5762C91.1125 10.9495 90.7232 11.2429 90.2005 11.4562C89.6885 11.6695 89.0752 11.7762 88.3605 11.7762Z" fill="#4F5665"/>
</svg>
