<svg width="510" height="117" viewBox="0 0 510 117" fill="none" xmlns="http://www.w3.org/2000/svg">
<path d="M8.65 36.7661C8.15 36.7661 7.75 36.6328 7.45 36.3661C7.15 36.0994 6.96667 35.7328 6.9 35.2661L0.95 3.21611L0.9 2.81611C0.9 2.51611 1 2.26611 1.2 2.06611C1.43333 1.86611 1.68333 1.76611 1.95 1.76611H6.35C7.18333 1.76611 7.65 2.09944 7.75 2.76611L11.9 25.4161L16.4 10.7661C16.7333 9.93278 17.2833 9.51611 18.05 9.51611H20.75C21.5833 9.51611 22.1167 9.93278 22.35 10.7661L26.9 25.3661L31.05 2.76611C31.1167 2.39945 31.25 2.14944 31.45 2.01611C31.6833 1.84944 32.0167 1.76611 32.45 1.76611H36.85C37.1167 1.76611 37.35 1.86611 37.55 2.06611C37.75 2.26611 37.85 2.51611 37.85 2.81611C37.85 2.98278 37.8333 3.11611 37.8 3.21611L31.85 35.2661C31.6833 36.2661 31.1 36.7661 30.1 36.7661H26.75C26.2833 36.7661 25.9 36.6494 25.6 36.4161C25.3 36.1828 25.1 35.8828 25 35.5161L19.4 18.8161L13.8 35.5161C13.4667 36.3494 12.8667 36.7661 12 36.7661H8.65ZM49.5961 37.2661C47.8961 37.2661 46.3294 36.9328 44.8961 36.2661C43.4961 35.5661 42.3794 34.6328 41.5461 33.4661C40.7461 32.2994 40.3461 31.0161 40.3461 29.6161C40.3461 27.3494 41.2628 25.5161 43.0961 24.1161C44.9294 22.7161 47.4461 21.7661 50.6461 21.2661L57.4961 20.2661V19.2161C57.4961 17.7494 57.1294 16.6494 56.3961 15.9161C55.6628 15.1828 54.4794 14.8161 52.8461 14.8161C51.7461 14.8161 50.8461 15.0328 50.1461 15.4661C49.4794 15.8661 48.9461 16.2661 48.5461 16.6661C48.1461 17.0994 47.8794 17.3828 47.7461 17.5161C47.6128 17.9161 47.3628 18.1161 46.9961 18.1161H43.1461C42.8461 18.1161 42.5794 18.0161 42.3461 17.8161C42.1461 17.6161 42.0461 17.3494 42.0461 17.0161C42.0794 16.1828 42.4794 15.2328 43.2461 14.1661C44.0461 13.0994 45.2628 12.1828 46.8961 11.4161C48.5294 10.6494 50.5294 10.2661 52.8961 10.2661C56.8294 10.2661 59.6961 11.1494 61.4961 12.9161C63.2961 14.6828 64.1961 16.9994 64.1961 19.8661V35.5661C64.1961 35.8994 64.0794 36.1828 63.8461 36.4161C63.6461 36.6494 63.3628 36.7661 62.9961 36.7661H58.9461C58.6128 36.7661 58.3294 36.6494 58.0961 36.4161C57.8628 36.1828 57.7461 35.8994 57.7461 35.5661V33.6161C57.0128 34.6828 55.9628 35.5661 54.5961 36.2661C53.2628 36.9328 51.5961 37.2661 49.5961 37.2661ZM51.2961 32.5161C53.1294 32.5161 54.6294 31.9161 55.7961 30.7161C56.9628 29.5161 57.5461 27.7661 57.5461 25.4661V24.4161L52.5461 25.2161C50.6128 25.5161 49.1461 25.9994 48.1461 26.6661C47.1794 27.3328 46.6961 28.1494 46.6961 29.1161C46.6961 30.1828 47.1461 31.0161 48.0461 31.6161C48.9461 32.2161 50.0294 32.5161 51.2961 32.5161ZM71.8105 36.7661C71.4772 36.7661 71.1939 36.6494 70.9605 36.4161C70.7272 36.1828 70.6105 35.8994 70.6105 35.5661V11.9661C70.6105 11.6328 70.7272 11.3494 70.9605 11.1161C71.1939 10.8828 71.4772 10.7661 71.8105 10.7661H75.9105C76.2439 10.7661 76.5272 10.8828 76.7605 11.1161C76.9939 11.3494 77.1105 11.6328 77.1105 11.9661V14.0161C79.0772 11.5161 81.8605 10.2661 85.4605 10.2661C88.5272 10.2661 90.9605 11.2828 92.7605 13.3161C94.5605 15.3161 95.4605 18.0494 95.4605 21.5161V35.5661C95.4605 35.8994 95.3439 36.1828 95.1105 36.4161C94.9105 36.6494 94.6272 36.7661 94.2605 36.7661H89.8605C89.5272 36.7661 89.2439 36.6494 89.0105 36.4161C88.7772 36.1828 88.6605 35.8994 88.6605 35.5661V21.8161C88.6605 19.8494 88.1772 18.3328 87.2105 17.2661C86.2772 16.1661 84.9105 15.6161 83.1105 15.6161C81.3439 15.6161 79.9439 16.1661 78.9105 17.2661C77.9105 18.3661 77.4105 19.8828 77.4105 21.8161V35.5661C77.4105 35.8994 77.2939 36.1828 77.0605 36.4161C76.8605 36.6494 76.5772 36.7661 76.2105 36.7661H71.8105ZM113.269 36.7661C110.235 36.7661 107.952 35.9828 106.419 34.4161C104.919 32.8161 104.169 30.4828 104.169 27.4161V16.0661H100.219C99.8854 16.0661 99.6021 15.9494 99.3688 15.7161C99.1354 15.4494 99.0188 15.1494 99.0188 14.8161V11.9661C99.0188 11.6328 99.1354 11.3494 99.3688 11.1161C99.6021 10.8828 99.8854 10.7661 100.219 10.7661H104.169V2.46611C104.169 2.09944 104.285 1.81611 104.519 1.61611C104.752 1.38278 105.035 1.26611 105.369 1.26611H109.419C109.785 1.26611 110.069 1.38278 110.269 1.61611C110.502 1.81611 110.619 2.09944 110.619 2.46611V10.7661H116.869C117.235 10.7661 117.519 10.8828 117.719 11.1161C117.952 11.3161 118.069 11.5994 118.069 11.9661V14.8161C118.069 15.1828 117.952 15.4828 117.719 15.7161C117.485 15.9494 117.202 16.0661 116.869 16.0661H110.619V26.9161C110.619 28.3494 110.869 29.4328 111.369 30.1661C111.869 30.8994 112.702 31.2661 113.869 31.2661H117.319C117.652 31.2661 117.935 31.3828 118.169 31.6161C118.402 31.8494 118.519 32.1328 118.519 32.4661V35.5661C118.519 35.8994 118.402 36.1828 118.169 36.4161C117.969 36.6494 117.685 36.7661 117.319 36.7661H113.269ZM141.93 37.2661C140.23 37.2661 138.663 36.9328 137.23 36.2661C135.83 35.5661 134.713 34.6328 133.88 33.4661C133.08 32.2994 132.68 31.0161 132.68 29.6161C132.68 27.3494 133.597 25.5161 135.43 24.1161C137.263 22.7161 139.78 21.7661 142.98 21.2661L149.83 20.2661V19.2161C149.83 17.7494 149.463 16.6494 148.73 15.9161C147.997 15.1828 146.813 14.8161 145.18 14.8161C144.08 14.8161 143.18 15.0328 142.48 15.4661C141.813 15.8661 141.28 16.2661 140.88 16.6661C140.48 17.0994 140.213 17.3828 140.08 17.5161C139.947 17.9161 139.697 18.1161 139.33 18.1161H135.48C135.18 18.1161 134.913 18.0161 134.68 17.8161C134.48 17.6161 134.38 17.3494 134.38 17.0161C134.413 16.1828 134.813 15.2328 135.58 14.1661C136.38 13.0994 137.597 12.1828 139.23 11.4161C140.863 10.6494 142.863 10.2661 145.23 10.2661C149.163 10.2661 152.03 11.1494 153.83 12.9161C155.63 14.6828 156.53 16.9994 156.53 19.8661V35.5661C156.53 35.8994 156.413 36.1828 156.18 36.4161C155.98 36.6494 155.697 36.7661 155.33 36.7661H151.28C150.947 36.7661 150.663 36.6494 150.43 36.4161C150.197 36.1828 150.08 35.8994 150.08 35.5661V33.6161C149.347 34.6828 148.297 35.5661 146.93 36.2661C145.597 36.9328 143.93 37.2661 141.93 37.2661ZM143.63 32.5161C145.463 32.5161 146.963 31.9161 148.13 30.7161C149.297 29.5161 149.88 27.7661 149.88 25.4661V24.4161L144.88 25.2161C142.947 25.5161 141.48 25.9994 140.48 26.6661C139.513 27.3328 139.03 28.1494 139.03 29.1161C139.03 30.1828 139.48 31.0161 140.38 31.6161C141.28 32.2161 142.363 32.5161 143.63 32.5161ZM164.145 36.7661C163.811 36.7661 163.528 36.6494 163.295 36.4161C163.061 36.1828 162.945 35.8994 162.945 35.5661V11.9661C162.945 11.6328 163.061 11.3494 163.295 11.1161C163.528 10.8828 163.811 10.7661 164.145 10.7661H168.245C168.578 10.7661 168.861 10.8828 169.095 11.1161C169.328 11.3494 169.445 11.6328 169.445 11.9661V14.0161C171.411 11.5161 174.195 10.2661 177.795 10.2661C180.861 10.2661 183.295 11.2828 185.095 13.3161C186.895 15.3161 187.795 18.0494 187.795 21.5161V35.5661C187.795 35.8994 187.678 36.1828 187.445 36.4161C187.245 36.6494 186.961 36.7661 186.595 36.7661H182.195C181.861 36.7661 181.578 36.6494 181.345 36.4161C181.111 36.1828 180.995 35.8994 180.995 35.5661V21.8161C180.995 19.8494 180.511 18.3328 179.545 17.2661C178.611 16.1661 177.245 15.6161 175.445 15.6161C173.678 15.6161 172.278 16.1661 171.245 17.2661C170.245 18.3661 169.745 19.8828 169.745 21.8161V35.5661C169.745 35.8994 169.628 36.1828 169.395 36.4161C169.195 36.6494 168.911 36.7661 168.545 36.7661H164.145ZM198.016 46.2661C197.749 46.2661 197.516 46.1661 197.316 45.9661C197.116 45.7661 197.016 45.5328 197.016 45.2661C197.016 44.9661 197.082 44.6994 197.216 44.4661L201.116 35.2161L191.516 12.5661C191.382 12.2661 191.316 12.0328 191.316 11.8661C191.349 11.5661 191.466 11.3161 191.666 11.1161C191.866 10.8828 192.116 10.7661 192.416 10.7661H196.466C197.099 10.7661 197.549 11.0828 197.816 11.7161L204.466 28.0661L211.316 11.7161C211.582 11.0828 212.032 10.7661 212.666 10.7661H216.666C216.932 10.7661 217.166 10.8661 217.366 11.0661C217.599 11.2661 217.716 11.4994 217.716 11.7661C217.716 11.9994 217.649 12.2661 217.516 12.5661L203.366 45.3161C203.066 45.9494 202.599 46.2661 201.966 46.2661H198.016ZM233.777 36.7661C230.743 36.7661 228.46 35.9828 226.927 34.4161C225.427 32.8161 224.677 30.4828 224.677 27.4161V16.0661H220.727C220.393 16.0661 220.11 15.9494 219.877 15.7161C219.643 15.4494 219.527 15.1494 219.527 14.8161V11.9661C219.527 11.6328 219.643 11.3494 219.877 11.1161C220.11 10.8828 220.393 10.7661 220.727 10.7661H224.677V2.46611C224.677 2.09944 224.793 1.81611 225.027 1.61611C225.26 1.38278 225.543 1.26611 225.877 1.26611H229.927C230.293 1.26611 230.577 1.38278 230.777 1.61611C231.01 1.81611 231.127 2.09944 231.127 2.46611V10.7661H237.377C237.743 10.7661 238.027 10.8828 238.227 11.1161C238.46 11.3161 238.577 11.5994 238.577 11.9661V14.8161C238.577 15.1828 238.46 15.4828 238.227 15.7161C237.993 15.9494 237.71 16.0661 237.377 16.0661H231.127V26.9161C231.127 28.3494 231.377 29.4328 231.877 30.1661C232.377 30.8994 233.21 31.2661 234.377 31.2661H237.827C238.16 31.2661 238.443 31.3828 238.677 31.6161C238.91 31.8494 239.027 32.1328 239.027 32.4661V35.5661C239.027 35.8994 238.91 36.1828 238.677 36.4161C238.477 36.6494 238.193 36.7661 237.827 36.7661H233.777ZM244.712 36.7661C244.379 36.7661 244.095 36.6494 243.862 36.4161C243.629 36.1828 243.512 35.8994 243.512 35.5661V2.46611C243.512 2.09944 243.629 1.81611 243.862 1.61611C244.095 1.38278 244.379 1.26611 244.712 1.26611H249.162C249.529 1.26611 249.812 1.38278 250.012 1.61611C250.245 1.81611 250.362 2.09944 250.362 2.46611V13.8661C252.362 11.4661 255.062 10.2661 258.462 10.2661C261.529 10.2661 263.979 11.2828 265.812 13.3161C267.645 15.3161 268.562 18.0494 268.562 21.5161V35.5661C268.562 35.8994 268.445 36.1828 268.212 36.4161C268.012 36.6494 267.729 36.7661 267.362 36.7661H262.862C262.529 36.7661 262.245 36.6494 262.012 36.4161C261.779 36.1828 261.662 35.8994 261.662 35.5661V21.8161C261.662 19.8494 261.179 18.3328 260.212 17.2661C259.279 16.1661 257.912 15.6161 256.112 15.6161C254.345 15.6161 252.945 16.1661 251.912 17.2661C250.879 18.3661 250.362 19.8828 250.362 21.8161V35.5661C250.362 35.8994 250.245 36.1828 250.012 36.4161C249.812 36.6494 249.529 36.7661 249.162 36.7661H244.712ZM275.907 6.46611C275.574 6.46611 275.291 6.34945 275.057 6.11611C274.824 5.88278 274.707 5.59945 274.707 5.26611V1.66611C274.707 1.33278 274.824 1.04945 275.057 0.816111C275.291 0.582779 275.574 0.466113 275.907 0.466113H280.457C280.791 0.466113 281.074 0.582779 281.307 0.816111C281.574 1.04945 281.707 1.33278 281.707 1.66611V5.26611C281.707 5.59945 281.591 5.88278 281.357 6.11611C281.124 6.34945 280.824 6.46611 280.457 6.46611H275.907ZM276.107 36.7661C275.774 36.7661 275.491 36.6494 275.257 36.4161C275.024 36.1828 274.907 35.8994 274.907 35.5661V11.9661C274.907 11.6328 275.024 11.3494 275.257 11.1161C275.491 10.8828 275.774 10.7661 276.107 10.7661H280.257C280.624 10.7661 280.907 10.8828 281.107 11.1161C281.341 11.3161 281.457 11.5994 281.457 11.9661V35.5661C281.457 35.8994 281.341 36.1828 281.107 36.4161C280.907 36.6494 280.624 36.7661 280.257 36.7661H276.107ZM289.291 36.7661C288.958 36.7661 288.674 36.6494 288.441 36.4161C288.208 36.1828 288.091 35.8994 288.091 35.5661V11.9661C288.091 11.6328 288.208 11.3494 288.441 11.1161C288.674 10.8828 288.958 10.7661 289.291 10.7661H293.391C293.724 10.7661 294.008 10.8828 294.241 11.1161C294.474 11.3494 294.591 11.6328 294.591 11.9661V14.0161C296.558 11.5161 299.341 10.2661 302.941 10.2661C306.008 10.2661 308.441 11.2828 310.241 13.3161C312.041 15.3161 312.941 18.0494 312.941 21.5161V35.5661C312.941 35.8994 312.824 36.1828 312.591 36.4161C312.391 36.6494 312.108 36.7661 311.741 36.7661H307.341C307.008 36.7661 306.724 36.6494 306.491 36.4161C306.258 36.1828 306.141 35.8994 306.141 35.5661V21.8161C306.141 19.8494 305.658 18.3328 304.691 17.2661C303.758 16.1661 302.391 15.6161 300.591 15.6161C298.824 15.6161 297.424 16.1661 296.391 17.2661C295.391 18.3661 294.891 19.8828 294.891 21.8161V35.5661C294.891 35.8994 294.774 36.1828 294.541 36.4161C294.341 36.6494 294.058 36.7661 293.691 36.7661H289.291ZM331.042 47.7661C328.076 47.7661 325.676 47.2661 323.842 46.2661C322.009 45.2994 320.709 44.1828 319.942 42.9161C319.176 41.6494 318.792 40.5661 318.792 39.6661C318.792 39.3661 318.909 39.0994 319.142 38.8661C319.409 38.6328 319.692 38.5161 319.992 38.5161H324.342C324.642 38.5161 324.892 38.5828 325.092 38.7161C325.326 38.8828 325.509 39.1661 325.642 39.5661C325.976 40.4661 326.509 41.2161 327.242 41.8161C328.009 42.4494 329.192 42.7661 330.792 42.7661C332.792 42.7661 334.259 42.3161 335.192 41.4161C336.159 40.5161 336.642 38.9661 336.642 36.7661V33.3661C334.809 35.5328 332.242 36.6161 328.942 36.6161C325.476 36.6161 322.859 35.5494 321.092 33.4161C319.359 31.2828 318.426 28.4161 318.292 24.8161L318.242 23.4661L318.292 22.1161C318.426 18.5828 319.376 15.7328 321.142 13.5661C322.909 11.3661 325.509 10.2661 328.942 10.2661C330.709 10.2661 332.259 10.5994 333.592 11.2661C334.926 11.9328 336.042 12.8494 336.942 14.0161V12.0161C336.942 11.6494 337.059 11.3494 337.292 11.1161C337.526 10.8828 337.809 10.7661 338.142 10.7661H342.192C342.526 10.7661 342.809 10.8994 343.042 11.1661C343.276 11.3994 343.392 11.6828 343.392 12.0161L343.442 36.1161C343.442 39.8161 342.409 42.6828 340.342 44.7161C338.276 46.7494 335.176 47.7661 331.042 47.7661ZM330.792 31.3161C332.692 31.3161 334.109 30.7161 335.042 29.5161C336.009 28.3161 336.542 26.8494 336.642 25.1161C336.676 24.8494 336.692 24.2994 336.692 23.4661C336.692 22.6661 336.676 22.1328 336.642 21.8661C336.542 20.0994 336.009 18.6161 335.042 17.4161C334.109 16.2161 332.692 15.6161 330.792 15.6161C327.192 15.6161 325.292 17.8328 325.092 22.2661L325.042 23.4661C325.042 25.8328 325.459 27.7328 326.292 29.1661C327.159 30.5994 328.659 31.3161 330.792 31.3161ZM372.302 36.7661C369.269 36.7661 366.985 35.9828 365.452 34.4161C363.952 32.8161 363.202 30.4828 363.202 27.4161V16.0661H359.252C358.919 16.0661 358.635 15.9494 358.402 15.7161C358.169 15.4494 358.052 15.1494 358.052 14.8161V11.9661C358.052 11.6328 358.169 11.3494 358.402 11.1161C358.635 10.8828 358.919 10.7661 359.252 10.7661H363.202V2.46611C363.202 2.09944 363.319 1.81611 363.552 1.61611C363.785 1.38278 364.069 1.26611 364.402 1.26611H368.452C368.819 1.26611 369.102 1.38278 369.302 1.61611C369.535 1.81611 369.652 2.09944 369.652 2.46611V10.7661H375.902C376.269 10.7661 376.552 10.8828 376.752 11.1161C376.985 11.3161 377.102 11.5994 377.102 11.9661V14.8161C377.102 15.1828 376.985 15.4828 376.752 15.7161C376.519 15.9494 376.235 16.0661 375.902 16.0661H369.652V26.9161C369.652 28.3494 369.902 29.4328 370.402 30.1661C370.902 30.8994 371.735 31.2661 372.902 31.2661H376.352C376.685 31.2661 376.969 31.3828 377.202 31.6161C377.435 31.8494 377.552 32.1328 377.552 32.4661V35.5661C377.552 35.8994 377.435 36.1828 377.202 36.4161C377.002 36.6494 376.719 36.7661 376.352 36.7661H372.302ZM393.488 37.2661C389.588 37.2661 386.571 36.2661 384.438 34.2661C382.304 32.2328 381.154 29.4661 380.988 25.9661L380.938 23.7661L380.988 21.5661C381.154 18.0994 382.321 15.3494 384.488 13.3161C386.654 11.2828 389.654 10.2661 393.488 10.2661C397.321 10.2661 400.321 11.2828 402.488 13.3161C404.654 15.3494 405.821 18.0994 405.988 21.5661C406.021 21.9661 406.038 22.6994 406.038 23.7661C406.038 24.8328 406.021 25.5661 405.988 25.9661C405.821 29.4661 404.671 32.2328 402.538 34.2661C400.404 36.2661 397.388 37.2661 393.488 37.2661ZM393.488 32.3161C395.254 32.3161 396.621 31.7661 397.588 30.6661C398.554 29.5328 399.088 27.8828 399.188 25.7161C399.221 25.3828 399.238 24.7328 399.238 23.7661C399.238 22.7994 399.221 22.1494 399.188 21.8161C399.088 19.6494 398.554 18.0161 397.588 16.9161C396.621 15.7828 395.254 15.2161 393.488 15.2161C391.721 15.2161 390.354 15.7828 389.388 16.9161C388.421 18.0161 387.888 19.6494 387.788 21.8161L387.738 23.7661L387.788 25.7161C387.888 27.8828 388.421 29.5328 389.388 30.6661C390.354 31.7661 391.721 32.3161 393.488 32.3161ZM437.403 37.2661C433.97 37.2661 431.303 36.0828 429.403 33.7161V35.5661C429.403 35.8994 429.286 36.1828 429.053 36.4161C428.853 36.6494 428.57 36.7661 428.203 36.7661H424.253C423.92 36.7661 423.636 36.6494 423.403 36.4161C423.17 36.1828 423.053 35.8994 423.053 35.5661V2.46611C423.053 2.09944 423.17 1.81611 423.403 1.61611C423.636 1.38278 423.92 1.26611 424.253 1.26611H428.503C428.87 1.26611 429.153 1.38278 429.353 1.61611C429.586 1.81611 429.703 2.09944 429.703 2.46611V13.5661C431.603 11.3661 434.17 10.2661 437.403 10.2661C440.77 10.2661 443.353 11.3661 445.153 13.5661C446.953 15.7661 447.92 18.6161 448.053 22.1161C448.086 22.5161 448.103 23.0494 448.103 23.7161C448.103 24.4161 448.086 24.9661 448.053 25.3661C447.92 28.9661 446.953 31.8494 445.153 34.0161C443.353 36.1828 440.77 37.2661 437.403 37.2661ZM435.553 31.9161C439.153 31.9161 441.07 29.6994 441.303 25.2661C441.336 24.9328 441.353 24.4328 441.353 23.7661C441.353 23.0994 441.336 22.5994 441.303 22.2661C441.07 17.8328 439.153 15.6161 435.553 15.6161C433.686 15.6161 432.253 16.2161 431.253 17.4161C430.286 18.5828 429.77 19.9994 429.703 21.6661L429.653 23.5661L429.703 25.5161C429.803 27.3161 430.32 28.8328 431.253 30.0661C432.186 31.2994 433.62 31.9161 435.553 31.9161ZM464.867 37.2661C461.167 37.2661 458.217 36.1994 456.017 34.0661C453.851 31.8994 452.701 28.8661 452.567 24.9661L452.517 23.7161L452.567 22.4661C452.734 18.6661 453.901 15.6828 456.067 13.5161C458.267 11.3494 461.201 10.2661 464.867 10.2661C468.801 10.2661 471.834 11.4661 473.967 13.8661C476.134 16.2661 477.217 19.4661 477.217 23.4661V24.5161C477.217 24.8494 477.101 25.1328 476.867 25.3661C476.634 25.5994 476.334 25.7161 475.967 25.7161H459.367V26.1161C459.434 27.9494 459.934 29.4994 460.867 30.7661C461.834 31.9994 463.151 32.6161 464.817 32.6161C466.784 32.6161 468.367 31.8494 469.567 30.3161C469.867 29.9494 470.101 29.7161 470.267 29.6161C470.467 29.5161 470.751 29.4661 471.117 29.4661H475.417C475.717 29.4661 475.967 29.5661 476.167 29.7661C476.401 29.9328 476.517 30.1494 476.517 30.4161C476.517 31.2161 476.034 32.1661 475.067 33.2661C474.134 34.3328 472.784 35.2661 471.017 36.0661C469.251 36.8661 467.201 37.2661 464.867 37.2661ZM470.417 21.5161V21.3661C470.417 19.3994 469.917 17.8161 468.917 16.6161C467.951 15.4161 466.601 14.8161 464.867 14.8161C463.134 14.8161 461.784 15.4161 460.817 16.6161C459.851 17.8161 459.367 19.3994 459.367 21.3661V21.5161H470.417ZM13.5 107.266C9.8 107.266 6.85 106.199 4.65 104.066C2.48333 101.899 1.33333 98.8661 1.2 94.9661L1.15 93.7161L1.2 92.4661C1.36667 88.6661 2.53333 85.6828 4.7 83.5161C6.9 81.3494 9.83333 80.2661 13.5 80.2661C17.4333 80.2661 20.4667 81.4661 22.6 83.8661C24.7667 86.2661 25.85 89.4661 25.85 93.4661V94.5161C25.85 94.8494 25.7333 95.1328 25.5 95.3661C25.2667 95.5994 24.9667 95.7161 24.6 95.7161H8V96.1161C8.06667 97.9494 8.56667 99.4994 9.5 100.766C10.4667 101.999 11.7833 102.616 13.45 102.616C15.4167 102.616 17 101.849 18.2 100.316C18.5 99.9494 18.7333 99.7161 18.9 99.6161C19.1 99.5161 19.3833 99.4661 19.75 99.4661H24.05C24.35 99.4661 24.6 99.5661 24.8 99.7661C25.0333 99.9328 25.15 100.149 25.15 100.416C25.15 101.216 24.6667 102.166 23.7 103.266C22.7667 104.333 21.4167 105.266 19.65 106.066C17.8833 106.866 15.8333 107.266 13.5 107.266ZM19.05 91.5161V91.3661C19.05 89.3994 18.55 87.8161 17.55 86.6161C16.5833 85.4161 15.2333 84.8161 13.5 84.8161C11.7667 84.8161 10.4167 85.4161 9.45 86.6161C8.48333 87.8161 8 89.3994 8 91.3661V91.5161H19.05ZM38.7074 107.266C37.0074 107.266 35.4408 106.933 34.0074 106.266C32.6074 105.566 31.4908 104.633 30.6574 103.466C29.8574 102.299 29.4574 101.016 29.4574 99.6161C29.4574 97.3494 30.3741 95.5161 32.2074 94.1161C34.0408 92.7161 36.5574 91.7661 39.7574 91.2661L46.6074 90.2661V89.2161C46.6074 87.7494 46.2408 86.6494 45.5074 85.9161C44.7741 85.1828 43.5908 84.8161 41.9574 84.8161C40.8574 84.8161 39.9574 85.0328 39.2574 85.4661C38.5908 85.8661 38.0574 86.2661 37.6574 86.6661C37.2574 87.0994 36.9908 87.3828 36.8574 87.5161C36.7241 87.9161 36.4741 88.1161 36.1074 88.1161H32.2574C31.9574 88.1161 31.6908 88.0161 31.4574 87.8161C31.2574 87.6161 31.1574 87.3494 31.1574 87.0161C31.1908 86.1828 31.5908 85.2328 32.3574 84.1661C33.1574 83.0994 34.3741 82.1828 36.0074 81.4161C37.6408 80.6494 39.6408 80.2661 42.0074 80.2661C45.9408 80.2661 48.8074 81.1494 50.6074 82.9161C52.4074 84.6828 53.3074 86.9994 53.3074 89.8661V105.566C53.3074 105.899 53.1908 106.183 52.9574 106.416C52.7574 106.649 52.4741 106.766 52.1074 106.766H48.0574C47.7241 106.766 47.4408 106.649 47.2074 106.416C46.9741 106.183 46.8574 105.899 46.8574 105.566V103.616C46.1241 104.683 45.0741 105.566 43.7074 106.266C42.3741 106.933 40.7074 107.266 38.7074 107.266ZM40.4074 102.516C42.2408 102.516 43.7408 101.916 44.9074 100.716C46.0741 99.5161 46.6574 97.7661 46.6574 95.4661V94.4161L41.6574 95.2161C39.7241 95.5161 38.2574 95.9994 37.2574 96.6661C36.2908 97.3328 35.8074 98.1494 35.8074 99.1161C35.8074 100.183 36.2574 101.016 37.1574 101.616C38.0574 102.216 39.1408 102.516 40.4074 102.516ZM69.5719 107.266C67.0719 107.266 64.9719 106.899 63.2719 106.166C61.5719 105.399 60.3052 104.516 59.4719 103.516C58.6719 102.483 58.2719 101.599 58.2719 100.866C58.2719 100.533 58.3885 100.266 58.6219 100.066C58.8552 99.8661 59.1219 99.7661 59.4219 99.7661H63.3719C63.6719 99.7661 63.9219 99.8828 64.1219 100.116C64.2552 100.216 64.6052 100.516 65.1719 101.016C65.7385 101.549 66.4052 101.966 67.1719 102.266C67.9385 102.566 68.7885 102.716 69.7219 102.716C71.0552 102.716 72.1552 102.449 73.0219 101.916C73.8885 101.383 74.3219 100.649 74.3219 99.7161C74.3219 99.0161 74.1219 98.4494 73.7219 98.0161C73.3552 97.5828 72.6719 97.1994 71.6719 96.8661C70.6719 96.4994 69.1885 96.1161 67.2219 95.7161C64.3885 95.1161 62.2885 94.1994 60.9219 92.9661C59.5885 91.7328 58.9219 90.0994 58.9219 88.0661C58.9219 86.7328 59.3219 85.4828 60.1219 84.3161C60.9219 83.1161 62.1052 82.1494 63.6719 81.4161C65.2719 80.6494 67.1719 80.2661 69.3719 80.2661C71.6052 80.2661 73.5385 80.6328 75.1719 81.3661C76.8052 82.0661 78.0385 82.9161 78.8719 83.9161C79.7385 84.8828 80.1719 85.7494 80.1719 86.5161C80.1719 86.8161 80.0552 87.0828 79.8219 87.3161C79.6219 87.5161 79.3719 87.6161 79.0719 87.6161H75.3719C75.1052 87.6161 74.8219 87.4994 74.5219 87.2661C74.2885 87.0994 73.9219 86.7828 73.4219 86.3161C72.9219 85.8494 72.3385 85.4828 71.6719 85.2161C71.0052 84.9494 70.2219 84.8161 69.3219 84.8161C68.0885 84.8161 67.1219 85.0828 66.4219 85.6161C65.7552 86.1494 65.4219 86.8494 65.4219 87.7161C65.4219 88.3494 65.5885 88.8661 65.9219 89.2661C66.2552 89.6661 66.9052 90.0494 67.8719 90.4161C68.8385 90.7828 70.2885 91.1494 72.2219 91.5161C75.4219 92.1494 77.7052 93.1328 79.0719 94.4661C80.4719 95.7994 81.1719 97.4328 81.1719 99.3661C81.1719 101.699 80.1552 103.599 78.1219 105.066C76.0885 106.533 73.2385 107.266 69.5719 107.266ZM90.0566 116.266C89.79 116.266 89.5566 116.166 89.3566 115.966C89.1566 115.766 89.0566 115.533 89.0566 115.266C89.0566 114.966 89.1233 114.699 89.2566 114.466L93.1566 105.216L83.5566 82.5661C83.4233 82.2661 83.3566 82.0328 83.3566 81.8661C83.39 81.5661 83.5066 81.3161 83.7066 81.1161C83.9066 80.8828 84.1566 80.7661 84.4566 80.7661H88.5066C89.14 80.7661 89.59 81.0828 89.8566 81.7161L96.5066 98.0661L103.357 81.7161C103.623 81.0828 104.073 80.7661 104.707 80.7661H108.707C108.973 80.7661 109.207 80.8661 109.407 81.0661C109.64 81.2661 109.757 81.4994 109.757 81.7661C109.757 81.9994 109.69 82.2661 109.557 82.5661L95.4066 115.316C95.1066 115.949 94.64 116.266 94.0066 116.266H90.0566ZM130.152 106.766C129.719 106.766 129.369 106.666 129.102 106.466C128.869 106.233 128.669 105.916 128.502 105.516L121.352 82.3161C121.319 82.2161 121.302 82.0661 121.302 81.8661C121.302 81.5661 121.402 81.3161 121.602 81.1161C121.835 80.8828 122.085 80.7661 122.352 80.7661H126.052C126.419 80.7661 126.719 80.8661 126.952 81.0661C127.185 81.2661 127.335 81.4828 127.402 81.7161L132.302 98.2661L137.502 81.8661C137.602 81.5661 137.769 81.3161 138.002 81.1161C138.269 80.8828 138.602 80.7661 139.002 80.7661H141.502C141.902 80.7661 142.219 80.8828 142.452 81.1161C142.719 81.3161 142.902 81.5661 143.002 81.8661L148.202 98.2661L153.102 81.7161C153.135 81.4828 153.269 81.2661 153.502 81.0661C153.769 80.8661 154.069 80.7661 154.402 80.7661H158.102C158.402 80.7661 158.652 80.8828 158.852 81.1161C159.085 81.3161 159.202 81.5661 159.202 81.8661L159.102 82.3161L151.952 105.516C151.819 105.916 151.619 106.233 151.352 106.466C151.119 106.666 150.785 106.766 150.352 106.766H147.102C146.235 106.766 145.685 106.349 145.452 105.516L140.252 89.7161L135.052 105.516C134.785 106.349 134.219 106.766 133.352 106.766H130.152ZM165.068 76.4661C164.734 76.4661 164.451 76.3494 164.218 76.1161C163.984 75.8828 163.868 75.5994 163.868 75.2661V71.6661C163.868 71.3328 163.984 71.0494 164.218 70.8161C164.451 70.5828 164.734 70.4661 165.068 70.4661H169.618C169.951 70.4661 170.234 70.5828 170.468 70.8161C170.734 71.0494 170.868 71.3328 170.868 71.6661V75.2661C170.868 75.5994 170.751 75.8828 170.518 76.1161C170.284 76.3494 169.984 76.4661 169.618 76.4661H165.068ZM165.268 106.766C164.934 106.766 164.651 106.649 164.418 106.416C164.184 106.183 164.068 105.899 164.068 105.566V81.9661C164.068 81.6328 164.184 81.3494 164.418 81.1161C164.651 80.8828 164.934 80.7661 165.268 80.7661H169.418C169.784 80.7661 170.068 80.8828 170.268 81.1161C170.501 81.3161 170.618 81.5994 170.618 81.9661V105.566C170.618 105.899 170.501 106.183 170.268 106.416C170.068 106.649 169.784 106.766 169.418 106.766H165.268ZM189.001 106.766C185.968 106.766 183.685 105.983 182.151 104.416C180.651 102.816 179.901 100.483 179.901 97.4161V86.0661H175.951C175.618 86.0661 175.335 85.9494 175.101 85.7161C174.868 85.4494 174.751 85.1494 174.751 84.8161V81.9661C174.751 81.6328 174.868 81.3494 175.101 81.1161C175.335 80.8828 175.618 80.7661 175.951 80.7661H179.901V72.4661C179.901 72.0994 180.018 71.8161 180.251 71.6161C180.485 71.3828 180.768 71.2661 181.101 71.2661H185.151C185.518 71.2661 185.801 71.3828 186.001 71.6161C186.235 71.8161 186.351 72.0994 186.351 72.4661V80.7661H192.601C192.968 80.7661 193.251 80.8828 193.451 81.1161C193.685 81.3161 193.801 81.5994 193.801 81.9661V84.8161C193.801 85.1828 193.685 85.4828 193.451 85.7161C193.218 85.9494 192.935 86.0661 192.601 86.0661H186.351V96.9161C186.351 98.3494 186.601 99.4328 187.101 100.166C187.601 100.899 188.435 101.266 189.601 101.266H193.051C193.385 101.266 193.668 101.383 193.901 101.616C194.135 101.849 194.251 102.133 194.251 102.466V105.566C194.251 105.899 194.135 106.183 193.901 106.416C193.701 106.649 193.418 106.766 193.051 106.766H189.001ZM199.937 106.766C199.603 106.766 199.32 106.649 199.087 106.416C198.853 106.183 198.737 105.899 198.737 105.566V72.4661C198.737 72.0994 198.853 71.8161 199.087 71.6161C199.32 71.3828 199.603 71.2661 199.937 71.2661H204.387C204.753 71.2661 205.037 71.3828 205.237 71.6161C205.47 71.8161 205.587 72.0994 205.587 72.4661V83.8661C207.587 81.4661 210.287 80.2661 213.687 80.2661C216.753 80.2661 219.203 81.2828 221.037 83.3161C222.87 85.3161 223.787 88.0494 223.787 91.5161V105.566C223.787 105.899 223.67 106.183 223.437 106.416C223.237 106.649 222.953 106.766 222.587 106.766H218.087C217.753 106.766 217.47 106.649 217.237 106.416C217.003 106.183 216.887 105.899 216.887 105.566V91.8161C216.887 89.8494 216.403 88.3328 215.437 87.2661C214.503 86.1661 213.137 85.6161 211.337 85.6161C209.57 85.6161 208.17 86.1661 207.137 87.2661C206.103 88.3661 205.587 89.8828 205.587 91.8161V105.566C205.587 105.899 205.47 106.183 205.237 106.416C205.037 106.649 204.753 106.766 204.387 106.766H199.937ZM242.227 106.766C241.893 106.766 241.593 106.649 241.327 106.416C241.093 106.149 240.977 105.849 240.977 105.516V73.0161C240.977 72.6494 241.093 72.3494 241.327 72.1161C241.593 71.8828 241.893 71.7661 242.227 71.7661H248.827C249.193 71.7661 249.493 71.8828 249.727 72.1161C249.96 72.3494 250.077 72.6494 250.077 73.0161V99.2161H265.227C265.593 99.2161 265.893 99.3494 266.127 99.6161C266.36 99.8494 266.477 100.149 266.477 100.516V105.516C266.477 105.849 266.36 106.149 266.127 106.416C265.893 106.649 265.593 106.766 265.227 106.766H242.227ZM278.061 107.266C276.294 107.266 274.677 106.933 273.211 106.266C271.777 105.566 270.644 104.633 269.811 103.466C269.011 102.266 268.611 100.949 268.611 99.5161C268.611 97.2161 269.544 95.3661 271.411 93.9661C273.311 92.5661 275.911 91.5994 279.211 91.0661L285.461 90.1161V89.4161C285.461 88.1494 285.194 87.2161 284.661 86.6161C284.127 86.0161 283.227 85.7161 281.961 85.7161C281.194 85.7161 280.561 85.8494 280.061 86.1161C279.561 86.3828 279.044 86.7494 278.511 87.2161C278.044 87.6161 277.694 87.8828 277.461 88.0161C277.361 88.2828 277.177 88.4161 276.911 88.4161H271.461C271.127 88.4161 270.844 88.3161 270.611 88.1161C270.411 87.8828 270.327 87.6161 270.361 87.3161C270.394 86.4161 270.827 85.4161 271.661 84.3161C272.527 83.2161 273.827 82.2661 275.561 81.4661C277.327 80.6661 279.494 80.2661 282.061 80.2661C286.161 80.2661 289.194 81.1828 291.161 83.0161C293.127 84.8161 294.111 87.2494 294.111 90.3161V105.516C294.111 105.849 293.994 106.149 293.761 106.416C293.527 106.649 293.227 106.766 292.861 106.766H287.061C286.727 106.766 286.427 106.649 286.161 106.416C285.927 106.149 285.811 105.849 285.811 105.516V103.766C285.077 104.799 284.044 105.649 282.711 106.316C281.411 106.949 279.861 107.266 278.061 107.266ZM280.411 101.566C281.944 101.566 283.177 101.066 284.111 100.066C285.077 99.0661 285.561 97.5994 285.561 95.6661V94.9661L281.311 95.7161C278.311 96.2494 276.811 97.2994 276.811 98.8661C276.811 99.6994 277.161 100.366 277.861 100.866C278.561 101.333 279.411 101.566 280.411 101.566ZM310.453 107.266C307.753 107.266 305.486 106.883 303.653 106.116C301.853 105.349 300.519 104.433 299.653 103.366C298.786 102.299 298.353 101.349 298.353 100.516C298.353 100.183 298.469 99.9161 298.703 99.7161C298.969 99.4828 299.253 99.3661 299.553 99.3661H305.253C305.453 99.3661 305.636 99.4494 305.803 99.6161C306.203 99.8828 306.503 100.099 306.703 100.266C307.436 100.799 308.069 101.199 308.603 101.466C309.169 101.699 309.853 101.816 310.653 101.816C311.619 101.816 312.403 101.633 313.003 101.266C313.636 100.866 313.953 100.316 313.953 99.6161C313.953 99.0494 313.786 98.5994 313.453 98.2661C313.153 97.9328 312.553 97.6161 311.653 97.3161C310.753 96.9828 309.386 96.6328 307.553 96.2661C304.786 95.6994 302.653 94.7828 301.153 93.5161C299.686 92.2161 298.953 90.4828 298.953 88.3161C298.953 86.9494 299.386 85.6494 300.253 84.4161C301.119 83.1828 302.403 82.1828 304.103 81.4161C305.836 80.6494 307.886 80.2661 310.253 80.2661C312.619 80.2661 314.686 80.6328 316.453 81.3661C318.219 82.0994 319.553 82.9994 320.453 84.0661C321.386 85.0994 321.853 86.0494 321.853 86.9161C321.853 87.2161 321.736 87.4828 321.503 87.7161C321.303 87.9494 321.053 88.0661 320.753 88.0661H315.553C315.286 88.0661 315.036 87.9828 314.803 87.8161C314.369 87.5828 313.986 87.3328 313.653 87.0661C313.086 86.6328 312.553 86.2994 312.053 86.0661C311.553 85.8328 310.936 85.7161 310.203 85.7161C309.336 85.7161 308.636 85.9161 308.103 86.3161C307.603 86.7161 307.353 87.2328 307.353 87.8661C307.353 88.3661 307.486 88.7828 307.753 89.1161C308.053 89.4494 308.653 89.7828 309.553 90.1161C310.486 90.4161 311.853 90.7328 313.653 91.0661C316.886 91.6328 319.236 92.6328 320.703 94.0661C322.203 95.4994 322.953 97.1828 322.953 99.1161C322.953 101.583 321.853 103.566 319.653 105.066C317.453 106.533 314.386 107.266 310.453 107.266ZM328.639 106.766C328.306 106.766 328.006 106.649 327.739 106.416C327.506 106.149 327.389 105.849 327.389 105.516V72.5161C327.389 72.1494 327.506 71.8494 327.739 71.6161C328.006 71.3828 328.306 71.2661 328.639 71.2661H334.539C334.906 71.2661 335.206 71.3828 335.439 71.6161C335.673 71.8494 335.789 72.1494 335.789 72.5161V105.516C335.789 105.883 335.673 106.183 335.439 106.416C335.206 106.649 334.906 106.766 334.539 106.766H328.639ZM353.696 107.266C349.696 107.266 346.546 106.183 344.246 104.016C341.946 101.849 340.746 98.6994 340.646 94.5661V92.8161C340.779 88.8828 341.996 85.8161 344.296 83.6161C346.629 81.3828 349.746 80.2661 353.646 80.2661C356.479 80.2661 358.863 80.8494 360.796 82.0161C362.763 83.1494 364.229 84.7161 365.196 86.7161C366.196 88.7161 366.696 91.0161 366.696 93.6161V94.8161C366.696 95.1494 366.579 95.4494 366.346 95.7161C366.113 95.9494 365.813 96.0661 365.446 96.0661H349.446V96.4161C349.513 97.9828 349.896 99.2494 350.596 100.216C351.296 101.183 352.313 101.666 353.646 101.666C354.479 101.666 355.163 101.499 355.696 101.166C356.229 100.799 356.713 100.366 357.146 99.8661C357.446 99.4994 357.679 99.2828 357.846 99.2161C358.046 99.1161 358.346 99.0661 358.746 99.0661H364.946C365.246 99.0661 365.496 99.1661 365.696 99.3661C365.929 99.5328 366.046 99.7661 366.046 100.066C366.046 100.933 365.546 101.933 364.546 103.066C363.579 104.199 362.163 105.183 360.296 106.016C358.429 106.849 356.229 107.266 353.696 107.266ZM357.896 91.1161V91.0161C357.896 89.3828 357.513 88.0994 356.746 87.1661C356.013 86.1994 354.979 85.7161 353.646 85.7161C352.346 85.7161 351.313 86.1994 350.546 87.1661C349.813 88.0994 349.446 89.3828 349.446 91.0161V91.1161H357.896ZM382.084 107.266C379.384 107.266 377.117 106.883 375.284 106.116C373.484 105.349 372.15 104.433 371.284 103.366C370.417 102.299 369.984 101.349 369.984 100.516C369.984 100.183 370.1 99.9161 370.334 99.7161C370.6 99.4828 370.884 99.3661 371.184 99.3661H376.884C377.084 99.3661 377.267 99.4494 377.434 99.6161C377.834 99.8828 378.134 100.099 378.334 100.266C379.067 100.799 379.7 101.199 380.234 101.466C380.8 101.699 381.484 101.816 382.284 101.816C383.25 101.816 384.034 101.633 384.634 101.266C385.267 100.866 385.584 100.316 385.584 99.6161C385.584 99.0494 385.417 98.5994 385.084 98.2661C384.784 97.9328 384.184 97.6161 383.284 97.3161C382.384 96.9828 381.017 96.6328 379.184 96.2661C376.417 95.6994 374.284 94.7828 372.784 93.5161C371.317 92.2161 370.584 90.4828 370.584 88.3161C370.584 86.9494 371.017 85.6494 371.884 84.4161C372.75 83.1828 374.034 82.1828 375.734 81.4161C377.467 80.6494 379.517 80.2661 381.884 80.2661C384.25 80.2661 386.317 80.6328 388.084 81.3661C389.85 82.0994 391.184 82.9994 392.084 84.0661C393.017 85.0994 393.484 86.0494 393.484 86.9161C393.484 87.2161 393.367 87.4828 393.134 87.7161C392.934 87.9494 392.684 88.0661 392.384 88.0661H387.184C386.917 88.0661 386.667 87.9828 386.434 87.8161C386 87.5828 385.617 87.3328 385.284 87.0661C384.717 86.6328 384.184 86.2994 383.684 86.0661C383.184 85.8328 382.567 85.7161 381.834 85.7161C380.967 85.7161 380.267 85.9161 379.734 86.3161C379.234 86.7161 378.984 87.2328 378.984 87.8661C378.984 88.3661 379.117 88.7828 379.384 89.1161C379.684 89.4494 380.284 89.7828 381.184 90.1161C382.117 90.4161 383.484 90.7328 385.284 91.0661C388.517 91.6328 390.867 92.6328 392.334 94.0661C393.834 95.4994 394.584 97.1828 394.584 99.1161C394.584 101.583 393.484 103.566 391.284 105.066C389.084 106.533 386.017 107.266 382.084 107.266ZM406.885 106.766C405.818 106.766 405.135 106.266 404.835 105.266L394.635 73.2661L394.535 72.8161C394.535 72.5494 394.635 72.3161 394.835 72.1161C395.068 71.8828 395.335 71.7661 395.635 71.7661H401.835C402.301 71.7661 402.685 71.8994 402.985 72.1661C403.318 72.4328 403.535 72.7328 403.635 73.0661L410.735 96.1661L417.785 73.0661C417.885 72.7328 418.085 72.4328 418.385 72.1661C418.718 71.8994 419.118 71.7661 419.585 71.7661H425.835C426.101 71.7661 426.335 71.8828 426.535 72.1161C426.768 72.3161 426.885 72.5494 426.885 72.8161L426.785 73.2661L416.585 105.266C416.285 106.266 415.601 106.766 414.535 106.766H406.885ZM432.803 106.766C432.469 106.766 432.169 106.649 431.903 106.416C431.669 106.149 431.553 105.849 431.553 105.516V73.0161C431.553 72.6494 431.669 72.3494 431.903 72.1161C432.169 71.8828 432.469 71.7661 432.803 71.7661H446.803C451.069 71.7661 454.419 72.7494 456.853 74.7161C459.319 76.6828 460.553 79.5494 460.553 83.3161C460.553 87.0494 459.336 89.8661 456.903 91.7661C454.469 93.6328 451.103 94.5661 446.803 94.5661H440.853V105.516C440.853 105.883 440.719 106.183 440.453 106.416C440.219 106.649 439.919 106.766 439.553 106.766H432.803ZM446.553 87.6661C448.019 87.6661 449.169 87.2994 450.003 86.5661C450.836 85.7994 451.253 84.6828 451.253 83.2161C451.253 81.8494 450.853 80.7661 450.053 79.9661C449.286 79.1328 448.119 78.7161 446.553 78.7161H440.703V87.6661H446.553ZM466.592 106.766C466.258 106.766 465.958 106.649 465.692 106.416C465.458 106.149 465.342 105.849 465.342 105.516V73.0161C465.342 72.6494 465.458 72.3494 465.692 72.1161C465.958 71.8828 466.258 71.7661 466.592 71.7661H471.892C472.725 71.7661 473.292 72.0828 473.592 72.7161L485.792 91.9161V73.0161C485.792 72.6494 485.908 72.3494 486.142 72.1161C486.408 71.8828 486.708 71.7661 487.042 71.7661H493.042C493.408 71.7661 493.708 71.8828 493.942 72.1161C494.175 72.3494 494.292 72.6494 494.292 73.0161V105.466C494.292 105.833 494.175 106.149 493.942 106.416C493.708 106.649 493.408 106.766 493.042 106.766H487.692C486.958 106.766 486.408 106.449 486.042 105.816L473.842 87.3161V105.516C473.842 105.849 473.725 106.149 473.492 106.416C473.258 106.649 472.958 106.766 472.592 106.766H466.592ZM501.583 106.766C501.249 106.766 500.949 106.649 500.683 106.416C500.449 106.149 500.333 105.849 500.333 105.516V99.1661C500.333 98.7994 500.449 98.4994 500.683 98.2661C500.949 98.0328 501.249 97.9161 501.583 97.9161H507.933C508.299 97.9161 508.599 98.0328 508.833 98.2661C509.066 98.4994 509.183 98.7994 509.183 99.1661V105.516C509.183 105.849 509.066 106.149 508.833 106.416C508.599 106.649 508.299 106.766 507.933 106.766H501.583Z" fill="#0B132A"/>
</svg>
