<svg width="364" height="76" viewBox="0 0 364 76" fill="none" xmlns="http://www.w3.org/2000/svg">
<path d="M5.87646 25.5493C5.19979 25.5493 4.77979 25.1993 4.61646 24.4993L0.48646 2.06432L0.45146 1.78432C0.45146 1.57432 0.52146 1.39932 0.66146 1.25932C0.80146 1.11932 0.97646 1.04931 1.18646 1.04931H4.33646C4.63979 1.04931 4.86146 1.10765 5.00146 1.22431C5.14146 1.31765 5.23479 1.49265 5.28146 1.74932L8.18646 17.4993L11.3015 7.34931C11.5348 6.76598 11.9198 6.47432 12.4565 6.47432H14.3815C14.6848 6.47432 14.9298 6.56765 15.1165 6.75432C15.3031 6.91765 15.4315 7.11598 15.5015 7.34931L18.6515 17.4993L21.5215 1.74932C21.5915 1.28265 21.9181 1.04931 22.5015 1.04931H25.6515C25.8381 1.04931 26.0015 1.11932 26.1415 1.25932C26.2815 1.39932 26.3515 1.57432 26.3515 1.78432C26.3515 1.90098 26.3398 1.99432 26.3165 2.06432L22.1865 24.4993C22.1398 24.826 21.9998 25.0826 21.7665 25.2693C21.5565 25.456 21.2765 25.5493 20.9265 25.5493H18.5465C18.2198 25.5493 17.9515 25.4676 17.7415 25.3043C17.5315 25.1176 17.3915 24.9076 17.3215 24.6743L13.4015 13.0543L9.48146 24.6743C9.29479 25.2576 8.88646 25.5493 8.25646 25.5493H5.87646ZM37.1971 25.8993C34.5838 25.8993 32.5071 25.1526 30.9671 23.6593C29.4504 22.166 28.6454 20.0426 28.5521 17.2893L28.5171 16.4143C28.5171 13.4976 29.2754 11.1993 30.7921 9.51932C32.3321 7.83932 34.4554 6.99932 37.1621 6.99932C39.9388 6.99932 42.0738 7.83932 43.5671 9.51932C45.0838 11.1993 45.8421 13.4393 45.8421 16.2393V16.9743C45.8421 17.2076 45.7604 17.406 45.5971 17.5693C45.4338 17.7326 45.2238 17.8143 44.9671 17.8143H33.3471V18.0943C33.3938 19.401 33.7438 20.486 34.3971 21.3493C35.0738 22.1893 35.9954 22.6093 37.1621 22.6093C38.4921 22.6093 39.5771 22.0726 40.4171 20.9993C40.6271 20.7426 40.7904 20.591 40.9071 20.5443C41.0238 20.4743 41.2221 20.4393 41.5021 20.4393H44.5821C44.7921 20.4393 44.9671 20.4976 45.1071 20.6143C45.2704 20.731 45.3521 20.8943 45.3521 21.1043C45.3521 21.6643 45.0138 22.3293 44.3371 23.0993C43.6838 23.846 42.7388 24.4993 41.5021 25.0593C40.2654 25.6193 38.8304 25.8993 37.1971 25.8993ZM41.0121 14.8393V14.7693C41.0121 13.3926 40.6621 12.296 39.9621 11.4793C39.2854 10.6393 38.3521 10.2193 37.1621 10.2193C35.9721 10.2193 35.0388 10.6393 34.3621 11.4793C33.6854 12.296 33.3471 13.3926 33.3471 14.7693V14.8393H41.0121ZM58.7803 25.5493C58.547 25.5493 58.3487 25.4676 58.1853 25.3043C58.022 25.141 57.9403 24.9426 57.9403 24.7093V1.92432C57.9403 1.66765 58.0103 1.45765 58.1503 1.29432C58.3137 1.13098 58.5237 1.04931 58.7803 1.04931H68.1603C70.9837 1.04931 73.2003 1.71432 74.8103 3.04432C76.4203 4.37432 77.2253 6.31098 77.2253 8.85432C77.2253 11.3743 76.4203 13.2876 74.8103 14.5943C73.2003 15.8776 70.9837 16.5193 68.1603 16.5193H63.0153V24.7093C63.0153 24.966 62.9337 25.176 62.7703 25.3393C62.607 25.4793 62.397 25.5493 62.1403 25.5493H58.7803ZM67.9853 12.5993C69.3387 12.5993 70.3653 12.2843 71.0653 11.6543C71.7887 11.001 72.1503 10.056 72.1503 8.81932C72.1503 7.60598 71.8003 6.66098 71.1003 5.98432C70.4237 5.30765 69.3853 4.96932 67.9853 4.96932H62.9453V12.5993H67.9853ZM81.4658 25.5493C81.2325 25.5493 81.0341 25.4676 80.8708 25.3043C80.7075 25.141 80.6258 24.9426 80.6258 24.7093V8.22432C80.6258 7.96765 80.7075 7.75765 80.8708 7.59432C81.0341 7.43098 81.2325 7.34931 81.4658 7.34931H84.3358C84.5925 7.34931 84.8025 7.43098 84.9658 7.59432C85.1291 7.75765 85.2108 7.96765 85.2108 8.22432V9.65932C86.3775 8.11932 88.0575 7.34931 90.2508 7.34931H91.7208C91.9775 7.34931 92.1758 7.43098 92.3158 7.59432C92.4791 7.73432 92.5608 7.93265 92.5608 8.18932V10.7443C92.5608 10.9776 92.4791 11.176 92.3158 11.3393C92.1758 11.5026 91.9775 11.5843 91.7208 11.5843H88.9558C87.8591 11.5843 86.9958 11.8993 86.3658 12.5293C85.7358 13.1593 85.4208 14.0226 85.4208 15.1193V24.7093C85.4208 24.9426 85.3391 25.141 85.1758 25.3043C85.0125 25.4676 84.8141 25.5493 84.5808 25.5493H81.4658ZM103.135 25.8993C100.381 25.8993 98.258 25.1993 96.7646 23.7993C95.2713 22.3993 94.4663 20.4626 94.3496 17.9893L94.3146 16.4493L94.3496 14.9093C94.4663 12.4593 95.283 10.5343 96.7996 9.13432C98.3163 7.71098 100.428 6.99932 103.135 6.99932C105.818 6.99932 107.918 7.71098 109.435 9.13432C110.951 10.5343 111.768 12.4593 111.885 14.9093C111.908 15.1893 111.92 15.7026 111.92 16.4493C111.92 17.196 111.908 17.7093 111.885 17.9893C111.768 20.4626 110.963 22.3993 109.47 23.7993C107.976 25.1993 105.865 25.8993 103.135 25.8993ZM103.135 22.3643C104.371 22.3643 105.316 21.9793 105.97 21.2093C106.646 20.4393 107.008 19.3076 107.055 17.8143C107.078 17.581 107.09 17.126 107.09 16.4493C107.09 15.7726 107.078 15.3176 107.055 15.0843C107.008 13.591 106.646 12.4593 105.97 11.6893C105.293 10.896 104.348 10.4993 103.135 10.4993C101.898 10.4993 100.941 10.896 100.265 11.6893C99.588 12.4593 99.2263 13.591 99.1796 15.0843L99.1446 16.4493L99.1796 17.8143C99.2263 19.3076 99.588 20.4393 100.265 21.2093C100.941 21.9793 101.898 22.3643 103.135 22.3643ZM121.587 25.5493C121.237 25.5493 120.969 25.4793 120.782 25.3393C120.596 25.176 120.444 24.9543 120.327 24.6743L113.747 8.43432C113.724 8.36432 113.712 8.25932 113.712 8.11932C113.712 7.90932 113.782 7.73432 113.922 7.59432C114.086 7.43098 114.261 7.34931 114.447 7.34931H117.352C117.819 7.34931 118.134 7.57098 118.297 8.01431L122.917 20.2293L127.537 8.01431C127.584 7.85098 127.677 7.69932 127.817 7.55932C127.981 7.41932 128.191 7.34931 128.447 7.34931H131.352C131.562 7.34931 131.737 7.43098 131.877 7.59432C132.017 7.73432 132.087 7.90932 132.087 8.11932C132.087 8.25932 132.076 8.36432 132.052 8.43432L125.507 24.6743C125.251 25.2576 124.831 25.5493 124.247 25.5493H121.587ZM135.979 4.37432C135.746 4.37432 135.547 4.29265 135.384 4.12931C135.221 3.96598 135.139 3.76765 135.139 3.53432V0.979316C135.139 0.722648 135.221 0.512648 135.384 0.349315C135.547 0.185981 135.746 0.104314 135.979 0.104314H139.199C139.456 0.104314 139.666 0.185981 139.829 0.349315C139.992 0.512648 140.074 0.722648 140.074 0.979316V3.53432C140.074 3.76765 139.981 3.96598 139.794 4.12931C139.631 4.29265 139.432 4.37432 139.199 4.37432H135.979ZM136.119 25.5493C135.886 25.5493 135.687 25.4676 135.524 25.3043C135.361 25.141 135.279 24.9426 135.279 24.7093V8.18932C135.279 7.93265 135.361 7.73432 135.524 7.59432C135.687 7.43098 135.886 7.34931 136.119 7.34931H139.094C139.327 7.34931 139.526 7.43098 139.689 7.59432C139.852 7.75765 139.934 7.95598 139.934 8.18932V24.7093C139.934 24.9426 139.852 25.141 139.689 25.3043C139.526 25.4676 139.327 25.5493 139.094 25.5493H136.119ZM151.297 25.8993C148.94 25.8993 147.132 25.1526 145.872 23.6593C144.612 22.1426 143.923 20.1243 143.807 17.6043L143.772 16.4493L143.807 15.2943C143.9 12.821 144.577 10.826 145.837 9.30932C147.12 7.76932 148.94 6.99932 151.297 6.99932C153.537 6.99932 155.322 7.76932 156.652 9.30932V1.53931C156.652 1.28265 156.733 1.08432 156.897 0.944316C157.06 0.780982 157.258 0.699315 157.492 0.699315H160.537C160.793 0.699315 160.992 0.780982 161.132 0.944316C161.295 1.08432 161.377 1.28265 161.377 1.53931V24.7093C161.377 24.9426 161.295 25.141 161.132 25.3043C160.992 25.4676 160.793 25.5493 160.537 25.5493H157.702C157.468 25.5493 157.27 25.4676 157.107 25.3043C156.943 25.141 156.862 24.9426 156.862 24.7093V23.4143C155.578 25.071 153.723 25.8993 151.297 25.8993ZM152.627 22.1193C153.957 22.1193 154.937 21.6993 155.567 20.8593C156.22 19.996 156.582 18.9343 156.652 17.6743C156.675 17.3943 156.687 16.951 156.687 16.3443C156.687 15.7143 156.675 15.2593 156.652 14.9793C156.605 13.8126 156.243 12.821 155.567 12.0043C154.89 11.1876 153.91 10.7793 152.627 10.7793C150.13 10.7793 148.8 12.3193 148.637 15.3993L148.602 16.4493L148.637 17.4993C148.8 20.5793 150.13 22.1193 152.627 22.1193ZM173.916 25.8993C171.303 25.8993 169.226 25.1526 167.686 23.6593C166.169 22.166 165.364 20.0426 165.271 17.2893L165.236 16.4143C165.236 13.4976 165.994 11.1993 167.511 9.51932C169.051 7.83932 171.174 6.99932 173.881 6.99932C176.658 6.99932 178.793 7.83932 180.286 9.51932C181.803 11.1993 182.561 13.4393 182.561 16.2393V16.9743C182.561 17.2076 182.479 17.406 182.316 17.5693C182.153 17.7326 181.943 17.8143 181.686 17.8143H170.066V18.0943C170.113 19.401 170.463 20.486 171.116 21.3493C171.793 22.1893 172.714 22.6093 173.881 22.6093C175.211 22.6093 176.296 22.0726 177.136 20.9993C177.346 20.7426 177.509 20.591 177.626 20.5443C177.743 20.4743 177.941 20.4393 178.221 20.4393H181.301C181.511 20.4393 181.686 20.4976 181.826 20.6143C181.989 20.731 182.071 20.8943 182.071 21.1043C182.071 21.6643 181.733 22.3293 181.056 23.0993C180.403 23.846 179.458 24.4993 178.221 25.0593C176.984 25.6193 175.549 25.8993 173.916 25.8993ZM177.731 14.8393V14.7693C177.731 13.3926 177.381 12.296 176.681 11.4793C176.004 10.6393 175.071 10.2193 173.881 10.2193C172.691 10.2193 171.758 10.6393 171.081 11.4793C170.404 12.296 170.066 13.3926 170.066 14.7693V14.8393H177.731ZM195.499 25.5493C195.266 25.5493 195.067 25.4676 194.904 25.3043C194.741 25.141 194.659 24.9426 194.659 24.7093V1.92432C194.659 1.66765 194.729 1.45765 194.869 1.29432C195.032 1.13098 195.242 1.04931 195.499 1.04931H198.334C198.777 1.04931 199.127 1.27098 199.384 1.71431L206.139 14.2443L212.894 1.71431C213.151 1.27098 213.501 1.04931 213.944 1.04931H216.744C217.001 1.04931 217.211 1.13098 217.374 1.29432C217.537 1.45765 217.619 1.66765 217.619 1.92432V24.7093C217.619 24.966 217.537 25.176 217.374 25.3393C217.211 25.4793 217.001 25.5493 216.744 25.5493H213.734C213.501 25.5493 213.302 25.4676 213.139 25.3043C212.976 25.141 212.894 24.9426 212.894 24.7093V9.65932L208.029 18.8993C207.772 19.4126 207.387 19.6693 206.874 19.6693H205.404C204.914 19.6693 204.517 19.4126 204.214 18.8993L199.349 9.65932V24.7093C199.349 24.9426 199.267 25.141 199.104 25.3043C198.964 25.4676 198.766 25.5493 198.509 25.5493H195.499ZM227.927 25.8993C226.737 25.8993 225.641 25.666 224.637 25.1993C223.657 24.7093 222.876 24.056 222.292 23.2393C221.732 22.4226 221.452 21.5243 221.452 20.5443C221.452 18.9576 222.094 17.6743 223.377 16.6943C224.661 15.7143 226.422 15.0493 228.662 14.6993L233.457 13.9993V13.2643C233.457 12.261 233.201 11.5026 232.687 10.9893C232.174 10.476 231.357 10.2193 230.237 10.2193C229.467 10.2193 228.849 10.3593 228.382 10.6393C227.916 10.9193 227.531 11.211 227.227 11.5143C226.947 11.7943 226.761 11.981 226.667 12.0743C226.574 12.3543 226.399 12.4943 226.142 12.4943H223.412C223.202 12.4943 223.016 12.4243 222.852 12.2843C222.712 12.1443 222.642 11.9576 222.642 11.7243C222.666 11.141 222.946 10.4876 223.482 9.76432C224.042 9.01765 224.894 8.37598 226.037 7.83931C227.181 7.27932 228.592 6.99932 230.272 6.99932C233.026 6.99932 235.032 7.61765 236.292 8.85432C237.552 10.091 238.182 11.7126 238.182 13.7193V24.7093C238.182 24.9426 238.101 25.141 237.937 25.3043C237.797 25.4676 237.599 25.5493 237.342 25.5493H234.437C234.204 25.5493 234.006 25.4676 233.842 25.3043C233.679 25.141 233.597 24.9426 233.597 24.7093V23.3443C233.084 24.091 232.361 24.7093 231.427 25.1993C230.494 25.666 229.327 25.8993 227.927 25.8993ZM229.117 22.5393C230.401 22.5393 231.451 22.1193 232.267 21.2793C233.084 20.4393 233.492 19.226 233.492 17.6393V16.9393L229.992 17.4993C227.309 17.9193 225.967 18.8176 225.967 20.1943C225.967 20.941 226.271 21.5243 226.877 21.9443C227.507 22.341 228.254 22.5393 229.117 22.5393ZM243.512 25.5493C243.278 25.5493 243.08 25.4676 242.917 25.3043C242.753 25.141 242.672 24.9426 242.672 24.7093V8.18932C242.672 7.93265 242.753 7.73432 242.917 7.59432C243.08 7.43098 243.278 7.34931 243.512 7.34931H246.417C246.673 7.34931 246.872 7.43098 247.012 7.59432C247.175 7.73432 247.257 7.93265 247.257 8.18932V9.62432C248.68 7.87432 250.628 6.99932 253.102 6.99932C255.248 6.99932 256.952 7.69932 258.212 9.09932C259.472 10.4993 260.102 12.4243 260.102 14.8743V24.7093C260.102 24.9426 260.02 25.141 259.857 25.3043C259.717 25.4676 259.518 25.5493 259.262 25.5493H256.112C255.878 25.5493 255.68 25.4676 255.517 25.3043C255.353 25.141 255.272 24.9426 255.272 24.7093V15.0843C255.272 13.731 254.933 12.681 254.257 11.9343C253.603 11.1643 252.658 10.7793 251.422 10.7793C250.232 10.7793 249.275 11.1643 248.552 11.9343C247.828 12.7043 247.467 13.7543 247.467 15.0843V24.7093C247.467 24.9426 247.385 25.141 247.222 25.3043C247.082 25.4676 246.883 25.5493 246.627 25.5493H243.512ZM267.221 32.1993C267.035 32.1993 266.86 32.1293 266.696 31.9893C266.556 31.8493 266.486 31.686 266.486 31.4993C266.486 31.336 266.533 31.1493 266.626 30.9393L269.391 24.4643L262.671 8.60932C262.578 8.39932 262.531 8.23598 262.531 8.11932C262.555 7.90932 262.636 7.73432 262.776 7.59432C262.916 7.43098 263.091 7.34931 263.301 7.34931H266.206C266.626 7.34931 266.93 7.57098 267.116 8.01431L271.771 19.4243L276.496 8.01431C276.73 7.57098 277.056 7.34931 277.476 7.34931H280.311C280.521 7.34931 280.696 7.41932 280.836 7.55932C280.976 7.69932 281.046 7.86265 281.046 8.04932C281.046 8.21265 281 8.39932 280.906 8.60932L271.001 31.5343C270.815 31.9777 270.488 32.1993 270.021 32.1993H267.221ZM2.69146 75.5493C2.45813 75.5493 2.25979 75.4676 2.09646 75.3043C1.93313 75.141 1.85146 74.9426 1.85146 74.7093V51.9243C1.85146 51.6676 1.92146 51.4576 2.06146 51.2943C2.22479 51.131 2.43479 51.0493 2.69146 51.0493H17.9165C18.1731 51.0493 18.3831 51.131 18.5465 51.2943C18.7098 51.4576 18.7915 51.6676 18.7915 51.9243V54.4443C18.7915 54.6776 18.7098 54.876 18.5465 55.0393C18.3831 55.2026 18.1731 55.2843 17.9165 55.2843H6.71646V61.8643H17.2165C17.4731 61.8643 17.6831 61.946 17.8465 62.1093C18.0098 62.2726 18.0915 62.471 18.0915 62.7043V65.2243C18.0915 65.4576 18.0098 65.656 17.8465 65.8193C17.6831 65.9826 17.4731 66.0643 17.2165 66.0643H6.71646V74.7093C6.71646 74.9426 6.63479 75.141 6.47146 75.3043C6.30813 75.4676 6.09813 75.5493 5.84146 75.5493H2.69146ZM30.0194 75.8993C27.406 75.8993 25.3294 75.1526 23.7894 73.6593C22.2727 72.166 21.4677 70.0426 21.3744 67.2893L21.3394 66.4143C21.3394 63.4976 22.0977 61.1993 23.6144 59.5193C25.1544 57.8393 27.2777 56.9993 29.9844 56.9993C32.761 56.9993 34.896 57.8393 36.3894 59.5193C37.906 61.1993 38.6644 63.4393 38.6644 66.2393V66.9743C38.6644 67.2076 38.5827 67.406 38.4194 67.5693C38.256 67.7326 38.046 67.8143 37.7894 67.8143H26.1694V68.0943C26.216 69.401 26.566 70.486 27.2194 71.3493C27.896 72.1893 28.8177 72.6093 29.9844 72.6093C31.3144 72.6093 32.3994 72.0726 33.2394 70.9993C33.4494 70.7426 33.6127 70.591 33.7294 70.5443C33.846 70.4743 34.0444 70.4393 34.3244 70.4393H37.4044C37.6144 70.4393 37.7894 70.4976 37.9294 70.6143C38.0927 70.731 38.1744 70.8943 38.1744 71.1043C38.1744 71.6643 37.836 72.3293 37.1594 73.0993C36.506 73.846 35.561 74.4993 34.3244 75.0593C33.0877 75.6193 31.6527 75.8993 30.0194 75.8993ZM33.8344 64.8393V64.7693C33.8344 63.3926 33.4844 62.296 32.7844 61.4793C32.1077 60.6393 31.1744 60.2193 29.9844 60.2193C28.7944 60.2193 27.861 60.6393 27.1844 61.4793C26.5077 62.296 26.1694 63.3926 26.1694 64.7693V64.8393H33.8344ZM47.6637 75.8993C46.4737 75.8993 45.3771 75.666 44.3737 75.1993C43.3937 74.7093 42.6121 74.056 42.0287 73.2393C41.4687 72.4226 41.1887 71.5243 41.1887 70.5443C41.1887 68.9576 41.8304 67.6743 43.1137 66.6943C44.3971 65.7143 46.1587 65.0493 48.3987 64.6993L53.1937 63.9993V63.2643C53.1937 62.261 52.9371 61.5026 52.4237 60.9893C51.9104 60.476 51.0937 60.2193 49.9737 60.2193C49.2037 60.2193 48.5854 60.3593 48.1187 60.6393C47.6521 60.9193 47.2671 61.211 46.9637 61.5143C46.6837 61.7943 46.4971 61.981 46.4037 62.0743C46.3104 62.3543 46.1354 62.4943 45.8787 62.4943H43.1487C42.9387 62.4943 42.7521 62.4243 42.5887 62.2843C42.4487 62.1443 42.3787 61.9576 42.3787 61.7243C42.4021 61.141 42.6821 60.4876 43.2187 59.7643C43.7787 59.0176 44.6304 58.376 45.7737 57.8393C46.9171 57.2793 48.3287 56.9993 50.0087 56.9993C52.7621 56.9993 54.7687 57.6176 56.0287 58.8543C57.2887 60.091 57.9187 61.7126 57.9187 63.7193V74.7093C57.9187 74.9426 57.8371 75.141 57.6737 75.3043C57.5337 75.4676 57.3354 75.5493 57.0787 75.5493H54.1737C53.9404 75.5493 53.7421 75.4676 53.5787 75.3043C53.4154 75.141 53.3337 74.9426 53.3337 74.7093V73.3443C52.8204 74.091 52.0971 74.7093 51.1637 75.1993C50.2304 75.666 49.0637 75.8993 47.6637 75.8993ZM48.8537 72.5393C50.1371 72.5393 51.1871 72.1193 52.0037 71.2793C52.8204 70.4393 53.2287 69.226 53.2287 67.6393V66.9393L49.7287 67.4993C47.0454 67.9193 45.7037 68.8176 45.7037 70.1943C45.7037 70.941 46.0071 71.5243 46.6137 71.9443C47.2437 72.341 47.9904 72.5393 48.8537 72.5393ZM70.4971 75.5493C68.3738 75.5493 66.7755 75.001 65.7021 73.9043C64.6288 72.7843 64.0921 71.151 64.0921 69.0043V61.0943H61.3271C61.0938 61.0943 60.8955 61.0126 60.7321 60.8493C60.5688 60.686 60.4871 60.4876 60.4871 60.2543V58.1893C60.4871 57.956 60.5688 57.7576 60.7321 57.5943C60.8955 57.431 61.0938 57.3493 61.3271 57.3493H64.0921V51.5393C64.0921 51.2826 64.1738 51.0843 64.3371 50.9443C64.5005 50.781 64.6988 50.6993 64.9321 50.6993H67.8371C68.0938 50.6993 68.2921 50.781 68.4321 50.9443C68.5955 51.0843 68.6771 51.2826 68.6771 51.5393V57.3493H73.0521C73.2855 57.3493 73.4838 57.431 73.6471 57.5943C73.8105 57.7576 73.8921 57.956 73.8921 58.1893V60.2543C73.8921 60.4876 73.8105 60.686 73.6471 60.8493C73.4838 61.0126 73.2855 61.0943 73.0521 61.0943H68.6771V68.6193C68.6771 69.6226 68.8521 70.381 69.2021 70.8943C69.5521 71.4076 70.1238 71.6643 70.9171 71.6643H73.3671C73.6238 71.6643 73.8221 71.746 73.9621 71.9093C74.1255 72.0493 74.2071 72.2476 74.2071 72.5043V74.7093C74.2071 74.9426 74.1255 75.141 73.9621 75.3043C73.8221 75.4676 73.6238 75.5493 73.3671 75.5493H70.4971ZM84.0654 75.8993C81.9187 75.8993 80.227 75.1993 78.9904 73.7993C77.7537 72.3993 77.1354 70.4743 77.1354 68.0243V58.1893C77.1354 57.9326 77.217 57.7343 77.3804 57.5943C77.5437 57.431 77.742 57.3493 77.9754 57.3493H81.1254C81.3587 57.3493 81.557 57.431 81.7204 57.5943C81.8837 57.7576 81.9654 57.956 81.9654 58.1893V67.8143C81.9654 70.6843 83.2137 72.1193 85.7104 72.1193C86.9237 72.1193 87.8804 71.7343 88.5804 70.9643C89.3037 70.1943 89.6654 69.1443 89.6654 67.8143V58.1893C89.6654 57.9326 89.747 57.7343 89.9104 57.5943C90.0737 57.431 90.272 57.3493 90.5054 57.3493H93.6204C93.877 57.3493 94.0754 57.431 94.2154 57.5943C94.3787 57.7343 94.4604 57.9326 94.4604 58.1893V74.7093C94.4604 74.9426 94.3787 75.141 94.2154 75.3043C94.0754 75.4676 93.877 75.5493 93.6204 75.5493H90.7154C90.482 75.5493 90.2837 75.4676 90.1204 75.3043C89.957 75.141 89.8754 74.9426 89.8754 74.7093V73.2743C88.592 75.0243 86.6554 75.8993 84.0654 75.8993ZM99.9228 75.5493C99.6895 75.5493 99.4912 75.4676 99.3278 75.3043C99.1645 75.141 99.0828 74.9426 99.0828 74.7093V58.2243C99.0828 57.9676 99.1645 57.7576 99.3278 57.5943C99.4912 57.431 99.6895 57.3493 99.9228 57.3493H102.793C103.049 57.3493 103.259 57.431 103.423 57.5943C103.586 57.7576 103.668 57.9676 103.668 58.2243V59.6593C104.834 58.1193 106.514 57.3493 108.708 57.3493H110.178C110.434 57.3493 110.633 57.431 110.773 57.5943C110.936 57.7343 111.018 57.9326 111.018 58.1893V60.7443C111.018 60.9776 110.936 61.176 110.773 61.3393C110.633 61.5026 110.434 61.5843 110.178 61.5843H107.413C106.316 61.5843 105.453 61.8993 104.823 62.5293C104.193 63.1593 103.878 64.0226 103.878 65.1193V74.7093C103.878 74.9426 103.796 75.141 103.633 75.3043C103.469 75.4676 103.271 75.5493 103.038 75.5493H99.9228ZM121.382 75.8993C118.768 75.8993 116.692 75.1526 115.152 73.6593C113.635 72.166 112.83 70.0426 112.737 67.2893L112.702 66.4143C112.702 63.4976 113.46 61.1993 114.977 59.5193C116.517 57.8393 118.64 56.9993 121.347 56.9993C124.123 56.9993 126.258 57.8393 127.752 59.5193C129.268 61.1993 130.027 63.4393 130.027 66.2393V66.9743C130.027 67.2076 129.945 67.406 129.782 67.5693C129.618 67.7326 129.408 67.8143 129.152 67.8143H117.532V68.0943C117.578 69.401 117.928 70.486 118.582 71.3493C119.258 72.1893 120.18 72.6093 121.347 72.6093C122.677 72.6093 123.762 72.0726 124.602 70.9993C124.812 70.7426 124.975 70.591 125.092 70.5443C125.208 70.4743 125.407 70.4393 125.687 70.4393H128.767C128.977 70.4393 129.152 70.4976 129.292 70.6143C129.455 70.731 129.537 70.8943 129.537 71.1043C129.537 71.6643 129.198 72.3293 128.522 73.0993C127.868 73.846 126.923 74.4993 125.687 75.0593C124.45 75.6193 123.015 75.8993 121.382 75.8993ZM125.197 64.8393V64.7693C125.197 63.3926 124.847 62.296 124.147 61.4793C123.47 60.6393 122.537 60.2193 121.347 60.2193C120.157 60.2193 119.223 60.6393 118.547 61.4793C117.87 62.296 117.532 63.3926 117.532 64.7693V64.8393H125.197ZM140.671 75.8993C138.898 75.8993 137.416 75.631 136.226 75.0943C135.036 74.5576 134.149 73.9393 133.566 73.2393C133.006 72.516 132.726 71.8976 132.726 71.3843C132.726 71.151 132.796 70.9643 132.936 70.8243C133.099 70.6843 133.286 70.6143 133.496 70.6143H136.366C136.553 70.6143 136.716 70.7076 136.856 70.8943C136.973 70.9876 137.229 71.2093 137.626 71.5593C138.046 71.9093 138.513 72.1893 139.026 72.3993C139.563 72.586 140.146 72.6793 140.776 72.6793C141.709 72.6793 142.468 72.5043 143.051 72.1543C143.634 71.781 143.926 71.256 143.926 70.5793C143.926 70.1126 143.786 69.7393 143.506 69.4593C143.249 69.156 142.771 68.8876 142.071 68.6543C141.394 68.3976 140.368 68.1176 138.991 67.8143C137.008 67.3943 135.538 66.7526 134.581 65.8893C133.648 65.026 133.181 63.8826 133.181 62.4593C133.181 61.526 133.461 60.651 134.021 59.8343C134.581 58.9943 135.409 58.3176 136.506 57.8043C137.626 57.2676 138.956 56.9993 140.496 56.9993C142.083 56.9993 143.448 57.256 144.591 57.7693C145.734 58.2593 146.598 58.8543 147.181 59.5543C147.788 60.2543 148.091 60.8726 148.091 61.4093C148.091 61.6193 148.009 61.806 147.846 61.9693C147.706 62.1093 147.531 62.1793 147.321 62.1793H144.696C144.439 62.1793 144.241 62.086 144.101 61.8993C143.938 61.7826 143.669 61.5726 143.296 61.2693C142.946 60.9426 142.549 60.686 142.106 60.4993C141.663 60.3126 141.126 60.2193 140.496 60.2193C139.633 60.2193 138.968 60.406 138.501 60.7793C138.034 61.1526 137.801 61.6426 137.801 62.2493C137.801 62.6693 137.906 63.0193 138.116 63.2993C138.349 63.5793 138.804 63.8476 139.481 64.1043C140.158 64.3376 141.173 64.5826 142.526 64.8393C146.726 65.656 148.826 67.4876 148.826 70.3343C148.826 71.991 148.103 73.3326 146.656 74.3593C145.233 75.386 143.238 75.8993 140.671 75.8993ZM167.042 75.5493C166.808 75.5493 166.61 75.4676 166.447 75.3043C166.283 75.141 166.202 74.9426 166.202 74.7093V66.8343L157.907 52.1693C157.837 51.9593 157.802 51.831 157.802 51.7843C157.802 51.5743 157.872 51.3993 158.012 51.2593C158.175 51.1193 158.35 51.0493 158.537 51.0493H161.687C162.13 51.0493 162.492 51.271 162.772 51.7143L168.652 61.8643L174.567 51.7143C174.66 51.551 174.788 51.3993 174.952 51.2593C175.138 51.1193 175.36 51.0493 175.617 51.0493H178.767C178.977 51.0493 179.152 51.1193 179.292 51.2593C179.432 51.3993 179.502 51.5743 179.502 51.7843C179.502 51.9243 179.467 52.0526 179.397 52.1693L171.137 66.8343V74.7093C171.137 74.966 171.055 75.176 170.892 75.3393C170.728 75.4793 170.518 75.5493 170.262 75.5493H167.042ZM187.695 75.8993C184.942 75.8993 182.819 75.1993 181.325 73.7993C179.832 72.3993 179.027 70.4626 178.91 67.9893L178.875 66.4493L178.91 64.9093C179.027 62.4593 179.844 60.5343 181.36 59.1343C182.877 57.711 184.989 56.9993 187.695 56.9993C190.379 56.9993 192.479 57.711 193.995 59.1343C195.512 60.5343 196.329 62.4593 196.445 64.9093C196.469 65.1893 196.48 65.7026 196.48 66.4493C196.48 67.196 196.469 67.7093 196.445 67.9893C196.329 70.4626 195.524 72.3993 194.03 73.7993C192.537 75.1993 190.425 75.8993 187.695 75.8993ZM187.695 72.3643C188.932 72.3643 189.877 71.9793 190.53 71.2093C191.207 70.4393 191.569 69.3076 191.615 67.8143C191.639 67.581 191.65 67.126 191.65 66.4493C191.65 65.7726 191.639 65.3176 191.615 65.0843C191.569 63.591 191.207 62.4593 190.53 61.6893C189.854 60.896 188.909 60.4993 187.695 60.4993C186.459 60.4993 185.502 60.896 184.825 61.6893C184.149 62.4593 183.787 63.591 183.74 65.0843L183.705 66.4493L183.74 67.8143C183.787 69.3076 184.149 70.4393 184.825 71.2093C185.502 71.9793 186.459 72.3643 187.695 72.3643ZM207.112 75.8993C204.966 75.8993 203.274 75.1993 202.037 73.7993C200.801 72.3993 200.182 70.4743 200.182 68.0243V58.1893C200.182 57.9326 200.264 57.7343 200.427 57.5943C200.591 57.431 200.789 57.3493 201.022 57.3493H204.172C204.406 57.3493 204.604 57.431 204.767 57.5943C204.931 57.7576 205.012 57.956 205.012 58.1893V67.8143C205.012 70.6843 206.261 72.1193 208.757 72.1193C209.971 72.1193 210.927 71.7343 211.627 70.9643C212.351 70.1943 212.712 69.1443 212.712 67.8143V58.1893C212.712 57.9326 212.794 57.7343 212.957 57.5943C213.121 57.431 213.319 57.3493 213.552 57.3493H216.667C216.924 57.3493 217.122 57.431 217.262 57.5943C217.426 57.7343 217.507 57.9326 217.507 58.1893V74.7093C217.507 74.9426 217.426 75.141 217.262 75.3043C217.122 75.4676 216.924 75.5493 216.667 75.5493H213.762C213.529 75.5493 213.331 75.4676 213.167 75.3043C213.004 75.141 212.922 74.9426 212.922 74.7093V73.2743C211.639 75.0243 209.702 75.8993 207.112 75.8993ZM239.964 75.8993C236.744 75.8993 234.247 75.0826 232.474 73.4493C230.724 71.7926 229.79 69.4476 229.674 66.4143C229.65 65.7843 229.639 64.7576 229.639 63.3343C229.639 61.8876 229.65 60.8376 229.674 60.1843C229.79 57.1976 230.735 54.876 232.509 53.2193C234.282 51.5393 236.767 50.6993 239.964 50.6993C242.04 50.6993 243.849 51.061 245.389 51.7843C246.929 52.4843 248.119 53.4526 248.959 54.6893C249.822 55.926 250.277 57.3143 250.324 58.8543V58.9243C250.324 59.111 250.242 59.2743 250.079 59.4143C249.939 59.531 249.775 59.5893 249.589 59.5893H246.194C245.914 59.5893 245.704 59.531 245.564 59.4143C245.424 59.2743 245.307 59.041 245.214 58.7143C244.864 57.2676 244.257 56.2526 243.394 55.6693C242.53 55.0626 241.387 54.7593 239.964 54.7593C236.627 54.7593 234.889 56.626 234.749 60.3593C234.725 60.9893 234.714 61.9576 234.714 63.2643C234.714 64.571 234.725 65.5626 234.749 66.2393C234.889 69.9726 236.627 71.8393 239.964 71.8393C241.364 71.8393 242.495 71.5476 243.359 70.9643C244.245 70.3576 244.864 69.331 245.214 67.8843C245.307 67.5576 245.424 67.336 245.564 67.2193C245.704 67.0793 245.914 67.0093 246.194 67.0093H249.589C249.799 67.0093 249.974 67.0793 250.114 67.2193C250.277 67.3593 250.347 67.5343 250.324 67.7443C250.277 69.2843 249.822 70.6726 248.959 71.9093C248.119 73.146 246.929 74.126 245.389 74.8493C243.849 75.5493 242.04 75.8993 239.964 75.8993ZM259.339 75.8993C258.149 75.8993 257.052 75.666 256.049 75.1993C255.069 74.7093 254.287 74.056 253.704 73.2393C253.144 72.4226 252.864 71.5243 252.864 70.5443C252.864 68.9576 253.505 67.6743 254.789 66.6943C256.072 65.7143 257.834 65.0493 260.074 64.6993L264.869 63.9993V63.2643C264.869 62.261 264.612 61.5026 264.099 60.9893C263.585 60.476 262.769 60.2193 261.649 60.2193C260.879 60.2193 260.26 60.3593 259.794 60.6393C259.327 60.9193 258.942 61.211 258.639 61.5143C258.359 61.7943 258.172 61.981 258.079 62.0743C257.985 62.3543 257.81 62.4943 257.554 62.4943H254.824C254.614 62.4943 254.427 62.4243 254.264 62.2843C254.124 62.1443 254.054 61.9576 254.054 61.7243C254.077 61.141 254.357 60.4876 254.894 59.7643C255.454 59.0176 256.305 58.376 257.449 57.8393C258.592 57.2793 260.004 56.9993 261.684 56.9993C264.437 56.9993 266.444 57.6176 267.704 58.8543C268.964 60.091 269.594 61.7126 269.594 63.7193V74.7093C269.594 74.9426 269.512 75.141 269.349 75.3043C269.209 75.4676 269.01 75.5493 268.754 75.5493H265.849C265.615 75.5493 265.417 75.4676 265.254 75.3043C265.09 75.141 265.009 74.9426 265.009 74.7093V73.3443C264.495 74.091 263.772 74.7093 262.839 75.1993C261.905 75.666 260.739 75.8993 259.339 75.8993ZM260.529 72.5393C261.812 72.5393 262.862 72.1193 263.679 71.2793C264.495 70.4393 264.904 69.226 264.904 67.6393V66.9393L261.404 67.4993C258.72 67.9193 257.379 68.8176 257.379 70.1943C257.379 70.941 257.682 71.5243 258.289 71.9443C258.919 72.341 259.665 72.5393 260.529 72.5393ZM274.923 75.5493C274.689 75.5493 274.491 75.4676 274.328 75.3043C274.164 75.141 274.083 74.9426 274.083 74.7093V58.1893C274.083 57.9326 274.164 57.7343 274.328 57.5943C274.491 57.431 274.689 57.3493 274.923 57.3493H277.828C278.084 57.3493 278.283 57.431 278.423 57.5943C278.586 57.7343 278.668 57.9326 278.668 58.1893V59.6243C280.091 57.8743 282.039 56.9993 284.513 56.9993C286.659 56.9993 288.363 57.6993 289.623 59.0993C290.883 60.4993 291.513 62.4243 291.513 64.8743V74.7093C291.513 74.9426 291.431 75.141 291.268 75.3043C291.128 75.4676 290.929 75.5493 290.673 75.5493H287.523C287.289 75.5493 287.091 75.4676 286.928 75.3043C286.764 75.141 286.683 74.9426 286.683 74.7093V65.0843C286.683 63.731 286.344 62.681 285.668 61.9343C285.014 61.1643 284.069 60.7793 282.833 60.7793C281.643 60.7793 280.686 61.1643 279.963 61.9343C279.239 62.7043 278.878 63.7543 278.878 65.0843V74.7093C278.878 74.9426 278.796 75.141 278.633 75.3043C278.493 75.4676 278.294 75.5493 278.038 75.5493H274.923ZM314.142 75.8993C310.968 75.8993 308.507 75.0943 306.757 73.4843C305.007 71.8743 304.132 69.436 304.132 66.1693V51.9243C304.132 51.6676 304.202 51.4576 304.342 51.2943C304.505 51.131 304.715 51.0493 304.972 51.0493H308.192C308.448 51.0493 308.658 51.131 308.822 51.2943C308.985 51.4576 309.067 51.6676 309.067 51.9243V66.1693C309.067 68.0126 309.498 69.401 310.362 70.3343C311.248 71.2676 312.497 71.7343 314.107 71.7343C315.717 71.7343 316.953 71.2676 317.817 70.3343C318.703 69.401 319.147 68.0126 319.147 66.1693V51.9243C319.147 51.6676 319.228 51.4576 319.392 51.2943C319.555 51.131 319.765 51.0493 320.022 51.0493H323.242C323.498 51.0493 323.697 51.131 323.837 51.2943C324 51.4576 324.082 51.6676 324.082 51.9243V66.1693C324.082 69.436 323.207 71.8743 321.457 73.4843C319.73 75.0943 317.292 75.8993 314.142 75.8993ZM335.735 75.8993C333.961 75.8993 332.48 75.631 331.29 75.0943C330.1 74.5576 329.213 73.9393 328.63 73.2393C328.07 72.516 327.79 71.8976 327.79 71.3843C327.79 71.151 327.86 70.9643 328 70.8243C328.163 70.6843 328.35 70.6143 328.56 70.6143H331.43C331.616 70.6143 331.78 70.7076 331.92 70.8943C332.036 70.9876 332.293 71.2093 332.69 71.5593C333.11 71.9093 333.576 72.1893 334.09 72.3993C334.626 72.586 335.21 72.6793 335.84 72.6793C336.773 72.6793 337.531 72.5043 338.115 72.1543C338.698 71.781 338.99 71.256 338.99 70.5793C338.99 70.1126 338.85 69.7393 338.57 69.4593C338.313 69.156 337.835 68.8876 337.135 68.6543C336.458 68.3976 335.431 68.1176 334.055 67.8143C332.071 67.3943 330.601 66.7526 329.645 65.8893C328.711 65.026 328.245 63.8826 328.245 62.4593C328.245 61.526 328.525 60.651 329.085 59.8343C329.645 58.9943 330.473 58.3176 331.57 57.8043C332.69 57.2676 334.02 56.9993 335.56 56.9993C337.146 56.9993 338.511 57.256 339.655 57.7693C340.798 58.2593 341.661 58.8543 342.245 59.5543C342.851 60.2543 343.155 60.8726 343.155 61.4093C343.155 61.6193 343.073 61.806 342.91 61.9693C342.77 62.1093 342.595 62.1793 342.385 62.1793H339.76C339.503 62.1793 339.305 62.086 339.165 61.8993C339.001 61.7826 338.733 61.5726 338.36 61.2693C338.01 60.9426 337.613 60.686 337.17 60.4993C336.726 60.3126 336.19 60.2193 335.56 60.2193C334.696 60.2193 334.031 60.406 333.565 60.7793C333.098 61.1526 332.865 61.6426 332.865 62.2493C332.865 62.6693 332.97 63.0193 333.18 63.2993C333.413 63.5793 333.868 63.8476 334.545 64.1043C335.221 64.3376 336.236 64.5826 337.59 64.8393C341.79 65.656 343.89 67.4876 343.89 70.3343C343.89 71.991 343.166 73.3326 341.72 74.3593C340.296 75.386 338.301 75.8993 335.735 75.8993ZM355.342 75.8993C352.728 75.8993 350.652 75.1526 349.112 73.6593C347.595 72.166 346.79 70.0426 346.697 67.2893L346.662 66.4143C346.662 63.4976 347.42 61.1993 348.937 59.5193C350.477 57.8393 352.6 56.9993 355.307 56.9993C358.083 56.9993 360.218 57.8393 361.712 59.5193C363.228 61.1993 363.987 63.4393 363.987 66.2393V66.9743C363.987 67.2076 363.905 67.406 363.742 67.5693C363.578 67.7326 363.368 67.8143 363.112 67.8143H351.492V68.0943C351.538 69.401 351.888 70.486 352.542 71.3493C353.218 72.1893 354.14 72.6093 355.307 72.6093C356.637 72.6093 357.722 72.0726 358.562 70.9993C358.772 70.7426 358.935 70.591 359.052 70.5443C359.168 70.4743 359.367 70.4393 359.647 70.4393H362.727C362.937 70.4393 363.112 70.4976 363.252 70.6143C363.415 70.731 363.497 70.8943 363.497 71.1043C363.497 71.6643 363.158 72.3293 362.482 73.0993C361.828 73.846 360.883 74.4993 359.647 75.0593C358.41 75.6193 356.975 75.8993 355.342 75.8993ZM359.157 64.8393V64.7693C359.157 63.3926 358.807 62.296 358.107 61.4793C357.43 60.6393 356.497 60.2193 355.307 60.2193C354.117 60.2193 353.183 60.6393 352.507 61.4793C351.83 62.296 351.492 63.3926 351.492 64.7693V64.8393H359.157Z" fill="#0B132A"/>
</svg>
