<svg width="427" height="43" viewBox="0 0 427 43" fill="none" xmlns="http://www.w3.org/2000/svg">
<path d="M4.88946 12.5493C4.78279 12.5493 4.69213 12.5173 4.61746 12.4533C4.55346 12.3786 4.52146 12.288 4.52146 12.1813V8.38932L0.66546 1.87732C0.63346 1.81332 0.61746 1.74398 0.61746 1.66932C0.61746 1.58398 0.64946 1.50932 0.71346 1.44532C0.77746 1.38132 0.852127 1.34932 0.93746 1.34932H1.70546C1.89746 1.34932 2.03613 1.43998 2.12146 1.62132L5.28946 6.85332L8.44146 1.62132C8.54813 1.43998 8.68679 1.34932 8.85746 1.34932H9.62546C9.71079 1.34932 9.78546 1.38132 9.84946 1.44532C9.92413 1.50932 9.96146 1.58398 9.96146 1.66932C9.96146 1.72265 9.94013 1.79198 9.89746 1.87732L6.04146 8.38932V12.1813C6.04146 12.288 6.00413 12.3786 5.92946 12.4533C5.86546 12.5173 5.77479 12.5493 5.65746 12.5493H4.88946ZM13.6662 12.7093C12.4929 12.7093 11.5862 12.3786 10.9462 11.7173C10.3169 11.056 9.98088 10.176 9.93821 9.07732L9.92221 8.38932L9.93821 7.70132C9.98088 6.60265 10.3222 5.72265 10.9622 5.06132C11.6129 4.39998 12.5142 4.06932 13.6662 4.06932C14.8182 4.06932 15.7142 4.39998 16.3542 5.06132C17.0049 5.72265 17.3515 6.60265 17.3942 7.70132C17.4155 7.93598 17.4262 8.16532 17.4262 8.38932C17.4262 8.61332 17.4155 8.84265 17.3942 9.07732C17.3515 10.176 17.0102 11.056 16.3702 11.7173C15.7409 12.3786 14.8395 12.7093 13.6662 12.7093ZM13.6662 11.5093C14.3489 11.5093 14.8875 11.296 15.2822 10.8693C15.6875 10.432 15.9062 9.80798 15.9382 8.99732C15.9489 8.89065 15.9542 8.68798 15.9542 8.38932C15.9542 8.09065 15.9489 7.88798 15.9382 7.78132C15.9062 6.97065 15.6875 6.35198 15.2822 5.92532C14.8875 5.48798 14.3489 5.26932 13.6662 5.26932C12.9835 5.26932 12.4395 5.48798 12.0342 5.92532C11.6395 6.35198 11.4262 6.97065 11.3942 7.78132L11.3782 8.38932L11.3942 8.99732C11.4262 9.80798 11.6395 10.432 12.0342 10.8693C12.4395 11.296 12.9835 11.5093 13.6662 11.5093ZM22.5505 12.7093C21.5371 12.7093 20.7531 12.384 20.1985 11.7333C19.6438 11.072 19.3665 10.1973 19.3665 9.10932V4.59732C19.3665 4.49065 19.3985 4.40532 19.4625 4.34132C19.5371 4.26665 19.6278 4.22932 19.7345 4.22932H20.4705C20.5771 4.22932 20.6625 4.26665 20.7265 4.34132C20.8011 4.40532 20.8385 4.49065 20.8385 4.59732V9.02932C20.8385 10.6506 21.5425 11.4613 22.9505 11.4613C23.6331 11.4613 24.1718 11.248 24.5665 10.8213C24.9718 10.384 25.1745 9.78665 25.1745 9.02932V4.59732C25.1745 4.49065 25.2065 4.40532 25.2705 4.34132C25.3451 4.26665 25.4358 4.22932 25.5425 4.22932H26.2785C26.3851 4.22932 26.4705 4.26665 26.5345 4.34132C26.6091 4.40532 26.6465 4.49065 26.6465 4.59732V12.1813C26.6465 12.288 26.6091 12.3786 26.5345 12.4533C26.4705 12.5173 26.3851 12.5493 26.2785 12.5493H25.5905C25.4838 12.5493 25.3931 12.5173 25.3185 12.4533C25.2545 12.3786 25.2225 12.288 25.2225 12.1813V11.4613C24.9131 11.8773 24.5505 12.192 24.1345 12.4053C23.7185 12.608 23.1905 12.7093 22.5505 12.7093ZM36.3057 12.7093C35.1644 12.7093 34.2737 12.3893 33.6337 11.7493C32.9937 11.0986 32.6577 10.192 32.6257 9.02932L32.6097 8.38932L32.6257 7.74932C32.6577 6.58665 32.9937 5.68532 33.6337 5.04532C34.2737 4.39465 35.1644 4.06932 36.3057 4.06932C37.0737 4.06932 37.719 4.20798 38.2417 4.48532C38.775 4.75198 39.1697 5.08798 39.4257 5.49332C39.6924 5.89865 39.8364 6.30398 39.8577 6.70932C39.8684 6.80532 39.831 6.89065 39.7457 6.96532C39.671 7.03998 39.5857 7.07732 39.4897 7.07732H38.7857C38.679 7.07732 38.599 7.05598 38.5457 7.01332C38.4924 6.95998 38.439 6.86932 38.3857 6.74132C38.1937 6.21865 37.927 5.85065 37.5857 5.63732C37.255 5.41332 36.8337 5.30132 36.3217 5.30132C35.6497 5.30132 35.1164 5.50932 34.7217 5.92532C34.327 6.34132 34.1137 6.97598 34.0817 7.82932L34.0657 8.38932L34.0817 8.94932C34.1137 9.80265 34.327 10.4373 34.7217 10.8533C35.1164 11.2693 35.6497 11.4773 36.3217 11.4773C36.8444 11.4773 37.271 11.3706 37.6017 11.1573C37.9324 10.9333 38.1937 10.56 38.3857 10.0373C38.439 9.90932 38.4924 9.82398 38.5457 9.78132C38.599 9.72798 38.679 9.70132 38.7857 9.70132H39.4897C39.5857 9.70132 39.671 9.73865 39.7457 9.81332C39.831 9.88798 39.8684 9.97332 39.8577 10.0693C39.8364 10.464 39.6924 10.864 39.4257 11.2693C39.1697 11.6746 38.775 12.016 38.2417 12.2933C37.719 12.5706 37.0737 12.7093 36.3057 12.7093ZM44.0786 12.7093C43.5559 12.7093 43.0706 12.6026 42.6226 12.3893C42.1853 12.176 41.8333 11.888 41.5666 11.5253C41.3106 11.152 41.1826 10.7413 41.1826 10.2933C41.1826 9.58932 41.4706 9.01332 42.0466 8.56532C42.6226 8.11732 43.4066 7.81865 44.3986 7.66932L46.7986 7.33332V6.86932C46.7986 5.77065 46.1639 5.22132 44.8946 5.22132C44.4039 5.22132 44.0093 5.32265 43.7106 5.52532C43.4119 5.71732 43.1933 5.94665 43.0546 6.21332C43.0119 6.31998 42.9639 6.39465 42.9106 6.43732C42.8679 6.46932 42.8039 6.48532 42.7186 6.48532H42.0946C41.9986 6.48532 41.9133 6.45332 41.8386 6.38932C41.7746 6.31465 41.7426 6.22932 41.7426 6.13332C41.7426 5.88798 41.8546 5.60532 42.0786 5.28532C42.3133 4.95465 42.6706 4.67198 43.1506 4.43732C43.6306 4.19198 44.2173 4.06932 44.9106 4.06932C46.1053 4.06932 46.9586 4.34665 47.4706 4.90132C47.9933 5.45598 48.2546 6.14932 48.2546 6.98132V12.1813C48.2546 12.288 48.2173 12.3786 48.1426 12.4533C48.0786 12.5173 47.9933 12.5493 47.8866 12.5493H47.1826C47.0759 12.5493 46.9906 12.5173 46.9266 12.4533C46.8626 12.3786 46.8306 12.288 46.8306 12.1813V11.4773C46.5959 11.8293 46.2546 12.1226 45.8066 12.3573C45.3586 12.592 44.7826 12.7093 44.0786 12.7093ZM44.3986 11.5413C45.1026 11.5413 45.6786 11.312 46.1266 10.8533C46.5746 10.3946 46.7986 9.72798 46.7986 8.85332V8.40532L44.9266 8.67732C44.1586 8.78398 43.5773 8.96532 43.1826 9.22132C42.7879 9.47732 42.5906 9.79732 42.5906 10.1813C42.5906 10.6186 42.7666 10.9546 43.1186 11.1893C43.4813 11.424 43.9079 11.5413 44.3986 11.5413ZM50.9395 12.5493C50.8328 12.5493 50.7421 12.5173 50.6675 12.4533C50.6035 12.3786 50.5715 12.288 50.5715 12.1813V4.59732C50.5715 4.49065 50.6035 4.40532 50.6675 4.34132C50.7421 4.26665 50.8328 4.22932 50.9395 4.22932H51.6275C51.7448 4.22932 51.8355 4.26132 51.8995 4.32532C51.9635 4.38932 51.9955 4.47998 51.9955 4.59732V5.30132C52.3155 4.90665 52.6835 4.60265 53.0995 4.38932C53.5261 4.17598 54.0541 4.06932 54.6835 4.06932C55.7075 4.06932 56.5021 4.39998 57.0675 5.06132C57.6328 5.71198 57.9155 6.57598 57.9155 7.65332V12.1813C57.9155 12.288 57.8781 12.3786 57.8035 12.4533C57.7395 12.5173 57.6541 12.5493 57.5475 12.5493H56.8115C56.7048 12.5493 56.6141 12.5173 56.5395 12.4533C56.4755 12.3786 56.4435 12.288 56.4435 12.1813V7.74932C56.4435 6.98132 56.2568 6.38398 55.8835 5.95732C55.5101 5.53065 54.9768 5.31732 54.2835 5.31732C53.6008 5.31732 53.0568 5.53598 52.6515 5.97332C52.2461 6.39998 52.0435 6.99198 52.0435 7.74932V12.1813C52.0435 12.288 52.0061 12.3786 51.9315 12.4533C51.8675 12.5173 51.7821 12.5493 51.6755 12.5493H50.9395ZM67.4612 12.7093C66.3732 12.7093 65.5039 12.3733 64.8532 11.7013C64.2025 11.0186 63.8452 10.0906 63.7812 8.91732L63.7652 8.37332L63.7812 7.84532C63.8452 6.69332 64.2025 5.77598 64.8532 5.09332C65.5039 4.41065 66.3732 4.06932 67.4612 4.06932C68.6345 4.06932 69.5412 4.44265 70.1812 5.18932C70.8319 5.93598 71.1572 6.94932 71.1572 8.22932V8.51732C71.1572 8.62398 71.1199 8.71465 71.0452 8.78932C70.9812 8.85332 70.8959 8.88532 70.7892 8.88532H65.2372V9.02932C65.2692 9.72265 65.4825 10.3146 65.8772 10.8053C66.2719 11.296 66.7945 11.5413 67.4452 11.5413C67.9465 11.5413 68.3519 11.4453 68.6612 11.2533C68.9812 11.0506 69.2212 10.8426 69.3812 10.6293C69.4772 10.5013 69.5519 10.4266 69.6052 10.4053C69.6585 10.3733 69.7492 10.3573 69.8772 10.3573H70.5812C70.6772 10.3573 70.7572 10.384 70.8212 10.4373C70.8959 10.4906 70.9332 10.56 70.9332 10.6453C70.9332 10.88 70.7892 11.1626 70.5012 11.4933C70.2132 11.824 69.8025 12.112 69.2692 12.3573C68.7465 12.592 68.1439 12.7093 67.4612 12.7093ZM69.7012 7.79732V7.74932C69.7012 7.00265 69.4985 6.39465 69.0932 5.92532C68.6879 5.45598 68.1439 5.22132 67.4612 5.22132C66.7679 5.22132 66.2239 5.45598 65.8292 5.92532C65.4345 6.39465 65.2372 7.00265 65.2372 7.74932V7.79732H69.7012ZM72.5468 12.5493C72.4508 12.5493 72.3708 12.5173 72.3068 12.4533C72.2428 12.3893 72.2108 12.3093 72.2108 12.2133C72.2108 12.1173 72.2482 12.016 72.3228 11.9093L75.1068 8.29332L72.4988 4.85332C72.4135 4.73598 72.3708 4.63998 72.3708 4.56532C72.3708 4.46932 72.4028 4.38932 72.4668 4.32532C72.5415 4.26132 72.6215 4.22932 72.7068 4.22932H73.4748C73.6348 4.22932 73.7735 4.31465 73.8908 4.48532L76.0508 7.28532L78.2108 4.48532C78.2748 4.39998 78.3335 4.33598 78.3868 4.29332C78.4508 4.25065 78.5308 4.22932 78.6268 4.22932H79.3628C79.4482 4.22932 79.5228 4.26132 79.5868 4.32532C79.6508 4.38932 79.6828 4.46398 79.6828 4.54932C79.6828 4.65598 79.6455 4.75732 79.5708 4.85332L76.9308 8.32532L79.7148 11.9093C79.7895 12.016 79.8268 12.1173 79.8268 12.2133C79.8268 12.3093 79.7948 12.3893 79.7308 12.4533C79.6668 12.5173 79.5868 12.5493 79.4908 12.5493H78.7068C78.5468 12.5493 78.4082 12.4693 78.2908 12.3093L76.0028 9.34932L73.7148 12.3093C73.6508 12.384 73.5868 12.4426 73.5228 12.4853C73.4695 12.528 73.3948 12.5493 73.2988 12.5493H72.5468ZM81.9086 15.5893C81.8019 15.5893 81.7113 15.5573 81.6366 15.4933C81.5726 15.4293 81.5406 15.3386 81.5406 15.2213V4.59732C81.5406 4.47998 81.5726 4.38932 81.6366 4.32532C81.7113 4.26132 81.8019 4.22932 81.9086 4.22932H82.5806C82.6979 4.22932 82.7886 4.26132 82.8526 4.32532C82.9166 4.38932 82.9486 4.47998 82.9486 4.59732V5.30132C83.5673 4.47998 84.4473 4.06932 85.5886 4.06932C86.7086 4.06932 87.5459 4.42665 88.1006 5.14132C88.6659 5.84532 88.9646 6.74665 88.9966 7.84532C89.0073 7.96265 89.0126 8.14398 89.0126 8.38932C89.0126 8.63465 89.0073 8.81598 88.9966 8.93332C88.9646 10.0213 88.6659 10.9226 88.1006 11.6373C87.5459 12.352 86.7086 12.7093 85.5886 12.7093C84.4473 12.7093 83.5833 12.304 82.9966 11.4933V15.2213C82.9966 15.328 82.9593 15.4133 82.8846 15.4773C82.8206 15.552 82.7353 15.5893 82.6286 15.5893H81.9086ZM85.2846 11.4613C86.0526 11.4613 86.6126 11.2213 86.9646 10.7413C87.3166 10.2613 87.5086 9.63198 87.5406 8.85332C87.5513 8.74665 87.5566 8.59198 87.5566 8.38932C87.5566 6.34132 86.7993 5.31732 85.2846 5.31732C84.5379 5.31732 83.9726 5.56798 83.5886 6.06932C83.2153 6.55998 83.0179 7.14132 82.9966 7.81332C82.9859 7.93065 82.9806 8.13865 82.9806 8.43732C82.9806 8.73598 82.9859 8.94398 82.9966 9.06132C83.0179 9.71198 83.2206 10.2773 83.6046 10.7573C83.9993 11.2266 84.5593 11.4613 85.2846 11.4613ZM91.4086 12.5493C91.3019 12.5493 91.2113 12.5173 91.1366 12.4533C91.0726 12.3786 91.0406 12.288 91.0406 12.1813V1.55732C91.0406 1.43998 91.0726 1.34932 91.1366 1.28532C91.2113 1.22132 91.3019 1.18932 91.4086 1.18932H92.1126C92.2193 1.18932 92.3046 1.22665 92.3686 1.30132C92.4433 1.36532 92.4806 1.45065 92.4806 1.55732V12.1813C92.4806 12.288 92.4433 12.3786 92.3686 12.4533C92.3046 12.5173 92.2193 12.5493 92.1126 12.5493H91.4086ZM98.26 12.7093C97.0866 12.7093 96.18 12.3786 95.54 11.7173C94.9106 11.056 94.5746 10.176 94.532 9.07732L94.516 8.38932L94.532 7.70132C94.5746 6.60265 94.916 5.72265 95.556 5.06132C96.2066 4.39998 97.108 4.06932 98.26 4.06932C99.412 4.06932 100.308 4.39998 100.948 5.06132C101.599 5.72265 101.945 6.60265 101.988 7.70132C102.009 7.93598 102.02 8.16532 102.02 8.38932C102.02 8.61332 102.009 8.84265 101.988 9.07732C101.945 10.176 101.604 11.056 100.964 11.7173C100.335 12.3786 99.4333 12.7093 98.26 12.7093ZM98.26 11.5093C98.9426 11.5093 99.4813 11.296 99.876 10.8693C100.281 10.432 100.5 9.80798 100.532 8.99732C100.543 8.89065 100.548 8.68798 100.548 8.38932C100.548 8.09065 100.543 7.88798 100.532 7.78132C100.5 6.97065 100.281 6.35198 99.876 5.92532C99.4813 5.48798 98.9426 5.26932 98.26 5.26932C97.5773 5.26932 97.0333 5.48798 96.628 5.92532C96.2333 6.35198 96.02 6.97065 95.988 7.78132L95.972 8.38932L95.988 8.99732C96.02 9.80798 96.2333 10.432 96.628 10.8693C97.0333 11.296 97.5773 11.5093 98.26 11.5093ZM104.408 12.5493C104.302 12.5493 104.211 12.5173 104.136 12.4533C104.072 12.3786 104.04 12.288 104.04 12.1813V4.61332C104.04 4.50665 104.072 4.41598 104.136 4.34132C104.211 4.26665 104.302 4.22932 104.408 4.22932H105.08C105.198 4.22932 105.288 4.26665 105.352 4.34132C105.427 4.40532 105.464 4.49598 105.464 4.61332V5.31732C105.902 4.59198 106.643 4.22932 107.688 4.22932H108.312C108.43 4.22932 108.52 4.26132 108.584 4.32532C108.648 4.38932 108.68 4.47998 108.68 4.59732V5.18932C108.68 5.29598 108.648 5.38665 108.584 5.46132C108.52 5.52532 108.43 5.55732 108.312 5.55732H107.4C106.814 5.55732 106.35 5.72798 106.008 6.06932C105.678 6.41065 105.512 6.87465 105.512 7.46132V12.1813C105.512 12.288 105.475 12.3786 105.4 12.4533C105.326 12.5173 105.235 12.5493 105.128 12.5493H104.408ZM113.196 12.7093C112.108 12.7093 111.238 12.3733 110.588 11.7013C109.937 11.0186 109.58 10.0906 109.516 8.91732L109.5 8.37332L109.516 7.84532C109.58 6.69332 109.937 5.77598 110.588 5.09332C111.238 4.41065 112.108 4.06932 113.196 4.06932C114.369 4.06932 115.276 4.44265 115.916 5.18932C116.566 5.93598 116.892 6.94932 116.892 8.22932V8.51732C116.892 8.62398 116.854 8.71465 116.78 8.78932C116.716 8.85332 116.63 8.88532 116.524 8.88532H110.972V9.02932C111.004 9.72265 111.217 10.3146 111.612 10.8053C112.006 11.296 112.529 11.5413 113.18 11.5413C113.681 11.5413 114.086 11.4453 114.396 11.2533C114.716 11.0506 114.956 10.8426 115.116 10.6293C115.212 10.5013 115.286 10.4266 115.34 10.4053C115.393 10.3733 115.484 10.3573 115.612 10.3573H116.316C116.412 10.3573 116.492 10.384 116.556 10.4373C116.63 10.4906 116.668 10.56 116.668 10.6453C116.668 10.88 116.524 11.1626 116.236 11.4933C115.948 11.824 115.537 12.112 115.004 12.3573C114.481 12.592 113.878 12.7093 113.196 12.7093ZM115.436 7.79732V7.74932C115.436 7.00265 115.233 6.39465 114.828 5.92532C114.422 5.45598 113.878 5.22132 113.196 5.22132C112.502 5.22132 111.958 5.45598 111.564 5.92532C111.169 6.39465 110.972 7.00265 110.972 7.74932V7.79732H115.436ZM125.631 12.5493C123.978 12.5493 123.151 11.616 123.151 9.74932V5.46132H121.887C121.78 5.46132 121.695 5.42932 121.631 5.36532C121.567 5.30132 121.535 5.21598 121.535 5.10932V4.59732C121.535 4.49065 121.567 4.40532 121.631 4.34132C121.695 4.26665 121.78 4.22932 121.887 4.22932H123.151V1.55732C123.151 1.45065 123.183 1.36532 123.247 1.30132C123.311 1.22665 123.396 1.18932 123.503 1.18932H124.207C124.314 1.18932 124.399 1.22665 124.463 1.30132C124.538 1.36532 124.575 1.45065 124.575 1.55732V4.22932H126.559C126.666 4.22932 126.751 4.26665 126.815 4.34132C126.89 4.40532 126.927 4.49065 126.927 4.59732V5.10932C126.927 5.21598 126.89 5.30132 126.815 5.36532C126.751 5.42932 126.666 5.46132 126.559 5.46132H124.575V9.63732C124.575 10.1813 124.66 10.592 124.831 10.8693C125.012 11.1466 125.316 11.2853 125.743 11.2853H126.719C126.826 11.2853 126.911 11.3226 126.975 11.3973C127.039 11.4613 127.071 11.5466 127.071 11.6533V12.1813C127.071 12.288 127.039 12.3786 126.975 12.4533C126.911 12.5173 126.826 12.5493 126.719 12.5493H125.631ZM129.018 12.5493C128.911 12.5493 128.821 12.5173 128.746 12.4533C128.682 12.3786 128.65 12.288 128.65 12.1813V1.55732C128.65 1.43998 128.682 1.34932 128.746 1.28532C128.821 1.22132 128.911 1.18932 129.018 1.18932H129.754C129.871 1.18932 129.962 1.22132 130.026 1.28532C130.09 1.34932 130.122 1.43998 130.122 1.55732V5.28532C130.431 4.89065 130.794 4.59198 131.21 4.38932C131.637 4.17598 132.159 4.06932 132.778 4.06932C133.802 4.06932 134.597 4.39998 135.162 5.06132C135.738 5.71198 136.026 6.57598 136.026 7.65332V12.1813C136.026 12.288 135.989 12.3786 135.914 12.4533C135.85 12.5173 135.765 12.5493 135.658 12.5493H134.906C134.799 12.5493 134.709 12.5173 134.634 12.4533C134.57 12.3786 134.538 12.288 134.538 12.1813V7.74932C134.538 6.98132 134.351 6.38398 133.978 5.95732C133.605 5.53065 133.066 5.31732 132.362 5.31732C131.679 5.31732 131.135 5.53598 130.73 5.97332C130.325 6.39998 130.122 6.99198 130.122 7.74932V12.1813C130.122 12.288 130.085 12.3786 130.01 12.4533C129.946 12.5173 129.861 12.5493 129.754 12.5493H129.018ZM141.649 12.7093C140.561 12.7093 139.691 12.3733 139.041 11.7013C138.39 11.0186 138.033 10.0906 137.969 8.91732L137.953 8.37332L137.969 7.84532C138.033 6.69332 138.39 5.77598 139.041 5.09332C139.691 4.41065 140.561 4.06932 141.649 4.06932C142.822 4.06932 143.729 4.44265 144.369 5.18932C145.019 5.93598 145.345 6.94932 145.345 8.22932V8.51732C145.345 8.62398 145.307 8.71465 145.233 8.78932C145.169 8.85332 145.083 8.88532 144.977 8.88532H139.425V9.02932C139.457 9.72265 139.67 10.3146 140.065 10.8053C140.459 11.296 140.982 11.5413 141.633 11.5413C142.134 11.5413 142.539 11.4453 142.849 11.2533C143.169 11.0506 143.409 10.8426 143.569 10.6293C143.665 10.5013 143.739 10.4266 143.793 10.4053C143.846 10.3733 143.937 10.3573 144.065 10.3573H144.769C144.865 10.3573 144.945 10.384 145.009 10.4373C145.083 10.4906 145.121 10.56 145.121 10.6453C145.121 10.88 144.977 11.1626 144.689 11.4933C144.401 11.824 143.99 12.112 143.457 12.3573C142.934 12.592 142.331 12.7093 141.649 12.7093ZM143.889 7.79732V7.74932C143.889 7.00265 143.686 6.39465 143.281 5.92532C142.875 5.45598 142.331 5.22132 141.649 5.22132C140.955 5.22132 140.411 5.45598 140.017 5.92532C139.622 6.39465 139.425 7.00265 139.425 7.74932V7.79732H143.889ZM152.131 12.5493C152.024 12.5493 151.934 12.5173 151.859 12.4533C151.795 12.3786 151.763 12.288 151.763 12.1813V5.46132H150.387C150.28 5.46132 150.19 5.42932 150.115 5.36532C150.051 5.30132 150.019 5.21598 150.019 5.10932V4.59732C150.019 4.49065 150.051 4.40532 150.115 4.34132C150.19 4.26665 150.28 4.22932 150.387 4.22932H151.763V3.42932C151.763 2.56532 151.971 1.89865 152.387 1.42932C152.814 0.949316 153.507 0.709316 154.467 0.709316H155.411C155.518 0.709316 155.603 0.746649 155.667 0.821316C155.742 0.885316 155.779 0.970649 155.779 1.07732V1.58932C155.779 1.69598 155.742 1.78132 155.667 1.84532C155.603 1.90932 155.518 1.94132 155.411 1.94132H154.499C154.008 1.94132 153.667 2.06932 153.475 2.32532C153.283 2.58132 153.187 2.97598 153.187 3.50932V4.22932H155.251C155.358 4.22932 155.443 4.26665 155.507 4.34132C155.582 4.40532 155.619 4.49065 155.619 4.59732V5.10932C155.619 5.21598 155.582 5.30132 155.507 5.36532C155.443 5.42932 155.358 5.46132 155.251 5.46132H153.187V12.1813C153.187 12.288 153.15 12.3786 153.075 12.4533C153.011 12.5173 152.926 12.5493 152.819 12.5493H152.131ZM160.18 12.7093C159.092 12.7093 158.223 12.3733 157.572 11.7013C156.921 11.0186 156.564 10.0906 156.5 8.91732L156.484 8.37332L156.5 7.84532C156.564 6.69332 156.921 5.77598 157.572 5.09332C158.223 4.41065 159.092 4.06932 160.18 4.06932C161.353 4.06932 162.26 4.44265 162.9 5.18932C163.551 5.93598 163.876 6.94932 163.876 8.22932V8.51732C163.876 8.62398 163.839 8.71465 163.764 8.78932C163.7 8.85332 163.615 8.88532 163.508 8.88532H157.956V9.02932C157.988 9.72265 158.201 10.3146 158.596 10.8053C158.991 11.296 159.513 11.5413 160.164 11.5413C160.665 11.5413 161.071 11.4453 161.38 11.2533C161.7 11.0506 161.94 10.8426 162.1 10.6293C162.196 10.5013 162.271 10.4266 162.324 10.4053C162.377 10.3733 162.468 10.3573 162.596 10.3573H163.3C163.396 10.3573 163.476 10.384 163.54 10.4373C163.615 10.4906 163.652 10.56 163.652 10.6453C163.652 10.88 163.508 11.1626 163.22 11.4933C162.932 11.824 162.521 12.112 161.988 12.3573C161.465 12.592 160.863 12.7093 160.18 12.7093ZM162.42 7.79732V7.74932C162.42 7.00265 162.217 6.39465 161.812 5.92532C161.407 5.45598 160.863 5.22132 160.18 5.22132C159.487 5.22132 158.943 5.45598 158.548 5.92532C158.153 6.39465 157.956 7.00265 157.956 7.74932V7.79732H162.42ZM168.125 12.7093C167.603 12.7093 167.117 12.6026 166.669 12.3893C166.232 12.176 165.88 11.888 165.613 11.5253C165.357 11.152 165.229 10.7413 165.229 10.2933C165.229 9.58932 165.517 9.01332 166.093 8.56532C166.669 8.11732 167.453 7.81865 168.445 7.66932L170.845 7.33332V6.86932C170.845 5.77065 170.211 5.22132 168.941 5.22132C168.451 5.22132 168.056 5.32265 167.757 5.52532C167.459 5.71732 167.24 5.94665 167.101 6.21332C167.059 6.31998 167.011 6.39465 166.957 6.43732C166.915 6.46932 166.851 6.48532 166.765 6.48532H166.141C166.045 6.48532 165.96 6.45332 165.885 6.38932C165.821 6.31465 165.789 6.22932 165.789 6.13332C165.789 5.88798 165.901 5.60532 166.125 5.28532C166.36 4.95465 166.717 4.67198 167.197 4.43732C167.677 4.19198 168.264 4.06932 168.957 4.06932C170.152 4.06932 171.005 4.34665 171.517 4.90132C172.04 5.45598 172.301 6.14932 172.301 6.98132V12.1813C172.301 12.288 172.264 12.3786 172.189 12.4533C172.125 12.5173 172.04 12.5493 171.933 12.5493H171.229C171.123 12.5493 171.037 12.5173 170.973 12.4533C170.909 12.3786 170.877 12.288 170.877 12.1813V11.4773C170.643 11.8293 170.301 12.1226 169.853 12.3573C169.405 12.592 168.829 12.7093 168.125 12.7093ZM168.445 11.5413C169.149 11.5413 169.725 11.312 170.173 10.8533C170.621 10.3946 170.845 9.72798 170.845 8.85332V8.40532L168.973 8.67732C168.205 8.78398 167.624 8.96532 167.229 9.22132C166.835 9.47732 166.637 9.79732 166.637 10.1813C166.637 10.6186 166.813 10.9546 167.165 11.1893C167.528 11.424 167.955 11.5413 168.445 11.5413ZM177.74 12.5493C176.087 12.5493 175.26 11.616 175.26 9.74932V5.46132H173.996C173.89 5.46132 173.804 5.42932 173.74 5.36532C173.676 5.30132 173.644 5.21598 173.644 5.10932V4.59732C173.644 4.49065 173.676 4.40532 173.74 4.34132C173.804 4.26665 173.89 4.22932 173.996 4.22932H175.26V1.55732C175.26 1.45065 175.292 1.36532 175.356 1.30132C175.42 1.22665 175.506 1.18932 175.612 1.18932H176.316C176.423 1.18932 176.508 1.22665 176.572 1.30132C176.647 1.36532 176.684 1.45065 176.684 1.55732V4.22932H178.668C178.775 4.22932 178.86 4.26665 178.924 4.34132C178.999 4.40532 179.036 4.49065 179.036 4.59732V5.10932C179.036 5.21598 178.999 5.30132 178.924 5.36532C178.86 5.42932 178.775 5.46132 178.668 5.46132H176.684V9.63732C176.684 10.1813 176.77 10.592 176.94 10.8693C177.122 11.1466 177.426 11.2853 177.852 11.2853H178.828C178.935 11.2853 179.02 11.3226 179.084 11.3973C179.148 11.4613 179.18 11.5466 179.18 11.6533V12.1813C179.18 12.288 179.148 12.3786 179.084 12.4533C179.02 12.5173 178.935 12.5493 178.828 12.5493H177.74ZM183.847 12.7093C182.834 12.7093 182.05 12.384 181.495 11.7333C180.941 11.072 180.663 10.1973 180.663 9.10932V4.59732C180.663 4.49065 180.695 4.40532 180.759 4.34132C180.834 4.26665 180.925 4.22932 181.031 4.22932H181.767C181.874 4.22932 181.959 4.26665 182.023 4.34132C182.098 4.40532 182.135 4.49065 182.135 4.59732V9.02932C182.135 10.6506 182.839 11.4613 184.247 11.4613C184.93 11.4613 185.469 11.248 185.863 10.8213C186.269 10.384 186.471 9.78665 186.471 9.02932V4.59732C186.471 4.49065 186.503 4.40532 186.567 4.34132C186.642 4.26665 186.733 4.22932 186.839 4.22932H187.575C187.682 4.22932 187.767 4.26665 187.831 4.34132C187.906 4.40532 187.943 4.49065 187.943 4.59732V12.1813C187.943 12.288 187.906 12.3786 187.831 12.4533C187.767 12.5173 187.682 12.5493 187.575 12.5493H186.887C186.781 12.5493 186.69 12.5173 186.615 12.4533C186.551 12.3786 186.519 12.288 186.519 12.1813V11.4613C186.21 11.8773 185.847 12.192 185.431 12.4053C185.015 12.608 184.487 12.7093 183.847 12.7093ZM190.705 12.5493C190.598 12.5493 190.508 12.5173 190.433 12.4533C190.369 12.3786 190.337 12.288 190.337 12.1813V4.61332C190.337 4.50665 190.369 4.41598 190.433 4.34132C190.508 4.26665 190.598 4.22932 190.705 4.22932H191.377C191.494 4.22932 191.585 4.26665 191.649 4.34132C191.724 4.40532 191.761 4.49598 191.761 4.61332V5.31732C192.198 4.59198 192.94 4.22932 193.985 4.22932H194.609C194.726 4.22932 194.817 4.26132 194.881 4.32532C194.945 4.38932 194.977 4.47998 194.977 4.59732V5.18932C194.977 5.29598 194.945 5.38665 194.881 5.46132C194.817 5.52532 194.726 5.55732 194.609 5.55732H193.697C193.11 5.55732 192.646 5.72798 192.305 6.06932C191.974 6.41065 191.809 6.87465 191.809 7.46132V12.1813C191.809 12.288 191.772 12.3786 191.697 12.4533C191.622 12.5173 191.532 12.5493 191.425 12.5493H190.705ZM199.492 12.7093C198.404 12.7093 197.535 12.3733 196.884 11.7013C196.234 11.0186 195.876 10.0906 195.812 8.91732L195.796 8.37332L195.812 7.84532C195.876 6.69332 196.234 5.77598 196.884 5.09332C197.535 4.41065 198.404 4.06932 199.492 4.06932C200.666 4.06932 201.572 4.44265 202.212 5.18932C202.863 5.93598 203.188 6.94932 203.188 8.22932V8.51732C203.188 8.62398 203.151 8.71465 203.076 8.78932C203.012 8.85332 202.927 8.88532 202.82 8.88532H197.268V9.02932C197.3 9.72265 197.514 10.3146 197.908 10.8053C198.303 11.296 198.826 11.5413 199.476 11.5413C199.978 11.5413 200.383 11.4453 200.692 11.2533C201.012 11.0506 201.252 10.8426 201.412 10.6293C201.508 10.5013 201.583 10.4266 201.636 10.4053C201.69 10.3733 201.78 10.3573 201.908 10.3573H202.612C202.708 10.3573 202.788 10.384 202.852 10.4373C202.927 10.4906 202.964 10.56 202.964 10.6453C202.964 10.88 202.82 11.1626 202.532 11.4933C202.244 11.824 201.834 12.112 201.3 12.3573C200.778 12.592 200.175 12.7093 199.492 12.7093ZM201.732 7.79732V7.74932C201.732 7.00265 201.53 6.39465 201.124 5.92532C200.719 5.45598 200.175 5.22132 199.492 5.22132C198.799 5.22132 198.255 5.45598 197.86 5.92532C197.466 6.39465 197.268 7.00265 197.268 7.74932V7.79732H201.732ZM207.982 12.7093C207.246 12.7093 206.622 12.592 206.11 12.3573C205.609 12.112 205.235 11.8346 204.99 11.5253C204.745 11.216 204.622 10.96 204.622 10.7573C204.622 10.6506 204.659 10.5706 204.734 10.5173C204.809 10.4533 204.889 10.4213 204.974 10.4213H205.646C205.71 10.4213 205.758 10.432 205.79 10.4533C205.833 10.4746 205.886 10.5226 205.95 10.5973C206.195 10.896 206.467 11.1306 206.766 11.3013C207.075 11.472 207.486 11.5573 207.998 11.5573C208.574 11.5573 209.033 11.4506 209.374 11.2373C209.726 11.024 209.902 10.7146 209.902 10.3093C209.902 10.0426 209.827 9.82932 209.678 9.66932C209.529 9.50932 209.278 9.36532 208.926 9.23732C208.585 9.10932 208.073 8.97065 207.39 8.82132C206.462 8.61865 205.806 8.32532 205.422 7.94132C205.038 7.55732 204.846 7.06132 204.846 6.45332C204.846 6.05865 204.963 5.67998 205.198 5.31732C205.433 4.94398 205.779 4.64532 206.238 4.42132C206.707 4.18665 207.262 4.06932 207.902 4.06932C208.574 4.06932 209.145 4.18132 209.614 4.40532C210.094 4.62932 210.451 4.89065 210.686 5.18932C210.931 5.48798 211.054 5.73865 211.054 5.94132C211.054 6.03732 211.017 6.11732 210.942 6.18132C210.878 6.24532 210.798 6.27732 210.702 6.27732H210.094C209.945 6.27732 209.838 6.21865 209.774 6.10132C209.593 5.89865 209.438 5.74398 209.31 5.63732C209.193 5.51998 209.017 5.42398 208.782 5.34932C208.547 5.26398 208.254 5.22132 207.902 5.22132C207.379 5.22132 206.979 5.33332 206.702 5.55732C206.425 5.77065 206.286 6.05865 206.286 6.42132C206.286 6.64532 206.345 6.83732 206.462 6.99732C206.579 7.14665 206.803 7.29065 207.134 7.42932C207.465 7.55732 207.955 7.69065 208.606 7.82932C209.619 8.04265 210.334 8.34665 210.75 8.74132C211.177 9.13598 211.39 9.64265 211.39 10.2613C211.39 10.72 211.257 11.136 210.99 11.5093C210.734 11.8826 210.345 12.176 209.822 12.3893C209.31 12.6026 208.697 12.7093 207.982 12.7093ZM220.053 12.5493C218.399 12.5493 217.573 11.616 217.573 9.74932V5.46132H216.309C216.202 5.46132 216.117 5.42932 216.053 5.36532C215.989 5.30132 215.957 5.21598 215.957 5.10932V4.59732C215.957 4.49065 215.989 4.40532 216.053 4.34132C216.117 4.26665 216.202 4.22932 216.309 4.22932H217.573V1.55732C217.573 1.45065 217.605 1.36532 217.669 1.30132C217.733 1.22665 217.818 1.18932 217.925 1.18932H218.629C218.735 1.18932 218.821 1.22665 218.885 1.30132C218.959 1.36532 218.997 1.45065 218.997 1.55732V4.22932H220.981C221.087 4.22932 221.173 4.26665 221.237 4.34132C221.311 4.40532 221.349 4.49065 221.349 4.59732V5.10932C221.349 5.21598 221.311 5.30132 221.237 5.36532C221.173 5.42932 221.087 5.46132 220.981 5.46132H218.997V9.63732C218.997 10.1813 219.082 10.592 219.253 10.8693C219.434 11.1466 219.738 11.2853 220.165 11.2853H221.141C221.247 11.2853 221.333 11.3226 221.397 11.3973C221.461 11.4613 221.493 11.5466 221.493 11.6533V12.1813C221.493 12.288 221.461 12.3786 221.397 12.4533C221.333 12.5173 221.247 12.5493 221.141 12.5493H220.053ZM223.44 12.5493C223.333 12.5493 223.243 12.5173 223.168 12.4533C223.104 12.3786 223.072 12.288 223.072 12.1813V1.55732C223.072 1.43998 223.104 1.34932 223.168 1.28532C223.243 1.22132 223.333 1.18932 223.44 1.18932H224.176C224.293 1.18932 224.384 1.22132 224.448 1.28532C224.512 1.34932 224.544 1.43998 224.544 1.55732V5.28532C224.853 4.89065 225.216 4.59198 225.632 4.38932C226.059 4.17598 226.581 4.06932 227.2 4.06932C228.224 4.06932 229.019 4.39998 229.584 5.06132C230.16 5.71198 230.448 6.57598 230.448 7.65332V12.1813C230.448 12.288 230.411 12.3786 230.336 12.4533C230.272 12.5173 230.187 12.5493 230.08 12.5493H229.328C229.221 12.5493 229.131 12.5173 229.056 12.4533C228.992 12.3786 228.96 12.288 228.96 12.1813V7.74932C228.96 6.98132 228.773 6.38398 228.4 5.95732C228.027 5.53065 227.488 5.31732 226.784 5.31732C226.101 5.31732 225.557 5.53598 225.152 5.97332C224.747 6.39998 224.544 6.99198 224.544 7.74932V12.1813C224.544 12.288 224.507 12.3786 224.432 12.4533C224.368 12.5173 224.283 12.5493 224.176 12.5493H223.44ZM235.079 12.7093C234.556 12.7093 234.071 12.6026 233.623 12.3893C233.185 12.176 232.833 11.888 232.567 11.5253C232.311 11.152 232.183 10.7413 232.183 10.2933C232.183 9.58932 232.471 9.01332 233.047 8.56532C233.623 8.11732 234.407 7.81865 235.399 7.66932L237.799 7.33332V6.86932C237.799 5.77065 237.164 5.22132 235.895 5.22132C235.404 5.22132 235.009 5.32265 234.711 5.52532C234.412 5.71732 234.193 5.94665 234.055 6.21332C234.012 6.31998 233.964 6.39465 233.911 6.43732C233.868 6.46932 233.804 6.48532 233.719 6.48532H233.095C232.999 6.48532 232.913 6.45332 232.839 6.38932C232.775 6.31465 232.743 6.22932 232.743 6.13332C232.743 5.88798 232.855 5.60532 233.079 5.28532C233.313 4.95465 233.671 4.67198 234.151 4.43732C234.631 4.19198 235.217 4.06932 235.911 4.06932C237.105 4.06932 237.959 4.34665 238.471 4.90132C238.993 5.45598 239.255 6.14932 239.255 6.98132V12.1813C239.255 12.288 239.217 12.3786 239.143 12.4533C239.079 12.5173 238.993 12.5493 238.887 12.5493H238.183C238.076 12.5493 237.991 12.5173 237.927 12.4533C237.863 12.3786 237.831 12.288 237.831 12.1813V11.4773C237.596 11.8293 237.255 12.1226 236.807 12.3573C236.359 12.592 235.783 12.7093 235.079 12.7093ZM235.399 11.5413C236.103 11.5413 236.679 11.312 237.127 10.8533C237.575 10.3946 237.799 9.72798 237.799 8.85332V8.40532L235.927 8.67732C235.159 8.78398 234.577 8.96532 234.183 9.22132C233.788 9.47732 233.591 9.79732 233.591 10.1813C233.591 10.6186 233.767 10.9546 234.119 11.1893C234.481 11.424 234.908 11.5413 235.399 11.5413ZM244.693 12.5493C243.04 12.5493 242.213 11.616 242.213 9.74932V5.46132H240.949C240.843 5.46132 240.757 5.42932 240.693 5.36532C240.629 5.30132 240.597 5.21598 240.597 5.10932V4.59732C240.597 4.49065 240.629 4.40532 240.693 4.34132C240.757 4.26665 240.843 4.22932 240.949 4.22932H242.213V1.55732C242.213 1.45065 242.245 1.36532 242.309 1.30132C242.373 1.22665 242.459 1.18932 242.565 1.18932H243.269C243.376 1.18932 243.461 1.22665 243.525 1.30132C243.6 1.36532 243.637 1.45065 243.637 1.55732V4.22932H245.621C245.728 4.22932 245.813 4.26665 245.877 4.34132C245.952 4.40532 245.989 4.49065 245.989 4.59732V5.10932C245.989 5.21598 245.952 5.30132 245.877 5.36532C245.813 5.42932 245.728 5.46132 245.621 5.46132H243.637V9.63732C243.637 10.1813 243.723 10.592 243.893 10.8693C244.075 11.1466 244.379 11.2853 244.805 11.2853H245.781C245.888 11.2853 245.973 11.3226 246.037 11.3973C246.101 11.4613 246.133 11.5466 246.133 11.6533V12.1813C246.133 12.288 246.101 12.3786 246.037 12.4533C245.973 12.5173 245.888 12.5493 245.781 12.5493H244.693ZM253.467 12.5493C253.318 12.5493 253.206 12.5173 253.131 12.4533C253.056 12.3893 252.998 12.288 252.955 12.1493L250.683 4.72532L250.651 4.56532C250.651 4.46932 250.683 4.38932 250.747 4.32532C250.811 4.26132 250.891 4.22932 250.987 4.22932H251.643C251.75 4.22932 251.835 4.26132 251.899 4.32532C251.974 4.37865 252.016 4.43198 252.027 4.48532L253.835 10.5973L255.755 4.56532C255.776 4.47998 255.824 4.40532 255.899 4.34132C255.974 4.26665 256.075 4.22932 256.203 4.22932H256.715C256.843 4.22932 256.944 4.26665 257.019 4.34132C257.094 4.40532 257.142 4.47998 257.163 4.56532L259.083 10.5973L260.891 4.48532C260.902 4.43198 260.939 4.37865 261.003 4.32532C261.078 4.26132 261.168 4.22932 261.275 4.22932H261.931C262.027 4.22932 262.107 4.26132 262.171 4.32532C262.235 4.38932 262.267 4.46932 262.267 4.56532L262.235 4.72532L259.963 12.1493C259.92 12.288 259.862 12.3893 259.787 12.4533C259.712 12.5173 259.6 12.5493 259.451 12.5493H258.875C258.598 12.5493 258.416 12.416 258.331 12.1493L256.459 6.35732L254.587 12.1493C254.502 12.416 254.32 12.5493 254.043 12.5493H253.467ZM267.133 12.7093C266.045 12.7093 265.176 12.3733 264.525 11.7013C263.874 11.0186 263.517 10.0906 263.453 8.91732L263.437 8.37332L263.453 7.84532C263.517 6.69332 263.874 5.77598 264.525 5.09332C265.176 4.41065 266.045 4.06932 267.133 4.06932C268.306 4.06932 269.213 4.44265 269.853 5.18932C270.504 5.93598 270.829 6.94932 270.829 8.22932V8.51732C270.829 8.62398 270.792 8.71465 270.717 8.78932C270.653 8.85332 270.568 8.88532 270.461 8.88532H264.909V9.02932C264.941 9.72265 265.154 10.3146 265.549 10.8053C265.944 11.296 266.466 11.5413 267.117 11.5413C267.618 11.5413 268.024 11.4453 268.333 11.2533C268.653 11.0506 268.893 10.8426 269.053 10.6293C269.149 10.5013 269.224 10.4266 269.277 10.4053C269.33 10.3733 269.421 10.3573 269.549 10.3573H270.253C270.349 10.3573 270.429 10.384 270.493 10.4373C270.568 10.4906 270.605 10.56 270.605 10.6453C270.605 10.88 270.461 11.1626 270.173 11.4933C269.885 11.824 269.474 12.112 268.941 12.3573C268.418 12.592 267.816 12.7093 267.133 12.7093ZM269.373 7.79732V7.74932C269.373 7.00265 269.17 6.39465 268.765 5.92532C268.36 5.45598 267.816 5.22132 267.133 5.22132C266.44 5.22132 265.896 5.45598 265.501 5.92532C265.106 6.39465 264.909 7.00265 264.909 7.74932V7.79732H269.373ZM277.096 15.5893C276.989 15.5893 276.899 15.5573 276.824 15.4933C276.76 15.4293 276.728 15.3386 276.728 15.2213V4.59732C276.728 4.47998 276.76 4.38932 276.824 4.32532C276.899 4.26132 276.989 4.22932 277.096 4.22932H277.768C277.885 4.22932 277.976 4.26132 278.04 4.32532C278.104 4.38932 278.136 4.47998 278.136 4.59732V5.30132C278.755 4.47998 279.635 4.06932 280.776 4.06932C281.896 4.06932 282.733 4.42665 283.288 5.14132C283.853 5.84532 284.152 6.74665 284.184 7.84532C284.195 7.96265 284.2 8.14398 284.2 8.38932C284.2 8.63465 284.195 8.81598 284.184 8.93332C284.152 10.0213 283.853 10.9226 283.288 11.6373C282.733 12.352 281.896 12.7093 280.776 12.7093C279.635 12.7093 278.771 12.304 278.184 11.4933V15.2213C278.184 15.328 278.147 15.4133 278.072 15.4773C278.008 15.552 277.923 15.5893 277.816 15.5893H277.096ZM280.472 11.4613C281.24 11.4613 281.8 11.2213 282.152 10.7413C282.504 10.2613 282.696 9.63198 282.728 8.85332C282.739 8.74665 282.744 8.59198 282.744 8.38932C282.744 6.34132 281.987 5.31732 280.472 5.31732C279.725 5.31732 279.16 5.56798 278.776 6.06932C278.403 6.55998 278.205 7.14132 278.184 7.81332C278.173 7.93065 278.168 8.13865 278.168 8.43732C278.168 8.73598 278.173 8.94398 278.184 9.06132C278.205 9.71198 278.408 10.2773 278.792 10.7573C279.187 11.2266 279.747 11.4613 280.472 11.4613ZM286.58 12.5493C286.473 12.5493 286.383 12.5173 286.308 12.4533C286.244 12.3786 286.212 12.288 286.212 12.1813V4.61332C286.212 4.50665 286.244 4.41598 286.308 4.34132C286.383 4.26665 286.473 4.22932 286.58 4.22932H287.252C287.369 4.22932 287.46 4.26665 287.524 4.34132C287.599 4.40532 287.636 4.49598 287.636 4.61332V5.31732C288.073 4.59198 288.815 4.22932 289.86 4.22932H290.484C290.601 4.22932 290.692 4.26132 290.756 4.32532C290.82 4.38932 290.852 4.47998 290.852 4.59732V5.18932C290.852 5.29598 290.82 5.38665 290.756 5.46132C290.692 5.52532 290.601 5.55732 290.484 5.55732H289.572C288.985 5.55732 288.521 5.72798 288.18 6.06932C287.849 6.41065 287.684 6.87465 287.684 7.46132V12.1813C287.684 12.288 287.647 12.3786 287.572 12.4533C287.497 12.5173 287.407 12.5493 287.3 12.5493H286.58ZM295.447 12.7093C294.274 12.7093 293.367 12.3786 292.727 11.7173C292.098 11.056 291.762 10.176 291.719 9.07732L291.703 8.38932L291.719 7.70132C291.762 6.60265 292.103 5.72265 292.743 5.06132C293.394 4.39998 294.295 4.06932 295.447 4.06932C296.599 4.06932 297.495 4.39998 298.135 5.06132C298.786 5.72265 299.133 6.60265 299.175 7.70132C299.197 7.93598 299.207 8.16532 299.207 8.38932C299.207 8.61332 299.197 8.84265 299.175 9.07732C299.133 10.176 298.791 11.056 298.151 11.7173C297.522 12.3786 296.621 12.7093 295.447 12.7093ZM295.447 11.5093C296.13 11.5093 296.669 11.296 297.063 10.8693C297.469 10.432 297.687 9.80798 297.719 8.99732C297.73 8.89065 297.735 8.68798 297.735 8.38932C297.735 8.09065 297.73 7.88798 297.719 7.78132C297.687 6.97065 297.469 6.35198 297.063 5.92532C296.669 5.48798 296.13 5.26932 295.447 5.26932C294.765 5.26932 294.221 5.48798 293.815 5.92532C293.421 6.35198 293.207 6.97065 293.175 7.78132L293.159 8.38932L293.175 8.99732C293.207 9.80798 293.421 10.432 293.815 10.8693C294.221 11.296 294.765 11.5093 295.447 11.5093ZM303.827 12.5493C303.55 12.5493 303.352 12.416 303.235 12.1493L300.259 4.72532C300.248 4.69332 300.243 4.63998 300.243 4.56532C300.243 4.46932 300.275 4.38932 300.339 4.32532C300.403 4.26132 300.478 4.22932 300.563 4.22932H301.299C301.47 4.22932 301.598 4.31465 301.683 4.48532L304.147 10.8693L306.611 4.48532C306.632 4.42132 306.675 4.36265 306.739 4.30932C306.814 4.25598 306.899 4.22932 306.995 4.22932H307.731C307.816 4.22932 307.891 4.26132 307.955 4.32532C308.019 4.38932 308.051 4.46932 308.051 4.56532L308.019 4.72532L305.059 12.1493C304.942 12.416 304.744 12.5493 304.467 12.5493H303.827ZM309.999 2.66132C309.892 2.66132 309.802 2.62932 309.727 2.56532C309.663 2.49065 309.631 2.39998 309.631 2.29332V1.46132C309.631 1.35465 309.663 1.26398 309.727 1.18932C309.802 1.11465 309.892 1.07732 309.999 1.07732H310.943C311.05 1.07732 311.14 1.11465 311.215 1.18932C311.29 1.26398 311.327 1.35465 311.327 1.46132V2.29332C311.327 2.39998 311.29 2.49065 311.215 2.56532C311.14 2.62932 311.05 2.66132 310.943 2.66132H309.999ZM310.127 12.5493C310.02 12.5493 309.93 12.5173 309.855 12.4533C309.791 12.3786 309.759 12.288 309.759 12.1813V4.59732C309.759 4.49065 309.791 4.40532 309.855 4.34132C309.93 4.26665 310.02 4.22932 310.127 4.22932H310.831C310.938 4.22932 311.023 4.26665 311.087 4.34132C311.162 4.40532 311.199 4.49065 311.199 4.59732V12.1813C311.199 12.288 311.162 12.3786 311.087 12.4533C311.023 12.5173 310.938 12.5493 310.831 12.5493H310.127ZM316.643 12.7093C315.523 12.7093 314.68 12.3466 314.115 11.6213C313.56 10.896 313.261 9.97865 313.219 8.86932L313.203 8.38932L313.219 7.90932C313.261 6.81065 313.565 5.89865 314.131 5.17332C314.696 4.43732 315.533 4.06932 316.643 4.06932C317.752 4.06932 318.616 4.46398 319.235 5.25332V1.55732C319.235 1.45065 319.267 1.36532 319.331 1.30132C319.405 1.22665 319.496 1.18932 319.603 1.18932H320.323C320.429 1.18932 320.515 1.22665 320.579 1.30132C320.653 1.36532 320.691 1.45065 320.691 1.55732V12.1813C320.691 12.288 320.653 12.3786 320.579 12.4533C320.515 12.5173 320.429 12.5493 320.323 12.5493H319.635C319.528 12.5493 319.443 12.5173 319.379 12.4533C319.315 12.3786 319.283 12.288 319.283 12.1813V11.4933C318.675 12.304 317.795 12.7093 316.643 12.7093ZM316.947 11.4613C317.693 11.4613 318.253 11.216 318.627 10.7253C319 10.224 319.203 9.63198 319.235 8.94932C319.245 8.83198 319.251 8.62932 319.251 8.34132C319.251 8.04265 319.245 7.83465 319.235 7.71732C319.213 7.06665 319.005 6.50665 318.611 6.03732C318.227 5.55732 317.672 5.31732 316.947 5.31732C316.179 5.31732 315.619 5.55732 315.267 6.03732C314.915 6.51732 314.723 7.14665 314.691 7.92532L314.675 8.38932C314.675 10.4373 315.432 11.4613 316.947 11.4613ZM326.399 12.7093C325.311 12.7093 324.441 12.3733 323.791 11.7013C323.14 11.0186 322.783 10.0906 322.719 8.91732L322.703 8.37332L322.719 7.84532C322.783 6.69332 323.14 5.77598 323.791 5.09332C324.441 4.41065 325.311 4.06932 326.399 4.06932C327.572 4.06932 328.479 4.44265 329.119 5.18932C329.769 5.93598 330.095 6.94932 330.095 8.22932V8.51732C330.095 8.62398 330.057 8.71465 329.983 8.78932C329.919 8.85332 329.833 8.88532 329.727 8.88532H324.175V9.02932C324.207 9.72265 324.42 10.3146 324.815 10.8053C325.209 11.296 325.732 11.5413 326.383 11.5413C326.884 11.5413 327.289 11.4453 327.599 11.2533C327.919 11.0506 328.159 10.8426 328.319 10.6293C328.415 10.5013 328.489 10.4266 328.543 10.4053C328.596 10.3733 328.687 10.3573 328.815 10.3573H329.519C329.615 10.3573 329.695 10.384 329.759 10.4373C329.833 10.4906 329.871 10.56 329.871 10.6453C329.871 10.88 329.727 11.1626 329.439 11.4933C329.151 11.824 328.74 12.112 328.207 12.3573C327.684 12.592 327.081 12.7093 326.399 12.7093ZM328.639 7.79732V7.74932C328.639 7.00265 328.436 6.39465 328.031 5.92532C327.625 5.45598 327.081 5.22132 326.399 5.22132C325.705 5.22132 325.161 5.45598 324.767 5.92532C324.372 6.39465 324.175 7.00265 324.175 7.74932V7.79732H328.639ZM337.811 12.5493C337.661 12.5493 337.549 12.5173 337.475 12.4533C337.4 12.3893 337.341 12.288 337.299 12.1493L335.027 4.72532L334.995 4.56532C334.995 4.46932 335.027 4.38932 335.091 4.32532C335.155 4.26132 335.235 4.22932 335.331 4.22932H335.987C336.093 4.22932 336.179 4.26132 336.243 4.32532C336.317 4.37865 336.36 4.43198 336.371 4.48532L338.179 10.5973L340.099 4.56532C340.12 4.47998 340.168 4.40532 340.243 4.34132C340.317 4.26665 340.419 4.22932 340.547 4.22932H341.059C341.187 4.22932 341.288 4.26665 341.363 4.34132C341.437 4.40532 341.485 4.47998 341.507 4.56532L343.427 10.5973L345.235 4.48532C345.245 4.43198 345.283 4.37865 345.347 4.32532C345.421 4.26132 345.512 4.22932 345.619 4.22932H346.275C346.371 4.22932 346.451 4.26132 346.515 4.32532C346.579 4.38932 346.611 4.46932 346.611 4.56532L346.579 4.72532L344.307 12.1493C344.264 12.288 344.205 12.3893 344.131 12.4533C344.056 12.5173 343.944 12.5493 343.795 12.5493H343.219C342.941 12.5493 342.76 12.416 342.675 12.1493L340.803 6.35732L338.931 12.1493C338.845 12.416 338.664 12.5493 338.387 12.5493H337.811ZM348.64 2.66132C348.533 2.66132 348.442 2.62932 348.368 2.56532C348.304 2.49065 348.272 2.39998 348.272 2.29332V1.46132C348.272 1.35465 348.304 1.26398 348.368 1.18932C348.442 1.11465 348.533 1.07732 348.64 1.07732H349.584C349.69 1.07732 349.781 1.11465 349.856 1.18932C349.93 1.26398 349.968 1.35465 349.968 1.46132V2.29332C349.968 2.39998 349.93 2.49065 349.856 2.56532C349.781 2.62932 349.69 2.66132 349.584 2.66132H348.64ZM348.768 12.5493C348.661 12.5493 348.57 12.5173 348.496 12.4533C348.432 12.3786 348.4 12.288 348.4 12.1813V4.59732C348.4 4.49065 348.432 4.40532 348.496 4.34132C348.57 4.26665 348.661 4.22932 348.768 4.22932H349.472C349.578 4.22932 349.664 4.26665 349.728 4.34132C349.802 4.40532 349.84 4.49065 349.84 4.59732V12.1813C349.84 12.288 349.802 12.3786 349.728 12.4533C349.664 12.5173 349.578 12.5493 349.472 12.5493H348.768ZM355.443 12.5493C353.79 12.5493 352.963 11.616 352.963 9.74932V5.46132H351.699C351.593 5.46132 351.507 5.42932 351.443 5.36532C351.379 5.30132 351.347 5.21598 351.347 5.10932V4.59732C351.347 4.49065 351.379 4.40532 351.443 4.34132C351.507 4.26665 351.593 4.22932 351.699 4.22932H352.963V1.55732C352.963 1.45065 352.995 1.36532 353.059 1.30132C353.123 1.22665 353.209 1.18932 353.315 1.18932H354.019C354.126 1.18932 354.211 1.22665 354.275 1.30132C354.35 1.36532 354.387 1.45065 354.387 1.55732V4.22932H356.371C356.478 4.22932 356.563 4.26665 356.627 4.34132C356.702 4.40532 356.739 4.49065 356.739 4.59732V5.10932C356.739 5.21598 356.702 5.30132 356.627 5.36532C356.563 5.42932 356.478 5.46132 356.371 5.46132H354.387V9.63732C354.387 10.1813 354.473 10.592 354.643 10.8693C354.825 11.1466 355.129 11.2853 355.555 11.2853H356.531C356.638 11.2853 356.723 11.3226 356.787 11.3973C356.851 11.4613 356.883 11.5466 356.883 11.6533V12.1813C356.883 12.288 356.851 12.3786 356.787 12.4533C356.723 12.5173 356.638 12.5493 356.531 12.5493H355.443ZM358.83 12.5493C358.724 12.5493 358.633 12.5173 358.558 12.4533C358.494 12.3786 358.462 12.288 358.462 12.1813V1.55732C358.462 1.43998 358.494 1.34932 358.558 1.28532C358.633 1.22132 358.724 1.18932 358.83 1.18932H359.566C359.684 1.18932 359.774 1.22132 359.838 1.28532C359.902 1.34932 359.934 1.43998 359.934 1.55732V5.28532C360.244 4.89065 360.606 4.59198 361.022 4.38932C361.449 4.17598 361.972 4.06932 362.59 4.06932C363.614 4.06932 364.409 4.39998 364.974 5.06132C365.55 5.71198 365.838 6.57598 365.838 7.65332V12.1813C365.838 12.288 365.801 12.3786 365.726 12.4533C365.662 12.5173 365.577 12.5493 365.47 12.5493H364.718C364.612 12.5493 364.521 12.5173 364.446 12.4533C364.382 12.3786 364.35 12.288 364.35 12.1813V7.74932C364.35 6.98132 364.164 6.38398 363.79 5.95732C363.417 5.53065 362.878 5.31732 362.174 5.31732C361.492 5.31732 360.948 5.53598 360.542 5.97332C360.137 6.39998 359.934 6.99198 359.934 7.74932V12.1813C359.934 12.288 359.897 12.3786 359.822 12.4533C359.758 12.5173 359.673 12.5493 359.566 12.5493H358.83ZM373.006 12.5493C372.899 12.5493 372.809 12.5173 372.734 12.4533C372.67 12.3786 372.638 12.288 372.638 12.1813V5.46132H371.262C371.155 5.46132 371.065 5.42932 370.99 5.36532C370.926 5.30132 370.894 5.21598 370.894 5.10932V4.59732C370.894 4.49065 370.926 4.40532 370.99 4.34132C371.065 4.26665 371.155 4.22932 371.262 4.22932H372.638V3.42932C372.638 2.56532 372.846 1.89865 373.262 1.42932C373.689 0.949316 374.382 0.709316 375.342 0.709316H376.286C376.393 0.709316 376.478 0.746649 376.542 0.821316C376.617 0.885316 376.654 0.970649 376.654 1.07732V1.58932C376.654 1.69598 376.617 1.78132 376.542 1.84532C376.478 1.90932 376.393 1.94132 376.286 1.94132H375.374C374.883 1.94132 374.542 2.06932 374.35 2.32532C374.158 2.58132 374.062 2.97598 374.062 3.50932V4.22932H376.126C376.233 4.22932 376.318 4.26665 376.382 4.34132C376.457 4.40532 376.494 4.49065 376.494 4.59732V5.10932C376.494 5.21598 376.457 5.30132 376.382 5.36532C376.318 5.42932 376.233 5.46132 376.126 5.46132H374.062V12.1813C374.062 12.288 374.025 12.3786 373.95 12.4533C373.886 12.5173 373.801 12.5493 373.694 12.5493H373.006ZM381.019 12.7093C380.006 12.7093 379.222 12.384 378.667 11.7333C378.113 11.072 377.835 10.1973 377.835 9.10932V4.59732C377.835 4.49065 377.867 4.40532 377.931 4.34132C378.006 4.26665 378.097 4.22932 378.203 4.22932H378.939C379.046 4.22932 379.131 4.26665 379.195 4.34132C379.27 4.40532 379.307 4.49065 379.307 4.59732V9.02932C379.307 10.6506 380.011 11.4613 381.419 11.4613C382.102 11.4613 382.641 11.248 383.035 10.8213C383.441 10.384 383.643 9.78665 383.643 9.02932V4.59732C383.643 4.49065 383.675 4.40532 383.739 4.34132C383.814 4.26665 383.905 4.22932 384.011 4.22932H384.747C384.854 4.22932 384.939 4.26665 385.003 4.34132C385.078 4.40532 385.115 4.49065 385.115 4.59732V12.1813C385.115 12.288 385.078 12.3786 385.003 12.4533C384.939 12.5173 384.854 12.5493 384.747 12.5493H384.059C383.953 12.5493 383.862 12.5173 383.787 12.4533C383.723 12.3786 383.691 12.288 383.691 12.1813V11.4613C383.382 11.8773 383.019 12.192 382.603 12.4053C382.187 12.608 381.659 12.7093 381.019 12.7093ZM387.877 12.5493C387.77 12.5493 387.68 12.5173 387.605 12.4533C387.541 12.3786 387.509 12.288 387.509 12.1813V4.59732C387.509 4.49065 387.541 4.40532 387.605 4.34132C387.68 4.26665 387.77 4.22932 387.877 4.22932H388.565C388.682 4.22932 388.773 4.26132 388.837 4.32532C388.901 4.38932 388.933 4.47998 388.933 4.59732V5.30132C389.253 4.90665 389.621 4.60265 390.037 4.38932C390.464 4.17598 390.992 4.06932 391.621 4.06932C392.645 4.06932 393.44 4.39998 394.005 5.06132C394.57 5.71198 394.853 6.57598 394.853 7.65332V12.1813C394.853 12.288 394.816 12.3786 394.741 12.4533C394.677 12.5173 394.592 12.5493 394.485 12.5493H393.749C393.642 12.5493 393.552 12.5173 393.477 12.4533C393.413 12.3786 393.381 12.288 393.381 12.1813V7.74932C393.381 6.98132 393.194 6.38398 392.821 5.95732C392.448 5.53065 391.914 5.31732 391.221 5.31732C390.538 5.31732 389.994 5.53598 389.589 5.97332C389.184 6.39998 388.981 6.99198 388.981 7.74932V12.1813C388.981 12.288 388.944 12.3786 388.869 12.4533C388.805 12.5173 388.72 12.5493 388.613 12.5493H387.877ZM403.407 12.7093C402.884 12.7093 402.399 12.6026 401.951 12.3893C401.513 12.176 401.161 11.888 400.895 11.5253C400.639 11.152 400.511 10.7413 400.511 10.2933C400.511 9.58932 400.799 9.01332 401.375 8.56532C401.951 8.11732 402.735 7.81865 403.727 7.66932L406.127 7.33332V6.86932C406.127 5.77065 405.492 5.22132 404.223 5.22132C403.732 5.22132 403.337 5.32265 403.039 5.52532C402.74 5.71732 402.521 5.94665 402.383 6.21332C402.34 6.31998 402.292 6.39465 402.239 6.43732C402.196 6.46932 402.132 6.48532 402.047 6.48532H401.423C401.327 6.48532 401.241 6.45332 401.167 6.38932C401.103 6.31465 401.071 6.22932 401.071 6.13332C401.071 5.88798 401.183 5.60532 401.407 5.28532C401.641 4.95465 401.999 4.67198 402.479 4.43732C402.959 4.19198 403.545 4.06932 404.239 4.06932C405.433 4.06932 406.287 4.34665 406.799 4.90132C407.321 5.45598 407.583 6.14932 407.583 6.98132V12.1813C407.583 12.288 407.545 12.3786 407.471 12.4533C407.407 12.5173 407.321 12.5493 407.215 12.5493H406.511C406.404 12.5493 406.319 12.5173 406.255 12.4533C406.191 12.3786 406.159 12.288 406.159 12.1813V11.4773C405.924 11.8293 405.583 12.1226 405.135 12.3573C404.687 12.592 404.111 12.7093 403.407 12.7093ZM403.727 11.5413C404.431 11.5413 405.007 11.312 405.455 10.8533C405.903 10.3946 406.127 9.72798 406.127 8.85332V8.40532L404.255 8.67732C403.487 8.78398 402.905 8.96532 402.511 9.22132C402.116 9.47732 401.919 9.79732 401.919 10.1813C401.919 10.6186 402.095 10.9546 402.447 11.1893C402.809 11.424 403.236 11.5413 403.727 11.5413ZM410.268 12.5493C410.161 12.5493 410.07 12.5173 409.996 12.4533C409.932 12.3786 409.9 12.288 409.9 12.1813V4.59732C409.9 4.49065 409.932 4.40532 409.996 4.34132C410.07 4.26665 410.161 4.22932 410.268 4.22932H410.956C411.073 4.22932 411.164 4.26132 411.228 4.32532C411.292 4.38932 411.324 4.47998 411.324 4.59732V5.30132C411.644 4.90665 412.012 4.60265 412.428 4.38932C412.854 4.17598 413.382 4.06932 414.012 4.06932C415.036 4.06932 415.83 4.39998 416.396 5.06132C416.961 5.71198 417.244 6.57598 417.244 7.65332V12.1813C417.244 12.288 417.206 12.3786 417.132 12.4533C417.068 12.5173 416.982 12.5493 416.876 12.5493H416.14C416.033 12.5493 415.942 12.5173 415.868 12.4533C415.804 12.3786 415.772 12.288 415.772 12.1813V7.74932C415.772 6.98132 415.585 6.38398 415.212 5.95732C414.838 5.53065 414.305 5.31732 413.612 5.31732C412.929 5.31732 412.385 5.53598 411.98 5.97332C411.574 6.39998 411.372 6.99198 411.372 7.74932V12.1813C411.372 12.288 411.334 12.3786 411.26 12.4533C411.196 12.5173 411.11 12.5493 411.004 12.5493H410.268ZM422.596 12.7093C421.476 12.7093 420.633 12.3466 420.068 11.6213C419.513 10.896 419.215 9.97865 419.172 8.86932L419.156 8.38932L419.172 7.90932C419.215 6.81065 419.519 5.89865 420.084 5.17332C420.649 4.43732 421.487 4.06932 422.596 4.06932C423.705 4.06932 424.569 4.46398 425.188 5.25332V1.55732C425.188 1.45065 425.22 1.36532 425.284 1.30132C425.359 1.22665 425.449 1.18932 425.556 1.18932H426.276C426.383 1.18932 426.468 1.22665 426.532 1.30132C426.607 1.36532 426.644 1.45065 426.644 1.55732V12.1813C426.644 12.288 426.607 12.3786 426.532 12.4533C426.468 12.5173 426.383 12.5493 426.276 12.5493H425.588C425.481 12.5493 425.396 12.5173 425.332 12.4533C425.268 12.3786 425.236 12.288 425.236 12.1813V11.4933C424.628 12.304 423.748 12.7093 422.596 12.7093ZM422.9 11.4613C423.647 11.4613 424.207 11.216 424.58 10.7253C424.953 10.224 425.156 9.63198 425.188 8.94932C425.199 8.83198 425.204 8.62932 425.204 8.34132C425.204 8.04265 425.199 7.83465 425.188 7.71732C425.167 7.06665 424.959 6.50665 424.564 6.03732C424.18 5.55732 423.625 5.31732 422.9 5.31732C422.132 5.31732 421.572 5.55732 421.22 6.03732C420.868 6.51732 420.676 7.14665 420.644 7.92532L420.628 8.38932C420.628 10.4373 421.385 11.4613 422.9 11.4613ZM1.70546 42.5493C1.59879 42.5493 1.50813 42.5173 1.43346 42.4533C1.36946 42.3786 1.33746 42.288 1.33746 42.1813V31.5573C1.33746 31.44 1.36946 31.3493 1.43346 31.2853C1.50813 31.2213 1.59879 31.1893 1.70546 31.1893H2.44146C2.55879 31.1893 2.64946 31.2213 2.71346 31.2853C2.77746 31.3493 2.80946 31.44 2.80946 31.5573V35.2853C3.11879 34.8906 3.48146 34.592 3.89746 34.3893C4.32413 34.176 4.84679 34.0693 5.46546 34.0693C6.48946 34.0693 7.28413 34.4 7.84946 35.0613C8.42546 35.712 8.71346 36.576 8.71346 37.6533V42.1813C8.71346 42.288 8.67613 42.3786 8.60146 42.4533C8.53746 42.5173 8.45213 42.5493 8.34546 42.5493H7.59346C7.48679 42.5493 7.39613 42.5173 7.32146 42.4533C7.25746 42.3786 7.22546 42.288 7.22546 42.1813V37.7493C7.22546 36.9813 7.03879 36.384 6.66546 35.9573C6.29213 35.5306 5.75346 35.3173 5.04946 35.3173C4.36679 35.3173 3.82279 35.536 3.41746 35.9733C3.01213 36.4 2.80946 36.992 2.80946 37.7493V42.1813C2.80946 42.288 2.77213 42.3786 2.69746 42.4533C2.63346 42.5173 2.54813 42.5493 2.44146 42.5493H1.70546ZM13.3442 42.7093C12.8215 42.7093 12.3362 42.6026 11.8882 42.3893C11.4509 42.176 11.0989 41.888 10.8322 41.5253C10.5762 41.152 10.4482 40.7413 10.4482 40.2933C10.4482 39.5893 10.7362 39.0133 11.3122 38.5653C11.8882 38.1173 12.6722 37.8186 13.6642 37.6693L16.0642 37.3333V36.8693C16.0642 35.7706 15.4295 35.2213 14.1602 35.2213C13.6695 35.2213 13.2749 35.3226 12.9762 35.5253C12.6775 35.7173 12.4589 35.9466 12.3202 36.2133C12.2775 36.32 12.2295 36.3946 12.1762 36.4373C12.1335 36.4693 12.0695 36.4853 11.9842 36.4853H11.3602C11.2642 36.4853 11.1789 36.4533 11.1042 36.3893C11.0402 36.3146 11.0082 36.2293 11.0082 36.1333C11.0082 35.888 11.1202 35.6053 11.3442 35.2853C11.5789 34.9546 11.9362 34.672 12.4162 34.4373C12.8962 34.192 13.4829 34.0693 14.1762 34.0693C15.3709 34.0693 16.2242 34.3466 16.7362 34.9013C17.2589 35.456 17.5202 36.1493 17.5202 36.9813V42.1813C17.5202 42.288 17.4829 42.3786 17.4082 42.4533C17.3442 42.5173 17.2589 42.5493 17.1522 42.5493H16.4482C16.3415 42.5493 16.2562 42.5173 16.1922 42.4533C16.1282 42.3786 16.0962 42.288 16.0962 42.1813V41.4773C15.8615 41.8293 15.5202 42.1226 15.0722 42.3573C14.6242 42.592 14.0482 42.7093 13.3442 42.7093ZM13.6642 41.5413C14.3682 41.5413 14.9442 41.312 15.3922 40.8533C15.8402 40.3946 16.0642 39.728 16.0642 38.8533V38.4053L14.1922 38.6773C13.4242 38.784 12.8429 38.9653 12.4482 39.2213C12.0535 39.4773 11.8562 39.7973 11.8562 40.1813C11.8562 40.6186 12.0322 40.9546 12.3842 41.1893C12.7469 41.424 13.1735 41.5413 13.6642 41.5413ZM22.5768 42.5493C22.2995 42.5493 22.1022 42.416 21.9848 42.1493L19.0088 34.7253C18.9982 34.6933 18.9928 34.64 18.9928 34.5653C18.9928 34.4693 19.0248 34.3893 19.0888 34.3253C19.1528 34.2613 19.2275 34.2293 19.3128 34.2293H20.0488C20.2195 34.2293 20.3475 34.3146 20.4328 34.4853L22.8968 40.8693L25.3608 34.4853C25.3822 34.4213 25.4248 34.3626 25.4888 34.3093C25.5635 34.256 25.6488 34.2293 25.7448 34.2293H26.4808C26.5662 34.2293 26.6408 34.2613 26.7048 34.3253C26.7688 34.3893 26.8008 34.4693 26.8008 34.5653L26.7688 34.7253L23.8088 42.1493C23.6915 42.416 23.4942 42.5493 23.2168 42.5493H22.5768ZM31.5081 42.7093C30.4201 42.7093 29.5508 42.3733 28.9001 41.7013C28.2494 41.0186 27.8921 40.0906 27.8281 38.9173L27.8121 38.3733L27.8281 37.8453C27.8921 36.6933 28.2494 35.776 28.9001 35.0933C29.5508 34.4106 30.4201 34.0693 31.5081 34.0693C32.6814 34.0693 33.5881 34.4426 34.2281 35.1893C34.8788 35.936 35.2041 36.9493 35.2041 38.2293V38.5173C35.2041 38.624 35.1668 38.7146 35.0921 38.7893C35.0281 38.8533 34.9428 38.8853 34.8361 38.8853H29.2841V39.0293C29.3161 39.7226 29.5294 40.3146 29.9241 40.8053C30.3188 41.296 30.8414 41.5413 31.4921 41.5413C31.9934 41.5413 32.3988 41.4453 32.7081 41.2533C33.0281 41.0506 33.2681 40.8426 33.4281 40.6293C33.5241 40.5013 33.5988 40.4266 33.6521 40.4053C33.7054 40.3733 33.7961 40.3573 33.9241 40.3573H34.6281C34.7241 40.3573 34.8041 40.384 34.8681 40.4373C34.9428 40.4906 34.9801 40.56 34.9801 40.6453C34.9801 40.88 34.8361 41.1626 34.5481 41.4933C34.2601 41.824 33.8494 42.112 33.3161 42.3573C32.7934 42.592 32.1908 42.7093 31.5081 42.7093ZM33.7481 37.7973V37.7493C33.7481 37.0026 33.5454 36.3946 33.1401 35.9253C32.7348 35.456 32.1908 35.2213 31.5081 35.2213C30.8148 35.2213 30.2708 35.456 29.8761 35.9253C29.4814 36.3946 29.2841 37.0026 29.2841 37.7493V37.7973H33.7481ZM43.9433 42.5493C42.29 42.5493 41.4633 41.616 41.4633 39.7493V35.4613H40.1993C40.0927 35.4613 40.0073 35.4293 39.9433 35.3653C39.8793 35.3013 39.8473 35.216 39.8473 35.1093V34.5973C39.8473 34.4906 39.8793 34.4053 39.9433 34.3413C40.0073 34.2666 40.0927 34.2293 40.1993 34.2293H41.4633V31.5573C41.4633 31.4506 41.4953 31.3653 41.5593 31.3013C41.6233 31.2266 41.7087 31.1893 41.8153 31.1893H42.5193C42.626 31.1893 42.7113 31.2266 42.7753 31.3013C42.85 31.3653 42.8873 31.4506 42.8873 31.5573V34.2293H44.8713C44.978 34.2293 45.0633 34.2666 45.1273 34.3413C45.202 34.4053 45.2393 34.4906 45.2393 34.5973V35.1093C45.2393 35.216 45.202 35.3013 45.1273 35.3653C45.0633 35.4293 44.978 35.4613 44.8713 35.4613H42.8873V39.6373C42.8873 40.1813 42.9727 40.592 43.1433 40.8693C43.3247 41.1466 43.6287 41.2853 44.0553 41.2853H45.0313C45.138 41.2853 45.2233 41.3226 45.2873 41.3973C45.3513 41.4613 45.3833 41.5466 45.3833 41.6533V42.1813C45.3833 42.288 45.3513 42.3786 45.2873 42.4533C45.2233 42.5173 45.138 42.5493 45.0313 42.5493H43.9433ZM47.3305 42.5493C47.2238 42.5493 47.1331 42.5173 47.0585 42.4533C46.9945 42.3786 46.9625 42.288 46.9625 42.1813V31.5573C46.9625 31.44 46.9945 31.3493 47.0585 31.2853C47.1331 31.2213 47.2238 31.1893 47.3305 31.1893H48.0665C48.1838 31.1893 48.2745 31.2213 48.3385 31.2853C48.4025 31.3493 48.4345 31.44 48.4345 31.5573V35.2853C48.7438 34.8906 49.1065 34.592 49.5225 34.3893C49.9491 34.176 50.4718 34.0693 51.0905 34.0693C52.1145 34.0693 52.9091 34.4 53.4745 35.0613C54.0505 35.712 54.3385 36.576 54.3385 37.6533V42.1813C54.3385 42.288 54.3011 42.3786 54.2265 42.4533C54.1625 42.5173 54.0771 42.5493 53.9705 42.5493H53.2185C53.1118 42.5493 53.0211 42.5173 52.9465 42.4533C52.8825 42.3786 52.8505 42.288 52.8505 42.1813V37.7493C52.8505 36.9813 52.6638 36.384 52.2905 35.9573C51.9171 35.5306 51.3785 35.3173 50.6745 35.3173C49.9918 35.3173 49.4478 35.536 49.0425 35.9733C48.6371 36.4 48.4345 36.992 48.4345 37.7493V42.1813C48.4345 42.288 48.3971 42.3786 48.3225 42.4533C48.2585 42.5173 48.1731 42.5493 48.0665 42.5493H47.3305ZM59.9612 42.7093C58.8732 42.7093 58.0039 42.3733 57.3532 41.7013C56.7025 41.0186 56.3452 40.0906 56.2812 38.9173L56.2652 38.3733L56.2812 37.8453C56.3452 36.6933 56.7025 35.776 57.3532 35.0933C58.0039 34.4106 58.8732 34.0693 59.9612 34.0693C61.1345 34.0693 62.0412 34.4426 62.6812 35.1893C63.3319 35.936 63.6572 36.9493 63.6572 38.2293V38.5173C63.6572 38.624 63.6199 38.7146 63.5452 38.7893C63.4812 38.8533 63.3959 38.8853 63.2892 38.8853H57.7372V39.0293C57.7692 39.7226 57.9825 40.3146 58.3772 40.8053C58.7719 41.296 59.2945 41.5413 59.9452 41.5413C60.4465 41.5413 60.8519 41.4453 61.1612 41.2533C61.4812 41.0506 61.7212 40.8426 61.8812 40.6293C61.9772 40.5013 62.0519 40.4266 62.1052 40.4053C62.1585 40.3733 62.2492 40.3573 62.3772 40.3573H63.0812C63.1772 40.3573 63.2572 40.384 63.3212 40.4373C63.3959 40.4906 63.4332 40.56 63.4332 40.6453C63.4332 40.88 63.2892 41.1626 63.0012 41.4933C62.7132 41.824 62.3025 42.112 61.7692 42.3573C61.2465 42.592 60.6439 42.7093 59.9612 42.7093ZM62.2012 37.7973V37.7493C62.2012 37.0026 61.9985 36.3946 61.5932 35.9253C61.1879 35.456 60.6439 35.2213 59.9612 35.2213C59.2679 35.2213 58.7239 35.456 58.3292 35.9253C57.9345 36.3946 57.7372 37.0026 57.7372 37.7493V37.7973H62.2012ZM65.8427 32.6613C65.736 32.6613 65.6454 32.6293 65.5707 32.5653C65.5067 32.4906 65.4747 32.4 65.4747 32.2933V31.4613C65.4747 31.3546 65.5067 31.264 65.5707 31.1893C65.6454 31.1146 65.736 31.0773 65.8427 31.0773H66.7867C66.8934 31.0773 66.984 31.1146 67.0587 31.1893C67.1334 31.264 67.1707 31.3546 67.1707 31.4613V32.2933C67.1707 32.4 67.1334 32.4906 67.0587 32.5653C66.984 32.6293 66.8934 32.6613 66.7867 32.6613H65.8427ZM65.9707 42.5493C65.864 42.5493 65.7734 42.5173 65.6987 42.4533C65.6347 42.3786 65.6027 42.288 65.6027 42.1813V34.5973C65.6027 34.4906 65.6347 34.4053 65.6987 34.3413C65.7734 34.2666 65.864 34.2293 65.9707 34.2293H66.6747C66.7814 34.2293 66.8667 34.2666 66.9307 34.3413C67.0054 34.4053 67.0427 34.4906 67.0427 34.5973V42.1813C67.0427 42.288 67.0054 42.3786 66.9307 42.4533C66.8667 42.5173 66.7814 42.5493 66.6747 42.5493H65.9707ZM69.8145 42.5493C69.7078 42.5493 69.6171 42.5173 69.5425 42.4533C69.4785 42.3786 69.4465 42.288 69.4465 42.1813V34.6133C69.4465 34.5066 69.4785 34.416 69.5425 34.3413C69.6171 34.2666 69.7078 34.2293 69.8145 34.2293H70.4865C70.6038 34.2293 70.6945 34.2666 70.7585 34.3413C70.8331 34.4053 70.8705 34.496 70.8705 34.6133V35.3173C71.3078 34.592 72.0491 34.2293 73.0945 34.2293H73.7185C73.8358 34.2293 73.9265 34.2613 73.9905 34.3253C74.0545 34.3893 74.0865 34.48 74.0865 34.5973V35.1893C74.0865 35.296 74.0545 35.3866 73.9905 35.4613C73.9265 35.5253 73.8358 35.5573 73.7185 35.5573H72.8065C72.2198 35.5573 71.7558 35.728 71.4145 36.0693C71.0838 36.4106 70.9185 36.8746 70.9185 37.4613V42.1813C70.9185 42.288 70.8811 42.3786 70.8065 42.4533C70.7318 42.5173 70.6411 42.5493 70.5345 42.5493H69.8145ZM82.4006 42.7093C81.2273 42.7093 80.3206 42.3786 79.6806 41.7173C79.0513 41.056 78.7153 40.176 78.6726 39.0773L78.6566 38.3893L78.6726 37.7013C78.7153 36.6026 79.0566 35.7226 79.6966 35.0613C80.3473 34.4 81.2486 34.0693 82.4006 34.0693C83.5526 34.0693 84.4486 34.4 85.0886 35.0613C85.7393 35.7226 86.0859 36.6026 86.1286 37.7013C86.1499 37.936 86.1606 38.1653 86.1606 38.3893C86.1606 38.6133 86.1499 38.8426 86.1286 39.0773C86.0859 40.176 85.7446 41.056 85.1046 41.7173C84.4753 42.3786 83.5739 42.7093 82.4006 42.7093ZM82.4006 41.5093C83.0833 41.5093 83.6219 41.296 84.0166 40.8693C84.4219 40.432 84.6406 39.808 84.6726 38.9973C84.6833 38.8906 84.6886 38.688 84.6886 38.3893C84.6886 38.0906 84.6833 37.888 84.6726 37.7813C84.6406 36.9706 84.4219 36.352 84.0166 35.9253C83.6219 35.488 83.0833 35.2693 82.4006 35.2693C81.7179 35.2693 81.1739 35.488 80.7686 35.9253C80.3739 36.352 80.1606 36.9706 80.1286 37.7813L80.1126 38.3893L80.1286 38.9973C80.1606 39.808 80.3739 40.432 80.7686 40.8693C81.1739 41.296 81.7179 41.5093 82.4006 41.5093ZM90.1701 42.5493C90.0208 42.5493 89.9088 42.5173 89.8341 42.4533C89.7594 42.3893 89.7008 42.288 89.6581 42.1493L87.3861 34.7253L87.3541 34.5653C87.3541 34.4693 87.3861 34.3893 87.4501 34.3253C87.5141 34.2613 87.5941 34.2293 87.6901 34.2293H88.3461C88.4528 34.2293 88.5381 34.2613 88.6021 34.3253C88.6768 34.3786 88.7194 34.432 88.7301 34.4853L90.5381 40.5973L92.4581 34.5653C92.4794 34.48 92.5274 34.4053 92.6021 34.3413C92.6768 34.2666 92.7781 34.2293 92.9061 34.2293H93.4181C93.5461 34.2293 93.6474 34.2666 93.7221 34.3413C93.7968 34.4053 93.8448 34.48 93.8661 34.5653L95.7861 40.5973L97.5941 34.4853C97.6048 34.432 97.6421 34.3786 97.7061 34.3253C97.7808 34.2613 97.8714 34.2293 97.9781 34.2293H98.6341C98.7301 34.2293 98.8101 34.2613 98.8741 34.3253C98.9381 34.3893 98.9701 34.4693 98.9701 34.5653L98.9381 34.7253L96.6661 42.1493C96.6234 42.288 96.5648 42.3893 96.4901 42.4533C96.4154 42.5173 96.3034 42.5493 96.1541 42.5493H95.5781C95.3008 42.5493 95.1194 42.416 95.0341 42.1493L93.1621 36.3573L91.2901 42.1493C91.2048 42.416 91.0234 42.5493 90.7461 42.5493H90.1701ZM101.127 42.5493C101.02 42.5493 100.93 42.5173 100.855 42.4533C100.791 42.3786 100.759 42.288 100.759 42.1813V34.5973C100.759 34.4906 100.791 34.4053 100.855 34.3413C100.93 34.2666 101.02 34.2293 101.127 34.2293H101.815C101.932 34.2293 102.023 34.2613 102.087 34.3253C102.151 34.3893 102.183 34.48 102.183 34.5973V35.3013C102.503 34.9066 102.871 34.6026 103.287 34.3893C103.714 34.176 104.242 34.0693 104.871 34.0693C105.895 34.0693 106.69 34.4 107.255 35.0613C107.82 35.712 108.103 36.576 108.103 37.6533V42.1813C108.103 42.288 108.066 42.3786 107.991 42.4533C107.927 42.5173 107.842 42.5493 107.735 42.5493H106.999C106.892 42.5493 106.802 42.5173 106.727 42.4533C106.663 42.3786 106.631 42.288 106.631 42.1813V37.7493C106.631 36.9813 106.444 36.384 106.071 35.9573C105.698 35.5306 105.164 35.3173 104.471 35.3173C103.788 35.3173 103.244 35.536 102.839 35.9733C102.434 36.4 102.231 36.992 102.231 37.7493V42.1813C102.231 42.288 102.194 42.3786 102.119 42.4533C102.055 42.5173 101.97 42.5493 101.863 42.5493H101.127ZM115.256 42.5493C115.149 42.5493 115.059 42.5173 114.984 42.4533C114.92 42.3786 114.888 42.288 114.888 42.1813V35.4613H113.512C113.405 35.4613 113.315 35.4293 113.24 35.3653C113.176 35.3013 113.144 35.216 113.144 35.1093V34.5973C113.144 34.4906 113.176 34.4053 113.24 34.3413C113.315 34.2666 113.405 34.2293 113.512 34.2293H114.888V33.4293C114.888 32.5653 115.096 31.8986 115.512 31.4293C115.939 30.9493 116.632 30.7093 117.592 30.7093H118.536C118.643 30.7093 118.728 30.7466 118.792 30.8213C118.867 30.8853 118.904 30.9706 118.904 31.0773V31.5893C118.904 31.696 118.867 31.7813 118.792 31.8453C118.728 31.9093 118.643 31.9413 118.536 31.9413H117.624C117.133 31.9413 116.792 32.0693 116.6 32.3253C116.408 32.5813 116.312 32.976 116.312 33.5093V34.2293H118.376C118.483 34.2293 118.568 34.2666 118.632 34.3413C118.707 34.4053 118.744 34.4906 118.744 34.5973V35.1093C118.744 35.216 118.707 35.3013 118.632 35.3653C118.568 35.4293 118.483 35.4613 118.376 35.4613H116.312V42.1813C116.312 42.288 116.275 42.3786 116.2 42.4533C116.136 42.5173 116.051 42.5493 115.944 42.5493H115.256ZM123.269 42.7093C122.256 42.7093 121.472 42.384 120.917 41.7333C120.363 41.072 120.085 40.1973 120.085 39.1093V34.5973C120.085 34.4906 120.117 34.4053 120.181 34.3413C120.256 34.2666 120.347 34.2293 120.453 34.2293H121.189C121.296 34.2293 121.381 34.2666 121.445 34.3413C121.52 34.4053 121.557 34.4906 121.557 34.5973V39.0293C121.557 40.6506 122.261 41.4613 123.669 41.4613C124.352 41.4613 124.891 41.248 125.285 40.8213C125.691 40.384 125.893 39.7866 125.893 39.0293V34.5973C125.893 34.4906 125.925 34.4053 125.989 34.3413C126.064 34.2666 126.155 34.2293 126.261 34.2293H126.997C127.104 34.2293 127.189 34.2666 127.253 34.3413C127.328 34.4053 127.365 34.4906 127.365 34.5973V42.1813C127.365 42.288 127.328 42.3786 127.253 42.4533C127.189 42.5173 127.104 42.5493 126.997 42.5493H126.309C126.203 42.5493 126.112 42.5173 126.037 42.4533C125.973 42.3786 125.941 42.288 125.941 42.1813V41.4613C125.632 41.8773 125.269 42.192 124.853 42.4053C124.437 42.608 123.909 42.7093 123.269 42.7093ZM130.127 42.5493C130.02 42.5493 129.93 42.5173 129.855 42.4533C129.791 42.3786 129.759 42.288 129.759 42.1813V34.5973C129.759 34.4906 129.791 34.4053 129.855 34.3413C129.93 34.2666 130.02 34.2293 130.127 34.2293H130.815C130.932 34.2293 131.023 34.2613 131.087 34.3253C131.151 34.3893 131.183 34.48 131.183 34.5973V35.3013C131.503 34.9066 131.871 34.6026 132.287 34.3893C132.714 34.176 133.242 34.0693 133.871 34.0693C134.895 34.0693 135.69 34.4 136.255 35.0613C136.82 35.712 137.103 36.576 137.103 37.6533V42.1813C137.103 42.288 137.066 42.3786 136.991 42.4533C136.927 42.5173 136.842 42.5493 136.735 42.5493H135.999C135.892 42.5493 135.802 42.5173 135.727 42.4533C135.663 42.3786 135.631 42.288 135.631 42.1813V37.7493C135.631 36.9813 135.444 36.384 135.071 35.9573C134.698 35.5306 134.164 35.3173 133.471 35.3173C132.788 35.3173 132.244 35.536 131.839 35.9733C131.434 36.4 131.231 36.992 131.231 37.7493V42.1813C131.231 42.288 131.194 42.3786 131.119 42.4533C131.055 42.5173 130.97 42.5493 130.863 42.5493H130.127ZM142.743 42.7093C141.602 42.7093 140.711 42.3893 140.071 41.7493C139.431 41.0986 139.095 40.192 139.063 39.0293L139.047 38.3893L139.063 37.7493C139.095 36.5866 139.431 35.6853 140.071 35.0453C140.711 34.3946 141.602 34.0693 142.743 34.0693C143.511 34.0693 144.157 34.208 144.679 34.4853C145.213 34.752 145.607 35.088 145.863 35.4933C146.13 35.8986 146.274 36.304 146.295 36.7093C146.306 36.8053 146.269 36.8906 146.183 36.9653C146.109 37.04 146.023 37.0773 145.927 37.0773H145.223C145.117 37.0773 145.037 37.056 144.983 37.0133C144.93 36.96 144.877 36.8693 144.823 36.7413C144.631 36.2186 144.365 35.8506 144.023 35.6373C143.693 35.4133 143.271 35.3013 142.759 35.3013C142.087 35.3013 141.554 35.5093 141.159 35.9253C140.765 36.3413 140.551 36.976 140.519 37.8293L140.503 38.3893L140.519 38.9493C140.551 39.8026 140.765 40.4373 141.159 40.8533C141.554 41.2693 142.087 41.4773 142.759 41.4773C143.282 41.4773 143.709 41.3706 144.039 41.1573C144.37 40.9333 144.631 40.56 144.823 40.0373C144.877 39.9093 144.93 39.824 144.983 39.7813C145.037 39.728 145.117 39.7013 145.223 39.7013H145.927C146.023 39.7013 146.109 39.7386 146.183 39.8133C146.269 39.888 146.306 39.9733 146.295 40.0693C146.274 40.464 146.13 40.864 145.863 41.2693C145.607 41.6746 145.213 42.016 144.679 42.2933C144.157 42.5706 143.511 42.7093 142.743 42.7093ZM151.412 42.5493C149.759 42.5493 148.932 41.616 148.932 39.7493V35.4613H147.668C147.561 35.4613 147.476 35.4293 147.412 35.3653C147.348 35.3013 147.316 35.216 147.316 35.1093V34.5973C147.316 34.4906 147.348 34.4053 147.412 34.3413C147.476 34.2666 147.561 34.2293 147.668 34.2293H148.932V31.5573C148.932 31.4506 148.964 31.3653 149.028 31.3013C149.092 31.2266 149.177 31.1893 149.284 31.1893H149.988C150.095 31.1893 150.18 31.2266 150.244 31.3013C150.319 31.3653 150.356 31.4506 150.356 31.5573V34.2293H152.34C152.447 34.2293 152.532 34.2666 152.596 34.3413C152.671 34.4053 152.708 34.4906 152.708 34.5973V35.1093C152.708 35.216 152.671 35.3013 152.596 35.3653C152.532 35.4293 152.447 35.4613 152.34 35.4613H150.356V39.6373C150.356 40.1813 150.441 40.592 150.612 40.8693C150.793 41.1466 151.097 41.2853 151.524 41.2853H152.5C152.607 41.2853 152.692 41.3226 152.756 41.3973C152.82 41.4613 152.852 41.5466 152.852 41.6533V42.1813C152.852 42.288 152.82 42.3786 152.756 42.4533C152.692 42.5173 152.607 42.5493 152.5 42.5493H151.412ZM154.655 32.6613C154.549 32.6613 154.458 32.6293 154.383 32.5653C154.319 32.4906 154.287 32.4 154.287 32.2933V31.4613C154.287 31.3546 154.319 31.264 154.383 31.1893C154.458 31.1146 154.549 31.0773 154.655 31.0773H155.599C155.706 31.0773 155.797 31.1146 155.871 31.1893C155.946 31.264 155.983 31.3546 155.983 31.4613V32.2933C155.983 32.4 155.946 32.4906 155.871 32.5653C155.797 32.6293 155.706 32.6613 155.599 32.6613H154.655ZM154.783 42.5493C154.677 42.5493 154.586 42.5173 154.511 42.4533C154.447 42.3786 154.415 42.288 154.415 42.1813V34.5973C154.415 34.4906 154.447 34.4053 154.511 34.3413C154.586 34.2666 154.677 34.2293 154.783 34.2293H155.487C155.594 34.2293 155.679 34.2666 155.743 34.3413C155.818 34.4053 155.855 34.4906 155.855 34.5973V42.1813C155.855 42.288 155.818 42.3786 155.743 42.4533C155.679 42.5173 155.594 42.5493 155.487 42.5493H154.783ZM161.635 42.7093C160.462 42.7093 159.555 42.3786 158.915 41.7173C158.286 41.056 157.95 40.176 157.907 39.0773L157.891 38.3893L157.907 37.7013C157.95 36.6026 158.291 35.7226 158.931 35.0613C159.582 34.4 160.483 34.0693 161.635 34.0693C162.787 34.0693 163.683 34.4 164.323 35.0613C164.974 35.7226 165.32 36.6026 165.363 37.7013C165.384 37.936 165.395 38.1653 165.395 38.3893C165.395 38.6133 165.384 38.8426 165.363 39.0773C165.32 40.176 164.979 41.056 164.339 41.7173C163.71 42.3786 162.808 42.7093 161.635 42.7093ZM161.635 41.5093C162.318 41.5093 162.856 41.296 163.251 40.8693C163.656 40.432 163.875 39.808 163.907 38.9973C163.918 38.8906 163.923 38.688 163.923 38.3893C163.923 38.0906 163.918 37.888 163.907 37.7813C163.875 36.9706 163.656 36.352 163.251 35.9253C162.856 35.488 162.318 35.2693 161.635 35.2693C160.952 35.2693 160.408 35.488 160.003 35.9253C159.608 36.352 159.395 36.9706 159.363 37.7813L159.347 38.3893L159.363 38.9973C159.395 39.808 159.608 40.432 160.003 40.8693C160.408 41.296 160.952 41.5093 161.635 41.5093ZM167.783 42.5493C167.677 42.5493 167.586 42.5173 167.511 42.4533C167.447 42.3786 167.415 42.288 167.415 42.1813V34.5973C167.415 34.4906 167.447 34.4053 167.511 34.3413C167.586 34.2666 167.677 34.2293 167.783 34.2293H168.471C168.589 34.2293 168.679 34.2613 168.743 34.3253C168.807 34.3893 168.839 34.48 168.839 34.5973V35.3013C169.159 34.9066 169.527 34.6026 169.943 34.3893C170.37 34.176 170.898 34.0693 171.527 34.0693C172.551 34.0693 173.346 34.4 173.911 35.0613C174.477 35.712 174.759 36.576 174.759 37.6533V42.1813C174.759 42.288 174.722 42.3786 174.647 42.4533C174.583 42.5173 174.498 42.5493 174.391 42.5493H173.655C173.549 42.5493 173.458 42.5173 173.383 42.4533C173.319 42.3786 173.287 42.288 173.287 42.1813V37.7493C173.287 36.9813 173.101 36.384 172.727 35.9573C172.354 35.5306 171.821 35.3173 171.127 35.3173C170.445 35.3173 169.901 35.536 169.495 35.9733C169.09 36.4 168.887 36.992 168.887 37.7493V42.1813C168.887 42.288 168.85 42.3786 168.775 42.4533C168.711 42.5173 168.626 42.5493 168.519 42.5493H167.783ZM179.919 42.7093C179.183 42.7093 178.559 42.592 178.047 42.3573C177.546 42.112 177.173 41.8346 176.927 41.5253C176.682 41.216 176.559 40.96 176.559 40.7573C176.559 40.6506 176.597 40.5706 176.671 40.5173C176.746 40.4533 176.826 40.4213 176.911 40.4213H177.583C177.647 40.4213 177.695 40.432 177.727 40.4533C177.77 40.4746 177.823 40.5226 177.887 40.5973C178.133 40.896 178.405 41.1306 178.703 41.3013C179.013 41.472 179.423 41.5573 179.935 41.5573C180.511 41.5573 180.97 41.4506 181.311 41.2373C181.663 41.024 181.839 40.7146 181.839 40.3093C181.839 40.0426 181.765 39.8293 181.615 39.6693C181.466 39.5093 181.215 39.3653 180.863 39.2373C180.522 39.1093 180.01 38.9706 179.327 38.8213C178.399 38.6186 177.743 38.3253 177.359 37.9413C176.975 37.5573 176.783 37.0613 176.783 36.4533C176.783 36.0586 176.901 35.68 177.135 35.3173C177.37 34.944 177.717 34.6453 178.175 34.4213C178.645 34.1866 179.199 34.0693 179.839 34.0693C180.511 34.0693 181.082 34.1813 181.551 34.4053C182.031 34.6293 182.389 34.8906 182.623 35.1893C182.869 35.488 182.991 35.7386 182.991 35.9413C182.991 36.0373 182.954 36.1173 182.879 36.1813C182.815 36.2453 182.735 36.2773 182.639 36.2773H182.031C181.882 36.2773 181.775 36.2186 181.711 36.1013C181.53 35.8986 181.375 35.744 181.247 35.6373C181.13 35.52 180.954 35.424 180.719 35.3493C180.485 35.264 180.191 35.2213 179.839 35.2213C179.317 35.2213 178.917 35.3333 178.639 35.5573C178.362 35.7706 178.223 36.0586 178.223 36.4213C178.223 36.6453 178.282 36.8373 178.399 36.9973C178.517 37.1466 178.741 37.2906 179.071 37.4293C179.402 37.5573 179.893 37.6906 180.543 37.8293C181.557 38.0426 182.271 38.3466 182.687 38.7413C183.114 39.136 183.327 39.6426 183.327 40.2613C183.327 40.72 183.194 41.136 182.927 41.5093C182.671 41.8826 182.282 42.176 181.759 42.3893C181.247 42.6026 180.634 42.7093 179.919 42.7093ZM192.43 42.7093C191.342 42.7093 190.473 42.3733 189.822 41.7013C189.171 41.0186 188.814 40.0906 188.75 38.9173L188.734 38.3733L188.75 37.8453C188.814 36.6933 189.171 35.776 189.822 35.0933C190.473 34.4106 191.342 34.0693 192.43 34.0693C193.603 34.0693 194.51 34.4426 195.15 35.1893C195.801 35.936 196.126 36.9493 196.126 38.2293V38.5173C196.126 38.624 196.089 38.7146 196.014 38.7893C195.95 38.8533 195.865 38.8853 195.758 38.8853H190.206V39.0293C190.238 39.7226 190.451 40.3146 190.846 40.8053C191.241 41.296 191.763 41.5413 192.414 41.5413C192.915 41.5413 193.321 41.4453 193.63 41.2533C193.95 41.0506 194.19 40.8426 194.35 40.6293C194.446 40.5013 194.521 40.4266 194.574 40.4053C194.627 40.3733 194.718 40.3573 194.846 40.3573H195.55C195.646 40.3573 195.726 40.384 195.79 40.4373C195.865 40.4906 195.902 40.56 195.902 40.6453C195.902 40.88 195.758 41.1626 195.47 41.4933C195.182 41.824 194.771 42.112 194.238 42.3573C193.715 42.592 193.113 42.7093 192.43 42.7093ZM194.67 37.7973V37.7493C194.67 37.0026 194.467 36.3946 194.062 35.9253C193.657 35.456 193.113 35.2213 192.43 35.2213C191.737 35.2213 191.193 35.456 190.798 35.9253C190.403 36.3946 190.206 37.0026 190.206 37.7493V37.7973H194.67ZM200.375 42.7093C199.853 42.7093 199.367 42.6026 198.919 42.3893C198.482 42.176 198.13 41.888 197.863 41.5253C197.607 41.152 197.479 40.7413 197.479 40.2933C197.479 39.5893 197.767 39.0133 198.343 38.5653C198.919 38.1173 199.703 37.8186 200.695 37.6693L203.095 37.3333V36.8693C203.095 35.7706 202.461 35.2213 201.191 35.2213C200.701 35.2213 200.306 35.3226 200.007 35.5253C199.709 35.7173 199.49 35.9466 199.351 36.2133C199.309 36.32 199.261 36.3946 199.207 36.4373C199.165 36.4693 199.101 36.4853 199.015 36.4853H198.391C198.295 36.4853 198.21 36.4533 198.135 36.3893C198.071 36.3146 198.039 36.2293 198.039 36.1333C198.039 35.888 198.151 35.6053 198.375 35.2853C198.61 34.9546 198.967 34.672 199.447 34.4373C199.927 34.192 200.514 34.0693 201.207 34.0693C202.402 34.0693 203.255 34.3466 203.767 34.9013C204.29 35.456 204.551 36.1493 204.551 36.9813V42.1813C204.551 42.288 204.514 42.3786 204.439 42.4533C204.375 42.5173 204.29 42.5493 204.183 42.5493H203.479C203.373 42.5493 203.287 42.5173 203.223 42.4533C203.159 42.3786 203.127 42.288 203.127 42.1813V41.4773C202.893 41.8293 202.551 42.1226 202.103 42.3573C201.655 42.592 201.079 42.7093 200.375 42.7093ZM200.695 41.5413C201.399 41.5413 201.975 41.312 202.423 40.8533C202.871 40.3946 203.095 39.728 203.095 38.8533V38.4053L201.223 38.6773C200.455 38.784 199.874 38.9653 199.479 39.2213C199.085 39.4773 198.887 39.7973 198.887 40.1813C198.887 40.6186 199.063 40.9546 199.415 41.1893C199.778 41.424 200.205 41.5413 200.695 41.5413ZM210.196 42.7093C209.055 42.7093 208.164 42.3893 207.524 41.7493C206.884 41.0986 206.548 40.192 206.516 39.0293L206.5 38.3893L206.516 37.7493C206.548 36.5866 206.884 35.6853 207.524 35.0453C208.164 34.3946 209.055 34.0693 210.196 34.0693C210.964 34.0693 211.61 34.208 212.132 34.4853C212.666 34.752 213.06 35.088 213.316 35.4933C213.583 35.8986 213.727 36.304 213.748 36.7093C213.759 36.8053 213.722 36.8906 213.636 36.9653C213.562 37.04 213.476 37.0773 213.38 37.0773H212.676C212.57 37.0773 212.49 37.056 212.436 37.0133C212.383 36.96 212.33 36.8693 212.276 36.7413C212.084 36.2186 211.818 35.8506 211.476 35.6373C211.146 35.4133 210.724 35.3013 210.212 35.3013C209.54 35.3013 209.007 35.5093 208.612 35.9253C208.218 36.3413 208.004 36.976 207.972 37.8293L207.956 38.3893L207.972 38.9493C208.004 39.8026 208.218 40.4373 208.612 40.8533C209.007 41.2693 209.54 41.4773 210.212 41.4773C210.735 41.4773 211.162 41.3706 211.492 41.1573C211.823 40.9333 212.084 40.56 212.276 40.0373C212.33 39.9093 212.383 39.824 212.436 39.7813C212.49 39.728 212.57 39.7013 212.676 39.7013H213.38C213.476 39.7013 213.562 39.7386 213.636 39.8133C213.722 39.888 213.759 39.9733 213.748 40.0693C213.727 40.464 213.583 40.864 213.316 41.2693C213.06 41.6746 212.666 42.016 212.132 42.2933C211.61 42.5706 210.964 42.7093 210.196 42.7093ZM216.049 42.5493C215.943 42.5493 215.852 42.5173 215.777 42.4533C215.713 42.3786 215.681 42.288 215.681 42.1813V31.5573C215.681 31.44 215.713 31.3493 215.777 31.2853C215.852 31.2213 215.943 31.1893 216.049 31.1893H216.785C216.903 31.1893 216.993 31.2213 217.057 31.2853C217.121 31.3493 217.153 31.44 217.153 31.5573V35.2853C217.463 34.8906 217.825 34.592 218.241 34.3893C218.668 34.176 219.191 34.0693 219.809 34.0693C220.833 34.0693 221.628 34.4 222.193 35.0613C222.769 35.712 223.057 36.576 223.057 37.6533V42.1813C223.057 42.288 223.02 42.3786 222.945 42.4533C222.881 42.5173 222.796 42.5493 222.689 42.5493H221.937C221.831 42.5493 221.74 42.5173 221.665 42.4533C221.601 42.3786 221.569 42.288 221.569 42.1813V37.7493C221.569 36.9813 221.383 36.384 221.009 35.9573C220.636 35.5306 220.097 35.3173 219.393 35.3173C218.711 35.3173 218.167 35.536 217.761 35.9733C217.356 36.4 217.153 36.992 217.153 37.7493V42.1813C217.153 42.288 217.116 42.3786 217.041 42.4533C216.977 42.5173 216.892 42.5493 216.785 42.5493H216.049ZM230.225 42.5493C230.118 42.5493 230.027 42.5173 229.953 42.4533C229.889 42.3786 229.857 42.288 229.857 42.1813V35.4613H228.481C228.374 35.4613 228.283 35.4293 228.209 35.3653C228.145 35.3013 228.113 35.216 228.113 35.1093V34.5973C228.113 34.4906 228.145 34.4053 228.209 34.3413C228.283 34.2666 228.374 34.2293 228.481 34.2293H229.857V33.4293C229.857 32.5653 230.065 31.8986 230.481 31.4293C230.907 30.9493 231.601 30.7093 232.561 30.7093H233.505C233.611 30.7093 233.697 30.7466 233.761 30.8213C233.835 30.8853 233.873 30.9706 233.873 31.0773V31.5893C233.873 31.696 233.835 31.7813 233.761 31.8453C233.697 31.9093 233.611 31.9413 233.505 31.9413H232.593C232.102 31.9413 231.761 32.0693 231.569 32.3253C231.377 32.5813 231.281 32.976 231.281 33.5093V34.2293H233.345C233.451 34.2293 233.537 34.2666 233.601 34.3413C233.675 34.4053 233.713 34.4906 233.713 34.5973V35.1093C233.713 35.216 233.675 35.3013 233.601 35.3653C233.537 35.4293 233.451 35.4613 233.345 35.4613H231.281V42.1813C231.281 42.288 231.243 42.3786 231.169 42.4533C231.105 42.5173 231.019 42.5493 230.913 42.5493H230.225ZM238.274 42.7093C237.186 42.7093 236.316 42.3733 235.666 41.7013C235.015 41.0186 234.658 40.0906 234.594 38.9173L234.578 38.3733L234.594 37.8453C234.658 36.6933 235.015 35.776 235.666 35.0933C236.316 34.4106 237.186 34.0693 238.274 34.0693C239.447 34.0693 240.354 34.4426 240.994 35.1893C241.644 35.936 241.97 36.9493 241.97 38.2293V38.5173C241.97 38.624 241.932 38.7146 241.858 38.7893C241.794 38.8533 241.708 38.8853 241.602 38.8853H236.05V39.0293C236.082 39.7226 236.295 40.3146 236.69 40.8053C237.084 41.296 237.607 41.5413 238.258 41.5413C238.759 41.5413 239.164 41.4453 239.474 41.2533C239.794 41.0506 240.034 40.8426 240.194 40.6293C240.29 40.5013 240.364 40.4266 240.418 40.4053C240.471 40.3733 240.562 40.3573 240.69 40.3573H241.394C241.49 40.3573 241.57 40.384 241.634 40.4373C241.708 40.4906 241.746 40.56 241.746 40.6453C241.746 40.88 241.602 41.1626 241.314 41.4933C241.026 41.824 240.615 42.112 240.082 42.3573C239.559 42.592 238.956 42.7093 238.274 42.7093ZM240.514 37.7973V37.7493C240.514 37.0026 240.311 36.3946 239.906 35.9253C239.5 35.456 238.956 35.2213 238.274 35.2213C237.58 35.2213 237.036 35.456 236.642 35.9253C236.247 36.3946 236.05 37.0026 236.05 37.7493V37.7973H240.514ZM246.219 42.7093C245.697 42.7093 245.211 42.6026 244.763 42.3893C244.326 42.176 243.974 41.888 243.707 41.5253C243.451 41.152 243.323 40.7413 243.323 40.2933C243.323 39.5893 243.611 39.0133 244.187 38.5653C244.763 38.1173 245.547 37.8186 246.539 37.6693L248.939 37.3333V36.8693C248.939 35.7706 248.305 35.2213 247.035 35.2213C246.545 35.2213 246.15 35.3226 245.851 35.5253C245.553 35.7173 245.334 35.9466 245.195 36.2133C245.153 36.32 245.105 36.3946 245.051 36.4373C245.009 36.4693 244.945 36.4853 244.859 36.4853H244.235C244.139 36.4853 244.054 36.4533 243.979 36.3893C243.915 36.3146 243.883 36.2293 243.883 36.1333C243.883 35.888 243.995 35.6053 244.219 35.2853C244.454 34.9546 244.811 34.672 245.291 34.4373C245.771 34.192 246.358 34.0693 247.051 34.0693C248.246 34.0693 249.099 34.3466 249.611 34.9013C250.134 35.456 250.395 36.1493 250.395 36.9813V42.1813C250.395 42.288 250.358 42.3786 250.283 42.4533C250.219 42.5173 250.134 42.5493 250.027 42.5493H249.323C249.217 42.5493 249.131 42.5173 249.067 42.4533C249.003 42.3786 248.971 42.288 248.971 42.1813V41.4773C248.737 41.8293 248.395 42.1226 247.947 42.3573C247.499 42.592 246.923 42.7093 246.219 42.7093ZM246.539 41.5413C247.243 41.5413 247.819 41.312 248.267 40.8533C248.715 40.3946 248.939 39.728 248.939 38.8533V38.4053L247.067 38.6773C246.299 38.784 245.718 38.9653 245.323 39.2213C244.929 39.4773 244.731 39.7973 244.731 40.1813C244.731 40.6186 244.907 40.9546 245.259 41.1893C245.622 41.424 246.049 41.5413 246.539 41.5413ZM255.834 42.5493C254.181 42.5493 253.354 41.616 253.354 39.7493V35.4613H252.09C251.983 35.4613 251.898 35.4293 251.834 35.3653C251.77 35.3013 251.738 35.216 251.738 35.1093V34.5973C251.738 34.4906 251.77 34.4053 251.834 34.3413C251.898 34.2666 251.983 34.2293 252.09 34.2293H253.354V31.5573C253.354 31.4506 253.386 31.3653 253.45 31.3013C253.514 31.2266 253.599 31.1893 253.706 31.1893H254.41C254.517 31.1893 254.602 31.2266 254.666 31.3013C254.741 31.3653 254.778 31.4506 254.778 31.5573V34.2293H256.762C256.869 34.2293 256.954 34.2666 257.018 34.3413C257.093 34.4053 257.13 34.4906 257.13 34.5973V35.1093C257.13 35.216 257.093 35.3013 257.018 35.3653C256.954 35.4293 256.869 35.4613 256.762 35.4613H254.778V39.6373C254.778 40.1813 254.863 40.592 255.034 40.8693C255.215 41.1466 255.519 41.2853 255.946 41.2853H256.922C257.029 41.2853 257.114 41.3226 257.178 41.3973C257.242 41.4613 257.274 41.5466 257.274 41.6533V42.1813C257.274 42.288 257.242 42.3786 257.178 42.4533C257.114 42.5173 257.029 42.5493 256.922 42.5493H255.834ZM261.941 42.7093C260.928 42.7093 260.144 42.384 259.589 41.7333C259.034 41.072 258.757 40.1973 258.757 39.1093V34.5973C258.757 34.4906 258.789 34.4053 258.853 34.3413C258.928 34.2666 259.018 34.2293 259.125 34.2293H259.861C259.968 34.2293 260.053 34.2666 260.117 34.3413C260.192 34.4053 260.229 34.4906 260.229 34.5973V39.0293C260.229 40.6506 260.933 41.4613 262.341 41.4613C263.024 41.4613 263.562 41.248 263.957 40.8213C264.362 40.384 264.565 39.7866 264.565 39.0293V34.5973C264.565 34.4906 264.597 34.4053 264.661 34.3413C264.736 34.2666 264.826 34.2293 264.933 34.2293H265.669C265.776 34.2293 265.861 34.2666 265.925 34.3413C266 34.4053 266.037 34.4906 266.037 34.5973V42.1813C266.037 42.288 266 42.3786 265.925 42.4533C265.861 42.5173 265.776 42.5493 265.669 42.5493H264.981C264.874 42.5493 264.784 42.5173 264.709 42.4533C264.645 42.3786 264.613 42.288 264.613 42.1813V41.4613C264.304 41.8773 263.941 42.192 263.525 42.4053C263.109 42.608 262.581 42.7093 261.941 42.7093ZM268.799 42.5493C268.692 42.5493 268.602 42.5173 268.527 42.4533C268.463 42.3786 268.431 42.288 268.431 42.1813V34.6133C268.431 34.5066 268.463 34.416 268.527 34.3413C268.602 34.2666 268.692 34.2293 268.799 34.2293H269.471C269.588 34.2293 269.679 34.2666 269.743 34.3413C269.818 34.4053 269.855 34.496 269.855 34.6133V35.3173C270.292 34.592 271.034 34.2293 272.079 34.2293H272.703C272.82 34.2293 272.911 34.2613 272.975 34.3253C273.039 34.3893 273.071 34.48 273.071 34.5973V35.1893C273.071 35.296 273.039 35.3866 272.975 35.4613C272.911 35.5253 272.82 35.5573 272.703 35.5573H271.791C271.204 35.5573 270.74 35.728 270.399 36.0693C270.068 36.4106 269.903 36.8746 269.903 37.4613V42.1813C269.903 42.288 269.866 42.3786 269.791 42.4533C269.716 42.5173 269.626 42.5493 269.519 42.5493H268.799ZM277.586 42.7093C276.498 42.7093 275.629 42.3733 274.978 41.7013C274.328 41.0186 273.97 40.0906 273.906 38.9173L273.89 38.3733L273.906 37.8453C273.97 36.6933 274.328 35.776 274.978 35.0933C275.629 34.4106 276.498 34.0693 277.586 34.0693C278.76 34.0693 279.666 34.4426 280.306 35.1893C280.957 35.936 281.282 36.9493 281.282 38.2293V38.5173C281.282 38.624 281.245 38.7146 281.17 38.7893C281.106 38.8533 281.021 38.8853 280.914 38.8853H275.362V39.0293C275.394 39.7226 275.608 40.3146 276.002 40.8053C276.397 41.296 276.92 41.5413 277.57 41.5413C278.072 41.5413 278.477 41.4453 278.786 41.2533C279.106 41.0506 279.346 40.8426 279.506 40.6293C279.602 40.5013 279.677 40.4266 279.73 40.4053C279.784 40.3733 279.874 40.3573 280.002 40.3573H280.706C280.802 40.3573 280.882 40.384 280.946 40.4373C281.021 40.4906 281.058 40.56 281.058 40.6453C281.058 40.88 280.914 41.1626 280.626 41.4933C280.338 41.824 279.928 42.112 279.394 42.3573C278.872 42.592 278.269 42.7093 277.586 42.7093ZM279.826 37.7973V37.7493C279.826 37.0026 279.624 36.3946 279.218 35.9253C278.813 35.456 278.269 35.2213 277.586 35.2213C276.893 35.2213 276.349 35.456 275.954 35.9253C275.56 36.3946 275.362 37.0026 275.362 37.7493V37.7973H279.826ZM283.484 42.5493C283.377 42.5493 283.286 42.5173 283.212 42.4533C283.148 42.3786 283.116 42.288 283.116 42.1813V41.0773C283.116 40.9706 283.148 40.88 283.212 40.8053C283.286 40.7306 283.377 40.6933 283.484 40.6933H284.588C284.694 40.6933 284.78 40.7306 284.844 40.8053C284.918 40.88 284.956 40.9706 284.956 41.0773V42.1813C284.956 42.288 284.918 42.3786 284.844 42.4533C284.78 42.5173 284.694 42.5493 284.588 42.5493H283.484Z" fill="#4F5665"/>
</svg>
